<svg id="Layer_1" data-name="Layer 1" xmlns="http://www.w3.org/2000/svg" viewBox="0 0 638.98 645.76"><defs><style>.cls-1{fill:#c2ca6c;}.cls-2{font-size:27px;fill:#36393d;font-family:PTSans-Regular, PT Sans;}.cls-3{letter-spacing:-0.04em;}.cls-4{letter-spacing:-0.01em;}.cls-5{letter-spacing:-0.05em;}.cls-6{letter-spacing:1.07em;}.cls-13,.cls-15,.cls-17,.cls-7,.cls-8,.cls-9{font-family:PTSans-Bold, PT Sans;font-weight:700;}.cls-8{letter-spacing:-0.03em;}.cls-9{letter-spacing:-0.04em;}.cls-10{letter-spacing:-0.03em;}.cls-11{letter-spacing:-0.03em;}.cls-12{letter-spacing:-0.07em;}.cls-13{letter-spacing:-0.12em;}.cls-14{letter-spacing:0.65em;}.cls-15{letter-spacing:1.08em;}.cls-16{letter-spacing:0.61em;}.cls-17{letter-spacing:0.27em;}</style></defs><title>c2ac6c</title><rect class="cls-1" x="1.7" width="637.29" height="442.37"/><text class="cls-2" transform="translate(0 488.39)"><tspan class="cls-3">R</tspan><tspan x="14.88" y="0">GB </tspan><tspan class="cls-4" x="54.38" y="0">w</tspan><tspan x="73.93" y="0">eb</tspan><tspan class="cls-5" x="102.22" y="0">	</tspan><tspan class="cls-6" x="108" y="0">	</tspan><tspan class="cls-7" x="144" y="0">#C2</tspan><tspan class="cls-8" x="189.71" y="0">A</tspan><tspan class="cls-7" x="205.21" y="0">C6</tspan><tspan class="cls-9" x="235.61" y="0">C</tspan><tspan class="cls-10" x="0" y="32.4">C</tspan><tspan x="14.47" y="32.4">YM</tspan><tspan class="cls-11" x="50.89" y="32.4">K</tspan><tspan class="cls-12" x="66.55" y="32.4">	</tspan><tspan class="cls-6" x="72" y="32.4" xml:space="preserve">		</tspan><tspan class="cls-7" x="144" y="32.4">2</tspan><tspan class="cls-13" x="159.31" y="32.4">7</tspan><tspan class="cls-7" x="171.4" y="32.4">.06% 9.55% 72.61% 0%</tspan><tspan class="cls-3" x="0" y="64.8">R</tspan><tspan x="14.88" y="64.8">GB</tspan><tspan class="cls-14" x="47.17" y="64.8">	</tspan><tspan class="cls-15" x="72" y="64.8" xml:space="preserve">		</tspan><tspan class="cls-7" x="144" y="64.8">194 202 108</tspan><tspan x="0" y="97.2">HSB</tspan><tspan class="cls-16" x="48.25" y="97.2">	</tspan><tspan class="cls-15" x="72" y="97.2" xml:space="preserve">		</tspan><tspan class="cls-7" x="144" y="97.2">65.11ยบ 46.53% 79.22%</tspan><tspan class="cls-17" x="417.96" y="97.2">	</tspan><tspan class="cls-15" x="432" y="97.2">	</tspan></text></svg>