<svg xmlns="http://www.w3.org/2000/svg" viewBox="0 0 540.18 125.88"><defs><style>.cls-1{fill:none;stroke-width:5px;}.cls-1,.cls-2{stroke:#000;stroke-miterlimit:10;}.cls-2{stroke-width:3px;}.cls-3{fill:#c6e1d5;}</style></defs><title>Asset 7fads_scheme</title><g id="Layer_2" data-name="Layer 2"><g id="Layer_1-2" data-name="Layer 1"><line class="cls-1" y1="87.73" x2="540.18" y2="87.73"/><line class="cls-1" x1="62.04" y1="18.73" x2="62.04" y2="88.73"/><line class="cls-1" x1="24.54" y1="16.4" x2="99.54" y2="16.4"/><path class="cls-2" d="M258.62,87.56H207.78c0-12.16,11.38-22,25.42-22S258.62,75.4,258.62,87.56Z"/><rect class="cls-3" x="309.09" y="28.8" width="160" height="55.93"/><path class="cls-1" d="M123.4,86.56v-70h75"/><polygon points="180.09 33.13 204.02 16.56 180.09 0 180.09 33.13"/><path d="M330.05,100h11.62v3.42h-7.78v4.84h7.16v3.42h-7.16v7.92h-3.84Z"/><path d="M344.11,106.42a12.35,12.35,0,0,1,2.66-.8,17.61,17.61,0,0,1,3.22-.29,7.35,7.35,0,0,1,2.43.35,3.74,3.74,0,0,1,1.56,1,3.8,3.8,0,0,1,.81,1.54,7.83,7.83,0,0,1,.24,2c0,.82,0,1.65-.09,2.48s-.09,1.64-.1,2.45,0,1.58.07,2.34a9.22,9.22,0,0,0,.42,2.14h-3l-.59-1.93h-.14a5.08,5.08,0,0,1-1.56,1.49,4.69,4.69,0,0,1-2.56.63,4.89,4.89,0,0,1-1.76-.29,4,4,0,0,1-1.35-.84,3.7,3.7,0,0,1-.86-1.29,4.2,4.2,0,0,1-.31-1.66,3.89,3.89,0,0,1,.57-2.17,4.08,4.08,0,0,1,1.65-1.43,8.08,8.08,0,0,1,2.58-.76,18.8,18.8,0,0,1,3.35-.13,3.63,3.63,0,0,0-.23-2.25c-.28-.46-.9-.68-1.87-.68a12.68,12.68,0,0,0-2.31.22,8.67,8.67,0,0,0-2,.59Zm4.62,10.42a2.78,2.78,0,0,0,1.73-.49,3.41,3.41,0,0,0,1-1v-1.82a9.29,9.29,0,0,0-1.66,0,6.33,6.33,0,0,0-1.42.25,2.45,2.45,0,0,0-1,.56,1.27,1.27,0,0,0-.36.93,1.57,1.57,0,0,0,.46,1.21A1.79,1.79,0,0,0,348.73,116.84Z"/><path d="M370,114.68c0,.79,0,1.57,0,2.35a20.18,20.18,0,0,0,.26,2.61h-2.61l-.5-1.82H367a4.29,4.29,0,0,1-1.61,1.58,4.92,4.92,0,0,1-2.48.6,5,5,0,0,1-4.09-1.74q-1.46-1.73-1.46-5.43a8.6,8.6,0,0,1,1.63-5.57,5.8,5.8,0,0,1,4.76-2,9.2,9.2,0,0,1,1.43.1,6.11,6.11,0,0,1,1.12.32V100H370Zm-6.19,2.24a2.5,2.5,0,0,0,1.68-.52,2.79,2.79,0,0,0,.87-1.49V109a2.6,2.6,0,0,0-.87-.46,4.17,4.17,0,0,0-1.23-.16,2.69,2.69,0,0,0-2.31,1,6.09,6.09,0,0,0-.77,3.56,5.75,5.75,0,0,0,.63,2.88A2.13,2.13,0,0,0,363.79,116.92Z"/><path d="M371.57,122.89H384v3H371.57Z"/><path d="M404.53,119.61a5.66,5.66,0,0,1-1.65,4.49,6.84,6.84,0,0,1-4.62,1.45,13.85,13.85,0,0,1-3.18-.29,7.85,7.85,0,0,1-1.75-.58l.75-2.89q.65.25,1.5.51a7.56,7.56,0,0,0,2.12.25,3.26,3.26,0,0,0,2.59-.83,3.55,3.55,0,0,0,.68-2.31v-.89h-.11c-.65.88-1.81,1.31-3.47,1.31a4.86,4.86,0,0,1-4.05-1.68c-.88-1.12-1.33-2.87-1.33-5.26a8.08,8.08,0,0,1,1.79-5.68,6.76,6.76,0,0,1,5.21-1.94,18.13,18.13,0,0,1,3.21.26,13.31,13.31,0,0,1,2.31.58Zm-6.16-2.69a2.56,2.56,0,0,0,1.64-.47,3.1,3.1,0,0,0,.88-1.43v-6.3a5.66,5.66,0,0,0-2.16-.37,2.56,2.56,0,0,0-2.18,1.05,5.68,5.68,0,0,0-.79,3.35,5.86,5.86,0,0,0,.68,3.11A2.14,2.14,0,0,0,398.37,116.92Z"/><path d="M418.89,118.41a7.34,7.34,0,0,1-2.28,1.13,9.92,9.92,0,0,1-3.07.46,6,6,0,0,1-5-2,8.47,8.47,0,0,1-1.57-5.42,7.77,7.77,0,0,1,1.76-5.54,6.51,6.51,0,0,1,5-1.85,7.55,7.55,0,0,1,2.07.28,4.7,4.7,0,0,1,1.79.92,4.4,4.4,0,0,1,1.26,1.74,6.74,6.74,0,0,1,.48,2.71,11.26,11.26,0,0,1-.07,1.26c0,.45-.12.92-.21,1.4h-8.4a4.1,4.1,0,0,0,.91,2.66,3.47,3.47,0,0,0,2.67.9,6,6,0,0,0,3.45-1.06Zm-5.21-10.28a2.54,2.54,0,0,0-2.11.85,4.26,4.26,0,0,0-.83,2.28H416a3.51,3.51,0,0,0-.46-2.32A2.06,2.06,0,0,0,413.68,108.13Z"/><path d="M430.48,119.61v-8a4.7,4.7,0,0,0-.49-2.47,1.82,1.82,0,0,0-1.66-.75,2.62,2.62,0,0,0-1.75.6,3.25,3.25,0,0,0-1,1.5v9.07h-3.64v-14h2.88l.42,1.85h.11a6,6,0,0,1,1.71-1.57,5,5,0,0,1,2.74-.67,5.58,5.58,0,0,1,1.85.28,3.06,3.06,0,0,1,1.37.92,4,4,0,0,1,.84,1.75,11.18,11.18,0,0,1,.28,2.73v8.71Z"/><path d="M448.38,118.41a7.4,7.4,0,0,1-2.29,1.13A9.9,9.9,0,0,1,443,120a6,6,0,0,1-5-2,8.53,8.53,0,0,1-1.57-5.42q0-3.69,1.77-5.54a6.49,6.49,0,0,1,5-1.85,7.67,7.67,0,0,1,2.08.28,4.77,4.77,0,0,1,1.79.92,4.61,4.61,0,0,1,1.26,1.74,6.93,6.93,0,0,1,.47,2.71,11.26,11.26,0,0,1-.07,1.26,12.18,12.18,0,0,1-.21,1.4h-8.4a4.1,4.1,0,0,0,.91,2.66,3.49,3.49,0,0,0,2.68.9,6,6,0,0,0,3.44-1.06Zm-5.21-10.28a2.56,2.56,0,0,0-2.12.85,4.25,4.25,0,0,0-.82,2.28h5.21a3.5,3.5,0,0,0-.47-2.32A2,2,0,0,0,443.17,108.13Z"/></g></g></svg>