<svg xmlns="http://www.w3.org/2000/svg" viewBox="0 0 455.18 211.73"><defs><style>.cls-1{fill:none;stroke:#000;stroke-miterlimit:10;stroke-width:5px;}</style></defs><title>Asset 22pARbasic</title><g id="Layer_2" data-name="Layer 2"><g id="Layer_1-2" data-name="Layer 1"><path class="cls-1" d="M189.69,114V44h75"/><polygon points="246.38 60.51 270.31 43.95 246.38 27.39 246.38 60.51"/><path d="M169.24,160.63h2.47l.39,1.56h.1a4.31,4.31,0,0,1,1.6-1.45,4.93,4.93,0,0,1,2.25-.47,4.37,4.37,0,0,1,3.66,1.55q1.23,1.55,1.23,5a10.69,10.69,0,0,1-.39,3,6.33,6.33,0,0,1-1.16,2.27,4.93,4.93,0,0,1-1.87,1.43,6.16,6.16,0,0,1-2.54.5,5.94,5.94,0,0,1-1.32-.12,4.21,4.21,0,0,1-1-.38v5.33h-3.38Zm5.79,2.5a2.29,2.29,0,0,0-1.54.49,3.12,3.12,0,0,0-.87,1.49v5.4a2.73,2.73,0,0,0,.79.46,3.2,3.2,0,0,0,1.13.17,2.48,2.48,0,0,0,2.18-1,6,6,0,0,0,.73-3.39,5.09,5.09,0,0,0-.57-2.65A2,2,0,0,0,175,163.13Z"/><path d="M191.21,168.75a1.73,1.73,0,0,0-.61-1.36,7.14,7.14,0,0,0-1.54-.95c-.61-.28-1.28-.58-2-.88a9.52,9.52,0,0,1-2-1.12,5.65,5.65,0,0,1-1.54-1.65,4.8,4.8,0,0,1-.61-2.52,5.62,5.62,0,0,1,.44-2.3,4.42,4.42,0,0,1,1.27-1.63,5.46,5.46,0,0,1,1.93-1,9.25,9.25,0,0,1,2.5-.31,15.83,15.83,0,0,1,3,.27,7.42,7.42,0,0,1,2.31.8l-1.12,3a6,6,0,0,0-1.71-.67,9.72,9.72,0,0,0-2.47-.3,3.15,3.15,0,0,0-1.91.5,1.58,1.58,0,0,0-.67,1.32,1.63,1.63,0,0,0,.62,1.3,6.84,6.84,0,0,0,1.53,1c.61.29,1.28.59,2,.91a10.54,10.54,0,0,1,2,1.13,5.61,5.61,0,0,1,1.54,1.64,4.56,4.56,0,0,1,.61,2.43,6,6,0,0,1-.48,2.51,4.77,4.77,0,0,1-1.35,1.75,5.72,5.72,0,0,1-2.11,1,10.08,10.08,0,0,1-2.72.34,14.08,14.08,0,0,1-3.43-.37,10.32,10.32,0,0,1-2.18-.72l1.14-3a6,6,0,0,0,.74.34,8.89,8.89,0,0,0,1,.34c.38.1.78.19,1.21.26a8,8,0,0,0,1.31.1,4.52,4.52,0,0,0,2.43-.53A1.79,1.79,0,0,0,191.21,168.75Z"/><path d="M209.38,159.67a5.67,5.67,0,0,1-.17,1.35,3.58,3.58,0,0,1-.56,1.24,4.14,4.14,0,0,1-1,1,4.41,4.41,0,0,1-1.51.63V164a6.17,6.17,0,0,1,1.48.44,3.8,3.8,0,0,1,1.22.86,3.88,3.88,0,0,1,.82,1.33,5.11,5.11,0,0,1,.3,1.84,4.71,4.71,0,0,1-.6,2.43,4.83,4.83,0,0,1-1.59,1.68,7.53,7.53,0,0,1-2.28,1,10.88,10.88,0,0,1-2.63.31h-1.13l-1.48,0-1.61-.12a10.47,10.47,0,0,1-1.5-.24V155.56l1.14-.15c.42,0,.87-.1,1.36-.13s1-.06,1.5-.08,1,0,1.52,0a15.56,15.56,0,0,1,2.48.2,7.11,7.11,0,0,1,2.16.69,4,4,0,0,1,1.52,1.38A4,4,0,0,1,209.38,159.67Zm-7.67,3.41.85,0a7,7,0,0,0,.79-.07,4.83,4.83,0,0,0,1.7-.93,2,2,0,0,0,.72-1.62,2.17,2.17,0,0,0-.26-1.11,2.07,2.07,0,0,0-.69-.69,3,3,0,0,0-1-.36,6,6,0,0,0-1.14-.11c-.45,0-.87,0-1.25,0a7,7,0,0,0-.88.08v4.81Zm1.17,7.82a5.3,5.3,0,0,0,1.26-.15,3.12,3.12,0,0,0,1.08-.48,2.43,2.43,0,0,0,.75-.81,2.27,2.27,0,0,0-.93-3.25,3.68,3.68,0,0,0-1.22-.35,12.4,12.4,0,0,0-1.36-.08h-1.89v5a1.82,1.82,0,0,0,.41.08l.61,0,.68,0Z"/><path d="M213.57,170.77h3.61V160.5l.39-1.76-1.25,1.53L214,161.86l-1.43-2,5.93-4.79h1.89v15.65h3.54v2.86H213.57Z"/><path d="M239.57,172.89a5.61,5.61,0,0,1-2.12.85,13.58,13.58,0,0,1-2.64.26,9.44,9.44,0,0,1-3.11-.51,6.64,6.64,0,0,1-2.59-1.64,8.07,8.07,0,0,1-1.78-2.93,12.88,12.88,0,0,1-.66-4.39,11.92,11.92,0,0,1,.74-4.48,8.16,8.16,0,0,1,1.92-2.91,7.08,7.08,0,0,1,2.64-1.59,9.26,9.26,0,0,1,2.92-.48,13.91,13.91,0,0,1,2.63.21,10,10,0,0,1,1.79.49l-.71,3a5.32,5.32,0,0,0-1.41-.42,13.9,13.9,0,0,0-2-.13,4.35,4.35,0,0,0-3.47,1.54,7.19,7.19,0,0,0-1.32,4.77,9.75,9.75,0,0,0,.32,2.56,5.36,5.36,0,0,0,.94,2,4.4,4.4,0,0,0,1.59,1.28,5.09,5.09,0,0,0,2.2.46,6.93,6.93,0,0,0,2-.24,5.35,5.35,0,0,0,1.41-.6Z"/><path d="M246.48,171.14a3.3,3.3,0,0,0,2.46-.86,2.85,2.85,0,0,0,.84-2.08,2.59,2.59,0,0,0-.88-2.18,4.45,4.45,0,0,0-2.78-.71h-1.87v-1.79l3.14-4.29,1.48-1.17-2.05.23h-4.37v-2.86h9.93v1.85l-3.66,4.91-1.15.71V163l1.1-.16a5.56,5.56,0,0,1,1.72.42,4,4,0,0,1,1.43,1,4.71,4.71,0,0,1,1,1.57,6,6,0,0,1,.36,2.16,6.46,6.46,0,0,1-.5,2.65,5.29,5.29,0,0,1-1.41,1.88,5.83,5.83,0,0,1-2.09,1.11,8.59,8.59,0,0,1-2.57.37,13.9,13.9,0,0,1-2.37-.21,6.94,6.94,0,0,1-2-.6l.91-2.81a7.17,7.17,0,0,0,1.5.55A7.36,7.36,0,0,0,246.48,171.14Z"/><rect class="cls-1" x="2.5" y="113.18" width="450.18" height="96.06" rx="8.68" ry="8.68"/><line class="cls-1" x1="36.45" y1="82.53" x2="36.45" y2="143.85"/><line class="cls-1" x1="54.45" y1="82.5" x2="54.45" y2="143.82"/><path d="M32.23,62.1H41v2.56H35.11v3.42h5.31v2.57H35.11v3.59h5.94V76.8H32.23Z"/><path d="M52.84,69.32,48.75,62.1h3.47l2.26,4.24L55,67.83l.48-1.49,2.37-4.24H61l-4.24,7.08,4.45,7.62H57.76l-2.58-4.54-.57-1.55-.55,1.55-2.6,4.54H48.33Z"/><line class="cls-1" x1="396.26" y1="81.49" x2="396.26" y2="142.81"/><line class="cls-1" x1="414.26" y1="81.46" x2="414.26" y2="142.78"/><path d="M398.3,71.81a1.35,1.35,0,0,0-.49-1.09,5.38,5.38,0,0,0-1.24-.77c-.5-.23-1-.47-1.62-.71a8.54,8.54,0,0,1-1.62-.91A4.47,4.47,0,0,1,392.1,67a3.8,3.8,0,0,1-.5-2,4.39,4.39,0,0,1,.36-1.85,3.51,3.51,0,0,1,1-1.32,4.23,4.23,0,0,1,1.56-.77,7.44,7.44,0,0,1,2-.26A13.16,13.16,0,0,1,399,61a6.19,6.19,0,0,1,1.87.64l-.9,2.42a4.89,4.89,0,0,0-1.39-.54,7.86,7.86,0,0,0-2-.24,2.63,2.63,0,0,0-1.55.4,1.28,1.28,0,0,0-.53,1.07,1.32,1.32,0,0,0,.49,1,5.75,5.75,0,0,0,1.24.78c.5.24,1,.48,1.62.73a9.17,9.17,0,0,1,1.62.92,4.69,4.69,0,0,1,1.23,1.32,3.63,3.63,0,0,1,.5,2,4.84,4.84,0,0,1-.39,2,3.84,3.84,0,0,1-1.09,1.42,4.59,4.59,0,0,1-1.7.84,8.45,8.45,0,0,1-2.2.27,12,12,0,0,1-2.77-.29,8.2,8.2,0,0,1-1.76-.59l.92-2.46a4.35,4.35,0,0,0,.6.28c.24.09.52.18.83.27s.63.15,1,.21a6.23,6.23,0,0,0,1.06.08,3.69,3.69,0,0,0,2-.43A1.44,1.44,0,0,0,398.3,71.81Z"/><path d="M409.94,61.2a19.47,19.47,0,0,1,1.94-.26c.71-.06,1.41-.09,2.11-.09a13.69,13.69,0,0,1,2.2.18,5.45,5.45,0,0,1,2,.71,4.12,4.12,0,0,1,1.44,1.49,4.94,4.94,0,0,1,.56,2.49,5.19,5.19,0,0,1-.49,2.34,4.5,4.5,0,0,1-1.28,1.57,5.22,5.22,0,0,1-1.82.88,8.19,8.19,0,0,1-2.11.27h-.82l-.49,0-.34,0v5.06h-2.88Zm4.28,2.13c-.28,0-.54,0-.8,0a5.57,5.57,0,0,0-.6.07V68.2l.25,0,.35,0h.63a6.09,6.09,0,0,0,1.13-.1,2.7,2.7,0,0,0,1-.39,2,2,0,0,0,.71-.79,3,3,0,0,0,.26-1.32,2.33,2.33,0,0,0-.25-1.15,2.08,2.08,0,0,0-.66-.72,2.7,2.7,0,0,0-.94-.38A5.39,5.39,0,0,0,414.22,63.33Z"/><path d="M201.46,5.88h2.66l.42,1.68h.11A4.73,4.73,0,0,1,206.37,6a5.38,5.38,0,0,1,2.42-.5,4.72,4.72,0,0,1,4,1.66q1.32,1.66,1.32,5.37a11.54,11.54,0,0,1-.42,3.23,6.83,6.83,0,0,1-1.25,2.45,5.42,5.42,0,0,1-2,1.54,6.75,6.75,0,0,1-2.73.53,7,7,0,0,1-1.43-.12,4.89,4.89,0,0,1-1.12-.41v5.74h-3.64Zm6.24,2.69A2.43,2.43,0,0,0,206,9.1a3.41,3.41,0,0,0-.94,1.6v5.82A3.14,3.14,0,0,0,206,17a3.45,3.45,0,0,0,1.22.18,2.69,2.69,0,0,0,2.35-1.1,6.53,6.53,0,0,0,.79-3.66,5.48,5.48,0,0,0-.62-2.85A2.14,2.14,0,0,0,207.7,8.57Z"/><path d="M226.32,15.54h-6l-1.48,4.34H215L222,.14h2.83l7,19.74h-4Zm-5-3.08h4.2L224,8.09,223.44,5h-.14l-.59,3.11Z"/><path d="M233.6.48c.43-.08.89-.15,1.39-.21s1-.12,1.48-.16,1-.06,1.44-.08l1.29,0a14.2,14.2,0,0,1,2.7.25,7.41,7.41,0,0,1,2.38.87A4.69,4.69,0,0,1,246,2.81a5.3,5.3,0,0,1,.63,2.71,6.41,6.41,0,0,1-1.12,3.92,5.82,5.82,0,0,1-3,2.1l1.37.86,4.48,7.48h-4.42l-4.46-7.67-2-.37v8H233.6Zm5.88,2.94-1.16,0a4,4,0,0,0-.88.12V9.24h1.62a4,4,0,0,0,2.55-.73,2.85,2.85,0,0,0,.95-2.41,2.54,2.54,0,0,0-.78-2A3.3,3.3,0,0,0,239.48,3.42Z"/></g></g></svg>