<svg xmlns="http://www.w3.org/2000/svg" viewBox="0 0 729.55 214.01"><defs><style>.cls-1{fill:none;stroke-width:5px;}.cls-1,.cls-2{stroke:#000;stroke-miterlimit:10;}.cls-2{stroke-width:3px;}.cls-3{fill:#0079bf;}</style></defs><title>Asset 30partfadEcomposite</title><g id="Layer_2" data-name="Layer 2"><g id="Layer_1-2" data-name="Layer 1"><line class="cls-1" x1="149.18" y1="44.96" x2="149.18" y2="114.96"/><line class="cls-1" x1="111.68" y1="42.63" x2="186.68" y2="42.63"/><path class="cls-1" d="M228.67,115V45h75"/><polygon points="285.36 61.52 309.29 44.96 285.36 28.39 285.36 61.52"/><path class="cls-2" d="M371.65,115H320.8c0-12.17,11.39-22,25.43-22S371.65,102.79,371.65,115Z"/><rect class="cls-3" x="414.56" y="56.99" width="160" height="55.93"/><path d="M292.48,149.48H295l.39,1.56h.1a4.33,4.33,0,0,1,1.6-1.46,5,5,0,0,1,2.25-.47,4.41,4.41,0,0,1,3.67,1.55q1.21,1.54,1.22,5a10.69,10.69,0,0,1-.39,3,6.37,6.37,0,0,1-1.16,2.28,5.06,5.06,0,0,1-1.87,1.43,6.16,6.16,0,0,1-2.54.49,6.78,6.78,0,0,1-1.32-.11,4.66,4.66,0,0,1-1-.38v5.33h-3.38Zm5.8,2.49a2.26,2.26,0,0,0-1.55.5,3.25,3.25,0,0,0-.87,1.48v5.41a3.1,3.1,0,0,0,.79.45,3,3,0,0,0,1.13.17,2.52,2.52,0,0,0,2.19-1,6.12,6.12,0,0,0,.72-3.4,5.11,5.11,0,0,0-.57-2.65A2,2,0,0,0,298.28,152Z"/><path d="M314.45,157.59a1.72,1.72,0,0,0-.61-1.35,6.77,6.77,0,0,0-1.54-1c-.61-.29-1.28-.58-2-.88a10.51,10.51,0,0,1-2-1.12,5.49,5.49,0,0,1-1.53-1.65,4.72,4.72,0,0,1-.62-2.53,5.46,5.46,0,0,1,.45-2.3,4.19,4.19,0,0,1,1.26-1.62,5.3,5.3,0,0,1,1.93-1,9.24,9.24,0,0,1,2.5-.32,15.81,15.81,0,0,1,3,.28,7.34,7.34,0,0,1,2.31.79l-1.11,3a6.57,6.57,0,0,0-1.72-.66,9.72,9.72,0,0,0-2.47-.3,3.15,3.15,0,0,0-1.91.49,1.57,1.57,0,0,0-.66,1.33,1.63,1.63,0,0,0,.61,1.3,6.7,6.7,0,0,0,1.53,1c.62.3,1.28.6,2,.91a11,11,0,0,1,2,1.13,5.85,5.85,0,0,1,1.53,1.64,4.47,4.47,0,0,1,.61,2.43,6,6,0,0,1-.48,2.51,4.69,4.69,0,0,1-1.35,1.75,5.64,5.64,0,0,1-2.11,1,10.08,10.08,0,0,1-2.72.34,14.62,14.62,0,0,1-3.43-.36,10.43,10.43,0,0,1-2.18-.73l1.14-3a7.89,7.89,0,0,0,.74.34,9.64,9.64,0,0,0,1,.33,8.6,8.6,0,0,0,1.21.26,8,8,0,0,0,1.31.11,4.61,4.61,0,0,0,2.43-.53A1.79,1.79,0,0,0,314.45,157.59Z"/><path d="M332.62,148.52a5.21,5.21,0,0,1-.17,1.35,3.62,3.62,0,0,1-.56,1.23,3.67,3.67,0,0,1-1,1,4.41,4.41,0,0,1-1.51.64v.15a6.05,6.05,0,0,1,1.48.45,3.77,3.77,0,0,1,1.23.85,4.15,4.15,0,0,1,.82,1.33,5.4,5.4,0,0,1,.29,1.85,4.86,4.86,0,0,1-.59,2.43,5,5,0,0,1-1.6,1.67,7.3,7.3,0,0,1-2.28,1,11.38,11.38,0,0,1-2.62.31H325c-.45,0-.95,0-1.48,0l-1.61-.12a11.7,11.7,0,0,1-1.49-.23V144.41c.33,0,.7-.11,1.13-.16l1.36-.13,1.5-.08,1.52,0a15.57,15.57,0,0,1,2.48.19,7,7,0,0,1,2.16.69,4,4,0,0,1,1.52,1.38A4.07,4.07,0,0,1,332.62,148.52Zm-7.67,3.4.85,0c.32,0,.58-.05.79-.08a4.59,4.59,0,0,0,1.7-.93,2,2,0,0,0,.72-1.62,2.16,2.16,0,0,0-.26-1.1,2.1,2.1,0,0,0-.69-.7,3,3,0,0,0-1-.36,6,6,0,0,0-1.14-.1l-1.25,0c-.38,0-.67.05-.88.08v4.81Zm1.17,7.83a4.73,4.73,0,0,0,1.26-.16,3.31,3.31,0,0,0,1.08-.47,2.79,2.79,0,0,0,.76-.81,2.68,2.68,0,0,0-.06-2.5,2.32,2.32,0,0,0-.88-.76,3.61,3.61,0,0,0-1.22-.35,12.21,12.21,0,0,0-1.35-.07h-1.9v5a1.39,1.39,0,0,0,.41.08l.61,0,.68,0Z"/><path d="M336.81,159.62h3.61V149.35l.39-1.77-1.25,1.53-2.31,1.59-1.43-1.95,5.93-4.78h1.9v15.65h3.53v2.86H336.81Z"/><path d="M362.81,161.73a5.39,5.39,0,0,1-2.12.85,12.85,12.85,0,0,1-2.64.26,9.7,9.7,0,0,1-3.11-.5,6.65,6.65,0,0,1-2.58-1.64,8.21,8.21,0,0,1-1.79-2.94,12.86,12.86,0,0,1-.66-4.38,12,12,0,0,1,.74-4.49,8.27,8.27,0,0,1,1.93-2.91,7,7,0,0,1,2.64-1.58,9.26,9.26,0,0,1,2.91-.49,14.1,14.1,0,0,1,2.64.21,9.78,9.78,0,0,1,1.78.5l-.7,3a5.05,5.05,0,0,0-1.42-.41,12.58,12.58,0,0,0-2-.13,4.34,4.34,0,0,0-3.47,1.53,7.23,7.23,0,0,0-1.31,4.77A9.79,9.79,0,0,0,354,156a5.53,5.53,0,0,0,.95,2,4.26,4.26,0,0,0,1.58,1.27,4.94,4.94,0,0,0,2.2.46,7.48,7.48,0,0,0,2-.23,6.21,6.21,0,0,0,1.4-.6Z"/><path d="M369.72,160a3.26,3.26,0,0,0,2.46-.86A2.85,2.85,0,0,0,373,157a2.62,2.62,0,0,0-.88-2.18,4.46,4.46,0,0,0-2.78-.7h-1.87v-1.8l3.14-4.29,1.49-1.17-2.06.24h-4.37v-2.86h9.93v1.84L372,151l-1.15.7v.13l1.1-.16a6.35,6.35,0,0,1,1.73.42,4.25,4.25,0,0,1,1.43,1,4.65,4.65,0,0,1,1,1.57,6,6,0,0,1,.37,2.16,6.36,6.36,0,0,1-.51,2.65,5.26,5.26,0,0,1-1.41,1.87,5.77,5.77,0,0,1-2.09,1.12,8.87,8.87,0,0,1-2.57.36,14,14,0,0,1-2.37-.21,6.75,6.75,0,0,1-2-.59l.92-2.81a7.07,7.07,0,0,0,1.49.54A7.42,7.42,0,0,0,369.72,160Z"/><path d="M468.38,18H480v3.42h-7.78v4.84h7.17v3.42h-7.17v7.92h-3.84Z"/><path d="M482.44,24.42a11.81,11.81,0,0,1,2.66-.8,17.61,17.61,0,0,1,3.22-.29,7.35,7.35,0,0,1,2.43.35,3.68,3.68,0,0,1,1.56,1,3.8,3.8,0,0,1,.81,1.54,7.83,7.83,0,0,1,.24,2c0,.82,0,1.65-.09,2.48s-.09,1.65-.09,2.45,0,1.58.07,2.34a8.29,8.29,0,0,0,.42,2.14h-3l-.59-1.93H490a5,5,0,0,1-1.55,1.49,4.75,4.75,0,0,1-2.57.63,4.89,4.89,0,0,1-1.76-.29,3.91,3.91,0,0,1-1.34-.84,3.68,3.68,0,0,1-.87-1.29,4.2,4.2,0,0,1-.31-1.66,3.89,3.89,0,0,1,.57-2.17,4.18,4.18,0,0,1,1.66-1.43,7.94,7.94,0,0,1,2.57-.76,18,18,0,0,1,3.35-.12,3.65,3.65,0,0,0-.23-2.26c-.28-.46-.9-.68-1.87-.68a12.68,12.68,0,0,0-2.31.22,8.11,8.11,0,0,0-2,.59Zm4.62,10.42a2.82,2.82,0,0,0,1.73-.49,3.58,3.58,0,0,0,1-1.05V31.48a9.4,9.4,0,0,0-1.67,0,6.24,6.24,0,0,0-1.41.25,2.32,2.32,0,0,0-1,.56,1.23,1.23,0,0,0-.37.93,1.6,1.6,0,0,0,.46,1.21A1.81,1.81,0,0,0,487.06,34.84Z"/><path d="M508.31,32.68c0,.79,0,1.57,0,2.35a20,20,0,0,0,.25,2.61H506l-.5-1.82h-.11a4.22,4.22,0,0,1-1.61,1.58,4.92,4.92,0,0,1-2.48.6,5.07,5.07,0,0,1-4.09-1.73q-1.45-1.74-1.45-5.44a8.6,8.6,0,0,1,1.62-5.57,5.8,5.8,0,0,1,4.76-2,9.1,9.1,0,0,1,1.43.1,5.89,5.89,0,0,1,1.12.32V18h3.64Zm-6.19,2.24a2.5,2.5,0,0,0,1.68-.52,2.79,2.79,0,0,0,.87-1.49V27a2.6,2.6,0,0,0-.87-.46,4.17,4.17,0,0,0-1.23-.16,2.69,2.69,0,0,0-2.31,1,6.19,6.19,0,0,0-.77,3.56,5.75,5.75,0,0,0,.63,2.88A2.14,2.14,0,0,0,502.12,34.92Z"/><path d="M511.58,18H523.2v3.42h-7.78V26h7.08v3.42h-7.08v4.78h7.92v3.42H511.58Z"/><rect class="cls-1" x="2.5" y="115.46" width="724.55" height="96.06" rx="8.68" ry="8.68"/><line class="cls-1" x1="36.45" y1="84.81" x2="36.45" y2="146.13"/><line class="cls-1" x1="54.45" y1="84.78" x2="54.45" y2="146.1"/><path d="M32.23,64.38H41v2.56H35.11v3.43h5.31v2.56H35.11v3.59h5.94v2.56H32.23Z"/><path d="M52.85,71.61l-4.1-7.23h3.47l2.26,4.24L55,70.11l.48-1.49,2.37-4.24H61l-4.24,7.08,4.45,7.62H57.76l-2.58-4.54L54.61,73l-.55,1.55-2.6,4.54H48.33Z"/><line class="cls-1" x1="657.26" y1="93.69" x2="657.26" y2="155.01"/><line class="cls-1" x1="675.26" y1="93.66" x2="675.26" y2="154.98"/><path d="M659.3,84a1.35,1.35,0,0,0-.49-1.09,5.38,5.38,0,0,0-1.24-.77c-.5-.23-1-.47-1.62-.71a8.17,8.17,0,0,1-1.61-.91,4.38,4.38,0,0,1-1.24-1.33,3.8,3.8,0,0,1-.5-2A4.47,4.47,0,0,1,653,75.3,3.55,3.55,0,0,1,654,74a4.4,4.4,0,0,1,1.56-.78,7.87,7.87,0,0,1,2-.25,13.16,13.16,0,0,1,2.41.22,6.19,6.19,0,0,1,1.87.64l-.9,2.42a4.89,4.89,0,0,0-1.39-.54,7.86,7.86,0,0,0-2-.24,2.5,2.5,0,0,0-1.54.4,1.27,1.27,0,0,0-.54,1.07,1.32,1.32,0,0,0,.49,1,6,6,0,0,0,1.24.78c.5.24,1,.48,1.62.73a9.17,9.17,0,0,1,1.62.92,4.6,4.6,0,0,1,1.24,1.32,3.7,3.7,0,0,1,.49,2,4.84,4.84,0,0,1-.39,2,3.84,3.84,0,0,1-1.09,1.42A4.92,4.92,0,0,1,659,88a8.45,8.45,0,0,1-2.2.27A12,12,0,0,1,654,88a8.81,8.81,0,0,1-1.76-.59l.92-2.46a3.49,3.49,0,0,0,.6.27,8,8,0,0,0,.83.28c.31.08.63.15,1,.21a7.23,7.23,0,0,0,1.06.08,3.68,3.68,0,0,0,2-.43A1.45,1.45,0,0,0,659.3,84Z"/><path d="M670.94,73.4a19.47,19.47,0,0,1,1.94-.26c.71-.06,1.41-.09,2.11-.09a14.92,14.92,0,0,1,2.2.17,5.46,5.46,0,0,1,2,.72,4.12,4.12,0,0,1,1.44,1.49,4.94,4.94,0,0,1,.56,2.49,5.19,5.19,0,0,1-.49,2.34,4.37,4.37,0,0,1-1.28,1.56,5.28,5.28,0,0,1-1.81.89,8.27,8.27,0,0,1-2.12.27h-.81l-.5,0-.34,0V88h-2.88Zm4.28,2.12a6.91,6.91,0,0,0-.8,0,5.57,5.57,0,0,0-.6.07V80.4l.25,0,.35,0h.63a6.09,6.09,0,0,0,1.13-.1,3,3,0,0,0,1-.39,2.08,2.08,0,0,0,.7-.79,3,3,0,0,0,.26-1.32,2.31,2.31,0,0,0-.25-1.15,2.08,2.08,0,0,0-.66-.72,2.7,2.7,0,0,0-.94-.38A5.39,5.39,0,0,0,675.22,75.52Z"/><path d="M242,5.6h2.66l.42,1.68h.12A4.65,4.65,0,0,1,247,5.71a5.38,5.38,0,0,1,2.42-.5,4.72,4.72,0,0,1,4,1.66c.88,1.11,1.31,2.9,1.31,5.37a11.54,11.54,0,0,1-.42,3.23A6.82,6.82,0,0,1,253,17.92a5.37,5.37,0,0,1-2,1.54,6.68,6.68,0,0,1-2.73.53,7.06,7.06,0,0,1-1.43-.12,5.25,5.25,0,0,1-1.12-.41V25.2H242Zm6.25,2.69a2.41,2.41,0,0,0-1.67.53,3.52,3.52,0,0,0-.94,1.6v5.82a3.35,3.35,0,0,0,.86.49,3.41,3.41,0,0,0,1.22.18,2.71,2.71,0,0,0,2.35-1.1,6.54,6.54,0,0,0,.78-3.66,5.49,5.49,0,0,0-.61-2.85A2.15,2.15,0,0,0,248.29,8.29Z"/><path d="M271.16,3.42h-5.71V19.6h-3.83V3.42h-5.74V0h15.28Z"/><path d="M280.68,18.4a7.34,7.34,0,0,1-2.28,1.13,9.9,9.9,0,0,1-3.06.46,6,6,0,0,1-5-2,8.47,8.47,0,0,1-1.57-5.42q0-3.69,1.77-5.54a6.47,6.47,0,0,1,4.95-1.85,7.55,7.55,0,0,1,2.07.28,4.74,4.74,0,0,1,1.8.92,4.61,4.61,0,0,1,1.26,1.74,6.93,6.93,0,0,1,.47,2.71,11.13,11.13,0,0,1-.07,1.26,12.18,12.18,0,0,1-.21,1.4h-8.4a4.1,4.1,0,0,0,.91,2.66,3.48,3.48,0,0,0,2.68.9A6,6,0,0,0,279.48,16Zm-5.2-10.28a2.55,2.55,0,0,0-2.12.85,4.18,4.18,0,0,0-.82,2.29h5.2a3.52,3.52,0,0,0-.46-2.33A2,2,0,0,0,275.48,8.12Z"/><path d="M282.25,5.6h1.93V3l3.64-1V5.6h3.42V8.68h-3.42v5.38a5.2,5.2,0,0,0,.3,2.08,1.09,1.09,0,0,0,1.1.63,3.87,3.87,0,0,0,1-.11,7.63,7.63,0,0,0,.91-.34l.64,2.8a8.8,8.8,0,0,1-1.76.62,8.26,8.26,0,0,1-2,.25,3.71,3.71,0,0,1-2.85-1,4.81,4.81,0,0,1-.91-3.26V8.68h-1.93Z"/><path d="M141,12.8h-5.72V29H131.4V12.8h-5.74V9.38H141Z"/><path d="M144.08,25.9H148V14.84l.42-1.9-1.34,1.65-2.49,1.71L143,14.2,149.4,9h2V25.9h3.81V29H144.08Z"/><path d="M172.61,23.52h-3.08V29h-3.39V23.52h-8.48V21.45l8.88-12.21h3V20.61h3.08Zm-6.47-7.2L166.4,14h-.12l-.95,2-2.91,3.78L161,20.83l1.79-.22h3.33Z"/><path d="M337.1,78.43a3.54,3.54,0,0,0,2.65-.92,3.1,3.1,0,0,0,.91-2.24,2.83,2.83,0,0,0-1-2.35,4.8,4.8,0,0,0-3-.76h-2V70.23l3.39-4.62,1.6-1.26-2.22.25h-4.7V61.52h10.7v2l-3.95,5.29-1.23.76v.14l1.17-.17a6,6,0,0,1,1.86.45,4.31,4.31,0,0,1,1.54,1,5,5,0,0,1,1,1.69,6.22,6.22,0,0,1,.4,2.33,6.74,6.74,0,0,1-.55,2.85,5.65,5.65,0,0,1-1.51,2,6.29,6.29,0,0,1-2.26,1.2,9.46,9.46,0,0,1-2.77.39,15,15,0,0,1-2.54-.22,7.72,7.72,0,0,1-2.13-.64l1-3a8,8,0,0,0,1.61.59A7.91,7.91,0,0,0,337.1,78.43Z"/><path d="M359.53,66.31a8.44,8.44,0,0,1-.52,2.88,16.37,16.37,0,0,1-1.32,2.86,27.74,27.74,0,0,1-1.76,2.7q-1,1.31-1.89,2.4l-1.48,1.14v.14l2-.39H360v3.08H348.16V79.25c.45-.47.95-1,1.51-1.64s1.13-1.29,1.7-2,1.12-1.42,1.66-2.17a26,26,0,0,0,1.46-2.25,13.78,13.78,0,0,0,1-2.2,6.08,6.08,0,0,0,.38-2,2.76,2.76,0,0,0-.66-1.89,2.67,2.67,0,0,0-2.09-.74,5,5,0,0,0-1.83.38,5.25,5.25,0,0,0-1.58,1l-1.46-2.57a9.4,9.4,0,0,1,2.48-1.45,8.94,8.94,0,0,1,3.26-.54,6.78,6.78,0,0,1,2.21.34,4.78,4.78,0,0,1,1.74,1,4.42,4.42,0,0,1,1.15,1.61A5.58,5.58,0,0,1,359.53,66.31Z"/></g></g></svg>