<svg id="Layer_1" data-name="Layer 1" xmlns="http://www.w3.org/2000/svg" viewBox="0 0 639.48 646.26"><defs><style>.cls-1,.cls-2{fill:#36393d;}.cls-1{stroke:#fff;stroke-miterlimit:10;}.cls-2{font-size:27px;font-family:PTSans-Regular, PT Sans;}.cls-3{letter-spacing:-0.04em;}.cls-4{letter-spacing:-0.01em;}.cls-5{letter-spacing:-0.05em;}.cls-6{letter-spacing:1.07em;}.cls-12,.cls-14,.cls-15,.cls-17,.cls-7,.cls-8{font-family:PTSans-Bold, PT Sans;font-weight:700;}.cls-8{letter-spacing:-0.01em;}.cls-9{letter-spacing:-0.03em;}.cls-10{letter-spacing:-0.03em;}.cls-11{letter-spacing:-0.07em;}.cls-12{letter-spacing:-0.12em;}.cls-13{letter-spacing:0.65em;}.cls-14{letter-spacing:1.08em;}.cls-15{letter-spacing:-0.05em;}.cls-16{letter-spacing:0.61em;}.cls-17{letter-spacing:1.03em;}</style></defs><title>T--UPF_CRG_Barcelona--36393D</title><rect class="cls-1" x="1.7" y="0.5" width="637.29" height="442.37"/><text class="cls-2" transform="translate(0 488.89)"><tspan class="cls-3">R</tspan><tspan x="14.88" y="0">GB </tspan><tspan class="cls-4" x="54.38" y="0">w</tspan><tspan x="73.93" y="0">eb</tspan><tspan class="cls-5" x="102.22" y="0">	</tspan><tspan class="cls-6" x="108" y="0">	</tspan><tspan class="cls-7" x="144" y="0">#36393</tspan><tspan class="cls-8" x="235.85" y="0">D</tspan><tspan class="cls-9" x="0" y="32.4">C</tspan><tspan x="14.47" y="32.4">YM</tspan><tspan class="cls-10" x="50.89" y="32.4">K</tspan><tspan class="cls-11" x="66.55" y="32.4">	</tspan><tspan class="cls-6" x="72" y="32.4" xml:space="preserve">		</tspan><tspan class="cls-7" x="144" y="32.4">72.23% 63.56% 5</tspan><tspan class="cls-12" x="354.08" y="32.4">7</tspan><tspan class="cls-7" x="366.18" y="32.4">.98% 50.94%</tspan><tspan class="cls-3" x="0" y="64.8">R</tspan><tspan x="14.88" y="64.8">GB</tspan><tspan class="cls-13" x="47.17" y="64.8">	</tspan><tspan class="cls-14" x="72" y="64.8" xml:space="preserve">		</tspan><tspan class="cls-7" x="144" y="64.8">54 5</tspan><tspan class="cls-15" x="196.76" y="64.8">7</tspan><tspan class="cls-7" x="210.61" y="64.8" xml:space="preserve"> 61</tspan><tspan x="0" y="97.2">HSB</tspan><tspan class="cls-16" x="48.25" y="97.2">	</tspan><tspan class="cls-14" x="72" y="97.2" xml:space="preserve">		</tspan><tspan class="cls-7" x="144" y="97.2">214.29ยบ 11.48% 23.92%</tspan><tspan class="cls-17" x="433.27" y="97.2">	</tspan><tspan class="cls-14" x="468" y="97.2">	</tspan></text></svg>