<?xml version="1.0" encoding="utf-8"?>
<!-- Generator: Adobe Illustrator 22.1.0, SVG Export Plug-In . SVG Version: 6.00 Build 0)  -->
<svg version="1.1" id="Layer_1" xmlns="http://www.w3.org/2000/svg" xmlns:xlink="http://www.w3.org/1999/xlink" x="0px" y="0px"
	 viewBox="0 0 741.6 509.7" style="enable-background:new 0 0 741.6 509.7;" xml:space="preserve">
<style type="text/css">
	.st0{fill:#C6D1E5;}
	.st1{fill:#FFA635;}
	.st2{fill:#C6E1D5;}
	.st3{fill:none;}
	.st4{font-family:'PTSans-Bold';}
	.st5{font-size:15px;}
</style>
<g>
	<g>
		<g>
			<path d="M114.5,178.7c9.7,11.7,26.5,9.1,37.8,1.3c13.7-9.4,23.7-23.6,35.2-35.3c12.7-12.9,27.3-22.2,44.6-27.2
				c17.4-5,35.7-6.3,53.8-5c1.9,0.1,1.9-2.9,0-3c-31.3-2.2-65.1,3-90,23.4c-12.6,10.3-22.5,23.4-34,34.9
				c-11.1,11.2-31.9,24.8-45.3,8.8C115.4,175.1,113.3,177.2,114.5,178.7L114.5,178.7z"/>
		</g>
	</g>
	<g>
		<g>
			<path d="M270.3,103.4c6.8,1,13.3,2.7,19.7,5.2c-0.2-0.8-0.4-1.7-0.7-2.5c-4.9,5.5-9.9,11.1-14.8,16.6c-1.3,1.4,0.8,3.6,2.1,2.1
				c4.9-5.5,9.9-11.1,14.8-16.6c0.8-0.9,0.4-2.1-0.7-2.5c-6.4-2.4-12.9-4.1-19.7-5.2C269.2,100.3,268.4,103.2,270.3,103.4
				L270.3,103.4z"/>
		</g>
	</g>
	<path class="st0" d="M332.9,128.2c0.6-10.1,50.7-11.2,52.3-8.4s0.6,12.9,0.2,16c-1.9,15.3-2.7,32.7-5.5,36.9
		c-3.9,5.8-9.1,6.4-16.1,7.3c-8.9,1.1-15.2-8.3-21.6-15.9c-5-5.9-9-16.3-9.5-27C332.6,133.9,332.6,134,332.9,128.2z"/>
	<g>
		<g>
			<path d="M318.2,47c2.3,22.1,6.5,43.9,9.8,65.8c1.6,10.8,2,22.1,4.7,32.7c2.3,9.2,6.7,18.3,12.6,25.7c8.2,10.3,26.2,15.4,35.2,3.3
				c5.1-6.8,5.3-16.2,5.8-24.4c0.7-11.7,0.7-23.5,0.2-35.2c-1.2-26.3-5.1-52.4-8.9-78.4c-0.2-1.3-2.2-1.4-2.7-0.4
				c-4,7.2-10.3,10.2-18.2,11.5c-5.7,0.9-11.6,1.1-17.4,1.2c-4.9,0.1-20.7,2.7-18.8-6.3c1.3-6.4,10.6-10.3,16.1-12.2
				c5.5-2,11.3-2.5,17.1-2.7c4.7-0.1,10.7-0.7,15.1,1.7c3.1,1.7,4.6,5.3,6.2,8.3c0.9,1.7,3.5,0.2,2.6-1.5c-3.7-7-7.2-10.7-15.4-11.4
				c-11.6-1-23.6,0.5-33.9,6c-4.3,2.3-9.3,6-10.6,11c-1,4,1.1,8,4.9,9.5c5.2,2.1,12.2,0.7,17.7,0.6c5.8-0.1,11.6-0.4,17.4-1.3
				c8.7-1.4,15.6-5,19.9-12.8c-0.9-0.1-1.8-0.2-2.7-0.4c5.9,39.8,12.8,81.4,7.9,121.7c-1.1,9.3-5.2,19.1-15.9,19.5
				c-8.6,0.3-15.9-4.7-20.7-11.5c-5.2-7.4-9.1-16-10.9-24.8c-2-9.3-2.4-19-3.8-28.4c-3.3-22.3-7.7-44.4-10-66.8
				C321,45.1,318,45.1,318.2,47L318.2,47z"/>
		</g>
	</g>
	<g>
		<g>
			<path d="M417.6,129.5c34.7-13.4,70.6,1.6,101.1,18.8c26,14.6,48.7,34.5,54.9,64.9c4.2,20.9,3,42.3,1.9,63.4
				c0.8-0.4,1.5-0.9,2.3-1.3c-6-4.3-12-8.6-18-12.9c-0.5,0.9-1,1.7-1.5,2.6c8,5,15,11.1,20.9,18.5c0.7,0.9,2.3,0.4,2.5-0.7
				c2-7.8,6.8-14,14-17.8c1.7-0.9,0.2-3.5-1.5-2.6c-7.8,4.1-13.3,11-15.4,19.6c0.8-0.2,1.7-0.4,2.5-0.7
				c-6.1-7.5-13.3-13.8-21.5-18.9c-1.7-1-3.1,1.5-1.5,2.6c6,4.3,12,8.6,18,12.9c1,0.7,2.2-0.3,2.3-1.3c1.9-33.8,4.2-71.7-18.5-99.5
				c-9.5-11.6-21.7-20.7-34.5-28.3c-15-9-31.2-17-47.9-22.3c-20-6.3-40.9-7.5-60.7,0.2C415.1,127.3,415.8,130.2,417.6,129.5
				L417.6,129.5z"/>
		</g>
	</g>
	<g>
		<g>
			<path d="M329.1,445.5c-6.4,2-12.5,4.6-18.3,7.9c-0.6,0.3-0.9,1.1-0.7,1.7c2.3,7.4,4.6,14.8,6.9,22.3c1-0.3,1.9-0.5,2.9-0.8
				c-2.4-7.1-4.9-14.2-7.3-21.3c-0.8,0.5-1.7,1-2.5,1.5c7.3,8.5,19.3,13.8,29.7,17.5c13.2,4.7,27.2,7.3,41.1,8.9
				c29.4,3.4,60.2,3.2,89.1-3.9c8.9-2.2,17.6-4.9,26.2-8.1c6.9-2.6,13.6-5.7,17.7-12.1c1-1.6-1.6-3.1-2.6-1.5
				c-4.3,6.7-12.2,9.4-19.4,11.9c-7.2,2.6-14.5,4.8-21.9,6.7c-14.2,3.5-28.8,5.3-43.4,5.7c-26.4,0.8-53.7-0.7-79.1-8.3
				c-12.1-3.6-26.7-9-35.1-18.9c-1-1.1-3,0.1-2.5,1.5c2.4,7.1,4.9,14.2,7.3,21.3c0.6,1.8,3.5,1.1,2.9-0.8
				c-2.3-7.4-4.6-14.8-6.9-22.3c-0.2,0.6-0.5,1.1-0.7,1.7c5.6-3.2,11.4-5.7,17.6-7.6C331.8,447.8,331,444.9,329.1,445.5L329.1,445.5
				z"/>
		</g>
	</g>
	<g>
		<g>
			<path d="M165.8,447.7c11.3-12.9,23.3-25,36.1-36.4c-0.9-0.4-1.7-0.7-2.6-1.1c-0.3,4.7-0.6,9.4-0.9,14.1c1,0,2,0,3,0
				c-0.2-4,0.1-7.8,0.9-11.8c0.1-0.7-0.2-1.7-1-1.8c-6.5-0.9-12.5,0.4-17.9,4.2c-1.6,1.1-0.1,3.7,1.5,2.6c4.7-3.3,9.9-4.7,15.6-3.9
				c-0.3-0.6-0.7-1.2-1-1.8c-0.9,4.2-1.2,8.3-1,12.6c0.1,1.9,2.9,1.9,3,0c0.3-4.7,0.6-9.4,0.9-14.1c0.1-1.4-1.7-1.9-2.6-1.1
				c-12.8,11.4-24.8,23.5-36.1,36.4C162.4,447.1,164.5,449.2,165.8,447.7L165.8,447.7z"/>
		</g>
	</g>
	<g>
		<g>
			<path d="M159.8,315.4c-14.9-22.2-23.5-48.3-24.6-75.1c-0.9-21.2,1.6-53,22.9-64.4c1.7-0.9,0.2-3.5-1.5-2.6
				c-21.4,11.4-24.9,42.2-24.5,63.7c0.5,28.4,9.3,56.3,25.1,79.9C158.3,318.5,160.9,317,159.8,315.4L159.8,315.4z"/>
		</g>
	</g>
	<g>
		<g>
			<path d="M178.6,318.6c9.9,13.2,19.3,26.7,28.2,40.5c4.4,6.8,8.6,13.6,12.8,20.6c1.9,3.2,3.8,6.4,5.6,9.6c1.5,2.6,2.1,4.9,5.1,5.5
				c7.5,1.5,15.4,1.8,23,3.1c11.5,1.9,22.9,4.1,34.3,6.3c12.7,2.5,25.3,5.1,37.9,7.8c3.8,0.8,5.4-5,1.6-5.8
				c-18.3-4-36.6-7.7-55.1-11.1c-13.7-2.5-28-5.9-42-6.4c0.9,0.5,1.7,1,2.6,1.5c-14.7-25.9-31-50.9-48.9-74.8
				C181.5,312.5,176.2,315.5,178.6,318.6L178.6,318.6z"/>
		</g>
	</g>
	<g>
		<g>
			<path class="st1" d="M160.1,326.2c3.8,4.5,6.9,9.4,9.4,14.8c0.9-1.5,1.7-3,2.6-4.5c-8.7,0.3-14.9,9.4-9.9,17.3
				c5.4,8.4,16.5,5.7,22.6-0.1c-1.4,0-2.8,0-4.2,0c8.2,10.5,15.8,21.4,23,32.6c2.1,3.2,7.3,0.2,5.2-3c-7.4-11.7-15.4-22.9-24-33.8
				c-1-1.3-3.2-1-4.2,0c-2.9,2.7-7.1,5-11,3c-5.5-2.7-3-9.9,2.5-10c2.4-0.1,3.5-2.5,2.6-4.5c-2.7-5.8-6.2-11.1-10.3-16
				C161.9,319,157.7,323.2,160.1,326.2L160.1,326.2z"/>
		</g>
	</g>
	<g>
		<g>
			<path d="M323.5,421.4c-22-2.2-44-6-65.8-9.6c-9.4-1.6-18.9-3.2-28.3-5c-1.4-0.3-3-0.8-4.5-0.9c-2.6-0.1-3.7,1.5-5.4,3.4
				c-5,5.2-9.8,10.5-14.6,15.8c-11.2,12.5-22.2,25.1-33,38c-2.5,2.9,1.7,7.2,4.2,4.2c16.2-19.2,32.7-38.3,50.1-56.4
				c-1,0.3-1.9,0.5-2.9,0.8c33,6.6,66.6,12.3,100.1,15.7C327.3,427.8,327.3,421.8,323.5,421.4L323.5,421.4z"/>
		</g>
	</g>
	<g>
		<path class="st2" d="M202,397.5l-20.7-29.6c-2.5-3.5-1.6-8.4,1.9-10.8l2.6-1.8c3.5-2.5,8.4-1.6,10.8,1.9l20.7,29.6
			c2.5,3.5,1.6,8.4-1.9,10.8l-2.6,1.8C209.3,401.8,204.5,401,202,397.5z"/>
	</g>
	<g>
		<path class="st0" d="M535.5,300.4c-2.3,2.1-1.1,5.8-1.1,13.9c0,1.2-0.4,5.9-1.3,15.2c-2,20.4-3,22.3-0.9,25.2
			c1,1.4,5.5,3.6,14.5,8.1c6.3,3.1,7.9,3.7,9,5.8c1.2,2.3,0.2,3.3-1.6,14.2c-2,12.1-0.5,9.9-1.8,14.4c-0.6,2.1-1.3,3.8-0.4,5
			c1.4,2,6.3,2.2,8.2,0c1.5-1.7,0.3-3.9,0.3-9.3c0.1-4.5,0.9-4.5,1.4-9.6c0.9-9.4-1.9-11.3,0.2-14.8c1.1-2,2.5-2.3,11-6
			c8.1-3.5,12.1-5.3,12.9-6.1c3.1-3,3.6-10.5,4.4-25.1c0.7-12.3,0-13.5,1.4-18.8c1.5-5.7,3.3-8.1,2-10.1c-1.8-2.8-6.9-1.3-18.7-0.8
			c-13.2,0.6-19.8,0.9-27.8-0.6C541.1,299.8,537.8,298.4,535.5,300.4z"/>
		<g>
			<g>
				<path d="M585.2,355.2c-6.8,4.2-14.6,6.4-21.5,10.5c-2.4,1.4-2.9,1.4-3.2,3.8c-0.3,1.9-0.2,3.8-0.3,5.7c-0.5,9-1.1,18.1-1.6,27.1
					c0.5-0.5,1-1,1.5-1.5c-2.7,0-5.5,0-8.2,0c0.5,0.5,1,1,1.5,1.5c1.3-11.2,2.6-22.4,3.9-33.6c0.1-0.5-0.3-1-0.7-1.3
					c-7.6-5.1-15.4-9.7-23.6-13.9c-1.1-0.6-2.1,0.2-2.3,1.3c-1.7,16.1-3.5,32.2-5.2,48.3c1,0,2,0,3,0c2.5-30,5.1-60,7.6-90
					c0.4-4.2,0.7-8.4,1.1-12.6c-0.5,0.5-1,1-1.5,1.5c19.4,1.4,38.8,0.6,58.2,2c-0.5-0.5-1-1-1.5-1.5c-3.4,29.3-6.8,58.6-10.3,87.9
					c-0.5,3.8-0.2,9.4-1.6,12.9c1,0.1,2,0.3,2.9,0.4l0,0c-0.1-0.8-0.6-1.5-1.5-1.5c-18,0-36,0-54,0c-1.9,0-1.9,3,0,3c18,0,36,0,54,0
					c-0.5-0.5-1-1-1.5-1.5l0,0c0.2,1.7,2.3,2,2.9,0.4c1.1-2.8,0.9-6.8,1.2-9.8c1-8.1,1.9-16.1,2.9-24.2c2.2-18.3,4.3-36.6,6.5-54.9
					c0.5-4.2,1-8.4,1.5-12.6c0.1-0.8-0.8-1.4-1.5-1.5c-19.4-1.4-38.8-0.6-58.2-2c-0.9-0.1-1.4,0.7-1.5,1.5c-2.5,30-5.1,60-7.6,90
					c-0.4,4.2-0.7,8.4-1.1,12.6c-0.2,1.9,2.8,1.9,3,0c1.7-16.1,3.5-32.2,5.2-48.3c-0.8,0.4-1.5,0.9-2.3,1.3c4.1,2.1,8.1,4.3,12,6.6
					c2.2,1.3,4.3,2.6,6.4,3.9c0.6,0.4,4.5,2.3,4.4,2.2c0.3,0.6-0.3,2.4-0.3,3c-0.3,2.2-0.5,4.4-0.8,6.5c-0.9,8-1.8,16-2.8,24
					c-0.1,0.8,0.8,1.5,1.5,1.5c2.7,0,5.5,0,8.2,0c0.8,0,1.4-0.7,1.5-1.5c0.5-8.3,1-16.6,1.5-24.9c0.1-2.1,0.2-4.1,0.3-6.2
					c0.1-2.7,0.1-2.1,2.6-3.4c6.8-3.4,14.2-6.1,20.7-10C588.4,356.8,586.8,354.2,585.2,355.2L585.2,355.2z"/>
			</g>
		</g>
	</g>
	<g>
		<path d="M497.1,422.1h6.2v1.8h-4.2v2.4h3.8v1.8h-3.8v2.6h4.2v1.8H497L497.1,422.1L497.1,422.1z"/>
		<path d="M506.9,430.1c0,0.3,0,0.6,0.1,0.8s0.2,0.2,0.4,0.2c0.1,0,0.2,0,0.4,0c0.1,0,0.3-0.1,0.4-0.1l0.2,1.5
			c-0.2,0.1-0.4,0.2-0.7,0.2s-0.7,0.1-1,0.1c-0.6,0-1-0.1-1.3-0.4c-0.3-0.3-0.5-0.7-0.5-1.3v-9h2L506.9,430.1L506.9,430.1z"/>
		<path d="M515.3,431.9c-0.3,0.2-0.7,0.4-1.2,0.6c-0.5,0.2-1.1,0.2-1.6,0.2c-1.2,0-2.1-0.4-2.7-1.1c-0.6-0.7-0.8-1.7-0.8-2.9
			c0-1.3,0.3-2.3,0.9-3c0.6-0.7,1.5-1,2.7-1c0.4,0,0.8,0,1.1,0.2c0.4,0.1,0.7,0.3,1,0.5s0.5,0.5,0.7,0.9s0.3,0.9,0.3,1.5
			c0,0.2,0,0.4,0,0.7c0,0.2-0.1,0.5-0.1,0.8h-4.5c0,0.6,0.2,1.1,0.5,1.4s0.8,0.5,1.4,0.5c0.4,0,0.8-0.1,1.1-0.2
			c0.3-0.1,0.6-0.3,0.7-0.4L515.3,431.9z M512.5,426.4c-0.5,0-0.9,0.2-1.1,0.5s-0.4,0.7-0.4,1.2h2.8c0-0.5,0-1-0.2-1.2
			S513,426.4,512.5,426.4z"/>
		<path d="M522.2,432.1c-0.3,0.2-0.7,0.4-1.1,0.5c-0.4,0.1-0.9,0.2-1.3,0.2c-0.6,0-1.1-0.1-1.5-0.3s-0.8-0.5-1-0.8
			c-0.3-0.3-0.4-0.8-0.6-1.3c-0.1-0.5-0.2-1-0.2-1.6c0-1.3,0.3-2.2,0.9-2.9c0.6-0.7,1.4-1,2.5-1c0.5,0,1,0,1.3,0.1s0.6,0.2,0.9,0.3
			l-0.5,1.6c-0.2-0.1-0.5-0.2-0.7-0.3s-0.5-0.1-0.8-0.1c-0.5,0-1,0.2-1.2,0.5c-0.3,0.4-0.4,0.9-0.4,1.7c0,0.3,0,0.6,0.1,0.9
			c0.1,0.3,0.2,0.5,0.3,0.7s0.3,0.4,0.5,0.5s0.5,0.2,0.8,0.2s0.6,0,0.8-0.1s0.4-0.2,0.6-0.3L522.2,432.1z"/>
		<path d="M522.6,425.1h1v-1.4l1.9-0.6v2h1.8v1.7h-1.8v2.9c0,0.5,0.1,0.9,0.2,1.1c0.1,0.2,0.3,0.3,0.6,0.3c0.2,0,0.4,0,0.5-0.1
			c0.1,0,0.3-0.1,0.5-0.2l0.3,1.5c-0.3,0.1-0.6,0.2-0.9,0.3c-0.4,0.1-0.7,0.1-1.1,0.1c-0.7,0-1.2-0.2-1.5-0.5
			c-0.3-0.4-0.5-0.9-0.5-1.7v-3.8h-1V425.1z"/>
		<path d="M532.7,426.9c-0.3-0.1-0.6-0.2-0.8-0.2c-0.4,0-0.6,0.1-0.9,0.3c-0.2,0.2-0.4,0.4-0.5,0.7v4.8h-1.9V425h1.5l0.2,1h0.1
			c0.2-0.4,0.4-0.7,0.7-0.9s0.6-0.3,1-0.3c0.3,0,0.6,0.1,0.9,0.2L532.7,426.9z"/>
		<path d="M533.5,428.8c0-1.3,0.3-2.2,0.9-2.9c0.6-0.7,1.5-1,2.6-1c0.6,0,1.1,0.1,1.6,0.3c0.4,0.2,0.8,0.5,1.1,0.8s0.5,0.8,0.7,1.3
			c0.1,0.5,0.2,1,0.2,1.6c0,1.3-0.3,2.2-0.9,2.9s-1.5,1-2.6,1c-0.6,0-1.1-0.1-1.6-0.3c-0.4-0.2-0.8-0.5-1.1-0.8s-0.5-0.8-0.7-1.3
			C533.6,430,533.5,429.4,533.5,428.8z M535.5,428.8c0,0.3,0,0.6,0.1,0.9c0.1,0.3,0.2,0.5,0.3,0.7s0.3,0.4,0.5,0.5s0.4,0.2,0.7,0.2
			c0.5,0,0.9-0.2,1.1-0.6s0.4-1,0.4-1.8c0-0.7-0.1-1.2-0.3-1.7c-0.2-0.4-0.6-0.6-1.2-0.6c-0.5,0-0.9,0.2-1.1,0.5
			C535.7,427.4,535.5,428,535.5,428.8z"/>
		<path d="M541.9,425.1h1.4l0.2,0.9h0.1c0.3-0.4,0.6-0.7,0.9-0.8c0.4-0.2,0.8-0.3,1.3-0.3c0.9,0,1.6,0.3,2.1,0.9
			c0.5,0.6,0.7,1.6,0.7,2.9c0,0.6-0.1,1.2-0.2,1.7c-0.1,0.5-0.4,1-0.7,1.3c-0.3,0.4-0.7,0.6-1.1,0.8c-0.4,0.2-0.9,0.3-1.5,0.3
			c-0.3,0-0.6,0-0.8-0.1c-0.2,0-0.4-0.1-0.6-0.2v3.1h-1.9L541.9,425.1L541.9,425.1z M545.3,426.5c-0.4,0-0.7,0.1-0.9,0.3
			s-0.4,0.5-0.5,0.9v3.1c0.1,0.1,0.3,0.2,0.5,0.3s0.4,0.1,0.7,0.1c0.6,0,1-0.2,1.3-0.6c0.3-0.4,0.4-1,0.4-2c0-0.7-0.1-1.2-0.3-1.5
			C546.1,426.7,545.8,426.5,545.3,426.5z"/>
		<path d="M549.7,428.8c0-1.3,0.3-2.2,0.9-2.9c0.6-0.7,1.5-1,2.6-1c0.6,0,1.1,0.1,1.6,0.3c0.4,0.2,0.8,0.5,1.1,0.8s0.5,0.8,0.7,1.3
			c0.1,0.5,0.2,1,0.2,1.6c0,1.3-0.3,2.2-0.9,2.9s-1.5,1-2.6,1c-0.6,0-1.1-0.1-1.6-0.3c-0.4-0.2-0.8-0.5-1.1-0.8s-0.5-0.8-0.7-1.3
			C549.7,430,549.7,429.4,549.7,428.8z M551.7,428.8c0,0.3,0,0.6,0.1,0.9c0.1,0.3,0.2,0.5,0.3,0.7s0.3,0.4,0.5,0.5s0.4,0.2,0.7,0.2
			c0.5,0,0.9-0.2,1.1-0.6s0.4-1,0.4-1.8c0-0.7-0.1-1.2-0.3-1.7c-0.2-0.4-0.6-0.6-1.2-0.6c-0.5,0-0.9,0.2-1.1,0.5
			C551.8,427.4,551.7,428,551.7,428.8z"/>
		<path d="M562.2,426.9c-0.3-0.1-0.6-0.2-0.8-0.2c-0.4,0-0.6,0.1-0.9,0.3c-0.2,0.2-0.4,0.4-0.5,0.7v4.8h-1.9V425h1.5l0.2,1h0.1
			c0.2-0.4,0.4-0.7,0.7-0.9s0.6-0.3,1-0.3c0.3,0,0.6,0.1,0.9,0.2L562.2,426.9z"/>
		<path d="M563.3,425.5c0.4-0.2,0.9-0.3,1.4-0.4c0.5-0.1,1.1-0.2,1.7-0.2c0.5,0,1,0.1,1.3,0.2c0.4,0.1,0.6,0.3,0.8,0.5
			s0.3,0.5,0.4,0.8c0.1,0.3,0.1,0.7,0.1,1.1c0,0.4,0,0.9,0,1.3c0,0.4,0,0.9-0.1,1.3s0,0.8,0,1.3c0,0.4,0.1,0.8,0.2,1.1h-1.4l-0.3-1
			h-0.1c-0.2,0.3-0.5,0.6-0.8,0.8c-0.4,0.2-0.8,0.3-1.4,0.3c-0.3,0-0.7-0.1-0.9-0.2c-0.3-0.1-0.5-0.3-0.7-0.5s-0.4-0.4-0.5-0.7
			s-0.2-0.6-0.2-0.9c0-0.5,0.1-0.8,0.3-1.2c0.2-0.3,0.5-0.6,0.9-0.8s0.8-0.3,1.4-0.4c0.5-0.1,1.1-0.1,1.8-0.1c0.1-0.6,0-1-0.1-1.2
			s-0.5-0.4-1-0.4c-0.4,0-0.8,0-1.2,0.1s-0.8,0.2-1.1,0.3L563.3,425.5z M565.8,431.1c0.4,0,0.7-0.1,0.9-0.3s0.4-0.4,0.5-0.6v-1
			c-0.3,0-0.6,0-0.9,0c-0.3,0-0.5,0.1-0.8,0.1c-0.2,0.1-0.4,0.2-0.5,0.3s-0.2,0.3-0.2,0.5c0,0.3,0.1,0.5,0.2,0.7
			C565.3,431,565.5,431.1,565.8,431.1z"/>
		<path d="M570,425.1h1v-1.4l1.9-0.6v2h1.8v1.7h-1.8v2.9c0,0.5,0.1,0.9,0.2,1.1c0.1,0.2,0.3,0.3,0.6,0.3c0.2,0,0.4,0,0.5-0.1
			c0.1,0,0.3-0.1,0.5-0.2l0.3,1.5c-0.3,0.1-0.6,0.2-0.9,0.3c-0.4,0.1-0.7,0.1-1.1,0.1c-0.7,0-1.2-0.2-1.5-0.5
			c-0.3-0.4-0.5-0.9-0.5-1.7v-3.8h-1V425.1z"/>
		<path d="M575.9,423c0-0.3,0.1-0.5,0.3-0.7s0.5-0.3,0.9-0.3s0.7,0.1,0.9,0.3s0.4,0.5,0.4,0.7s-0.1,0.5-0.4,0.7
			c-0.2,0.2-0.5,0.3-0.9,0.3s-0.7-0.1-0.9-0.3S575.9,423.3,575.9,423z M576.2,425.1h2v7.5h-2V425.1z"/>
		<path d="M579.7,428.8c0-1.3,0.3-2.2,0.9-2.9c0.6-0.7,1.5-1,2.6-1c0.6,0,1.1,0.1,1.6,0.3c0.4,0.2,0.8,0.5,1.1,0.8s0.5,0.8,0.7,1.3
			c0.1,0.5,0.2,1,0.2,1.6c0,1.3-0.3,2.2-0.9,2.9s-1.5,1-2.6,1c-0.6,0-1.1-0.1-1.6-0.3c-0.4-0.2-0.8-0.5-1.1-0.8s-0.5-0.8-0.7-1.3
			C579.8,430,579.7,429.4,579.7,428.8z M581.7,428.8c0,0.3,0,0.6,0.1,0.9c0.1,0.3,0.2,0.5,0.3,0.7s0.3,0.4,0.5,0.5s0.4,0.2,0.7,0.2
			c0.5,0,0.9-0.2,1.1-0.6s0.4-1,0.4-1.8c0-0.7-0.1-1.2-0.3-1.7c-0.2-0.4-0.6-0.6-1.2-0.6c-0.5,0-0.9,0.2-1.1,0.5
			C581.8,427.4,581.7,428,581.7,428.8z"/>
		<path d="M592.7,432.6v-4.3c0-0.6-0.1-1-0.3-1.3s-0.5-0.4-0.9-0.4s-0.7,0.1-0.9,0.3s-0.4,0.5-0.5,0.8v4.9h-1.9v-7.5h1.5l0.2,1h0.1
			c0.2-0.3,0.5-0.6,0.9-0.8s0.9-0.4,1.5-0.4c0.4,0,0.7,0,1,0.2c0.3,0.1,0.5,0.3,0.7,0.5s0.3,0.5,0.5,0.9c0.1,0.4,0.1,0.9,0.1,1.5
			v4.7h-2L592.7,432.6L592.7,432.6z"/>
	</g>
	<g>
		<path d="M351.5,207.3c-0.3,0.2-0.7,0.4-1.2,0.5s-1,0.1-1.5,0.1c-0.6,0-1.2-0.1-1.8-0.3c-0.6-0.2-1.1-0.5-1.5-0.9
			c-0.4-0.4-0.8-1-1-1.7c-0.3-0.7-0.4-1.5-0.4-2.5s0.1-1.9,0.4-2.6s0.7-1.3,1.1-1.7c0.5-0.4,1-0.7,1.5-0.9c0.6-0.2,1.1-0.3,1.7-0.3
			c0.6,0,1.1,0,1.5,0.1c0.4,0.1,0.8,0.2,1,0.3l-0.4,1.7c-0.2-0.1-0.5-0.2-0.8-0.2s-0.7-0.1-1.1-0.1c-0.8,0-1.5,0.3-2,0.9
			s-0.8,1.5-0.8,2.8c0,0.5,0.1,1,0.2,1.5c0.1,0.4,0.3,0.8,0.5,1.1c0.2,0.3,0.5,0.6,0.9,0.7c0.4,0.2,0.8,0.3,1.3,0.3
			c0.4,0,0.8,0,1.1-0.1s0.6-0.2,0.8-0.3L351.5,207.3z"/>
		<path d="M354.4,200.2v4.3c0,0.6,0.1,1.1,0.2,1.3c0.1,0.2,0.4,0.4,0.8,0.4c0.4,0,0.7-0.1,0.9-0.3c0.2-0.2,0.4-0.5,0.5-0.8v-4.8h1.9
			v5.2c0,0.4,0,0.8,0.1,1.2c0.1,0.4,0.1,0.8,0.2,1.1h-1.3l-0.3-1.1h-0.1c-0.2,0.4-0.6,0.7-1,0.9c-0.4,0.2-0.9,0.4-1.5,0.4
			c-0.4,0-0.7-0.1-1-0.1c-0.3-0.1-0.6-0.3-0.8-0.5s-0.4-0.5-0.5-0.9c-0.1-0.4-0.2-0.9-0.2-1.5v-4.7h2.1V200.2z"/>
		<path d="M362.6,205.2c0,0.4,0,0.6,0.1,0.8c0.1,0.2,0.2,0.2,0.4,0.2c0.1,0,0.2,0,0.4,0c0.1,0,0.3-0.1,0.4-0.1l0.2,1.5
			c-0.2,0.1-0.4,0.2-0.7,0.2c-0.3,0-0.7,0.1-1,0.1c-0.6,0-1-0.1-1.3-0.4s-0.5-0.7-0.5-1.3v-9h2V205.2z"/>
		<path d="M364.2,200.2h1v-1.4l2-0.6v2h1.8v1.6h-1.8v2.9c0,0.5,0.1,0.9,0.2,1.1c0.1,0.2,0.3,0.3,0.6,0.3c0.2,0,0.4,0,0.5-0.1
			c0.1,0,0.3-0.1,0.5-0.2l0.3,1.5c-0.3,0.1-0.6,0.2-0.9,0.3c-0.4,0.1-0.7,0.1-1.1,0.1c-0.7,0-1.2-0.2-1.5-0.5
			c-0.3-0.4-0.5-0.9-0.5-1.7v-3.8h-1L364.2,200.2L364.2,200.2L364.2,200.2z"/>
		<path d="M372.1,200.2v4.3c0,0.6,0.1,1.1,0.2,1.3c0.1,0.2,0.4,0.4,0.8,0.4c0.4,0,0.7-0.1,0.9-0.3c0.2-0.2,0.4-0.5,0.5-0.8v-4.8h1.9
			v5.2c0,0.4,0,0.8,0.1,1.2c0.1,0.4,0.1,0.8,0.2,1.1h-1.5l-0.3-1.1h-0.1c-0.2,0.4-0.6,0.7-1,0.9c-0.4,0.2-0.9,0.4-1.5,0.4
			c-0.4,0-0.7-0.1-1-0.1c-0.3-0.1-0.6-0.3-0.8-0.5s-0.4-0.5-0.5-0.9c-0.1-0.4-0.2-0.9-0.2-1.5v-4.7h2.3V200.2z"/>
		<path d="M382.5,202.1c-0.3-0.1-0.6-0.2-0.8-0.2c-0.4,0-0.6,0.1-0.9,0.3c-0.2,0.2-0.4,0.4-0.5,0.7v4.8h-2v-7.5h1.5l0.2,1h0.1
			c0.2-0.4,0.4-0.7,0.7-0.9c0.3-0.2,0.6-0.3,1-0.3c0.3,0,0.6,0.1,0.9,0.2L382.5,202.1z"/>
		<path d="M389.6,207.1c-0.3,0.2-0.7,0.4-1.2,0.6s-1.1,0.2-1.6,0.2c-1.2,0-2.1-0.4-2.7-1.1s-0.8-1.7-0.8-2.9c0-1.3,0.3-2.3,0.9-3
			c0.6-0.7,1.5-1,2.7-1c0.4,0,0.8,0.1,1.1,0.1c0.4,0.1,0.7,0.3,1,0.5s0.5,0.5,0.7,0.9s0.3,0.9,0.3,1.5c0,0.2,0,0.4,0,0.7
			c0,0.2-0.1,0.5-0.1,0.8h-4.5c0,0.6,0.2,1.1,0.5,1.4s0.8,0.5,1.4,0.5c0.4,0,0.8-0.1,1.1-0.2s0.6-0.3,0.7-0.4L389.6,207.1z
			 M386.8,201.6c-0.5,0-0.9,0.2-1.1,0.5c-0.2,0.3-0.4,0.7-0.4,1.2h2.8c0-0.5,0-1-0.2-1.2C387.6,201.7,387.2,201.6,386.8,201.6z"/>
	</g>
	<g>
		<g>
			<path d="M595.6,141.4c-9.1,7.4-15.5,15.9-18.7,27.2c-1.7,5.9-2.8,12-4.2,18c-1.6,7.1-3.4,14-0.4,21.1c0.7,1.8,3.6,1,2.9-0.8
				c-3.1-7.5-0.6-14.8,1.1-22.3c1.1-5.1,2.1-10.2,3.5-15.1c3.1-10.8,9.2-18.8,17.9-25.9C599.3,142.3,597.1,140.2,595.6,141.4
				L595.6,141.4z"/>
		</g>
	</g>
	<g>
		<g>
			<path class="st2" d="M591.2,128.7c13.9-2.1,27.9-3.5,42-4.3c7.7-0.4,7.7-12.4,0-12c-15.1,0.8-30.2,2.5-45.1,4.8
				C580.4,118.3,583.6,129.9,591.2,128.7L591.2,128.7z"/>
		</g>
	</g>
	<g>
		<g>
			<path class="st2" d="M613,165.4c13.9-2.1,27.9-3.5,42-4.3c7.7-0.4,7.7-12.4,0-12c-15.1,0.8-30.2,2.5-45.1,4.8
				C602.2,155,605.4,166.5,613,165.4L613,165.4z"/>
		</g>
	</g>
	<g>
		<g>
			<path class="st2" d="M667.2,134.1c13.9-2.1,27.9-3.5,42-4.3c7.7-0.4,7.7-12.4,0-12c-15.1,0.8-30.2,2.5-45.1,4.8
				C656.4,123.7,659.7,135.3,667.2,134.1L667.2,134.1z"/>
		</g>
	</g>
	<g>
		<g>
			<path class="st2" d="M667.2,182.9c13.9-2.1,27.9-3.5,42-4.3c7.7-0.4,7.7-12.4,0-12c-15.1,0.8-30.2,2.5-45.1,4.8
				C656.4,172.5,659.7,184.1,667.2,182.9L667.2,182.9z"/>
		</g>
	</g>
	<g>
		<path d="M84,349.1h-3.1v8.7h-2.1v-8.7h-3.1v-1.8h8.2v1.8H84z"/>
		<path d="M85.7,357.8l3.4-8.1l0.7-0.7l-0.9,0.1H85v-1.8h6.8v0.6l-4.2,9.9H85.7z"/>
		<path d="M96.5,350.3h1.4l0.2,0.9h0.1c0.3-0.4,0.6-0.7,0.9-0.8s0.8-0.3,1.3-0.3c0.9,0,1.6,0.3,2.1,0.9s0.7,1.6,0.7,2.9
			c0,0.6-0.1,1.2-0.2,1.7s-0.4,1-0.7,1.3s-0.7,0.6-1.1,0.8c-0.4,0.2-0.9,0.3-1.5,0.3c-0.3,0-0.6,0-0.8-0.1c-0.2,0-0.4-0.1-0.6-0.2
			v3.1h-2v-10.5L96.5,350.3L96.5,350.3z M99.9,351.7c-0.4,0-0.7,0.1-0.9,0.3c-0.2,0.2-0.4,0.5-0.5,0.9v3.1c0.1,0.1,0.3,0.2,0.5,0.3
			c0.2,0.1,0.4,0.1,0.7,0.1c0.6,0,1-0.2,1.3-0.6s0.4-1,0.4-2c0-0.7-0.1-1.2-0.3-1.5C100.7,351.9,100.3,351.7,99.9,351.7z"/>
		<path d="M108.7,352.1c-0.3-0.1-0.6-0.2-0.8-0.2c-0.4,0-0.6,0.1-0.9,0.3c-0.2,0.2-0.4,0.4-0.5,0.7v4.8h-2v-7.5h1.5l0.2,1h0.1
			c0.2-0.4,0.4-0.7,0.7-0.9c0.3-0.2,0.6-0.3,1-0.3c0.3,0,0.6,0.1,0.9,0.2L108.7,352.1z"/>
		<path d="M109.5,354c0-1.3,0.3-2.2,0.9-2.9c0.6-0.7,1.5-1,2.6-1c0.6,0,1.1,0.1,1.6,0.3c0.4,0.2,0.8,0.5,1.1,0.8s0.5,0.8,0.7,1.3
			c0.1,0.5,0.2,1,0.2,1.6c0,1.3-0.3,2.2-0.9,2.9c-0.6,0.7-1.5,1-2.6,1c-0.6,0-1.1-0.1-1.6-0.3c-0.4-0.2-0.8-0.5-1.1-0.8
			s-0.5-0.8-0.7-1.3S109.5,354.6,109.5,354z M111.5,354c0,0.3,0,0.6,0.1,0.9s0.1,0.5,0.3,0.7c0.1,0.2,0.3,0.4,0.5,0.5
			s0.4,0.2,0.7,0.2c0.5,0,0.9-0.2,1.1-0.6c0.2-0.4,0.4-1,0.4-1.8c0-0.7-0.1-1.2-0.3-1.7c-0.2-0.4-0.6-0.6-1.2-0.6
			c-0.5,0-0.9,0.2-1.1,0.5S111.5,353.2,111.5,354z"/>
		<path d="M122.2,357.8v-4.1c0-0.7-0.1-1.2-0.2-1.5s-0.4-0.4-0.8-0.4c-0.3,0-0.6,0.1-0.8,0.3s-0.4,0.4-0.5,0.7v5h-2v-7.5h1.5l0.2,1
			h0.1c0.2-0.3,0.5-0.6,0.9-0.8c0.4-0.2,0.8-0.4,1.4-0.4c0.5,0,0.9,0.1,1.2,0.3c0.3,0.2,0.5,0.5,0.7,1c0.2-0.4,0.5-0.7,0.9-0.9
			c0.4-0.2,0.8-0.3,1.3-0.3c0.4,0,0.8,0.1,1.1,0.1c0.3,0.1,0.5,0.3,0.7,0.5s0.3,0.6,0.4,1s0.1,0.9,0.1,1.6v4.5h-2v-4.2
			c0-0.6-0.1-1-0.2-1.3s-0.4-0.4-0.8-0.4s-0.6,0.1-0.8,0.3c-0.2,0.2-0.4,0.5-0.5,0.8v4.9h-1.9L122.2,357.8L122.2,357.8z"/>
		<path d="M129.6,354c0-1.3,0.3-2.2,0.9-2.9c0.6-0.7,1.5-1,2.6-1c0.6,0,1.1,0.1,1.6,0.3c0.4,0.2,0.8,0.5,1.1,0.8
			c0.3,0.3,0.5,0.8,0.7,1.3c0.1,0.5,0.2,1,0.2,1.6c0,1.3-0.3,2.2-0.9,2.9c-0.6,0.7-1.5,1-2.6,1c-0.6,0-1.1-0.1-1.6-0.3
			c-0.4-0.2-0.8-0.5-1.1-0.8c-0.3-0.3-0.5-0.8-0.7-1.3S129.6,354.6,129.6,354z M131.7,354c0,0.3,0,0.6,0.1,0.9s0.1,0.5,0.3,0.7
			c0.1,0.2,0.3,0.4,0.5,0.5s0.4,0.2,0.7,0.2c0.5,0,0.9-0.2,1.1-0.6s0.4-1,0.4-1.8c0-0.7-0.1-1.2-0.3-1.7c-0.2-0.4-0.6-0.6-1.2-0.6
			c-0.5,0-0.9,0.2-1.1,0.5S131.7,353.2,131.7,354z"/>
		<path d="M137.3,350.3h1v-1.4l2-0.6v2h1.8v1.6h-1.8v2.9c0,0.5,0.1,0.9,0.2,1.1s0.3,0.3,0.6,0.3c0.2,0,0.4,0,0.5-0.1
			c0.1,0,0.3-0.1,0.5-0.2l0.3,1.5c-0.3,0.1-0.6,0.2-0.9,0.3c-0.4,0.1-0.7,0.1-1.1,0.1c-0.7,0-1.2-0.2-1.5-0.5
			c-0.3-0.4-0.5-0.9-0.5-1.7v-3.8h-1v-1.5L137.3,350.3L137.3,350.3z"/>
		<path d="M149.2,357.1c-0.3,0.2-0.7,0.4-1.2,0.6s-1.1,0.2-1.6,0.2c-1.2,0-2.1-0.4-2.7-1.1s-0.8-1.7-0.8-2.9c0-1.3,0.3-2.3,0.9-3
			s1.5-1,2.7-1c0.4,0,0.8,0.1,1.1,0.1c0.4,0.1,0.7,0.3,1,0.5s0.5,0.5,0.7,0.9s0.3,0.9,0.3,1.5c0,0.2,0,0.4,0,0.7
			c0,0.2-0.1,0.5-0.1,0.8H145c0,0.6,0.2,1.1,0.5,1.4s0.8,0.5,1.4,0.5c0.4,0,0.8-0.1,1.1-0.2c0.3-0.1,0.6-0.3,0.7-0.4L149.2,357.1z
			 M146.4,351.6c-0.5,0-0.9,0.2-1.1,0.5s-0.4,0.7-0.4,1.2h2.8c0-0.5,0-1-0.2-1.2C147.2,351.8,146.9,351.6,146.4,351.6z"/>
		<path d="M155,352.1c-0.3-0.1-0.6-0.2-0.8-0.2c-0.4,0-0.6,0.1-0.9,0.3c-0.2,0.2-0.4,0.4-0.5,0.7v4.8h-2v-7.5h1.5l0.2,1h0.1
			c0.2-0.4,0.4-0.7,0.7-0.9c0.3-0.2,0.6-0.3,1-0.3c0.3,0,0.6,0.1,0.9,0.2L155,352.1z"/>
	</g>
	<g>
		<g>
			<g>
				<path d="M31.4,152.5c6.2-14.1,19.4-22.8,34.9-22c15.6,0.8,28.8,10.5,37.6,22.8c1.7,2.3,5.6,0.1,3.9-2.3
					c-9.8-13.7-24.2-24.3-41.5-25.1c-17-0.8-31.9,8.8-38.8,24.2C26.4,152.9,30.3,155.2,31.4,152.5L31.4,152.5z"/>
			</g>
		</g>
		<g>
			<g>
				<path d="M27.4,153.3c8.9,13,24.4,18.2,39.7,17.4c14.2-0.8,31.2-4.8,39.5-17.4c1.6-2.4-2.3-4.7-3.9-2.3
					c-7.3,11.1-23.2,14.5-35.7,15.2c-13.6,0.7-27.8-3.5-35.8-15.1C29.6,148.7,25.7,150.9,27.4,153.3L27.4,153.3z"/>
			</g>
		</g>
		<g>
			<g>
				<path d="M63.2,140.2c-3.6,3.2-6.2,8.3-3.6,13c2.2,3.9,7.9,5.3,11.2,1.9c3.1-3.2,3-10.1-0.1-13.3c-3-3.1-8.4-2.2-9.8,1.9
					c-1,2.7,3.4,3.9,4.3,1.2c0.7-1.8,2.9,0.8,3.1,1.6c0.5,1.7,0.5,5.3-1.6,5.9s-3.6-1.4-3.6-3.3c-0.1-2.5,1.6-4.3,3.3-5.8
					C68.5,141.5,65.3,138.3,63.2,140.2L63.2,140.2z"/>
			</g>
		</g>
		<g>
			<g>
				<path d="M20.2,127.7c2.5,2.8,5,5.5,7.5,8.3c1.9,2.2,5.1-1,3.2-3.2c-2.5-2.8-5-5.5-7.5-8.3C21.5,122.3,18.3,125.5,20.2,127.7
					L20.2,127.7z"/>
			</g>
		</g>
		<g>
			<g>
				<path d="M41.9,115.1c1.5,3,2.9,6.1,4.4,9.1c1.2,2.6,5.1,0.3,3.9-2.3c-1.5-3-2.9-6.1-4.4-9.1C44.6,110.2,40.7,112.4,41.9,115.1
					L41.9,115.1z"/>
			</g>
		</g>
		<g>
			<g>
				<path d="M66.4,112c-0.7,3.3-0.7,6.5-0.1,9.8c0.6,2.8,4.9,1.6,4.3-1.2c-0.5-2.5-0.4-5,0.1-7.4C71.3,110.4,67,109.2,66.4,112
					L66.4,112z"/>
			</g>
		</g>
		<g>
			<g>
				<path d="M88.1,117.5c-0.9,2.7-1.8,5.4-2.7,8.2c-0.9,2.8,3.4,3.9,4.3,1.2c0.9-2.7,1.8-5.4,2.7-8.2
					C93.3,115.9,89,114.7,88.1,117.5L88.1,117.5z"/>
			</g>
		</g>
		<g>
			<g>
				<path d="M105.8,130c-1.2,2.3-2.4,4.5-3.6,6.8c-1.4,2.6,2.5,4.8,3.9,2.3c1.2-2.3,2.4-4.5,3.6-6.8
					C111,129.7,107.1,127.5,105.8,130L105.8,130z"/>
			</g>
		</g>
		<g>
			<g>
				<path d="M36.1,169.1c-1.2,2.6-2.7,5.1-4.4,7.5s2.2,4.6,3.9,2.3c1.7-2.4,3.2-4.9,4.4-7.5C41.2,168.8,37.3,166.5,36.1,169.1
					L36.1,169.1z"/>
			</g>
		</g>
		<g>
			<g>
				<path d="M51.8,176.8c-0.5,2.4-0.9,4.9-1.4,7.3c-0.5,2.8,3.8,4,4.3,1.2c0.5-2.4,0.9-4.9,1.4-7.3
					C56.6,175.1,52.3,173.9,51.8,176.8L51.8,176.8z"/>
			</g>
		</g>
		<g>
			<g>
				<path d="M70,178c0.5,2.9,1,5.7,1.5,8.6c0.5,2.8,4.8,1.6,4.3-1.2c-0.5-2.9-1-5.7-1.5-8.6C73.8,174,69.5,175.2,70,178L70,178z"/>
			</g>
		</g>
		<g>
			<g>
				<path d="M88.7,173.1c1.7,2.3,3.5,4.6,5.2,7c0.7,1,1.9,1.5,3.1,0.8c1-0.6,1.5-2.1,0.8-3.1c-1.7-2.3-3.5-4.6-5.2-7
					c-0.7-1-1.9-1.5-3.1-0.8C88.6,170.6,88,172.1,88.7,173.1L88.7,173.1z"/>
			</g>
		</g>
	</g>
	<rect x="-81.4" y="179.9" class="st3" width="81.4" height="10.7"/>
	<text transform="matrix(1 0 0 1 30.8349 212.8591)" class="st4 st5">Screening</text>
	<g>
		<path d="M599.3,200.5c0-1.8,0.4-3.1,1.2-4s1.9-1.4,3.3-1.4c0.8,0,1.4,0.1,2,0.4s1,0.6,1.4,1.1s0.6,1.1,0.8,1.7s0.3,1.4,0.3,2.2
			c0,1.8-0.4,3.1-1.2,4s-1.9,1.4-3.3,1.4c-0.8,0-1.4-0.1-2-0.4s-1-0.6-1.4-1.1s-0.6-1.1-0.8-1.7
			C599.4,202.1,599.3,201.4,599.3,200.5z M601.4,200.5c0,0.5,0,1,0.1,1.5c0.1,0.4,0.2,0.8,0.4,1.1c0.2,0.3,0.4,0.6,0.7,0.8
			c0.3,0.2,0.6,0.3,1,0.3c0.7,0,1.3-0.3,1.7-0.9s0.6-1.5,0.6-2.8c0-0.5,0-1-0.1-1.4s-0.2-0.8-0.4-1.2s-0.4-0.6-0.7-0.8
			s-0.6-0.3-1.1-0.3c-0.7,0-1.3,0.3-1.7,0.9C601.6,198.4,601.4,199.3,601.4,200.5z"/>
		<path d="M611.6,203.3c0,0.4,0,0.6,0.1,0.8s0.2,0.2,0.4,0.2c0.1,0,0.2,0,0.4,0c0.1,0,0.3-0.1,0.4-0.1l0.2,1.5
			c-0.2,0.1-0.4,0.2-0.7,0.2c-0.3,0.1-0.7,0.1-1,0.1c-0.6,0-1-0.1-1.3-0.4s-0.5-0.7-0.5-1.3v-9h2L611.6,203.3L611.6,203.3z"/>
		<path d="M613.9,196.2c0-0.3,0.1-0.5,0.3-0.7s0.5-0.3,0.9-0.3s0.7,0.1,0.9,0.3c0.2,0.2,0.4,0.5,0.4,0.7c0,0.3-0.1,0.5-0.4,0.7
			c-0.2,0.2-0.5,0.3-0.9,0.3s-0.7-0.1-0.9-0.3C614,196.7,613.9,196.5,613.9,196.2z M614.2,198.3h2v7.5h-2V198.3z"/>
		<path d="M624.4,205.8c0,1.1-0.3,1.9-0.9,2.4c-0.6,0.5-1.4,0.8-2.5,0.8c-0.7,0-1.3-0.1-1.7-0.2s-0.7-0.2-0.9-0.3l0.4-1.5
			c0.2,0.1,0.5,0.2,0.8,0.3c0.3,0.1,0.7,0.1,1.1,0.1c0.7,0,1.1-0.1,1.4-0.4s0.4-0.7,0.4-1.2v-0.5h-0.1c-0.4,0.5-1,0.7-1.9,0.7
			c-1,0-1.7-0.3-2.2-0.9s-0.7-1.5-0.7-2.8s0.3-2.4,1-3c0.6-0.7,1.6-1,2.8-1c0.6,0,1.2,0,1.7,0.1s0.9,0.2,1.2,0.3v7.1H624.4z
			 M621.1,204.3c0.4,0,0.7-0.1,0.9-0.3s0.4-0.4,0.5-0.8v-3.4c-0.3-0.1-0.7-0.2-1.2-0.2s-0.9,0.2-1.2,0.6s-0.4,1-0.4,1.8
			c0,0.7,0.1,1.3,0.4,1.7C620.3,204.2,620.6,204.3,621.1,204.3z"/>
		<path d="M625.7,202c0-1.3,0.3-2.2,0.9-2.9c0.6-0.7,1.5-1,2.6-1c0.6,0,1.1,0.1,1.6,0.3c0.4,0.2,0.8,0.5,1.1,0.8s0.5,0.8,0.7,1.3
			c0.1,0.5,0.2,1,0.2,1.6c0,1.3-0.3,2.2-0.9,2.9s-1.5,1-2.6,1c-0.6,0-1.1-0.1-1.6-0.3c-0.4-0.2-0.8-0.5-1.1-0.8s-0.5-0.8-0.7-1.3
			C625.8,203.2,625.7,202.6,625.7,202z M627.7,202c0,0.3,0,0.6,0.1,0.9s0.2,0.5,0.3,0.7s0.3,0.4,0.5,0.5s0.4,0.2,0.7,0.2
			c0.5,0,0.9-0.2,1.1-0.6c0.2-0.4,0.4-1,0.4-1.8c0-0.7-0.1-1.2-0.3-1.7c-0.2-0.4-0.6-0.6-1.2-0.6c-0.5,0-0.9,0.2-1.1,0.5
			C627.9,200.6,627.7,201.2,627.7,202z"/>
		<path d="M638.7,205.8v-4.3c0-0.6-0.1-1.1-0.3-1.3s-0.5-0.4-0.9-0.4s-0.7,0.1-0.9,0.3c-0.3,0.2-0.4,0.5-0.5,0.8v4.9h-1.9v-7.5h1.5
			l0.2,1h0.1c0.2-0.3,0.5-0.6,0.9-0.8c0.4-0.2,0.9-0.4,1.5-0.4c0.4,0,0.7,0.1,1,0.1c0.3,0.1,0.5,0.3,0.7,0.5s0.3,0.5,0.5,0.9
			c0.1,0.4,0.1,0.9,0.1,1.5v4.7L638.7,205.8L638.7,205.8z"/>
		<path d="M644.2,198.3v4.3c0,0.6,0.1,1.1,0.2,1.3c0.1,0.3,0.4,0.4,0.8,0.4c0.4,0,0.7-0.1,0.9-0.3c0.2-0.2,0.4-0.5,0.5-0.8v-4.8h2
			v5.2c0,0.4,0,0.8,0.1,1.2c0,0.4,0.1,0.8,0.2,1.1h-1.5l-0.3-1.1H647c-0.2,0.4-0.5,0.7-1,0.9s-0.9,0.4-1.5,0.4c-0.4,0-0.7-0.1-1-0.1
			c-0.3-0.1-0.5-0.3-0.8-0.5c-0.2-0.2-0.4-0.5-0.5-0.9s-0.2-0.9-0.2-1.5v-4.7h2.2L644.2,198.3L644.2,198.3z"/>
		<path d="M655.7,205.3c-0.3,0.2-0.7,0.4-1.1,0.5s-0.9,0.2-1.3,0.2c-0.6,0-1.1-0.1-1.5-0.3c-0.4-0.2-0.8-0.5-1-0.8
			c-0.3-0.3-0.4-0.8-0.6-1.3c-0.1-0.5-0.2-1-0.2-1.6c0-1.3,0.3-2.2,0.9-2.9c0.6-0.7,1.4-1,2.5-1c0.5,0,1,0,1.3,0.1s0.6,0.2,0.9,0.3
			l-0.5,1.6c-0.2-0.1-0.5-0.2-0.7-0.3c-0.2-0.1-0.5-0.1-0.8-0.1c-0.5,0-1,0.2-1.2,0.5c-0.3,0.4-0.4,0.9-0.4,1.7c0,0.3,0,0.6,0.1,0.9
			s0.2,0.5,0.3,0.7s0.3,0.4,0.5,0.5s0.5,0.2,0.8,0.2s0.6,0,0.8-0.1s0.4-0.2,0.6-0.3L655.7,205.3z"/>
		<path d="M658.9,203.3c0,0.4,0,0.6,0.1,0.8s0.2,0.2,0.4,0.2c0.1,0,0.2,0,0.4,0c0.1,0,0.3-0.1,0.4-0.1l0.2,1.5
			c-0.2,0.1-0.4,0.2-0.7,0.2c-0.3,0.1-0.7,0.1-1,0.1c-0.6,0-1-0.1-1.3-0.4s-0.5-0.7-0.5-1.3v-9h2L658.9,203.3L658.9,203.3z"/>
		<path d="M667.3,205.1c-0.3,0.2-0.7,0.4-1.2,0.6s-1.1,0.2-1.6,0.2c-1.2,0-2.1-0.4-2.7-1.1c-0.6-0.7-0.8-1.7-0.8-2.9
			c0-1.3,0.3-2.3,0.9-3c0.6-0.7,1.5-1,2.7-1c0.4,0,0.8,0.1,1.1,0.1c0.4,0.1,0.7,0.3,1,0.5s0.5,0.5,0.7,0.9s0.3,0.9,0.3,1.5
			c0,0.2,0,0.4,0,0.7c0,0.2-0.1,0.5-0.1,0.8h-4.5c0,0.6,0.2,1.1,0.5,1.4s0.8,0.5,1.4,0.5c0.4,0,0.8-0.1,1.1-0.2s0.6-0.3,0.7-0.4
			L667.3,205.1z M664.5,199.6c-0.5,0-0.9,0.2-1.1,0.5s-0.4,0.7-0.4,1.2h2.8c0-0.5,0-1-0.2-1.2S664.9,199.6,664.5,199.6z"/>
		<path d="M668.5,202c0-1.3,0.3-2.2,0.9-2.9c0.6-0.7,1.5-1,2.6-1c0.6,0,1.1,0.1,1.6,0.3c0.4,0.2,0.8,0.5,1.1,0.8s0.5,0.8,0.7,1.3
			c0.1,0.5,0.2,1,0.2,1.6c0,1.3-0.3,2.2-0.9,2.9s-1.5,1-2.6,1c-0.6,0-1.1-0.1-1.6-0.3c-0.4-0.2-0.8-0.5-1.1-0.8s-0.5-0.8-0.7-1.3
			C668.6,203.2,668.5,202.6,668.5,202z M670.5,202c0,0.3,0,0.6,0.1,0.9s0.2,0.5,0.3,0.7s0.3,0.4,0.5,0.5s0.4,0.2,0.7,0.2
			c0.5,0,0.9-0.2,1.1-0.6c0.2-0.4,0.4-1,0.4-1.8c0-0.7-0.1-1.2-0.3-1.7c-0.2-0.4-0.6-0.6-1.2-0.6c-0.5,0-0.9,0.2-1.1,0.5
			C670.6,200.6,670.5,201.2,670.5,202z"/>
		<path d="M676.1,198.3h1v-1.4l1.9-0.6v2h1.8v1.6H679v2.9c0,0.5,0.1,0.9,0.2,1.1c0.1,0.2,0.3,0.3,0.6,0.3c0.2,0,0.4,0,0.5-0.1
			c0.1,0,0.3-0.1,0.5-0.2l0.3,1.5c-0.3,0.1-0.6,0.2-0.9,0.3c-0.4,0.1-0.7,0.1-1.1,0.1c-0.7,0-1.2-0.2-1.5-0.5
			c-0.3-0.4-0.5-0.9-0.5-1.7v-3.8h-1V198.3z"/>
		<path d="M682,196.2c0-0.3,0.1-0.5,0.3-0.7s0.5-0.3,0.9-0.3s0.7,0.1,0.9,0.3c0.2,0.2,0.4,0.5,0.4,0.7c0,0.3-0.1,0.5-0.4,0.7
			c-0.2,0.2-0.5,0.3-0.9,0.3s-0.7-0.1-0.9-0.3C682.1,196.7,682,196.5,682,196.2z M682.3,198.3h2v7.5h-2V198.3z"/>
		<path d="M692.5,203.1c0,0.4,0,0.8,0,1.3s0.1,0.9,0.1,1.4h-1.4l-0.3-1h-0.1c-0.2,0.4-0.5,0.6-0.9,0.8c-0.4,0.2-0.8,0.3-1.3,0.3
			c-0.9,0-1.7-0.3-2.2-0.9s-0.8-1.6-0.8-2.9s0.3-2.3,0.9-3c0.6-0.7,1.4-1.1,2.5-1.1c0.3,0,0.6,0,0.8,0.1s0.4,0.1,0.6,0.2v-3h2v7.8
			L692.5,203.1L692.5,203.1z M689.2,204.3c0.4,0,0.7-0.1,0.9-0.3c0.2-0.2,0.4-0.5,0.5-0.8V200c-0.1-0.1-0.3-0.2-0.5-0.2
			c-0.2-0.1-0.4-0.1-0.7-0.1c-0.6,0-1,0.2-1.2,0.6c-0.3,0.4-0.4,1-0.4,1.9c0,0.6,0.1,1.2,0.3,1.5
			C688.4,204.1,688.7,204.3,689.2,204.3z"/>
		<path d="M700.3,205.1c-0.3,0.2-0.7,0.4-1.2,0.6s-1.1,0.2-1.6,0.2c-1.2,0-2.1-0.4-2.7-1.1c-0.6-0.7-0.8-1.7-0.8-2.9
			c0-1.3,0.3-2.3,0.9-3c0.6-0.7,1.5-1,2.7-1c0.4,0,0.8,0.1,1.1,0.1c0.4,0.1,0.7,0.3,1,0.5s0.5,0.5,0.7,0.9s0.3,0.9,0.3,1.5
			c0,0.2,0,0.4,0,0.7c0,0.2-0.1,0.5-0.1,0.8h-4.5c0,0.6,0.2,1.1,0.5,1.4s0.8,0.5,1.4,0.5c0.4,0,0.8-0.1,1.1-0.2s0.6-0.3,0.7-0.4
			L700.3,205.1z M697.5,199.6c-0.5,0-0.9,0.2-1.1,0.5s-0.4,0.7-0.4,1.2h2.8c0-0.5,0-1-0.2-1.2S697.9,199.6,697.5,199.6z"/>
		<path d="M705,203.7c0-0.2-0.1-0.4-0.3-0.5s-0.4-0.2-0.6-0.3s-0.5-0.2-0.8-0.3s-0.6-0.2-0.8-0.4s-0.5-0.4-0.6-0.7
			c-0.2-0.3-0.3-0.7-0.3-1.1c0-0.7,0.2-1.3,0.7-1.7c0.4-0.4,1.1-0.6,1.9-0.6c0.6,0,1.1,0.1,1.5,0.2c0.5,0.1,0.8,0.3,1.1,0.4
			l-0.4,1.4c-0.2-0.1-0.5-0.2-0.9-0.3c-0.3-0.1-0.7-0.1-1.1-0.1c-0.6,0-0.9,0.2-0.9,0.7c0,0.2,0.1,0.3,0.3,0.4s0.4,0.2,0.6,0.3
			s0.5,0.2,0.8,0.3c0.3,0.1,0.6,0.3,0.8,0.4c0.2,0.2,0.5,0.4,0.6,0.7c0.2,0.3,0.3,0.6,0.3,1.1c0,0.8-0.2,1.4-0.7,1.8
			s-1.2,0.7-2.2,0.7c-0.5,0-1-0.1-1.5-0.2s-0.8-0.3-1.1-0.5l0.5-1.5c0.2,0.1,0.5,0.3,0.9,0.4s0.8,0.2,1.2,0.2c0.3,0,0.5-0.1,0.7-0.2
			C704.9,204.2,705,204,705,203.7z"/>
	</g>
	<g>
		<path class="st0" d="M218.4,385.8l-20.7-29.6c-2.5-3.5-1.6-8.4,1.9-10.8l2.6-1.8c3.5-2.5,8.4-1.6,10.8,1.9l20.7,29.6
			c2.5,3.5,1.6,8.4-1.9,10.8l-2.6,1.8C225.7,390.2,220.8,389.3,218.4,385.8z"/>
		<g>
			<path d="M195.2,360.4l3.6,5.1l-1.5,1l-2.4-3.4l-2.1,1.5l2.2,3.1l-1.5,1l-2.2-3.1l-3.5,2.4l-1.2-1.7L195.2,360.4z"/>
			<path d="M196.7,368.5c0.4,0.2,0.8,0.5,1.2,0.9c0.4,0.4,0.8,0.8,1.1,1.3c0.3,0.4,0.5,0.8,0.6,1.2c0.1,0.4,0.1,0.7,0,1
				s-0.2,0.6-0.4,0.8c-0.2,0.3-0.5,0.5-0.8,0.7c-0.4,0.3-0.7,0.5-1.1,0.7s-0.8,0.5-1.1,0.7c-0.4,0.2-0.7,0.5-1,0.7
				c-0.3,0.3-0.6,0.5-0.8,0.8l-0.9-1.3l0.7-0.9V375c-0.4,0-0.7-0.1-1.1-0.2c-0.4-0.2-0.7-0.5-1.1-0.9c-0.2-0.3-0.3-0.6-0.4-0.9
				s-0.1-0.6,0-0.8c0-0.3,0.1-0.5,0.3-0.8c0.2-0.2,0.4-0.5,0.6-0.6c0.4-0.3,0.8-0.4,1.1-0.4c0.4,0,0.8,0.1,1.1,0.3
				c0.4,0.2,0.8,0.5,1.1,0.9c0.4,0.4,0.7,0.9,1.1,1.4c0.5-0.3,0.8-0.5,0.9-0.8s0-0.6-0.3-1c-0.2-0.3-0.5-0.6-0.8-0.9
				s-0.6-0.5-0.9-0.7L196.7,368.5z M193.5,373.7c0.2,0.3,0.5,0.5,0.7,0.6c0.3,0.1,0.5,0.1,0.8,0.1l0.8-0.6c-0.2-0.3-0.3-0.5-0.5-0.7
				s-0.4-0.4-0.5-0.5c-0.2-0.1-0.4-0.2-0.5-0.3c-0.2,0-0.4,0-0.5,0.1c-0.2,0.2-0.4,0.4-0.4,0.6C193.3,373.3,193.4,373.5,193.5,373.7
				z"/>
			<path d="M201,382.4c-0.3,0.2-0.7,0.5-1,0.7s-0.7,0.6-1.1,0.9l-0.8-1.1l0.6-0.8l0,0c-0.4,0-0.8,0-1.2-0.2c-0.4-0.2-0.7-0.5-1-0.9
				c-0.5-0.8-0.7-1.5-0.5-2.3s0.9-1.6,1.9-2.3c1-0.7,2-1.1,2.9-1s1.7,0.6,2.3,1.5c0.2,0.3,0.3,0.5,0.4,0.7s0.2,0.4,0.2,0.6l2.5-1.7
				l1.1,1.6L201,382.4z M198.1,380.4c0.2,0.3,0.5,0.5,0.7,0.6c0.3,0.1,0.6,0,0.9-0.1l2.6-1.8c0-0.2,0-0.4-0.1-0.5
				c-0.1-0.2-0.2-0.4-0.3-0.6c-0.3-0.5-0.7-0.7-1.2-0.7s-1.1,0.2-1.8,0.8c-0.5,0.4-0.9,0.8-1.1,1.2
				C197.8,379.6,197.8,380,198.1,380.4z"/>
		</g>
		<g>
			<path d="M211.6,349.7l3.6,5.1l-1.5,1l-2.4-3.4l-2.1,1.5l2.2,3.1l-1.5,1l-2.2-3.1l-3.5,2.4l-1.2-1.7L211.6,349.7z"/>
			<path d="M213.1,357.9c0.4,0.2,0.8,0.5,1.2,0.9c0.4,0.4,0.8,0.8,1.1,1.3c0.3,0.4,0.5,0.8,0.6,1.2c0.1,0.4,0.1,0.7,0,1
				s-0.2,0.6-0.4,0.8c-0.2,0.3-0.5,0.5-0.8,0.7c-0.4,0.3-0.7,0.5-1.1,0.7s-0.8,0.5-1.1,0.7c-0.4,0.2-0.7,0.5-1,0.7
				c-0.3,0.3-0.6,0.5-0.8,0.8l-0.9-1.3l0.7-0.9v-0.1c-0.4,0-0.7-0.1-1.1-0.2c-0.4-0.2-0.7-0.5-1.1-0.9c-0.2-0.3-0.3-0.6-0.4-0.9
				s-0.1-0.6,0-0.8c0-0.3,0.1-0.5,0.3-0.8c0.2-0.2,0.4-0.5,0.6-0.6c0.4-0.3,0.8-0.4,1.1-0.4c0.4,0,0.8,0.1,1.1,0.3
				c0.4,0.2,0.8,0.5,1.1,0.9c0.4,0.4,0.7,0.9,1.1,1.4c0.5-0.3,0.8-0.5,0.9-0.8s0-0.6-0.3-1c-0.2-0.3-0.5-0.6-0.8-0.9
				s-0.6-0.5-0.9-0.7L213.1,357.9z M209.9,363.1c0.2,0.3,0.5,0.5,0.7,0.6c0.3,0.1,0.5,0.1,0.8,0.1l0.8-0.6c-0.2-0.3-0.3-0.5-0.5-0.7
				s-0.4-0.4-0.5-0.5c-0.2-0.1-0.4-0.2-0.5-0.3c-0.2,0-0.4,0-0.5,0.1c-0.2,0.2-0.4,0.4-0.4,0.6C209.7,362.6,209.8,362.8,209.9,363.1
				z"/>
			<path d="M217.4,371.7c-0.3,0.2-0.7,0.5-1,0.7s-0.7,0.6-1.1,0.9l-0.8-1.1l0.6-0.8l0,0c-0.4,0-0.8,0-1.2-0.2
				c-0.4-0.2-0.7-0.5-1-0.9c-0.5-0.8-0.7-1.5-0.5-2.3s0.9-1.6,1.9-2.3c1-0.7,2-1.1,2.9-1s1.7,0.6,2.3,1.5c0.2,0.3,0.3,0.5,0.4,0.7
				s0.2,0.4,0.2,0.6l2.5-1.7l1.1,1.6L217.4,371.7z M214.5,369.7c0.2,0.3,0.5,0.5,0.7,0.6c0.3,0.1,0.6,0,0.9-0.1l2.6-1.8
				c0-0.2,0-0.4-0.1-0.5c-0.1-0.2-0.2-0.4-0.3-0.6c-0.3-0.5-0.7-0.7-1.2-0.7s-1.1,0.2-1.8,0.8c-0.5,0.4-0.9,0.8-1.1,1.2
				C214.2,368.9,214.2,369.3,214.5,369.7z"/>
		</g>
	</g>
</g>
</svg>
