<svg xmlns="http://www.w3.org/2000/svg" viewBox="0 0 400 400"><defs><style>.cls-1{fill:#fff;}.cls-2{fill:#d4e9ff;}.cls-3{fill:#93c1e8;}.cls-4{fill:#0079bf;}</style></defs><title>labcoat_safety</title><g id="Layer_2" data-name="Layer 2"><g id="Layer_1-2" data-name="Layer 1"><path class="cls-1" d="M294.73,85.07c-9.89-10.1-19.43-13.74-59.57-34H164.84C130.12,69,117.27,73,105.88,84.42a79,79,0,0,0-23.07,55.77V265.51L118,289v50.39H282V289l35.16-23.44V140.19A78.81,78.81,0,0,0,294.73,85.07Z"/><path class="cls-2" d="M282,265.51V218.64H235.16v58.59A11.71,11.71,0,0,0,246.88,289h70.31V265.51Z"/><path class="cls-2" d="M272.59,70l-2.28,4.54a78.55,78.55,0,0,1-35.15,35.15l11.72,11.72L200,168.25,235.16,51.06Z"/><path class="cls-2" d="M164.84,51.06,200,168.25l-46.88-46.88,11.72-11.72A78.55,78.55,0,0,1,129.69,74.5l-2.35-4.69Z"/><path class="cls-2" d="M118,218.64v46.87H82.81V289h70.31a11.71,11.71,0,0,0,11.72-11.72V218.64Z"/><path class="cls-3" d="M200,294.81a5.86,5.86,0,1,0-5.86-5.86A5.87,5.87,0,0,0,200,294.81Z"/><path class="cls-3" d="M118,345.2H282a5.86,5.86,0,0,0,5.86-5.86V294.81h29.3a5.86,5.86,0,0,0,5.86-5.86V140.19A84.19,84.19,0,0,0,298.92,81c-12.63-12.9-26.27-16.69-61.12-35.14h0a.2.2,0,0,0-.08,0,6,6,0,0,0-2.55-.59H164.84a6.07,6.07,0,0,0-2,.37,5,5,0,0,0-.59.25h0c-33.06,17.35-47.65,21.61-60.48,34.46A84.26,84.26,0,0,0,77,140.19V289a5.86,5.86,0,0,0,5.86,5.86h29.3v44.53A5.86,5.86,0,0,0,118,345.2Zm5.86-97.27H159v29.3a5.86,5.86,0,0,1-5.86,5.86H123.83ZM159,236.22H123.83V224.5H159Zm117.19,0H241V224.5h35.15ZM241,247.93h35.15v35.16H246.88a5.86,5.86,0,0,1-5.86-5.86Zm46.87,35.16V271.37h23.44v11.72ZM231,113.8l7.58,7.57-26.3,26.3,26.47-88.23,26,13.11a73.24,73.24,0,0,1-32.18,31.86A5.86,5.86,0,0,0,231,113.8Zm-60.38-5.09a5.86,5.86,0,0,0-3.17-4.3,73.15,73.15,0,0,1-32.24-32l26-13,26.48,88.26-26.3-26.3L169,113.8A5.89,5.89,0,0,0,170.63,108.71Zm56.65-51.79L200,147.86,172.72,56.92ZM110,88.56a65.18,65.18,0,0,1,14.76-10.79A85.07,85.07,0,0,0,155.24,111L149,117.23a5.86,5.86,0,0,0,0,8.29l45.16,45.15v94.84a5.86,5.86,0,0,0,11.72,0V170.67L251,125.52a5.86,5.86,0,0,0,0-8.29L244.76,111A85.05,85.05,0,0,0,275.14,77.9a64.9,64.9,0,0,1,15.4,11.27,72.49,72.49,0,0,1,20.79,51V259.65H287.89v-91.4a5.86,5.86,0,1,0-11.72,0v44.53h-41a5.86,5.86,0,0,0-5.86,5.86v58.59a17.6,17.6,0,0,0,17.58,17.58h29.29v38.67H205.86V312.39a5.86,5.86,0,0,0-11.72,0v21.09H123.83V294.81h29.29a17.6,17.6,0,0,0,17.58-17.58V218.64a5.86,5.86,0,0,0-5.86-5.86h-41V168.25a5.86,5.86,0,0,0-11.72,0v91.4H88.67V140.19A72.62,72.62,0,0,1,110,88.56ZM88.67,271.37h23.44v11.72H88.67Z"/><path class="cls-4" d="M200,0C89.54,0,0,89.54,0,200S89.54,400,200,400s200-89.54,200-200S310.46,0,200,0Zm-7.18,371.38c-86.63-3.5-157.42-74.23-162.7-158.86-5.94-95.35,72.9-182.18,171.74-181,95.2,1.14,172.74,83.51,167.72,179C364.71,303,284.11,375.07,192.82,371.38Z"/></g></g></svg>