<svg id="Layer_1" data-name="Layer 1" xmlns="http://www.w3.org/2000/svg" xmlns:xlink="http://www.w3.org/1999/xlink" viewBox="0 0 1131.92 1882.28"><defs><style>.cls-1,.cls-18,.cls-4,.cls-84{fill:none;}.cls-2{clip-path:url(#clip-path);}.cls-3{fill:#c6e1d5;}.cls-4{stroke:#000;stroke-width:3px;}.cls-18,.cls-4,.cls-84{stroke-miterlimit:10;}.cls-5{clip-path:url(#clip-path-3);}.cls-6{fill:#65c8d0;}.cls-7{fill:#ff9a94;}.cls-8{fill:#fff;}.cls-9{clip-path:url(#clip-path-5);}.cls-10{fill:#412350;}.cls-11{fill:#270e3e;}.cls-12{clip-path:url(#clip-path-6);}.cls-13{clip-path:url(#clip-path-7);}.cls-14{fill:#4d4d4d;}.cls-15{fill:#c2ca6c;}.cls-16{clip-path:url(#clip-path-10);}.cls-17{fill:#0079bf;}.cls-18,.cls-84{stroke:#0079bf;}.cls-18{stroke-width:12px;}.cls-19{fill:#f0d0b4;}.cls-20{fill:#db9c94;}.cls-21{fill:#f1dbcb;}.cls-22{fill:#f5e0cd;}.cls-23{fill:#e4b69d;}.cls-24{fill:#d1b79f;}.cls-25{fill:#c0a58d;}.cls-26{fill:#fccf3f;}.cls-27{fill:#efc03c;}.cls-28{fill:#fc4e51;}.cls-29{fill:#f3e8d7;}.cls-30{fill:#efa335;}.cls-31{fill:#fbcc34;}.cls-32{fill:#a67c52;}.cls-33{fill:#f15a24;}.cls-34{fill:#39b54a;}.cls-35{fill:#6a3311;}.cls-36{fill:#e22f37;}.cls-37{fill:#e6e6e6;}.cls-38{clip-path:url(#clip-path-12);}.cls-39{fill:#577d95;}.cls-40{fill:#f26d6b;}.cls-41{font-size:38px;}.cls-41,.cls-47,.cls-81{font-family:PTSans-Regular, PT Sans;}.cls-42{letter-spacing:-0.04em;}.cls-43{letter-spacing:-0.04em;}.cls-44{letter-spacing:-0.01em;}.cls-45{letter-spacing:-0.02em;}.cls-46{fill:#d11415;}.cls-47,.cls-86{font-size:32px;}.cls-48{letter-spacing:-0.05em;}.cls-49{letter-spacing:-0.02em;}.cls-50{letter-spacing:-0.07em;}.cls-51{letter-spacing:-0.08em;}.cls-52{letter-spacing:-0.01em;}.cls-53{letter-spacing:-0.07em;}.cls-54{letter-spacing:-0.04em;}.cls-55,.cls-76{letter-spacing:-0.02em;}.cls-56,.cls-69{letter-spacing:-0.04em;}.cls-57{letter-spacing:-0.02em;}.cls-58{clip-path:url(#clip-path-15);}.cls-59{clip-path:url(#clip-path-16);}.cls-60{fill:#66a1ce;}.cls-61{fill:#bec665;}.cls-62{fill:#7ec5b0;}.cls-63{fill:#86ad84;}.cls-64{letter-spacing:-0.02em;}.cls-65{letter-spacing:-0.02em;}.cls-66{letter-spacing:-0.04em;}.cls-67{letter-spacing:0em;}.cls-68,.cls-69,.cls-70,.cls-71,.cls-72,.cls-73,.cls-74,.cls-75,.cls-76,.cls-77,.cls-79{font-family:PTSans-Bold, PT Sans;}.cls-68,.cls-69,.cls-70,.cls-71,.cls-72,.cls-73,.cls-74,.cls-75,.cls-76,.cls-77,.cls-80{font-weight:700;}.cls-70{letter-spacing:-0.01em;}.cls-71{letter-spacing:-0.02em;}.cls-72,.cls-82{letter-spacing:-0.04em;}.cls-73{letter-spacing:-0.09em;}.cls-74,.cls-83{letter-spacing:0em;}.cls-75{letter-spacing:-0.02em;}.cls-77{letter-spacing:-0.08em;}.cls-78{letter-spacing:-0.02em;}.cls-84{stroke-width:10px;}.cls-85{clip-path:url(#clip-path-17);}.cls-86{font-family:PTSans-Italic, PT Sans;font-style:italic;}.cls-87{letter-spacing:-0.03em;}.cls-88{letter-spacing:-0.06em;}.cls-89{letter-spacing:-0.04em;}.cls-90{letter-spacing:-0.04em;}.cls-91{letter-spacing:-0.02em;}.cls-92{letter-spacing:-0.03em;}</style><clipPath id="clip-path" transform="translate(-6.7 44.55)"><rect class="cls-1" x="129.21" y="960.78" width="750" height="600"/></clipPath><clipPath id="clip-path-3" transform="translate(-6.7 44.55)"><rect class="cls-1" x="-18.72" y="-253.28" width="1100" height="880"/></clipPath><clipPath id="clip-path-5" transform="translate(-6.7 44.55)"><rect class="cls-1" x="2.97" y="-44.55" width="421.89" height="246.73"/></clipPath><clipPath id="clip-path-6" transform="translate(-6.7 44.55)"><rect class="cls-1" x="42.78" y="78.86" width="421.95" height="246.64"/></clipPath><clipPath id="clip-path-7" transform="translate(-6.7 44.55)"><rect class="cls-1" x="184.68" y="30.33" width="320.16" height="191.31"/></clipPath><clipPath id="clip-path-10" transform="translate(-6.7 44.55)"><rect class="cls-1" x="16.94" y="987.9" width="900" height="720"/></clipPath><clipPath id="clip-path-12" transform="translate(-6.7 44.55)"><rect class="cls-1" x="776.32" y="1021.49" width="281.25" height="500" transform="translate(-591.48 1698.26) rotate(-70)"/></clipPath><clipPath id="clip-path-15" transform="translate(-6.7 44.55)"><rect class="cls-1" x="-22.72" y="92.73" width="1500" height="1200"/></clipPath><clipPath id="clip-path-16" transform="translate(-6.7 44.55)"><rect class="cls-1" x="-15.98" y="115.81" width="1500" height="1200"/></clipPath><clipPath id="clip-path-17" transform="translate(-6.7 44.55)"><rect class="cls-1" x="799.99" y="1300.52" width="265" height="149.06" transform="translate(-630.15 810.71) rotate(-36)"/></clipPath></defs><title>T--UPF_CRG_Barcelona--projectdescription</title><g class="cls-2"><polygon class="cls-3" points="744.18 1342.37 219.03 1342.37 279.82 1229.77 804.97 1229.77 744.18 1342.37"/><g class="cls-2"><path d="M301.24,1247.48a43.21,43.21,0,0,1,1.6-11.23,40.1,40.1,0,0,1,6.38-13.74,30.73,30.73,0,0,1,10.8-9.2,31.66,31.66,0,0,1,14.84-3.38q11.14,0,18,6.92t6.87,18.37a40.53,40.53,0,0,1-4.47,18.41,33.37,33.37,0,0,1-12.13,13.69,32,32,0,0,1-17.34,4.8q-8.42,0-14.1-3.82a21.22,21.22,0,0,1-8.08-9.45,28.89,28.89,0,0,1-2.38-11.37m12.22-.25a14.86,14.86,0,0,0,3.77,10.37,12.7,12.7,0,0,0,9.92,4.18,16.21,16.21,0,0,0,9.61-3.3,23.92,23.92,0,0,0,7.63-10,31.7,31.7,0,0,0,3-13q0-7.1-3.81-11.13a12.75,12.75,0,0,0-9.72-4q-9.06,0-14.73,8.44a32.49,32.49,0,0,0-5.68,18.53" transform="translate(-6.7 44.55)"/><path class="cls-4" d="M301.24,1247.48a43.21,43.21,0,0,1,1.6-11.23,40.1,40.1,0,0,1,6.38-13.74,30.73,30.73,0,0,1,10.8-9.2,31.66,31.66,0,0,1,14.84-3.38q11.14,0,18,6.92t6.87,18.37a40.53,40.53,0,0,1-4.47,18.41,33.37,33.37,0,0,1-12.13,13.69,32,32,0,0,1-17.34,4.8q-8.42,0-14.1-3.82a21.22,21.22,0,0,1-8.08-9.45A28.89,28.89,0,0,1,301.24,1247.48Zm12.22-.25a14.86,14.86,0,0,0,3.77,10.37,12.7,12.7,0,0,0,9.92,4.18,16.21,16.21,0,0,0,9.61-3.3,23.92,23.92,0,0,0,7.63-10,31.7,31.7,0,0,0,3-13q0-7.1-3.81-11.13a12.75,12.75,0,0,0-9.72-4q-9.06,0-14.73,8.44A32.49,32.49,0,0,0,313.46,1247.23Z" transform="translate(-6.7 44.55)"/><path d="M378.24,1211h12.33l-6.8,32.63-1.68,8a12.09,12.09,0,0,0-.17,1.92,7.54,7.54,0,0,0,2.61,5.89q2.6,2.31,7.56,2.31a14.6,14.6,0,0,0,7.38-1.68,11.18,11.18,0,0,0,4.51-5c1.07-2.21,2.14-6,3.24-11.27l6.89-32.84h12.33l-6.84,32.88q-2.18,10.37-5,15.86a22.2,22.2,0,0,1-8.57,8.94q-5.75,3.45-14.51,3.44-10.5,0-16.07-5.14a17.18,17.18,0,0,1-5.58-13.22,25.62,25.62,0,0,1,.29-3.65q.16-1.3,1.43-7.46Z" transform="translate(-6.7 44.55)"/><path class="cls-4" d="M378.24,1211h12.33l-6.8,32.63-1.68,8a12.09,12.09,0,0,0-.17,1.92,7.54,7.54,0,0,0,2.61,5.89q2.6,2.31,7.56,2.31a14.6,14.6,0,0,0,7.38-1.68,11.18,11.18,0,0,0,4.51-5c1.07-2.21,2.14-6,3.24-11.27l6.89-32.84h12.33l-6.84,32.88q-2.18,10.37-5,15.86a22.2,22.2,0,0,1-8.57,8.94q-5.75,3.45-14.51,3.44-10.5,0-16.07-5.14a17.18,17.18,0,0,1-5.58-13.22,25.62,25.62,0,0,1,.29-3.65q.16-1.3,1.43-7.46Z" transform="translate(-6.7 44.55)"/><path d="M438.91,1271.05H426.53l12.58-60.1H465.8a31.94,31.94,0,0,1,10.72,1.42,12.18,12.18,0,0,1,6.19,5.18,16.93,16.93,0,0,1,2.36,9.14,17.91,17.91,0,0,1-4.6,12.65q-4.59,5-13.89,6.17a24.34,24.34,0,0,1,4.47,5.62,149.46,149.46,0,0,1,9.22,19.92H467q-1.61-5.08-6.27-15.87c-1.7-3.87-3.5-6.49-5.42-7.83q-1.76-1.18-6.14-1.18h-5.05Zm7.09-33.9h6.56q10,0,13.22-1.19a10.62,10.62,0,0,0,5.1-3.73,9,9,0,0,0,1.85-5.33,5.39,5.39,0,0,0-2.67-4.92c-1.09-.66-3.46-1-7.09-1H449.36Z" transform="translate(-6.7 44.55)"/><path class="cls-4" d="M438.91,1271.05H426.53l12.58-60.1H465.8a31.94,31.94,0,0,1,10.72,1.42,12.18,12.18,0,0,1,6.19,5.18,16.93,16.93,0,0,1,2.36,9.14,17.91,17.91,0,0,1-4.6,12.65q-4.59,5-13.89,6.17a24.34,24.34,0,0,1,4.47,5.62,149.46,149.46,0,0,1,9.22,19.92H467q-1.61-5.08-6.27-15.87c-1.7-3.87-3.5-6.49-5.42-7.83q-1.76-1.18-6.14-1.18h-5.05Zm7.09-33.9h6.56q10,0,13.22-1.19a10.62,10.62,0,0,0,5.1-3.73,9,9,0,0,0,1.85-5.33,5.39,5.39,0,0,0-2.67-4.92c-1.09-.66-3.46-1-7.09-1H449.36Z" transform="translate(-6.7 44.55)"/><polygon points="512 1315.6 524.59 1255.51 536.92 1255.51 524.38 1315.6 512 1315.6"/><polygon class="cls-4" points="512 1315.6 524.59 1255.51 536.92 1255.51 524.38 1315.6 512 1315.6"/><path d="M542.76,1271.05l12.59-60.1h16.19q6.76,0,8.65.21a24.88,24.88,0,0,1,6.66,1.51,18.38,18.38,0,0,1,5.33,3.22,20.2,20.2,0,0,1,4.14,5,24.59,24.59,0,0,1,2.69,6.71,34.23,34.23,0,0,1,.94,8.3,38.5,38.5,0,0,1-3.71,17.23,33.93,33.93,0,0,1-9.33,12,28,28,0,0,1-11.11,5.09,56.6,56.6,0,0,1-11.84.9Zm14.39-9.68h6.27a40.51,40.51,0,0,0,9.86-.84,13.62,13.62,0,0,0,5.6-3.13,26.61,26.61,0,0,0,6.15-8.86,31.52,31.52,0,0,0,2.5-13c0-4.27-.69-7.47-2.07-9.62a10.07,10.07,0,0,0-5.1-4.28,26.56,26.56,0,0,0-7.59-.74H565.6Z" transform="translate(-6.7 44.55)"/><path class="cls-4" d="M542.76,1271.05l12.59-60.1h16.19q6.76,0,8.65.21a24.88,24.88,0,0,1,6.66,1.51,18.38,18.38,0,0,1,5.33,3.22,20.2,20.2,0,0,1,4.14,5,24.59,24.59,0,0,1,2.69,6.71,34.23,34.23,0,0,1,.94,8.3,38.5,38.5,0,0,1-3.71,17.23,33.93,33.93,0,0,1-9.33,12,28,28,0,0,1-11.11,5.09,56.6,56.6,0,0,1-11.84.9Zm14.39-9.68h6.27a40.51,40.51,0,0,0,9.86-.84,13.62,13.62,0,0,0,5.6-3.13,26.61,26.61,0,0,0,6.15-8.86,31.52,31.52,0,0,0,2.5-13c0-4.27-.69-7.47-2.07-9.62a10.07,10.07,0,0,0-5.1-4.28,26.56,26.56,0,0,0-7.59-.74H565.6Z" transform="translate(-6.7 44.55)"/><polygon points="599.49 1315.6 612.03 1255.51 656.59 1255.51 654.5 1265.55 622.32 1265.55 619.45 1279.2 650.57 1279.2 648.48 1289.24 617.36 1289.24 613.59 1305.56 648.56 1305.56 646.43 1315.6 599.49 1315.6"/><polygon class="cls-4" points="599.49 1315.6 612.03 1255.51 656.59 1255.51 654.5 1265.55 622.32 1265.55 619.45 1279.2 650.57 1279.2 648.48 1289.24 617.36 1289.24 613.59 1305.56 648.56 1305.56 646.43 1315.6 599.49 1315.6"/><path d="M710.54,1257.77H686.72l-7.22,13.28H666.79l34-60.1h13.73l9.76,60.1H712.54Zm-1.52-10-3.49-24.18L691,1247.76Z" transform="translate(-6.7 44.55)"/><path class="cls-4" d="M710.54,1257.77H686.72l-7.22,13.28H666.79l34-60.1h13.73l9.76,60.1H712.54Zm-1.52-10-3.49-24.18L691,1247.76Z" transform="translate(-6.7 44.55)"/></g></g><g class="cls-5"><rect class="cls-3" x="305.22" y="0.02" width="702" height="246.78"/><g class="cls-5"><path class="cls-6" d="M424.86,135.58A180.13,180.13,0,1,1,244.73-44.55,180.12,180.12,0,0,1,424.86,135.58" transform="translate(-6.7 44.55)"/><path class="cls-7" d="M368.49,135.58A123.76,123.76,0,1,1,244.73,11.82,123.76,123.76,0,0,1,368.49,135.58" transform="translate(-6.7 44.55)"/><path class="cls-8" d="M314.74,137.57a67.13,67.13,0,1,1-67.12-67.13,67.13,67.13,0,0,1,67.12,67.13" transform="translate(-6.7 44.55)"/></g><g class="cls-9"><path class="cls-10" d="M208.36,5c12.95.08,24,5,32.47,15.16a44.7,44.7,0,0,0,17.26,13C275.76,40.55,283.35,59,277,77.76c-1.49,4.4-3,8.79-4.59,13.16-3.41,9.48-9.81,15.62-19.38,17.57a34.82,34.82,0,0,0-16.51,8.71,46.38,46.38,0,0,1-34.19,12.19,42.47,42.47,0,0,1-12.91-2.54,21.3,21.3,0,0,0-17.67,1c-9.07,4.44-18.4,4.89-27.74.72-15.49-6.92-23.27-24.1-18.56-41.58a60.52,60.52,0,0,0,2.36-19c-.48-9.62,3.64-17.07,10.8-22.87C147,38.4,155.3,31.65,165.41,27.77c3.93-1.5,7-4.48,9.83-7.6C182.51,12.25,191.14,7,201.65,5.3a18.5,18.5,0,0,1,2.22-.3c1.5,0,3,0,4.49,0" transform="translate(-6.7 44.55)"/><path class="cls-11" d="M209.82,26c9.55.82,18.06,5.16,23.4,15a3.56,3.56,0,0,0,3,2.07c15,2.16,23.33,19,16.36,32.91a19.49,19.49,0,0,0-1.75,5.12,16.25,16.25,0,0,1-16,13.28,5.86,5.86,0,0,0-5,2.31,30.76,30.76,0,0,1-37.55,7.47c-1.77-.87-2.87-.71-4.49.5-13.26,10-31.54,1.8-34.14-15a21.39,21.39,0,0,1,2.39-14,5.46,5.46,0,0,0,.46-4.13c-1.77-8.16.25-16.31,8.47-20.32A9.42,9.42,0,0,0,168,49.05a26,26,0,0,1,13.26-7.71,6.16,6.16,0,0,0,3.86-2.58C191,30.42,198.91,26.24,209.82,26" transform="translate(-6.7 44.55)"/></g><g class="cls-12"><path class="cls-10" d="M245.48,166.74c13,.08,19.79-7.09,29.3-3,6.93,3,7.41,7.05,14.33,10,17.68,7.45,23.8,16.78,17.46,35.53-1.49,4.4-.3,9.34-1.87,13.71-3.41,9.48-4.15,10.51-13.72,12.46-6.38,1.31-15.07-2.47-19.94,1.87-9.8,8.74-13.57,26.19-26.5,25.57a42.48,42.48,0,0,1-12.92-2.54,21.27,21.27,0,0,0-17.66,1c-9.08,4.44-18.41,4.89-27.74.72-15.5-6.92-23.28-24.1-18.56-41.58,1.68-6.26,13.32-9.87,13-16.38-.47-9.62-7-19.66.15-25.46,8.35-6.76,16.68-13.51,26.79-17.38,3.94-1.51,5.63-7.19,9.84-7.61,14.89-1.5,17.54,14.76,28,13.07.74-.12-3.11,11.69,0,0,.39-1.45-3.11,11.69,0,0" transform="translate(-6.7 44.55)"/><path class="cls-11" d="M240,178.66c9.55.82,19.6-12.93,24.94-3.06a3.56,3.56,0,0,0,3,2.07c15,2.15,23.33,19,16.36,32.91a19.86,19.86,0,0,0-1.75,5.12c-1.52,7.79-21.14,3.63-22.64,5.34-5.39,6.17-10.37,20-18.53,21a30.42,30.42,0,0,1-17.32-3.24c-1.77-.87-2.87-.71-4.48.5-13.27,10-31.55,1.8-34.14-15-.78-5,7.9-10.67,10.28-15,.74-1.35-7.19-19.39,1-23.4a9.58,9.58,0,0,0,2.95-2.19A26,26,0,0,1,213,175.9a6.13,6.13,0,0,0,3.85-2.58c5.83-8.34,12.24,5.57,23.15,5.34" transform="translate(-6.7 44.55)"/></g><g class="cls-13"><path class="cls-10" d="M340.55,68.75A30.87,30.87,0,0,1,365.19,80.5c3.69,4.48,0,15.68,5.24,17.94,13.42,5.78,27,12.19,22.21,26.73-1.13,3.42-2.28,6.82-3.48,10.21-2.58,7.35-7.44,12.1-14.7,13.62a26.35,26.35,0,0,0-12.54,6.75A34.69,34.69,0,0,1,336,165.2a31.58,31.58,0,0,1-9.8-2c-4.62-1.77-12.75-4.06-19.84-7.29-11.75-5.37-12.56-16.41-9-30,1.28-4.86-9.69-8.49-9.94-13.54-.36-7.46,3.56-8.55,9-13,6.34-5.25,2.74-10,10.41-13a24.38,24.38,0,0,0,8.6-5.84c5.51-6.14,12.06-10.22,20-11.53a14,14,0,0,1,1.69-.23c1.14,0,2.27,0,3.41,0" transform="translate(-6.7 44.55)"/><path class="cls-11" d="M345.24,85.05c7.25.64,11.2,6.11,17.76,11.65,6.06,5.12,3.52,10.27,4.64,10.44C379,108.81,383,113,377.72,123.82a15.41,15.41,0,0,0-1.33,4,12.41,12.41,0,0,1-12.11,10.29,4.42,4.42,0,0,0-3.78,1.79,23.1,23.1,0,0,1-15.35,8.31A22.74,22.74,0,0,1,332,145.68a2.71,2.71,0,0,0-3.4.38c-10.07,7.73-13.86,1.68-15.83-11.38-.59-3.91,1.55-5.44-5.67-13-3.91-4.11-9.94-15.47,4.18-17,.94-.1,1.59-1,2.24-1.7a19.55,19.55,0,0,1,10.06-6,4.72,4.72,0,0,0,2.93-2c4.42-6.47,10.46-9.71,18.73-9.89" transform="translate(-6.7 44.55)"/></g><g class="cls-5"><path class="cls-14" d="M342.69,180.66l-25.63,20.17s12.65,23.47,18.77,31.2,16.26,19.83,22.72,24.4c7.89,5.56,26.22,13.47,26.22,13.47l-13.51,13.93,66.35-.42L415.35,233.2,405.1,246.65s-14.46-6.87-23.83-16.26c-19.47-19.54-14.66-16.24-18.31-20.65-8.87-10.7-20.27-29.08-20.27-29.08" transform="translate(-6.7 44.55)"/><path class="cls-14" d="M341.78,179.74l-25.63,20.18a1.28,1.28,0,0,0-.21,1.56c7.37,13.65,15,27,25,38.88,6.7,8,13.53,15.59,22.69,20.72A224.28,224.28,0,0,0,384.12,271l-.27-2-13.5,13.93a1.3,1.3,0,0,0,.91,2.2l66.35-.42a1.31,1.31,0,0,0,1.11-1.94q-11.13-25.11-22.25-50.21c-.44-1-1.72-.67-2.23,0L404,246l1.77-.46c-27.5-13.17-46.29-40.34-61.95-65.53-.87-1.41-3.1-.12-2.22,1.3,15.88,25.56,35,53.09,62.87,66.45a1.33,1.33,0,0,0,1.76-.46l10.26-13.45h-2.23l22.26,50.21,1.11-1.94-66.35.42.91,2.2q6.75-7,13.51-13.93a1.3,1.3,0,0,0-.26-2c-6.62-2.87-13.19-6-19.52-9.42-9.38-5.14-16.27-12.71-23.1-20.83-9.87-11.73-17.37-24.91-24.63-38.36-.07.52-.13,1-.2,1.56l25.63-20.17c1.3-1-.53-2.84-1.82-1.83" transform="translate(-6.7 44.55)"/><path class="cls-14" d="M146.4,143.26l-10.73,30.81s-26.31-4.33-35.62-7.6-24-8.91-30.46-13.54c-7.82-5.64-21.28-20.4-21.28-20.4l-8.77,17.31L18.34,87l54.72,4.7-9.38,14.07S74.88,117.18,86.81,123c24.81,12.05,20.13,8.58,25.49,10.6,13,4.9,34.1,9.69,34.1,9.69" transform="translate(-6.7 44.55)"/><path class="cls-14" d="M145.15,142.92q-5.35,15.41-10.72,30.8l1.58-.9c-14.74-2.43-29.4-5.12-43.4-10.44-10.2-3.88-20-8-28.13-15.37-5.34-4.86-10.39-10.06-15.25-15.39a1.3,1.3,0,0,0-2,.26l-8.77,17.31,2.36.31q-10.6-31.44-21.2-62.88l-1.25,1.64L73.06,93,71.94,91l-9.37,14.08a1.29,1.29,0,0,0,.2,1.56c21.73,22,53.93,31.16,83.28,37.85,1.62.37,2.31-2.11.69-2.48-28.9-6.59-60.75-15.5-82.15-37.19.07.52.13,1,.2,1.56l9.38-14.07a1.3,1.3,0,0,0-1.11-1.94l-54.72-4.7a1.29,1.29,0,0,0-1.24,1.63l21.2,62.87a1.31,1.31,0,0,0,2.36.31q4.38-8.66,8.77-17.31l-2,.27a225.86,225.86,0,0,0,16.06,16.1c7.59,6.79,16.64,10.71,26.05,14.39,14.82,5.78,30.16,8.79,45.82,11.37a1.33,1.33,0,0,0,1.58-.9l10.73-30.81c.55-1.57-1.94-2.24-2.49-.68" transform="translate(-6.7 44.55)"/><path class="cls-14" d="M311.92,25,321,56.36s26.5-2.94,36-5.72S381.46,43,388.12,38.71c8.1-5.22,22.31-19.25,22.31-19.25l7.85,17.74,24.46-61.68-54.88,1.83L396.49-8.1s-11.79,10.83-24,16c-25.4,10.74-20.54,7.52-26,9.25-13.24,4.21-34.56,7.9-34.56,7.9" transform="translate(-6.7 44.55)"/><path class="cls-14" d="M310.68,25.38q4.54,15.66,9.1,31.32a1.29,1.29,0,0,0,1.24.95c15.65-1.74,31.08-3.87,46.07-8.8,9.61-3.16,19-6.55,27-12.9a221.8,221.8,0,0,0,17.29-15.58l-2-.26q3.92,8.87,7.85,17.74c.5,1.13,2,.59,2.35-.31L444-24.14a1.3,1.3,0,0,0-1.24-1.63l-54.89,1.83A1.3,1.3,0,0,0,386.75-22q4.31,7.28,8.63,14.55l.2-1.56c-22.48,20.52-54.83,27.74-84,32.8-1.63.29-.94,2.77.68,2.49C342,21.12,374.52,13.69,397.4-7.19a1.3,1.3,0,0,0,.2-1.56Q393.3-16,389-23.3l-1.11,1.94,54.89-1.83-1.25-1.63L417,36.86l2.36-.31-7.86-17.74a1.29,1.29,0,0,0-2-.26c-5.14,5.06-10.46,10-16,14.56-8.35,6.83-18.13,10.36-28.3,13.65C350.81,51.41,336,53.4,321,55.07l1.24,1q-4.54-15.66-9.1-31.32a1.29,1.29,0,0,0-2.48.68" transform="translate(-6.7 44.55)"/></g><g class="cls-5"><path class="cls-3" d="M708.26,386.4a1.29,1.29,0,0,0,0-2.57,1.29,1.29,0,0,0,0,2.57" transform="translate(-6.7 44.55)"/><path class="cls-15" d="M1041,237.06c0,101.48-101.42,101.48-226.52,101.48s-226.52,0-226.52-101.48S689.33,135.58,814.44,135.58s226.52,0,226.52,101.48" transform="translate(-6.7 44.55)"/><path d="M689.2,175.37c-8.46-8.72-21.9-8.32-31.92-2.63-12.24,6.94-18.81,21.07-22.46,34-3.51,12.46-3.57,29.16,8.84,36.82s26.73-1.27,34.21-11.44c10-13.63,13.83-32.39,15.31-48.9.29-3.25-2-6.48-5.45-6-3.81.55-6.13,4.76-6.93,8.13q-14.22,59.85-30,119.31c-.88,3.31.45,8.06,4.42,8.26,4.25.21,6.86-4.93,7.74-8.28q15.78-59.44,30-119.3l-12.39,2.14c-1.05,11.71-3.81,26-11,35.63-6.12,8.16-19.56,9.66-23.46-1.44-1.9-5.43-.3-11.62,1.53-16.84,1.77-5,4-9.92,7.68-13.83,6.4-6.77,18-8.54,24.83-1.48,5.84,6,14.32-8.81,9.08-14.2" transform="translate(-6.7 44.55)"/><path d="M710.18,185.1a122.77,122.77,0,0,0-26.75,53.18,115.28,115.28,0,0,0-2.76,30c.42,10,1.58,20.69,7.9,28.82,5.65,7.27,15.16,10.57,23.78,6.65,9.61-4.37,15-13.72,18.7-23.14,7.8-19.67,14.42-40.84,14.21-62.2-.1-11-1.72-23.64-7.38-33.26-5.33-9.06-17-13-24.71-4.1-2.57,2.95-4.53,7.93-2.46,11.69,1.92,3.49,6.21,2.84,8.56.13,1.05-1.2,3.81-.05,5,.78,2.56,1.84,3.92,5.22,4.94,8.08A65.5,65.5,0,0,1,732.65,225c-.24,15.73-4.88,31.13-10.32,45.76-2.12,5.71-4.1,13.72-9.81,17-5.54,3.16-11.73,0-15-5-4-6.13-4.27-14.38-4.37-21.46a98.08,98.08,0,0,1,2.1-21.61,96.13,96.13,0,0,1,21-42.71c2.55-3,4.53-7.91,2.46-11.68-1.92-3.47-6.23-2.87-8.57-.14" transform="translate(-6.7 44.55)"/><path d="M815.41,178.74a1135.52,1135.52,0,0,0-80.16,113.88c-1.89,3.07-3.22,8.48-.17,11.33s7.19-.08,8.91-2.87a1101.45,1101.45,0,0,1,77.53-110.52c2.46-3.08,4.58-7.84,2.46-11.69-1.87-3.38-6.31-3-8.57-.13" transform="translate(-6.7 44.55)"/><path d="M776.26,177.34a20,20,0,0,0-17.11,11.32c-2.95,5.93-3.46,15,3.17,18.67,5.38,3,12.24.83,15.94-3.76,4.86-6,4.87-14.47,1.58-21.22-2-4.2-7.11,2.49-5.51,5.77,1.46,3,2.67,7.59.15,10.42-1.9,2.14-5.71,2.4-8.17,1.22-3.69-1.77-3.51-6.34-1.38-9.32a12.11,12.11,0,0,1,9.67-4.83c3.74-.12,5.88-8.4,1.66-8.27" transform="translate(-6.7 44.55)"/><path d="M792.84,265.58c-4.66,5.09-9,11.79-8,19,.8,5.75,6,11.49,12.19,10.36,6-1.1,9.49-7.76,10-13.36a16.59,16.59,0,0,0-7.74-15.79c-3.17-2-6.6,5.83-3.22,8a10.34,10.34,0,0,1,4.65,7c.44,2.83-.64,6.31-4.13,6-3.11-.26-5.61-3.8-5.57-6.67.05-3.36,2.73-6.37,4.85-8.7,2.75-3,.75-10.06-3-5.91" transform="translate(-6.7 44.55)"/></g></g><g class="cls-16"><g class="cls-16"><path d="M165.15,1375.72l2.35-11.13h43l-8.38,40a78,78,0,0,1-18.5,8.31,68.78,68.78,0,0,1-20.45,3.22q-21.45,0-32.05-12.94-8.91-10.93-8.91-28.09a66.88,66.88,0,0,1,7.81-32.22q7.8-14.51,19.71-21.45a51.5,51.5,0,0,1,26.45-6.94A44.7,44.7,0,0,1,195,1318.3a30.49,30.49,0,0,1,12.74,10.12q4.43,6.33,6.37,16.53l-12.88,1.4q-2.07-10.11-8.61-15.52t-16.8-5.39a36.8,36.8,0,0,0-19.91,5.8q-9.26,5.79-14.78,17.49a61.47,61.47,0,0,0-5.53,26.59q0,14.82,7.3,22.39t20.19,7.58q12.79,0,27.55-8.45l4.43-21.12Z" transform="translate(-6.7 44.55)"/><path d="M163.21,1423c-16.4,0-29-5.2-37.36-15.45-6.95-8.52-10.47-19.43-10.47-32.44a73.92,73.92,0,0,1,8.63-35.47c5.79-10.76,13.29-18.88,22.3-24.13a58.5,58.5,0,0,1,29.91-7.88,51.73,51.73,0,0,1,21.62,4.41,37.39,37.39,0,0,1,15.52,12.44c3.49,5,6,11.45,7.48,19.17l1.39,7.3-26.48,2.9-1.25-6.12c-1.07-5.22-3.12-9-6.26-11.61s-7.18-3.83-12.43-3.83a29.87,29.87,0,0,0-16.26,4.75c-5.08,3.19-9.08,8-12.23,14.62a55,55,0,0,0-4.87,23.65c0,8,1.81,13.92,5.39,17.62s8.53,5.48,15.23,5.48c6.54,0,13.76-2,21.49-6.08l2-9.75H156.69l5.24-24.86H219l-10.71,51.15-2.47,1.55a85.17,85.17,0,0,1-20.12,9.06,76,76,0,0,1-22.48,3.52" transform="translate(-6.7 44.55)"/><path d="M192.51,1416.15l55.71-98.29h15.49l16.22,98.29H267.19l-4.76-28.3H222.68l-15.76,28.3Zm35.8-38.42h32.51L257,1353.06q-2.2-14.68-2.75-24.47a176.78,176.78,0,0,1-9.78,20Z" transform="translate(-6.7 44.55)"/><path d="M288,1423H261.39l-4.76-28.29H226.71L211,1423H180.72l63.5-112h25.31Zm-48-52.14h12.84l-2.59-16.76c-.07-.45-.14-.89-.2-1.33Z" transform="translate(-6.7 44.55)"/><path d="M269.28,1416.15l20.58-98.29h41.23q12.21,0,18.51,2.05a18,18,0,0,1,9.89,7.67q3.58,5.64,3.58,14.22,0,12-7.84,19.91T329.89,1372a37.08,37.08,0,0,1,8.11,7.77,87.68,87.68,0,0,1,9.92,17.9l7.51,18.51H340.75l-7-18.3a85.69,85.69,0,0,0-8.72-17.17q-3.35-5-6.84-6.6t-11.33-1.58H291.54l-9.12,43.65Zm24.47-54.31h18.17q12.6,0,16.42-.33a32,32,0,0,0,12.21-3.35,19,19,0,0,0,7.37-7.05,18.38,18.38,0,0,0,2.61-9.51,14,14,0,0,0-1.94-7.48,9.84,9.84,0,0,0-5.1-4.33q-3.15-1.12-10.72-1.13h-32Z" transform="translate(-6.7 44.55)"/><path d="M365.62,1423H336l-8.73-22.7a78.69,78.69,0,0,0-8-15.78c-2.06-3.1-3.47-4-4-4.2s-2.6-1-8.51-1h-9.7L288,1423H260.83l23.45-112h46.81c8.94,0,15.69.77,20.62,2.38a24.79,24.79,0,0,1,13.57,10.51c3.09,4.86,4.66,10.88,4.66,17.91,0,9.84-3.31,18.16-9.84,24.74-4.09,4.13-9.49,7.25-16.36,9.44a94.65,94.65,0,0,1,10.54,19.08Zm-63.41-68h9.71c10.17,0,14.22-.17,15.82-.31a25.32,25.32,0,0,0,9.5-2.53,12.17,12.17,0,0,0,4.77-4.52,11.51,11.51,0,0,0,1.66-6,7.3,7.3,0,0,0-.94-3.89,3,3,0,0,0-1.57-1.45c-.47-.17-2.48-.73-8.39-.73H306.29Z" transform="translate(-6.7 44.55)"/><path d="M400.31,1377.4l2.34-11.13H445.7l-8.38,40a78.11,78.11,0,0,1-18.51,8.32,69,69,0,0,1-20.45,3.21q-21.45,0-32-12.94-8.93-10.92-8.92-28.09a66.84,66.84,0,0,1,7.81-32.21q7.82-14.52,19.71-21.46a51.61,51.61,0,0,1,26.45-6.93,44.85,44.85,0,0,1,18.77,3.78,30.44,30.44,0,0,1,12.74,10.13q4.42,6.33,6.37,16.52L436.38,1348q-2.08-10.12-8.62-15.52t-16.79-5.4a36.84,36.84,0,0,0-19.91,5.8q-9.26,5.8-14.79,17.5a61.57,61.57,0,0,0-5.53,26.58q0,14.82,7.31,22.4t20.18,7.57q12.81,0,27.56-8.44l4.42-21.12Z" transform="translate(-6.7 44.55)"/><path d="M398.36,1424.69c-16.39,0-29-5.2-37.36-15.46-6.95-8.51-10.47-19.43-10.47-32.44a74,74,0,0,1,8.64-35.47c5.79-10.76,13.29-18.88,22.29-24.13a58.59,58.59,0,0,1,29.91-7.87,51.7,51.7,0,0,1,21.62,4.41,37.33,37.33,0,0,1,15.52,12.44c3.49,5,6,11.45,7.49,19.17l1.39,7.3-26.48,2.9-1.26-6.13c-1.07-5.21-3.12-9-6.26-11.61S416.21,1334,411,1334a29.79,29.79,0,0,0-16.27,4.75c-5.08,3.18-9.08,8-12.22,14.62a55,55,0,0,0-4.87,23.64c0,8,1.81,13.93,5.38,17.63s8.54,5.48,15.24,5.48c6.54,0,13.76-2,21.48-6.09l2.05-9.75H391.85l5.24-24.86h57.06l-10.71,51.15-2.47,1.56a85.87,85.87,0,0,1-20.13,9.06,76.29,76.29,0,0,1-22.48,3.52" transform="translate(-6.7 44.55)"/><path d="M428.38,1416.15l55.71-98.29h15.49l16.23,98.29H503.07l-4.76-28.3H458.55l-15.75,28.3Zm35.8-38.42H496.7l-3.82-24.67q-2.22-14.68-2.75-24.47a178.79,178.79,0,0,1-9.79,20Z" transform="translate(-6.7 44.55)"/><path d="M523.9,1423H497.26l-4.76-28.29H462.59L446.83,1423H416.6l63.49-112h25.32Zm-48-52.14h12.84l-2.6-16.76c-.06-.45-.13-.89-.2-1.33Z" transform="translate(-6.7 44.55)"/><path d="M505.15,1417l20.58-98.29h12.74L555,1355.61q7.58,16.89,12,28.42,2.55,6.71,5.9,18.11,1.82-12.41,4.56-25.62l12.07-57.79h12.81L581.85,1417h-13l-24.4-56.79a278.51,278.51,0,0,1-10.12-26.48q-1,9.59-3.89,23.53L518,1417Z" transform="translate(-6.7 44.55)"/><path d="M572.17,1423.89h-7.85l-26.19-61-1.26-2.93-13.33,63.88H496.7l23.46-112h22.76l18.37,40.92c3.72,8.3,6.91,15.71,9.52,22.14L584,1311.87h26.83l-23.38,112H572.17Z" transform="translate(-6.7 44.55)"/><polygon points="616.38 1461.57 634.55 1374.48 602.3 1374.48 604.65 1363.29 682.02 1363.29 679.67 1374.48 647.69 1374.48 629.52 1461.57 616.38 1461.57"/><polygon points="635.11 1468.44 607.94 1468.44 626.11 1381.35 593.85 1381.35 599.08 1356.42 690.47 1356.42 685.25 1381.35 653.27 1381.35 635.11 1468.44"/><path d="M674.94,1322.44h13.14l-12.6,60.4a61.43,61.43,0,0,0-1.54,11.13,15.31,15.31,0,0,0,6.23,12.74q6.24,4.83,15.69,4.83a29.24,29.24,0,0,0,14-3.45,25.12,25.12,0,0,0,10.22-10.16q3.77-6.71,6.77-21.39l11.33-54.1H751.3l-12,57.66q-3.07,14.75-8.11,23.36a37.93,37.93,0,0,1-13.94,13.81,40.36,40.36,0,0,1-20.72,5.2,46.44,46.44,0,0,1-19.28-3.69,27,27,0,0,1-12.2-10.19,27.33,27.33,0,0,1-4-14.75q0-5.16,2.74-17.77Z" transform="translate(-6.7 44.55)"/><path d="M696.53,1429.33a53.44,53.44,0,0,1-22.11-4.29,33.82,33.82,0,0,1-15.19-12.82,34.17,34.17,0,0,1-5.1-18.38c0-4,1-10.26,2.91-19.23l12.32-59h27.17l-14.33,68.68a54.24,54.24,0,0,0-1.4,9.72,8.5,8.5,0,0,0,3.57,7.31c3,2.29,6.71,3.39,11.49,3.39a22.28,22.28,0,0,0,10.75-2.64,18.27,18.27,0,0,0,7.46-7.45c1.48-2.64,3.72-8.15,6-19.42l12.48-59.59h27.16L746,1381.5c-2.23,10.66-5.15,19-8.91,25.42a44.83,44.83,0,0,1-16.42,16.28,47.3,47.3,0,0,1-24.17,6.13" transform="translate(-6.7 44.55)"/><path d="M723,1421.6l55.71-98.29h15.49l16.22,98.29H797.67l-4.76-28.3H753.16l-15.76,28.3Zm35.8-38.42H791.3l-3.82-24.67q-2.21-14.68-2.75-24.47a176.78,176.78,0,0,1-9.78,20Z" transform="translate(-6.7 44.55)"/><path d="M818.5,1428.46H791.87l-4.76-28.29H757.19l-15.75,28.29H711.2l63.5-112H800Zm-48-52.15h12.84l-2.59-16.75c-.07-.45-.14-.9-.2-1.34Z" transform="translate(-6.7 44.55)"/></g></g><circle class="cls-17" cx="189.28" cy="360.34" r="23.06"/><circle class="cls-18" cx="189.78" cy="360.34" r="34.61"/><path class="cls-18" d="M194.45,338.74h0a40.34,40.34,0,0,0,40.33,39.36h813.51a40.35,40.35,0,0,1,40.34,40l5.18,627.12a40.35,40.35,0,0,1-40,40.67l-879.55,6.58a40.34,40.34,0,0,0-40,41l1.34,88.76" transform="translate(-6.7 44.55)"/><circle class="cls-17" cx="128.85" cy="1281.43" r="23.06"/><circle class="cls-18" cx="129.35" cy="1281.43" r="34.61"/><g id="Layer_1-2" data-name="Layer 1"><path class="cls-19" d="M447.23,753.15c-1.73-55.87-2.17-98.3.52-148.06.34-6.14-5.2-30.94-8.16-36.33-3.37-6.14-7.43-12.08-12.92-16.4a218.16,218.16,0,0,0-27.21-18.14c-9.64-5.48-31.4-10.82-34.53-18.49-6.18-15.13-6.44-30.27-5.79-46.59-21.54,3.66-40.08,1.3-61.9,0,3.66,9.11,1.66,36.65.44,43-1.54,7.91-26.14,13.49-37.19,19.95-11.58,6.8-23.53,13.9-31.28,24.87-10.64,15-14.24,47.83-14,66.23.92,56.64,1.87,87.92-1.74,144.78,10.18.93,124.2-4.18,124.2-4.18s106-10,109.53-10.61" transform="translate(-6.7 44.55)"/><path class="cls-20" d="M317.12,479.07c-5.92,23.79,1.67,109.15,6.47,153.47,2.54,23.43-7.56,24.56-10.74,25.4-5.55,1.54-13.69.32-19.4,1.11-6.91,1-10.95,2.67-16.39,7.06-5.92,4.79-7.67,15.24-8.44,22.82a14.32,14.32,0,0,1,15.49,2.8c-.27-3.84,0-10.93,3.47-12.56A9.87,9.87,0,0,1,298.32,681c1.69,1.66,2.74,3.91,4.55,5.37,3,2.5,7.37,1.48,11.2,2.23,17.17,3.35,22.53,3.54,27.23,2.51,8.94-2,15.63-2.9,23.1-8.16,8.2-5.77,15.1-16.19,17.47-25.93a126.07,126.07,0,0,0,3.95-29.86c0-7-4.33-16-8.82-21.28-6-7.08-19.74-10-26.4-3.53-2.24,2.18-2.56,4.61-5.64,5.08-2.92.46-3.45,0-4.79-2.64S336,593,336,593c-1-21.64-1.21-101.26-2.3-112.19C333.15,474.12,318.23,474.6,317.12,479.07Z" transform="translate(-6.7 44.55)"/><path class="cls-21" d="M273.77,406.62c2.85,39.91,6.38,46.25,9.16,50.81,8.89,14.58,28,24.18,45.05,24.41,21.23.28,42.12-11.9,50.55-31.38,5.23-12.11,1.79-3.28,5.91-55.25,1.9-24,4.23-72.9-57.79-67.12C268.9,333.47,271.61,376.38,273.77,406.62Z" transform="translate(-6.7 44.55)"/><path class="cls-22" d="M269.58,722.09c-7.13,14.33-8.83,30.73-8.93,46.73,0,4.73.09,9.57,1.76,14,3.14,8.31,1.37,11.76,10.24,11.15,6.36-.44,23.39-1.48,29.53.26,4.08,1.15,7.2,4.35,10.82,6.55s8.76,3.25,11.81.3c.65-.65,1.17-1.44,1.88-2,1.75-1.46,4.27-1.42,6.53-1.74,10.22-1.44,17.23-11.29,27-14.58,5.38-1.79,11.51-1.53,16.4-4.36,7.91-4.61,15.2-12.2,14.7-21.31-.45-8.17-7.54-19.28-10.16-27-.69-2-1.54-4.19-3.35-5.37a10.55,10.55,0,0,0-5.12-1.36c-5.74-.52-11.51-1-17.25-.47-4.9.5-6.34-2.62-11.23-2-5.11.61-8.44-3.38-13.58-3.58-18.79-.73-42.74,6.4-61.48,4.85" transform="translate(-6.7 44.55)"/><path class="cls-23" d="M284.8,734.73c1.95,4.33,8.53,3.95,12.49,4.31a213,213,0,0,0,22.46.85c7.4-.12,14.52-.53,21.74,1.53,5.28,1.48,10.46,3.24,15.67.63,1.32-.66.16-2.65-1.16-2-5.76,2.88-12-.71-17.77-1.84-5.14-1-10.39-.77-15.59-.67-6,.15-11.92.1-17.88-.23-2.75-.15-5.48-.36-8.22-.62s-8.32.07-9.75-3.11c-.61-1.34-2.59-.17-2,1.17Z" transform="translate(-6.7 44.55)"/><path class="cls-23" d="M361.19,733.29c3.3,1.53,8,2.19,10.1,5.42,3.45,5.18-4.6,7.21-7.82,8.44a109.49,109.49,0,0,1-10.45,3.5c-3.94,1-6.8.13-10.6-.89a28.65,28.65,0,0,0-17.55,1,16.12,16.12,0,0,1-5,1.39c-2.14,0-3.88-1.16-5.88-1.68a16.5,16.5,0,0,0-8.14.12c-1.44.34-.83,2.57.61,2.22a14.34,14.34,0,0,1,8.13.26c1.81.57,3.34,1.42,5.28,1.39,4.1-.08,7.86-2.62,11.93-3.16,5-.68,9.14.67,13.88,1.84,3.68.9,6.95.07,10.47-1,4.23-1.33,8.44-2.83,12.53-4.51,2.24-.92,4.78-1.94,5.62-4.44,2.41-7.25-7.49-9.72-11.93-11.82-1.33-.63-2.5,1.35-1.16,2Z" transform="translate(-6.7 44.55)"/><path class="cls-23" d="M297.29,743.74c-2.92,1-6,1.93-8.81,3.16-1.47.64-2.3,1.06-2.93,2.61-1.53,3.64-.61,7.67,2.92,9.54,2.43,1.3,5.3,1.39,7.67,2.84,2,1.23,3.51,3.07,5.84,3.73,2.94.84,6.09.13,9.09.89a21,21,0,0,1,9.16,5.14c1.08,1,2.72-.62,1.63-1.63a23.47,23.47,0,0,0-9-5.37c-4.65-1.47-9.51-.16-13.55-3.19a17.37,17.37,0,0,0-4.24-2.63c-1.65-.65-3.49-.77-5.08-1.62-4.72-2.41-2.87-7.38,1-8.75l6.91-2.48c1.38-.5.76-2.72-.62-2.23Z" transform="translate(-6.7 44.55)"/><path class="cls-23" d="M331.76,759.54a18.45,18.45,0,0,1,7.55,4.16,9.94,9.94,0,0,0,4.68,2.48c2.36.46,4.75,0,7.1.58a13,13,0,0,1,6.76,4.46c1,1.13,2.59-.51,1.63-1.64A15.44,15.44,0,0,0,348,764.07a16.58,16.58,0,0,1-4.56-.36c-1.78-.63-3.07-2.31-4.51-3.37a18.12,18.12,0,0,0-6.55-3,1.15,1.15,0,0,0-.62,2.22Z" transform="translate(-6.7 44.55)"/><path class="cls-23" d="M362.6,756.77a79,79,0,0,1,13.52,2.82,1.15,1.15,0,0,0,.61-2.22,82.16,82.16,0,0,0-14.16-2.9c-1.46-.18-1.45,2.12,0,2.3Z" transform="translate(-6.7 44.55)"/><path class="cls-23" d="M282,773.23a15.74,15.74,0,0,0,9,6.61c4.38,1.15,8.84-.07,13.26-.1a12.89,12.89,0,0,1,8.44,3.06,14.23,14.23,0,0,0,4.61,2.71c4.65,1.35,9.62-.76,14.28-.91,1.47-.05,1.48-2.35,0-2.3-4.41.14-9.35,2.3-13.67,1-3.69-1.13-5.92-4.61-9.82-5.5-3.55-.77-7.16,0-10.74.18-5.47.32-10.23-1.21-13.43-5.89-.83-1.22-2.83-.07-2,1.16Z" transform="translate(-6.7 44.55)"/><path class="cls-23" d="M277.9,791.82a30.48,30.48,0,0,0,9.44-1.23c2-.56,4.24-1.58,6.39-1.46,2.58.14,4.13,1.72,6.14,3,5.29,3.41,11.27,3.3,17.35,2.87,1.47-.1,1.48-2.4,0-2.3-3.6.25-7.32.56-10.89-.25-3.77-.86-6-3.55-9.48-4.94-2.53-1-4.94-.61-7.5.08-3.84,1-7.39,2.09-11.44,1.93-1.48-.06-1.48,2.24,0,2.3Z" transform="translate(-6.7 44.55)"/><path class="cls-24" d="M266.69,797.15c-11.63,1-23.33-7.55-25.91-18.93a48.8,48.8,0,0,1-.87-9.65l-.3-12.87c-.11-4.72.12-10.17,3.87-13-2.42-3.84-4.89-8.76-2.52-12.62a37.21,37.21,0,0,1,3.14-3.53c6.35-7.67-1.95-19.83,1.85-29,1.85-4.48,6.37-7.42,11.07-8.61s9.64-.89,14.48-.58c5.58.36,12.45,1.69,14,7.06a27.29,27.29,0,0,1,32.23-1c1.58-4.2,6.61-5.72,11-6.69,7.91-1.77,17-3.27,23.4,1.73,3.07-1.78,6.29-3.59,9.84-4s7.53,1.11,9,4.36c6.57-5,17.65-1.46,20.15,6.38.41,1.28.66,2.69,1.61,3.65a8,8,0,0,0,3.34,1.61c5.13,1.94,8.4,7.2,9.46,12.58s.27,10.92-.51,16.35c8.87,5,10.86,18.94,3.78,26.29A19.6,19.6,0,0,1,391.47,789,13.55,13.55,0,0,1,374,803.21a37.64,37.64,0,0,1-28.45,19.14,4.45,4.45,0,0,0-3.07,1.12c-.72.87-.56,2.25-.58,3.43-.05,3.53-2.18,6.62-3.76,9.77a34.3,34.3,0,0,0-3.32,19.8l-9.21-2.39a8.84,8.84,0,0,1-3.07-1.25,8.09,8.09,0,0,1-1.68-1.91,48,48,0,0,1-2-50.18c1-1.64,2.18-3.36,4-3.77s4.1,1.48,3.28,3.18c-.77-3.95,2-7.9,5.55-9.84s7.67-2.3,11.69-2.67a14.31,14.31,0,0,1,22.67-8.17c2.81-4.53,5.75-9.21,10.17-12.16s10.74-3.76,14.91-.4c-.15-5.38-3-10.31-5.19-15.27s-3.67-10.85-1.14-15.64a21.44,21.44,0,0,1-9.57-14.21A17.22,17.22,0,0,1,354,724.14c-7,5.22-17.94,4.08-23.73-2.46-1.31,4.69-6.9,7.08-11.75,6.44s-9-3.52-13-6.3c-1.92,4.65-8.51,4.35-13.42,3.24L276,721.44c2.19,4.33,4.42,8.81,4.77,13.65s-1.67,10.2-6.05,12.28a15.48,15.48,0,0,1-6.54,18.91,19.41,19.41,0,0,1-2.3,31.31" transform="translate(-6.7 44.55)"/><path class="cls-25" d="M266.69,796c-10.79.66-21.6-6.42-24.56-17-1.67-6-1.16-12.79-1.3-19-.13-5.49-1.17-12.48,3.43-16.5a1.17,1.17,0,0,0,.18-1.4,22.82,22.82,0,0,1-2.92-6c-.89-3.35.47-5.45,2.57-7.85a13,13,0,0,0,3.39-6.67c1-6-1.44-12-1.45-18,0-9.82,8.7-14,17.43-14.32,6.13-.2,18.32-.77,20.91,6.46a1.17,1.17,0,0,0,1.46.77,1.1,1.1,0,0,0,.46-.26,26.33,26.33,0,0,1,30.82-.86,1.15,1.15,0,0,0,1.57-.42c2.46-5.37,9.75-6.21,14.93-7.1,6.14-1,12.59-1.28,17.89,2.57a1.22,1.22,0,0,0,1.17,0c5-2.87,13.5-7,17.25,0a1.15,1.15,0,0,0,1.57.41,12.41,12.41,0,0,1,13.34-.34,11.37,11.37,0,0,1,5.12,6c.62,1.63.85,3.24,2.31,4.43s3.52,1.49,5.15,2.47a14.59,14.59,0,0,1,5.7,6.9c2.73,6.23,1.71,13.28.77,19.8a1.2,1.2,0,0,0,.53,1.3c8.24,5,10,17.3,3.55,24.49a1.19,1.19,0,0,0,0,1.63c5,6,6.1,15,1.91,21.8a19.15,19.15,0,0,1-18.42,8.65,1.16,1.16,0,0,0-1.15,1.15,12.55,12.55,0,0,1-16,13,1.17,1.17,0,0,0-1.29.53A37.11,37.11,0,0,1,359,816.75a36.17,36.17,0,0,1-9.3,3.71c-2.24.54-5.51.29-7.42,1.72-1.69,1.26-1.41,2.81-1.54,4.74-.35,3.9-2.62,7-4.2,10.42a36.1,36.1,0,0,0-2.88,19.18l1.46-1.11A88.2,88.2,0,0,1,326,853c-3.34-1.25-4.94-3.69-6.53-6.63a45.81,45.81,0,0,1-5-15.26A47.69,47.69,0,0,1,315,814.2a46.22,46.22,0,0,1,2-6.74,40,40,0,0,1,1.79-4c.35-.7.73-1.38,1.12-2.07q1.24-2.88,5.21-1.46l2.26.3c-1-9,9.46-10.74,16.12-11.37a1.18,1.18,0,0,0,1.1-.84,13.39,13.39,0,0,1,21-7.48,1.18,1.18,0,0,0,1.58-.42c4.61-7.44,13.58-19.3,23.5-12.15a1.16,1.16,0,0,0,1.58-.43,1.09,1.09,0,0,0,.15-.56c-.67-10.09-11.12-20.16-6.48-30.32a1.2,1.2,0,0,0-.41-1.58,21,21,0,0,1-9.05-13.52,1.17,1.17,0,0,0-1.93-.51,16.24,16.24,0,0,1-19.88,2.17,1.17,1.17,0,0,0-1.17,0,17.26,17.26,0,0,1-22.33-2.3,1.18,1.18,0,0,0-1.65,0,1.27,1.27,0,0,0-.27.48c-3.79,10.84-17.18,3.56-23.1-.55a1.15,1.15,0,0,0-1.53.41c-2.24,4.41-8.12,3.55-12.13,2.72-5.37-1.11-10.74-2.41-16.11-3.62a1.16,1.16,0,0,0-1.3,1.69c3.66,7.25,8.58,19.14-.86,24.39a1.15,1.15,0,0,0-.52,1.29,14.49,14.49,0,0,1-6,17.65,1.16,1.16,0,0,0-.39,1.59,1.12,1.12,0,0,0,.16.22,18.54,18.54,0,0,1,1.76,26.18,18.2,18.2,0,0,1-3.83,3.33c-1.23.81-.08,2.81,1.16,2a20.87,20.87,0,0,0,6.21-28.85,20.58,20.58,0,0,0-3.67-4.28l-.23,1.81a16.79,16.79,0,0,0,7.07-20.2l-.53,1.29c10.69-5.94,5.93-19.11,1.68-27.54l-1.45,1.62c6.63,1.49,13.49,3.75,20.29,4.28,4.12.31,8.49-.45,10.52-4.44l-1.58.42c4.88,3.39,10.47,7.16,16.72,6.46,4.45-.49,8.27-3,9.76-7.29l-1.92.51c6.38,6.74,15.24,7.21,23.36,3.78,2.1-.89,3.45.53,5.65,1.09a18.71,18.71,0,0,0,6.58.47,18.44,18.44,0,0,0,11-5.22l-1.93-.52A23.4,23.4,0,0,0,384.22,737l-.43-1.61c-5.13,11.23,5.44,20.61,6.14,31.46l1.73-1c-11.05-8-21.37,4.5-26.65,13l1.54-.41a15.7,15.7,0,0,0-21.9,3.59,15.51,15.51,0,0,0-2.46,5.27l1.11-.84c-7.86.69-19.52,3.32-18.42,13.66.12,1.18,2,1.7,2.26.31a3.75,3.75,0,0,0-2.76-4.53l-.38-.08c-2.69-.47-4.68,1.82-6,3.84-4.18,6.55-6.2,14.63-6.55,22.32a49.58,49.58,0,0,0,4.2,22.34c1.39,3.12,3.22,7.45,6.14,9.5,3.29,2.3,8.74,2.76,12.58,3.75a1.17,1.17,0,0,0,1.42-.82,1,1,0,0,0,0-.29,35.87,35.87,0,0,1,4.27-21.32,21.53,21.53,0,0,0,2.72-7.09c.36-2.8.44-4.22,3.72-4.71,1.05-.15,2.09-.34,3.13-.57a39.21,39.21,0,0,0,25.25-19l-1.3.53A14.91,14.91,0,0,0,392.58,789l-1.15,1.15a21.39,21.39,0,0,0,21-10.74c4.11-7.68,2.65-17.11-2.81-23.65v1.62c7.49-8.29,5.52-22.25-4-28.11l.52,1.31c1-6.82,2-14.07-.59-20.66a18.43,18.43,0,0,0-4.55-6.82c-2.24-2-6.83-3-8.16-5.54-1.11-2.14-1.43-4.26-3.07-6.14a14.87,14.87,0,0,0-5.59-3.94,14.42,14.42,0,0,0-13.76,1.27l1.57.41c-2-3.75-6.14-5.37-10.29-4.89a17.44,17.44,0,0,0-5.09,1.45c-1,.42-2.84,1.9-3.83,2-2.14.13-5.14-2.1-7.42-2.51-5.57-1-11.43.08-16.89,1.33-4.6,1.05-9.55,2.59-11.68,7.22l1.58-.42a28.67,28.67,0,0,0-33.61,1.22l1.92.51c-2.52-7-10.88-7.68-17.29-8-8.56-.46-19.32.33-23.9,8.89-3.95,7.4.34,15.68,0,23.42a10.88,10.88,0,0,1-2.93,7.28c-1.24,1.39-2.5,2.43-3.17,4.25-1.58,4.27,1,8.87,3.16,12.41l.19-1.39c-4.61,4-4.29,10.38-4.16,16,.17,7.38-.62,15.68,1.75,22.79a26.57,26.57,0,0,0,26.43,17.65c1.46-.1,1.48-2.4,0-2.31Z" transform="translate(-6.7 44.55)"/><path class="cls-25" d="M257.6,772.77a49.43,49.43,0,0,0-.77-9.79,38.79,38.79,0,0,1,.43-13.42c1.39-7.56,1.7-15.26,2-22.93.06-1.48-2.24-1.48-2.3,0a166,166,0,0,1-2.44,25c-1.34,7.22,1.2,14,.81,21.17-.09,1.47,2.22,1.47,2.3,0Z" transform="translate(-6.7 44.55)"/><path class="cls-25" d="M271.63,705.86c3.83-5.48,11-.06,15.25,1.77A23.27,23.27,0,0,0,299,709.29c1.45-.17,1.47-2.48,0-2.3a21.69,21.69,0,0,1-12.14-1.9c-2.5-1.19-4.85-2.79-7.57-3.46-3.64-.92-7.4-.1-9.62,3.07-.85,1.22,1.14,2.37,2,1.16Z" transform="translate(-6.7 44.55)"/><path class="cls-25" d="M332,709c6.14,1.85,12.21.48,18.31-.87,7.67-1.71,15.3-2.53,23.11-1.5,1.46.19,1.45-2.11,0-2.3a62.31,62.31,0,0,0-19.65.73c-7,1.3-14,3.83-21.16,1.72A1.15,1.15,0,0,0,332,709Z" transform="translate(-6.7 44.55)"/><path class="cls-25" d="M385.45,714.48c2.61,2.16,2.71,5.37,3.44,8.44a19.84,19.84,0,0,0,3.27,6.86,13.1,13.1,0,0,1,2.37,4.29c.45,2-.53,3.42-.66,5.28-.21,3.21,1.92,6.14,1.09,9.32a1.16,1.16,0,0,0,2.23.61c1-3.76-1.45-7.07-.82-10.82.54-3.19.77-5.15-1-8.06-2-3.27-3.8-5.78-4.6-9.63-.61-3.07-1.23-5.85-3.71-7.9-1.13-.94-2.77.68-1.63,1.63Z" transform="translate(-6.7 44.55)"/><path class="cls-25" d="M388.09,774.19c-3.84,2.64-8.07,5-11.51,8.17-1.45,1.32-2.2,2.9-3.46,4.35-2.49,2.86-4.61,1.54-7.68,1.91A7.7,7.7,0,0,0,362,790.1a16.15,16.15,0,0,1-6.05,2.94,12.07,12.07,0,0,0-3.84,1.23c-1.45.9-1.76,2.52-3.07,3.51-1.16.89,0,2.89,1.16,2,1.44-1.11,2.15-3,3.76-3.79s3.7-.76,5.46-1.41a13.06,13.06,0,0,0,3.13-2c2.71-2,4.79-1.29,7.84-1.64s4.15-2.38,5.78-4.6c3.07-4.31,8.78-7.15,13.11-10.15,1.2-.83.05-2.83-1.17-2Z" transform="translate(-6.7 44.55)"/></g><g id="Layer_3" data-name="Layer 3"><path class="cls-26" d="M294.9,679.32l-3.07.28a2,2,0,0,1-2.19-1.54l-6.72-42.68a2.16,2.16,0,0,1,1.76-2.49l.15,0,4.8-.5a2.31,2.31,0,0,1,2.52,2.07l4.5,43a1.81,1.81,0,0,1-1.68,1.91Z" transform="translate(-6.7 44.55)"/><path class="cls-27" d="M286.91,682.55l-3.07.14a2,2,0,0,1-2.12-1.6l-5.37-42a2.08,2.08,0,0,1,1.77-2.35h.19l4.77-.25a2.3,2.3,0,0,1,2.43,2.13l3.18,42.21a1.76,1.76,0,0,1-1.76,1.74Z" transform="translate(-6.7 44.55)"/><path class="cls-26" d="M282.35,685.5l-3,.32a2,2,0,0,1-2.23-1.44L268,643.62a2,2,0,0,1,1.45-2.39l.26-.05,4.66-.57a2.36,2.36,0,0,1,2.57,1.93l7,41.12a1.64,1.64,0,0,1-1.43,1.83Z" transform="translate(-6.7 44.55)"/><path class="cls-26" d="M301.88,679.32l3.07.28a2,2,0,0,0,2.19-1.54l6.71-42.68a2.15,2.15,0,0,0-1.76-2.49l-.14,0-4.8-.5a2.31,2.31,0,0,0-2.52,2.07l-4.5,43a1.8,1.8,0,0,0,1.69,1.91Z" transform="translate(-6.7 44.55)"/><path class="cls-27" d="M309.86,682.55l3.07.14a2,2,0,0,0,2.12-1.6l5.37-42a2.06,2.06,0,0,0-1.75-2.34l-.21,0-4.77-.25a2.3,2.3,0,0,0-2.43,2.13l-3.18,42.21a1.76,1.76,0,0,0,1.76,1.74Z" transform="translate(-6.7 44.55)"/><path class="cls-26" d="M314.42,685.5l3,.32a2.06,2.06,0,0,0,2.24-1.44l9.15-40.76a2,2,0,0,0-1.45-2.39l-.25-.05-4.66-.57a2.37,2.37,0,0,0-2.58,1.93l-7,41.12a1.64,1.64,0,0,0,1.45,1.83Z" transform="translate(-6.7 44.55)"/><path class="cls-27" d="M299.44,683.92h-3.07a1.86,1.86,0,0,1-2-1.67l-1.17-41.78a2.17,2.17,0,0,1,2.11-2.23h4.85a2.19,2.19,0,0,1,2.2,2.17v.06l-1,41.78A1.84,1.84,0,0,1,299.44,683.92Z" transform="translate(-6.7 44.55)"/><path class="cls-26" d="M299.57,687.77l-2.8,1.06a2.06,2.06,0,0,1-2.54-.84L275,650.66a2,2,0,0,1,.77-2.67l.26-.12,4.36-1.67a2.4,2.4,0,0,1,3,1.24l17.3,38.18a1.64,1.64,0,0,1-.95,2.11Z" transform="translate(-6.7 44.55)"/><path class="cls-27" d="M299.6,694.44l-3,.12a1.93,1.93,0,0,1-2.08-1.54L290,651.86a2.06,2.06,0,0,1,1.83-2.29l.16,0,4.72-.23a2.25,2.25,0,0,1,2.35,2.1l2.35,41.27a1.75,1.75,0,0,1-1.76,1.75Z" transform="translate(-6.7 44.55)"/><path class="cls-27" d="M312.65,687.54l2.94.12a1.92,1.92,0,0,0,2.05-1.48L323,647.44a1.89,1.89,0,0,0-1.62-2.13,1,1,0,0,0-.25,0l-4.6-.22a2.21,2.21,0,0,0-2.3,2L311,685.9a1.63,1.63,0,0,0,1.62,1.64Z" transform="translate(-6.7 44.55)"/><path class="cls-26" d="M301.34,693.81l3.19.47a2,2,0,0,0,2.3-1.54l7.5-40.29a1.92,1.92,0,0,0-1.62-2.18h-.08l-4.35-.63a2,2,0,0,0-2.35,1.6l-6.34,40.46a1.91,1.91,0,0,0,1.68,2.12Z" transform="translate(-6.7 44.55)"/><path class="cls-28" d="M313.25,657.23a1.52,1.52,0,0,0-1.44.91,14.86,14.86,0,0,1-26.85,0,1.52,1.52,0,0,0-1.44-.91H269.46a1.45,1.45,0,0,0-1.55,1.35,1.51,1.51,0,0,0,0,.3l8.63,46a1.53,1.53,0,0,0,1.53,1.17h40.67a1.54,1.54,0,0,0,1.54-1.17l8.62-46a1.45,1.45,0,0,0-1.23-1.64,1,1,0,0,0-.3,0Z" transform="translate(-6.7 44.55)"/><path class="cls-29" d="M324.84,680.25H271.9l1.67,8.94h49.6Z" transform="translate(-6.7 44.55)"/><path class="cls-30" d="M311,684.94c0,6.41-5.65,11.6-12.6,11.6s-12.61-5.19-12.61-11.6,5.65-11.6,12.6-11.6S311,678.54,311,684.94Z" transform="translate(-6.7 44.55)"/><path class="cls-31" d="M316.45,773.1l.45-.2a8.51,8.51,0,0,1-3.15-6.52c0-4.77,4.1-8.67,9.21-8.84s9.53,3.69,9.69,8.53v5.31a2.71,2.71,0,0,0,5.37,0v-5a2.71,2.71,0,0,0,5.41,0v-5.07L361,753.72c0-20.42-17.06-37.34-38.95-38.61l-7-.42-6.13,13.89h.76c5.23,0,9.47,3.94,9.48,8.81s-4.23,8.81-9.45,8.82a9.76,9.76,0,0,1-7.22-3.07l-4.42,10a8.65,8.65,0,0,1,5.67,11.28c-1.78,4.57-7.21,6.9-12.11,5.27-.26-.09-.52-.19-.77-.3l-8.2,18.42,23-10" transform="translate(-6.7 44.55)"/><path class="cls-32" d="M361.1,753.72c0-20.42-17.06-37.34-39-38.61l-7-.42-4.32,9.73c20.19,0,37.9,15.24,40.53,33.49Z" transform="translate(-6.7 44.55)"/><path class="cls-33" d="M323.21,757.51c-5.22,0-9.45,3.92-9.46,8.79a8.55,8.55,0,0,0,3.15,6.57L332.66,766C332.49,761.29,328.31,757.51,323.21,757.51Z" transform="translate(-6.7 44.55)"/><path class="cls-33" d="M309.69,746.17c5.22,0,9.46-3.94,9.46-8.81s-4.24-8.81-9.46-8.81h-.77L302.49,743A9.73,9.73,0,0,0,309.69,746.17Z" transform="translate(-6.7 44.55)"/><path class="cls-33" d="M304.29,761.28a8.86,8.86,0,0,0-6.21-8.26l-7.22,16.24A9.74,9.74,0,0,0,303.4,765,8.38,8.38,0,0,0,304.29,761.28Z" transform="translate(-6.7 44.55)"/><path class="cls-34" d="M317.2,751.34l2.7-1.26,1.21,2.25-2.7,1.26Z" transform="translate(-6.7 44.55)"/><path class="cls-34" d="M329.36,751.08l1.21-2.25,2.7,1.25-1.21,2.3Z" transform="translate(-6.7 44.55)"/><path class="cls-34" d="M323.35,734.28l1.35-2.52,2.41,1.13-1.35,2.52Z" transform="translate(-6.7 44.55)"/><path class="cls-34" d="M336.12,738.75l2.7-1.27,1.21,2.26-2.7,1.26Z" transform="translate(-6.7 44.55)"/><path class="cls-34" d="M296.18,777.65h2.7v2.52h-2.7Z" transform="translate(-6.7 44.55)"/><path class="cls-34" d="M288.06,776.38h2.71v2.53h-2.71Z" transform="translate(-6.7 44.55)"/><path class="cls-34" d="M306.38,768.7l1.21-2.26,2.7,1.26-1.2,2.26Z" transform="translate(-6.7 44.55)"/><path class="cls-34" d="M334.77,758.89l2.7-1.25,1.21,2.24-2.7,1.27Z" transform="translate(-6.7 44.55)"/><path class="cls-34" d="M343.62,748.12,345,745.6l2.42,1.13-1.35,2.52Z" transform="translate(-6.7 44.55)"/><ellipse class="cls-32" cx="319.21" cy="788.21" rx="2.7" ry="2.52"/><ellipse class="cls-32" cx="304.35" cy="799.54" rx="2.7" ry="2.52"/><ellipse class="cls-32" cx="334.08" cy="798.28" rx="2.7" ry="2.52"/><ellipse class="cls-32" cx="296.24" cy="818.42" rx="2.7" ry="2.52"/><path class="cls-31" d="M305.64,777.65v7.55a2.71,2.71,0,0,0,5.37,0v-6.29a2.71,2.71,0,0,0,5.37,0v-6.3" transform="translate(-6.7 44.55)"/><path class="cls-35" d="M386.65,668.56V667.1H346.31v1.48c-1.05,3.68-6.13,5.29-6.13,13.76v21.59c0,9,7.05,16.36,15.75,16.36H377c8.7,0,15.76-7.32,15.76-16.36V682.34C392.77,673.86,387.69,672.27,386.65,668.56Z" transform="translate(-6.7 44.55)"/><path class="cls-8" d="M368.61,681.73H392a.84.84,0,0,1,.82.82v22.7a1.53,1.53,0,0,1-1.49,1.53H368.61" transform="translate(-6.7 44.55)"/><path class="cls-36" d="M391.28,699.36H378.42V689.15H392a.83.83,0,0,1,.81.84h0v7.82A1.53,1.53,0,0,1,391.28,699.36Z" transform="translate(-6.7 44.55)"/><path class="cls-37" d="M388.34,667H344.6a3.06,3.06,0,0,1-3-3.07v-7.09a3.07,3.07,0,0,1,3-3.07h43.74a3.08,3.08,0,0,1,3,3.07v7.09A3.07,3.07,0,0,1,388.34,667Z" transform="translate(-6.7 44.55)"/></g><g class="cls-38"><g class="cls-38"><path class="cls-39" d="M878.32,1246.33q9.79,6.42,19.58,12.84,14.16,9.32,28.31,18.67t28.32,18.64c3.89,2.56,7.76,5.17,11.63,7.76l-22,33.32c-5.61,8.49-11.18,17-16.81,25.47A52.3,52.3,0,0,1,833,1322c1.62-7.25,5.13-13.58,9.17-19.7q17.48-26.46,34.87-53a6.81,6.81,0,0,0,1.28-2.94" transform="translate(-6.7 44.55)"/></g><g class="cls-38"><path class="cls-40" d="M878.32,1246.33c-2.27-.82-1.58-2-.59-3.49q16.6-25.14,33.12-50.32c4.25-6.5,8.49-13,14.65-17.89,14-11.23,29.89-15.36,47.41-11.34a55,55,0,0,1,42.15,64.55c-1.68,8.76-5.83,16.35-10.72,23.69-11.5,17.23-22.83,34.56-34.21,51.87-1.08,1.65-2.17,2.79-4,.84-3.87-2.59-7.74-5.2-11.63-7.76q-14.14-9.33-28.32-18.64t-28.31-18.67q-9.78-6.43-19.58-12.84" transform="translate(-6.7 44.55)"/></g></g><text class="cls-41" transform="translate(271.87 1526.79)"><tspan class="cls-42">A</tspan><tspan x="20.67" y="0" xml:space="preserve"> geneticall</tspan><tspan class="cls-43" x="191.86" y="0">y</tspan><tspan x="208.2" y="0" xml:space="preserve"> engin</tspan><tspan class="cls-44" x="309.81" y="0">e</tspan><tspan x="328.7" y="0">ered </tspan><tspan x="128.23" y="45.6">probioti</tspan><tspan class="cls-45" x="256.21" y="45.6">c</tspan></text><path class="cls-15" d="M794.59,791.75c-31.45,37.42-84.15,55.55-131.92,45.39-8.13,52.78-50.27,98.66-102.1,111.15,21.55,17.85,33.68,45.49,36.23,73.39s-3.78,56-14.24,82c26.45-17.1,59.18-25.49,90.07-19.42s59.15,27.7,69.79,57.37c10.84-30.49,44.79-49,77.08-47.55s62.06,19.79,83.5,44c-2.06-96.25,70.59-100.89,89.94-83-9.21-23.56-28.17-25.33-30.63-50.51-2.39-24.54,30.12-48.84,48.26-65.51a80.94,80.94,0,0,1-77-103.55c-24.82,13.69-91.75,47-139-43.82" transform="translate(-6.7 44.55)"/><path class="cls-46" d="M757.32,922.43l-27.7,0c-6.61,0-16.43-2.18-21.4,3.27-5.35,5.87-5.44,16.21-6.37,23.71A252.12,252.12,0,0,0,700,976.29c-.09,5.8,5.84,3.2,8,.49,6.81-8.62,19-11.57,28.81-6.19,10.55,5.81,12.5,18.95,12.31,29.91-.17,10.73-5.22,22.11-17.94,19.87s-19.1-15.08-23.62-25.72c-3-7-12.09,4.34-10,9.37,6,14.21,16,32.09,34.23,30.37,16.91-1.61,26.19-20.07,27.44-35.15,1.23-14.75-1-34-15.42-41.89-14.91-8.16-31.69-.3-41.38,12l8,.5c.11-6.6.46-13.17,1.16-19.73q.46-4.37,1.1-8.7c.33-2.24.33-7.33,1.53-9.26l-3.62,4.08c1.65-1,7.34,0,9.33,0h10.88l21.76,0c5.67,0,11.07-13.85,4.75-13.85Z" transform="translate(-6.7 44.55)"/><path class="cls-46" d="M823.61,923.82C807.8,909.41,788.71,929.53,783,944c-3.78,9.51-5.08,20.11-6,30.23-.93,10.31-1,20.62.9,30.83,2.87,15.48,13.84,38.42,33.41,32.68,20.51-6,25.32-31.6,28.78-49.57,4.5-23.33,4.72-48.46-8.39-69.18-3.31-5.24-11.89,6.84-8.83,11.68,8.58,13.58,10.75,29.93,9.25,45.71a187.21,187.21,0,0,1-4.19,24.2c-1.51,6.57-2.91,14.65-7.8,19.67-12,12.27-25.11-2.48-29.34-13.84-5.44-14.61-4.55-30.57-2.36-45.73,1.05-7.25,2.11-15.53,6.9-21.41,4.41-5.42,13.53-9.18,19.49-3.75,5,4.54,12.89-8,8.83-11.68Z" transform="translate(-6.7 44.55)"/><path class="cls-46" d="M923.51,934.67c-29.39,19.65-46.77,50.84-68.6,77.69-1.79,2.2-3.73,7-1.65,9.58,2.21,2.73,5.68-.27,7.19-2.12,20.22-24.88,36.29-54.7,63.51-72.9,2.88-1.92,5.24-5.8,5-9.36-.23-3-2.67-4.74-5.43-2.89Z" transform="translate(-6.7 44.55)"/><path class="cls-46" d="M871,933.17c-5,3.8-8.17,10.42-6.46,16.77,1.48,5.49,6.7,8.27,12.14,7,11.77-2.71,16.85-22.45,3.81-27.08-4.34-1.54-9.29,8.51-5.29,9.93a7.53,7.53,0,0,1,5,4.88c.21.71-.07,2.45.36,1.43.33-.79.56-.24-.1-.11-.34.07-1.09.54-1.4.64a5.77,5.77,0,0,1-5.78-1.32,5.56,5.56,0,0,1-1.35-2.81c-.32-1.4.5-1-.59-.15,2.11-1.59,3.94-4.26,3.74-7-.16-2.16-2-3.69-4.08-2.16Z" transform="translate(-6.7 44.55)"/><path class="cls-46" d="M902.69,999.11c-2.92.69-5.91,0-8.85.56-3.46.61-6,3.09-7.56,6.13-3.2,6.11-3.55,16.48,3.67,19.94,14.42,6.92,26.3-16.21,15.22-26-1.89-1.66-4.07-.14-5.39,1.59-1,1.37-3.07,5.56-1.23,7.18a9,9,0,0,1,2.92,4.23,14.34,14.34,0,0,1,.32,2.25c.13,1-.73.88.14.25a6.68,6.68,0,0,1-7.31.2,5.57,5.57,0,0,1-2.64-4.06c-.1-.76.23-1.71.12-2.42-.26-1.63-.41,1.61-1,1,.19.22,3.77-.1,4.23-.1a25,25,0,0,0,5.65-.65c4-.94,7.17-11.43,1.66-10.13Z" transform="translate(-6.7 44.55)"/><path class="cls-46" d="M666.25,925.69l-10.8,106.9c-.46,4.5,3,7.27,6.63,3.53l20-20.58c2.25-2.32,4.65-6.43,3.44-9.79s-4.4-2.13-6.52-.42a138.61,138.61,0,0,0-22.79,23.33l8,.49A37.76,37.76,0,0,0,651.81,999c-5-4.48-12.91,8.06-8.83,11.68,7.32,6.5,11.27,15.13,10.79,25-.29,5.83,5.94,3.12,8,.49a123,123,0,0,1,20.34-20.58L679,1005.33l-20,20.57,6.63,3.53,10.8-106.9c.29-2.78-.56-5.94-4-5.17-3.18.72-5.89,5.33-6.19,8.33Z" transform="translate(-6.7 44.55)"/><text class="cls-47" transform="translate(182.37 947.02)"><tspan class="cls-48">R</tspan><tspan class="cls-44" x="17.5" y="0">e</tspan><tspan class="cls-49" x="33.41" y="0">c</tspan><tspan x="47.1" y="0">entl</tspan><tspan class="cls-50" x="101.06" y="0">y</tspan><tspan class="cls-51" x="113.66" y="0">,</tspan><tspan x="117.41" y="0" xml:space="preserve"> it was dis</tspan><tspan class="cls-49" x="254.59" y="0">c</tspan><tspan class="cls-52" x="268.28" y="0">o</tspan><tspan class="cls-44" x="285.05" y="0">v</tspan><tspan x="300.12" y="0">ered </tspan><tspan x="-15.71" y="38.4">that blocking upta</tspan><tspan class="cls-52" x="234.52" y="38.4">k</tspan><tspan x="249.47" y="38.4">e </tspan><tspan class="cls-52" x="274.27" y="38.4">o</tspan><tspan x="291.04" y="38.4">f </tspan><tspan class="cls-53" x="309.79" y="38.4">L</tspan><tspan x="324.22" y="38.4">CF</tspan><tspan class="cls-54" x="359.03" y="38.4">A</tspan><tspan x="376.44" y="38.4"> </tspan><tspan class="cls-44" x="70.94" y="76.8">w</tspan><tspan x="94.11" y="76.8">ould redu</tspan><tspan class="cls-49" x="225.21" y="76.8">c</tspan><tspan x="238.91" y="76.8">e in </tspan><tspan x="17.78" y="115.2">appr</tspan><tspan class="cls-55" x="79.15" y="115.2">o</tspan><tspan x="95.53" y="115.2">xima</tspan><tspan class="cls-44" x="162.45" y="115.2">t</tspan><tspan x="172.94" y="115.2">ell</tspan><tspan class="cls-56" x="207.89" y="115.2">y</tspan><tspan x="221.65" y="115.2" xml:space="preserve"> 50% the </tspan><tspan x="49.68" y="153.6">chan</tspan><tspan class="cls-49" x="114.99" y="153.6">c</tspan><tspan x="128.69" y="153.6">es </tspan><tspan class="cls-44" x="166.96" y="153.6">t</tspan><tspan x="177.45" y="153.6">o d</tspan><tspan class="cls-57" x="220.37" y="153.6">e</tspan><tspan class="cls-44" x="235.92" y="153.6">v</tspan><tspan x="250.99" y="153.6">elop </tspan></text><g class="cls-58"><g class="cls-59"><path class="cls-60" d="M1138.62,608.16c0,116.81-157.4,211.5-351.56,211.5S435.49,725,435.49,608.16s157.4-211.49,351.57-211.49,351.56,94.69,351.56,211.49" transform="translate(-6.7 44.55)"/><polygon class="cls-61" points="545.83 587.35 560.43 576.37 563.48 579.69 545.87 599.3 545.83 587.35"/><polygon class="cls-61" points="576.01 582.68 580.65 605.95 588.88 596.72 579.88 579.69 576.01 582.68"/><polygon class="cls-61" points="647.18 609.43 625.4 595.57 626.33 592.72 653.25 606.12 647.18 609.43"/><polygon class="cls-61" points="601.42 603.62 611.92 587.66 617.34 592.98 605.48 609.6 601.42 603.62"/><polygon class="cls-61" points="661.71 605.95 674.91 582.68 680 585.34 664.75 605.95 661.71 605.95"/><polygon class="cls-61" points="689.82 582.68 709.8 600.96 701.67 605.95 686.77 585.67 689.82 582.68"/><polygon class="cls-61" points="740.62 585.67 723.72 605.13 723.01 605.95 725.04 609.27 740.62 587.67 740.62 585.67"/><polygon class="cls-61" points="754.85 587.66 768.06 604.28 773.14 597.3 756.88 582.68 754.85 587.66"/><polygon class="cls-61" points="786.35 599.63 793.46 582.68 797.86 585.34 789.4 604.28 786.35 599.63"/><polygon class="cls-61" points="813.78 585.67 828.68 601.96 833.43 597.3 817.51 582.68 813.78 585.67"/><polygon class="cls-61" points="850.36 599.63 867.63 585.34 870.01 587.67 850.36 605.95 850.36 599.63"/><polygon class="cls-61" points="876.44 587.66 883.55 616.91 888.63 613.26 880.17 587.66 876.44 587.66"/><polygon class="cls-61" points="898.79 620.57 915.73 604.28 915.73 605.95 901.84 624.56 898.79 618.58 898.79 620.57"/><polygon class="cls-61" points="931.65 609.6 951.63 620.57 957.39 614.92 936.05 605.95 931.65 609.6"/><polygon class="cls-61" points="970.26 613.26 979.07 592.32 983.47 595.64 973.31 616.91 970.26 613.26"/><polygon class="cls-61" points="997.02 573.96 1012.6 552.43 1012.6 557.05 999.33 577.03 997.02 573.96"/><polygon class="cls-61" points="1001.42 585.67 1033.94 585.34 1033.94 592.32 1001.42 589 1001.42 585.67"/><polygon class="cls-61" points="1002.1 575.03 1015.65 560.41 1017 562.07 1002.1 578.03 1002.1 575.03"/><polygon class="cls-61" points="1042.07 606.94 1045.79 624.56 1048.5 623.23 1044.1 605.95 1042.07 606.94"/><polygon class="cls-61" points="977.71 636.52 985.84 652.14 984.49 652.14 976.02 636.52 977.71 636.52"/><polygon class="cls-61" points="960.78 637.85 952.31 650.15 952.31 648.82 958.41 636.52 960.78 637.85"/><polygon class="cls-61" points="938.42 588.66 944.52 576.03 943.16 576.03 936.39 588.66 938.42 588.66"/><polygon class="cls-61" points="923.18 585.34 915.73 562.07 913.02 562.07 921.83 585.67 923.18 585.34"/><polygon class="cls-61" points="898.79 633.86 910.99 654.14 909.29 655.14 897.44 635.19 898.79 633.86"/><polygon class="cls-61" points="885.92 638.18 877.46 656.13 876.44 655.14 882.54 638.18 885.92 638.18"/><polygon class="cls-61" points="878.47 567.39 876.44 552.43 874.07 552.43 876.44 567.39 878.47 567.39"/><polygon class="cls-61" points="870.01 571.38 855.1 566.06 855.1 567.39 868.31 573.04 870.01 571.38"/><polygon class="cls-61" points="816.15 565.73 825.3 540.8 823.6 540.8 814.8 566.06 816.15 565.73"/><polygon class="cls-61" points="806.33 562.07 801.59 547.78 799.89 547.78 805.31 563.07 806.33 562.07"/><polygon class="cls-61" points="828.35 620.57 817.85 634.86 820.22 634.86 829.36 620.57 828.35 620.57"/><polygon class="cls-61" points="838.85 626.22 838.85 652.14 840.54 651.15 840.54 624.56 838.85 626.22"/><polygon class="cls-61" points="786.35 623.23 786.41 624.54 787.36 644.83 786.35 644.83 784.65 621.9 786.35 623.23"/><polygon class="cls-61" points="776.19 618.91 763.99 631.87 763.99 629.88 774.49 616.91 776.19 618.91"/><polygon class="cls-61" points="754.85 571.38 758.91 556.75 756.88 556.75 753.83 571.38 754.85 571.38"/><polygon class="cls-61" points="740.62 567.39 735.88 561.08 734.19 562.07 739.27 569.72 740.62 567.39"/><polygon class="cls-61" points="720.98 624.56 725.72 639.18 724.37 639.18 718.27 624.56 720.98 624.56"/><polygon class="cls-61" points="709.8 624.56 705.4 635.53 703.7 634.2 708.45 621.9 709.8 624.56"/><polygon class="cls-61" points="690.06 566.8 694.22 551.77 692.19 551.77 687.79 568.72 690.06 566.8"/><polygon class="cls-61" points="678.3 565.4 672.21 544.13 671.53 546.12 676.61 566.39 678.3 565.4"/><polygon class="cls-61" points="660.35 628.88 664.75 651.15 662.38 651.15 657.3 628.88 660.35 628.88"/><polygon class="cls-61" points="649.85 628.88 642.4 646.5 641.04 643.5 648.16 628.88 649.85 628.88"/><polygon class="cls-61" points="593.97 626.22 595.32 636.52 593.97 636.52 592.27 626.22 593.97 626.22"/><polygon class="cls-61" points="584.48 624.56 573.3 640.18 571.95 637.85 584.48 621.9 584.48 624.56"/><polygon class="cls-61" points="618.69 567.72 617.34 563.07 614.97 563.07 616.66 568.72 618.69 567.72"/><polygon class="cls-61" points="628.85 567.3 633.93 558.09 636.3 559.08 628.85 570.05 628.85 567.3"/><polygon class="cls-61" points="578.39 560.41 584.48 551.77 582.45 549.44 577.03 560.41 578.39 560.41"/><polygon class="cls-61" points="568.23 556.75 565.85 544.13 563.48 545.79 565.85 556.75 568.23 556.75"/><polygon class="cls-61" points="533 588.66 524.53 570.05 523.18 570.05 531.98 589.66 533 588.66"/><polygon class="cls-61" points="524.87 603.95 505.23 607.94 505.23 609.6 526.23 605.95 524.87 603.95"/><polygon class="cls-61" points="533 613.26 530.63 629.88 531.64 629.88 535.37 613.26 533 613.26"/><path class="cls-62" d="M537.33,524.5a7.46,7.46,0,1,1-7.45-7.31,7.38,7.38,0,0,1,7.45,7.31" transform="translate(-6.7 44.55)"/><path class="cls-62" d="M577.63,497.58a7.45,7.45,0,1,1-7.45-7.31,7.38,7.38,0,0,1,7.45,7.31" transform="translate(-6.7 44.55)"/><path class="cls-62" d="M600.66,502.89a7.45,7.45,0,1,1-7.45-7.31,7.38,7.38,0,0,1,7.45,7.31" transform="translate(-6.7 44.55)"/><path class="cls-62" d="M629.11,514.53a7.45,7.45,0,1,1-7.45-7.31,7.38,7.38,0,0,1,7.45,7.31" transform="translate(-6.7 44.55)"/><path class="cls-62" d="M650.45,510.21a7.45,7.45,0,1,1-7.45-7.32,7.38,7.38,0,0,1,7.45,7.32" transform="translate(-6.7 44.55)"/><path class="cls-62" d="M685,497.58a7.45,7.45,0,1,1-7.45-7.31,7.38,7.38,0,0,1,7.45,7.31" transform="translate(-6.7 44.55)"/><path class="cls-62" d="M709.39,504.89a7.46,7.46,0,1,1-7.45-7.31,7.38,7.38,0,0,1,7.45,7.31" transform="translate(-6.7 44.55)"/><path class="cls-62" d="M747.32,514.53a7.45,7.45,0,1,1-7.45-7.31,7.38,7.38,0,0,1,7.45,7.31" transform="translate(-6.7 44.55)"/><path class="cls-62" d="M773.06,510.21a7.45,7.45,0,1,1-7.45-7.32,7.38,7.38,0,0,1,7.45,7.32" transform="translate(-6.7 44.55)"/><path class="cls-62" d="M812,499.57a7.45,7.45,0,1,1-7.45-7.31,7.38,7.38,0,0,1,7.45,7.31" transform="translate(-6.7 44.55)"/><path class="cls-62" d="M837.75,492.26A7.45,7.45,0,1,1,830.3,485a7.38,7.38,0,0,1,7.45,7.31" transform="translate(-6.7 44.55)"/><path class="cls-62" d="M865.53,521.18a7.46,7.46,0,1,1-7.45-7.32,7.39,7.39,0,0,1,7.45,7.32" transform="translate(-6.7 44.55)"/><path class="cls-62" d="M888.22,504.89a7.45,7.45,0,1,1-7.45-7.31,7.38,7.38,0,0,1,7.45,7.31" transform="translate(-6.7 44.55)"/><path class="cls-62" d="M927.17,513.86a7.45,7.45,0,1,1-7.45-7.31,7.39,7.39,0,0,1,7.45,7.31" transform="translate(-6.7 44.55)"/><path class="cls-62" d="M961,528.49a7.45,7.45,0,1,1-7.45-7.32,7.38,7.38,0,0,1,7.45,7.32" transform="translate(-6.7 44.55)"/><path class="cls-62" d="M544.78,590.31a7.45,7.45,0,1,1-7.45-7.31,7.38,7.38,0,0,1,7.45,7.31" transform="translate(-6.7 44.55)"/><path class="cls-62" d="M585.08,597a7.45,7.45,0,1,1-7.45-7.32,7.38,7.38,0,0,1,7.45,7.32" transform="translate(-6.7 44.55)"/><path class="cls-62" d="M608.12,597a7.46,7.46,0,1,1-7.46-7.32,7.39,7.39,0,0,1,7.46,7.32" transform="translate(-6.7 44.55)"/><path class="cls-62" d="M653.5,604.27a7.45,7.45,0,1,1-7.45-7.31,7.38,7.38,0,0,1,7.45,7.31" transform="translate(-6.7 44.55)"/><path class="cls-62" d="M678.9,611.58a7.45,7.45,0,1,1-7.45-7.31,7.38,7.38,0,0,1,7.45,7.31" transform="translate(-6.7 44.55)"/><path class="cls-62" d="M716.84,594.63a7.45,7.45,0,1,1-7.45-7.31,7.38,7.38,0,0,1,7.45,7.31" transform="translate(-6.7 44.55)"/><path class="cls-62" d="M738.52,597a7.46,7.46,0,1,1-7.46-7.32,7.39,7.39,0,0,1,7.46,7.32" transform="translate(-6.7 44.55)"/><path class="cls-62" d="M775.43,589.64a7.45,7.45,0,1,1-7.45-7.31,7.38,7.38,0,0,1,7.45,7.31" transform="translate(-6.7 44.55)"/><path class="cls-62" d="M798.8,604.27a7.45,7.45,0,1,1-7.45-7.31,7.38,7.38,0,0,1,7.45,7.31" transform="translate(-6.7 44.55)"/><path class="cls-62" d="M830.3,594.63a7.45,7.45,0,1,1-7.45-7.31,7.38,7.38,0,0,1,7.45,7.31" transform="translate(-6.7 44.55)"/><path class="cls-62" d="M854.69,611.58a7.45,7.45,0,1,1-7.45-7.31,7.38,7.38,0,0,1,7.45,7.31" transform="translate(-6.7 44.55)"/><path class="cls-62" d="M888.22,614.9a7.45,7.45,0,1,1-7.45-7.31,7.39,7.39,0,0,1,7.45,7.31" transform="translate(-6.7 44.55)"/><path class="cls-62" d="M927.17,614.9a7.45,7.45,0,1,1-7.45-7.31,7.39,7.39,0,0,1,7.45,7.31" transform="translate(-6.7 44.55)"/><path class="cls-62" d="M962.4,607.59a7.46,7.46,0,1,1-7.45-7.31,7.38,7.38,0,0,1,7.45,7.31" transform="translate(-6.7 44.55)"/><path class="cls-62" d="M1001.68,611.58a7.45,7.45,0,1,1-7.45-7.31,7.38,7.38,0,0,1,7.45,7.31" transform="translate(-6.7 44.55)"/><path class="cls-62" d="M1062.65,584.66a7.45,7.45,0,1,1-7.45-7.31,7.38,7.38,0,0,1,7.45,7.31" transform="translate(-6.7 44.55)"/><path class="cls-62" d="M516.67,566.71a7.46,7.46,0,1,1-7.45-7.31,7.38,7.38,0,0,1,7.45,7.31" transform="translate(-6.7 44.55)"/><path class="cls-63" d="M561.38,557.4a16.94,16.94,0,1,1-16.94-16.61,16.79,16.79,0,0,1,16.94,16.61" transform="translate(-6.7 44.55)"/><path class="cls-63" d="M593.21,525.5a15.92,15.92,0,1,1-15.92-15.63,15.77,15.77,0,0,1,15.92,15.63" transform="translate(-6.7 44.55)"/><path class="cls-63" d="M615.91,568.7A16.94,16.94,0,1,1,599,552.09a16.79,16.79,0,0,1,16.94,16.61" transform="translate(-6.7 44.55)"/><path class="cls-63" d="M646.05,538.13a16.94,16.94,0,1,1-16.93-16.62,16.77,16.77,0,0,1,16.93,16.62" transform="translate(-6.7 44.55)"/><path class="cls-63" d="M678.23,572.36a17.62,17.62,0,1,1-17.62-17.28,17.45,17.45,0,0,1,17.62,17.28" transform="translate(-6.7 44.55)"/><path class="cls-63" d="M736.82,568.7a16.94,16.94,0,1,1-16.93-16.61,16.78,16.78,0,0,1,16.93,16.61" transform="translate(-6.7 44.55)"/><path class="cls-63" d="M701.94,533.47a15.25,15.25,0,1,1-15.25-15,15.11,15.11,0,0,1,15.25,15" transform="translate(-6.7 44.55)"/><path class="cls-63" d="M768,536.46a15.58,15.58,0,1,1-15.58-15.29A15.43,15.43,0,0,1,768,536.46" transform="translate(-6.7 44.55)"/><path class="cls-63" d="M804.56,565.05a16.94,16.94,0,1,1-16.93-16.62,16.78,16.78,0,0,1,16.93,16.62" transform="translate(-6.7 44.55)"/><path class="cls-63" d="M830,531.81a16.94,16.94,0,0,1-33.87,0c0-9.18,23.92-10.39,16.94-16.62-6.79-6.05,3,2.2,16.93,16.62" transform="translate(-6.7 44.55)"/><path class="cls-63" d="M912.27,585.32a16.94,16.94,0,1,1-16.94-16.62,16.78,16.78,0,0,1,16.94,16.62" transform="translate(-6.7 44.55)"/><path class="cls-63" d="M899.4,535.3A14.4,14.4,0,1,1,885,521.18a14.27,14.27,0,0,1,14.4,14.12" transform="translate(-6.7 44.55)"/><path class="cls-63" d="M950.88,556.41a18.29,18.29,0,1,1-18.29-17.95,18.12,18.12,0,0,1,18.29,17.95" transform="translate(-6.7 44.55)"/><path class="cls-63" d="M989.83,581.83a16.09,16.09,0,1,1-16.09-15.78,15.94,15.94,0,0,1,16.09,15.78" transform="translate(-6.7 44.55)"/><path class="cls-63" d="M1013.88,541.12a16.94,16.94,0,1,1-16.94-16.62,16.78,16.78,0,0,1,16.94,16.62" transform="translate(-6.7 44.55)"/><path class="cls-17" d="M1064.68,548.1a16.94,16.94,0,1,1-16.93-16.62,16.78,16.78,0,0,1,16.93,16.62" transform="translate(-6.7 44.55)"/><path class="cls-17" d="M1047.75,504.89a16.94,16.94,0,1,1-16.94-16.62,16.78,16.78,0,0,1,16.94,16.62" transform="translate(-6.7 44.55)"/><path class="cls-63" d="M865.53,566.54a18.46,18.46,0,1,1-18.46-18.11,18.29,18.29,0,0,1,18.46,18.11" transform="translate(-6.7 44.55)"/></g></g><circle class="cls-17" cx="661.33" cy="1133.01" r="23.06"/><circle class="cls-18" cx="661.84" cy="1133.01" r="34.61"/><circle class="cls-17" cx="1075.53" cy="439.54" r="23.06"/><circle class="cls-18" cx="1076.03" cy="439.54" r="34.61"/><text class="cls-47" transform="translate(464.44 695.31)"><tspan class="cls-48">R</tspan><tspan class="cls-44" x="17.5" y="0">e</tspan><tspan class="cls-49" x="33.41" y="0">c</tspan><tspan x="47.1" y="0">ent </tspan><tspan class="cls-49" x="100.26" y="0">e</tspan><tspan x="115.78" y="0">xperimental </tspan><tspan class="cls-64" x="289.63" y="0">e</tspan><tspan x="305.18" y="0">viden</tspan><tspan class="cls-65" x="380.16" y="0">c</tspan><tspan x="393.85" y="0">es indica</tspan><tspan class="cls-44" x="514.3" y="0">t</tspan><tspan x="524.79" y="0">e that </tspan><tspan x="10.3" y="38.4">metastasis d</tspan><tspan class="cls-57" x="180.73" y="38.4">e</tspan><tspan class="cls-44" x="196.29" y="38.4">v</tspan><tspan x="211.36" y="38.4">elopment </tspan><tspan class="cls-65" x="350.56" y="38.4">c</tspan><tspan x="364.25" y="38.4">orrela</tspan><tspan class="cls-44" x="444.63" y="38.4">t</tspan><tspan x="455.13" y="38.4">es dir</tspan><tspan class="cls-44" x="530.07" y="38.4">e</tspan><tspan x="545.98" y="38.4">ctl</tspan><tspan class="cls-66" x="580.6" y="38.4">y</tspan><tspan class="cls-67" x="594.36" y="38.4"> </tspan><tspan x="36.99" y="76.8">on </tspan><tspan class="cls-68" x="80.19" y="76.8">dietar</tspan><tspan class="cls-69" x="160.57" y="76.8">y</tspan><tspan class="cls-68" x="174.72" y="76.8" xml:space="preserve"> long chain fa</tspan><tspan class="cls-70" x="359.54" y="76.8">t</tspan><tspan class="cls-71" x="370.49" y="76.8">t</tspan><tspan class="cls-72" x="380.92" y="76.8">y</tspan><tspan class="cls-68" x="395.06" y="76.8" xml:space="preserve"> acids (</tspan><tspan class="cls-73" x="490.81" y="76.8">L</tspan><tspan class="cls-74" x="504.28" y="76.8">CF</tspan><tspan class="cls-75" x="538.42" y="76.8">A</tspan><tspan class="cls-68" x="557.24" y="76.8">)</tspan><tspan x="567.67" y="76.8"> </tspan><tspan x="81.09" y="115.2">inta</tspan><tspan class="cls-52" x="133.89" y="115.2">k</tspan><tspan x="148.83" y="115.2">e</tspan><tspan class="cls-51" x="165.09" y="115.2">,</tspan><tspan x="168.83" y="115.2" xml:space="preserve"> such as </tspan><tspan class="cls-68" x="286.46" y="115.2">palmiti</tspan><tspan class="cls-76" x="383.16" y="115.2">c</tspan><tspan class="cls-68" x="396.25" y="115.2" xml:space="preserve"> acid (</tspan><tspan class="cls-77" x="478.49" y="115.2">P</tspan><tspan class="cls-75" x="494.33" y="115.2">A</tspan><tspan class="cls-68" x="513.14" y="115.2">)</tspan></text><text class="cls-47" transform="translate(441.07 66.95)">The m<tspan class="cls-44" x="86.05" y="0">e</tspan><tspan x="101.95" y="0">chanisms through which some </tspan><tspan class="cls-49" x="0" y="38.4">c</tspan><tspan x="13.7" y="38.4">ells detach from the primar</tspan><tspan class="cls-66" x="386.75" y="38.4">y</tspan><tspan x="400.51" y="38.4" xml:space="preserve"> tumour </tspan><tspan class="cls-44" x="516.95" y="38.4">t</tspan><tspan x="527.45" y="38.4">o </tspan><tspan class="cls-49" x="0" y="76.8">c</tspan><tspan x="13.7" y="76.8">oloni</tspan><tspan class="cls-78" x="83.42" y="76.8">z</tspan><tspan x="97.21" y="76.8">e distant si</tspan><tspan class="cls-44" x="246.94" y="76.8">t</tspan><tspan x="257.44" y="76.8">es are still </tspan><tspan x="0" y="115.2">unkn</tspan><tspan class="cls-44" x="67.58" y="115.2">o</tspan><tspan x="84.38" y="115.2">wn</tspan><tspan class="cls-51" x="125.41" y="115.2">.</tspan></text><text class="cls-47" transform="translate(855.29 229.63)"><tspan class="cls-52">o</tspan><tspan x="16.77" y="0">f </tspan><tspan class="cls-68" x="35.52" y="0">can</tspan><tspan class="cls-75" x="82.68" y="0">c</tspan><tspan class="cls-68" x="96" y="0">er </tspan><tspan class="cls-79"><tspan class="cls-80" x="-9.55" y="38.4">deaths </tspan><tspan class="cls-81" x="90.03" y="38.4">are </tspan></tspan><tspan x="-5.1" y="76.8">caused </tspan><tspan class="cls-52" x="97.94" y="76.8">b</tspan><tspan class="cls-82" x="114.83" y="76.8">y</tspan><tspan class="cls-83" x="128.59" y="76.8"> </tspan><tspan class="cls-68"><tspan x="-10.86" y="115.2">metastasis</tspan></tspan></text><path class="cls-84" d="M453.11,1572.15H191.38c-27.62,0-50.74,23.14-50.74,51.69v31.1" transform="translate(-6.7 44.55)"/><path class="cls-84" d="M498.28,1572.15h232.3c26,0,47,22.68,47,50.66v12.56" transform="translate(-6.7 44.55)"/><circle class="cls-17" cx="135.46" cy="1700.98" r="23.06"/><circle class="cls-18" cx="135.96" cy="1700.98" r="34.61"/><circle class="cls-17" cx="768.47" cy="1696.99" r="23.06"/><circle class="cls-18" cx="768.98" cy="1696.99" r="34.61"/><line class="cls-84" x1="469.97" y1="1588.73" x2="469.97" y2="1714.32"/><circle class="cls-17" cx="469.47" cy="1706.04" r="23.06"/><circle class="cls-18" cx="469.97" cy="1706.04" r="34.61"/><g class="cls-85"><g class="cls-85"><path class="cls-39" d="M910,1384.57c3.81-1.6,7.62-3.21,11.44-4.8q8.3-3.46,16.6-6.9t16.58-6.93c2.28-1,4.57-1.87,6.85-2.8q4.06,9.77,8.12,19.55c2.06,5,4.15,10,6.2,14.93a27.72,27.72,0,0,1-46,29.27,31.33,31.33,0,0,1-5.94-9.86q-6.45-15.52-13-31a3.54,3.54,0,0,0-.91-1.43" transform="translate(-6.7 44.55)"/></g><g class="cls-85"><path class="cls-40" d="M910,1384.57c-1,.75-1.35.1-1.71-.78q-6.12-14.74-12.3-29.46c-1.59-3.79-3.18-7.57-3.52-11.74-.77-9.5,2.12-17.69,9.07-24.19a29.14,29.14,0,0,1,40.86.61c3.35,3.33,5.46,7.41,7.23,11.73,4.16,10.16,8.42,20.27,12.65,30.4.4,1,.59,1.78-.81,2-2.28.93-4.57,1.85-6.85,2.8q-8.29,3.45-16.58,6.93t-16.6,6.9c-3.82,1.59-7.63,3.2-11.44,4.8" transform="translate(-6.7 44.55)"/></g></g><text class="cls-86" transform="translate(35.01 1788.9)">Enhan<tspan class="cls-87" x="82.24" y="0">c</tspan><tspan x="94.75" y="0">ed </tspan><tspan class="cls-88" x="134.4" y="0">L</tspan><tspan x="148.13" y="0">CF</tspan><tspan class="cls-89" x="181.28" y="0">A</tspan><tspan x="197.85" y="0"> </tspan><tspan x="4.11" y="38.4">beta-</tspan><tspan class="cls-87" x="72.14" y="38.4">o</tspan><tspan x="87.15" y="38.4">xidation</tspan></text><text class="cls-86" transform="translate(327.15 1785.33)">Intra<tspan class="cls-87" x="61.63" y="0">c</tspan><tspan x="74.14" y="0">ellular biosensor </tspan><tspan x="80.38" y="38.4">behaviour</tspan></text><text class="cls-86" transform="translate(735.64 1785.33)"><tspan class="cls-90">A</tspan><tspan class="cls-67" x="16.58" y="0" xml:space="preserve"> li</tspan><tspan class="cls-91" x="42.05" y="0">v</tspan><tspan x="55.77" y="0">e </tspan><tspan x="-58.16" y="38.4">biotherapeuti</tspan><tspan class="cls-92" x="116.27" y="38.4">c</tspan></text></svg>