<svg id="Layer_1" data-name="Layer 1" xmlns="http://www.w3.org/2000/svg" viewBox="0 0 795.89 485.53"><defs><style>.cls-1{fill:#0077bf;}.cls-2{fill:#195177;}.cls-3{fill:#35647b;}.cls-4{fill:#8ab088;}.cls-5{fill:#8ab089;}.cls-6{fill:#83c7b3;}.cls-7{fill:#84c7b3;}.cls-8{fill:#c0c86c;}.cls-9{fill:#89af89;}.cls-10{fill:#c2ca70;}.cls-11{fill:#ccd287;}.cls-12{fill:#e3e6be;}.cls-13{fill:#85ac89;}.cls-14{fill:#c0c96e;}.cls-15{fill:#bdc56c;}.cls-16{fill:#85aa88;}.cls-17{fill:#cfd691;}.cls-18{fill:#cbd28a;}.cls-19{fill:#ccd286;}.cls-20{fill:#e2e5ba;}.cls-21{fill:#c8cf7d;}.cls-22{fill:#bec86f;}.cls-23{fill:#c1c86b;}.cls-24{fill:#c1c96e;}.cls-25{fill:#bec86e;}.cls-26{fill:#ebf4eb;}.cls-27{fill:#abcad9;}.cls-28{fill:#f9fafa;}.cls-29{fill:#0378ba;}.cls-30{fill:#7da386;}.cls-31{fill:#f8fbfa;}.cls-32{fill:#0175b7;}.cls-33{fill:#eef2f1;}.cls-34{fill:#bcc56c;}.cls-35{fill:#8bb089;}.cls-36{fill:#f1f4ef;}.cls-37{fill:#adc57f;}.cls-38{fill:#0d7bba;}.cls-39{fill:#356385;}.cls-40{fill:#c2c970;}.cls-41{fill:#c1c96f;}.cls-42{fill:#dce1b0;}.cls-43{fill:#dce1ad;}.cls-44{fill:#c1c86c;}.cls-45{fill:#c0c76e;}.cls-46{fill:#bec96e;}.cls-47{fill:#c0c86b;}.cls-48{fill:#c1c86d;}.cls-49{fill:#c2c86c;}.cls-50{fill:#bfc76f;}.cls-51{fill:#ccd48e;}.cls-52{fill:#b7c875;}.cls-53{fill:#e2e6bd;}.cls-54{fill:#e2e6bc;}.cls-55{fill:#0078bf;}.cls-56{fill:#376788;}.cls-57{fill:#336586;}.cls-58{fill:#296084;}.cls-59{fill:#366788;}.cls-60{fill:#3d6b8c;}.cls-61{fill:#356789;}.cls-62{fill:#21587d;}.cls-63{fill:#326588;}.cls-64{fill:#265b80;}.cls-65{fill:#2d6183;}.cls-66{fill:#255b7f;}.cls-67{fill:#295c7f;}.cls-68{fill:#316587;}.cls-69{fill:#2f6284;}.cls-70{fill:#2d6385;}.cls-71{fill:#225b7f;}.cls-72{fill:#346688;}.cls-73{fill:#306385;}.cls-74{fill:#285c80;}.cls-75{fill:#2f6082;}.cls-76{fill:#2a6083;}.cls-77{fill:#245b7f;}.cls-78{fill:#285e81;}.cls-79{fill:#306184;}.cls-80{fill:#275b7f;}.cls-81{fill:#2a5d81;}.cls-82{fill:#2e6286;}.cls-83{fill:#265c80;}.cls-84{fill:#346789;}.cls-85{fill:#275c80;}.cls-86{fill:#346588;}.cls-87{fill:#2b5d82;}.cls-88{fill:#33688a;}.cls-89{fill:#295c80;}.cls-90{fill:#3a6a8a;}.cls-91{fill:#2b6083;}.cls-92{fill:#306084;}.cls-93{fill:#285d81;}.cls-94{fill:#2d6284;}.cls-95{fill:#275d7f;}.cls-96{fill:#2c6184;}.cls-97{fill:#275d80;}.cls-98{fill:#295b7f;}.cls-99{fill:#1d567b;}.cls-100{fill:#275c7f;}.cls-101{fill:#2c6083;}.cls-102{fill:#235a7d;}.cls-103{fill:#165377;}.cls-104{fill:#2c6285;}.cls-105{fill:#2a5e81;}.cls-106{fill:#1d587d;}.cls-107{fill:#22587d;}.cls-108{fill:#2e6184;}.cls-109{fill:#37698b;}.cls-110{fill:#2f6385;}.cls-111{fill:#2d6184;}.cls-112{fill:#245a7e;}.cls-113{fill:#368;}.cls-114{fill:#2e6083;}.cls-115{fill:#23597f;}.cls-116{fill:#24597d;}.cls-117{fill:#2f6485;}.cls-118{fill:#21557a;}.cls-119{fill:#2f6588;}.cls-120{fill:#376789;}.cls-121{fill:#436f8d;}.cls-122{fill:#1f567a;}.cls-123{fill:#3b6c8c;}.cls-124{fill:#3d6c8c;}.cls-125{fill:#316485;}.cls-126{fill:#275e82;}.cls-127{fill:#386a8c;}.cls-128{fill:#245e83;}.cls-129{fill:#2f5f82;}.cls-130{fill:#2a5b7f;}.cls-131{fill:#336889;}.cls-132{fill:#94b7c9;}.cls-133{fill:#2c5e81;}.cls-134{fill:#195076;}.cls-135{fill:#25597d;}.cls-136{fill:#2e6183;}.cls-137{fill:#a0c1d2;}.cls-138{fill:#255a7d;}.cls-139{fill:#2f6285;}.cls-140{fill:#3a6f8f;}.cls-141{fill:#1a547c;}.cls-142{fill:#2c5f81;}.cls-143{fill:#4e7995;}.cls-144{fill:#255a7e;}.cls-145{fill:#537d98;}.cls-146{fill:#003b56;}.cls-147{fill:#003956;}</style></defs><title>T--UPF_CRG_Barcelona--logosensebarcelona</title><path class="cls-1" d="M808,308.1c-.12,3.8.27,7.7-.5,11.36-.93,4.44-4,7.78-7.63,10.57-1.46,2.9-4.45,3.88-7,5.33-8.76,5-17.48,10.09-26.25,15.07-3.18,1.8-3.56,3.7-2.45,6.85,2.15,6.08,4.44,12.14,5.29,18.6,1.84,7.62,1.84,7.63,9.52,7.64,11.27,0,22.54-.12,33.81.06a19.4,19.4,0,0,1,19.07,15.17c.62,2.83.72,5.59-.73,8.22a1.13,1.13,0,0,0,0,.92c1.91,4.26,2.32,8.38-1.1,12.15-4.67,8.15-11.55,11.84-21,10.94-3.94-.38-8,.06-11.93.13-2.05,1.58-4.46,1.31-6.81,1.36-2-.15-4-.09-6.06-.09a8.85,8.85,0,0,1-4.09-1.25c-10.28-.74-10.17-.71-12.32,9.51a109.25,109.25,0,0,1-5.69,19c-1.09,2.67-.89,4.11,2,5.71,10.88,6,21.52,12.41,32.27,18.62,11.3,6.53,13.94,16.42,7.35,27.76-1,1.72-2,3.46-3,5.18-6.28,10.73-16.31,13.4-27.06,7.22s-21.61-12.27-32.27-18.64c-2.8-1.67-4.38-1.6-6.65.9-6.37,7-12.79,14-20.48,19.7-2.65,1.94-2.85,3.76-1.13,6.62,5.82,9.65,11.38,19.45,17,29.22,6.23,10.83,3.6,20.8-7.11,27.1-2,1.17-4,2.27-6,3.43-10.37,6-20.76,3.28-26.75-7.12-5.87-10.19-11.81-20.35-17.5-30.64-1.59-2.88-3.06-4-6.45-2.76a104,104,0,0,1-26.57,6c-3.42.29-3.37,2.41-3.36,4.89q.08,17,0,34c0,12.63-7.23,19.77-19.79,19.72-2.33,0-4.67-.07-7-.08-12-.06-19.43-7.54-19.48-19.68s-.09-24,0-36c0-2.92-.55-4.32-3.86-5a150.25,150.25,0,0,1-18.53-5.38c-2.83-1-4.26-.77-5.79,2-6,10.72-12.15,21.29-18.25,31.92-5.52,9.62-13.84,11.9-23.57,6.39-4.18-2.36-8.4-4.68-12.45-7.25s-6.74-6.31-6.58-11.49c1.24-.6,2.5-1.19,1.59-3a9.5,9.5,0,0,1-1.53-4.18c0-2,.58-3.71,2.38-4.63s3.07.54,4.24,1.7c.94.92,1.52,2.17,3.37,3.65-.51-2.57-1.86-3.71-2.78-5a3.75,3.75,0,0,1,.49-5.37c1.74-1.76,3.44-1.54,5.29-.07,1.4,1.1,2.32,2.87,4.61,3.26-1.64-3.08-7-5.06-3.5-9.2,3.85-4.55,6.52,1.3,10.21,2.06-.55-2-2.16-2.63-3.38-3.57-1.88-1.45-3.14-3-1.6-5.45s3.42-2.87,5.87-1.4a12.11,12.11,0,0,0,4.35,1.81c-2-3-8-3.55-5.53-8.37s6.1-.49,9.36-.34c0-1.07-1-1.06-1.53-1.4a15.66,15.66,0,0,0-1.81-.83c-2.23-1-3.73-2.33-2.64-5s3.09-2.67,5.41-2.06c1.27.33,2.46,1,4.36.77-1.38-1.46-3.09-1.6-4.44-2.31-2-1-3.18-2.46-2.5-4.82s2.54-2.76,4.75-2.22a11.17,11.17,0,0,0,5,.65c-1.73-1.19-3.4-1.24-4.82-1.83-2-.83-3.58-2-3-4.47.64-2.65,2.49-3.26,5-2.75a9.65,9.65,0,0,0,4.24.48c-3-1.92-9-1.13-7.26-6.71,1.46-4.62,5.77-1,9.34-1.78a19.43,19.43,0,0,0-5.19-1.38c-2-.35-3.51-1.22-3.34-3.56.16-2.13,1.54-3.18,3.53-3.63,1.81-.41,3.64.09,6-.12-3.55-1.28-9,.33-8.45-5.27.49-5.32,5.22-2.33,8.79-3.28a22.18,22.18,0,0,0-4.94-1.19,3.46,3.46,0,0,1-3.09-3.87c.11-2.26,1.53-3.11,3.58-3.41,1.6-.23,3.26.21,4.78-.37-2.89-1.07-8,1.64-8.19-3.86s5-3.08,7.94-4.15c-1.82-.45-3.69,0-5.4-.72a3.73,3.73,0,0,1-2.57-3.36,3.33,3.33,0,0,1,2.23-3.52,11.69,11.69,0,0,1,8.29-.59c4.69,3.93,7.88,9.34,12.79,13.06a69.12,69.12,0,0,0,16.34,12,76.35,76.35,0,0,0,22.08,8.33c5.49,1.12,11,2.26,16.6,1.95,24.83,1.13,45.87-7.37,63.37-24.88,2.54-2.35,5.11-4.67,6.9-7.7,17.56-22.7,22.11-48,15.06-75.58a71.33,71.33,0,0,0-6.65-17.13,73.65,73.65,0,0,0-4-6.74,89,89,0,0,0-19.7-21.06c-5.39-3.62-10.61-7.52-16.74-9.89-12.81-6-26.32-8-40.34-7.25l-2.4,0A74.29,74.29,0,0,0,588,328c-4.56,1.37-8.52,4.1-12.92,5.82-2.67.18-4.78-1.26-6.93-2.49-1.93-1.11-3.09-2.66-1.8-4.95s3.07-2.28,5.18-1.44a30,30,0,0,0,4.74,1.85,50.38,50.38,0,0,0-4.62-3.12c-1.93-1.29-2.75-2.86-1.48-5.07,1.11-1.93,2.74-2.21,4.71-1.46,1.4.53,2.7,1.31,4.51,1.86-1.23-1.36-2.71-1.69-3.89-2.46-1.93-1.28-2.76-2.89-1.72-5.1,1.13-2.4,3-2.19,5.07-1.4,1.2.46,2.26,1.43,3.81,1.14-2.32-2-7.64-2.15-5.45-6.77,2.54-5.35,6.22.33,9.48-.13-2.27-2.2-8-2.22-5.81-7.09,1.86-4.19,5.53-.78,9.22-.44a26.85,26.85,0,0,0-4.65-2.54c-1.92-1-2.61-2.5-1.78-4.55s2.42-2.54,4.48-2c1.53.37,2.94,1.19,4.77,1.43-2-2.73-8.34-1.9-5.76-7.22,2.18-4.48,5.79-1,8.88-.58.16-.89-.69-.8-1.11-1a11.59,11.59,0,0,0-1.86-.73c-2.63-1-4.4-2.48-3.29-5.64s3.43-2.45,5.74-1.62a9.31,9.31,0,0,0,3.13.82c-1.23-1.56-3.14-1.49-4.46-2.46-1.69-1.25-2.33-2.77-1.56-4.78s2.19-2.25,4-2.08,3.41,1.22,5.34.85c-2.52-2.22-8.66-.74-7.41-6.31,1.21-5.37,5.83-1.68,9.15-2.34-3-1.75-8.82-.82-7.41-6.44,1.14-4.56,5.33-1.64,8.89-2.23-1.79-1.15-3.38-.89-4.75-1.29-2.19-.64-3.52-2-3.08-4.38.38-2.1,1.73-3.1,3.93-3a18.66,18.66,0,0,0,4.21-.05c-2.71-1.87-8.14-.38-7.3-5.68.72-4.62,5-2.5,8-3.35,0,0-.07-.17-.56-.22-3.06-.29-7.06.48-7.23-4.12-.18-5.06,4.09-4.18,7.26-4.52a1.92,1.92,0,0,0,1.54-.76c-1.63-.94-3.18-.19-4.69,0-2.21.2-4.07-.18-4.49-2.78s.23-4.59,3.17-5.3c1.38-.33,3-.19,4.13-1.73-3.11-1.2-8,2.88-9.33-2.58-1.45-5.75,5.07-4.48,7.21-7.33-2.35-.8-4.13,1-6.2,1.24-1.59.2-3.49.83-3-2A18.81,18.81,0,0,1,608.92,194c4.3.35,8.65,0,13,.07a14.78,14.78,0,0,1,15,15.16c.05,13.81.18,27.63-.09,41.44-.08,4.44.76,6.14,5.74,6.68a106.89,106.89,0,0,1,27.36,6.83c3,1.17,4.32.52,5.83-2.16,6.39-11.41,13.38-22.49,19.43-34.06,6.48-12.42,19.29-15.46,29.54-8.05,3.34,2.41,7.46,3.76,10.25,6.92,5.27,6,5.93,14.54,1.77,21.78-7,12.19-14,24.38-21.15,36.49-1.44,2.43-1.37,3.52,1,5.56,6,5.23,11.57,11,17.16,16.7,4.77,4.87,4.68,5,10.31.65A23.14,23.14,0,0,1,756,301c5.86-2,11-5.43,16.05-8.73,8.77-5.7,17.19-6.16,25.83-.12C803.48,296.07,806.11,301.85,808,308.1Z" transform="translate(-184.14 -130.97)"/><path class="cls-2" d="M594,199.34c.74,2.68,2.39.92,3.56.61,1.75-.47,3.39-1.37,5.13-1.88,1.35-.39,2.22.43,2.6,1.7s-.45,1.77-1.45,2.15c-1.71.65-3.37,1.47-5.12,2s-2.38,1.27-1.87,3.22c.55,2.12,1.49,2.7,3.55,2a29.53,29.53,0,0,1,4.85-1.06c1.19-.18,2.43-.07,2.68,1.49A1.93,1.93,0,0,1,606.1,212a23.75,23.75,0,0,1-3.88.87c-2.64,0-3.53,1.25-3.23,3.77.35,3,2.21,2.21,4,1.87a33.06,33.06,0,0,1,4.45-.46c1.29-.07,2.31.35,2.33,1.91s-.92,2-2.25,2c-1.83,0-3.66,0-5.49.1s-2.85.63-2.71,2.72c.13,1.91.62,3.23,2.86,3.16a18.48,18.48,0,0,1,3.49.05c1.44.22,4-.95,3.89,1.59-.12,2.29-2.64,1.2-4.14,1.43a19,19,0,0,1-2.5,0c-1.78,0-3.83-.47-3.92,2.43-.08,2.47,1.7,2.14,3.24,2.75,2.16.85,6.55-.36,6.2,2.28-.42,3.19-4.48,1.36-6.86,1.28-2.14-.07-3.23.38-3.4,2.41-.19,2.3,1.46,2.63,3.26,2.81,2.34.25,6.39-.47,6,2.48s-4,1.11-6.25.8c-1.73-.24-3.76-1-4.2,1.89-.42,2.71,1.72,2.7,3.29,3.48,2,1,6.53-.85,6,2.51-.67,4-4.4.43-6.74.63-1.77.15-3.6-.95-4.25,1.72s1.51,2.89,3.18,3.41a40,40,0,0,0,4.35,1.07c1.34.25,2.28.76,1.77,2.29-.44,1.36-1.44,1.66-2.78,1.15a18.65,18.65,0,0,0-3.81-1.18c-1.76-.26-4-1.73-4.8,1.44-.64,2.64,1.31,3,3.1,3.55,1.42.44,2.82,1,4.2,1.56a1.63,1.63,0,0,1,1.24,1.89c-.26,1.3-1.34,1.45-2.33,1.18-1.76-.47-3.47-1.13-5.18-1.75-1.38-.5-2.7-1.54-3.45.91-.57,1.86-.67,2.94,1.41,4,2.39,1.17,7.55.58,6.22,4.42-.86,2.49-4.68-1-7.23-1.52-1.82-.38-2.7-.11-3.5,1.59-1,2.15.41,2.61,1.8,3.24,2.29,1.05,6.88,1.65,5.92,3.91-1.58,3.77-4.66-.41-7.12-.79-1.83-.28-3.11-.73-3.92,1.45s.82,2.32,2.09,3.11c2.07,1.3,6.7,1.64,5.66,4.13-1.32,3.16-4.48-.19-6.75-.9-1.81-.56-3.33-1-4.14,1.12-.73,1.85.63,2.73,2.09,3.36s3.08,1.25,4.59,1.93c1.23.55,1.85,1.38,1,2.76-.71,1.21-1.6.85-2.54.39l-5.4-2.61c-1.41-.68-2.5-.71-3.11,1.09-.47,1.41-.7,2.59,1,3.28,1.54.62,3.1,1.21,4.59,1.93,1.15.55,2.79,1,2,2.82-.73,1.56-2.07.6-3.06.25a38.42,38.42,0,0,1-4.55-2c-1.37-.69-2.41-.9-3.23.81s-.61,2.82,1.14,3.63,3.29,1.61,4.94,2.41c.82.4,2.22.39,1.69,1.85a2,2,0,0,1-2.87,1.12c-1.68-.72-3.31-1.57-4.94-2.41-1.46-.76-2.66-1.15-3.67.8-.91,1.76-.56,2.68,1.16,3.5a52.28,52.28,0,0,1,4.75,2.75c.92.56,2.44.92,1.46,2.52-.82,1.35-2,.8-3,.24-1.63-.84-3.31-1.59-4.91-2.47s-2.47-.23-3.25,1.12-.63,2.49.94,3.2c2.27,1,4.54,2,6.8,3.06,1.11,3.53-.23,4.66-3.66,3.77-2.22-.87-3.89-3.56-7-2.33.57,2.38,2.67,2,3.91,2.9a9,9,0,0,1,3.3,2.7c-.69,5.08-1.44,5.26-7.39,1.87-1-.36-2-1.55-3-.31-.87,1.08.16,1.68,1,2.17,2.17,1.46,6.74,1.78,5.19,5.35-1.62,3.76-4.81.34-7.29-.28a1.92,1.92,0,0,0-2.09.22c.16,2.13,2.28,2.4,3.62,3.37s2.84,2.19,1.8,4.07-2.84,1.18-4.45.65-2.82-1.83-5.11-1.54c.76,2.49,3.2,2.66,4.71,3.82,1.23.94,2.58,1.85,1.64,3.64-.86,1.61-2.33,1.59-3.92,1.17-1.88-.5-3.38-2.17-5.89-1.75,1,2.4,3.35,2.66,5,3.82,1.3.92,2.47,1.86,1.59,3.65s-2.26,1.69-3.84,1.2c-2-.6-3.7-2.16-6.12-1.86.25,2.62,4.11,2.38,3.44,5.21-.65,1.27-1.85,1.49-3.1,1.59-.8.11-1.67-.16-2.45.54,1,2.05,3.38,1.81,4.89,3,.94.73,2,1.44,1.58,2.79s-1.67,1.47-2.87,1.48c-1.81,0-3.47-1-6-.89,1.89,1.83,4,1.52,5.61,2.36,1.18.61,2.57,1.22,2.26,2.86s-1.82,1.7-3.16,1.79c-1.75.11-3.51-.84-5.43-.16.85,1.93,2.54,1.5,3.86,1.81,1.74.41,4.07.3,4,2.8-.1,3-2.6,2.35-4.53,2.39-.46,0-1,0-1.17.67,1.08,1.91,5,.9,4.7,4.17-.24,2.45-2.43,2.32-4.22,2.55-1.23.23-2.62-.43-3.74.71.93,1.26,2.44.71,3.58,1.2,1.43.41,3,.6,4.1,1.69a2.33,2.33,0,0,1,.07,2.12c-2.1,2.34-5.83.13-8,2.74,1.47,1.5,3.19.67,4.72.88,1.91.24,4.13.17,4.48,2.72.25,1.8-1.17,2.46-2.66,2.86s-3.35-.22-4.53,1.44c.92,1.44,2.4.85,3.61,1.11,1.65.36,3.53.55,3.55,2.76s-1.84,2.44-3.51,2.75-3.67-.36-5.4,1.31c1.89,1.65,4.19.8,6.14,1.32,1.54.41,2.94.94,2.8,2.89-.13,1.65-1.44,2-2.79,2.38-1.69.45-3.69-.36-5.21,1.2,1.14,1.79,3,1.06,4.5,1.41,1.65.37,3.51.57,3.49,2.8s-1.89,2.38-3.54,2.7c-.91.18-2.06-.22-2.63,1,.7,1.47,2.21,1.2,3.41,1.52,1.68.46,3.48,1,3.52,3,0,2.26-2,2.23-3.67,2.49a11,11,0,0,1-2,.08c-1.21.16-2.62-.26-3.46,1.48,1.61,1.44,3.64.63,5.42,1,2.25.7,5.11,1,2.64,4.5-2.65-.22-5.28-.47-7.9.43-1.46.5-2.38,1.14-2.16,2.79a2.54,2.54,0,0,0,2.72,2.37c2,.06,4,0,6,.09.86,0,1.71.24,1.83,1.29.15,1.37-.83,1.66-1.88,1.69-1.67.06-3.34.06-5,.05-1.88,0-3.81-.19-3.77,2.62,0,2.56,1.88,2.31,3.53,2.36s3.33,0,5,0c1,0,2.13.23,2.07,1.56s-1.18,1.45-2.21,1.46c-2,0-4,0-6,0a2.14,2.14,0,0,0-2.46,2.41c0,1.62.58,2.46,2.27,2.59a49.52,49.52,0,0,1,5.41.74c.92.18,2.14.27,2.11,1.64,0,1.74-1.43,1.57-2.56,1.54a24.64,24.64,0,0,1-5-.41c-1.94-.46-2.9.17-3.14,2s.45,3,2.29,3.22c1.31.17,2.66.11,4,.2,1.59.11,3.8-.27,3.43,2.32-.35,2.42-2.17,1.14-3.55,1a27.58,27.58,0,0,0-5-.21c-1.61.11-2.16,1.35-2.2,2.83s1,1.87,2.26,2c2,.26,3.92.7,5.88,1a1.77,1.77,0,0,1,1.65,2.08c-.12,1.55-1.2,1.2-2.2,1-1.63-.26-3.29-.42-4.92-.71-1.46-.26-3.06-1-3.67,1.18s.47,3.44,2.65,3.82a36.43,36.43,0,0,1,3.91.74c1.21.35,3.08.5,2.76,2.22-.36,1.94-2.19,1.68-3.7,1.38a23.66,23.66,0,0,1-3.86-.95c-1.73-.69-2.81-.41-3.49,1.43-.86,2.31.66,3,2.32,3.51s3.54.91,5.33,1.28c1.19.24,1.86.74,1.34,2-.37.92-.78,1.91-2.12,1.55-1.92-.52-3.86-1-5.76-1.59-1.44-.45-2.56-.47-3.16,1.23s-.22,3,1.53,3.61,3.48,1.13,5.19,1.77c1.15.42,2.16,1.08,1.67,2.57s-1.63,1.34-2.85.91c-1.72-.62-3.48-1.11-5.19-1.75-2-.74-2.74.43-3.36,1.93-.69,1.7.19,2.39,1.69,2.89,1.73.58,3.41,1.32,5.08,2.06.93.41,1.88,1,1.43,2.24a2,2,0,0,1-2.82,1.3c-1.55-.6-3-1.42-4.54-2.08s-3.11-1.46-4.18.82c-.92,2-.31,3,1.55,3.9,1.65.77,3.17,1.83,4.75,2.75a1.64,1.64,0,0,1,.79,2.46,1.55,1.55,0,0,1-2.43.78,49.79,49.79,0,0,1-4.86-2.56c-1.79-1.25-2.81-1.56-4.29.69-1.63,2.49-.22,3.15,1.45,4.09a3.34,3.34,0,0,1,.79.61c1.55,1.54,5.76,2.15,3.21,5.3-2.4,3-3.41-1.45-5.26-2.09s-3.44-3.89-5.82-.7c-2.24,3,.8,4,2.16,5.62a18.83,18.83,0,0,0,2.4,1.77c.84.69,1.35,1.51.42,2.52s-1.76,1.78-3,.71a48.37,48.37,0,0,1-4.26-4.21c-1.31-1.48-2.36-2-4-.32-1.47,1.52-1.66,2.63-.14,4.17,1.16,1.18,2,2.65,3.1,3.89s1.14,2.25-.28,3.29-2.06.13-2.75-.91a20.39,20.39,0,0,0-2.29-3.25c-.94-1-1.61-3.18-3.34-2.14a3.75,3.75,0,0,0-1.52,4.81c.46,1.06,1.18,2,1.74,3s1.81,1.93.93,3.07c-1.08,1.38-2.56,1.35-3.92.15-.74-1.66-1.47-3.32-2.22-5s-1.71-2.55-3.85-1.49-2.26,2-1.28,3.87c.87,1.6,1.53,3.32,2.34,4.95.55,1.09,1.24,2-.55,2.71-1.42.56-2.09.3-2.59-1.14-.59-1.72-1.45-3.34-2.13-5-.77-1.87-1.91-2.43-3.89-1.65s-2.22,2-1.28,3.77c.68,1.31.94,2.82,1.53,4.18s1.24,2.67-.49,3.39c-2.22.92-2.31-1.06-2.79-2.41-.55-1.57-1.27-3.09-1.66-4.69-.56-2.3-2.18-1.66-3.54-1.33a2.11,2.11,0,0,0-1.65,3c.58,1.72,1.14,3.45,1.63,5.2.39,1.4.33,2.8-1.37,3.2s-1.66-1.26-2-2.23a22.31,22.31,0,0,1-1.12-4.32c-.29-2.09-.72-3.52-3.42-2.79s-2.19,2.45-1.86,4.26c.3,1.63.6,3.26,1,4.87a1.66,1.66,0,0,1-1.28,2.26c-1.59.5-1.58-.85-1.79-1.68-.46-1.77-.78-3.57-1.07-5.36s-1.15-2.93-3.32-2.68c-2.43.27-2.45,1.62-2.05,3.51s.45,3.63.75,5.43c.19,1.09.31,2-1.19,2.09-1.19.09-1.8-.26-1.94-1.56-.21-2-.8-3.94-.86-5.92s-.76-2.66-2.7-2.46-2.81.88-2.61,2.81.3,4,.6,6c.17,1.11.31,2-1.14,2.13s-2.18-.31-2.2-1.86c0-1.83-.29-3.66-.29-5.48,0-2.25-1.19-2.67-3.19-2.67-2.68,0-2.37,1.7-2.28,3.37s.28,3.64.37,5.46a1.66,1.66,0,0,1-1.67,2c-1.27.07-1.77-.72-1.81-1.85-.07-2-.24-4-.11-6,.15-2.23-.77-2.82-2.9-2.81s-2.45,1-2.42,2.78c0,2-.06,4-.12,6,0,1.13-.5,1.93-1.77,1.88a1.68,1.68,0,0,1-1.75-1.95c.06-1.83.05-3.67.26-5.48s.48-3.3-2.14-3.41c-2.24-.09-3.54.5-3.41,3a3.62,3.62,0,0,1-.05,1c-.59,2.11,1.1,6.22-2.43,5.72-2.85-.4-.74-4.11-.78-6.36,0-1.6,1.47-3.68-1.64-4.25s-3.62,1.32-4.09,3.6.35,6.25-2.49,5.67c-3.59-.73-.8-4.26-.52-6.53s.66-3.89-2.13-4.62-2.58,1.51-3.46,3c-1.21,2,.22,6.75-3.45,5.71-3.38-.95.1-4.14.21-6.36.08-1.66,2.19-3.55-1.26-4.71-3.06-1-3.05.93-4.1,2.57-1.25,1.94-.8,6.7-4.1,5.27s.5-4.32,1.08-6.54c.51-1.94,1.63-3.48-1.07-4.78-2.9-1.39-2.95,1.11-4.26,2.32-1.72,1.6-1.06,6.8-4.63,4.81-3.29-1.84,1.19-4.11,1.68-6.36.37-1.74,2.5-3-.33-4.83s-3.22.36-4.56,1.7c-1.64,1.64-1.79,6.58-5,4.48s1.37-4.07,2.25-6.14c.81-1.89,2.29-3.23-.05-5.05-2.58-2-3.27.35-4.67,1.62-1.69,1.52-2.62,6.1-5.56,3.44-2.07-1.89,2.32-3.48,3-5.63.45-1.36,3.17-1.87,1.44-4s-3-2.29-5.14-.25c-1.73,1.61-3.32,6.3-6,3.66-2.35-2.3,2.35-3.77,3.66-5.78,1-1.47,2.81-2.29.72-4.44-1.94-2-3.13-.9-4.56.34a5.38,5.38,0,0,1-1.16.94c-1.8.8-2.89,5.08-5.18,2.28-2-2.46,2.27-3.11,3.21-4.94.72-1.41,3.86-1.32,2.56-4s-2.9-3-5.37-.86c-1.63,1.41-4,5-5.78,2.75-2.43-2.92,2.5-3.13,3.58-5,.82-1.41,4.05-1.44,2-4.51s-3.35-.86-5.2,0c-2.31,1-4.66,5.45-7.37.42a1.17,1.17,0,0,1-.13-1.29c1.3-1.55,3.11-2.36,4.8-3.36.95-.57,2.43-1,1.83-2.45-.67-1.62-2.11-1.14-3.38-.6-.6.26-1.17.58-1.76.87a10.58,10.58,0,0,1-2.75,1,3,3,0,0,1-3.46-2.07c-.76-1.71.16-2.75,1.48-3.67,1.79-1.25,4-1.33,5.89-2.25a1.71,1.71,0,0,0,0-2.53c-1.05-1-2,0-3.05.3-2.5.35-5.73,3.33-7.25-.54-1.72-4.38,2.81-4.17,5.22-5.38,1.1-.5,3.3-.58,2.43-2.25-1-2-2.9,0-4.41.14-2.2.35-4.74,1.38-5.85-1.54-.91-2.39.93-3.47,2.84-4.26a18.34,18.34,0,0,1,2.84-.58c1.13-.35,2.89-.15,2.6-2-.2-1.3-1.52-.7-2.42-.64-2.17.22-4.29,1.21-6.53.4-.78-.72-1.56-1.45-.93-2.66l.06-1.42c1.87-2.72,5.71-1.18,8.07-3.89-2.37-1.6-5.34.73-7.36-1.23-2.46-2.18-2.36-2.5,1.28-4.07,1-1.69,3.57-.8,4.66-2.91-2.62-1.55-5.81-.83-8.35-2.27l-.36-1c-1-2.14.62-2.56,2.05-3.06,1.7-.59,3.65-.39,5.47-1.9-1.87-1.25-3.88-.41-5.64-.79s-3.42-.7-3.45-2.87c0-2,1.41-2.82,3.11-3.37s3.68.24,5.15-1.39c-1.4-1.66-3.12-.58-4.64-.62-2-.06-3.78-.56-4.1-2.78-.36-2.47,1.61-2.91,3.45-3.37,1.68-.42,3.67.39,5.19-1.24-1.59-1.86-3.75-1-5.58-1.33-2.38-.47-4.32-1.15-3.21-4.21,2.37-2.36,6.13-.43,9-2.74-2.59-1.7-5.73-.17-7.7-2.31H330c-.68-2.17-1.07-4.24,1.89-5.05,1.63-.35,3.31-.05,5-.31.55-.09,1.56-.2.22-.82a4.34,4.34,0,0,0-1-.19c-1.48-.32-3-.14-4.44-.53-1.72-.47-3.11-1.34-3.18-3.3-.07-2.18,1.59-2.63,3.28-3s3.33.13,4.92-1.08c-.95-1.55-2.56-1.14-3.89-1.39-1.91-.37-4.37-.26-4.18-3.09.16-2.42,2.39-2.34,4.17-2.56.82-.1,1.65,0,2.47-.06s2.36.25,2.62-.89c.32-1.41-1.14-1.3-2.05-1.41-1.32-.16-2.66,0-4-.24A2.92,2.92,0,0,1,330,427c-.21-2.08,0-3.67,2.83-3.24,1.8.28,3.65.2,5.47.38,2,.19,2-1.36,2.26-2.6.27-1.5-.19-2.63-2-2.65-1.66,0-3.34,0-5-.16-1.37-.13-3.43.27-3.16-2,.22-1.94,1.92-1.33,3.2-1.21,1.49.14,3,.3,4.46.47,2,.22,3.09-.43,3.16-2.7s-1.07-2.37-2.77-2.45c-2-.08-4-.4-5.94-.67a1.49,1.49,0,0,1-1.43-1.7c.1-1,.9-1.31,1.78-1.25,2,.14,4,.24,5.95.55s2.7-.26,3-2.19-.26-2.8-2.24-2.81a6.27,6.27,0,0,1-2.45-.39c-1.73-.8-5.44,1-5-2.18.37-2.61,3.65-.54,5.6-.85s4.5,1.67,4.79-2.17-2.89-2.18-4.51-3-5.44,1.18-5.14-1.94,3.57-.57,5.46-1c1.54-.36,3.35,1.09,4.64-.38a3.74,3.74,0,0,0,.53-2.86c-.39-1.92-2.33-1.42-3.64-1.9-2.07-.76-6.31.94-5.86-2.24.49-3.46,4.08-.22,6.28-.57,1.85-.3,4.06.74,4.37-2.45s-2-2.39-3.62-2.86c-2.1-.63-6.18.61-5.71-2.49s3.84-.47,5.93-.41c1.91,0,4.09,1,4.73-2,.69-3.34-1.92-2.52-3.61-3.25-2-.88-6.33.57-5.74-2.64.48-2.63,4.12-.5,6.37-.34,1.6.12,3.56,1.59,4.26-1.47.66-2.87-1-2.84-3-3.77s-6.84,1.05-5.84-3.08c.71-2.9,4.11.27,6.37.16,1.7-.09,3.6,1.47,4.3-1.43s-1.38-2.86-3.29-3.66-6.49.3-5.73-2.72c.88-3.46,4.34-.09,6.64,0,1.9.06,3.61.89,4.25-1.77s-1.15-3-3.11-3.23a2.83,2.83,0,0,1-1.4-.48c-1.45-1.14-5.47.64-4.49-2.75.88-3,3.59.32,5.55-.08.86-.18,1.89.5,2.86.68,1.84.36,2.24-1.05,2.63-2.33a1.91,1.91,0,0,0-1.55-2.62c-1.77-.46-3.55-.85-5.32-1.31-1.19-.3-3-.08-2.58-2.11s1.8-1.32,3.15-.84c1.55.55,3.21.81,4.8,1.23s2.77,0,3.39-1.83c.73-2.12-.56-2.74-2.05-3.17-1.9-.57-3.86-.91-5.78-1.4-1.08-.28-1.74-.83-1.29-2.15s1.19-1.16,2.29-.81c1.89.61,3.9.82,5.77,1.48s2.69-.2,3.17-1.86-.07-2.49-1.69-2.9c-1.93-.48-3.8-1.18-5.73-1.63-1.42-.33-2-.88-1.52-2.41.55-1.75,1.56-.54,2.31-.41a36.52,36.52,0,0,0,3.84,1c1.66.11,3.86,2.28,4.83-1.13s-2-3.11-3.69-3.9a16.59,16.59,0,0,0-3.83-1.06c-1.35-.27-1.57-1.13-1.25-2.19s1.26-.87,2.07-.65c1.91.51,3.86.94,5.72,1.62s2.82.37,3.15-1.7c.26-1.63.43-2.86-1.8-3.23a47.49,47.49,0,0,1-5.67-1.76c-.84-.25-1.64-.46-1.49-1.55.18-1.38,1.23-1.5,2.23-1.25,1.93.47,3.83,1.09,5.72,1.7,1.72.55,2.66.19,3.31-1.72s0-2.77-1.74-3.23a34.93,34.93,0,0,1-5.22-1.55c-.75-.33-2.79,0-2-2,.58-1.4,1.67-1.42,2.9-1,1.41.5,2.81,1,4.23,1.44,1.73.54,3.46,1.27,4.25-1.42s-1.24-3-2.92-3.54c-1.41-.47-2.86-.81-4.28-1.26s-2.05-1.26-1.5-2.62,1.6-.59,2.5-.31c1.74.54,3.52,1,5.23,1.6s2.82.79,3.23-1.47c.3-1.61.66-2.82-1.59-3.25a47.1,47.1,0,0,1-5.67-1.79c-1-.33-1.94-.76-1.5-2.06.38-1.14,1.14-1.39,2.34-.93,1.85.71,3.86,1,5.65,1.86,2,.9,2.68-.07,3.3-1.66.72-1.81.23-2.76-1.73-3.21a51.58,51.58,0,0,1-5.18-1.73c-.91-.31-2-.39-1.72-1.86.4-1.85,1.74-1.16,2.76-.94,1.29.27,2.52.82,3.79,1.2,1.8.55,3.66,2,4.66-1.3.93-3.05-1.32-2.78-2.87-3.35-1.4-.52-2.87-.86-4.21-1.5-.73-.34-2.27-.21-1.79-1.77.44-1.38,1.5-1.65,2.8-1.19,1.71.61,3.43,1.17,5.11,1.84s2.7.86,3.44-1.2.15-3-1.89-3.59a53.62,53.62,0,0,1-5.63-2,1.6,1.6,0,0,1-.91-2.43c.47-.93,1.25-.74,2.12-.4,1.85.71,3.81,1.17,5.62,2s2.63.65,3.27-1.41c.55-1.79.51-2.78-1.48-3.34s-3.73-1.36-5.63-2c-1.15-.37-1.6-.88-1.28-2.16.42-1.66,1.41-.92,2.24-.65,1.73.56,3.43,1.23,5.15,1.81s3.12.61,3.86-1.67-.63-2.64-2-3.2c-1.69-.67-3.46-1.15-5.13-1.85-.73-.31-2.28-.15-1.57-1.8a1.75,1.75,0,0,1,2.42-1.06,44.32,44.32,0,0,1,5.59,2c1.88.93,2.72.25,3.33-1.44s.38-2.79-1.63-3.31a45.85,45.85,0,0,1-5.6-2.05c-1-.39-1.82-1-1.22-2.24s1.39-1.08,2.47-.61c1.82.81,3.74,1.36,5.56,2.16,2,.86,2.63-.3,3.31-1.79.79-1.71-.12-2.49-1.48-3.05-1.53-.63-3.11-1.13-4.64-1.77-1.13-.47-3-.49-2.36-2.46.67-2.17,2.22-.72,3.28-.45a43.4,43.4,0,0,1,4.61,1.79c1.53.59,2.6.76,3.31-1.4.63-1.89.42-2.72-1.41-3.33s-3.41-1.26-5.08-2c-1-.45-2.42-.86-1.68-2.44s1.93-.86,3-.46a53.11,53.11,0,0,1,5.07,2c2,1,2.59-.19,3.27-1.67s.59-2.46-1.11-3.12c-1.85-.72-3.65-1.59-5.43-2.49-.88-.44-2.44-.45-1.45-2.33.85-1.6,1.88-1,2.87-.57a46,46,0,0,1,4.9,2.36c2,1.15,2.88.22,3.78-1.56,1.06-2.09-.37-2.56-1.68-3.22-1.63-.82-3.29-1.57-4.91-2.42-.86-.46-1.88-1-1.27-2.26.71-1.48,1.73-1.18,2.87-.45a7.69,7.69,0,0,0,2.66,1.28c1.86.31,3.68,3.89,5.68.13s-1.52-3.56-3.18-4.66c-1.11-.73-2.37-1.2-3.49-1.92s-1-1.62-.35-2.57,1.31-.59,2.08-.14c1.43.83,2.9,1.6,4.38,2.33s2.92,2.45,4.49-.25c1.67-2.88-.51-3.39-2.16-4.37-1.28-.76-2.59-1.48-3.87-2.24-.9-.53-1.72-1.16-1-2.35a1.6,1.6,0,0,1,2.52-.47c1.68,1.06,3.48,1.95,5.16,3s2.69.53,3.64-1,.56-2.65-1-3.52a39.23,39.23,0,0,1-4.21-2.66c-.89-.64-2.87-.67-1.62-2.76s2.1-.68,3.16,0c1.53,1,3.18,1.81,4.62,2.92,1.88,1.44,2.56,0,3.57-1.13,1.24-1.39.73-2.37-.56-3.24-1.79-1.22-3.61-2.37-5.39-3.59-.9-.62-1.44-1.31-.54-2.44s1.46-1,2.46-.25c1.58,1.21,3.36,2.16,4.9,3.41,1.83,1.5,2.88.7,4-.88,1.28-1.77.33-2.62-1.08-3.56s-2.91-2.21-4.35-3.34c-.71-.55-1.89-.85-.92-2.21.85-1.21,1.67-1.49,2.86-.52,1.55,1.25,3.16,2.43,4.71,3.69,1.31,1.06,2.32,1.53,3.59-.28,1.14-1.65,1.46-2.78-.37-4.1-1.61-1.16-3.07-2.53-4.59-3.82-.68-.59-1.11-1.25-.34-2.08s1.45-1.49,2.51-.58a64.07,64.07,0,0,1,4.86,4.28c1.41,1.47,2.39,1.22,3.69-.11s1.73-2.31.16-3.69c-1.24-1.1-2.3-2.41-3.44-3.62s-2.44-2-.64-3.63,2.34.15,3.16,1a40.44,40.44,0,0,1,3.25,3.78c1.17,1.52,2.29,1.67,3.69.28,1.17-1.17,2.76-2,.81-3.92a41.35,41.35,0,0,1-3.67-4.72c-.62-.82-1.21-1.6,0-2.48,1-.77,2-1.32,3,0,1.08,1.47,2.15,2.95,3.12,4.5s1.88,2.81,4.26,1.35,2.17-2.84.89-4.79c-.82-1.24-1.39-2.64-2.14-3.94s-1.37-2.11.58-3.05,2.71-.49,3.29,1.36a12.06,12.06,0,0,0,1.42,3.17c1,1.47.41,4.55,4.18,3.19,4-1.45,1.45-3.62,1.26-5.55-.08-.8-.6-1.55-.74-2.36-.23-1.31-2.31-2.92.84-3.73s1.92,1.92,2.64,2.95a8.89,8.89,0,0,1,1.14,3.77c.31,2.11,1.21,3,3.38,2.23,1.71-.57,3-1.11,2.19-3.42a33.47,33.47,0,0,1-1.16-5.85c-.23-1.46.62-2.13,2-2.28s1.55.81,1.7,1.86a46.38,46.38,0,0,1,.89,5.4c.05,2.29,1.1,2.72,3.13,2.64,2.49-.11,2.52-1.57,2.36-3.38-.15-1.66-.2-3.33-.29-5-.07-1.14-.42-2.43,1.35-2.61,1.56-.16,2,.73,2.06,2.1.08,1.65.39,3.31.4,5,0,1.94.41,3.06,2.75,3.05s2.91-.93,2.77-3c-.11-1.66,0-3.34,0-5,0-1.25.13-2.33,1.81-2.35s1.81,1.05,1.79,2.31c0,2-.05,4-.08,6s1.39,2.32,3,2.4,2.33-.72,2.39-2.38c.06-2,.33-4,.58-6,.12-1,.32-2.08,1.74-1.87a1.65,1.65,0,0,1,1.55,2.08,36.2,36.2,0,0,1-.56,5.45c-.67,2.44.16,3.09,2.48,3.53,2.7.52,2.65-1.21,3-2.79.57-2.39-.24-6.9,2.55-6.44,3.61.59.51,4.31.47,6.64,0,1.86-.66,3.67,2.09,4.17s3-1,3.3-3.06a26,26,0,0,1,1.17-4.83c.26-.81.31-2.14,1.89-1.57a1.75,1.75,0,0,1,1.35,2.26,50.55,50.55,0,0,1-1.5,5.75c-.71,1.92,0,2.86,1.75,3.28,1.53.35,2.89.52,3.32-1.68.38-1.94,1.29-3.77,1.71-5.7.37-1.69,1.36-1.69,2.58-1.33,1.64.47.68,1.48.43,2.35-.45,1.59-.83,3.2-1.31,4.78-.53,1.74-1.52,3.19,1.49,4s2.91-1.25,3.54-2.71,1-3.16,1.59-4.7c.32-.82.59-2,2.06-1.29,1.07.51,1.56,1,1.07,2.28-.73,1.84-1.18,3.82-2,5.6s-.36,2.84,1.39,3.4c1.51.49,2.9.72,3.46-1.45a33.78,33.78,0,0,1,1.9-5.11c.41-.91.42-2.6,2.21-1.9s1.42,1.88.76,3.25-1.08,3.16-1.83,4.62c-.89,1.74-.49,2.83,1.23,3.57,1.94.83,3.06.29,3.68-1.82a40.14,40.14,0,0,1,2.24-5.5c.3-.64.59-1.64,1.77-.91.85.52,1.87.76,1.19,2.15-.87,1.78-1.66,3.6-2.42,5.44-.66,1.59-1.13,2.93,1.24,3.87,2.2.88,2.89-.08,3.58-1.74.76-1.84,1.52-3.68,2.39-5.47.55-1.15,1.61-1.11,2.56-.59s.57,1.31.19,2.1c-.77,1.65-1.46,3.33-2.18,5s-1.55,2.86.88,4c2.22,1,3,.13,3.75-1.62s1.57-3.3,2.37-4.94c.44-.9.79-1.84,2.17-1.1a1.69,1.69,0,0,1,.73,2.51c-.76,1.66-1.6,3.28-2.47,4.87s-1.17,2.8.93,3.95,2.91.49,3.75-1.32a36.69,36.69,0,0,1,2.62-4.81c.4-.62.34-2.22,2-1.35,1.27.68,1.71,1.51,1,2.79a53.86,53.86,0,0,1-3,5.17c-1.28,1.81-.26,2.62,1.07,3.59,1.66,1.23,2.68.64,3.6-.91,1-1.71,2.07-3.41,3.17-5.07.58-.88,1.35-1.53,2.45-.69.92.7,1.23,1.42.43,2.51-1.17,1.6-2.16,3.34-3.29,5-1,1.42-1.26,2.39.57,3.6s2.83,1.35,4-.51a20.74,20.74,0,0,1,2.67-3.6c.85-.86,1.06-3.13,3.31-1.61,2.41,1.62.16,2.46-.46,3.46a28.33,28.33,0,0,1-2.75,3.53c-1.27,1.47-1.74,2.71.22,4.09,1.6,1.14,2.85,1.48,4.18-.3,1.1-1.46,2.33-2.83,3.53-4.21.8-.91,1.58-1.73,2.83-.4,1,1.05,1.19,1.88.08,2.93-1.33,1.26-2.55,2.65-3.92,3.86s-1.85,2.51-.18,4.07c1.41,1.31,2.55,2,4.15.32,1.25-1.34,2.71-2.46,4-3.76,1.07-1.07,1.87-.91,2.87.16s.72,2-.35,2.89c-1.43,1.13-2.84,2.3-4.35,3.34-1.76,1.2-1.74,2.33-.61,4.11s2.24,2.07,3.95.88,3.4-2.07,5-3.2c1.09-.75,1.75-.57,2.38.53s1.13,2.05-.44,2.84c-1.78.89-3.5,1.92-5.24,2.88C592.29,196.18,592.43,197.67,594,199.34Z" transform="translate(-184.14 -130.97)"/><path class="cls-3" d="M880.15,251.7c-2.29-4-5.55-7.39-6.84-12-2.86-10.19,1-21.51,9.54-27.34a24.83,24.83,0,0,1,29.68.73c8.7,7,11.92,18.1,8.15,28.15a24.87,24.87,0,0,1-24.81,16.34c-1.32-.07-2.63-.23-4-.34a4.27,4.27,0,0,1-2.76.45,54.58,54.58,0,0,1-6.27-3A5.87,5.87,0,0,1,880.15,251.7Z" transform="translate(-184.14 -130.97)"/><path class="cls-3" d="M951.29,309.58c-15.66,5.32-26.52-.18-34.36-17.42-2.18-2.67-1.49-5.47-.35-8.29,3.91-14.7,12.14-22,24.88-22.05a24.71,24.71,0,0,1,17.47,42.59c-1.3,1.28-2.66,2.49-4,3.73C954.21,309.85,952.66,309.48,951.29,309.58Z" transform="translate(-184.14 -130.97)"/><path class="cls-4" d="M854.11,322.06c-1.85-3.09-5-4.93-7.05-8-5.4-8.19-6.27-16.67-1.52-25.06s12.16-13.26,22.25-13.12c1.65,0,3.31,0,5,0,1.46-.92,2.77-.35,4.08.37A11.16,11.16,0,0,1,878,277c.91,1.17,3.39.69,3.2,3a68.58,68.58,0,0,1,9.84,12.9c1.45,1.22,2.24,2.61,1.15,4.48-1,9.6-3.63,18.43-12.62,23.72-5,2.95-10.34,4.95-16.34,3.24A2.05,2.05,0,0,0,861,325C857.94,325.74,855.71,324.64,854.11,322.06Z" transform="translate(-184.14 -130.97)"/><path class="cls-5" d="M239.8,560.2c-5.16-1.52-10.6-2.36-14.89-6l-5.81-5c-1.07.35-2.14.72-2-1.11,1.67-3.29-.84-6-1.52-8.83-2.8-11.6,7.4-27.65,21.76-28.38,2.47-.13,5-.05,7.44-.07,4.59-1.54,7.8.27,10.16,4.18.61,3.2,3.72,4.5,5.31,7,10.12,16.07-.69,33.1-15,37-1.06.29-2.4-.19-3.14,1.06A1.94,1.94,0,0,1,239.8,560.2Z" transform="translate(-184.14 -130.97)"/><path class="cls-5" d="M345,535c0,.36-.08.73-.11,1.09-4.1,2.68-6,7.39-10.17,10.25-5.63,3.84-11.36,4.27-17.58,3.4-1.14-.16-2.17-.81-3.16.24-.39.6-.76.59-1.1,0-.54-2.78-3.42-2.79-5.12-4.18-8.79-7.22-12.86-15.84-9.32-27.23a21.25,21.25,0,0,0,.43-4.4,13.86,13.86,0,0,1,9.32-10.33c1.92.54,3.6-.35,5.28-1,4.77-1.77,9.61-2.56,14.43-.46,2.38,1,3.69,0,5-1.62l1.17,2.15c.86,1.8,4.63.85,3.91,4.14-1.13.89-3.78.82-2.74,3.14,1.27,2.86,3.75,0,5.58.7a3.28,3.28,0,0,1,2.28,4c-1.27,2-6.66,0-5,4.16,1.21,3.16,4.13-.56,6.33-.13a1.69,1.69,0,0,0,.5,0,31.33,31.33,0,0,1,3.92,4.14c-1.49,1.63-3.82.62-5.5,1.78-1.22.84-3.45.8-2.28,3.33,1,2.19,2.33,1,3.64.49.46-.19.92-.35,1.38-.53C347.28,530.61,346.5,532.84,345,535Z" transform="translate(-184.14 -130.97)"/><path class="cls-5" d="M874.92,382.27c-.79.12-2-.06-2.3.4-5.82,7.68-13.44,11-23,9.78-.25,0-.56.31-.84.48-1.17.56-1.92-.13-2.65-.89A96.22,96.22,0,0,1,834,382.11c-4.25-3.78-3.89-9.15-4.88-14.06-.33-4,.3-7.59,3.84-10.09,5.75-5.47,11.16-11.48,19.84-12.18,1.8-1,3.59-1.41,5.3.19,6.55,2.85,12.7,6,16.17,12.9,3,5.94,4,11.85,1.44,18.11a8,8,0,0,0-.49,3.89A1.06,1.06,0,0,1,874.92,382.27Z" transform="translate(-184.14 -130.97)"/><path class="cls-5" d="M256.09,493c-1.28-3.45-4.3-5.69-6-9-4.25-8.44-2.9-19.69,5.87-27.29a5,5,0,0,0,.84-1.65c0-1.77,1-1.69,2.26-1.26a40.86,40.86,0,0,1,17.51-3c.57-.51,1-.43,1.42.24.05,1.44,1.26,1.79,2.24,2.33,11.8,6.63,15.72,16.43,11.55,29.2A16.67,16.67,0,0,0,291,487c-.84,2.22-1.55,4.55-4.25,5.29-.8.08-1.78-.11-2.38.29a27,27,0,0,1-22.08,3.67C259.4,496.77,257.48,495.4,256.09,493Z" transform="translate(-184.14 -130.97)"/><path class="cls-5" d="M768.12,375.19a132.73,132.73,0,0,0-5.87-20c-.63-1.77-1.07-3.12,1.27-4.42C775.72,344,787.78,337,799.89,330c.33,2,2,3,3.2,4.32,4.3,5,7.48,10.48,7.13,17.42-.07,1.43-.48,3,.76,4.26,1.52,3.12-.07,5.68-1.47,8.28-2,2-3.69,4.29-5.59,6.38-6.51,7.17-18,12.55-29.89,7.1C772.07,376.89,769.85,376.6,768.12,375.19Z" transform="translate(-184.14 -130.97)"/><path class="cls-6" d="M789.84,431.19l7.24-.08c.64,2.48,3.23,3.09,4.65,4.87,2.95,3.69,3.27,7.79.53,11.37-3.57,4.66-8.62,6.13-13.12,3.82-4-2.08-6.41-7-5.38-11.1.41-1.58.71-3.19,1.06-4.79-.53-1,0-1.76.62-2.48C786.71,431.73,788.42,431.87,789.84,431.19Z" transform="translate(-184.14 -130.97)"/><path class="cls-7" d="M252.69,447.21c-3.32-.32-6.54,1.62-10.05-.63-5.23-3.36-7-8.4-4.07-13.91,2.65-4.92,8.24-7.05,12.5-4.76,6.08,3.27,8.2,8.92,5.19,14.35a7.31,7.31,0,0,0-1.23,3.67C254.62,447,254,447.67,252.69,447.21Z" transform="translate(-184.14 -130.97)"/><path class="cls-7" d="M964.4,324.87c4.88-.15,9.8-.09,13.14,4.19,2.47,3.16,3.55,7,1.14,10.58-2.21,3.32-5.13,6.55-9.54,6.18s-7.21-3.42-9.3-7.28c-2.48-4.59,1.39-7.77,2.22-11.62C962.73,326.11,963,324.82,964.4,324.87Z" transform="translate(-184.14 -130.97)"/><path class="cls-7" d="M890.92,394.06c3.78-2.88,7.74-2.77,11.49-.18,3.34,2.3,5.3,5.76,4.52,9.82a10.63,10.63,0,0,1-8.84,8.91c-6,1.26-13.09-5.92-11.6-11.84q.74-2.86,1.45-5.73C888.67,393.91,890.12,395,890.92,394.06Z" transform="translate(-184.14 -130.97)"/><path class="cls-6" d="M309.9,565.91c.09,2.16,2.29,2.63,3.36,4.05,3.17,4.21,3,8.2.1,12.24a10.25,10.25,0,0,1-11.88,3.61c-3.93-1.66-7-6.62-6.58-10.7.38-3.88,4.58-8.36,8.69-9.17,1.27-.25,2.69.14,3.73-1C308.68,563.94,309.27,565,309.9,565.91Z" transform="translate(-184.14 -130.97)"/><path class="cls-7" d="M277.1,444.18a49.13,49.13,0,0,1-3.72-5.22c-2.83-5.25-1.17-10.82,3.87-13.68s11.14-.76,14.41,4.87c2.15,3.7.35,9.75-3.89,12.55a13.09,13.09,0,0,1-8.43,2.45C278.14,445.86,277.66,444.93,277.1,444.18Z" transform="translate(-184.14 -130.97)"/><path class="cls-7" d="M210.88,503.23c-4,1.25-7.87,3.15-12.22.31S192,495.33,194,490.9c2.14-4.74,8.86-7.67,13.31-5.8a10.66,10.66,0,0,1,6,12.62c-.43,1.41-.8,2.85-1.19,4.27C212.31,503,211.82,503.35,210.88,503.23Z" transform="translate(-184.14 -130.97)"/><path class="cls-7" d="M243.87,574.13c3.7,1.51,7.89,1.88,10.18,6.13,2.91,5.38,1.59,10.83-4.07,14.31-3.75,2.29-10.24.8-12.8-3-3.3-4.84-2.31-11.34,2.23-14.47,1.29-.9,3.28-.94,3.59-3C243.28,573.74,243.57,573.71,243.87,574.13Z" transform="translate(-184.14 -130.97)"/><path class="cls-7" d="M205.1,564.84c.07,5.1-5,10.29-10.15,10.28s-10.52-4.88-10.8-9.81S190,554.16,195,554.17,205,559.66,205.1,564.84Z" transform="translate(-184.14 -130.97)"/><path class="cls-7" d="M348,565.32c-.19,4.83-6.35,10.87-10.82,10.62-4.67-.26-10.51-6.66-10.24-11.22.28-4.72,5.72-9.92,10.26-9.8C342.6,555.06,348.22,560.47,348,565.32Z" transform="translate(-184.14 -130.97)"/><path class="cls-7" d="M830,420c1.48-4,.69-8.1,1.1-12.15a18.92,18.92,0,0,1,13.91-2.84L845,405a12.64,12.64,0,0,0,1.3,2.57c5.13,6.13,5.16,10.07,0,14.82-4.57,4.22-9.44,3.84-14.71-1.13C831.11,420.8,830.56,420.44,830,420Z" transform="translate(-184.14 -130.97)"/><path class="cls-7" d="M756,301c-3.67,2.92-7.86,5-12,7.07-7.73-3.78-10.78-9.71-7.66-14.94,2.56-4.31,7.49-6.94,11.09-5.93a11.66,11.66,0,0,1,8.61,11.31C756.09,299.31,756.05,300.14,756,301Z" transform="translate(-184.14 -130.97)"/><path class="cls-7" d="M330,427l2.07.1c1.49,1.47,4.34,1.81,4,4.81-2.17.85-6.39-1.48-6.39,1.45,0,3.69,4.18,1.35,6.45,1.69,2,.3,3.11.94,3.25,2.88.18,2.63-1.94,1.8-3.35,2.24-2.24.71-6.44-2.15-6.5,1.64,0,3.57,4.32,1.24,6.56,2.09a6,6,0,0,1,1.18.8c.15,3.2-3.32,1.78-4.38,3.42-2.79-.06-3.35,1.54-2.94,3.89-1.21-1.86-1.67-3.87-4.76-4.5-5-1-8.74-7-8-11C318,432.11,323.19,426.3,330,427Z" transform="translate(-184.14 -130.97)"/><path class="cls-8" d="M286.77,492.25c1.41-1.77,2.2-4,4.25-5.29l17.21,16.8a56.42,56.42,0,0,0-9.31,10.33C295,506.76,290.1,499.93,286.77,492.25Z" transform="translate(-184.14 -130.97)"/><path class="cls-9" d="M329.07,457.16c-.22,2.51,1.13,3.11,3.35,2.93,1.82-.15,3.65-.06,5.47,0,1.44,0,2,.79,2.09,2.2s-.35,2.62-2.12,2.66c-2,.05-4,.08-6,.18-1.22.06-2.45.32-2.2,2,.2,1.41,1.27,1.84,2.57,1.71,1.8-.18,3.6-.44,5.41-.61s2.37.67,2.42,2.33-.51,2.49-2.22,2.55c-2,.07-4,.16-5.94.37a1.82,1.82,0,0,0-1.78,2c.06,1.34,1,1.57,2.08,1.56,1.82,0,3.65-.06,5.46-.23,1.44-.13,3-1,3.26,1.53.26,2.28-1.11,2.43-2.79,3.13-2.38,1-5.87-1.05-7.24,2.58-6.29-9-9.06-18.28-2.08-28.27A1,1,0,0,1,329.07,457.16Z" transform="translate(-184.14 -130.97)"/><path class="cls-8" d="M830,367.91l-21-4c.68-2.62,1.36-5.25,2-7.87,7.32.63,14.7.55,21.95,1.93C831.47,361.14,829.85,364.26,830,367.91Z" transform="translate(-184.14 -130.97)"/><path class="cls-8" d="M256.09,493l6.22,3.2q-3.69,9.36-7.37,18.73c-3.1-2.11-6.22-4.15-10.16-4.17Z" transform="translate(-184.14 -130.97)"/><path class="cls-8" d="M892.17,297.4c-.38-1.5-.77-3-1.15-4.48l25.56-9.05c.11,2.76.23,5.53.35,8.29Z" transform="translate(-184.14 -130.97)"/><path class="cls-8" d="M858.07,346l-5.3-.19q.66-11.86,1.34-23.72L861,325C860.13,332,859.81,339.07,858.07,346Z" transform="translate(-184.14 -130.97)"/><path class="cls-10" d="M877,277l-4.28-1.17q3.71-12.07,7.4-24.14a5.32,5.32,0,0,1,3,2.33c1,1.34.73,2.8.41,4.27-1.18,5.3-2.84,10.48-4.22,15.72A3.83,3.83,0,0,1,877,277Z" transform="translate(-184.14 -130.97)"/><path class="cls-6" d="M808,308.1l-10.1-16c5.21-.56,8.86,1.75,11.31,6.2C811.18,301.85,811,305.15,808,308.1Z" transform="translate(-184.14 -130.97)"/><path class="cls-11" d="M881.18,280c-.83-1.64-3.26-.25-4-2.11,3.93-5.05,5.41-11.29,8.25-16.87.84-1.65.82-4.09,3.52-4.2l2.94.4Z" transform="translate(-184.14 -130.97)"/><path class="cls-12" d="M890.92,394.06c-.68,1.28-1.94.81-3,1-5.06-3.52-9.82-7.35-13-12.77l.27-1.4c4.59,2.26,7.22,6.69,11,9.87C887.65,392,888.63,394,890.92,394.06Z" transform="translate(-184.14 -130.97)"/><path class="cls-13" d="M329.07,457.16c-.07-.49-.15-1-.22-1.47L330,452c2.12,0,4.25-.1,6.37-.07,1.58,0,3.52-.33,3.44,2.24-.07,2.21-1.77,2.56-3.43,2.69C334,457,331.51,457.06,329.07,457.16Z" transform="translate(-184.14 -130.97)"/><path class="cls-14" d="M964.4,324.87l-2.34,2.05c-3.5-5.84-5.64-12.53-10.78-17.34l3.66-1.44C957.21,314.21,961.56,319.11,964.4,324.87Z" transform="translate(-184.14 -130.97)"/><path class="cls-15" d="M333.7,494.17c2.12-.38,4.24-.77,6.36-1.12,1.47-.24,2.63,0,2.85,1.83s0,2.9-2.07,3.13c-2.63.3-5.23.84-7.85,1.28C333.23,497.59,333.46,495.88,333.7,494.17Z" transform="translate(-184.14 -130.97)"/><path class="cls-16" d="M331.29,484.92h6.85c1.59,0,3.45-.48,3.7,2s-1.52,2.88-3.43,3c-1.14.07-2.28.12-3.43.18C335.75,487,332.61,486.58,331.29,484.92Z" transform="translate(-184.14 -130.97)"/><path class="cls-17" d="M243.87,574.13h-.43l-.44,0c-2-4.43-2-9.32-3.2-13.95l2.33-.14A72.39,72.39,0,0,1,243.87,574.13Z" transform="translate(-184.14 -130.97)"/><path class="cls-8" d="M309.9,565.91l-2.58-.95,5.6-15.06,1.1,0Q312,557.93,309.9,565.91Z" transform="translate(-184.14 -130.97)"/><path class="cls-18" d="M252.69,447.21l2.34-1.28a32,32,0,0,1,4.06,7.89l-2.26,1.26C255.05,452.66,253.3,450.24,252.69,447.21Z" transform="translate(-184.14 -130.97)"/><path class="cls-19" d="M217.1,548l2,1.11c-3.37,1.73-6.17,4.8-11.47,4.67C210.81,550.69,213.65,548.9,217.1,548Z" transform="translate(-184.14 -130.97)"/><path class="cls-20" d="M210.88,503.23c.41-.42.83-.83,1.24-1.24l4.65,5.78C213.48,507.63,211.86,505.79,210.88,503.23Z" transform="translate(-184.14 -130.97)"/><path class="cls-21" d="M786.12,433.11c-.43.72-.86,1.45-1.3,2.17a11.36,11.36,0,0,1-4.7-4.15l4.21,0C784.92,431.82,786.77,431.32,786.12,433.11Z" transform="translate(-184.14 -130.97)"/><path class="cls-8" d="M846.1,392l2.65.89c-.59,2.15-1.19,4.31-1.79,6.46l-.86-.07Z" transform="translate(-184.14 -130.97)"/><path class="cls-22" d="M277.1,444.18l2.24,1c.44,2.18-.52,4-1.32,5.94l-1.41-.23C276.77,448.63,276.94,446.41,277.1,444.18Z" transform="translate(-184.14 -130.97)"/><path class="cls-23" d="M845.05,405.05c.06-1.3-.61-2.75,1-4.22.45,1.91.19,3.15-1,4.16Z" transform="translate(-184.14 -130.97)"/><path class="cls-6" d="M598.86,491.83c-2.38-8.61,1.32-12.83,9.14-16.15,2.62.83,5.15,1.59,7.27,3.69,3.52,3.49,5.16,7.05,2.46,11.75a9.79,9.79,0,0,0-.68,2.82C610.83,494.58,604.85,493.18,598.86,491.83Z" transform="translate(-184.14 -130.97)"/><path class="cls-7" d="M672.09,339.11c-.16,5-3.82,6.71-7.72,7.71-4.11,1.06-7.66-.88-10-4.06s-3.29-7.22-.68-11.06a31.22,31.22,0,0,1,2.23-2.67A45.79,45.79,0,0,1,672.09,339.11Z" transform="translate(-184.14 -130.97)"/><path class="cls-6" d="M573.91,466.87c6.1,7,6.63,9.83,3.08,16.19-6-3.24-11.8-6.65-16.07-12.13,2.73-4.45,7.11-5.05,11.75-5.08C573.43,465.76,573.52,466.5,573.91,466.87Z" transform="translate(-184.14 -130.97)"/><path class="cls-6" d="M587.19,327.19c2.15,4.13-1.86,7.88-.74,11.94-5.06,2.54-10.12,5.15-15.57.89-1.57.24-2.37-.74-3-1.94-.12-2.35,1.23-2.78,3.18-2.41,2.71,1.23,3.94.3,3.82-2.62C578.74,330.62,582.68,328.31,587.19,327.19Z" transform="translate(-184.14 -130.97)"/><path class="cls-24" d="M695.68,366c-4.61,5.39-6.91,12.15-10.65,18.06-2.15.55-3.54-.33-4.35-2.3,3.16-7.52,8.82-13.66,11.73-21.32Z" transform="translate(-184.14 -130.97)"/><path class="cls-8" d="M611.76,348.83q0-13.83.1-27.67l1.86-.07L613,349A.82.82,0,0,1,611.76,348.83Z" transform="translate(-184.14 -130.97)"/><path class="cls-25" d="M686,460l.87,1.21c-1.11,2.86-3.44,4.65-5.71,6.47-.16-3.21,4.78-4,3.67-7.63A.71.71,0,0,1,686,460Z" transform="translate(-184.14 -130.97)"/><path class="cls-26" d="M786.12,433.11c-.6-.65-1.2-1.29-1.79-1.94l5.51,0A7.25,7.25,0,0,1,786.12,433.11Z" transform="translate(-184.14 -130.97)"/><path class="cls-27" d="M354,445.18c-1.07-44.26,7.64-88,20.5-131.12,9.28-31.09,19.05-62,31.63-92a182.84,182.84,0,0,1,29.49-48.44c12.36-14.44,28.33-19.94,46.43-18.27,31.33,2.9,59.75,14.45,85.11,32.89,13.95,10.15,19.11,24.67,18.25,42-1,20-6.71,38.56-14.67,56.66a492.29,492.29,0,0,1-28.52,56c-14.42,24-20.16,49.66-18.23,77.4.92,13.27,1.53,26.59,1.63,39.9.14,19-1.85,37.79-7.37,56.18-6.13,20.41-19,34-39,40.87a121.86,121.86,0,0,1-60,5.25c-26.54-4.27-56.22-31.2-61.23-62.7A288.66,288.66,0,0,1,354,445.18Z" transform="translate(-184.14 -130.97)"/><path class="cls-8" d="M548.32,408.43c3.95,5.25,10.24,6.25,15.75,8.68.46,4.17-1.85,7.19-4.24,10.18l-13.68-9.07c1-.26,2.74-.1,2.35-1.72-.61-2.56-3-.83-4.51-1.48-2.87-4.95,1.9-4,4-5.13Z" transform="translate(-184.14 -130.97)"/><path class="cls-28" d="M345,535c-.28-2.38.55-4.6,1-6.87,1.12-.65,2.23-1.33,3.38-1.94,1.9-1,2.61.28,3.33,1.71s1.26,2.72-.73,3.64C349.69,532.59,347.71,534.47,345,535Z" transform="translate(-184.14 -130.97)"/><path class="cls-29" d="M571,335.67c-1.24.57-2.57,1-3.18,2.41-1.23-.35-2.49-.62-3.69-1.06-1.51-.55-1.94-1.57-1.09-3,.7-1.23,1.44-2.25,3-1.37S569.78,334,571,335.67Z" transform="translate(-184.14 -130.97)"/><path class="cls-30" d="M548,409.89c-1.58,1.51-5,1.59-4,5.13-1.16,0-2.31.09-3.47.08s-2.35-.1-2.5-1.71.5-2.65,2.05-2.84C542.69,410.23,545.32,410.1,548,409.89Z" transform="translate(-184.14 -130.97)"/><path class="cls-31" d="M336.07,431.89c-.58-2.25-3.71-2.35-4-4.81a37.93,37.93,0,0,1,4.39-.19c1.83.12,4-.28,3.8,2.93C340,433.3,337.86,432,336.07,431.89Z" transform="translate(-184.14 -130.97)"/><path class="cls-32" d="M544.16,450.28q1,2.36,2,4.71a13.32,13.32,0,0,1-2.44.05c-1.7-.29-4.48,1.09-4.55-2.05C539.11,449.45,541.88,450.08,544.16,450.28Z" transform="translate(-184.14 -130.97)"/><path class="cls-33" d="M343.13,514.87l-2.28-4c1.67-1.14,3.74-2.85,5.25-.6C348.06,513.18,347.11,515.23,343.13,514.87Z" transform="translate(-184.14 -130.97)"/><path class="cls-34" d="M338,507c-.38-2.26-3.89-1.55-3.91-4.14L341,501.7c1.6,1.63,1.2,3.29.1,5Z" transform="translate(-184.14 -130.97)"/><path class="cls-35" d="M544.06,403.09l-.09,4c-.81,0-1.63.12-2.44.08-1.54-.07-3.49.41-3.46-2.17s2.08-1.88,3.55-2A22.09,22.09,0,0,1,544.06,403.09Z" transform="translate(-184.14 -130.97)"/><path class="cls-33" d="M348.84,523c-3.16.37-3.32-2.09-3.92-4.14,1.07-1.27,2.64-2.14,3.67-.64C349.43,519.45,351,521.35,348.84,523Z" transform="translate(-184.14 -130.97)"/><path class="cls-36" d="M341.05,506.67c0-1.65-.06-3.31-.1-5,2.13-1.62,3-.83,3.71,1.54C345.77,507,342.84,506.16,341.05,506.67Z" transform="translate(-184.14 -130.97)"/><path class="cls-37" d="M332.89,448.1c.6-2.24,3.4-1.66,4.38-3.42.72.59,2.51-1.28,2.47,1.1,0,1.33-.4,2.26-1.92,2.28Z" transform="translate(-184.14 -130.97)"/><path class="cls-38" d="M564,340.76c-1.21,1.18-3.16,1.8-3,4-2.33-1-2.26-2.64-1-4.42C561.42,338.08,562.65,340,564,340.76Z" transform="translate(-184.14 -130.97)"/><path class="cls-39" d="M550.08,373.85c1.35.27,3.51.15,3.06,2.07-.51,2.12-2.28.91-3.56.32-.85-.4-1.69-.84-2.53-1.26C548.17,374.9,549.4,375.11,550.08,373.85Z" transform="translate(-184.14 -130.97)"/><path class="cls-4" d="M680.68,381.79l4.35,2.3c.68,3.08,3.31,4.87,5.1,7.1,10.56,13.1,4.48,31.52-8.69,38.84-1.56.86-3.48,1.17-4.42,3a1.36,1.36,0,0,1-1.94.11c-6.18.72-12.41.42-18-2.1-5.28-2.36-9-6.87-11.82-12a25.25,25.25,0,0,1-1.41-22c-1.12-4,.28-6.76,4.25-8.13,3.09-2.07,6-4.44,9.29-6.14a23.3,23.3,0,0,1,18.07-1.91C677.13,381.35,678.8,382.16,680.68,381.79Z" transform="translate(-184.14 -130.97)"/><path class="cls-4" d="M559.83,427.29c.66-3.71,2.78-6.81,4.24-10.18,1.28-.22,2.57-.37,3.52-1.47,5.63-6.43,13-8.22,21.16-7.85,2.41-1.4,4.43-.85,6.14,1.24,2.34,3.5,6.63,4.77,9.09,8.24,6.68,9.44,6.77,19,1,28.84-2.91,2.71-4.63,6.75-8.9,7.93-5.74,3-11.93,3.2-18.2,2.87-1.08.55-1.64-.05-2.07-.93-1.32-2.55-4.29-2.79-6.29-4.51C562.05,445,559.51,436.78,559.83,427.29Z" transform="translate(-184.14 -130.97)"/><path class="cls-4" d="M590,393.92c-2.09-4.79-6.38-8-8.48-13-4.18-10,.92-21.55,8.71-27.55a29.11,29.11,0,0,0,3.81-3.71,73,73,0,0,1,17.77-.82L613,349c3.65,3.58,8.67,5.48,11.46,10.23,3.44,5.85,5.94,11.68,4,18.63-.19.67.3,1.53.48,2.3.53,2.73-.62,4.64-2.92,6-3.43,1.7-5,5.4-8.31,7.38-6.84,4-13.92,4.52-21.39,2.75C593.41,397.51,591.36,396.58,590,393.92Z" transform="translate(-184.14 -130.97)"/><path class="cls-7" d="M652,447.85c.74,2,3.08,2.24,4.23,4,3,4.64,3.33,8.72,0,12.61-2.84,3.29-6.39,5.24-10.92,3.67s-7.66-6.2-7.47-10.52c.19-4.16,4.27-8.76,8.65-9.7,1.27-.27,2.69.15,3.77-.9A1.5,1.5,0,0,1,652,447.85Z" transform="translate(-184.14 -130.97)"/><path class="cls-40" d="M626,386.16c1-2,1.95-4,2.92-6,6.7,2.22,12.9,5.55,19.17,8.7-2.08,2.37-4,4.8-4.25,8.13Z" transform="translate(-184.14 -130.97)"/><path class="cls-41" d="M590,393.92c2,1,4,2.19,6.32,2.37L594.89,409l-6.14-1.23C589.28,403.18,588,398.41,590,393.92Z" transform="translate(-184.14 -130.97)"/><path class="cls-42" d="M596.12,454l8.9-7.93c-.06.32,0,.79-.19.95-4.1,3.26-4.51,7.4-2.91,12a1.45,1.45,0,0,1-.84.84C598.48,458.76,600,454.14,596.12,454Z" transform="translate(-184.14 -130.97)"/><path class="cls-43" d="M608,475.27c-3.33-3-4.4-7-5.06-11.25a.5.5,0,0,1,.85,0C606.6,467.25,607.47,471.2,608,475.27Z" transform="translate(-184.14 -130.97)"/><path class="cls-44" d="M652,447.85l-1.8-.84c.41-1.81.3-3.87,2.29-4.95l.1-.09A8.26,8.26,0,0,1,652,447.85Z" transform="translate(-184.14 -130.97)"/><path class="cls-45" d="M652.87,439c.55-2.14,1.09-4.27,1.64-6.4l1.17.2c-.54,2.08-1.09,4.16-1.63,6.25A.79.79,0,0,1,652.87,439Z" transform="translate(-184.14 -130.97)"/><path class="cls-46" d="M603.83,464l-.43-.05L603,464a7.15,7.15,0,0,1-1.91-4.09l.85-.84C603.19,460.48,603.44,462.27,603.83,464Z" transform="translate(-184.14 -130.97)"/><path class="cls-47" d="M682,449.55a7,7,0,0,1,1.88,5.45c-.27.47-.52.48-.74,0C682.06,453.3,680.68,451.71,682,449.55Z" transform="translate(-184.14 -130.97)"/><path class="cls-48" d="M683.13,455l.74,0c1.38,1.38,1.48,3.31,2.12,5l-1.17.05A7.17,7.17,0,0,1,683.13,455Z" transform="translate(-184.14 -130.97)"/><path class="cls-44" d="M677.11,434.75c1.5,1.55,1.71,3.56,1.95,5.56a3,3,0,0,1-2.09-3.23A1.63,1.63,0,0,1,677.11,434.75Z" transform="translate(-184.14 -130.97)"/><path class="cls-49" d="M679,440.53c1.25.78,1.27,2,1.1,3.23a1.85,1.85,0,0,1-.12,2.33C679.22,444.31,677.6,442.69,679,440.53Z" transform="translate(-184.14 -130.97)"/><path class="cls-8" d="M652.87,439l1.18,0c-.21,1.11.14,2.5-1.44,3l-.1.09A2.58,2.58,0,0,1,652.87,439Z" transform="translate(-184.14 -130.97)"/><path class="cls-44" d="M680,446.09l.12-2.32c1.43,1.54,2,3.26,1,5.29C680.08,448.33,680.08,447.18,680,446.09Z" transform="translate(-184.14 -130.97)"/><path class="cls-50" d="M675.08,433.09,677,433l.09,1.77" transform="translate(-184.14 -130.97)"/><path class="cls-51" d="M575.85,456l2.07.93A11.23,11.23,0,0,1,575,463,7.19,7.19,0,0,1,575.85,456Z" transform="translate(-184.14 -130.97)"/><path class="cls-52" d="M573.91,466.87l-1.24-1A3,3,0,0,1,575,463C574.66,464.26,574.29,465.56,573.91,466.87Z" transform="translate(-184.14 -130.97)"/><path class="cls-53" d="M594,349.39c-2.49-.95-4.26-2.44-4-5.41C593.15,344.42,593.75,346.78,594,349.39Z" transform="translate(-184.14 -130.97)"/><path class="cls-54" d="M590,344c-2.8-.26-3.22-2.15-3-4.45C589.13,340.28,590.37,341.61,590,344Z" transform="translate(-184.14 -130.97)"/><path class="cls-55" d="M423,233.91l1.56-3a2.65,2.65,0,0,1,1.4-2.5,4.26,4.26,0,0,0,1.84-3,1.87,1.87,0,0,1,1.33-1.94l2-2.48c.16-1.08,1.14-1.54,1.73-2.29l2.08-2.59c.16-1.18,1.06-1.61,2-2L439,211.9c.27-1,1.18-1.47,1.9-2.09l2.37-2.66a2,2,0,0,1,1.86-1.3l2.78-2c.5-.86,1-1.76,2.12-1.91l2.77-2a2.78,2.78,0,0,1,2.15-1.62l2.89-1.45c.5-.84,1.05-1.61,2.15-1.67l3.05-1.21a2.7,2.7,0,0,1,2.22-1.22l3.45-1c.65-.83,1.39-1.47,2.56-1l2.9-.84A3.14,3.14,0,0,1,477,189l2.93-.16c.92-.67,1.76-1.59,3.07-.9l3,0a2.35,2.35,0,0,1,3,0h2.76a2.06,2.06,0,0,1,2.82,0,4.44,4.44,0,0,0,3.24,1,3.2,3.2,0,0,1,2.43.92l2.72,2c.51.74,1.84.23,2.08,1.38L507,196.2a2.86,2.86,0,0,1,1.38,2.63l1.52,3.13a2.11,2.11,0,0,1,1,2.13c.07,1,.13,2,.2,3.06.33,1,1.73,1.66,1,3l.93,3.52a2,2,0,0,1,0,2.44l.08,3.67c.11,1-.57,1.64-.92,2.43l-.22,3.6a2.28,2.28,0,0,1-1.11,2.18L509,231a2.94,2.94,0,0,1-2,2l-2.38,2.13a3.27,3.27,0,0,1-2.52,1.64l-2.89,1.43a3.46,3.46,0,0,1-2.35,1l-2.93,1a3,3,0,0,1-2.79,1.63l-2.76,1.36c-.8.52-1.24,1.57-2.35,1.66l-2.8,1.32c-.68.66-1.17,1.57-2.23,1.75l-2.3,2.11c-.55,1.06-1.64,1.32-2.61,1.76l-1.6,2.3a2.87,2.87,0,0,1-1.6,2L471,259a2.19,2.19,0,0,1-1.13,2.24,5.42,5.42,0,0,0-1.63,3.44,2.82,2.82,0,0,1-1.16,2.26l-1,3a3.37,3.37,0,0,1-1,2.44c-.33,1.13-.67,2.25-1,3.38.7,1.22-.44,1.67-1,2.36-.13,1-.27,2.06-.4,3.08s.31,2.06-.73,2.79L461,287a2.88,2.88,0,0,1-1,2.76l-1,3.12a2.42,2.42,0,0,1-1.13,2.18,5.77,5.77,0,0,0-1.73,3.51,1.63,1.63,0,0,1-1.38,1.58l-2.67,2.73c-.43,1-1.32,1.14-2.22,1.31l-2.85,1c-.84.89-1.63,1.94-3,.85h-3.12a2.24,2.24,0,0,1-3,0l-3.08-.3c-.95-.21-2.08.27-2.83-.71l-2.94-.89c-1.31.47-2.18-.26-3-1.1l-3-1a2.38,2.38,0,0,1-2.15-1.11l-3-2.07a5.14,5.14,0,0,1-1.88-1.88L414,294a2.48,2.48,0,0,1-1.1-2.15l-1-3.14A2.92,2.92,0,0,1,411,286c.2-1.68-.06-3.12-1.94-3.72,0-1.23,1.4-1.44,1.81-2.39,0-1.19,0-2.39-.05-3.58a2.08,2.08,0,0,1,.1-2.36l-.08-3.73c-.1-1,.56-1.62,1-2.37l.1-3.59a2.83,2.83,0,0,1,1-2.29l.49-3.07c0-1-.5-2.07.64-2.79.94-.84.92-2,.95-3.09a3,3,0,0,1,1-2.83c.3-1,.61-2.05.92-3.08a2.89,2.89,0,0,1,1-2.31c.44-1,.87-1.92,1.3-2.88a3.19,3.19,0,0,1,1.67-2.89l1-2.92A2.86,2.86,0,0,1,423,233.91Z" transform="translate(-184.14 -130.97)"/><path class="cls-55" d="M546.23,254.86l1.85.37a2.29,2.29,0,0,1,1.81,1.75l1.14,1.24a2.29,2.29,0,0,1,1,1.91L553,262a2.19,2.19,0,0,1,1,2l.2,1.77A3,3,0,0,1,555,268c0,.6.09,1.21.13,1.81a1.86,1.86,0,0,1,0,2.23c0,.61,0,1.21,0,1.82.68,1.14-.49,1.54-.91,2.25-.05.61-.11,1.21-.16,1.81a1.89,1.89,0,0,1-1.07,1.8L551.8,281a4.4,4.4,0,0,1-1.77,1.78L548.86,284a2.35,2.35,0,0,1-2,1.15l-1.49,1c-.63.25-.95,1-1.67,1.07l-1.76.85a2.94,2.94,0,0,1-2.06,1l-1.85.87c-.42.92-1.34.54-2,.78l-1.7.44c-.59.73-1.54.33-2.24.72l-1.26.17c-.69,1-1.84.44-2.72.8l-1.32.2c-.89.85-1.83.59-2.77.11l-1,.08a3.29,3.29,0,0,1-2.27.87h-2.42a1.53,1.53,0,0,1-2.07-.07l-2.09.09c-.48-.42-1-.24-1.49-.07l-2.08-.73a2,2,0,0,1-2.46-.29l-1.89.11a2.71,2.71,0,0,1-2.13-1.07l-1.85.1c-.74-.06-1.07-.79-1.7-1l-1.63-.54a2.39,2.39,0,0,1-2.06-1.46l-1.67-.93a1.53,1.53,0,0,1-1.31-1.31l-1.05-1.72c-.6-.52-1.28-1-1.16-1.95l-.71-1.52c-.9-.84-.63-1.73-.11-2.63,0-.57-.08-1.14-.11-1.71a2,2,0,0,1,.16-2.24c0-.64-.05-1.29-.07-1.94a2.9,2.9,0,0,1,1-2.15c0-.6,0-1.21,0-1.81s.71-1,1-1.62l.62-1.69a2.14,2.14,0,0,1,1.41-2l1-1.75c.3-1,1.31-.68,1.93-1.09l1.3-1.1a1.88,1.88,0,0,1,2.25-.21l2-.57a4,4,0,0,1,1.79-.24l1.86.92a1.92,1.92,0,0,1,2.29,0l1.53.86c.82-.3,1.63-.51,2.24.4l1.79.66a2,2,0,0,1,2.27,0l1.17.51a5.75,5.75,0,0,1,3.31.14L523,262a3.76,3.76,0,0,1,1.39-1c.7-.26,1.4-.5,2.07-.82l1.47-.76,2-1A4.33,4.33,0,0,1,532,258l1.76-.9c.41-.95,1.37-.67,2.08-.93l1.15-.36c.61-.69,1.1-1.65,2.31-1.08l1.79-.74a1.59,1.59,0,0,1,2.14-.11,1.75,1.75,0,0,1,.79.08C545.09,253.49,545.65,254.2,546.23,254.86Z" transform="translate(-184.14 -130.97)"/><path class="cls-56" d="M438,306.08l3,0c-.79,1.91,1.25,5.65-1.88,5.57C436.68,311.56,438.54,308,438,306.08Z" transform="translate(-184.14 -130.97)"/><path class="cls-57" d="M444,306l3-.86a5.55,5.55,0,0,1,0,1.47c-.46,1.67,2.68,4.3-.48,4.85-2.69.47-1.25-3.07-2.31-4.51A2.55,2.55,0,0,1,444,306Z" transform="translate(-184.14 -130.97)"/><path class="cls-58" d="M512.25,222.22a2.11,2.11,0,0,1,.92-2.42c1.8.66,5.42-1,5.21,1.67-.27,3.29-3.38.26-5.16.72A4.46,4.46,0,0,1,512.25,222.22Z" transform="translate(-184.14 -130.97)"/><path class="cls-59" d="M494.67,187.94l-2.82,0c.75-1.88-.91-5.62,2-5.39C496.38,182.7,494.43,186,494.67,187.94Z" transform="translate(-184.14 -130.97)"/><path class="cls-60" d="M489.09,187.91l-3,0c.9-1.85-1.54-5.54,1.68-5.55C490.11,182.39,488.45,186,489.09,187.91Z" transform="translate(-184.14 -130.97)"/><path class="cls-61" d="M483,187.91c-1,.5-1.88,1.18-3.07.9a7.77,7.77,0,0,1,.09-1c.43-1.75-1.32-4.89.84-5C483.24,182.65,482.4,186.08,483,187.91Z" transform="translate(-184.14 -130.97)"/><path class="cls-62" d="M449.91,304.22a2.34,2.34,0,0,1,2.22-1.31c.59,1.84,4.47,3.44,2.1,5.07C451.58,309.79,451.61,305.32,449.91,304.22Z" transform="translate(-184.14 -130.97)"/><path class="cls-63" d="M426.1,303.08l3,1.1c-1.67,1.34-.58,5.78-3.35,4.8S426.88,305.21,426.1,303.08Z" transform="translate(-184.14 -130.97)"/><path class="cls-64" d="M411,286c1.1.64,1,1.71.95,2.75a1.12,1.12,0,0,1-.48,0c-1.83-.66-4.64,2.68-5.28-.22C405.61,285.92,409.41,287.08,411,286Z" transform="translate(-184.14 -130.97)"/><path class="cls-65" d="M491.16,241.79l2.79-1.63a1.72,1.72,0,0,1,0,.5c-.32,2,3.54,4.22.86,5.46C492.73,247.11,492.78,243,491.16,241.79Z" transform="translate(-184.14 -130.97)"/><path class="cls-66" d="M508.41,198.83A3.09,3.09,0,0,1,507,196.2a2.05,2.05,0,0,1,.48-.1c1.91.17,3.9-3.79,5.2-.91C513.74,197.47,509.75,197.37,508.41,198.83Z" transform="translate(-184.14 -130.97)"/><path class="cls-67" d="M507,232.93a3.25,3.25,0,0,1,2-2c.92,1.75,5.12,2.39,3.3,4.48C510,238,509.07,233.38,507,232.93Z" transform="translate(-184.14 -130.97)"/><path class="cls-68" d="M512.13,210.16c-.33-1-.65-2-1-3l1,.23c1.85.42,4.75-2.56,5.3.53C517.74,209.73,514,209.47,512.13,210.16Z" transform="translate(-184.14 -130.97)"/><path class="cls-69" d="M437,214.09a3.46,3.46,0,0,1-2,2c-1.12-1.58-4.75-2.79-3.26-4.43C433.72,209.41,434.91,213.64,437,214.09Z" transform="translate(-184.14 -130.97)"/><path class="cls-70" d="M513.09,216.12c0-.81,0-1.62,0-2.43,1.91,0,5.18-1.9,5.37.51C518.68,217.23,515,215.42,513.09,216.12Z" transform="translate(-184.14 -130.97)"/><path class="cls-71" d="M505.2,259c-.48.93-1.15.51-1.79.24a2.58,2.58,0,0,1,0-.48c.21-1.69-.83-3.62.94-5a.89.89,0,0,1,.87.14C506.58,255.56,505.44,257.27,505.2,259Z" transform="translate(-184.14 -130.97)"/><path class="cls-72" d="M416,250.19c0,1.06.13,2.18-1,2.83-1.39-1.38-5.41-.47-4.54-3.08C411.26,247.52,414,250.68,416,250.19Z" transform="translate(-184.14 -130.97)"/><path class="cls-73" d="M460,289.79c0-1-.11-2.11,1-2.76,1.45,1.34,5.42.67,4.58,3.12S462,289.42,460,289.79Z" transform="translate(-184.14 -130.97)"/><path class="cls-74" d="M502.12,236.7a2.62,2.62,0,0,1,2.52-1.64c.15,2,4.07,3.78,1.68,5.34C504.09,241.87,503.91,237.65,502.12,236.7Z" transform="translate(-184.14 -130.97)"/><path class="cls-69" d="M510.92,228a2.41,2.41,0,0,1,1.11-2.18c.32.08.72.06.94.25,1.16,1,4.58.3,3.39,2.92-1.13,2.47-3-.22-4.56-.56A3.76,3.76,0,0,1,510.92,228Z" transform="translate(-184.14 -130.97)"/><path class="cls-75" d="M425.93,228.39a2.67,2.67,0,0,1-1.4,2.5,7.43,7.43,0,0,1-.78-.57c-1.2-1.11-4.35-1.43-3.21-3.39,1.22-2.11,2.88.85,4.48,1.11A4.38,4.38,0,0,1,425.93,228.39Z" transform="translate(-184.14 -130.97)"/><path class="cls-76" d="M432.86,218.67a2.55,2.55,0,0,1-1.73,2.29c-.6-2-5.19-2.24-3.25-4.69C429.31,214.46,430.91,218.25,432.86,218.67Z" transform="translate(-184.14 -130.97)"/><path class="cls-77" d="M412.94,291.89A2.21,2.21,0,0,1,414,294c-1.85.53-4,3.94-5.2,1.67C407.32,292.93,411.62,293.35,412.94,291.89Z" transform="translate(-184.14 -130.97)"/><path class="cls-78" d="M450.06,201.93a2.8,2.8,0,0,1-2.12,1.91c-.07-.15-.13-.31-.19-.46-.69-1.71-3.75-3.64-2.12-4.78C447.88,197,448.49,200.78,450.06,201.93Z" transform="translate(-184.14 -130.97)"/><path class="cls-62" d="M505.14,193.25c-.86-.21-1.71-.43-2.08-1.38l.41-.28c1.59-1,2.19-5.1,4.48-2.88C510,190.71,506.18,191.69,505.14,193.25Z" transform="translate(-184.14 -130.97)"/><path class="cls-79" d="M471.3,190.76l-2.56,1c.15-2.09-3.27-4.81-.4-5.9C470.39,185.1,470.1,189.13,471.3,190.76Z" transform="translate(-184.14 -130.97)"/><path class="cls-80" d="M500.34,189.87a2.15,2.15,0,0,1-2.43-.92c1-1.64.7-5.47,3.18-4.48C503.74,185.53,500.29,187.93,500.34,189.87Z" transform="translate(-184.14 -130.97)"/><path class="cls-81" d="M421,300.93a2.31,2.31,0,0,1,2.15,1.11c-1.43,1.33-1.23,5.48-3.86,4C417.1,304.8,420.42,302.74,421,300.93Z" transform="translate(-184.14 -130.97)"/><path class="cls-82" d="M477,189c-.67,1.14-1.76,1-2.84,1a2.09,2.09,0,0,1,0-.5c.38-1.8-1.73-4.79.15-5.16C477.18,183.73,475.94,187.42,477,189Z" transform="translate(-184.14 -130.97)"/><path class="cls-83" d="M412.92,262a2.32,2.32,0,0,1-1,2.29c-1.66-.63-5.2.28-4.68-1.89C408,259.43,411,262.7,412.92,262Z" transform="translate(-184.14 -130.97)"/><path class="cls-84" d="M469.88,261.2A2.48,2.48,0,0,1,471,259a1.76,1.76,0,0,1,.4.27c1.18,1.35,4.83,1.72,3.7,3.47C473.73,264.83,471.72,261.72,469.88,261.2Z" transform="translate(-184.14 -130.97)"/><path class="cls-85" d="M411.82,267.85a2.1,2.1,0,0,1-1,2.37,1.6,1.6,0,0,1-.49-.05c-1.56-.54-4.66.65-4.44-1.63.27-2.79,2.91-.21,4.45-.61A6.5,6.5,0,0,1,411.82,267.85Z" transform="translate(-184.14 -130.97)"/><path class="cls-86" d="M555.09,272c0-.74,0-1.48,0-2.23,1.85.76,5.24-2,5.4.58C560.71,273.28,557,271.29,555.09,272Z" transform="translate(-184.14 -130.97)"/><path class="cls-87" d="M497.86,261.09l-1.93,1.08c-.26-.19-.62-.33-.77-.58-.77-1.36-3.92-2.31-2.07-4,2-1.8,2.44,1.57,3.7,2.49A12.32,12.32,0,0,1,497.86,261.09Z" transform="translate(-184.14 -130.97)"/><path class="cls-88" d="M414.05,256.11c-.21.93-.43,1.86-.65,2.79-1.44-1.43-5.5-.29-4.83-2.8C409.28,253.43,412.12,256.54,414.05,256.11Z" transform="translate(-184.14 -130.97)"/><path class="cls-89" d="M549.89,257l-1.81-1.75c2-.59,2.2-5.15,4.33-3.3C554.9,254.09,550.37,255,549.89,257Z" transform="translate(-184.14 -130.97)"/><path class="cls-90" d="M539.32,254.75,537,255.83a2.59,2.59,0,0,1,0-.48c.28-2-3.44-4.42-.88-5.35S538.07,253.16,539.32,254.75Z" transform="translate(-184.14 -130.97)"/><path class="cls-91" d="M481,247.88a2.71,2.71,0,0,1,2.23-1.75c.71,1.85,2.52,3.26,2.64,5.78C482.89,251.66,482.64,249,481,247.88Z" transform="translate(-184.14 -130.97)"/><path class="cls-79" d="M486.05,244.81a2.57,2.57,0,0,1,2.35-1.66,2.47,2.47,0,0,1,.15.46c.25,1.84,3.27,4,1.5,5C487.56,249.93,487.79,245.78,486.05,244.81Z" transform="translate(-184.14 -130.97)"/><path class="cls-92" d="M417.9,244.8a2,2,0,0,1-1,2.31c-1.61-1-5.33-.7-4.41-3.08C413.37,241.84,416,244.67,417.9,244.8Z" transform="translate(-184.14 -130.97)"/><path class="cls-93" d="M496.88,239.12a2.08,2.08,0,0,1,2.35-1c.11,1.94,3.27,4.34,1,5.38C498.12,244.45,498.18,240.57,496.88,239.12Z" transform="translate(-184.14 -130.97)"/><path class="cls-94" d="M420.87,239l-1.67,2.89c-1.12-1.75-5.39-1.39-4.32-3.61C416.15,235.69,418.64,239.79,420.87,239Z" transform="translate(-184.14 -130.97)"/><path class="cls-95" d="M455,198.33a3,3,0,0,1-2.15,1.62c-.5-1.91-4-3.81-2-5.22S453.33,197.28,455,198.33Z" transform="translate(-184.14 -130.97)"/><path class="cls-96" d="M460,195.21a2.78,2.78,0,0,1-2.15,1.67c-.05-.15-.1-.31-.14-.47-.42-1.79-3.33-4-1.59-4.95C458.75,190,458.61,194,460,195.21Z" transform="translate(-184.14 -130.97)"/><path class="cls-97" d="M465.29,192.78a2.44,2.44,0,0,1-2.22,1.22,4.53,4.53,0,0,1-.08-.49c-.13-1.84-3-4.34-1-5.08C464.6,187.43,464.23,191.18,465.29,192.78Z" transform="translate(-184.14 -130.97)"/><path class="cls-98" d="M454.8,300.18l1.38-1.57c.46.18,1.07.25,1.35.58.88,1.09,4,1,2.42,3.29-1.27,1.85-2.51-.4-3.69-1A7.21,7.21,0,0,1,454.8,300.18Z" transform="translate(-184.14 -130.97)"/><path class="cls-99" d="M416.13,297a1.86,1.86,0,0,1,1.88,1.88c-1.86.56-2.3,4.93-4.5,2.86S415.42,298.75,416.13,297Z" transform="translate(-184.14 -130.97)"/><path class="cls-83" d="M432,305.07c1-.07,2.06-.24,2.83.71-1.58,1.36.27,5.55-2.66,4.87C429.67,310.06,432.73,307,432,305.07Z" transform="translate(-184.14 -130.97)"/><path class="cls-100" d="M457.91,295.09a2.29,2.29,0,0,1,1.13-2.18c1.36,1.37,5.41.89,4.3,3.31C462.29,298.48,459.81,295.51,457.91,295.09Z" transform="translate(-184.14 -130.97)"/><path class="cls-101" d="M491.7,283.24c.39.65.78,1.3,1.16,1.95-2.05.21-4.14,4-5.53,1.56C486.15,284.65,490.3,284.66,491.7,283.24Z" transform="translate(-184.14 -130.97)"/><path class="cls-102" d="M462,284c0-1-.21-2,.73-2.79,1.4,1.46,5.46.43,4.77,2.84C466.76,286.65,464,283.38,462,284Z" transform="translate(-184.14 -130.97)"/><path class="cls-103" d="M410.86,279.89c.22,1.43-.55,2.09-1.81,2.38-1.35.12-3.38,1.58-3.83-.43-.55-2.47,1.93-1.39,3.17-1.66A22.21,22.21,0,0,1,410.86,279.89Z" transform="translate(-184.14 -130.97)"/><path class="cls-104" d="M465.14,272.35a2.22,2.22,0,0,1,1-2.44c1.63.92,4,.64,5.05,3.21C468.88,274.12,467.06,272.6,465.14,272.35Z" transform="translate(-184.14 -130.97)"/><path class="cls-105" d="M501.41,259.78l-2.25.21c.38-1.93-3.13-4.61-.08-5.43C501,254.05,500.63,257.93,501.41,259.78Z" transform="translate(-184.14 -130.97)"/><path class="cls-106" d="M472.91,256.08c.07-1,.45-1.84,1.61-2,.94,1.61,3.32,2.13,3.57,4.81C475.66,258.8,474.53,256.94,472.91,256.08Z" transform="translate(-184.14 -130.97)"/><path class="cls-101" d="M476.11,251.75a2.87,2.87,0,0,1,2.61-1.76l3.51,4.62C479,255.4,478.28,252,476.11,251.75Z" transform="translate(-184.14 -130.97)"/><path class="cls-107" d="M546.23,254.86,544,254c1.62-1.3-.2-5.56,2.51-4.77S546.08,252.86,546.23,254.86Z" transform="translate(-184.14 -130.97)"/><path class="cls-108" d="M494.89,263.93l-1.41,2c-1.17-1.6-5.21-1.84-3.87-4C490.79,260.09,492.88,263.62,494.89,263.93Z" transform="translate(-184.14 -130.97)"/><path class="cls-109" d="M555,268a2,2,0,0,1-.85-2.23c2-.17,5.1-2.25,5.52-.56C560.39,268.07,556.35,266.5,555,268Z" transform="translate(-184.14 -130.97)"/><path class="cls-110" d="M546.91,285.13a2,2,0,0,1,2-1.15c.49,1.87,4.22,3.46,2.06,5C549.14,290.24,548.47,286.34,546.91,285.13Z" transform="translate(-184.14 -130.97)"/><path class="cls-111" d="M493.91,286.91l1.31,1.31c-1.56,1.11-2.37,5.08-4.35,3.2S492.82,288.5,493.91,286.91Z" transform="translate(-184.14 -130.97)"/><path class="cls-112" d="M423,233.91a2.12,2.12,0,0,1-1.09,2.2c-1.43-1.3-5.26-1.46-4.24-3.44C418.82,230.39,421,233.68,423,233.91Z" transform="translate(-184.14 -130.97)"/><path class="cls-113" d="M496.89,289.15l2.06,1.46c-1.56,1.2-1.14,4.27-4.36,4.46C494.44,292.56,496.44,291.11,496.89,289.15Z" transform="translate(-184.14 -130.97)"/><path class="cls-114" d="M429.1,223.44l-1.33,1.94c-1.55-1-4.81-2-3.83-3.44C425.68,219.35,427.26,223,429.1,223.44Z" transform="translate(-184.14 -130.97)"/><path class="cls-115" d="M440.93,209.81a2.74,2.74,0,0,1-1.9,2.09c-.27-2.21-4.94-2.88-2.87-5.1C437.61,205.26,439,209.13,440.93,209.81Z" transform="translate(-184.14 -130.97)"/><path class="cls-116" d="M511,204.09a2.29,2.29,0,0,1-1-2.13,2,2,0,0,1,.47-.15c1.74-.08,4-3.1,4.93-.48C516.06,203.47,512.5,203.15,511,204.09Z" transform="translate(-184.14 -130.97)"/><path class="cls-85" d="M467.09,266.9a2.31,2.31,0,0,1,1.16-2.26c1.83.55,3.82.83,5.05,3.1C470.79,269,469.1,266.57,467.09,266.9Z" transform="translate(-184.14 -130.97)"/><path class="cls-117" d="M520.76,294.11a2,2,0,0,1,2.27-.87c-.69,2,.56,4.16-.72,6.36C519.89,298.21,521.19,295.88,520.76,294.11Z" transform="translate(-184.14 -130.97)"/><path class="cls-118" d="M516.27,294.05l2.07.07c0,1.84.84,3.82-.64,5.72C515.53,298,516.67,295.87,516.27,294.05Z" transform="translate(-184.14 -130.97)"/><path class="cls-119" d="M491.88,271.05a2.08,2.08,0,0,1-1,2.15c-1.88-.23-3.86-.17-5.61-1.88C487.63,269.32,489.82,271.64,491.88,271.05Z" transform="translate(-184.14 -130.97)"/><path class="cls-120" d="M554.19,276.11c.31-.75.61-1.5.91-2.25,1.92.37,3.92.47,5.75,1.89C558.67,278.69,556.3,275.47,554.19,276.11Z" transform="translate(-184.14 -130.97)"/><path class="cls-121" d="M521.66,262.52a2.76,2.76,0,0,1-3.32-.14c1.22-1.45.09-3.64,2-5.43C520.8,259,521.23,260.76,521.66,262.52Z" transform="translate(-184.14 -130.97)"/><path class="cls-65" d="M524,293.16l2.77-.11c-.22,1.87.81,3.79-.28,5.87C524,297.67,525.62,294.66,524,293.16Z" transform="translate(-184.14 -130.97)"/><path class="cls-65" d="M508.15,293.05l2.46.29c-.89,1.69.07,3.94-1.89,5.78C507.19,297.06,508.52,294.93,508.15,293.05Z" transform="translate(-184.14 -130.97)"/><path class="cls-122" d="M445.16,205.85l-1.87,1.3c-.76-1.68-4.21-3.21-2.63-4.47C442.81,201,443.62,204.67,445.16,205.85Z" transform="translate(-184.14 -130.97)"/><path class="cls-123" d="M528.13,292.85c.69-1,1.73-.83,2.72-.8.17,1.91.35,3.81.54,6C528.16,297.3,529.61,294.2,528.13,292.85Z" transform="translate(-184.14 -130.97)"/><path class="cls-124" d="M532.11,291.88a2,2,0,0,1,2.24-.72c.48,1.83,1,3.66,1.6,6C532.47,296.25,533.46,293.31,532.11,291.88Z" transform="translate(-184.14 -130.97)"/><path class="cls-125" d="M554,264a2.07,2.07,0,0,1-1-2c1.84-.37,3.33-2.06,5.85-1.42C558,263.1,555.36,262.77,554,264Z" transform="translate(-184.14 -130.97)"/><path class="cls-69" d="M543.75,287.21l1.66-1.07c.44,1.91,2.61,3.24,2.12,5.9C544.83,291.2,544.7,288.88,543.75,287.21Z" transform="translate(-184.14 -130.97)"/><path class="cls-126" d="M550,282.81A1.68,1.68,0,0,1,551.8,281c.69,1.73,3.31,2.23,3.16,4.87C552.43,286,551.74,283.53,550,282.81Z" transform="translate(-184.14 -130.97)"/><path class="cls-127" d="M535.86,256.19l-2.08.93c-1-1.68-2.47-3.18-2.14-5.74C534.3,252.36,534.32,254.93,535.86,256.19Z" transform="translate(-184.14 -130.97)"/><path class="cls-128" d="M463.14,278.09l1-2.36,6.1,1.77C467.34,280.27,465.19,277.58,463.14,278.09Z" transform="translate(-184.14 -130.97)"/><path class="cls-129" d="M552.06,260.13a1.91,1.91,0,0,1-1-1.91c2,.07,3.57-4,5.28-1.28C557.11,258.23,553.54,259,552.06,260.13Z" transform="translate(-184.14 -130.97)"/><path class="cls-130" d="M490.88,279.09c0,.87.08,1.75.11,2.63-1.88,0-3.77.82-6,.07C486.3,278.78,489.36,280.63,490.88,279.09Z" transform="translate(-184.14 -130.97)"/><path class="cls-67" d="M553,279.72a1.88,1.88,0,0,1,1.07-1.8c1.34,1.2,4.9,1.66,4,3.17C556.38,283.71,554.79,280,553,279.72Z" transform="translate(-184.14 -130.97)"/><path class="cls-131" d="M504.13,292.09a2.11,2.11,0,0,1,2.12,1.07c-.42,1.65.18,3.7-2.22,5C503.05,296,504.5,294,504.13,292.09Z" transform="translate(-184.14 -130.97)"/><path class="cls-132" d="M526.77,260.88l-1.75,1c-1.49-.59-1.56-2-1.95-3.27,0-.86-.49-1.7-.12-2.58l2.16-1C526.34,256.81,527.67,258.53,526.77,260.88Z" transform="translate(-184.14 -130.97)"/><path class="cls-68" d="M500.58,291.15l1.7,1c-.41,1.79-.52,3.72-2.57,5C498.38,294.71,500.42,293.06,500.58,291.15Z" transform="translate(-184.14 -130.97)"/><path class="cls-133" d="M539.93,289.07a2,2,0,0,1,2.06-1c0,2,2.1,3.35,1.46,5.84C540.88,293.14,541.15,290.52,539.93,289.07Z" transform="translate(-184.14 -130.97)"/><path class="cls-105" d="M490.93,275.14c-.05.75-.11,1.5-.16,2.24-1.83-.53-3.89.39-5.83-1.05C486.61,273.87,489,275.68,490.93,275.14Z" transform="translate(-184.14 -130.97)"/><path class="cls-134" d="M410.91,274c0,.79-.06,1.57-.1,2.36-1.83-.5-3.89.38-5.83-1C406.54,272.75,409,274.48,410.91,274Z" transform="translate(-184.14 -130.97)"/><path class="cls-135" d="M543.25,253.9l-2.14.11c.21-1.86-.93-3.86.74-5.89C544.08,249.73,542.75,252.07,543.25,253.9Z" transform="translate(-184.14 -130.97)"/><path class="cls-65" d="M532,258a1.94,1.94,0,0,1-1.88,1c-2.37-.95-3.16-2.61-2.3-5C531.13,253.37,530.36,257,532,258Z" transform="translate(-184.14 -130.97)"/><path class="cls-136" d="M509.35,259.93l-2.29,0c1.42-1.55.13-4.33,2.51-5.57C510.94,256.33,509.7,258.11,509.35,259.93Z" transform="translate(-184.14 -130.97)"/><path class="cls-137" d="M527.84,254q1.15,2.5,2.29,5a1.69,1.69,0,0,1-1.94.88,5.48,5.48,0,0,1-2.3-4.88Z" transform="translate(-184.14 -130.97)"/><path class="cls-138" d="M492.86,267.62l-1,1.62c-1.69-.65-3.74-.65-5-2.71C489.36,265.32,491,267.34,492.86,267.62Z" transform="translate(-184.14 -130.97)"/><path class="cls-139" d="M536.05,290.72l2-.78c.55,1.74,1.8,3.32,1.38,5.74C536.83,294.72,537.34,292.08,536.05,290.72Z" transform="translate(-184.14 -130.97)"/><path class="cls-140" d="M513.12,261.19l-2.24-.4c1.48-1.46.73-4.09,3-5.54C514.94,257.55,513.71,259.34,513.12,261.19Z" transform="translate(-184.14 -130.97)"/><path class="cls-141" d="M512.69,294.07c.53-.63,1-.7,1.49.07-.27,1.71.48,3.58-.9,5.43C511.19,297.8,512.86,295.82,512.69,294.07Z" transform="translate(-184.14 -130.97)"/><path class="cls-142" d="M525.89,255.05l2.3,4.88-1.42.95c-.55-1.94-2.19-3.57-1.66-5.82A3.39,3.39,0,0,1,525.89,255.05Z" transform="translate(-184.14 -130.97)"/><path class="cls-108" d="M517.18,261.87l-2.27,0c.43-1.57.85-3.13,1.27-4.7,2.42.36.94,2,1,3.07Z" transform="translate(-184.14 -130.97)"/><path class="cls-143" d="M517.16,260.22c-.26-1.05.13-2.3-1-3.07.17-.73.84-1.27,1.27-.75C518.5,257.64,518.06,259,517.16,260.22Z" transform="translate(-184.14 -130.97)"/><path class="cls-144" d="M523.77,258.21c.42,1.22.84,2.45,1.25,3.68l-2,.09c0-.61-.09-1.22-.13-1.83C522.56,259.22,522,258.15,523.77,258.21Z" transform="translate(-184.14 -130.97)"/><path class="cls-145" d="M523.77,258.21l-.92,1.94c-.79-1.39-1.65-2.78.1-4.11C523.23,256.76,523.5,257.48,523.77,258.21Z" transform="translate(-184.14 -130.97)"/><path class="cls-146" d="M495.92,216.46c0,2.37-1.91,5.06-5.37,6.74-4,2-8,4-12.06,5.92-12.66,5.94-20.75,15.7-24.7,29.07-2.11,7.16-4.42,14.27-6.82,21.34-2.46,7.28-8.29,9.9-14.82,7-4.23-1.89-6.2-5.54-5.72-9.63,3.41-29.18,20.8-60.77,53.39-72.27C489.21,201.3,495.9,205.54,495.92,216.46Z" transform="translate(-184.14 -130.97)"/><path class="cls-147" d="M516.77,283.13c-4.46-.09-9,.28-13.29-1.47-3.53-1.44-4.09-4.18-3-7.36s3.11-4.71,6.53-3.39c10.69,4.13,20.5,1.73,30-3.82,2.57-1.5,5.7-4.19,8.23-.19,2.31,3.64.44,6.66-2.6,9C535,281.9,526.21,283.69,516.77,283.13Z" transform="translate(-184.14 -130.97)"/></svg>