<svg xmlns="http://www.w3.org/2000/svg" viewBox="0 0 390.25 125.21"><defs><style>.cls-1{fill:none;stroke-width:5px;}.cls-1,.cls-2{stroke:#000;stroke-miterlimit:10;}.cls-2{stroke-width:3px;}</style></defs><title>Asset 9intermediateconstruction_2</title><g id="Layer_2" data-name="Layer 2"><g id="Layer_1-2" data-name="Layer 1"><line class="cls-1" y1="87.73" x2="390.25" y2="87.73"/><line class="cls-1" x1="62.04" y1="18.73" x2="62.04" y2="88.73"/><line class="cls-1" x1="24.54" y1="16.4" x2="99.54" y2="16.4"/><path class="cls-2" d="M299.41,87.56H248.56c0-12.16,11.38-22,25.42-22S299.41,75.4,299.41,87.56Z"/><path class="cls-1" d="M123.4,86.56v-70h75"/><polygon points="180.09 33.13 204.02 16.56 180.09 0 180.09 33.13"/><path d="M240.4,100.21q.65-.12,1.38-.21c.5-.07,1-.12,1.49-.16s1-.06,1.44-.08l1.29,0a14.35,14.35,0,0,1,2.7.25,7.41,7.41,0,0,1,2.38.87,4.62,4.62,0,0,1,1.68,1.69,5.3,5.3,0,0,1,.63,2.71,6.41,6.41,0,0,1-1.12,3.92,5.89,5.89,0,0,1-3,2.1l1.38.86,4.48,7.48H250.7l-4.45-7.67-2-.37v8H240.4Zm5.88,2.94c-.39,0-.78,0-1.16,0a5.07,5.07,0,0,0-.89.11V109h1.63a4.09,4.09,0,0,0,2.55-.73,2.85,2.85,0,0,0,1-2.41,2.51,2.51,0,0,0-.79-2A3.26,3.26,0,0,0,246.28,103.15Z"/><path d="M270.44,104.57a6.08,6.08,0,0,1-.18,1.46,3.91,3.91,0,0,1-.6,1.33,4.41,4.41,0,0,1-1.09,1.06,4.75,4.75,0,0,1-1.63.69v.17a6.7,6.7,0,0,1,1.6.47,4.06,4.06,0,0,1,1.31.93,4.23,4.23,0,0,1,.89,1.43,5.63,5.63,0,0,1,.32,2,5.12,5.12,0,0,1-.65,2.62,5.32,5.32,0,0,1-1.72,1.81,7.93,7.93,0,0,1-2.45,1,11.54,11.54,0,0,1-2.83.34H262.2c-.5,0-1,0-1.6,0s-1.15-.07-1.74-.13a12.1,12.1,0,0,1-1.61-.25V100.15l1.22-.17,1.47-.14c.52,0,1.06-.06,1.61-.08l1.64,0a16.69,16.69,0,0,1,2.67.21,7.77,7.77,0,0,1,2.33.74,4.07,4.07,0,0,1,2.25,3.89Zm-8.26,3.67.91,0a7.94,7.94,0,0,0,.86-.08,5,5,0,0,0,1.83-1,2.19,2.19,0,0,0,.77-1.74,2.26,2.26,0,0,0-.28-1.19,2,2,0,0,0-.74-.75,3,3,0,0,0-1-.39,7,7,0,0,0-1.23-.11q-.74,0-1.35,0a8.27,8.27,0,0,0-.95.08v5.18Zm1.26,8.43a5.57,5.57,0,0,0,1.36-.17A3.5,3.5,0,0,0,266,116a2.59,2.59,0,0,0,.81-.87,2.39,2.39,0,0,0,.31-1.25,2.51,2.51,0,0,0-.36-1.44,2.55,2.55,0,0,0-1-.82,3.91,3.91,0,0,0-1.31-.37,11.92,11.92,0,0,0-1.46-.09h-2v5.35a1.58,1.58,0,0,0,.45.09l.65,0,.73,0Z"/><path d="M282.26,114.35a1.82,1.82,0,0,0-.66-1.46,7.53,7.53,0,0,0-1.65-1c-.67-.31-1.38-.63-2.16-1a11,11,0,0,1-2.15-1.21,6.14,6.14,0,0,1-1.66-1.78,5.06,5.06,0,0,1-.65-2.71,5.93,5.93,0,0,1,.47-2.48,4.69,4.69,0,0,1,1.36-1.75,5.86,5.86,0,0,1,2.09-1,10.09,10.09,0,0,1,2.68-.33,17.37,17.37,0,0,1,3.22.29,8,8,0,0,1,2.49.86l-1.2,3.21a7,7,0,0,0-1.85-.71,10.66,10.66,0,0,0-2.66-.32,3.41,3.41,0,0,0-2.05.53,1.69,1.69,0,0,0-.72,1.43,1.76,1.76,0,0,0,.66,1.4,7.94,7.94,0,0,0,1.65,1c.66.31,1.38.64,2.16,1a12.2,12.2,0,0,1,2.15,1.22,6.06,6.06,0,0,1,1.65,1.77,4.83,4.83,0,0,1,.66,2.62,6.57,6.57,0,0,1-.51,2.7,5.34,5.34,0,0,1-1.46,1.89,6.19,6.19,0,0,1-2.27,1.12,11.17,11.17,0,0,1-2.92.36,15.62,15.62,0,0,1-3.7-.39,10.66,10.66,0,0,1-2.35-.79l1.23-3.27a7.23,7.23,0,0,0,.8.36,9.41,9.41,0,0,0,1.1.37c.41.11.85.2,1.3.28a9.39,9.39,0,0,0,1.42.11,5,5,0,0,0,2.62-.57A2,2,0,0,0,282.26,114.35Z"/><path d="M300.79,116.92a3.59,3.59,0,0,0,2.65-.92,3.08,3.08,0,0,0,.91-2.24,2.85,2.85,0,0,0-1-2.36,4.87,4.87,0,0,0-3-.75h-2v-1.93l3.38-4.62,1.6-1.26-2.21.25h-4.71V100h10.7v2l-3.95,5.29-1.23.76v.14l1.17-.17a5.89,5.89,0,0,1,1.87.45,4.49,4.49,0,0,1,1.54,1,5,5,0,0,1,1.05,1.69,6.41,6.41,0,0,1,.39,2.32,6.79,6.79,0,0,1-.55,2.86,5.61,5.61,0,0,1-1.51,2,6.12,6.12,0,0,1-2.25,1.21,9.58,9.58,0,0,1-2.78.39,15,15,0,0,1-2.54-.22,7.37,7.37,0,0,1-2.13-.65l1-3a7.72,7.72,0,0,0,3.58.81Z"/><path d="M316.67,116.92a3.54,3.54,0,0,0,2.64-.92,3.08,3.08,0,0,0,.91-2.24,2.82,2.82,0,0,0-1-2.36,4.81,4.81,0,0,0-3-.75h-2v-1.93l3.39-4.62,1.59-1.26-2.21.25h-4.7V100H323v2l-3.94,5.29-1.24.76v.14L319,108a5.89,5.89,0,0,1,1.86.45,4.4,4.4,0,0,1,1.54,1,5,5,0,0,1,1.05,1.69,6.41,6.41,0,0,1,.39,2.32,7,7,0,0,1-.54,2.86,5.73,5.73,0,0,1-1.51,2,6.24,6.24,0,0,1-2.26,1.21,9.51,9.51,0,0,1-2.77.39,15.15,15.15,0,0,1-2.55-.22,7.47,7.47,0,0,1-2.13-.65l1-3a8.5,8.5,0,0,0,1.61.59A8.05,8.05,0,0,0,316.67,116.92Z"/><path d="M94.58,105.61h2.66l.42,1.68h.11a4.65,4.65,0,0,1,1.72-1.57,5.38,5.38,0,0,1,2.42-.5,4.72,4.72,0,0,1,4,1.66q1.32,1.66,1.32,5.37a11.54,11.54,0,0,1-.42,3.23,6.83,6.83,0,0,1-1.25,2.45,5.53,5.53,0,0,1-2,1.54,6.76,6.76,0,0,1-2.74.53,7,7,0,0,1-1.42-.12,4.89,4.89,0,0,1-1.12-.41v5.74H94.58Zm6.24,2.69a2.48,2.48,0,0,0-1.67.53,3.43,3.43,0,0,0-.93,1.6v5.82a3,3,0,0,0,2.07.67,2.69,2.69,0,0,0,2.35-1.11,6.47,6.47,0,0,0,.79-3.65,5.48,5.48,0,0,0-.62-2.85A2.14,2.14,0,0,0,100.82,108.3Z"/><path d="M109.78,100H121.4v3.42h-7.78v4.84h7.16v3.42h-7.16v7.92h-3.84Z"/><path d="M123.84,106.42a12.35,12.35,0,0,1,2.66-.8,17.61,17.61,0,0,1,3.22-.29,7.35,7.35,0,0,1,2.43.35,3.74,3.74,0,0,1,1.56,1,3.8,3.8,0,0,1,.81,1.54,7.83,7.83,0,0,1,.24,2c0,.82,0,1.65-.09,2.48s-.09,1.65-.1,2.45,0,1.58.07,2.34a9.22,9.22,0,0,0,.42,2.14h-3l-.59-1.93h-.14a5.08,5.08,0,0,1-1.56,1.49,4.69,4.69,0,0,1-2.56.63,5.11,5.11,0,0,1-1.76-.29,4.05,4.05,0,0,1-1.35-.84,3.7,3.7,0,0,1-.86-1.29,4.2,4.2,0,0,1-.31-1.66,4,4,0,0,1,.57-2.18,4.27,4.27,0,0,1,1.65-1.42,8.08,8.08,0,0,1,2.58-.76,18,18,0,0,1,3.35-.12,3.65,3.65,0,0,0-.23-2.26c-.28-.46-.9-.69-1.87-.69a12.72,12.72,0,0,0-2.31.23,8.67,8.67,0,0,0-2,.59Zm4.62,10.42a2.84,2.84,0,0,0,1.73-.49,3.41,3.41,0,0,0,.95-1v-1.82a9.27,9.27,0,0,0-1.66,0,6.33,6.33,0,0,0-1.42.25,2.45,2.45,0,0,0-1,.56,1.26,1.26,0,0,0-.36.93,1.57,1.57,0,0,0,.46,1.21A1.79,1.79,0,0,0,128.46,116.84Z"/><path d="M149.71,114.68c0,.79,0,1.57,0,2.35a18.44,18.44,0,0,0,.25,2.61h-2.61l-.5-1.82h-.11a4.29,4.29,0,0,1-1.61,1.58,4.92,4.92,0,0,1-2.48.6,5.07,5.07,0,0,1-4.09-1.73q-1.46-1.74-1.45-5.44a8.6,8.6,0,0,1,1.62-5.57,5.8,5.8,0,0,1,4.76-2,9.2,9.2,0,0,1,1.43.1,6.11,6.11,0,0,1,1.12.32V100h3.64Zm-6.19,2.24a2.5,2.5,0,0,0,1.68-.52,2.78,2.78,0,0,0,.87-1.5V109a2.6,2.6,0,0,0-.87-.46,3.86,3.86,0,0,0-1.23-.16,2.69,2.69,0,0,0-2.31,1,6.1,6.1,0,0,0-.77,3.55,5.76,5.76,0,0,0,.63,2.89A2.13,2.13,0,0,0,143.52,116.92Z"/><path d="M166.17,104.57A6.08,6.08,0,0,1,166,106a3.91,3.91,0,0,1-.6,1.33,4.41,4.41,0,0,1-1.09,1.06,4.75,4.75,0,0,1-1.63.69v.17a6.7,6.7,0,0,1,1.6.47,4.06,4.06,0,0,1,1.31.93,4.23,4.23,0,0,1,.89,1.43,5.63,5.63,0,0,1,.32,2,5.12,5.12,0,0,1-.65,2.62,5.32,5.32,0,0,1-1.72,1.81,7.93,7.93,0,0,1-2.45,1,11.54,11.54,0,0,1-2.83.34h-1.21c-.5,0-1,0-1.6,0s-1.15-.07-1.74-.13a12.1,12.1,0,0,1-1.61-.25V100.15l1.22-.17,1.47-.14c.52,0,1.06-.06,1.61-.08l1.64,0a16.69,16.69,0,0,1,2.67.21,7.77,7.77,0,0,1,2.33.74,4.07,4.07,0,0,1,2.25,3.89Zm-8.26,3.67.91,0a7.94,7.94,0,0,0,.86-.08,4.92,4.92,0,0,0,1.83-1,2.19,2.19,0,0,0,.77-1.74,2.26,2.26,0,0,0-.28-1.19,2,2,0,0,0-.74-.75,3,3,0,0,0-1-.39A7,7,0,0,0,159,103q-.73,0-1.35,0a8.27,8.27,0,0,0-.95.08v5.18Zm1.26,8.43a5.57,5.57,0,0,0,1.36-.17,3.5,3.5,0,0,0,1.16-.51,2.59,2.59,0,0,0,.81-.87,2.39,2.39,0,0,0,.31-1.25,2.27,2.27,0,0,0-1.31-2.26,4,4,0,0,0-1.32-.37,11.92,11.92,0,0,0-1.46-.09h-2v5.35a1.58,1.58,0,0,0,.45.09l.66,0,.72,0Z"/><path d="M179.19,115.27h-6l-1.48,4.34h-3.84l7.06-19.74h2.83l7,19.74h-4Zm-5-3.08h4.2l-1.45-4.37-.59-3.08h-.14l-.59,3.11Z"/></g></g></svg>