<?xml version="1.0" encoding="utf-8"?>
<!-- Generator: Adobe Illustrator 22.1.0, SVG Export Plug-In . SVG Version: 6.00 Build 0)  -->
<svg version="1.1" id="Layer_1" xmlns="http://www.w3.org/2000/svg" xmlns:xlink="http://www.w3.org/1999/xlink" x="0px" y="0px"
	 viewBox="0 0 457.6 228.8" style="enable-background:new 0 0 457.6 228.8;" xml:space="preserve">
<style type="text/css">
	.st0{fill:#36393D;}
	.st1{font-family:'PTSans-Regular';}
	.st2{font-size:50px;}
	.st3{letter-spacing:-1;}
	.st4{letter-spacing:-2;}
	.st5{font-family:'PTSans-BoldItalic';}
	.st6{font-family:'PTSans-Bold';}
	.st7{font-family:'PTSans-Italic';}
</style>
<title>typography</title>
<text transform="matrix(1 0 0 1 0 42.5)" class="st0 st1 st2 st3">P</text>
<text transform="matrix(1 0 0 1 27.15 42.5)" class="st0 st1 st2 st4">T</text>
<text transform="matrix(1 0 0 1 52.9 42.5)" class="st0 st1 st2"> Sans </text>
<text transform="matrix(1 0 0 1 179.35 42.5)" class="st0 st1 st2 st4">R</text>
<text transform="matrix(1 0 0 1 206.7 42.5)" class="st0 st1 st2">e</text>
<text transform="matrix(1 0 0 1 231.55 42.5)" class="st0 st1 st2">gular</text>
<text transform="matrix(1 0 0 1 0.75 212.94)" class="st0 st5 st2">P</text>
<text transform="matrix(1 0 0 1 27.85 212.94)" class="st0 st5 st2 st4">T</text>
<text transform="matrix(1 0 0 1 53.3 212.94)" class="st0 st5 st2"> Sans Bold Itali</text>
<text transform="matrix(1 0 0 1 361.34 212.94)" class="st0 st5 st2 st3">c</text>
<text transform="matrix(1 0 0 1 0 156.13)" class="st0 st6 st2">P</text>
<text transform="matrix(1 0 0 1 28.2 156.13)" class="st0 st6 st2 st4">T</text>
<text transform="matrix(1 0 0 1 54.6 156.13)" class="st0 st6 st2"> Sans Bold</text>
<text transform="matrix(1 0 0 1 0 99.31)" class="st0 st7 st2">P</text>
<text transform="matrix(1 0 0 1 25.85 99.31)" class="st0 st7 st2 st4">T</text>
<text transform="matrix(1 0 0 1 50.35 99.31)" class="st0 st7 st2"> Sans Itali</text>
<text transform="matrix(1 0 0 1 252.95 99.31)" class="st0 st7 st2 st3">c</text>
<text transform="matrix(1 0 0 1 303 -143.5354)" style="font-family:'MyriadPro-Regular'; font-size:12px;">Lorem ipsum</text>
</svg>
