<svg xmlns="http://www.w3.org/2000/svg" viewBox="0 0 729.55 214.29"><defs><style>.cls-1{fill:none;stroke-width:5px;}.cls-1,.cls-2{stroke:#000;stroke-miterlimit:10;}.cls-2{stroke-width:3px;}.cls-3{fill:#ea9393;}</style></defs><title>Asset 25partpFadBA32</title><g id="Layer_2" data-name="Layer 2"><g id="Layer_1-2" data-name="Layer 1"><line class="cls-1" x1="149.18" y1="45.24" x2="149.18" y2="115.24"/><line class="cls-1" x1="111.68" y1="42.91" x2="186.68" y2="42.91"/><path class="cls-1" d="M228.67,115.24v-70h75"/><polygon points="285.36 61.8 309.29 45.24 285.36 28.67 285.36 61.8"/><path class="cls-2" d="M371.65,115.24H320.8c0-12.17,11.39-22,25.43-22S371.65,103.07,371.65,115.24Z"/><rect class="cls-3" x="414.56" y="57.27" width="160" height="55.93"/><path d="M292.48,149.76H295l.39,1.56h.1a4.33,4.33,0,0,1,1.6-1.46,5,5,0,0,1,2.25-.47,4.41,4.41,0,0,1,3.67,1.55q1.21,1.55,1.22,5a10.69,10.69,0,0,1-.39,3,6.29,6.29,0,0,1-1.16,2.28,5.06,5.06,0,0,1-1.87,1.43,6.16,6.16,0,0,1-2.54.49,6.78,6.78,0,0,1-1.32-.11,4.66,4.66,0,0,1-1-.38V168h-3.38Zm5.8,2.49a2.26,2.26,0,0,0-1.55.5,3.25,3.25,0,0,0-.87,1.48v5.41a3.1,3.1,0,0,0,.79.45,3,3,0,0,0,1.13.17,2.52,2.52,0,0,0,2.19-1,6.12,6.12,0,0,0,.72-3.4,5.11,5.11,0,0,0-.57-2.65A2,2,0,0,0,298.28,152.25Z"/><path d="M314.45,157.87a1.72,1.72,0,0,0-.61-1.35,6.77,6.77,0,0,0-1.54-1c-.61-.29-1.28-.58-2-.88a10.51,10.51,0,0,1-2-1.12,5.49,5.49,0,0,1-1.53-1.65,4.72,4.72,0,0,1-.62-2.53,5.46,5.46,0,0,1,.45-2.3,4.19,4.19,0,0,1,1.26-1.62,5.3,5.3,0,0,1,1.93-1,9.24,9.24,0,0,1,2.5-.32,15.81,15.81,0,0,1,3,.28,7.34,7.34,0,0,1,2.31.79l-1.11,3a6.57,6.57,0,0,0-1.72-.66,9.72,9.72,0,0,0-2.47-.3,3.15,3.15,0,0,0-1.91.49,1.57,1.57,0,0,0-.66,1.33,1.63,1.63,0,0,0,.61,1.3,6.7,6.7,0,0,0,1.53,1c.62.3,1.28.6,2,.91a11,11,0,0,1,2,1.13,5.85,5.85,0,0,1,1.53,1.64,4.47,4.47,0,0,1,.61,2.43,6,6,0,0,1-.48,2.51,4.8,4.8,0,0,1-1.35,1.76,6,6,0,0,1-2.11,1,10.51,10.51,0,0,1-2.72.33,14.62,14.62,0,0,1-3.43-.36,10.43,10.43,0,0,1-2.18-.73l1.14-3a7.89,7.89,0,0,0,.74.34c.31.12.65.23,1,.34a10.33,10.33,0,0,0,1.21.25,8,8,0,0,0,1.31.11,4.61,4.61,0,0,0,2.43-.53A1.79,1.79,0,0,0,314.45,157.87Z"/><path d="M332.62,148.8a5.21,5.21,0,0,1-.17,1.35,3.62,3.62,0,0,1-.56,1.23,3.67,3.67,0,0,1-1,1,4.41,4.41,0,0,1-1.51.64v.16a5.63,5.63,0,0,1,1.48.44,3.77,3.77,0,0,1,1.23.85,4.15,4.15,0,0,1,.82,1.33,5.4,5.4,0,0,1,.29,1.85,4.86,4.86,0,0,1-.59,2.43,5.14,5.14,0,0,1-1.6,1.68,7.53,7.53,0,0,1-2.28,1,10.86,10.86,0,0,1-2.62.31H325c-.45,0-.95,0-1.48,0s-1.06-.06-1.61-.12a12,12,0,0,1-1.49-.23V144.69c.32-.05.7-.11,1.13-.16l1.36-.13c.49,0,1-.06,1.5-.07s1,0,1.52,0a15.48,15.48,0,0,1,2.48.19,7,7,0,0,1,2.16.69,4,4,0,0,1,1.52,1.38A4.07,4.07,0,0,1,332.62,148.8ZM325,152.2l.85,0c.32,0,.58-.05.79-.08a4.59,4.59,0,0,0,1.7-.93,2,2,0,0,0,.72-1.62,2.16,2.16,0,0,0-.26-1.1,2.1,2.1,0,0,0-.69-.7,3,3,0,0,0-1-.36,6,6,0,0,0-1.14-.1l-1.25,0c-.38,0-.67.05-.88.08v4.81Zm1.17,7.83a4.73,4.73,0,0,0,1.26-.16,3.31,3.31,0,0,0,1.08-.47,2.67,2.67,0,0,0,.76-.81,2.27,2.27,0,0,0,.28-1.16,2.29,2.29,0,0,0-.34-1.34,2.32,2.32,0,0,0-.88-.76,3.85,3.85,0,0,0-1.22-.35,12.21,12.21,0,0,0-1.35-.07h-1.9v5a1.39,1.39,0,0,0,.41.08l.61,0,.68,0Z"/><path d="M336.81,159.9h3.61V149.63l.39-1.77-1.25,1.53L337.25,151,335.82,149l5.93-4.78h1.9V159.9h3.53v2.86H336.81Z"/><path d="M362.81,162a5.55,5.55,0,0,1-2.12.86,13.58,13.58,0,0,1-2.64.25,9.7,9.7,0,0,1-3.11-.5,6.65,6.65,0,0,1-2.58-1.64,8.13,8.13,0,0,1-1.79-2.94,12.82,12.82,0,0,1-.66-4.38,12,12,0,0,1,.74-4.49,8.27,8.27,0,0,1,1.93-2.91,7.1,7.1,0,0,1,2.64-1.58,9.26,9.26,0,0,1,2.91-.49,14.1,14.1,0,0,1,2.64.21,9.78,9.78,0,0,1,1.78.5l-.7,3a5.05,5.05,0,0,0-1.42-.41,12.58,12.58,0,0,0-2-.13A4.34,4.34,0,0,0,355,148.9a7.23,7.23,0,0,0-1.31,4.77,9.79,9.79,0,0,0,.31,2.57,5.53,5.53,0,0,0,.95,2,4.38,4.38,0,0,0,1.58,1.28,5.09,5.09,0,0,0,2.2.45,7.48,7.48,0,0,0,2-.23,6.21,6.21,0,0,0,1.4-.6Z"/><path d="M369.72,160.26a3.3,3.3,0,0,0,2.46-.85,2.89,2.89,0,0,0,.85-2.08,2.63,2.63,0,0,0-.89-2.19,4.46,4.46,0,0,0-2.78-.7h-1.87v-1.8l3.14-4.29,1.49-1.17-2.06.24h-4.37v-2.86h9.93v1.85L372,151.32l-1.14.7v.13l1.09-.15a6,6,0,0,1,1.73.41,4.25,4.25,0,0,1,1.43,1,4.65,4.65,0,0,1,1,1.57,6,6,0,0,1,.37,2.16,6.36,6.36,0,0,1-.51,2.65,5.26,5.26,0,0,1-1.41,1.87,5.77,5.77,0,0,1-2.09,1.12,8.87,8.87,0,0,1-2.57.36,15.06,15.06,0,0,1-2.37-.2,6.87,6.87,0,0,1-2-.6l.91-2.81a7.07,7.07,0,0,0,1.49.54A7.42,7.42,0,0,0,369.72,160.26Z"/><path d="M474.3,18.49c.43-.08.89-.15,1.39-.21s1-.12,1.48-.16,1-.06,1.45-.08l1.28,0a14.38,14.38,0,0,1,2.71.25,7.5,7.5,0,0,1,2.38.87,4.67,4.67,0,0,1,1.67,1.69,5.3,5.3,0,0,1,.63,2.71,6.41,6.41,0,0,1-1.12,3.92,5.76,5.76,0,0,1-3,2.1l1.37.87L489,37.89h-4.42l-4.45-7.67-2-.37v8H474.3Zm5.88,2.94c-.39,0-.78,0-1.16,0a3.58,3.58,0,0,0-.88.11v5.68h1.62a4,4,0,0,0,2.55-.73,2.82,2.82,0,0,0,.95-2.41,2.54,2.54,0,0,0-.78-2A3.33,3.33,0,0,0,480.18,21.43Z"/><path d="M491.16,18.29h11.62v3.42H495v4.84h7.17V30H495v7.92h-3.83Z"/><path d="M505.38,18.49a25.43,25.43,0,0,1,2.59-.35c.94-.09,1.88-.13,2.82-.13a18.07,18.07,0,0,1,2.92.24,7.23,7.23,0,0,1,2.65.95,5.64,5.64,0,0,1,1.92,2,6.58,6.58,0,0,1,.74,3.32,6.86,6.86,0,0,1-.65,3.12,5.79,5.79,0,0,1-1.7,2.08,6.71,6.71,0,0,1-2.43,1.18,10.88,10.88,0,0,1-2.81.36h-1.09l-.66,0-.46-.06v6.75h-3.84Zm5.71,2.82c-.37,0-.72,0-1.06.05a6.13,6.13,0,0,0-.81.1v6.35l.33.06.48,0h.84a7.62,7.62,0,0,0,1.5-.14,3.53,3.53,0,0,0,1.33-.52,2.74,2.74,0,0,0,.94-1.05,3.82,3.82,0,0,0,.35-1.76,3.18,3.18,0,0,0-.34-1.53,2.71,2.71,0,0,0-.88-1,3.39,3.39,0,0,0-1.25-.5A6.74,6.74,0,0,0,511.09,21.31Z"/><rect class="cls-1" x="2.5" y="115.74" width="724.55" height="96.06" rx="8.68" ry="8.68"/><line class="cls-1" x1="36.45" y1="85.09" x2="36.45" y2="146.41"/><line class="cls-1" x1="54.45" y1="85.06" x2="54.45" y2="146.39"/><path d="M32.23,64.66H41v2.56H35.11v3.43h5.31v2.56H35.11V76.8h5.94v2.56H32.23Z"/><path d="M52.85,71.89l-4.1-7.23h3.46l2.27,4.24L55,70.4l.48-1.5,2.37-4.24H61l-4.24,7.08,4.45,7.62H57.76l-2.58-4.53-.57-1.56-.55,1.56-2.6,4.53H48.33Z"/><line class="cls-1" x1="657.26" y1="93.97" x2="657.26" y2="155.29"/><line class="cls-1" x1="675.26" y1="93.94" x2="675.26" y2="155.26"/><path d="M659.3,84.29a1.35,1.35,0,0,0-.49-1.09,5.38,5.38,0,0,0-1.24-.77c-.5-.23-1-.47-1.62-.71a8.17,8.17,0,0,1-1.61-.91,4.38,4.38,0,0,1-1.24-1.33,3.8,3.8,0,0,1-.5-2,4.47,4.47,0,0,1,.36-1.86,3.55,3.55,0,0,1,1-1.31,4.23,4.23,0,0,1,1.56-.77,7.44,7.44,0,0,1,2-.26,13.16,13.16,0,0,1,2.41.22,6.19,6.19,0,0,1,1.87.64l-.9,2.42a4.89,4.89,0,0,0-1.39-.54,7.86,7.86,0,0,0-2-.24,2.57,2.57,0,0,0-1.54.4,1.27,1.27,0,0,0-.54,1.07,1.32,1.32,0,0,0,.49,1.05,5.75,5.75,0,0,0,1.24.78c.5.24,1,.48,1.62.73a9.17,9.17,0,0,1,1.62.92A4.74,4.74,0,0,1,661.69,82a3.72,3.72,0,0,1,.49,2,4.84,4.84,0,0,1-.39,2,3.84,3.84,0,0,1-1.09,1.42,4.59,4.59,0,0,1-1.7.84,8.45,8.45,0,0,1-2.2.27,12,12,0,0,1-2.77-.29,8.81,8.81,0,0,1-1.76-.59l.92-2.46a3.49,3.49,0,0,0,.6.27,8,8,0,0,0,.83.28c.31.08.63.15,1,.21a7.23,7.23,0,0,0,1.06.08,3.68,3.68,0,0,0,2-.43A1.44,1.44,0,0,0,659.3,84.29Z"/><path d="M670.94,73.68a19.47,19.47,0,0,1,1.94-.26c.71-.06,1.41-.09,2.11-.09a14.92,14.92,0,0,1,2.2.17,5.46,5.46,0,0,1,2,.72,4.12,4.12,0,0,1,1.44,1.49,4.94,4.94,0,0,1,.56,2.49,5.19,5.19,0,0,1-.49,2.34,4.37,4.37,0,0,1-1.28,1.56,5.11,5.11,0,0,1-1.81.89,8.27,8.27,0,0,1-2.12.27h-.81l-.5,0-.34,0v5.06h-2.88Zm4.28,2.13c-.28,0-.54,0-.8,0a5.57,5.57,0,0,0-.6.07v4.77l.25,0,.35,0h.63a6.09,6.09,0,0,0,1.13-.1,3,3,0,0,0,1-.39,2.08,2.08,0,0,0,.7-.79,3,3,0,0,0,.26-1.32,2.31,2.31,0,0,0-.25-1.15,2.08,2.08,0,0,0-.66-.72,2.7,2.7,0,0,0-.94-.38A5.39,5.39,0,0,0,675.22,75.81Z"/><path d="M225.26,5.88h2.66l.42,1.68h.11A4.73,4.73,0,0,1,230.17,6a5.42,5.42,0,0,1,2.43-.5,4.7,4.7,0,0,1,3.94,1.66q1.32,1.66,1.32,5.37a11.54,11.54,0,0,1-.42,3.23,6.83,6.83,0,0,1-1.25,2.45,5.42,5.42,0,0,1-2,1.54,6.75,6.75,0,0,1-2.73.53,7,7,0,0,1-1.43-.12,5.06,5.06,0,0,1-1.12-.41v5.74h-3.64Zm6.24,2.69a2.43,2.43,0,0,0-1.66.53,3.49,3.49,0,0,0-.94,1.6v5.82a3.29,3.29,0,0,0,.85.49,3.45,3.45,0,0,0,1.22.18,2.69,2.69,0,0,0,2.35-1.1,6.45,6.45,0,0,0,.79-3.66,5.48,5.48,0,0,0-.62-2.85A2.14,2.14,0,0,0,231.5,8.57Z"/><path d="M238.75,5.88h1.94V5.1a5.47,5.47,0,0,1,1.12-3.85A4.21,4.21,0,0,1,245.05.06a11,11,0,0,1,3.73.53l-.7,2.91A5.7,5.7,0,0,0,247,3.21a6.85,6.85,0,0,0-1-.07,2,2,0,0,0-.88.16,1.08,1.08,0,0,0-.47.52,2.59,2.59,0,0,0-.2.87c0,.35,0,.74,0,1.19h3.08V9h-3.08V19.88h-3.64V9h-1.94Z"/><path d="M249,6.69a12.35,12.35,0,0,1,2.66-.8,17.61,17.61,0,0,1,3.22-.29,7.35,7.35,0,0,1,2.43.35,3.68,3.68,0,0,1,1.56,1,3.8,3.8,0,0,1,.81,1.54,7.83,7.83,0,0,1,.24,2c0,.82,0,1.65-.09,2.48s-.09,1.65-.1,2.45,0,1.58.07,2.34a9.22,9.22,0,0,0,.42,2.14h-3L256.62,18h-.14a5,5,0,0,1-1.56,1.49,4.69,4.69,0,0,1-2.56.63,4.89,4.89,0,0,1-1.76-.29,4.05,4.05,0,0,1-1.35-.84,3.7,3.7,0,0,1-.86-1.29,4.2,4.2,0,0,1-.31-1.66,3.89,3.89,0,0,1,.57-2.17,4.21,4.21,0,0,1,1.65-1.43,8.08,8.08,0,0,1,2.58-.76,18,18,0,0,1,3.35-.12A3.65,3.65,0,0,0,256,9.28c-.28-.46-.9-.68-1.87-.68a12.68,12.68,0,0,0-2.31.22,8.67,8.67,0,0,0-2,.59Zm4.62,10.42a2.84,2.84,0,0,0,1.73-.49,3.41,3.41,0,0,0,.95-1.05V13.75a9.27,9.27,0,0,0-1.66,0,6.33,6.33,0,0,0-1.42.25,2.45,2.45,0,0,0-1,.56,1.26,1.26,0,0,0-.36.93,1.57,1.57,0,0,0,.46,1.21A1.81,1.81,0,0,0,253.57,17.11Z"/><path d="M274.82,15c0,.79,0,1.57,0,2.35a20,20,0,0,0,.25,2.61h-2.61l-.5-1.82h-.11a4.29,4.29,0,0,1-1.61,1.58,4.92,4.92,0,0,1-2.48.6,5.07,5.07,0,0,1-4.09-1.73q-1.45-1.74-1.45-5.44a8.6,8.6,0,0,1,1.62-5.57,5.8,5.8,0,0,1,4.76-2,9.2,9.2,0,0,1,1.43.1,6.11,6.11,0,0,1,1.12.32V.28h3.64Zm-6.19,2.24a2.5,2.5,0,0,0,1.68-.52,2.79,2.79,0,0,0,.87-1.49V9.24a2.79,2.79,0,0,0-.87-.46,4.17,4.17,0,0,0-1.23-.16,2.69,2.69,0,0,0-2.31,1,6.11,6.11,0,0,0-.77,3.56,5.75,5.75,0,0,0,.63,2.88A2.14,2.14,0,0,0,268.63,17.19Z"/><path d="M291.28,4.84a6.08,6.08,0,0,1-.18,1.46,3.91,3.91,0,0,1-.6,1.33,4.24,4.24,0,0,1-1.09,1.06,4.75,4.75,0,0,1-1.63.69v.17a6.7,6.7,0,0,1,1.6.47,4.17,4.17,0,0,1,2.2,2.36,5.63,5.63,0,0,1,.32,2,5.09,5.09,0,0,1-.65,2.62,5.32,5.32,0,0,1-1.72,1.81,7.93,7.93,0,0,1-2.45,1,11.54,11.54,0,0,1-2.83.34H283c-.5,0-1,0-1.6,0s-1.15-.07-1.74-.13a12.1,12.1,0,0,1-1.61-.25V.42l1.22-.17,1.47-.14c.52,0,1.06-.06,1.61-.08L284,0a16.69,16.69,0,0,1,2.67.21A7.77,7.77,0,0,1,289,1a4.28,4.28,0,0,1,1.64,1.49A4.32,4.32,0,0,1,291.28,4.84ZM283,8.51l.91,0a6,6,0,0,0,.86-.08,5,5,0,0,0,1.83-1,2.19,2.19,0,0,0,.77-1.74,2.26,2.26,0,0,0-.28-1.19,2,2,0,0,0-.74-.75,3.22,3.22,0,0,0-1.05-.39,7,7,0,0,0-1.23-.11q-.73,0-1.35,0a8.27,8.27,0,0,0-.95.08V8.51Zm1.26,8.43a5.57,5.57,0,0,0,1.36-.17,3.5,3.5,0,0,0,1.16-.51,2.59,2.59,0,0,0,.81-.87,2.39,2.39,0,0,0,.31-1.25,2.27,2.27,0,0,0-1.31-2.26,4,4,0,0,0-1.32-.37,11.92,11.92,0,0,0-1.46-.09h-2v5.35a1.58,1.58,0,0,0,.45.09l.66,0,.72,0Z"/><path d="M304.3,15.54h-6l-1.48,4.34H293L300,.14h2.83l7,19.74h-4Zm-5-3.08h4.2L302,8.09,301.42,5h-.14l-.59,3.11Z"/><path d="M141,13.08h-5.72V29.26H131.4V13.08h-5.74V9.66H141Z"/><path d="M144.08,26.18H148V15.12l.42-1.9-1.34,1.65-2.49,1.71L143,14.48l6.38-5.15h2V26.18h3.8v3.08H144.08Z"/><path d="M172.61,23.8h-3.08v5.46h-3.39V23.8h-8.48V21.73l8.88-12.21h3V20.89h3.08Zm-6.47-7.2.26-2.35h-.12l-.95,2-2.91,3.78L161,21.11l1.79-.22h3.33Z"/><path d="M337.1,78.71a3.54,3.54,0,0,0,2.65-.92,3.1,3.1,0,0,0,.91-2.24,2.81,2.81,0,0,0-1-2.35,4.74,4.74,0,0,0-3-.76h-2V70.51l3.39-4.62,1.6-1.26-2.22.25h-4.7V61.8h10.7v2l-3.95,5.29-1.23.76V70l1.17-.17a6.34,6.34,0,0,1,1.86.45,4.31,4.31,0,0,1,1.54,1,5,5,0,0,1,1,1.69,6.22,6.22,0,0,1,.4,2.33,6.74,6.74,0,0,1-.55,2.85,5.56,5.56,0,0,1-1.51,2A6.38,6.38,0,0,1,340,81.4a9.46,9.46,0,0,1-2.77.39,15.15,15.15,0,0,1-2.55-.22,7.41,7.41,0,0,1-2.12-.64l1-3a7.46,7.46,0,0,0,1.61.59A7.91,7.91,0,0,0,337.1,78.71Z"/><path d="M359.53,66.59a8.44,8.44,0,0,1-.52,2.88,17.13,17.13,0,0,1-1.32,2.86,27.74,27.74,0,0,1-1.76,2.7q-1,1.31-1.89,2.4l-1.48,1.14v.14l2-.39H360V81.4H348.16V79.53c.45-.47.95-1,1.51-1.64s1.13-1.29,1.7-2,1.12-1.42,1.66-2.17a26,26,0,0,0,1.46-2.25,13.78,13.78,0,0,0,1-2.2,6.08,6.08,0,0,0,.38-2,2.76,2.76,0,0,0-.66-1.89,2.67,2.67,0,0,0-2.09-.74,5,5,0,0,0-1.83.38,5.13,5.13,0,0,0-1.58,1l-1.46-2.57A9.1,9.1,0,0,1,350.75,62a8.73,8.73,0,0,1,3.26-.55,6.78,6.78,0,0,1,2.21.34,4.86,4.86,0,0,1,1.74,1,4.42,4.42,0,0,1,1.15,1.61A5.58,5.58,0,0,1,359.53,66.59Z"/></g></g></svg>