<svg xmlns="http://www.w3.org/2000/svg" viewBox="0 0 729.55 214.29"><defs><style>.cls-1{fill:none;stroke-width:5px;}.cls-1,.cls-2{stroke:#000;stroke-miterlimit:10;}.cls-2{stroke-width:3px;}.cls-3{fill:#ea9393;}</style></defs><title>Asset 33goldenpart34</title><g id="Layer_2" data-name="Layer 2"><g id="Layer_1-2" data-name="Layer 1"><line class="cls-1" x1="149.18" y1="45.24" x2="149.18" y2="115.24"/><line class="cls-1" x1="111.68" y1="42.91" x2="186.68" y2="42.91"/><path class="cls-1" d="M228.67,115.24v-70h75"/><polygon points="285.36 61.8 309.29 45.24 285.36 28.67 285.36 61.8"/><path class="cls-2" d="M371.65,115.24H320.8c0-12.17,11.39-22,25.43-22S371.65,103.07,371.65,115.24Z"/><rect class="cls-3" x="414.56" y="57.27" width="160" height="55.93"/><path d="M292.48,149.76H295l.39,1.56h.1a4.33,4.33,0,0,1,1.6-1.46,5,5,0,0,1,2.25-.47,4.41,4.41,0,0,1,3.67,1.55q1.21,1.55,1.22,5a10.69,10.69,0,0,1-.39,3,6.29,6.29,0,0,1-1.16,2.28,5.06,5.06,0,0,1-1.87,1.43,6.16,6.16,0,0,1-2.54.49,6.78,6.78,0,0,1-1.32-.11,4.66,4.66,0,0,1-1-.38V168h-3.38Zm5.8,2.49a2.26,2.26,0,0,0-1.55.5,3.25,3.25,0,0,0-.87,1.48v5.41a3.1,3.1,0,0,0,.79.45,3,3,0,0,0,1.13.17,2.52,2.52,0,0,0,2.19-1,6.12,6.12,0,0,0,.72-3.4,5.11,5.11,0,0,0-.57-2.65A2,2,0,0,0,298.28,152.25Z"/><path d="M314.45,157.87a1.72,1.72,0,0,0-.61-1.35,6.77,6.77,0,0,0-1.54-1c-.61-.29-1.28-.58-2-.88a10.51,10.51,0,0,1-2-1.12,5.65,5.65,0,0,1-1.54-1.65,4.81,4.81,0,0,1-.61-2.53,5.46,5.46,0,0,1,.45-2.3,4.19,4.19,0,0,1,1.26-1.62,5.3,5.3,0,0,1,1.93-1,9.24,9.24,0,0,1,2.5-.32,15.81,15.81,0,0,1,3,.28,7.34,7.34,0,0,1,2.31.79l-1.11,3a6.57,6.57,0,0,0-1.72-.66,9.72,9.72,0,0,0-2.47-.3,3.15,3.15,0,0,0-1.91.49,1.57,1.57,0,0,0-.66,1.33,1.63,1.63,0,0,0,.61,1.3,6.7,6.7,0,0,0,1.53,1c.62.3,1.28.6,2,.91a11,11,0,0,1,2,1.13,5.85,5.85,0,0,1,1.53,1.64,4.47,4.47,0,0,1,.61,2.43,6,6,0,0,1-.48,2.51,4.8,4.8,0,0,1-1.35,1.76,6,6,0,0,1-2.11,1,10.51,10.51,0,0,1-2.72.33,14.62,14.62,0,0,1-3.43-.36,10.43,10.43,0,0,1-2.18-.73l1.14-3a7.89,7.89,0,0,0,.74.34c.31.12.65.23,1,.34a10.33,10.33,0,0,0,1.21.25,8,8,0,0,0,1.31.11,4.61,4.61,0,0,0,2.43-.53A1.79,1.79,0,0,0,314.45,157.87Z"/><path d="M332.62,148.8a5.21,5.21,0,0,1-.17,1.35,3.62,3.62,0,0,1-.56,1.23,3.67,3.67,0,0,1-1,1,4.41,4.41,0,0,1-1.51.64v.16a5.63,5.63,0,0,1,1.48.44,3.77,3.77,0,0,1,1.23.85,4,4,0,0,1,.81,1.33,5.16,5.16,0,0,1,.3,1.85,4.86,4.86,0,0,1-.59,2.43,5.14,5.14,0,0,1-1.6,1.68,7.53,7.53,0,0,1-2.28,1,10.86,10.86,0,0,1-2.62.31H325c-.46,0-1,0-1.49,0s-1.06-.06-1.61-.12a11.7,11.7,0,0,1-1.49-.23V144.69c.33-.05.7-.11,1.13-.16l1.36-.13c.49,0,1-.06,1.5-.07l1.52,0a15.57,15.57,0,0,1,2.48.19,7,7,0,0,1,2.16.69,4,4,0,0,1,1.52,1.38A4.07,4.07,0,0,1,332.62,148.8ZM325,152.2l.85,0c.32,0,.58-.05.79-.08a4.59,4.59,0,0,0,1.7-.93,2,2,0,0,0,.72-1.62,2.16,2.16,0,0,0-.26-1.1,2.1,2.1,0,0,0-.69-.7,3,3,0,0,0-1-.36,6,6,0,0,0-1.14-.1l-1.25,0c-.38,0-.67.05-.88.08v4.81Zm1.17,7.83a4.78,4.78,0,0,0,1.26-.16,3.31,3.31,0,0,0,1.08-.47,2.79,2.79,0,0,0,.76-.81,2.27,2.27,0,0,0,.28-1.16,2.29,2.29,0,0,0-.34-1.34,2.32,2.32,0,0,0-.88-.76,3.85,3.85,0,0,0-1.22-.35,12.21,12.21,0,0,0-1.35-.07h-1.9v5a1.39,1.39,0,0,0,.41.08l.62,0,.67,0Z"/><path d="M336.81,159.9h3.61V149.63l.39-1.77-1.25,1.53L337.25,151,335.82,149l5.93-4.78h1.9V159.9h3.53v2.86H336.81Z"/><path d="M362.81,162a5.55,5.55,0,0,1-2.12.86,13.58,13.58,0,0,1-2.64.25,9.7,9.7,0,0,1-3.11-.5,6.65,6.65,0,0,1-2.58-1.64,8.13,8.13,0,0,1-1.79-2.94,12.82,12.82,0,0,1-.66-4.38,12,12,0,0,1,.74-4.49,8.27,8.27,0,0,1,1.93-2.91,7,7,0,0,1,2.64-1.58,9.26,9.26,0,0,1,2.91-.49,14.1,14.1,0,0,1,2.64.21,9.78,9.78,0,0,1,1.78.5l-.71,3a4.88,4.88,0,0,0-1.41-.41,12.58,12.58,0,0,0-2-.13A4.34,4.34,0,0,0,355,148.9a7.23,7.23,0,0,0-1.31,4.77,9.79,9.79,0,0,0,.31,2.57,5.53,5.53,0,0,0,.95,2,4.38,4.38,0,0,0,1.58,1.28,5.12,5.12,0,0,0,2.2.45,7.48,7.48,0,0,0,2-.23,6.21,6.21,0,0,0,1.4-.6Z"/><path d="M369.72,160.26a3.3,3.3,0,0,0,2.46-.85,2.88,2.88,0,0,0,.84-2.08,2.63,2.63,0,0,0-.88-2.19,4.46,4.46,0,0,0-2.78-.7h-1.87v-1.8l3.14-4.29,1.49-1.17-2.06.24h-4.37v-2.86h9.94v1.85L372,151.32l-1.15.7v.13l1.1-.15a6,6,0,0,1,1.73.41,4.25,4.25,0,0,1,1.43,1,4.65,4.65,0,0,1,1,1.57,6,6,0,0,1,.37,2.16,6.36,6.36,0,0,1-.51,2.65,5.26,5.26,0,0,1-1.41,1.87,5.77,5.77,0,0,1-2.09,1.12,8.87,8.87,0,0,1-2.57.36,15.06,15.06,0,0,1-2.37-.2,7,7,0,0,1-2-.6l.91-2.81a7.44,7.44,0,0,0,3.33.75Z"/><path d="M474.3,18.49c.43-.08.89-.15,1.39-.21s1-.12,1.48-.16,1-.06,1.45-.08l1.28,0a14.2,14.2,0,0,1,2.7.25,7.33,7.33,0,0,1,2.38.87,4.72,4.72,0,0,1,1.69,1.69,5.3,5.3,0,0,1,.63,2.71,6.48,6.48,0,0,1-1.12,3.92,5.83,5.83,0,0,1-3,2.1l1.37.87L489,37.89h-4.42l-4.45-7.67-2-.37v8H474.3Zm5.88,2.94c-.39,0-.78,0-1.16,0a3.58,3.58,0,0,0-.88.11v5.68h1.62a4,4,0,0,0,2.55-.73,2.82,2.82,0,0,0,.95-2.41,2.54,2.54,0,0,0-.78-2A3.33,3.33,0,0,0,480.18,21.43Z"/><path d="M491.16,18.29h11.62v3.42H495v4.84h7.16V30H495v7.92h-3.84Z"/><path d="M505.38,18.49a25.43,25.43,0,0,1,2.59-.35c.95-.09,1.88-.13,2.82-.13a18.07,18.07,0,0,1,2.92.24,7.3,7.3,0,0,1,2.65.95,5.64,5.64,0,0,1,1.92,2,6.58,6.58,0,0,1,.74,3.32,6.86,6.86,0,0,1-.65,3.12,5.9,5.9,0,0,1-1.7,2.08,6.71,6.71,0,0,1-2.43,1.18,10.88,10.88,0,0,1-2.81.36h-1.09l-.66,0-.46-.06v6.75h-3.84Zm5.71,2.82c-.37,0-.72,0-1.06.05a5.91,5.91,0,0,0-.81.1v6.35l.33.06.48,0h.84a7.62,7.62,0,0,0,1.5-.14,3.53,3.53,0,0,0,1.33-.52,2.74,2.74,0,0,0,.94-1.05,3.82,3.82,0,0,0,.35-1.76,3.18,3.18,0,0,0-.34-1.53,2.71,2.71,0,0,0-.88-1,3.46,3.46,0,0,0-1.25-.5A6.74,6.74,0,0,0,511.09,21.31Z"/><rect class="cls-1" x="2.5" y="115.74" width="724.55" height="96.06" rx="8.68" ry="8.68"/><line class="cls-1" x1="36.45" y1="85.09" x2="36.45" y2="146.41"/><line class="cls-1" x1="54.45" y1="85.06" x2="54.45" y2="146.38"/><path d="M32.23,64.66H41v2.56H35.11v3.43h5.31v2.56H35.11V76.8h5.94v2.56H32.23Z"/><path d="M52.84,71.89l-4.09-7.23h3.47l2.26,4.24L55,70.4l.48-1.5,2.37-4.24H61l-4.24,7.08,4.45,7.62H57.76l-2.58-4.53-.57-1.56-.55,1.56-2.6,4.53H48.33Z"/><line class="cls-1" x1="657.26" y1="93.97" x2="657.26" y2="155.29"/><line class="cls-1" x1="675.26" y1="93.94" x2="675.26" y2="155.26"/><path d="M659.3,84.29a1.35,1.35,0,0,0-.49-1.09,5.38,5.38,0,0,0-1.24-.77c-.5-.23-1-.47-1.62-.71a8.17,8.17,0,0,1-1.61-.91,4.51,4.51,0,0,1-1.24-1.33,3.8,3.8,0,0,1-.5-2,4.47,4.47,0,0,1,.36-1.86,3.55,3.55,0,0,1,1-1.31,4.4,4.4,0,0,1,1.56-.78,7.87,7.87,0,0,1,2-.25,13.16,13.16,0,0,1,2.41.22,6.19,6.19,0,0,1,1.87.64l-.9,2.42a4.89,4.89,0,0,0-1.39-.54,7.86,7.86,0,0,0-2-.24,2.63,2.63,0,0,0-1.55.4,1.28,1.28,0,0,0-.53,1.07,1.32,1.32,0,0,0,.49,1.05,6,6,0,0,0,1.24.78c.5.24,1,.48,1.62.73a9.17,9.17,0,0,1,1.62.92A4.44,4.44,0,0,1,661.68,82a3.63,3.63,0,0,1,.5,2,4.84,4.84,0,0,1-.39,2,3.84,3.84,0,0,1-1.09,1.42,4.75,4.75,0,0,1-1.7.84,8.45,8.45,0,0,1-2.2.27,12,12,0,0,1-2.77-.29,8.81,8.81,0,0,1-1.76-.59l.92-2.46a3.49,3.49,0,0,0,.6.27,8,8,0,0,0,.83.28c.31.08.63.15,1,.21a7.48,7.48,0,0,0,1.07.08,3.68,3.68,0,0,0,2-.43A1.45,1.45,0,0,0,659.3,84.29Z"/><path d="M670.94,73.68a19.47,19.47,0,0,1,1.94-.26c.71-.06,1.41-.09,2.11-.09a14.92,14.92,0,0,1,2.2.17,5.46,5.46,0,0,1,2,.72,4.12,4.12,0,0,1,1.44,1.49,4.94,4.94,0,0,1,.56,2.49,5.19,5.19,0,0,1-.49,2.34,4.37,4.37,0,0,1-1.28,1.56,5.28,5.28,0,0,1-1.81.89,8.27,8.27,0,0,1-2.12.27h-.81l-.5,0-.34,0v5.06h-2.88Zm4.28,2.12a6.63,6.63,0,0,0-.79,0,5.5,5.5,0,0,0-.61.07v4.77l.25,0,.36,0h.62a6.09,6.09,0,0,0,1.13-.1,3,3,0,0,0,1-.39,2.08,2.08,0,0,0,.7-.79,3,3,0,0,0,.26-1.32,2.31,2.31,0,0,0-.25-1.15,2.08,2.08,0,0,0-.66-.72,2.62,2.62,0,0,0-.94-.38A5.39,5.39,0,0,0,675.22,75.8Z"/><path d="M243.3,5.88H246l.42,1.68h.11A4.65,4.65,0,0,1,248.22,6a5.38,5.38,0,0,1,2.42-.5,4.72,4.72,0,0,1,4,1.66c.88,1.11,1.31,2.9,1.31,5.37a11.54,11.54,0,0,1-.42,3.23,6.66,6.66,0,0,1-1.24,2.45,5.37,5.37,0,0,1-2,1.54,6.68,6.68,0,0,1-2.73.53,7.06,7.06,0,0,1-1.43-.12,5.25,5.25,0,0,1-1.12-.41v5.74H243.3Zm6.25,2.69a2.46,2.46,0,0,0-1.67.53,3.58,3.58,0,0,0-.94,1.6v5.82a3.35,3.35,0,0,0,.86.49,3.41,3.41,0,0,0,1.22.18,2.71,2.71,0,0,0,2.35-1.1,6.54,6.54,0,0,0,.78-3.66,5.49,5.49,0,0,0-.61-2.85A2.15,2.15,0,0,0,249.55,8.57Z"/><path d="M268.17,15.54h-6l-1.49,4.34h-3.83L263.89.14h2.82l7.06,19.74h-4Zm-5-3.08h4.2l-1.46-4.37L265.28,5h-.14l-.58,3.11Z"/><path d="M275.45.48q.65-.12,1.38-.21c.5-.07,1-.12,1.49-.16s1-.06,1.44-.08l1.29,0a14.35,14.35,0,0,1,2.7.25,7.41,7.41,0,0,1,2.38.87,4.69,4.69,0,0,1,1.68,1.69,5.3,5.3,0,0,1,.63,2.71,6.41,6.41,0,0,1-1.12,3.92,5.89,5.89,0,0,1-3,2.1l1.38.86,4.48,7.48h-4.43l-4.45-7.67-2-.37v8h-3.83Zm5.88,2.94-1.16,0a4.15,4.15,0,0,0-.89.12V9.24h1.63a4.09,4.09,0,0,0,2.55-.73,2.85,2.85,0,0,0,1-2.41,2.51,2.51,0,0,0-.79-2A3.26,3.26,0,0,0,281.33,3.42Z"/><path d="M141,13.08h-5.72V29.26H131.4V13.08h-5.74V9.66H141Z"/><path d="M144.08,26.18H148V15.12l.42-1.9-1.34,1.65-2.49,1.71L143,14.48l6.38-5.15h2V26.18h3.81v3.08H144.08Z"/><path d="M172.61,23.8h-3.08v5.46h-3.39V23.8h-8.48V21.73l8.88-12.21h3V20.89h3.08Zm-6.47-7.2.26-2.35h-.12l-.95,2-2.91,3.78L161,21.11l1.79-.22h3.33Z"/><path d="M337.1,78.71a3.54,3.54,0,0,0,2.65-.92,3.1,3.1,0,0,0,.91-2.24,2.81,2.81,0,0,0-1-2.35,4.74,4.74,0,0,0-3-.76h-2V70.51l3.39-4.62,1.6-1.26-2.22.25h-4.7V61.8h10.7v2l-3.95,5.29-1.23.76V70l1.17-.17a6.34,6.34,0,0,1,1.86.45,4.31,4.31,0,0,1,1.54,1,5,5,0,0,1,1,1.69,6.22,6.22,0,0,1,.4,2.33,6.9,6.9,0,0,1-.55,2.85,5.56,5.56,0,0,1-1.51,2A6.38,6.38,0,0,1,340,81.4a9.46,9.46,0,0,1-2.77.39,15,15,0,0,1-2.54-.22,7.39,7.39,0,0,1-2.13-.64l1-3a7.46,7.46,0,0,0,1.61.59A7.91,7.91,0,0,0,337.1,78.71Z"/><path d="M361.71,75.94h-3.08V81.4h-3.39V75.94h-8.48V73.87l8.88-12.21h3V73h3.08Zm-6.47-7.19.26-2.36h-.12l-.95,2-2.91,3.78-1.4,1.06,1.79-.22h3.33Z"/></g></g></svg>