<svg xmlns="http://www.w3.org/2000/svg" viewBox="0 0 455.18 208.37"><defs><style>.cls-1{fill:none;stroke:#000;stroke-miterlimit:10;stroke-width:5px;}</style></defs><title>Asset 18t4par</title><g id="Layer_2" data-name="Layer 2"><g id="Layer_1-2" data-name="Layer 1"><line class="cls-1" x1="149.18" y1="39.32" x2="149.18" y2="109.32"/><line class="cls-1" x1="111.68" y1="36.98" x2="186.68" y2="36.98"/><path class="cls-1" d="M228.67,109.32v-70h75"/><polygon points="285.36 55.88 309.29 39.31 285.36 22.75 285.36 55.88"/><path d="M208.21,156h2.47l.39,1.56h.1a4.42,4.42,0,0,1,1.6-1.46,5,5,0,0,1,2.25-.46,4.4,4.4,0,0,1,3.67,1.54q1.22,1.55,1.22,5a10.69,10.69,0,0,1-.39,3,6.29,6.29,0,0,1-1.16,2.28,5.06,5.06,0,0,1-1.87,1.43,6.14,6.14,0,0,1-2.53.49,6.89,6.89,0,0,1-1.33-.11,4.85,4.85,0,0,1-1-.38v5.33h-3.38Zm5.8,2.5a2.25,2.25,0,0,0-1.55.49,3.25,3.25,0,0,0-.87,1.48v5.41a3.1,3.1,0,0,0,.79.45,3,3,0,0,0,1.13.17,2.52,2.52,0,0,0,2.19-1,6.1,6.1,0,0,0,.73-3.4,5,5,0,0,0-.58-2.65A2,2,0,0,0,214,158.5Z"/><path d="M230.18,164.11a1.69,1.69,0,0,0-.61-1.35,6.92,6.92,0,0,0-1.53-.95c-.62-.29-1.29-.58-2-.88a10.82,10.82,0,0,1-2-1.12,5.62,5.62,0,0,1-1.53-1.65,4.7,4.7,0,0,1-.61-2.52,5.47,5.47,0,0,1,.44-2.31,4.19,4.19,0,0,1,1.26-1.62,5.51,5.51,0,0,1,1.94-1,9.12,9.12,0,0,1,2.49-.31,15.76,15.76,0,0,1,3,.27,7.49,7.49,0,0,1,2.32.79l-1.12,3a6.43,6.43,0,0,0-1.72-.66,9.66,9.66,0,0,0-2.47-.3,3.15,3.15,0,0,0-1.91.49,1.59,1.59,0,0,0-.66,1.33,1.63,1.63,0,0,0,.61,1.3,6.93,6.93,0,0,0,1.53,1c.62.3,1.29.6,2,.91a11.2,11.2,0,0,1,2,1.13,5.85,5.85,0,0,1,1.53,1.64,4.47,4.47,0,0,1,.61,2.43,6,6,0,0,1-.48,2.51,4.8,4.8,0,0,1-1.35,1.76,5.87,5.87,0,0,1-2.11,1,10.48,10.48,0,0,1-2.71.33,14.71,14.71,0,0,1-3.44-.36,10.64,10.64,0,0,1-2.18-.73l1.14-3a7.14,7.14,0,0,0,.75.34c.3.12.64.23,1,.34s.79.19,1.21.26a9.39,9.39,0,0,0,1.31.1,4.68,4.68,0,0,0,2.44-.53A1.8,1.8,0,0,0,230.18,164.11Z"/><path d="M248.35,155a5.66,5.66,0,0,1-.16,1.35,3.82,3.82,0,0,1-.56,1.23,3.71,3.71,0,0,1-1,1,4.33,4.33,0,0,1-1.51.64v.16a5.82,5.82,0,0,1,1.49.44,3.86,3.86,0,0,1,1.22.86,4,4,0,0,1,.82,1.32,5.16,5.16,0,0,1,.3,1.85,4.76,4.76,0,0,1-.6,2.43,5,5,0,0,1-1.6,1.68,7.53,7.53,0,0,1-2.28,1,10.86,10.86,0,0,1-2.62.31H240.7c-.46,0-1,0-1.48,0s-1.07-.06-1.62-.12a12,12,0,0,1-1.49-.23V150.93l1.13-.16,1.36-.13c.49,0,1-.06,1.5-.07l1.52,0a16.72,16.72,0,0,1,2.48.19,7,7,0,0,1,2.16.69,4,4,0,0,1,1.52,1.38A4.07,4.07,0,0,1,248.35,155Zm-7.67,3.4c.25,0,.53,0,.85,0s.58,0,.79-.08a4.57,4.57,0,0,0,1.71-.93,2,2,0,0,0,.71-1.62,2.16,2.16,0,0,0-.26-1.1,1.93,1.93,0,0,0-.69-.7,3,3,0,0,0-1-.36,6.15,6.15,0,0,0-1.15-.1c-.45,0-.87,0-1.25,0a7.62,7.62,0,0,0-.88.07v4.81Zm1.17,7.83a4.73,4.73,0,0,0,1.26-.16,3.31,3.31,0,0,0,1.08-.47,2.55,2.55,0,0,0,.76-.81,2.27,2.27,0,0,0,.28-1.16,2.08,2.08,0,0,0-1.22-2.1,3.6,3.6,0,0,0-1.22-.34,10.19,10.19,0,0,0-1.35-.08h-1.9v5a1.24,1.24,0,0,0,.42.08l.61,0,.67,0Z"/><path d="M252.54,166.14h3.61V155.87l.39-1.77-1.24,1.54L253,157.22l-1.43-1.95,5.93-4.78h1.9v15.65h3.53V169H252.54Z"/><path d="M278.54,168.25a5.55,5.55,0,0,1-2.12.86,13.58,13.58,0,0,1-2.64.25,9.7,9.7,0,0,1-3.11-.5,6.65,6.65,0,0,1-2.58-1.64,8,8,0,0,1-1.78-2.94,12.53,12.53,0,0,1-.67-4.38,12,12,0,0,1,.74-4.49,8.27,8.27,0,0,1,1.93-2.91,7.18,7.18,0,0,1,2.64-1.58,9.24,9.24,0,0,1,2.91-.48,15.1,15.1,0,0,1,2.64.2,9.78,9.78,0,0,1,1.78.5l-.7,3a5,5,0,0,0-1.42-.41,12.58,12.58,0,0,0-2-.13,4.33,4.33,0,0,0-3.47,1.54,7.18,7.18,0,0,0-1.31,4.76,9.79,9.79,0,0,0,.31,2.57,5.53,5.53,0,0,0,.95,2,4.38,4.38,0,0,0,1.58,1.28,5.12,5.12,0,0,0,2.2.45,7.48,7.48,0,0,0,2-.23,6.21,6.21,0,0,0,1.4-.6Z"/><path d="M285.46,166.5a3.29,3.29,0,0,0,2.45-.85,2.85,2.85,0,0,0,.85-2.08,2.63,2.63,0,0,0-.89-2.19,4.44,4.44,0,0,0-2.78-.7h-1.87v-1.79l3.14-4.29,1.49-1.17-2.06.23h-4.37V150.8h9.94v1.85l-3.67,4.91-1.14.7v.13l1.09-.15a5.91,5.91,0,0,1,1.73.41,4.25,4.25,0,0,1,1.43,1,4.59,4.59,0,0,1,1,1.57,5.75,5.75,0,0,1,.37,2.16,6.36,6.36,0,0,1-.51,2.65,5.26,5.26,0,0,1-1.4,1.87,5.9,5.9,0,0,1-2.1,1.12,8.82,8.82,0,0,1-2.57.36,15.16,15.16,0,0,1-2.37-.2,6.87,6.87,0,0,1-2-.6l.91-2.81a7.29,7.29,0,0,0,1.49.55A8,8,0,0,0,285.46,166.5Z"/><rect class="cls-1" x="2.5" y="109.82" width="450.18" height="96.06" rx="8.68" ry="8.68"/><line class="cls-1" x1="36.45" y1="79.17" x2="36.45" y2="140.49"/><line class="cls-1" x1="54.45" y1="79.14" x2="54.45" y2="140.46"/><path d="M32.23,58.74H41V61.3H35.11v3.42h5.31v2.57H35.11v3.59h5.94v2.56H32.23Z"/><path d="M52.84,66l-4.09-7.22h3.47L54.48,63,55,64.47,55.47,63l2.37-4.24H61l-4.24,7.08,4.45,7.62H57.76L55.18,68.9l-.57-1.55-.55,1.55-2.6,4.54H48.33Z"/><line class="cls-1" x1="396.26" y1="78.13" x2="396.26" y2="139.45"/><line class="cls-1" x1="414.26" y1="78.1" x2="414.26" y2="139.42"/><path d="M398.3,68.45a1.35,1.35,0,0,0-.49-1.09,5.38,5.38,0,0,0-1.24-.77c-.5-.23-1-.47-1.62-.71a8.54,8.54,0,0,1-1.62-.91,4.47,4.47,0,0,1-1.23-1.33,3.8,3.8,0,0,1-.5-2,4.47,4.47,0,0,1,.36-1.86,3.55,3.55,0,0,1,1-1.31,4.23,4.23,0,0,1,1.56-.77,7.44,7.44,0,0,1,2-.26,13.16,13.16,0,0,1,2.41.22,6.19,6.19,0,0,1,1.87.64l-.9,2.42a4.89,4.89,0,0,0-1.39-.54,7.86,7.86,0,0,0-2-.24,2.63,2.63,0,0,0-1.55.4,1.28,1.28,0,0,0-.53,1.07,1.32,1.32,0,0,0,.49,1.05,5.75,5.75,0,0,0,1.24.78c.5.24,1,.48,1.62.73a9.17,9.17,0,0,1,1.62.92,4.56,4.56,0,0,1,1.23,1.32,3.63,3.63,0,0,1,.5,2,4.84,4.84,0,0,1-.39,2,3.84,3.84,0,0,1-1.09,1.42,4.59,4.59,0,0,1-1.7.84,8.45,8.45,0,0,1-2.2.27A12,12,0,0,1,393,72.4a8.2,8.2,0,0,1-1.76-.59l.92-2.46a3.49,3.49,0,0,0,.6.27,8,8,0,0,0,.83.28c.31.08.63.15,1,.21a7.45,7.45,0,0,0,1.06.08,3.69,3.69,0,0,0,2-.43A1.44,1.44,0,0,0,398.3,68.45Z"/><path d="M409.94,57.84a19.47,19.47,0,0,1,1.94-.26c.71-.06,1.41-.09,2.11-.09a13.69,13.69,0,0,1,2.2.18,5.27,5.27,0,0,1,2,.71,4.12,4.12,0,0,1,1.44,1.49,4.94,4.94,0,0,1,.56,2.49,5.19,5.19,0,0,1-.49,2.34,4.5,4.5,0,0,1-1.28,1.57,5.22,5.22,0,0,1-1.82.88,8.19,8.19,0,0,1-2.11.27h-.82l-.49,0-.34,0V72.4h-2.88ZM414.22,60c-.28,0-.54,0-.8,0a5.57,5.57,0,0,0-.6.07v4.77l.25,0,.35,0h.63a6.09,6.09,0,0,0,1.13-.1,2.7,2.7,0,0,0,1-.39,2,2,0,0,0,.71-.79,3,3,0,0,0,.26-1.32,2.33,2.33,0,0,0-.25-1.15,2.08,2.08,0,0,0-.66-.72,2.7,2.7,0,0,0-.94-.38A5.39,5.39,0,0,0,414.22,60Z"/><path d="M141,7.15h-5.72V23.34H131.4V7.15h-5.74V3.74H141Z"/><path d="M144.08,20.26H148V9.2l.42-1.91L147.05,9l-2.49,1.7L143,8.55,149.4,3.4h2V20.26h3.81v3.08H144.08Z"/><path d="M172.61,17.88h-3.08v5.46h-3.39V17.88h-8.48V15.81L166.54,3.6h3V15h3.08Zm-6.47-7.2.26-2.35h-.12l-.95,2-2.91,3.78L161,15.19l1.79-.22h3.33Z"/><path d="M230,5.88h2.66L233,7.56h.11A4.67,4.67,0,0,1,234.88,6a5.38,5.38,0,0,1,2.42-.5,4.74,4.74,0,0,1,3.95,1.66q1.31,1.66,1.31,5.37a11.54,11.54,0,0,1-.42,3.23,6.82,6.82,0,0,1-1.24,2.45,5.45,5.45,0,0,1-2,1.54,6.68,6.68,0,0,1-2.73.53,7.06,7.06,0,0,1-1.43-.12,5.25,5.25,0,0,1-1.12-.41v5.74H230Zm6.25,2.69a2.46,2.46,0,0,0-1.67.53,3.58,3.58,0,0,0-.94,1.6v5.82a3.19,3.19,0,0,0,.86.49,3.36,3.36,0,0,0,1.21.18,2.72,2.72,0,0,0,2.36-1.1,6.54,6.54,0,0,0,.78-3.66,5.48,5.48,0,0,0-.62-2.85A2.13,2.13,0,0,0,236.21,8.57Z"/><path d="M254.83,15.54h-6l-1.49,4.34h-3.83l7-19.74h2.83l7.06,19.74h-4Zm-5-3.08H254l-1.46-4.37L251.94,5h-.14l-.59,3.11Z"/><path d="M262.11.48q.64-.12,1.38-.21c.5-.07,1-.12,1.49-.16s1-.06,1.44-.08l1.29,0a14.35,14.35,0,0,1,2.7.25,7.5,7.5,0,0,1,2.38.87,4.69,4.69,0,0,1,1.68,1.69,5.3,5.3,0,0,1,.63,2.71A6.48,6.48,0,0,1,274,9.44a5.89,5.89,0,0,1-3,2.1l1.37.86,4.48,7.48h-4.42L268,12.21l-2-.37v8h-3.83ZM268,3.42l-1.17,0a4.13,4.13,0,0,0-.88.12V9.24h1.63a4,4,0,0,0,2.54-.73,2.83,2.83,0,0,0,1-2.41,2.55,2.55,0,0,0-.79-2A3.27,3.27,0,0,0,268,3.42Z"/></g></g></svg>