<?xml version="1.0" encoding="utf-8"?>
<!-- Generator: Adobe Illustrator 22.1.0, SVG Export Plug-In . SVG Version: 6.00 Build 0)  -->
<svg version="1.1" id="Layer_1" xmlns="http://www.w3.org/2000/svg" xmlns:xlink="http://www.w3.org/1999/xlink" x="0px" y="0px"
	 viewBox="0 0 1280 1024" style="enable-background:new 0 0 1280 1024;" xml:space="preserve">
<style type="text/css">
	.st0{fill:#C6D1E5;}
	.st1{fill:#FFA635;}
	.st2{fill:#C6E1D5;}
	.st3{fill:#C6CA6C;stroke:#000000;stroke-width:3;stroke-miterlimit:10;}
	.st4{fill:none;}
	.st5{font-family:'PTSans-Bold';}
	.st6{font-size:15px;}
	.st7{fill:#FFFFFF;}
	.st8{fill:#0079BF;}
</style>
<g>
	<g>
		<g>
			<path d="M248.8,293.2c9.7,11.7,26.5,9.1,37.8,1.3c13.7-9.4,23.7-23.6,35.2-35.3c12.7-12.9,27.3-22.2,44.6-27.2
				c17.4-5,35.7-6.3,53.8-5c1.9,0.1,1.9-2.9,0-3c-31.3-2.2-65.1,3-90,23.4c-12.6,10.3-22.5,23.4-34,34.9
				c-11.1,11.2-31.9,24.8-45.3,8.8C249.7,289.6,247.6,291.7,248.8,293.2L248.8,293.2z"/>
		</g>
	</g>
	<g>
		<g>
			<path d="M404.6,217.9c6.8,1,13.3,2.7,19.7,5.2c-0.2-0.8-0.4-1.7-0.7-2.5c-4.9,5.5-9.9,11.1-14.8,16.6c-1.3,1.4,0.8,3.6,2.1,2.1
				c4.9-5.5,9.9-11.1,14.8-16.6c0.8-0.9,0.4-2.1-0.7-2.5c-6.4-2.4-12.9-4.1-19.7-5.2C403.5,214.8,402.7,217.7,404.6,217.9
				L404.6,217.9z"/>
		</g>
	</g>
	<path class="st0" d="M467.2,242.7c0.6-10.1,50.7-11.2,52.3-8.4c1.6,2.8,0.6,12.9,0.2,16c-1.9,15.3-2.7,32.7-5.5,36.9
		c-3.9,5.8-9.1,6.4-16.1,7.3c-8.9,1.1-15.2-8.3-21.6-15.9c-5-5.9-9-16.3-9.5-27C466.9,248.4,466.9,248.5,467.2,242.7z"/>
	<g>
		<g>
			<path d="M452.5,161.5c2.3,22.1,6.5,43.9,9.8,65.8c1.6,10.8,2,22.1,4.7,32.7c2.3,9.2,6.7,18.3,12.6,25.7
				c8.2,10.3,26.2,15.4,35.2,3.3c5.1-6.8,5.3-16.2,5.8-24.4c0.7-11.7,0.7-23.5,0.2-35.2c-1.2-26.3-5.1-52.4-8.9-78.4
				c-0.2-1.3-2.2-1.4-2.7-0.4c-4,7.2-10.3,10.2-18.2,11.5c-5.7,0.9-11.6,1.1-17.4,1.2c-4.9,0.1-20.7,2.7-18.8-6.3
				c1.3-6.4,10.6-10.3,16.1-12.2c5.5-2,11.3-2.5,17.1-2.7c4.7-0.1,10.7-0.7,15.1,1.7c3.1,1.7,4.6,5.3,6.2,8.3
				c0.9,1.7,3.5,0.2,2.6-1.5c-3.7-7-7.2-10.7-15.4-11.4c-11.6-1-23.6,0.5-33.9,6c-4.3,2.3-9.3,6-10.6,11c-1,4,1.1,8,4.9,9.5
				c5.2,2.1,12.2,0.7,17.7,0.6c5.8-0.1,11.6-0.4,17.4-1.3c8.7-1.4,15.6-5,19.9-12.8c-0.9-0.1-1.8-0.2-2.7-0.4
				c5.9,39.8,12.8,81.4,7.9,121.7c-1.1,9.3-5.2,19.1-15.9,19.5c-8.6,0.3-15.9-4.7-20.7-11.5c-5.2-7.4-9.1-16-10.9-24.8
				c-2-9.3-2.4-19-3.8-28.4c-3.3-22.3-7.7-44.4-10-66.8C455.3,159.6,452.3,159.6,452.5,161.5L452.5,161.5z"/>
		</g>
	</g>
	<g>
		<g>
			<path d="M551.9,244c34.7-13.4,70.6,1.6,101.1,18.8c26,14.6,48.7,34.5,54.9,64.9c4.2,20.9,3,42.3,1.9,63.4
				c0.8-0.4,1.5-0.9,2.3-1.3c-6-4.3-12-8.6-18-12.9c-0.5,0.9-1,1.7-1.5,2.6c8,5,15,11.1,20.9,18.5c0.7,0.9,2.3,0.4,2.5-0.7
				c2-7.8,6.8-14,14-17.8c1.7-0.9,0.2-3.5-1.5-2.6c-7.8,4.1-13.3,11-15.4,19.6c0.8-0.2,1.7-0.4,2.5-0.7
				c-6.1-7.5-13.3-13.8-21.5-18.9c-1.7-1-3.1,1.5-1.5,2.6c6,4.3,12,8.6,18,12.9c1,0.7,2.2-0.3,2.3-1.3c1.9-33.8,4.2-71.7-18.5-99.5
				c-9.5-11.6-21.7-20.7-34.5-28.3c-15-9-31.2-17-47.9-22.3c-20-6.3-40.9-7.5-60.7,0.2C549.4,241.8,550.1,244.7,551.9,244L551.9,244
				z"/>
		</g>
	</g>
	<g>
		<g>
			<path d="M463.4,560c-6.4,2-12.5,4.6-18.3,7.9c-0.6,0.3-0.9,1.1-0.7,1.7c2.3,7.4,4.6,14.8,6.9,22.3c1-0.3,1.9-0.5,2.9-0.8
				c-2.4-7.1-4.9-14.2-7.3-21.3c-0.8,0.5-1.7,1-2.5,1.5c7.3,8.5,19.3,13.8,29.7,17.5c13.2,4.7,27.2,7.3,41.1,8.9
				c29.4,3.4,60.2,3.2,89.1-3.9c8.9-2.2,17.6-4.9,26.2-8.1c6.9-2.6,13.6-5.7,17.7-12.1c1-1.6-1.6-3.1-2.6-1.5
				c-4.3,6.7-12.2,9.4-19.4,11.9c-7.2,2.6-14.5,4.8-21.9,6.7c-14.2,3.5-28.8,5.3-43.4,5.7c-26.4,0.8-53.7-0.7-79.1-8.3
				c-12.1-3.6-26.7-9-35.1-18.9c-1-1.1-3,0.1-2.5,1.5c2.4,7.1,4.9,14.2,7.3,21.3c0.6,1.8,3.5,1.1,2.9-0.8
				c-2.3-7.4-4.6-14.8-6.9-22.3c-0.2,0.6-0.5,1.1-0.7,1.7c5.6-3.2,11.4-5.7,17.6-7.6C466.1,562.3,465.3,559.4,463.4,560L463.4,560z"
				/>
		</g>
	</g>
	<g>
		<g>
			<path d="M300.1,562.2c11.3-12.9,23.3-25,36.1-36.4c-0.9-0.4-1.7-0.7-2.6-1.1c-0.3,4.7-0.6,9.4-0.9,14.1c1,0,2,0,3,0
				c-0.2-4,0.1-7.8,0.9-11.8c0.1-0.7-0.2-1.7-1-1.8c-6.5-0.9-12.5,0.4-17.9,4.2c-1.6,1.1-0.1,3.7,1.5,2.6c4.7-3.3,9.9-4.7,15.6-3.9
				c-0.3-0.6-0.7-1.2-1-1.8c-0.9,4.2-1.2,8.3-1,12.6c0.1,1.9,2.9,1.9,3,0c0.3-4.7,0.6-9.4,0.9-14.1c0.1-1.4-1.7-1.9-2.6-1.1
				c-12.8,11.4-24.8,23.5-36.1,36.4C296.7,561.6,298.8,563.7,300.1,562.2L300.1,562.2z"/>
		</g>
	</g>
	<g>
		<g>
			<path d="M294.1,429.9c-14.9-22.2-23.5-48.3-24.6-75.1c-0.9-21.2,1.6-53,22.9-64.4c1.7-0.9,0.2-3.5-1.5-2.6
				c-21.4,11.4-24.9,42.2-24.5,63.7c0.5,28.4,9.3,56.3,25.1,79.9C292.6,433,295.2,431.5,294.1,429.9L294.1,429.9z"/>
		</g>
	</g>
	<g>
		<g>
			<path d="M312.9,433.1c9.9,13.2,19.3,26.7,28.2,40.5c4.4,6.8,8.6,13.6,12.8,20.6c1.9,3.2,3.8,6.4,5.6,9.6c1.5,2.6,2.1,4.9,5.1,5.5
				c7.5,1.5,15.4,1.8,23,3.1c11.5,1.9,22.9,4.1,34.3,6.3c12.7,2.5,25.3,5.1,37.9,7.8c3.8,0.8,5.4-5,1.6-5.8
				c-18.3-4-36.6-7.7-55.1-11.1c-13.7-2.5-28-5.9-42-6.4c0.9,0.5,1.7,1,2.6,1.5c-14.7-25.9-31-50.9-48.9-74.8
				C315.8,427,310.5,430,312.9,433.1L312.9,433.1z"/>
		</g>
	</g>
	<g>
		<g>
			<path class="st1" d="M294.4,440.7c3.8,4.5,6.9,9.4,9.4,14.8c0.9-1.5,1.7-3,2.6-4.5c-8.7,0.3-14.9,9.4-9.9,17.3
				c5.4,8.4,16.5,5.7,22.6-0.1c-1.4,0-2.8,0-4.2,0c8.2,10.5,15.8,21.4,23,32.6c2.1,3.2,7.3,0.2,5.2-3c-7.4-11.7-15.4-22.9-24-33.8
				c-1-1.3-3.2-1-4.2,0c-2.9,2.7-7.1,5-11,3c-5.5-2.7-3-9.9,2.5-10c2.4-0.1,3.5-2.5,2.6-4.5c-2.7-5.8-6.2-11.1-10.3-16
				C296.2,433.5,292,437.7,294.4,440.7L294.4,440.7z"/>
		</g>
	</g>
	<g>
		<g>
			<path d="M457.8,535.9c-22-2.2-44-6-65.8-9.6c-9.4-1.6-18.9-3.2-28.3-5c-1.4-0.3-3-0.8-4.5-0.9c-2.6-0.1-3.7,1.5-5.4,3.4
				c-5,5.2-9.8,10.5-14.6,15.8c-11.2,12.5-22.2,25.1-33,38c-2.5,2.9,1.7,7.2,4.2,4.2c16.2-19.2,32.7-38.3,50.1-56.4
				c-1,0.3-1.9,0.5-2.9,0.8c33,6.6,66.6,12.3,100.1,15.7C461.6,542.3,461.6,536.3,457.8,535.9L457.8,535.9z"/>
		</g>
	</g>
	<g>
		<path class="st2" d="M336.3,512l-20.7-29.6c-2.5-3.5-1.6-8.4,1.9-10.8l2.6-1.8c3.5-2.5,8.4-1.6,10.8,1.9l20.7,29.6
			c2.5,3.5,1.6,8.4-1.9,10.8l-2.6,1.8C343.6,516.3,338.8,515.5,336.3,512z"/>
	</g>
	<g>
		<path class="st0" d="M669.8,414.9c-2.3,2.1-1.1,5.8-1.1,13.9c0,1.2-0.4,5.9-1.3,15.2c-2,20.4-3,22.3-0.9,25.2
			c1,1.4,5.5,3.6,14.5,8.1c6.3,3.1,7.9,3.7,9,5.8c1.2,2.3,0.2,3.3-1.6,14.2c-2,12.1-0.5,9.9-1.8,14.4c-0.6,2.1-1.3,3.8-0.4,5
			c1.4,2,6.3,2.2,8.2,0c1.5-1.7,0.3-3.9,0.3-9.3c0.1-4.5,0.9-4.5,1.4-9.6c0.9-9.4-1.9-11.3,0.2-14.8c1.1-2,2.5-2.3,11-6
			c8.1-3.5,12.1-5.3,12.9-6.1c3.1-3,3.6-10.5,4.4-25.1c0.7-12.3,0-13.5,1.4-18.8c1.5-5.7,3.3-8.1,2-10.1c-1.8-2.8-6.9-1.3-18.7-0.8
			c-13.2,0.6-19.8,0.9-27.8-0.6C675.4,414.3,672.1,412.9,669.8,414.9z"/>
		<g>
			<g>
				<path d="M719.5,469.7c-6.8,4.2-14.6,6.4-21.5,10.5c-2.4,1.4-2.9,1.4-3.2,3.8c-0.3,1.9-0.2,3.8-0.3,5.7c-0.5,9-1.1,18.1-1.6,27.1
					c0.5-0.5,1-1,1.5-1.5c-2.7,0-5.5,0-8.2,0c0.5,0.5,1,1,1.5,1.5c1.3-11.2,2.6-22.4,3.9-33.6c0.1-0.5-0.3-1-0.7-1.3
					c-7.6-5.1-15.4-9.7-23.6-13.9c-1.1-0.6-2.1,0.2-2.3,1.3c-1.7,16.1-3.5,32.2-5.2,48.3c1,0,2,0,3,0c2.5-30,5.1-60,7.6-90
					c0.4-4.2,0.7-8.4,1.1-12.6c-0.5,0.5-1,1-1.5,1.5c19.4,1.4,38.8,0.6,58.2,2c-0.5-0.5-1-1-1.5-1.5c-3.4,29.3-6.8,58.6-10.3,87.9
					c-0.5,3.8-0.2,9.4-1.6,12.9c1,0.1,2,0.3,2.9,0.4c0,0,0,0,0,0c-0.1-0.8-0.6-1.5-1.5-1.5c-18,0-36,0-54,0c-1.9,0-1.9,3,0,3
					c18,0,36,0,54,0c-0.5-0.5-1-1-1.5-1.5c0,0,0,0,0,0c0.2,1.7,2.3,2,2.9,0.4c1.1-2.8,0.9-6.8,1.2-9.8c1-8.1,1.9-16.1,2.9-24.2
					c2.2-18.3,4.3-36.6,6.5-54.9c0.5-4.2,1-8.4,1.5-12.6c0.1-0.8-0.8-1.4-1.5-1.5c-19.4-1.4-38.8-0.6-58.2-2
					c-0.9-0.1-1.4,0.7-1.5,1.5c-2.5,30-5.1,60-7.6,90c-0.4,4.2-0.7,8.4-1.1,12.6c-0.2,1.9,2.8,1.9,3,0c1.7-16.1,3.5-32.2,5.2-48.3
					c-0.8,0.4-1.5,0.9-2.3,1.3c4.1,2.1,8.1,4.3,12,6.6c2.2,1.3,4.3,2.6,6.4,3.9c0.6,0.4,4.5,2.3,4.4,2.2c0.3,0.6-0.3,2.4-0.3,3
					c-0.3,2.2-0.5,4.4-0.8,6.5c-0.9,8-1.8,16-2.8,24c-0.1,0.8,0.8,1.5,1.5,1.5c2.7,0,5.5,0,8.2,0c0.8,0,1.4-0.7,1.5-1.5
					c0.5-8.3,1-16.6,1.5-24.9c0.1-2.1,0.2-4.1,0.3-6.2c0.1-2.7,0.1-2.1,2.6-3.4c6.8-3.4,14.2-6.1,20.7-10
					C722.7,471.3,721.1,468.7,719.5,469.7L719.5,469.7z"/>
			</g>
		</g>
	</g>
	<g>
		<path d="M631.4,536.6h6.2v1.8h-4.2v2.4h3.8v1.8h-3.8v2.6h4.2v1.8h-6.3V536.6z"/>
		<path d="M641.2,544.6c0,0.3,0,0.6,0.1,0.8s0.2,0.2,0.4,0.2c0.1,0,0.2,0,0.4,0c0.1,0,0.3-0.1,0.4-0.1l0.2,1.5
			c-0.2,0.1-0.4,0.2-0.7,0.2s-0.7,0.1-1,0.1c-0.6,0-1-0.1-1.3-0.4c-0.3-0.3-0.5-0.7-0.5-1.3v-9h2V544.6z"/>
		<path d="M649.6,546.4c-0.3,0.2-0.7,0.4-1.2,0.6c-0.5,0.2-1.1,0.2-1.6,0.2c-1.2,0-2.1-0.4-2.7-1.1c-0.6-0.7-0.8-1.7-0.8-2.9
			c0-1.3,0.3-2.3,0.9-3c0.6-0.7,1.5-1,2.7-1c0.4,0,0.8,0,1.1,0.2c0.4,0.1,0.7,0.3,1,0.5c0.3,0.2,0.5,0.5,0.7,0.9
			c0.2,0.4,0.3,0.9,0.3,1.5c0,0.2,0,0.4,0,0.7c0,0.2-0.1,0.5-0.1,0.8h-4.5c0,0.6,0.2,1.1,0.5,1.4s0.8,0.5,1.4,0.5
			c0.4,0,0.8-0.1,1.1-0.2c0.3-0.1,0.6-0.3,0.7-0.4L649.6,546.4z M646.8,540.9c-0.5,0-0.9,0.2-1.1,0.5s-0.4,0.7-0.4,1.2h2.8
			c0-0.5,0-1-0.2-1.2S647.3,540.9,646.8,540.9z"/>
		<path d="M656.5,546.6c-0.3,0.2-0.7,0.4-1.1,0.5c-0.4,0.1-0.9,0.2-1.3,0.2c-0.6,0-1.1-0.1-1.5-0.3c-0.4-0.2-0.8-0.5-1-0.8
			c-0.3-0.3-0.4-0.8-0.6-1.3c-0.1-0.5-0.2-1-0.2-1.6c0-1.3,0.3-2.2,0.9-2.9c0.6-0.7,1.4-1,2.5-1c0.5,0,1,0,1.3,0.1
			c0.3,0.1,0.6,0.2,0.9,0.3l-0.5,1.6c-0.2-0.1-0.5-0.2-0.7-0.3c-0.2-0.1-0.5-0.1-0.8-0.1c-0.5,0-1,0.2-1.2,0.5
			c-0.3,0.4-0.4,0.9-0.4,1.7c0,0.3,0,0.6,0.1,0.9c0.1,0.3,0.2,0.5,0.3,0.7s0.3,0.4,0.5,0.5c0.2,0.1,0.5,0.2,0.8,0.2
			c0.3,0,0.6,0,0.8-0.1c0.2-0.1,0.4-0.2,0.6-0.3L656.5,546.6z"/>
		<path d="M656.9,539.6h1v-1.4l1.9-0.6v2h1.8v1.7h-1.8v2.9c0,0.5,0.1,0.9,0.2,1.1c0.1,0.2,0.3,0.3,0.6,0.3c0.2,0,0.4,0,0.5-0.1
			c0.1,0,0.3-0.1,0.5-0.2l0.3,1.5c-0.3,0.1-0.6,0.2-0.9,0.3c-0.4,0.1-0.7,0.1-1.1,0.1c-0.7,0-1.2-0.2-1.5-0.5
			c-0.3-0.4-0.5-0.9-0.5-1.7v-3.8h-1V539.6z"/>
		<path d="M667,541.4c-0.3-0.1-0.6-0.2-0.8-0.2c-0.4,0-0.6,0.1-0.9,0.3c-0.2,0.2-0.4,0.4-0.5,0.7v4.8h-1.9v-7.5h1.5l0.2,1h0.1
			c0.2-0.4,0.4-0.7,0.7-0.9c0.3-0.2,0.6-0.3,1-0.3c0.3,0,0.6,0.1,0.9,0.2L667,541.4z"/>
		<path d="M667.8,543.3c0-1.3,0.3-2.2,0.9-2.9c0.6-0.7,1.5-1,2.6-1c0.6,0,1.1,0.1,1.6,0.3c0.4,0.2,0.8,0.5,1.1,0.8
			c0.3,0.3,0.5,0.8,0.7,1.3c0.1,0.5,0.2,1,0.2,1.6c0,1.3-0.3,2.2-0.9,2.9s-1.5,1-2.6,1c-0.6,0-1.1-0.1-1.6-0.3
			c-0.4-0.2-0.8-0.5-1.1-0.8c-0.3-0.3-0.5-0.8-0.7-1.3C667.9,544.5,667.8,543.9,667.8,543.3z M669.8,543.3c0,0.3,0,0.6,0.1,0.9
			c0.1,0.3,0.2,0.5,0.3,0.7s0.3,0.4,0.5,0.5c0.2,0.1,0.4,0.2,0.7,0.2c0.5,0,0.9-0.2,1.1-0.6s0.4-1,0.4-1.8c0-0.7-0.1-1.2-0.3-1.7
			c-0.2-0.4-0.6-0.6-1.2-0.6c-0.5,0-0.9,0.2-1.1,0.5C670,541.9,669.8,542.5,669.8,543.3z"/>
		<path d="M676.2,539.6h1.4l0.2,0.9h0.1c0.3-0.4,0.6-0.7,0.9-0.8c0.4-0.2,0.8-0.3,1.3-0.3c0.9,0,1.6,0.3,2.1,0.9
			c0.5,0.6,0.7,1.6,0.7,2.9c0,0.6-0.1,1.2-0.2,1.7c-0.1,0.5-0.4,1-0.7,1.3c-0.3,0.4-0.7,0.6-1.1,0.8c-0.4,0.2-0.9,0.3-1.5,0.3
			c-0.3,0-0.6,0-0.8-0.1c-0.2,0-0.4-0.1-0.6-0.2v3.1h-1.9V539.6z M679.6,541c-0.4,0-0.7,0.1-0.9,0.3c-0.2,0.2-0.4,0.5-0.5,0.9v3.1
			c0.1,0.1,0.3,0.2,0.5,0.3c0.2,0.1,0.4,0.1,0.7,0.1c0.6,0,1-0.2,1.3-0.6c0.3-0.4,0.4-1,0.4-2c0-0.7-0.1-1.2-0.3-1.5
			C680.4,541.2,680.1,541,679.6,541z"/>
		<path d="M684,543.3c0-1.3,0.3-2.2,0.9-2.9c0.6-0.7,1.5-1,2.6-1c0.6,0,1.1,0.1,1.6,0.3c0.4,0.2,0.8,0.5,1.1,0.8
			c0.3,0.3,0.5,0.8,0.7,1.3c0.1,0.5,0.2,1,0.2,1.6c0,1.3-0.3,2.2-0.9,2.9s-1.5,1-2.6,1c-0.6,0-1.1-0.1-1.6-0.3
			c-0.4-0.2-0.8-0.5-1.1-0.8c-0.3-0.3-0.5-0.8-0.7-1.3C684,544.5,684,543.9,684,543.3z M686,543.3c0,0.3,0,0.6,0.1,0.9
			c0.1,0.3,0.2,0.5,0.3,0.7s0.3,0.4,0.5,0.5c0.2,0.1,0.4,0.2,0.7,0.2c0.5,0,0.9-0.2,1.1-0.6s0.4-1,0.4-1.8c0-0.7-0.1-1.2-0.3-1.7
			c-0.2-0.4-0.6-0.6-1.2-0.6c-0.5,0-0.9,0.2-1.1,0.5C686.1,541.9,686,542.5,686,543.3z"/>
		<path d="M696.5,541.4c-0.3-0.1-0.6-0.2-0.8-0.2c-0.4,0-0.6,0.1-0.9,0.3c-0.2,0.2-0.4,0.4-0.5,0.7v4.8h-1.9v-7.5h1.5l0.2,1h0.1
			c0.2-0.4,0.4-0.7,0.7-0.9c0.3-0.2,0.6-0.3,1-0.3c0.3,0,0.6,0.1,0.9,0.2L696.5,541.4z"/>
		<path d="M697.6,540c0.4-0.2,0.9-0.3,1.4-0.4c0.5-0.1,1.1-0.2,1.7-0.2c0.5,0,1,0.1,1.3,0.2c0.4,0.1,0.6,0.3,0.8,0.5
			c0.2,0.2,0.3,0.5,0.4,0.8c0.1,0.3,0.1,0.7,0.1,1.1c0,0.4,0,0.9,0,1.3c0,0.4,0,0.9-0.1,1.3s0,0.8,0,1.3c0,0.4,0.1,0.8,0.2,1.1H702
			l-0.3-1h-0.1c-0.2,0.3-0.5,0.6-0.8,0.8c-0.4,0.2-0.8,0.3-1.4,0.3c-0.3,0-0.7-0.1-0.9-0.2c-0.3-0.1-0.5-0.3-0.7-0.5
			c-0.2-0.2-0.4-0.4-0.5-0.7c-0.1-0.3-0.2-0.6-0.2-0.9c0-0.5,0.1-0.8,0.3-1.2c0.2-0.3,0.5-0.6,0.9-0.8c0.4-0.2,0.8-0.3,1.4-0.4
			c0.5-0.1,1.1-0.1,1.8-0.1c0.1-0.6,0-1-0.1-1.2c-0.1-0.2-0.5-0.4-1-0.4c-0.4,0-0.8,0-1.2,0.1c-0.4,0.1-0.8,0.2-1.1,0.3L697.6,540z
			 M700.1,545.6c0.4,0,0.7-0.1,0.9-0.3s0.4-0.4,0.5-0.6v-1c-0.3,0-0.6,0-0.9,0c-0.3,0-0.5,0.1-0.8,0.1c-0.2,0.1-0.4,0.2-0.5,0.3
			s-0.2,0.3-0.2,0.5c0,0.3,0.1,0.5,0.2,0.7C699.6,545.5,699.8,545.6,700.1,545.6z"/>
		<path d="M704.3,539.6h1v-1.4l1.9-0.6v2h1.8v1.7h-1.8v2.9c0,0.5,0.1,0.9,0.2,1.1c0.1,0.2,0.3,0.3,0.6,0.3c0.2,0,0.4,0,0.5-0.1
			c0.1,0,0.3-0.1,0.5-0.2l0.3,1.5c-0.3,0.1-0.6,0.2-0.9,0.3c-0.4,0.1-0.7,0.1-1.1,0.1c-0.7,0-1.2-0.2-1.5-0.5
			c-0.3-0.4-0.5-0.9-0.5-1.7v-3.8h-1V539.6z"/>
		<path d="M710.2,537.5c0-0.3,0.1-0.5,0.3-0.7s0.5-0.3,0.9-0.3s0.7,0.1,0.9,0.3c0.2,0.2,0.4,0.5,0.4,0.7s-0.1,0.5-0.4,0.7
			c-0.2,0.2-0.5,0.3-0.9,0.3s-0.7-0.1-0.9-0.3C710.3,538,710.2,537.8,710.2,537.5z M710.5,539.6h2v7.5h-2V539.6z"/>
		<path d="M714,543.3c0-1.3,0.3-2.2,0.9-2.9c0.6-0.7,1.5-1,2.6-1c0.6,0,1.1,0.1,1.6,0.3c0.4,0.2,0.8,0.5,1.1,0.8
			c0.3,0.3,0.5,0.8,0.7,1.3c0.1,0.5,0.2,1,0.2,1.6c0,1.3-0.3,2.2-0.9,2.9s-1.5,1-2.6,1c-0.6,0-1.1-0.1-1.6-0.3
			c-0.4-0.2-0.8-0.5-1.1-0.8c-0.3-0.3-0.5-0.8-0.7-1.3C714.1,544.5,714,543.9,714,543.3z M716,543.3c0,0.3,0,0.6,0.1,0.9
			c0.1,0.3,0.2,0.5,0.3,0.7s0.3,0.4,0.5,0.5c0.2,0.1,0.4,0.2,0.7,0.2c0.5,0,0.9-0.2,1.1-0.6s0.4-1,0.4-1.8c0-0.7-0.1-1.2-0.3-1.7
			c-0.2-0.4-0.6-0.6-1.2-0.6c-0.5,0-0.9,0.2-1.1,0.5C716.1,541.9,716,542.5,716,543.3z"/>
		<path d="M727,547.1v-4.3c0-0.6-0.1-1-0.3-1.3c-0.2-0.3-0.5-0.4-0.9-0.4c-0.4,0-0.7,0.1-0.9,0.3s-0.4,0.5-0.5,0.8v4.9h-1.9v-7.5
			h1.5l0.2,1h0.1c0.2-0.3,0.5-0.6,0.9-0.8c0.4-0.2,0.9-0.4,1.5-0.4c0.4,0,0.7,0,1,0.2c0.3,0.1,0.5,0.3,0.7,0.5
			c0.2,0.2,0.3,0.5,0.5,0.9c0.1,0.4,0.1,0.9,0.1,1.5v4.7H727z"/>
	</g>
	<g>
		<path d="M485.8,321.8c-0.3,0.2-0.7,0.4-1.2,0.5s-1,0.1-1.5,0.1c-0.6,0-1.2-0.1-1.8-0.3c-0.6-0.2-1.1-0.5-1.5-0.9
			c-0.4-0.4-0.8-1-1-1.7c-0.3-0.7-0.4-1.5-0.4-2.5c0-1,0.1-1.9,0.4-2.6s0.7-1.3,1.1-1.7c0.5-0.4,1-0.7,1.5-0.9
			c0.6-0.2,1.1-0.3,1.7-0.3c0.6,0,1.1,0,1.5,0.1s0.8,0.2,1,0.3l-0.4,1.7c-0.2-0.1-0.5-0.2-0.8-0.2c-0.3,0-0.7-0.1-1.1-0.1
			c-0.8,0-1.5,0.3-2,0.9c-0.5,0.6-0.8,1.5-0.8,2.8c0,0.5,0.1,1,0.2,1.5c0.1,0.4,0.3,0.8,0.5,1.1c0.2,0.3,0.5,0.6,0.9,0.7
			c0.4,0.2,0.8,0.3,1.3,0.3c0.4,0,0.8,0,1.1-0.1c0.3-0.1,0.6-0.2,0.8-0.3L485.8,321.8z"/>
		<path d="M488.7,314.7v4.3c0,0.6,0.1,1.1,0.2,1.3s0.4,0.4,0.8,0.4c0.4,0,0.7-0.1,0.9-0.3c0.2-0.2,0.4-0.5,0.5-0.8v-4.8h1.9v5.2
			c0,0.4,0,0.8,0.1,1.2s0.1,0.8,0.2,1.1H492l-0.3-1.1h-0.1c-0.2,0.4-0.6,0.7-1,0.9c-0.4,0.2-0.9,0.4-1.5,0.4c-0.4,0-0.7-0.1-1-0.1
			c-0.3-0.1-0.6-0.3-0.8-0.5c-0.2-0.2-0.4-0.5-0.5-0.9c-0.1-0.4-0.2-0.9-0.2-1.5v-4.7H488.7z"/>
		<path d="M496.9,319.7c0,0.4,0,0.6,0.1,0.8s0.2,0.2,0.4,0.2c0.1,0,0.2,0,0.4,0c0.1,0,0.3-0.1,0.4-0.1l0.2,1.5
			c-0.2,0.1-0.4,0.2-0.7,0.2s-0.7,0.1-1,0.1c-0.6,0-1-0.1-1.3-0.4c-0.3-0.3-0.5-0.7-0.5-1.3v-9h2V319.7z"/>
		<path d="M498.5,314.7h1v-1.4l2-0.6v2h1.8v1.6h-1.8v2.9c0,0.5,0.1,0.9,0.2,1.1s0.3,0.3,0.6,0.3c0.2,0,0.4,0,0.5-0.1
			c0.1,0,0.3-0.1,0.5-0.2l0.3,1.5c-0.3,0.1-0.6,0.2-0.9,0.3c-0.4,0.1-0.7,0.1-1.1,0.1c-0.7,0-1.2-0.2-1.5-0.5
			c-0.3-0.4-0.5-0.9-0.5-1.7v-3.8h-1V314.7z"/>
		<path d="M506.4,314.7v4.3c0,0.6,0.1,1.1,0.2,1.3s0.4,0.4,0.8,0.4c0.4,0,0.7-0.1,0.9-0.3c0.2-0.2,0.4-0.5,0.5-0.8v-4.8h1.9v5.2
			c0,0.4,0,0.8,0.1,1.2s0.1,0.8,0.2,1.1h-1.5l-0.3-1.1h-0.1c-0.2,0.4-0.6,0.7-1,0.9c-0.4,0.2-0.9,0.4-1.5,0.4c-0.4,0-0.7-0.1-1-0.1
			c-0.3-0.1-0.6-0.3-0.8-0.5c-0.2-0.2-0.4-0.5-0.5-0.9c-0.1-0.4-0.2-0.9-0.2-1.5v-4.7H506.4z"/>
		<path d="M516.8,316.6c-0.3-0.1-0.6-0.2-0.8-0.2c-0.4,0-0.6,0.1-0.9,0.3c-0.2,0.2-0.4,0.4-0.5,0.7v4.8h-2v-7.5h1.5l0.2,1h0.1
			c0.2-0.4,0.4-0.7,0.7-0.9c0.3-0.2,0.6-0.3,1-0.3c0.3,0,0.6,0.1,0.9,0.2L516.8,316.6z"/>
		<path d="M523.9,321.6c-0.3,0.2-0.7,0.4-1.2,0.6s-1.1,0.2-1.6,0.2c-1.2,0-2.1-0.4-2.7-1.1s-0.8-1.7-0.8-2.9c0-1.3,0.3-2.3,0.9-3
			c0.6-0.7,1.5-1,2.7-1c0.4,0,0.8,0.1,1.1,0.1c0.4,0.1,0.7,0.3,1,0.5c0.3,0.2,0.5,0.5,0.7,0.9c0.2,0.4,0.3,0.9,0.3,1.5
			c0,0.2,0,0.4,0,0.7c0,0.2-0.1,0.5-0.1,0.8h-4.5c0,0.6,0.2,1.1,0.5,1.4c0.3,0.3,0.8,0.5,1.4,0.5c0.4,0,0.8-0.1,1.1-0.2
			c0.3-0.1,0.6-0.3,0.7-0.4L523.9,321.6z M521.1,316.1c-0.5,0-0.9,0.2-1.1,0.5c-0.2,0.3-0.4,0.7-0.4,1.2h2.8c0-0.5,0-1-0.2-1.2
			C521.9,316.2,521.5,316.1,521.1,316.1z"/>
	</g>
	<g>
		<g>
			<path d="M729.9,255.9c-9.1,7.4-15.5,15.9-18.7,27.2c-1.7,5.9-2.8,12-4.2,18c-1.6,7.1-3.4,14-0.4,21.1c0.7,1.8,3.6,1,2.9-0.8
				c-3.1-7.5-0.6-14.8,1.1-22.3c1.1-5.1,2.1-10.2,3.5-15.1c3.1-10.8,9.2-18.8,17.9-25.9C733.6,256.8,731.4,254.7,729.9,255.9
				L729.9,255.9z"/>
		</g>
	</g>
	<g>
		<g>
			<path class="st2" d="M725.5,243.2c13.9-2.1,27.9-3.5,42-4.3c7.7-0.4,7.7-12.4,0-12c-15.1,0.8-30.2,2.5-45.1,4.8
				C714.7,232.8,717.9,244.4,725.5,243.2L725.5,243.2z"/>
		</g>
	</g>
	<g>
		<g>
			<path class="st2" d="M747.3,279.9c13.9-2.1,27.9-3.5,42-4.3c7.7-0.4,7.7-12.4,0-12c-15.1,0.8-30.2,2.5-45.1,4.8
				C736.5,269.5,739.7,281,747.3,279.9L747.3,279.9z"/>
		</g>
	</g>
	<g>
		<g>
			<path class="st2" d="M801.5,248.6c13.9-2.1,27.9-3.5,42-4.3c7.7-0.4,7.7-12.4,0-12c-15.1,0.8-30.2,2.5-45.1,4.8
				C790.7,238.2,794,249.8,801.5,248.6L801.5,248.6z"/>
		</g>
	</g>
	<g>
		<g>
			<path class="st2" d="M801.5,297.4c13.9-2.1,27.9-3.5,42-4.3c7.7-0.4,7.7-12.4,0-12c-15.1,0.8-30.2,2.5-45.1,4.8
				C790.7,287,794,298.6,801.5,297.4L801.5,297.4z"/>
		</g>
	</g>
	<g>
		<path d="M218.3,463.6h-3.1v8.7h-2.1v-8.7h-3.1v-1.8h8.2V463.6z"/>
		<path d="M220,472.3l3.4-8.1l0.7-0.7l-0.9,0.1h-3.9v-1.8h6.8v0.6l-4.2,9.9H220z"/>
		<path d="M230.8,464.8h1.4l0.2,0.9h0.1c0.3-0.4,0.6-0.7,0.9-0.8s0.8-0.3,1.3-0.3c0.9,0,1.6,0.3,2.1,0.9s0.7,1.6,0.7,2.9
			c0,0.6-0.1,1.2-0.2,1.7s-0.4,1-0.7,1.3s-0.7,0.6-1.1,0.8c-0.4,0.2-0.9,0.3-1.5,0.3c-0.3,0-0.6,0-0.8-0.1c-0.2,0-0.4-0.1-0.6-0.2
			v3.1h-2V464.8z M234.2,466.2c-0.4,0-0.7,0.1-0.9,0.3c-0.2,0.2-0.4,0.5-0.5,0.9v3.1c0.1,0.1,0.3,0.2,0.5,0.3
			c0.2,0.1,0.4,0.1,0.7,0.1c0.6,0,1-0.2,1.3-0.6c0.3-0.4,0.4-1,0.4-2c0-0.7-0.1-1.2-0.3-1.5C235,466.4,234.6,466.2,234.2,466.2z"/>
		<path d="M243,466.6c-0.3-0.1-0.6-0.2-0.8-0.2c-0.4,0-0.6,0.1-0.9,0.3c-0.2,0.2-0.4,0.4-0.5,0.7v4.8h-2v-7.5h1.5l0.2,1h0.1
			c0.2-0.4,0.4-0.7,0.7-0.9c0.3-0.2,0.6-0.3,1-0.3c0.3,0,0.6,0.1,0.9,0.2L243,466.6z"/>
		<path d="M243.8,468.5c0-1.3,0.3-2.2,0.9-2.9c0.6-0.7,1.5-1,2.6-1c0.6,0,1.1,0.1,1.6,0.3c0.4,0.2,0.8,0.5,1.1,0.8
			c0.3,0.3,0.5,0.8,0.7,1.3c0.1,0.5,0.2,1,0.2,1.6c0,1.3-0.3,2.2-0.9,2.9c-0.6,0.7-1.5,1-2.6,1c-0.6,0-1.1-0.1-1.6-0.3
			c-0.4-0.2-0.8-0.5-1.1-0.8c-0.3-0.3-0.5-0.8-0.7-1.3S243.8,469.1,243.8,468.5z M245.8,468.5c0,0.3,0,0.6,0.1,0.9
			c0.1,0.3,0.1,0.5,0.3,0.7c0.1,0.2,0.3,0.4,0.5,0.5c0.2,0.1,0.4,0.2,0.7,0.2c0.5,0,0.9-0.2,1.1-0.6c0.2-0.4,0.4-1,0.4-1.8
			c0-0.7-0.1-1.2-0.3-1.7c-0.2-0.4-0.6-0.6-1.2-0.6c-0.5,0-0.9,0.2-1.1,0.5S245.8,467.7,245.8,468.5z"/>
		<path d="M256.5,472.3v-4.1c0-0.7-0.1-1.2-0.2-1.5s-0.4-0.4-0.8-0.4c-0.3,0-0.6,0.1-0.8,0.3s-0.4,0.4-0.5,0.7v5h-2v-7.5h1.5l0.2,1
			h0.1c0.2-0.3,0.5-0.6,0.9-0.8c0.4-0.2,0.8-0.4,1.4-0.4c0.5,0,0.9,0.1,1.2,0.3c0.3,0.2,0.5,0.5,0.7,1c0.2-0.4,0.5-0.7,0.9-0.9
			c0.4-0.2,0.8-0.3,1.3-0.3c0.4,0,0.8,0.1,1.1,0.1c0.3,0.1,0.5,0.3,0.7,0.5s0.3,0.6,0.4,1c0.1,0.4,0.1,0.9,0.1,1.6v4.5h-2v-4.2
			c0-0.6-0.1-1-0.2-1.3s-0.4-0.4-0.8-0.4c-0.4,0-0.6,0.1-0.8,0.3c-0.2,0.2-0.4,0.5-0.5,0.8v4.9H256.5z"/>
		<path d="M263.9,468.5c0-1.3,0.3-2.2,0.9-2.9c0.6-0.7,1.5-1,2.6-1c0.6,0,1.1,0.1,1.6,0.3c0.4,0.2,0.8,0.5,1.1,0.8
			c0.3,0.3,0.5,0.8,0.7,1.3c0.1,0.5,0.2,1,0.2,1.6c0,1.3-0.3,2.2-0.9,2.9c-0.6,0.7-1.5,1-2.6,1c-0.6,0-1.1-0.1-1.6-0.3
			c-0.4-0.2-0.8-0.5-1.1-0.8c-0.3-0.3-0.5-0.8-0.7-1.3S263.9,469.1,263.9,468.5z M266,468.5c0,0.3,0,0.6,0.1,0.9
			c0.1,0.3,0.1,0.5,0.3,0.7c0.1,0.2,0.3,0.4,0.5,0.5c0.2,0.1,0.4,0.2,0.7,0.2c0.5,0,0.9-0.2,1.1-0.6c0.2-0.4,0.4-1,0.4-1.8
			c0-0.7-0.1-1.2-0.3-1.7c-0.2-0.4-0.6-0.6-1.2-0.6c-0.5,0-0.9,0.2-1.1,0.5S266,467.7,266,468.5z"/>
		<path d="M271.6,464.8h1v-1.4l2-0.6v2h1.8v1.6h-1.8v2.9c0,0.5,0.1,0.9,0.2,1.1s0.3,0.3,0.6,0.3c0.2,0,0.4,0,0.5-0.1
			c0.1,0,0.3-0.1,0.5-0.2l0.3,1.5c-0.3,0.1-0.6,0.2-0.9,0.3c-0.4,0.1-0.7,0.1-1.1,0.1c-0.7,0-1.2-0.2-1.5-0.5
			c-0.3-0.4-0.5-0.9-0.5-1.7v-3.8h-1V464.8z"/>
		<path d="M283.5,471.6c-0.3,0.2-0.7,0.4-1.2,0.6s-1.1,0.2-1.6,0.2c-1.2,0-2.1-0.4-2.7-1.1s-0.8-1.7-0.8-2.9c0-1.3,0.3-2.3,0.9-3
			c0.6-0.7,1.5-1,2.7-1c0.4,0,0.8,0.1,1.1,0.1c0.4,0.1,0.7,0.3,1,0.5c0.3,0.2,0.5,0.5,0.7,0.9c0.2,0.4,0.3,0.9,0.3,1.5
			c0,0.2,0,0.4,0,0.7c0,0.2-0.1,0.5-0.1,0.8h-4.5c0,0.6,0.2,1.1,0.5,1.4c0.3,0.3,0.8,0.5,1.4,0.5c0.4,0,0.8-0.1,1.1-0.2
			c0.3-0.1,0.6-0.3,0.7-0.4L283.5,471.6z M280.7,466.1c-0.5,0-0.9,0.2-1.1,0.5c-0.2,0.3-0.4,0.7-0.4,1.2h2.8c0-0.5,0-1-0.2-1.2
			C281.5,466.3,281.2,466.1,280.7,466.1z"/>
		<path d="M289.3,466.6c-0.3-0.1-0.6-0.2-0.8-0.2c-0.4,0-0.6,0.1-0.9,0.3c-0.2,0.2-0.4,0.4-0.5,0.7v4.8h-2v-7.5h1.5l0.2,1h0.1
			c0.2-0.4,0.4-0.7,0.7-0.9c0.3-0.2,0.6-0.3,1-0.3c0.3,0,0.6,0.1,0.9,0.2L289.3,466.6z"/>
	</g>
	<g>
		<g>
			<g>
				<path d="M95.8,247.2c6.2-14.1,19.4-22.8,34.9-22c15.6,0.8,28.8,10.5,37.6,22.8c1.7,2.3,5.6,0.1,3.9-2.3
					c-9.8-13.7-24.2-24.3-41.5-25.1c-17-0.8-31.9,8.8-38.8,24.2C90.8,247.6,94.7,249.9,95.8,247.2L95.8,247.2z"/>
			</g>
		</g>
		<g>
			<g>
				<path d="M91.8,248c8.9,13,24.4,18.2,39.7,17.4c14.2-0.8,31.2-4.8,39.5-17.4c1.6-2.4-2.3-4.7-3.9-2.3
					c-7.3,11.1-23.2,14.5-35.7,15.2c-13.6,0.7-27.8-3.5-35.8-15.1C94,243.4,90.1,245.6,91.8,248L91.8,248z"/>
			</g>
		</g>
		<g>
			<g>
				<path d="M127.6,234.9c-3.6,3.2-6.2,8.3-3.6,13c2.2,3.9,7.9,5.3,11.2,1.9c3.1-3.2,3-10.1-0.1-13.3c-3-3.1-8.4-2.2-9.8,1.9
					c-1,2.7,3.4,3.9,4.3,1.2c0.7-1.8,2.9,0.8,3.1,1.6c0.5,1.7,0.5,5.3-1.6,5.9c-2.1,0.6-3.6-1.4-3.6-3.3c-0.1-2.5,1.6-4.3,3.3-5.8
					C132.9,236.2,129.7,233,127.6,234.9L127.6,234.9z"/>
			</g>
		</g>
		<g>
			<g>
				<path d="M84.6,222.4c2.5,2.8,5,5.5,7.5,8.3c1.9,2.2,5.1-1,3.2-3.2c-2.5-2.8-5-5.5-7.5-8.3C85.9,217,82.7,220.2,84.6,222.4
					L84.6,222.4z"/>
			</g>
		</g>
		<g>
			<g>
				<path d="M106.3,209.8c1.5,3,2.9,6.1,4.4,9.1c1.2,2.6,5.1,0.3,3.9-2.3c-1.5-3-2.9-6.1-4.4-9.1C109,204.9,105.1,207.1,106.3,209.8
					L106.3,209.8z"/>
			</g>
		</g>
		<g>
			<g>
				<path d="M130.8,206.7c-0.7,3.3-0.7,6.5-0.1,9.8c0.6,2.8,4.9,1.6,4.3-1.2c-0.5-2.5-0.4-5,0.1-7.4
					C135.7,205.1,131.4,203.9,130.8,206.7L130.8,206.7z"/>
			</g>
		</g>
		<g>
			<g>
				<path d="M152.5,212.2c-0.9,2.7-1.8,5.4-2.7,8.2c-0.9,2.8,3.4,3.9,4.3,1.2c0.9-2.7,1.8-5.4,2.7-8.2
					C157.7,210.6,153.4,209.4,152.5,212.2L152.5,212.2z"/>
			</g>
		</g>
		<g>
			<g>
				<path d="M170.2,224.7c-1.2,2.3-2.4,4.5-3.6,6.8c-1.4,2.6,2.5,4.8,3.9,2.3c1.2-2.3,2.4-4.5,3.6-6.8
					C175.4,224.4,171.5,222.2,170.2,224.7L170.2,224.7z"/>
			</g>
		</g>
		<g>
			<g>
				<path d="M100.5,263.8c-1.2,2.6-2.7,5.1-4.4,7.5c-1.7,2.4,2.2,4.6,3.9,2.3c1.7-2.4,3.2-4.9,4.4-7.5
					C105.6,263.5,101.7,261.2,100.5,263.8L100.5,263.8z"/>
			</g>
		</g>
		<g>
			<g>
				<path d="M116.2,271.5c-0.5,2.4-0.9,4.9-1.4,7.3c-0.5,2.8,3.8,4,4.3,1.2c0.5-2.4,0.9-4.9,1.4-7.3
					C121,269.8,116.7,268.6,116.2,271.5L116.2,271.5z"/>
			</g>
		</g>
		<g>
			<g>
				<path d="M134.4,272.7c0.5,2.9,1,5.7,1.5,8.6c0.5,2.8,4.8,1.6,4.3-1.2c-0.5-2.9-1-5.7-1.5-8.6
					C138.2,268.7,133.9,269.9,134.4,272.7L134.4,272.7z"/>
			</g>
		</g>
		<g>
			<g>
				<path d="M153.1,267.8c1.7,2.3,3.5,4.6,5.2,7c0.7,1,1.9,1.5,3.1,0.8c1-0.6,1.5-2.1,0.8-3.1c-1.7-2.3-3.5-4.6-5.2-7
					c-0.7-1-1.9-1.5-3.1-0.8C153,265.3,152.4,266.8,153.1,267.8L153.1,267.8z"/>
			</g>
		</g>
	</g>
	<circle class="st3" cx="184.5" cy="329" r="50"/>
	<rect x="52.9" y="294.4" class="st4" width="81.4" height="10.7"/>
	<text transform="matrix(1 0 0 1 61.8835 304.9199)" class="st5 st6">Screening</text>
	<circle class="st7" cx="168.6" cy="321.6" r="2.3"/>
	<circle class="st7" cx="167.5" cy="362.3" r="2.3"/>
	<circle class="st7" cx="147.1" cy="335.3" r="2.3"/>
	<circle class="st7" cx="186.7" cy="293.6" r="2.3"/>
	<circle class="st7" cx="209.5" cy="351.3" r="2.3"/>
	<circle class="st7" cx="205.8" cy="306.1" r="2.3"/>
	<circle class="st7" cx="201.2" cy="336.3" r="2.3"/>
	<circle class="st8" cx="184.5" cy="338.5" r="2.3"/>
	<circle class="st8" cx="219.9" cy="314.9" r="2.3"/>
	<circle class="st8" cx="150.6" cy="317.1" r="2.3"/>
	<circle class="st8" cx="184.5" cy="369.6" r="2.3"/>
	<circle class="st8" cx="186.7" cy="306.1" r="2.3"/>
	<circle class="st8" cx="168" cy="299.8" r="2.3"/>
	<circle class="st8" cx="203.5" cy="294.4" r="2.3"/>
	<circle class="st8" cx="157.2" cy="347.3" r="2.3"/>
	<circle class="st8" cx="219" cy="331.2" r="2.3"/>
	<circle class="st8" cx="190.9" cy="360" r="2.3"/>
	<circle class="st8" cx="161" cy="291.4" r="2.3"/>
	<circle class="st8" cx="192.1" cy="323.9" r="2.3"/>
	<g>
		<path d="M733.6,315c0-1.8,0.4-3.1,1.2-4c0.8-0.9,1.9-1.4,3.3-1.4c0.8,0,1.4,0.1,2,0.4c0.6,0.3,1,0.6,1.4,1.1s0.6,1.1,0.8,1.7
			s0.3,1.4,0.3,2.2c0,1.8-0.4,3.1-1.2,4s-1.9,1.4-3.3,1.4c-0.8,0-1.4-0.1-2-0.4c-0.6-0.3-1-0.6-1.4-1.1s-0.6-1.1-0.8-1.7
			C733.7,316.6,733.6,315.9,733.6,315z M735.7,315c0,0.5,0,1,0.1,1.5c0.1,0.4,0.2,0.8,0.4,1.1c0.2,0.3,0.4,0.6,0.7,0.8
			c0.3,0.2,0.6,0.3,1,0.3c0.7,0,1.3-0.3,1.7-0.9c0.4-0.6,0.6-1.5,0.6-2.8c0-0.5,0-1-0.1-1.4s-0.2-0.8-0.4-1.2s-0.4-0.6-0.7-0.8
			s-0.6-0.3-1.1-0.3c-0.7,0-1.3,0.3-1.7,0.9C735.9,312.9,735.7,313.8,735.7,315z"/>
		<path d="M745.9,317.8c0,0.4,0,0.6,0.1,0.8s0.2,0.2,0.4,0.2c0.1,0,0.2,0,0.4,0c0.1,0,0.3-0.1,0.4-0.1l0.2,1.5
			c-0.2,0.1-0.4,0.2-0.7,0.2c-0.3,0.1-0.7,0.1-1,0.1c-0.6,0-1-0.1-1.3-0.4s-0.5-0.7-0.5-1.3v-9h2V317.8z"/>
		<path d="M748.2,310.7c0-0.3,0.1-0.5,0.3-0.7s0.5-0.3,0.9-0.3s0.7,0.1,0.9,0.3c0.2,0.2,0.4,0.5,0.4,0.7c0,0.3-0.1,0.5-0.4,0.7
			c-0.2,0.2-0.5,0.3-0.9,0.3s-0.7-0.1-0.9-0.3C748.3,311.2,748.2,311,748.2,310.7z M748.5,312.8h2v7.5h-2V312.8z"/>
		<path d="M758.7,320.3c0,1.1-0.3,1.9-0.9,2.4c-0.6,0.5-1.4,0.8-2.5,0.8c-0.7,0-1.3-0.1-1.7-0.2s-0.7-0.2-0.9-0.3l0.4-1.5
			c0.2,0.1,0.5,0.2,0.8,0.3c0.3,0.1,0.7,0.1,1.1,0.1c0.7,0,1.1-0.1,1.4-0.4s0.4-0.7,0.4-1.2v-0.5h-0.1c-0.4,0.5-1,0.7-1.9,0.7
			c-1,0-1.7-0.3-2.2-0.9c-0.5-0.6-0.7-1.5-0.7-2.8c0-1.3,0.3-2.4,1-3c0.6-0.7,1.6-1,2.8-1c0.6,0,1.2,0,1.7,0.1
			c0.5,0.1,0.9,0.2,1.2,0.3V320.3z M755.4,318.8c0.4,0,0.7-0.1,0.9-0.3s0.4-0.4,0.5-0.8v-3.4c-0.3-0.1-0.7-0.2-1.2-0.2
			c-0.5,0-0.9,0.2-1.2,0.6s-0.4,1-0.4,1.8c0,0.7,0.1,1.3,0.4,1.7C754.6,318.7,754.9,318.8,755.4,318.8z"/>
		<path d="M760,316.5c0-1.3,0.3-2.2,0.9-2.9c0.6-0.7,1.5-1,2.6-1c0.6,0,1.1,0.1,1.6,0.3c0.4,0.2,0.8,0.5,1.1,0.8
			c0.3,0.3,0.5,0.8,0.7,1.3c0.1,0.5,0.2,1,0.2,1.6c0,1.3-0.3,2.2-0.9,2.9s-1.5,1-2.6,1c-0.6,0-1.1-0.1-1.6-0.3
			c-0.4-0.2-0.8-0.5-1.1-0.8c-0.3-0.3-0.5-0.8-0.7-1.3C760.1,317.7,760,317.1,760,316.5z M762,316.5c0,0.3,0,0.6,0.1,0.9
			c0.1,0.3,0.2,0.5,0.3,0.7s0.3,0.4,0.5,0.5c0.2,0.1,0.4,0.2,0.7,0.2c0.5,0,0.9-0.2,1.1-0.6c0.2-0.4,0.4-1,0.4-1.8
			c0-0.7-0.1-1.2-0.3-1.7c-0.2-0.4-0.6-0.6-1.2-0.6c-0.5,0-0.9,0.2-1.1,0.5C762.2,315.1,762,315.7,762,316.5z"/>
		<path d="M773,320.3V316c0-0.6-0.1-1.1-0.3-1.3s-0.5-0.4-0.9-0.4c-0.4,0-0.7,0.1-0.9,0.3c-0.3,0.2-0.4,0.5-0.5,0.8v4.9h-1.9v-7.5
			h1.5l0.2,1h0.1c0.2-0.3,0.5-0.6,0.9-0.8c0.4-0.2,0.9-0.4,1.5-0.4c0.4,0,0.7,0.1,1,0.1c0.3,0.1,0.5,0.3,0.7,0.5s0.3,0.5,0.5,0.9
			c0.1,0.4,0.1,0.9,0.1,1.5v4.7H773z"/>
		<path d="M778.5,312.8v4.3c0,0.6,0.1,1.1,0.2,1.3c0.1,0.3,0.4,0.4,0.8,0.4c0.4,0,0.7-0.1,0.9-0.3c0.2-0.2,0.4-0.5,0.5-0.8v-4.8h2
			v5.2c0,0.4,0,0.8,0.1,1.2c0,0.4,0.1,0.8,0.2,1.1h-1.5l-0.3-1.1h-0.1c-0.2,0.4-0.5,0.7-1,0.9s-0.9,0.4-1.5,0.4
			c-0.4,0-0.7-0.1-1-0.1c-0.3-0.1-0.5-0.3-0.8-0.5c-0.2-0.2-0.4-0.5-0.5-0.9c-0.1-0.4-0.2-0.9-0.2-1.5v-4.7H778.5z"/>
		<path d="M790,319.8c-0.3,0.2-0.7,0.4-1.1,0.5s-0.9,0.2-1.3,0.2c-0.6,0-1.1-0.1-1.5-0.3c-0.4-0.2-0.8-0.5-1-0.8
			c-0.3-0.3-0.4-0.8-0.6-1.3c-0.1-0.5-0.2-1-0.2-1.6c0-1.3,0.3-2.2,0.9-2.9c0.6-0.7,1.4-1,2.5-1c0.5,0,1,0,1.3,0.1
			c0.3,0.1,0.6,0.2,0.9,0.3l-0.5,1.6c-0.2-0.1-0.5-0.2-0.7-0.3c-0.2-0.1-0.5-0.1-0.8-0.1c-0.5,0-1,0.2-1.2,0.5
			c-0.3,0.4-0.4,0.9-0.4,1.7c0,0.3,0,0.6,0.1,0.9c0.1,0.3,0.2,0.5,0.3,0.7c0.1,0.2,0.3,0.4,0.5,0.5c0.2,0.1,0.5,0.2,0.8,0.2
			c0.3,0,0.6,0,0.8-0.1c0.2-0.1,0.4-0.2,0.6-0.3L790,319.8z"/>
		<path d="M793.2,317.8c0,0.4,0,0.6,0.1,0.8s0.2,0.2,0.4,0.2c0.1,0,0.2,0,0.4,0c0.1,0,0.3-0.1,0.4-0.1l0.2,1.5
			c-0.2,0.1-0.4,0.2-0.7,0.2c-0.3,0.1-0.7,0.1-1,0.1c-0.6,0-1-0.1-1.3-0.4s-0.5-0.7-0.5-1.3v-9h2V317.8z"/>
		<path d="M801.6,319.6c-0.3,0.2-0.7,0.4-1.2,0.6c-0.5,0.2-1.1,0.2-1.6,0.2c-1.2,0-2.1-0.4-2.7-1.1c-0.6-0.7-0.8-1.7-0.8-2.9
			c0-1.3,0.3-2.3,0.9-3c0.6-0.7,1.5-1,2.7-1c0.4,0,0.8,0.1,1.1,0.1c0.4,0.1,0.7,0.3,1,0.5s0.5,0.5,0.7,0.9c0.2,0.4,0.3,0.9,0.3,1.5
			c0,0.2,0,0.4,0,0.7c0,0.2-0.1,0.5-0.1,0.8h-4.5c0,0.6,0.2,1.1,0.5,1.4c0.3,0.3,0.8,0.5,1.4,0.5c0.4,0,0.8-0.1,1.1-0.2
			c0.3-0.1,0.6-0.3,0.7-0.4L801.6,319.6z M798.8,314.1c-0.5,0-0.9,0.2-1.1,0.5s-0.4,0.7-0.4,1.2h2.8c0-0.5,0-1-0.2-1.2
			S799.2,314.1,798.8,314.1z"/>
		<path d="M802.8,316.5c0-1.3,0.3-2.2,0.9-2.9c0.6-0.7,1.5-1,2.6-1c0.6,0,1.1,0.1,1.6,0.3c0.4,0.2,0.8,0.5,1.1,0.8
			c0.3,0.3,0.5,0.8,0.7,1.3c0.1,0.5,0.2,1,0.2,1.6c0,1.3-0.3,2.2-0.9,2.9s-1.5,1-2.6,1c-0.6,0-1.1-0.1-1.6-0.3
			c-0.4-0.2-0.8-0.5-1.1-0.8c-0.3-0.3-0.5-0.8-0.7-1.3C802.9,317.7,802.8,317.1,802.8,316.5z M804.8,316.5c0,0.3,0,0.6,0.1,0.9
			c0.1,0.3,0.2,0.5,0.3,0.7s0.3,0.4,0.5,0.5c0.2,0.1,0.4,0.2,0.7,0.2c0.5,0,0.9-0.2,1.1-0.6c0.2-0.4,0.4-1,0.4-1.8
			c0-0.7-0.1-1.2-0.3-1.7c-0.2-0.4-0.6-0.6-1.2-0.6c-0.5,0-0.9,0.2-1.1,0.5C804.9,315.1,804.8,315.7,804.8,316.5z"/>
		<path d="M810.4,312.8h1v-1.4l1.9-0.6v2h1.8v1.6h-1.8v2.9c0,0.5,0.1,0.9,0.2,1.1c0.1,0.2,0.3,0.3,0.6,0.3c0.2,0,0.4,0,0.5-0.1
			c0.1,0,0.3-0.1,0.5-0.2l0.3,1.5c-0.3,0.1-0.6,0.2-0.9,0.3c-0.4,0.1-0.7,0.1-1.1,0.1c-0.7,0-1.2-0.2-1.5-0.5
			c-0.3-0.4-0.5-0.9-0.5-1.7v-3.8h-1V312.8z"/>
		<path d="M816.3,310.7c0-0.3,0.1-0.5,0.3-0.7s0.5-0.3,0.9-0.3s0.7,0.1,0.9,0.3c0.2,0.2,0.4,0.5,0.4,0.7c0,0.3-0.1,0.5-0.4,0.7
			c-0.2,0.2-0.5,0.3-0.9,0.3s-0.7-0.1-0.9-0.3C816.4,311.2,816.3,311,816.3,310.7z M816.6,312.8h2v7.5h-2V312.8z"/>
		<path d="M826.8,317.6c0,0.4,0,0.8,0,1.3s0.1,0.9,0.1,1.4h-1.4l-0.3-1h-0.1c-0.2,0.4-0.5,0.6-0.9,0.8c-0.4,0.2-0.8,0.3-1.3,0.3
			c-0.9,0-1.7-0.3-2.2-0.9c-0.5-0.6-0.8-1.6-0.8-2.9c0-1.3,0.3-2.3,0.9-3c0.6-0.7,1.4-1.1,2.5-1.1c0.3,0,0.6,0,0.8,0.1
			s0.4,0.1,0.6,0.2v-3h2V317.6z M823.5,318.8c0.4,0,0.7-0.1,0.9-0.3c0.2-0.2,0.4-0.5,0.5-0.8v-3.2c-0.1-0.1-0.3-0.2-0.5-0.2
			c-0.2-0.1-0.4-0.1-0.7-0.1c-0.6,0-1,0.2-1.2,0.6c-0.3,0.4-0.4,1-0.4,1.9c0,0.6,0.1,1.2,0.3,1.5C822.7,318.6,823,318.8,823.5,318.8
			z"/>
		<path d="M834.6,319.6c-0.3,0.2-0.7,0.4-1.2,0.6c-0.5,0.2-1.1,0.2-1.6,0.2c-1.2,0-2.1-0.4-2.7-1.1c-0.6-0.7-0.8-1.7-0.8-2.9
			c0-1.3,0.3-2.3,0.9-3c0.6-0.7,1.5-1,2.7-1c0.4,0,0.8,0.1,1.1,0.1c0.4,0.1,0.7,0.3,1,0.5s0.5,0.5,0.7,0.9c0.2,0.4,0.3,0.9,0.3,1.5
			c0,0.2,0,0.4,0,0.7c0,0.2-0.1,0.5-0.1,0.8h-4.5c0,0.6,0.2,1.1,0.5,1.4c0.3,0.3,0.8,0.5,1.4,0.5c0.4,0,0.8-0.1,1.1-0.2
			c0.3-0.1,0.6-0.3,0.7-0.4L834.6,319.6z M831.8,314.1c-0.5,0-0.9,0.2-1.1,0.5s-0.4,0.7-0.4,1.2h2.8c0-0.5,0-1-0.2-1.2
			S832.2,314.1,831.8,314.1z"/>
		<path d="M839.3,318.2c0-0.2-0.1-0.4-0.3-0.5c-0.2-0.1-0.4-0.2-0.6-0.3s-0.5-0.2-0.8-0.3s-0.6-0.2-0.8-0.4s-0.5-0.4-0.6-0.7
			c-0.2-0.3-0.3-0.7-0.3-1.1c0-0.7,0.2-1.3,0.7-1.7c0.4-0.4,1.1-0.6,1.9-0.6c0.6,0,1.1,0.1,1.5,0.2c0.5,0.1,0.8,0.3,1.1,0.4
			l-0.4,1.4c-0.2-0.1-0.5-0.2-0.9-0.3c-0.3-0.1-0.7-0.1-1.1-0.1c-0.6,0-0.9,0.2-0.9,0.7c0,0.2,0.1,0.3,0.3,0.4
			c0.2,0.1,0.4,0.2,0.6,0.3s0.5,0.2,0.8,0.3c0.3,0.1,0.6,0.3,0.8,0.4c0.2,0.2,0.5,0.4,0.6,0.7c0.2,0.3,0.3,0.6,0.3,1.1
			c0,0.8-0.2,1.4-0.7,1.8c-0.5,0.4-1.2,0.7-2.2,0.7c-0.5,0-1-0.1-1.5-0.2c-0.5-0.1-0.8-0.3-1.1-0.5l0.5-1.5c0.2,0.1,0.5,0.3,0.9,0.4
			c0.4,0.1,0.8,0.2,1.2,0.2c0.3,0,0.5-0.1,0.7-0.2C839.2,318.7,839.3,318.5,839.3,318.2z"/>
	</g>
	<g>
		<path class="st0" d="M352.7,500.3l-20.7-29.6c-2.5-3.5-1.6-8.4,1.9-10.8l2.6-1.8c3.5-2.5,8.4-1.6,10.8,1.9l20.7,29.6
			c2.5,3.5,1.6,8.4-1.9,10.8l-2.6,1.8C360,504.7,355.1,503.8,352.7,500.3z"/>
		<g>
			<path d="M329.5,474.9l3.6,5.1l-1.5,1l-2.4-3.4l-2.1,1.5l2.2,3.1l-1.5,1l-2.2-3.1l-3.5,2.4l-1.2-1.7L329.5,474.9z"/>
			<path d="M331,483c0.4,0.2,0.8,0.5,1.2,0.9c0.4,0.4,0.8,0.8,1.1,1.3c0.3,0.4,0.5,0.8,0.6,1.2c0.1,0.4,0.1,0.7,0,1
				c-0.1,0.3-0.2,0.6-0.4,0.8c-0.2,0.3-0.5,0.5-0.8,0.7c-0.4,0.3-0.7,0.5-1.1,0.7c-0.4,0.2-0.8,0.5-1.1,0.7c-0.4,0.2-0.7,0.5-1,0.7
				c-0.3,0.3-0.6,0.5-0.8,0.8l-0.9-1.3l0.7-0.9l0-0.1c-0.4,0-0.7-0.1-1.1-0.2c-0.4-0.2-0.7-0.5-1.1-0.9c-0.2-0.3-0.3-0.6-0.4-0.9
				c-0.1-0.3-0.1-0.6,0-0.8c0-0.3,0.1-0.5,0.3-0.8c0.2-0.2,0.4-0.5,0.6-0.6c0.4-0.3,0.8-0.4,1.1-0.4c0.4,0,0.8,0.1,1.1,0.3
				c0.4,0.2,0.8,0.5,1.1,0.9c0.4,0.4,0.7,0.9,1.1,1.4c0.5-0.3,0.8-0.5,0.9-0.8c0.1-0.3,0-0.6-0.3-1c-0.2-0.3-0.5-0.6-0.8-0.9
				c-0.3-0.3-0.6-0.5-0.9-0.7L331,483z M327.8,488.2c0.2,0.3,0.5,0.5,0.7,0.6c0.3,0.1,0.5,0.1,0.8,0.1l0.8-0.6
				c-0.2-0.3-0.3-0.5-0.5-0.7c-0.2-0.2-0.4-0.4-0.5-0.5c-0.2-0.1-0.4-0.2-0.5-0.3c-0.2,0-0.4,0-0.5,0.1c-0.2,0.2-0.4,0.4-0.4,0.6
				C327.6,487.8,327.7,488,327.8,488.2z"/>
			<path d="M335.3,496.9c-0.3,0.2-0.7,0.5-1,0.7c-0.3,0.2-0.7,0.6-1.1,0.9l-0.8-1.1l0.6-0.8l0,0c-0.4,0-0.8,0-1.2-0.2
				c-0.4-0.2-0.7-0.5-1-0.9c-0.5-0.8-0.7-1.5-0.5-2.3c0.2-0.8,0.9-1.6,1.9-2.3c1-0.7,2-1.1,2.9-1c0.9,0.1,1.7,0.6,2.3,1.5
				c0.2,0.3,0.3,0.5,0.4,0.7c0.1,0.2,0.2,0.4,0.2,0.6l2.5-1.7l1.1,1.6L335.3,496.9z M332.4,494.9c0.2,0.3,0.5,0.5,0.7,0.6
				c0.3,0.1,0.6,0,0.9-0.1l2.6-1.8c0-0.2,0-0.4-0.1-0.5c-0.1-0.2-0.2-0.4-0.3-0.6c-0.3-0.5-0.7-0.7-1.2-0.7c-0.5,0-1.1,0.2-1.8,0.8
				c-0.5,0.4-0.9,0.8-1.1,1.2C332.1,494.1,332.1,494.5,332.4,494.9z"/>
			<path d="M342.7,493.9c0.2,0.2,0.3,0.3,0.5,0.5c0.2,0.2,0.4,0.4,0.5,0.6c0.2,0.2,0.3,0.4,0.5,0.6c0.2,0.2,0.3,0.4,0.4,0.6
				c0.3,0.4,0.5,0.8,0.7,1.3c0.2,0.4,0.3,0.9,0.4,1.3c0,0.4,0,0.9-0.2,1.3c-0.2,0.4-0.5,0.8-1,1.1c-0.7,0.5-1.4,0.7-2.1,0.7
				c-0.7,0-1.3-0.2-1.8-0.7l0,0.9l-1.9,4.3l-1.4-1.9l2-4.3l-0.5-1l-3.5,2.5l-1.2-1.7L342.7,493.9z M343.2,497.4
				c-0.1-0.2-0.2-0.3-0.4-0.5c-0.1-0.2-0.2-0.3-0.3-0.4l-2.5,1.7l0.5,0.7c0.3,0.5,0.7,0.8,1.1,0.9c0.4,0.1,0.9,0,1.3-0.3
				c0.4-0.3,0.6-0.6,0.6-1C343.6,498.2,343.5,497.8,343.2,497.4z"/>
		</g>
		<g>
			<path d="M345.9,464.2l3.6,5.1l-1.5,1l-2.4-3.4l-2.1,1.5l2.2,3.1l-1.5,1l-2.2-3.1l-3.5,2.4l-1.2-1.7L345.9,464.2z"/>
			<path d="M347.4,472.4c0.4,0.2,0.8,0.5,1.2,0.9c0.4,0.4,0.8,0.8,1.1,1.3c0.3,0.4,0.5,0.8,0.6,1.2c0.1,0.4,0.1,0.7,0,1
				c-0.1,0.3-0.2,0.6-0.4,0.8c-0.2,0.3-0.5,0.5-0.8,0.7c-0.4,0.3-0.7,0.5-1.1,0.7c-0.4,0.2-0.8,0.5-1.1,0.7c-0.4,0.2-0.7,0.5-1,0.7
				c-0.3,0.3-0.6,0.5-0.8,0.8l-0.9-1.3l0.7-0.9l0-0.1c-0.4,0-0.7-0.1-1.1-0.2c-0.4-0.2-0.7-0.5-1.1-0.9c-0.2-0.3-0.3-0.6-0.4-0.9
				s-0.1-0.6,0-0.8c0-0.3,0.1-0.5,0.3-0.8c0.2-0.2,0.4-0.5,0.6-0.6c0.4-0.3,0.8-0.4,1.1-0.4c0.4,0,0.8,0.1,1.1,0.3
				c0.4,0.2,0.8,0.5,1.1,0.9c0.4,0.4,0.7,0.9,1.1,1.4c0.5-0.3,0.8-0.5,0.9-0.8c0.1-0.3,0-0.6-0.3-1c-0.2-0.3-0.5-0.6-0.8-0.9
				c-0.3-0.3-0.6-0.5-0.9-0.7L347.4,472.4z M344.2,477.6c0.2,0.3,0.5,0.5,0.7,0.6c0.3,0.1,0.5,0.1,0.8,0.1l0.8-0.6
				c-0.2-0.3-0.3-0.5-0.5-0.7s-0.4-0.4-0.5-0.5c-0.2-0.1-0.4-0.2-0.5-0.3c-0.2,0-0.4,0-0.5,0.1c-0.2,0.2-0.4,0.4-0.4,0.6
				C344,477.1,344.1,477.3,344.2,477.6z"/>
			<path d="M351.7,486.2c-0.3,0.2-0.7,0.5-1,0.7c-0.3,0.2-0.7,0.6-1.1,0.9l-0.8-1.1l0.6-0.8l0,0c-0.4,0-0.8,0-1.2-0.2
				c-0.4-0.2-0.7-0.5-1-0.9c-0.5-0.8-0.7-1.5-0.5-2.3c0.2-0.8,0.9-1.6,1.9-2.3c1-0.7,2-1.1,2.9-1c0.9,0.1,1.7,0.6,2.3,1.5
				c0.2,0.3,0.3,0.5,0.4,0.7c0.1,0.2,0.2,0.4,0.2,0.6l2.5-1.7l1.1,1.6L351.7,486.2z M348.8,484.2c0.2,0.3,0.5,0.5,0.7,0.6
				c0.3,0.1,0.6,0,0.9-0.1l2.6-1.8c0-0.2,0-0.4-0.1-0.5c-0.1-0.2-0.2-0.4-0.3-0.6c-0.3-0.5-0.7-0.7-1.2-0.7c-0.5,0-1.1,0.2-1.8,0.8
				c-0.5,0.4-0.9,0.8-1.1,1.2C348.5,483.4,348.5,483.8,348.8,484.2z"/>
			<path d="M359.1,483.2c0.2,0.2,0.3,0.3,0.5,0.5c0.2,0.2,0.4,0.4,0.5,0.6c0.2,0.2,0.3,0.4,0.5,0.6c0.2,0.2,0.3,0.4,0.4,0.6
				c0.3,0.4,0.5,0.8,0.7,1.3c0.2,0.4,0.3,0.9,0.4,1.3c0,0.4,0,0.9-0.2,1.3c-0.2,0.4-0.5,0.8-1,1.1c-0.7,0.5-1.4,0.7-2.1,0.7
				c-0.7,0-1.3-0.2-1.8-0.7l0,0.9l-1.9,4.3l-1.4-1.9l2-4.3l-0.5-1l-3.5,2.5l-1.2-1.7L359.1,483.2z M359.6,486.7
				c-0.1-0.2-0.2-0.3-0.4-0.5c-0.1-0.2-0.2-0.3-0.3-0.4l-2.5,1.7l0.5,0.7c0.3,0.5,0.7,0.8,1.1,0.9c0.4,0.1,0.9,0,1.3-0.3
				c0.4-0.3,0.6-0.6,0.6-1C360,487.6,359.9,487.2,359.6,486.7z"/>
		</g>
	</g>
</g>
</svg>
