<?xml version="1.0" encoding="utf-8"?>
<!-- Generator: Adobe Illustrator 22.1.0, SVG Export Plug-In . SVG Version: 6.00 Build 0)  -->
<svg version="1.1" id="Layer_1" xmlns="http://www.w3.org/2000/svg" xmlns:xlink="http://www.w3.org/1999/xlink" x="0px" y="0px"
	 viewBox="0 0 1280 155.4" style="enable-background:new 0 0 1280 155.4;" xml:space="preserve">
<style type="text/css">
	.st0{fill:#DF0019;}
</style>
<g>
	<path d="M307.8,59.4c0-1.3,0.4-2.4,1.3-3.2c0.8-0.8,1.9-1.2,3.3-1.2c1.4,0,2.6,0.4,3.4,1.2c0.8,0.8,1.3,1.8,1.3,3.2
		c0,1.3-0.4,2.4-1.3,3.2c-0.8,0.8-2,1.2-3.4,1.2c-1.4,0-2.5-0.4-3.3-1.2C308.2,61.7,307.8,60.7,307.8,59.4z"/>
	<path d="M322.6,59.4c0-1.3,0.4-2.4,1.3-3.2c0.8-0.8,1.9-1.2,3.3-1.2c1.4,0,2.6,0.4,3.4,1.2c0.8,0.8,1.3,1.8,1.3,3.2
		c0,1.3-0.4,2.4-1.3,3.2c-0.8,0.8-2,1.2-3.4,1.2c-1.4,0-2.5-0.4-3.3-1.2C323,61.7,322.6,60.7,322.6,59.4z"/>
	<path d="M337.3,59.4c0-1.3,0.4-2.4,1.3-3.2c0.8-0.8,1.9-1.2,3.3-1.2c1.4,0,2.6,0.4,3.4,1.2c0.8,0.8,1.3,1.8,1.3,3.2
		c0,1.3-0.4,2.4-1.3,3.2c-0.8,0.8-2,1.2-3.4,1.2c-1.4,0-2.5-0.4-3.3-1.2C337.8,61.7,337.3,60.7,337.3,59.4z"/>
	<path d="M379.4,61.5c-1.2,0.9-2.8,1.5-4.6,1.9c-1.9,0.4-3.8,0.6-5.8,0.6c-2.4,0-4.7-0.4-6.8-1.1c-2.1-0.7-4-1.9-5.7-3.6
		c-1.6-1.7-2.9-3.8-3.9-6.4c-1-2.6-1.5-5.8-1.5-9.6c0-3.9,0.5-7.2,1.6-9.8c1.1-2.6,2.5-4.8,4.2-6.4c1.7-1.6,3.7-2.8,5.8-3.5
		c2.1-0.7,4.3-1.1,6.4-1.1c2.3,0,4.2,0.2,5.8,0.5c1.6,0.3,2.9,0.7,3.9,1.1l-1.5,6.6c-0.9-0.4-1.9-0.7-3.1-0.9
		c-1.2-0.2-2.7-0.3-4.4-0.3c-3.2,0-5.7,1.1-7.6,3.4c-1.9,2.2-2.9,5.7-2.9,10.5c0,2.1,0.2,3.9,0.7,5.6c0.5,1.7,1.1,3.1,2.1,4.3
		c0.9,1.2,2.1,2.1,3.5,2.8c1.4,0.7,3,1,4.8,1c1.7,0,3.2-0.2,4.3-0.5c1.2-0.3,2.2-0.8,3.1-1.3L379.4,61.5z"/>
	<path d="M409.7,42.3h14.9v17.8c-1.6,1.3-3.5,2.3-5.7,2.9c-2.2,0.6-4.4,0.9-6.6,0.9c-2.5,0-4.9-0.4-7.1-1.2c-2.2-0.8-4.1-2-5.7-3.7
		c-1.6-1.7-2.9-3.8-3.8-6.5c-0.9-2.6-1.4-5.7-1.4-9.3c0-3.8,0.5-7,1.6-9.6c1.1-2.6,2.5-4.8,4.3-6.4c1.8-1.7,3.8-2.9,6-3.6
		c2.2-0.7,4.4-1.1,6.7-1.1c2.3,0,4.3,0.2,6,0.5c1.7,0.3,3.1,0.7,4.1,1.1l-1.6,6.6c-1-0.4-2-0.7-3.2-0.9c-1.2-0.2-2.7-0.3-4.5-0.3
		c-1.6,0-3.1,0.2-4.5,0.7c-1.4,0.5-2.6,1.3-3.6,2.4c-1,1.1-1.8,2.6-2.3,4.3c-0.6,1.7-0.8,3.9-0.8,6.4c0,2.4,0.3,4.5,0.8,6.2
		c0.5,1.7,1.3,3.2,2.2,4.3c0.9,1.1,2.1,1.9,3.3,2.5c1.3,0.5,2.6,0.8,4.1,0.8c1,0,2-0.1,2.9-0.4c0.9-0.2,1.7-0.6,2.4-1.1V48l-8.6-0.9
		V42.3z"/>
	<path class="st0" d="M458.1,42.3H473v17.8c-1.6,1.3-3.5,2.3-5.7,2.9c-2.2,0.6-4.4,0.9-6.6,0.9c-2.5,0-4.9-0.4-7.1-1.2
		c-2.2-0.8-4.1-2-5.7-3.7c-1.6-1.7-2.9-3.8-3.8-6.5c-0.9-2.6-1.4-5.7-1.4-9.3c0-3.8,0.5-7,1.6-9.6c1.1-2.6,2.5-4.8,4.3-6.4
		c1.8-1.7,3.8-2.9,6-3.6c2.2-0.7,4.4-1.1,6.7-1.1c2.3,0,4.3,0.2,6,0.5c1.7,0.3,3.1,0.7,4.1,1.1l-1.6,6.6c-1-0.4-2-0.7-3.2-0.9
		c-1.2-0.2-2.7-0.3-4.5-0.3c-1.6,0-3.1,0.2-4.5,0.7c-1.4,0.5-2.6,1.3-3.6,2.4c-1,1.1-1.8,2.6-2.3,4.3c-0.6,1.7-0.8,3.9-0.8,6.4
		c0,2.4,0.3,4.5,0.8,6.2c0.5,1.7,1.3,3.2,2.2,4.3c0.9,1.1,2.1,1.9,3.3,2.5c1.3,0.5,2.6,0.8,4.1,0.8c1,0,2-0.1,2.9-0.4
		c0.9-0.2,1.7-0.6,2.4-1.1V48l-8.6-0.9V42.3z"/>
	<path d="M510.6,54.3h-12.3l-3,8.8h-7.8l14.4-40.2h5.8L522,63.1h-8.2L510.6,54.3z M500.3,48h8.5l-3-8.9l-1.2-6.3h-0.3l-1.2,6.3
		L500.3,48z"/>
	<path d="M554.7,54.3h-12.3l-3,8.8h-7.8L546,22.9h5.8l14.4,40.2h-8.2L554.7,54.3z M544.4,48h8.5l-3-8.9l-1.2-6.3h-0.3l-1.2,6.3
		L544.4,48z"/>
	<path class="st0" d="M594.8,42.3h14.9v17.8c-1.6,1.3-3.5,2.3-5.7,2.9c-2.2,0.6-4.4,0.9-6.6,0.9c-2.5,0-4.9-0.4-7.1-1.2
		c-2.2-0.8-4.1-2-5.7-3.7c-1.6-1.7-2.9-3.8-3.8-6.5c-0.9-2.6-1.4-5.7-1.4-9.3c0-3.8,0.5-7,1.6-9.6c1.1-2.6,2.5-4.8,4.3-6.4
		c1.8-1.7,3.8-2.9,6-3.6c2.2-0.7,4.4-1.1,6.7-1.1c2.3,0,4.3,0.2,6,0.5c1.7,0.3,3.1,0.7,4.1,1.1l-1.6,6.6c-1-0.4-2-0.7-3.2-0.9
		c-1.2-0.2-2.7-0.3-4.5-0.3c-1.6,0-3.1,0.2-4.5,0.7c-1.4,0.5-2.6,1.3-3.6,2.4c-1,1.1-1.8,2.6-2.3,4.3c-0.6,1.7-0.8,3.9-0.8,6.4
		c0,2.4,0.3,4.5,0.8,6.2c0.5,1.7,1.3,3.2,2.2,4.3c0.9,1.1,2.1,1.9,3.3,2.5c1.3,0.5,2.6,0.8,4.1,0.8c1,0,2-0.1,2.9-0.4
		c0.9-0.2,1.7-0.6,2.4-1.1V48l-8.6-0.9V42.3z"/>
	<path d="M647.2,54.3h-12.3l-3,8.8h-7.8l14.4-40.2h5.8l14.4,40.2h-8.2L647.2,54.3z M636.9,48h8.5l-3-8.9l-1.2-6.3H641l-1.2,6.3
		L636.9,48z"/>
	<path d="M687.3,42.3h14.9v17.8c-1.6,1.3-3.5,2.3-5.7,2.9c-2.2,0.6-4.4,0.9-6.6,0.9c-2.5,0-4.9-0.4-7.1-1.2c-2.2-0.8-4.1-2-5.7-3.7
		c-1.6-1.7-2.8-3.8-3.8-6.5s-1.4-5.7-1.4-9.3c0-3.8,0.5-7,1.6-9.6c1.1-2.6,2.5-4.8,4.3-6.4c1.8-1.7,3.8-2.9,6-3.6
		c2.2-0.7,4.4-1.1,6.7-1.1s4.3,0.2,6,0.5c1.7,0.3,3.1,0.7,4.1,1.1l-1.6,6.6c-1-0.4-2-0.7-3.2-0.9c-1.2-0.2-2.7-0.3-4.5-0.3
		c-1.6,0-3.1,0.2-4.5,0.7c-1.4,0.5-2.6,1.3-3.6,2.4c-1,1.1-1.8,2.6-2.3,4.3c-0.6,1.7-0.8,3.9-0.8,6.4c0,2.4,0.3,4.5,0.8,6.2
		c0.5,1.7,1.3,3.2,2.2,4.3c0.9,1.1,2.1,1.9,3.3,2.5c1.3,0.5,2.6,0.8,4.1,0.8c1,0,2-0.1,2.9-0.4c1-0.2,1.7-0.6,2.4-1.1V48l-8.6-0.9
		V42.3z"/>
	<path d="M748.6,30.2H737v32.9h-7.8V30.2h-11.7v-7h31.1V30.2z"/>
	<path d="M782.2,54.3h-12.3l-3,8.8h-7.8l14.4-40.2h5.8l14.4,40.2h-8.2L782.2,54.3z M771.9,48h8.5l-3-8.9l-1.2-6.3H776l-1.2,6.3
		L771.9,48z"/>
	<path d="M796.7,59.4c0-1.3,0.4-2.4,1.3-3.2c0.8-0.8,1.9-1.2,3.3-1.2c1.4,0,2.6,0.4,3.4,1.2c0.8,0.8,1.3,1.8,1.3,3.2
		c0,1.3-0.4,2.4-1.3,3.2c-0.8,0.8-2,1.2-3.4,1.2c-1.4,0-2.5-0.4-3.3-1.2C797.1,61.7,796.7,60.7,796.7,59.4z"/>
	<path d="M811.5,59.4c0-1.3,0.4-2.4,1.3-3.2c0.8-0.8,1.9-1.2,3.3-1.2c1.4,0,2.6,0.4,3.4,1.2c0.8,0.8,1.3,1.8,1.3,3.2
		c0,1.3-0.4,2.4-1.3,3.2c-0.8,0.8-2,1.2-3.4,1.2c-1.4,0-2.5-0.4-3.3-1.2C811.9,61.7,811.5,60.7,811.5,59.4z"/>
	<path d="M826.2,59.4c0-1.3,0.4-2.4,1.3-3.2c0.8-0.8,1.9-1.2,3.3-1.2c1.4,0,2.6,0.4,3.4,1.2c0.8,0.8,1.3,1.8,1.3,3.2
		c0,1.3-0.4,2.4-1.3,3.2c-0.8,0.8-2,1.2-3.4,1.2c-1.4,0-2.5-0.4-3.3-1.2C826.6,61.7,826.2,60.7,826.2,59.4z"/>
</g>
<g>
	<path d="M87.2,94.2H75.5v32.9h-7.8V94.2H56.1v-7h31.1V94.2z"/>
	<path d="M120.8,118.3h-12.3l-3,8.8h-7.8L112,87h5.8l14.4,40.2h-8.2L120.8,118.3z M110.5,112h8.5l-3-8.9l-1.2-6.3h-0.3l-1.2,6.3
		L110.5,112z"/>
	<path d="M164.9,118.3h-12.3l-3,8.8h-7.8L156.1,87h5.8l14.4,40.2h-8.2L164.9,118.3z M154.6,112h8.5l-3-8.9l-1.2-6.3h-0.3l-1.2,6.3
		L154.6,112z"/>
	<path d="M217.9,94.2h-11.6v32.9h-7.8V94.2h-11.7v-7h31.1V94.2z"/>
	<path d="M247.4,106.3h14.9v17.8c-1.6,1.3-3.5,2.3-5.7,2.9c-2.2,0.6-4.4,0.9-6.6,0.9c-2.5,0-4.9-0.4-7.1-1.2c-2.2-0.8-4.1-2-5.7-3.7
		c-1.6-1.7-2.8-3.8-3.8-6.5s-1.4-5.7-1.4-9.3c0-3.8,0.5-7,1.6-9.6c1.1-2.6,2.5-4.8,4.3-6.4c1.8-1.7,3.8-2.9,6-3.6
		c2.2-0.7,4.4-1.1,6.7-1.1s4.3,0.2,6,0.5c1.7,0.3,3.1,0.7,4.1,1.1l-1.6,6.6c-1-0.4-2-0.7-3.2-0.9c-1.2-0.2-2.7-0.3-4.5-0.3
		c-1.6,0-3.1,0.2-4.5,0.7c-1.4,0.5-2.6,1.3-3.6,2.4c-1,1.1-1.8,2.6-2.3,4.3c-0.6,1.7-0.8,3.9-0.8,6.4c0,2.4,0.3,4.5,0.8,6.2
		c0.5,1.7,1.3,3.2,2.2,4.3c1,1.1,2.1,1.9,3.3,2.5c1.3,0.5,2.6,0.8,4.1,0.8c1,0,2-0.1,2.9-0.4c0.9-0.2,1.7-0.6,2.4-1.1V112l-8.6-0.9
		V106.3z"/>
	<path d="M308.7,94.2h-11.6v32.9h-7.8V94.2h-11.7v-7h31.1V94.2z"/>
	<path d="M342.3,118.3h-12.3l-3,8.8h-7.8L333.6,87h5.8l14.4,40.2h-8.2L342.3,118.3z M332,112h8.5l-3-8.9l-1.2-6.3h-0.3l-1.2,6.3
		L332,112z"/>
	<path d="M395.3,125.5c-1.2,0.9-2.8,1.5-4.6,1.9c-1.9,0.4-3.8,0.6-5.8,0.6c-2.4,0-4.7-0.4-6.8-1.1c-2.1-0.7-4-1.9-5.7-3.6
		c-1.6-1.7-2.9-3.8-3.9-6.4c-1-2.6-1.5-5.8-1.5-9.6c0-3.9,0.5-7.2,1.6-9.8c1.1-2.6,2.5-4.8,4.2-6.4c1.7-1.6,3.7-2.8,5.8-3.5
		c2.1-0.7,4.3-1.1,6.4-1.1c2.3,0,4.2,0.2,5.8,0.5c1.6,0.3,2.9,0.7,3.9,1.1l-1.5,6.6c-0.9-0.4-1.9-0.7-3.1-0.9
		c-1.2-0.2-2.7-0.3-4.4-0.3c-3.2,0-5.7,1.1-7.6,3.4c-1.9,2.2-2.9,5.7-2.9,10.5c0,2.1,0.2,3.9,0.7,5.6c0.5,1.7,1.1,3.1,2.1,4.3
		c0.9,1.2,2.1,2.1,3.5,2.8c1.4,0.7,3,1,4.8,1c1.7,0,3.2-0.2,4.3-0.5c1.2-0.3,2.2-0.8,3.1-1.3L395.3,125.5z"/>
	<path d="M438.6,94.2H427v32.9h-7.8V94.2h-11.7v-7h31.1V94.2z"/>
	<path class="st0" d="M472.2,118.3h-12.3l-3,8.8h-7.8L463.4,87h5.8l14.4,40.2h-8.2L472.2,118.3z M461.9,112h8.5l-3-8.9l-1.2-6.3H466
		l-1.2,6.3L461.9,112z"/>
	<path d="M525.2,94.2h-11.6v32.9h-7.8V94.2H494v-7h31.1V94.2z"/>
	<path d="M567.6,94.2H556v32.9h-7.8V94.2h-11.7v-7h31.1V94.2z"/>
	<path class="st0" d="M601.2,118.3h-12.3l-3,8.8h-7.8L592.5,87h5.8l14.4,40.2h-8.2L601.2,118.3z M590.9,112h8.5l-3-8.9l-1.2-6.3H595
		l-1.2,6.3L590.9,112z"/>
	<path d="M654.2,125.5c-1.2,0.9-2.8,1.5-4.6,1.9c-1.9,0.4-3.8,0.6-5.8,0.6c-2.4,0-4.7-0.4-6.8-1.1c-2.1-0.7-4-1.9-5.7-3.6
		c-1.6-1.7-2.9-3.8-3.9-6.4c-1-2.6-1.5-5.8-1.5-9.6c0-3.9,0.5-7.2,1.6-9.8c1.1-2.6,2.5-4.8,4.2-6.4c1.7-1.6,3.7-2.8,5.8-3.5
		c2.1-0.7,4.3-1.1,6.4-1.1c2.3,0,4.2,0.2,5.8,0.5c1.6,0.3,2.9,0.7,3.9,1.1l-1.5,6.6c-0.9-0.4-1.9-0.7-3.1-0.9
		c-1.2-0.2-2.7-0.3-4.4-0.3c-3.2,0-5.7,1.1-7.6,3.4c-1.9,2.2-2.9,5.7-2.9,10.5c0,2.1,0.2,3.9,0.7,5.6c0.5,1.7,1.1,3.1,2.1,4.3
		c0.9,1.2,2.1,2.1,3.5,2.8c1.4,0.7,3,1,4.8,1c1.7,0,3.2-0.2,4.3-0.5c1.2-0.3,2.2-0.8,3.1-1.3L654.2,125.5z"/>
	<path d="M684.5,106.3h14.9v17.8c-1.6,1.3-3.5,2.3-5.7,2.9c-2.2,0.6-4.4,0.9-6.6,0.9c-2.5,0-4.9-0.4-7.1-1.2c-2.2-0.8-4.1-2-5.7-3.7
		c-1.6-1.7-2.8-3.8-3.8-6.5s-1.4-5.7-1.4-9.3c0-3.8,0.5-7,1.6-9.6c1.1-2.6,2.5-4.8,4.3-6.4c1.8-1.7,3.8-2.9,6-3.6
		c2.2-0.7,4.4-1.1,6.7-1.1s4.3,0.2,6,0.5c1.7,0.3,3.1,0.7,4.1,1.1l-1.6,6.6c-1-0.4-2-0.7-3.2-0.9c-1.2-0.2-2.7-0.3-4.5-0.3
		c-1.6,0-3.1,0.2-4.5,0.7c-1.4,0.5-2.6,1.3-3.6,2.4c-1,1.1-1.8,2.6-2.3,4.3c-0.6,1.7-0.8,3.9-0.8,6.4c0,2.4,0.3,4.5,0.8,6.2
		c0.5,1.7,1.3,3.2,2.2,4.3c1,1.1,2.1,1.9,3.3,2.5c1.3,0.5,2.6,0.8,4.1,0.8c1,0,2-0.1,2.9-0.4c0.9-0.2,1.7-0.6,2.4-1.1V112l-8.6-0.9
		V106.3z"/>
	<path d="M745.9,125.5c-1.2,0.9-2.8,1.5-4.6,1.9c-1.9,0.4-3.8,0.6-5.8,0.6c-2.4,0-4.7-0.4-6.8-1.1c-2.1-0.7-4-1.9-5.7-3.6
		c-1.6-1.7-2.9-3.8-3.9-6.4c-1-2.6-1.5-5.8-1.5-9.6c0-3.9,0.5-7.2,1.6-9.8c1.1-2.6,2.5-4.8,4.2-6.4c1.7-1.6,3.7-2.8,5.8-3.5
		c2.1-0.7,4.3-1.1,6.4-1.1c2.3,0,4.2,0.2,5.8,0.5c1.6,0.3,2.9,0.7,3.9,1.1l-1.5,6.6c-0.9-0.4-1.9-0.7-3.1-0.9
		c-1.2-0.2-2.7-0.3-4.4-0.3c-3.2,0-5.7,1.1-7.6,3.4c-1.9,2.2-2.9,5.7-2.9,10.5c0,2.1,0.2,3.9,0.7,5.6c0.5,1.7,1.1,3.1,2.1,4.3
		c0.9,1.2,2.1,2.1,3.5,2.8c1.4,0.7,3,1,4.8,1c1.7,0,3.2-0.2,4.3-0.5c1.2-0.3,2.2-0.8,3.1-1.3L745.9,125.5z"/>
	<path d="M776.2,106.3h14.9v17.8c-1.6,1.3-3.5,2.3-5.7,2.9c-2.2,0.6-4.4,0.9-6.6,0.9c-2.5,0-4.9-0.4-7.1-1.2c-2.2-0.8-4.1-2-5.7-3.7
		c-1.6-1.7-2.8-3.8-3.8-6.5s-1.4-5.7-1.4-9.3c0-3.8,0.5-7,1.6-9.6c1.1-2.6,2.5-4.8,4.3-6.4c1.8-1.7,3.8-2.9,6-3.6
		c2.2-0.7,4.4-1.1,6.7-1.1s4.3,0.2,6,0.5c1.7,0.3,3.1,0.7,4.1,1.1l-1.6,6.6c-1-0.4-2-0.7-3.2-0.9c-1.2-0.2-2.7-0.3-4.5-0.3
		c-1.6,0-3.1,0.2-4.5,0.7c-1.4,0.5-2.6,1.3-3.6,2.4c-1,1.1-1.8,2.6-2.3,4.3c-0.6,1.7-0.8,3.9-0.8,6.4c0,2.4,0.3,4.5,0.8,6.2
		c0.5,1.7,1.3,3.2,2.2,4.3c1,1.1,2.1,1.9,3.3,2.5c1.3,0.5,2.6,0.8,4.1,0.8c1,0,2-0.1,2.9-0.4c0.9-0.2,1.7-0.6,2.4-1.1V112l-8.6-0.9
		V106.3z"/>
</g>
<g>
	<path d="M924.4,44.3l-0.4,5.5h0l1.8-5.5l11-21.9h2l1.7,21.9l-0.4,5.5h0l1.9-5.5l10-21.9h3.9l-15.8,33.4h-2.1l-1.8-22l0.3-5h-0.2
		l-1.9,5l-11,22h-2.1l-1.8-33.4h3.9L924.4,44.3z"/>
	<path d="M979.5,25.8h-9.7l-6.2,29.4h-3.8l6.2-29.4h-9.6l0.7-3.5h23.1L979.5,25.8z"/>
	<path d="M995.6,22.3h17l-0.7,3.5h-13.3L996.2,37h12.4l-0.7,3.5h-12.4l-3.1,14.7h-3.8L995.6,22.3z"/>
	<path d="M1029.3,46c-0.3,1.2-0.4,2.3-0.5,3.5c-0.1,1.2-0.1,2.3-0.1,3.3c0,0.5,0,0.9,0,1.3c0,0.4,0,0.8,0.1,1.2h-2.6l-0.7-4.1h-0.2
		c-0.4,0.5-0.8,1.1-1.4,1.6c-0.5,0.5-1.2,1-1.8,1.5c-0.7,0.4-1.4,0.8-2.1,1.1c-0.8,0.3-1.6,0.4-2.4,0.4c-3.7,0-5.6-2.4-5.6-7.3
		c0-2,0.3-4,0.8-6.1s1.3-3.9,2.4-5.6c1.1-1.7,2.5-3,4.2-4.1c1.7-1.1,3.8-1.6,6.2-1.6c0.9,0,1.9,0.1,3.2,0.3c1.3,0.2,2.4,0.5,3.5,0.8
		L1029.3,46z M1018.7,52.8c0.8,0,1.5-0.2,2.2-0.5c0.7-0.4,1.3-0.8,2-1.3c0.6-0.5,1.2-1.1,1.6-1.7c0.5-0.6,0.8-1.2,1.1-1.7l2.6-12.7
		c-0.9-0.4-2.1-0.7-3.6-0.7c-1.4,0-2.7,0.4-3.8,1.3c-1.1,0.8-2,2-2.8,3.3s-1.3,2.9-1.7,4.6c-0.4,1.7-0.6,3.4-0.6,5.2
		c0,1.2,0.2,2.2,0.7,3C1016.9,52.4,1017.6,52.8,1018.7,52.8z"/>
	<path d="M1052.4,47.1c-0.3,1.2-0.4,2.4-0.6,3.4c-0.1,1.1-0.2,2.1-0.2,3c0,0.3,0,0.7,0,0.9c0,0.3,0,0.6,0.1,0.8h-2.4l-0.7-4.1h-0.2
		c-0.4,0.5-0.8,1.1-1.4,1.6c-0.6,0.5-1.2,1-1.9,1.5c-0.7,0.4-1.4,0.8-2.2,1.1c-0.8,0.3-1.6,0.4-2.4,0.4c-1.7,0-3.1-0.6-4.1-1.9
		c-1-1.3-1.5-3.3-1.5-6c0-1.8,0.3-3.8,0.8-5.7c0.5-2,1.3-3.7,2.3-5.3c1-1.6,2.3-2.9,3.9-3.9c1.6-1,3.3-1.6,5.4-1.6c0.6,0,1,0,1.5,0
		c0.4,0,0.8,0.1,1.2,0.1c0.4,0.1,0.7,0.1,1,0.3c0.3,0.1,0.6,0.2,1,0.4l2.1-9.8h3.5L1052.4,47.1z M1042.1,52.8c0.7,0,1.3-0.2,2-0.5
		c0.7-0.4,1.3-0.8,2-1.3c0.6-0.5,1.2-1.1,1.6-1.7c0.5-0.6,0.9-1.2,1.2-1.7l2.6-12.2c-0.5-0.3-1.1-0.6-1.8-0.7s-1.6-0.2-2.7-0.2
		c-1.3,0-2.4,0.4-3.4,1.2c-1,0.8-1.9,1.8-2.6,3.1c-0.7,1.3-1.2,2.8-1.6,4.4c-0.4,1.7-0.6,3.4-0.6,5.1c0,1.3,0.2,2.4,0.8,3.3
		C1040.1,52.3,1040.9,52.8,1042.1,52.8z"/>
	<path d="M1065.5,22.7c1.3-0.3,2.6-0.4,3.8-0.5c1.2-0.1,2.4-0.2,3.7-0.2c1.2,0,2.4,0.1,3.5,0.4c1.1,0.3,2.1,0.8,3,1.4
		c0.9,0.6,1.6,1.5,2.1,2.5c0.5,1,0.8,2.3,0.8,3.8c0,2.8-0.8,5.1-2.4,6.9c-1.6,1.8-4,3-7,3.5l1.7,1.7l5.1,13h-4.1l-5.6-14.2l-4.4-0.7
		l-3.1,14.9h-3.8L1065.5,22.7z M1072.7,25.3c-0.8,0-1.5,0-2.3,0.1c-0.8,0-1.4,0.1-1.9,0.2l-2.6,12.1h3.2c1.1,0,2.2-0.1,3.3-0.3
		c1.1-0.2,2.1-0.6,2.9-1.2c0.9-0.6,1.6-1.3,2.1-2.3c0.5-1,0.8-2.2,0.8-3.7c0-0.6-0.1-1.1-0.3-1.7c-0.2-0.6-0.5-1.1-1-1.6
		c-0.4-0.5-1-0.9-1.7-1.2C1074.5,25.5,1073.7,25.3,1072.7,25.3z"/>
</g>
<g>
	<path d="M917.7,113.8c0-2.9,0.4-5.6,1.2-8.2c0.8-2.6,1.9-4.9,3.4-6.8c1.5-2,3.2-3.5,5.3-4.7c2.1-1.1,4.3-1.7,6.8-1.7
		c1.5,0,2.9,0.2,4.2,0.7c1.3,0.5,2.4,1.2,3.3,2.2c0.9,1,1.6,2.3,2.2,3.8c0.5,1.6,0.8,3.5,0.8,5.7c0,2.9-0.4,5.7-1.2,8.3
		c-0.8,2.6-1.9,4.9-3.3,6.9c-1.4,2-3.1,3.5-5.1,4.7c-2,1.1-4.1,1.7-6.5,1.7c-3.7,0-6.5-1.1-8.3-3.2
		C918.6,121,917.7,117.9,917.7,113.8z M921.6,113.7c0,2.9,0.6,5.2,1.8,6.8c1.2,1.6,3,2.4,5.4,2.4c1.8,0,3.4-0.5,4.8-1.5
		s2.7-2.3,3.8-3.9c1.1-1.7,1.9-3.6,2.5-5.8c0.6-2.2,0.9-4.5,0.9-7c0-1.8-0.2-3.3-0.6-4.5c-0.4-1.2-0.9-2.1-1.6-2.8
		c-0.7-0.7-1.4-1.1-2.3-1.4c-0.9-0.3-1.7-0.4-2.6-0.4c-1.8,0-3.4,0.5-4.9,1.5c-1.5,1-2.7,2.3-3.8,4c-1,1.7-1.9,3.6-2.5,5.8
		C921.9,109.1,921.6,111.4,921.6,113.7z"/>
	<path d="M951.2,120.2c-0.1,0.5-0.1,1-0.1,1.3c0,0.6,0.1,1,0.3,1.3c0.2,0.3,0.5,0.4,0.8,0.4c0.6,0,1.2,0,1.6-0.1
		c0.4-0.1,0.9-0.2,1.5-0.4v2.7c-0.3,0.2-0.6,0.3-1,0.4s-0.8,0.2-1.2,0.3c-0.4,0.1-0.8,0.1-1.2,0.2s-0.7,0.1-1.1,0.1
		c-1.1,0-2-0.3-2.6-0.8s-1-1.4-1-2.8c0-0.6,0.1-1.4,0.3-2.3l5.8-27.5h3.5L951.2,120.2z"/>
	<path d="M965.2,102.3h3.5l-5,23.5h-3.5L965.2,102.3z M965.9,95.1c0-0.7,0.2-1.3,0.7-1.8c0.5-0.5,1.1-0.8,1.8-0.8s1.3,0.3,1.8,0.8
		c0.5,0.5,0.8,1.1,0.8,1.8c0,0.7-0.3,1.3-0.8,1.8c-0.5,0.5-1.1,0.7-1.8,0.7s-1.3-0.2-1.8-0.7C966.2,96.4,965.9,95.8,965.9,95.1z"/>
	<path d="M987.9,126.9c-0.7,3.1-1.8,5.3-3.4,6.7c-1.6,1.4-3.7,2.1-6.4,2.1c-2,0-3.7-0.3-5-0.8c-1.3-0.5-2.3-1-3-1.3l1.6-2.6
		c0.2,0.1,0.6,0.3,0.9,0.5c0.4,0.2,0.8,0.4,1.3,0.6s1.1,0.3,1.9,0.5c0.7,0.1,1.6,0.2,2.6,0.2c1.6,0,2.9-0.6,3.9-1.7
		c1.1-1.1,1.9-2.9,2.4-5.3l0.8-3.9h-0.2c-0.4,0.6-0.9,1.2-1.4,1.7c-0.5,0.5-1.1,1-1.7,1.4c-0.6,0.4-1.3,0.8-2,1s-1.5,0.4-2.4,0.4
		c-1.7,0-3.1-0.6-4.1-1.8c-1-1.2-1.6-3-1.6-5.2c0-2.1,0.3-4.2,0.9-6.3c0.6-2.1,1.4-3.9,2.6-5.6c1.1-1.6,2.5-3,4.2-4
		c1.7-1,3.6-1.6,5.8-1.6c1.7,0,3.1,0.1,4.3,0.4c1.2,0.3,2.2,0.6,3,1L987.9,126.9z M979,123.3c0.8,0,1.6-0.2,2.3-0.6
		c0.8-0.4,1.5-0.9,2.1-1.6c0.6-0.6,1.2-1.3,1.7-2.1s0.9-1.5,1.3-2.1l2.4-11.3c-0.5-0.3-1.1-0.5-1.8-0.6c-0.7-0.1-1.5-0.1-2.2-0.1
		c-1.3,0-2.5,0.4-3.6,1.1s-2,1.8-2.8,3c-0.8,1.3-1.4,2.7-1.9,4.4c-0.5,1.7-0.7,3.4-0.7,5.2c0,1.4,0.3,2.6,0.9,3.4
		C977.3,122.9,978.1,123.3,979,123.3z"/>
	<path d="M995.9,118.5c0-2.5,0.3-4.7,1-6.8c0.6-2.1,1.5-3.8,2.7-5.3c1.1-1.5,2.4-2.6,3.9-3.4c1.5-0.8,3.1-1.2,4.8-1.2
		c1.3,0,2.4,0.2,3.4,0.6c0.9,0.4,1.7,1,2.3,1.7c0.6,0.7,1,1.6,1.2,2.5c0.2,1,0.4,2,0.4,3c0,2.4-0.3,4.5-0.9,6.6
		c-0.6,2-1.5,3.8-2.5,5.3s-2.3,2.7-3.8,3.5c-1.4,0.9-3,1.3-4.7,1.3c-1.4,0-2.6-0.2-3.5-0.7c-1-0.5-1.7-1.1-2.3-1.8
		c-0.6-0.8-1-1.6-1.3-2.5C996,120.4,995.9,119.4,995.9,118.5z M999.7,117.6c0,1.8,0.3,3.3,1,4.3c0.7,1,1.8,1.5,3.3,1.5
		c1,0,2-0.4,2.9-1.1c0.9-0.7,1.7-1.7,2.4-3c0.7-1.3,1.3-2.7,1.7-4.3c0.4-1.6,0.6-3.3,0.6-5.1c0-1.6-0.3-2.9-0.9-3.8
		c-0.6-0.9-1.7-1.4-3.3-1.4c-1,0-2,0.4-3,1.1s-1.8,1.7-2.5,2.8c-0.7,1.2-1.3,2.6-1.7,4.1C999.9,114.3,999.7,115.9,999.7,117.6z"/>
	<path d="M1038.4,92.9h17l-0.7,3.5h-13.3l-2.4,11.2h12.4l-0.7,3.5h-12.4l-3.1,14.7h-3.8L1038.4,92.9z"/>
	<path d="M1072,116.5c-0.3,1.2-0.4,2.3-0.5,3.5c-0.1,1.2-0.1,2.3-0.1,3.3c0,0.5,0,0.9,0,1.3c0,0.4,0,0.8,0.1,1.2h-2.6l-0.7-4.1h-0.2
		c-0.4,0.5-0.8,1.1-1.4,1.6c-0.5,0.5-1.2,1-1.8,1.5c-0.7,0.4-1.4,0.8-2.1,1.1c-0.8,0.3-1.6,0.4-2.4,0.4c-3.7,0-5.6-2.4-5.6-7.3
		c0-2,0.3-4,0.8-6.1s1.3-3.9,2.4-5.6c1.1-1.7,2.5-3,4.2-4.1c1.7-1.1,3.8-1.6,6.2-1.6c0.9,0,1.9,0.1,3.2,0.3c1.3,0.2,2.4,0.5,3.5,0.8
		L1072,116.5z M1061.4,123.3c0.8,0,1.5-0.2,2.2-0.5c0.7-0.4,1.3-0.8,2-1.3c0.6-0.5,1.2-1.1,1.6-1.7c0.5-0.6,0.8-1.2,1.1-1.7
		l2.6-12.7c-0.9-0.4-2.1-0.7-3.6-0.7c-1.4,0-2.7,0.4-3.8,1.3c-1.1,0.8-2,2-2.8,3.3s-1.3,2.9-1.7,4.6c-0.4,1.7-0.6,3.4-0.6,5.2
		c0,1.2,0.2,2.2,0.7,3C1059.7,122.9,1060.4,123.3,1061.4,123.3z"/>
	<path d="M1095.2,117.7c-0.3,1.2-0.4,2.4-0.6,3.4c-0.1,1.1-0.2,2.1-0.2,3c0,0.3,0,0.7,0,0.9c0,0.3,0,0.6,0.1,0.8h-2.4l-0.7-4.1h-0.2
		c-0.4,0.5-0.8,1.1-1.4,1.6c-0.6,0.5-1.2,1-1.9,1.5c-0.7,0.4-1.4,0.8-2.2,1.1c-0.8,0.3-1.6,0.4-2.4,0.4c-1.7,0-3.1-0.6-4.1-1.9
		c-1-1.3-1.5-3.3-1.5-6c0-1.8,0.3-3.8,0.8-5.7c0.5-2,1.3-3.7,2.3-5.3c1-1.6,2.3-2.9,3.9-3.9c1.6-1,3.3-1.6,5.4-1.6c0.6,0,1,0,1.5,0
		c0.4,0,0.8,0.1,1.2,0.1c0.4,0.1,0.7,0.1,1,0.3c0.3,0.1,0.6,0.2,1,0.4l2.1-9.8h3.5L1095.2,117.7z M1084.8,123.3c0.7,0,1.3-0.2,2-0.5
		c0.7-0.4,1.3-0.8,2-1.3c0.6-0.5,1.2-1.1,1.6-1.7c0.5-0.6,0.9-1.2,1.2-1.7l2.6-12.2c-0.5-0.3-1.1-0.6-1.8-0.7s-1.6-0.2-2.7-0.2
		c-1.3,0-2.4,0.4-3.4,1.2c-1,0.8-1.9,1.8-2.6,3.1c-0.7,1.3-1.2,2.8-1.6,4.4c-0.4,1.7-0.6,3.4-0.6,5.1c0,1.3,0.2,2.4,0.8,3.3
		C1082.9,122.9,1083.7,123.3,1084.8,123.3z"/>
	<path d="M1108.2,93.2c1.3-0.3,2.6-0.4,3.8-0.5c1.2-0.1,2.4-0.2,3.7-0.2c1.2,0,2.4,0.1,3.5,0.4c1.1,0.3,2.1,0.8,3,1.4
		c0.9,0.6,1.6,1.5,2.1,2.5c0.5,1,0.8,2.3,0.8,3.8c0,2.8-0.8,5.1-2.4,6.9c-1.6,1.8-4,3-7,3.5l1.7,1.7l5.1,13h-4.1l-5.6-14.2l-4.4-0.7
		l-3.1,14.9h-3.8L1108.2,93.2z M1115.5,95.9c-0.8,0-1.5,0-2.3,0.1c-0.8,0-1.4,0.1-1.9,0.2l-2.6,12.1h3.2c1.1,0,2.2-0.1,3.3-0.3
		c1.1-0.2,2.1-0.6,2.9-1.2c0.9-0.6,1.6-1.3,2.1-2.3c0.5-1,0.8-2.2,0.8-3.7c0-0.6-0.1-1.1-0.3-1.7c-0.2-0.6-0.5-1.1-1-1.6
		c-0.4-0.5-1-0.9-1.7-1.2C1117.3,96,1116.4,95.9,1115.5,95.9z"/>
</g>
</svg>
