<svg xmlns="http://www.w3.org/2000/svg" viewBox="0 0 580.64 197.48"><defs><style>.cls-1{fill:#0079bf;}.cls-2{fill:none;stroke:#000;stroke-miterlimit:10;stroke-width:5px;}</style></defs><title>Asset 19partFadD</title><g id="Layer_2" data-name="Layer 2"><g id="Layer_1-2" data-name="Layer 1"><rect class="cls-1" x="216.06" y="39.26" width="160" height="55.93"/><path d="M250.74,146h2.47l.39,1.56h.11a4.31,4.31,0,0,1,1.6-1.45,4.93,4.93,0,0,1,2.25-.47,4.39,4.39,0,0,1,3.66,1.55c.82,1,1.22,2.69,1.22,5a10.69,10.69,0,0,1-.39,3,6.44,6.44,0,0,1-1.15,2.28,5.18,5.18,0,0,1-1.88,1.43,6.27,6.27,0,0,1-2.53.49,6.1,6.1,0,0,1-1.33-.12,5,5,0,0,1-1-.37v5.33h-3.38Zm5.8,2.5a2.32,2.32,0,0,0-1.55.49,3.29,3.29,0,0,0-.87,1.49v5.4a2.92,2.92,0,0,0,.8.46,3.16,3.16,0,0,0,1.13.17,2.48,2.48,0,0,0,2.18-1A6,6,0,0,0,259,152a5.11,5.11,0,0,0-.57-2.65A2,2,0,0,0,256.54,148.45Z"/><path d="M272.71,154.07a1.7,1.7,0,0,0-.61-1.36,7.06,7.06,0,0,0-1.53-1c-.62-.28-1.28-.58-2-.88a9.85,9.85,0,0,1-2-1.12,5.75,5.75,0,0,1-1.53-1.65,4.7,4.7,0,0,1-.61-2.52,5.62,5.62,0,0,1,.44-2.3,4.39,4.39,0,0,1,1.26-1.62,5.36,5.36,0,0,1,1.94-1,9.61,9.61,0,0,1,2.5-.31,15.91,15.91,0,0,1,3,.27,7.51,7.51,0,0,1,2.31.8l-1.12,3a6,6,0,0,0-1.71-.67,9.78,9.78,0,0,0-2.47-.29,3.19,3.19,0,0,0-1.92.49,1.57,1.57,0,0,0-.66,1.32,1.61,1.61,0,0,0,.61,1.3,7.16,7.16,0,0,0,1.54,1c.61.29,1.28.6,2,.91a10.86,10.86,0,0,1,2,1.13,5.45,5.45,0,0,1,1.53,1.64,4.47,4.47,0,0,1,.62,2.43,6,6,0,0,1-.49,2.51,4.77,4.77,0,0,1-1.35,1.75,5.75,5.75,0,0,1-2.1,1,10.13,10.13,0,0,1-2.72.34,14.08,14.08,0,0,1-3.43-.37,10.66,10.66,0,0,1-2.19-.72l1.15-3a6,6,0,0,0,.74.34,8.29,8.29,0,0,0,1,.34c.38.1.78.19,1.2.26a8.2,8.2,0,0,0,1.32.1,4.57,4.57,0,0,0,2.43-.53A1.79,1.79,0,0,0,272.71,154.07Z"/><path d="M290.89,145a5.67,5.67,0,0,1-.17,1.35,3.58,3.58,0,0,1-.56,1.24,4.14,4.14,0,0,1-1,1,4.41,4.41,0,0,1-1.51.63v.16a6.17,6.17,0,0,1,1.48.44,3.8,3.8,0,0,1,2,2.19,5.11,5.11,0,0,1,.3,1.84,4.71,4.71,0,0,1-.6,2.43,4.86,4.86,0,0,1-1.6,1.68,7.47,7.47,0,0,1-2.27,1,10.94,10.94,0,0,1-2.63.31h-1.13c-.46,0-1,0-1.48,0s-1.07-.06-1.61-.11a11.87,11.87,0,0,1-1.5-.23v-18l1.13-.15c.43,0,.88-.1,1.37-.13s1-.06,1.49-.08,1,0,1.52,0a15.69,15.69,0,0,1,2.49.19,7,7,0,0,1,2.15.69,4,4,0,0,1,1.53,1.38A4,4,0,0,1,290.89,145Zm-7.67,3.41.84,0a7.22,7.22,0,0,0,.8-.07,4.92,4.92,0,0,0,1.7-.93,2,2,0,0,0,.71-1.62,2.07,2.07,0,0,0-.26-1.11,1.9,1.9,0,0,0-.69-.69,3,3,0,0,0-1-.36,6,6,0,0,0-1.14-.1c-.46,0-.87,0-1.25,0a7.43,7.43,0,0,0-.89.08v4.81Zm1.17,7.82a5.3,5.3,0,0,0,1.26-.15,3.12,3.12,0,0,0,1.08-.48,2.43,2.43,0,0,0,.75-.81,2.24,2.24,0,0,0,.29-1.16,2.33,2.33,0,0,0-.34-1.33,2.31,2.31,0,0,0-.88-.76,3.74,3.74,0,0,0-1.23-.35,12.22,12.22,0,0,0-1.35-.08h-1.9v5a2.08,2.08,0,0,0,.42.08l.61,0,.68,0Z"/><path d="M295.07,156.09h3.62V145.83l.39-1.77-1.25,1.53-2.32,1.59-1.42-2,5.92-4.79h1.9v15.65h3.54V159H295.07Z"/><path d="M321.07,158.21a5.48,5.48,0,0,1-2.12.85,13.43,13.43,0,0,1-2.64.26,9.38,9.38,0,0,1-3.1-.51,6.64,6.64,0,0,1-2.59-1.64,8.07,8.07,0,0,1-1.78-2.93,12.88,12.88,0,0,1-.66-4.39,11.76,11.76,0,0,1,.74-4.48,8,8,0,0,1,1.92-2.91,7.08,7.08,0,0,1,2.64-1.59,9.24,9.24,0,0,1,2.91-.48,14.1,14.1,0,0,1,2.64.21,9.85,9.85,0,0,1,1.78.49l-.7,3a5.29,5.29,0,0,0-1.42-.42,13.8,13.8,0,0,0-2-.13,4.37,4.37,0,0,0-3.47,1.54,7.25,7.25,0,0,0-1.31,4.77,9.71,9.71,0,0,0,.31,2.56,5.53,5.53,0,0,0,.95,2,4.32,4.32,0,0,0,1.59,1.28,4.9,4.9,0,0,0,2.19.46,7.05,7.05,0,0,0,2-.24,5.46,5.46,0,0,0,1.4-.59Z"/><path d="M328,156.46a3.33,3.33,0,0,0,2.46-.86,2.87,2.87,0,0,0,.84-2.08,2.59,2.59,0,0,0-.88-2.18,4.47,4.47,0,0,0-2.79-.71h-1.87v-1.79l3.15-4.29,1.48-1.17-2.05.23H324v-2.86h9.93v1.85l-3.67,4.91-1.14.71v.13l1.09-.16a5.55,5.55,0,0,1,1.73.42,4.12,4.12,0,0,1,1.43,1,4.81,4.81,0,0,1,1,1.58,5.94,5.94,0,0,1,.36,2.15,6.33,6.33,0,0,1-.51,2.65,5.16,5.16,0,0,1-1.4,1.88,5.92,5.92,0,0,1-2.09,1.11,8.61,8.61,0,0,1-2.58.37,13.88,13.88,0,0,1-2.36-.21,6.84,6.84,0,0,1-2-.6l.91-2.81a7.17,7.17,0,0,0,1.5.55A7.31,7.31,0,0,0,328,156.46Z"/><path d="M268.31.28h11.62V3.7h-7.78V8.54h7.16V12h-7.16v7.92h-3.84Z"/><path d="M282.37,6.69a12.35,12.35,0,0,1,2.66-.8,17.61,17.61,0,0,1,3.22-.29,7.35,7.35,0,0,1,2.43.35,3.74,3.74,0,0,1,1.56,1,3.8,3.8,0,0,1,.81,1.54,7.83,7.83,0,0,1,.24,2c0,.82,0,1.65-.09,2.48s-.09,1.65-.1,2.45,0,1.58.07,2.34a9.22,9.22,0,0,0,.42,2.14h-3L290,18h-.14a5.08,5.08,0,0,1-1.56,1.49,4.69,4.69,0,0,1-2.56.63,4.89,4.89,0,0,1-1.76-.29,4,4,0,0,1-1.35-.84,3.7,3.7,0,0,1-.86-1.29A4.2,4.2,0,0,1,281.5,16a3.89,3.89,0,0,1,.57-2.17,4.14,4.14,0,0,1,1.65-1.43,8.08,8.08,0,0,1,2.58-.76,18,18,0,0,1,3.35-.12,3.65,3.65,0,0,0-.23-2.26c-.28-.46-.9-.68-1.87-.68a12.68,12.68,0,0,0-2.31.22,8.67,8.67,0,0,0-2,.59ZM287,17.11a2.84,2.84,0,0,0,1.73-.49,3.41,3.41,0,0,0,.95-1.05V13.75a9.29,9.29,0,0,0-1.66,0,6.33,6.33,0,0,0-1.42.25,2.45,2.45,0,0,0-1,.56,1.26,1.26,0,0,0-.36.93,1.57,1.57,0,0,0,.46,1.21A1.79,1.79,0,0,0,287,17.11Z"/><path d="M308.24,15c0,.79,0,1.57,0,2.35a18.44,18.44,0,0,0,.25,2.61h-2.61l-.5-1.82h-.11a4.29,4.29,0,0,1-1.61,1.58,4.92,4.92,0,0,1-2.48.6,5.07,5.07,0,0,1-4.09-1.73q-1.46-1.74-1.45-5.44a8.6,8.6,0,0,1,1.62-5.57,5.8,5.8,0,0,1,4.76-2,9.2,9.2,0,0,1,1.43.1A6.11,6.11,0,0,1,304.6,6V.28h3.64Zm-6.19,2.24a2.5,2.5,0,0,0,1.68-.52,2.79,2.79,0,0,0,.87-1.49V9.24a2.79,2.79,0,0,0-.87-.46,4.17,4.17,0,0,0-1.23-.16,2.69,2.69,0,0,0-2.31,1,6.11,6.11,0,0,0-.77,3.56,5.75,5.75,0,0,0,.63,2.88A2.13,2.13,0,0,0,302.05,17.19Z"/><path d="M311.51.28c.4-.06.84-.1,1.33-.14s1-.07,1.53-.08l1.53,0h1.33a12.06,12.06,0,0,1,4.45.73,7.44,7.44,0,0,1,3,2,8.06,8.06,0,0,1,1.68,3.14,14,14,0,0,1,.53,4,14.34,14.34,0,0,1-.5,3.84A8.49,8.49,0,0,1,324.7,17a8.3,8.3,0,0,1-3.09,2.3,11.49,11.49,0,0,1-4.75.87l-1.19,0-1.54-.07L312.61,20c-.49,0-.85-.06-1.1-.1Zm6,3.14-1.24,0a7.06,7.06,0,0,0-.94.09V16.66a2.17,2.17,0,0,0,.38,0l.57,0,.59,0h.42a5.74,5.74,0,0,0,2.7-.57,4.53,4.53,0,0,0,1.71-1.53,6.16,6.16,0,0,0,.88-2.2,12.7,12.7,0,0,0,.25-2.56,12.2,12.2,0,0,0-.22-2.31,5.79,5.79,0,0,0-.83-2.08A4.68,4.68,0,0,0,320.17,4,5.35,5.35,0,0,0,317.53,3.42Z"/><rect class="cls-2" x="2.5" y="98.93" width="575.64" height="96.06" rx="8.68" ry="8.68"/><line class="cls-2" x1="76.88" y1="57.27" x2="76.88" y2="118.59"/><line class="cls-2" x1="94.88" y1="57.24" x2="94.88" y2="118.56"/><path d="M72.66,36.84h8.72V39.4H75.54v3.42h5.31v2.57H75.54V49h5.94v2.56H72.66Z"/><path d="M93.28,44.06l-4.1-7.22h3.47l2.27,4.24.5,1.49.48-1.49,2.38-4.24h3.12l-4.24,7.08,4.45,7.62H98.19L95.61,47,95,45.45,94.5,47l-2.61,4.54H88.76Z"/><line class="cls-2" x1="522.86" y1="67.46" x2="522.86" y2="128.78"/><line class="cls-2" x1="540.86" y1="67.43" x2="540.86" y2="128.75"/><path d="M524.9,57.78a1.36,1.36,0,0,0-.5-1.09,5.38,5.38,0,0,0-1.24-.77c-.5-.23-1-.47-1.61-.71a8.44,8.44,0,0,1-1.62-.9A4.67,4.67,0,0,1,518.69,53a3.79,3.79,0,0,1-.49-2,4.57,4.57,0,0,1,.35-1.86,3.51,3.51,0,0,1,1-1.32,4.52,4.52,0,0,1,1.57-.77,7.37,7.37,0,0,1,2-.25,12.44,12.44,0,0,1,2.42.22,6,6,0,0,1,1.87.64L526.53,50a5.16,5.16,0,0,0-1.38-.53,7.94,7.94,0,0,0-2-.25,2.59,2.59,0,0,0-1.54.4,1.28,1.28,0,0,0-.54,1.07,1.33,1.33,0,0,0,.5,1,5.39,5.39,0,0,0,1.24.78c.49.24,1,.48,1.61.74a8.54,8.54,0,0,1,1.62.91,4.73,4.73,0,0,1,1.24,1.32,3.64,3.64,0,0,1,.49,2,4.79,4.79,0,0,1-.39,2,3.84,3.84,0,0,1-1.09,1.42,4.59,4.59,0,0,1-1.7.84,8.42,8.42,0,0,1-2.19.27,11.58,11.58,0,0,1-2.78-.29,8.62,8.62,0,0,1-1.76-.59l.92-2.46a5.86,5.86,0,0,0,.6.28,6.75,6.75,0,0,0,.83.27c.31.08.63.15,1,.21a6.08,6.08,0,0,0,1.06.08,3.65,3.65,0,0,0,2-.43A1.43,1.43,0,0,0,524.9,57.78Z"/><path d="M536.53,47.18c.59-.12,1.24-.2,1.94-.27s1.41-.09,2.11-.09a13.69,13.69,0,0,1,2.2.18,5.57,5.57,0,0,1,2,.71,4.2,4.2,0,0,1,1.44,1.49,4.94,4.94,0,0,1,.56,2.49,5.13,5.13,0,0,1-.48,2.34A4.52,4.52,0,0,1,545,55.6a5.17,5.17,0,0,1-1.81.88,8.19,8.19,0,0,1-2.11.27h-.82c-.17,0-.33,0-.5,0l-.34,0v5.06h-2.88Zm4.29,2.12c-.28,0-.55,0-.8,0l-.61.07v4.77l.25,0a2,2,0,0,0,.36,0h.63a6,6,0,0,0,1.12-.1,2.75,2.75,0,0,0,1-.39,2,2,0,0,0,.7-.79,2.77,2.77,0,0,0,.26-1.32,2.36,2.36,0,0,0-.25-1.15,2,2,0,0,0-.66-.72,2.57,2.57,0,0,0-.93-.38A5.46,5.46,0,0,0,540.82,49.3Z"/></g></g></svg>