<svg xmlns="http://www.w3.org/2000/svg" viewBox="0 0 580.64 192.92"><defs><style>.cls-1{fill:#0079bf;}.cls-2{fill:none;stroke:#000;stroke-miterlimit:10;stroke-width:5px;}</style></defs><title>Asset 21partFadE</title><g id="Layer_2" data-name="Layer 2"><g id="Layer_1-2" data-name="Layer 1"><rect class="cls-1" x="216.06" y="34.69" width="160" height="55.93"/><path d="M250.74,141.39h2.47l.39,1.56h.11a4.26,4.26,0,0,1,1.6-1.46,4.93,4.93,0,0,1,2.25-.47,4.39,4.39,0,0,1,3.66,1.55c.82,1,1.22,2.69,1.22,5a10.69,10.69,0,0,1-.39,3,6.44,6.44,0,0,1-1.15,2.28,5.18,5.18,0,0,1-1.88,1.43,7,7,0,0,1-3.86.37,4.48,4.48,0,0,1-1-.37v5.33h-3.38Zm5.8,2.49a2.27,2.27,0,0,0-1.55.5,3.25,3.25,0,0,0-.87,1.48v5.41a3.16,3.16,0,0,0,.8.45,3,3,0,0,0,1.13.17,2.48,2.48,0,0,0,2.18-1,6,6,0,0,0,.73-3.39,5.11,5.11,0,0,0-.57-2.65A2,2,0,0,0,256.54,143.88Z"/><path d="M272.71,149.5a1.66,1.66,0,0,0-.61-1.35,6.36,6.36,0,0,0-1.53-1c-.62-.29-1.28-.58-2-.89a9.85,9.85,0,0,1-2-1.12,5.75,5.75,0,0,1-1.53-1.65,4.66,4.66,0,0,1-.61-2.52,5.62,5.62,0,0,1,.44-2.3,4.39,4.39,0,0,1,1.26-1.62,5.36,5.36,0,0,1,1.94-1,9.61,9.61,0,0,1,2.5-.31,15.1,15.1,0,0,1,3,.28,7.52,7.52,0,0,1,2.31.79l-1.12,3a6.34,6.34,0,0,0-1.71-.66,9.78,9.78,0,0,0-2.47-.3,3.19,3.19,0,0,0-1.92.49,1.57,1.57,0,0,0-.66,1.33,1.63,1.63,0,0,0,.61,1.3,7.56,7.56,0,0,0,1.54,1c.61.29,1.28.6,2,.91a10.86,10.86,0,0,1,2,1.13,5.57,5.57,0,0,1,1.53,1.64,4.47,4.47,0,0,1,.62,2.43,6,6,0,0,1-.49,2.51,4.77,4.77,0,0,1-1.35,1.75,5.59,5.59,0,0,1-2.1,1,10.13,10.13,0,0,1-2.72.34,14.62,14.62,0,0,1-3.43-.36,11.2,11.2,0,0,1-2.19-.73l1.15-3c.19.1.44.21.74.33a6.91,6.91,0,0,0,1,.34,10.57,10.57,0,0,0,1.2.26,8.2,8.2,0,0,0,1.32.11,4.56,4.56,0,0,0,2.43-.54A1.78,1.78,0,0,0,272.71,149.5Z"/><path d="M290.89,140.43a5.67,5.67,0,0,1-.17,1.35,3.62,3.62,0,0,1-.56,1.23,4.14,4.14,0,0,1-1,1,4.41,4.41,0,0,1-1.51.64v.15a6.66,6.66,0,0,1,1.48.44,3.91,3.91,0,0,1,1.22.86,4,4,0,0,1,.82,1.33,5.12,5.12,0,0,1,.3,1.85,4.7,4.7,0,0,1-.6,2.42,4.86,4.86,0,0,1-1.6,1.68,7.25,7.25,0,0,1-2.27,1,11.47,11.47,0,0,1-2.63.31h-1.13c-.46,0-1,0-1.48,0l-1.61-.12a11.87,11.87,0,0,1-1.5-.23V136.32l1.13-.16,1.37-.13,1.49-.08,1.52,0a15.69,15.69,0,0,1,2.49.19,7,7,0,0,1,2.15.69,4,4,0,0,1,1.53,1.38A4,4,0,0,1,290.89,140.43Zm-7.67,3.4.84,0a7.22,7.22,0,0,0,.8-.07,4.92,4.92,0,0,0,1.7-.93,2,2,0,0,0,.71-1.62,2.1,2.1,0,0,0-.26-1.11,1.9,1.9,0,0,0-.69-.69,3,3,0,0,0-1-.36,6,6,0,0,0-1.14-.1l-1.25,0c-.38,0-.68.05-.89.08v4.81Zm1.17,7.83a5.31,5.31,0,0,0,1.26-.16,3.31,3.31,0,0,0,1.08-.47,2.63,2.63,0,0,0,.75-.81,2.29,2.29,0,0,0,.29-1.16,2.35,2.35,0,0,0-.34-1.34,2.31,2.31,0,0,0-.88-.76,3.74,3.74,0,0,0-1.23-.35,12.22,12.22,0,0,0-1.35-.08h-1.9v5a1.55,1.55,0,0,0,.42.08l.61,0,.68,0Z"/><path d="M295.07,151.53h3.62V141.26l.39-1.77L297.83,141l-2.32,1.59-1.42-2,5.92-4.79h1.9v15.66h3.54v2.86H295.07Z"/><path d="M321.07,153.64a5.33,5.33,0,0,1-2.12.85,12.71,12.71,0,0,1-2.64.26,9.38,9.38,0,0,1-3.1-.51,6.53,6.53,0,0,1-2.59-1.64,8.07,8.07,0,0,1-1.78-2.93,12.86,12.86,0,0,1-.66-4.38,11.78,11.78,0,0,1,.74-4.49,8.12,8.12,0,0,1,1.92-2.91,7.08,7.08,0,0,1,2.64-1.59,9.24,9.24,0,0,1,2.91-.48A14.1,14.1,0,0,1,319,136a9.85,9.85,0,0,1,1.78.49l-.7,3a5.29,5.29,0,0,0-1.42-.42,14,14,0,0,0-2-.12,4.37,4.37,0,0,0-3.47,1.53,7.28,7.28,0,0,0-1.31,4.77,9.84,9.84,0,0,0,.31,2.57,5.7,5.7,0,0,0,.95,2,4.39,4.39,0,0,0,1.59,1.27,4.9,4.9,0,0,0,2.19.46,7.48,7.48,0,0,0,2-.23,5.84,5.84,0,0,0,1.4-.6Z"/><path d="M328,151.89a3.33,3.33,0,0,0,2.46-.86,2.85,2.85,0,0,0,.84-2.08,2.61,2.61,0,0,0-.88-2.18,4.47,4.47,0,0,0-2.79-.7h-1.87v-1.8L328.9,140l1.48-1.17-2.05.24H324v-2.86h9.93V138L330.22,143l-1.14.7v.13l1.09-.16a5.85,5.85,0,0,1,1.73.42,4.26,4.26,0,0,1,1.43,1,4.81,4.81,0,0,1,1,1.58,6,6,0,0,1,.36,2.16,6.36,6.36,0,0,1-.51,2.65,5.12,5.12,0,0,1-1.4,1.87,6.1,6.1,0,0,1-2.09,1.12,8.94,8.94,0,0,1-2.58.36,13.88,13.88,0,0,1-2.36-.21,6.84,6.84,0,0,1-2-.6l.91-2.8a7.78,7.78,0,0,0,1.5.54A7.31,7.31,0,0,0,328,151.89Z"/><path d="M269.42,0h12.45V3.66h-8.34V8.85h7.68v3.66h-7.68V21h-4.11Z"/><path d="M284.48,6.87A12.82,12.82,0,0,1,287.33,6a18.37,18.37,0,0,1,3.45-.31,7.82,7.82,0,0,1,2.61.38,3.75,3.75,0,0,1,2.53,2.71,8.41,8.41,0,0,1,.26,2.16c0,.88,0,1.76-.09,2.66s-.1,1.76-.11,2.62,0,1.69.08,2.51a9.49,9.49,0,0,0,.45,2.29h-3.18L292.7,19h-.15a5.37,5.37,0,0,1-1.67,1.61,5.12,5.12,0,0,1-2.74.67,5.35,5.35,0,0,1-1.89-.32,4.07,4.07,0,0,1-1.44-.89,4.24,4.24,0,0,1-.93-1.39,4.56,4.56,0,0,1-.33-1.78,4.16,4.16,0,0,1,.61-2.32A4.47,4.47,0,0,1,285.93,13a8.8,8.8,0,0,1,2.76-.8,18.74,18.74,0,0,1,3.59-.14A3.93,3.93,0,0,0,292,9.64c-.3-.48-1-.73-2-.73a13.76,13.76,0,0,0-2.48.24,9,9,0,0,0-2.14.63ZM289.43,18a2.94,2.94,0,0,0,1.86-.53,3.54,3.54,0,0,0,1-1.12V14.43a10.79,10.79,0,0,0-1.79,0,6.47,6.47,0,0,0-1.51.27,2.55,2.55,0,0,0-1.05.6,1.34,1.34,0,0,0-.39,1,1.73,1.73,0,0,0,.49,1.31A1.93,1.93,0,0,0,289.43,18Z"/><path d="M312.2,15.72q0,1.26,0,2.52A21.43,21.43,0,0,0,312.5,21h-2.79l-.54-2h-.12a4.63,4.63,0,0,1-1.73,1.7,5.23,5.23,0,0,1-2.65.64,5.4,5.4,0,0,1-4.38-1.86q-1.56-1.86-1.56-5.82a9.19,9.19,0,0,1,1.74-6,6.2,6.2,0,0,1,5.1-2.13,8.14,8.14,0,0,1,1.53.11,6,6,0,0,1,1.2.34V0h3.9Zm-6.63,2.4a2.71,2.71,0,0,0,1.8-.55A3,3,0,0,0,308.3,16V9.6a2.77,2.77,0,0,0-.93-.49,4.36,4.36,0,0,0-1.32-.17,2.9,2.9,0,0,0-2.48,1.11,6.6,6.6,0,0,0-.82,3.81,6.16,6.16,0,0,0,.67,3.09A2.3,2.3,0,0,0,305.57,18.12Z"/><path d="M315.71,0h12.45V3.66h-8.34V8.55h7.59v3.66h-7.59v5.13h8.49V21h-12.6Z"/><rect class="cls-2" x="2.5" y="94.36" width="575.64" height="96.06" rx="8.68" ry="8.68"/><line class="cls-2" x1="76.88" y1="52.7" x2="76.88" y2="114.02"/><line class="cls-2" x1="94.88" y1="52.67" x2="94.88" y2="113.99"/><path d="M72.66,32.27h8.72v2.56H75.54v3.43h5.31v2.56H75.54v3.59h5.94V47H72.66Z"/><path d="M93.28,39.5l-4.1-7.23h3.47l2.27,4.24.5,1.49.48-1.49,2.38-4.24h3.12l-4.24,7.08L101.61,47H98.19l-2.58-4.53L95,40.88l-.54,1.56L91.89,47H88.76Z"/><line class="cls-2" x1="522.86" y1="62.89" x2="522.86" y2="124.21"/><line class="cls-2" x1="540.86" y1="62.86" x2="540.86" y2="124.18"/><path d="M524.9,53.21a1.38,1.38,0,0,0-.5-1.09,5.37,5.37,0,0,0-1.24-.76c-.5-.24-1-.47-1.61-.72a7.49,7.49,0,0,1-1.62-.9,4.54,4.54,0,0,1-1.24-1.34,3.79,3.79,0,0,1-.49-2,4.57,4.57,0,0,1,.35-1.86,3.47,3.47,0,0,1,1-1.31,4.37,4.37,0,0,1,1.57-.78,7.37,7.37,0,0,1,2-.25,12.44,12.44,0,0,1,2.42.22,6,6,0,0,1,1.87.64l-.91,2.41a5.16,5.16,0,0,0-1.38-.53,7.94,7.94,0,0,0-2-.24,2.52,2.52,0,0,0-1.54.4,1.25,1.25,0,0,0-.54,1.07,1.33,1.33,0,0,0,.5,1,5.38,5.38,0,0,0,1.24.77c.49.24,1,.49,1.61.74a9.13,9.13,0,0,1,1.62.91,4.63,4.63,0,0,1,1.24,1.33,3.59,3.59,0,0,1,.49,2,4.87,4.87,0,0,1-.39,2,3.88,3.88,0,0,1-1.09,1.41,4.59,4.59,0,0,1-1.7.84,8.41,8.41,0,0,1-2.19.28,11.55,11.55,0,0,1-2.78-.3,8,8,0,0,1-1.76-.59l.92-2.45.6.27a6.75,6.75,0,0,0,.83.27,7.06,7.06,0,0,0,1,.21,6.06,6.06,0,0,0,1.06.09,3.75,3.75,0,0,0,2-.43A1.45,1.45,0,0,0,524.9,53.21Z"/><path d="M536.53,42.61c.59-.11,1.24-.2,1.94-.26s1.41-.1,2.11-.1a13.69,13.69,0,0,1,2.2.18,5.57,5.57,0,0,1,2,.71,4.15,4.15,0,0,1,1.44,1.5,4.87,4.87,0,0,1,.56,2.48,5.21,5.21,0,0,1-.48,2.35A4.58,4.58,0,0,1,545,51a5,5,0,0,1-1.81.88,8.2,8.2,0,0,1-2.11.28h-.34l-.48,0a4.19,4.19,0,0,1-.5,0l-.34,0v5.06h-2.88Zm4.29,2.12c-.28,0-.55,0-.8,0l-.61.07V49.6a1.08,1.08,0,0,0,.25,0l.36,0h.63a6,6,0,0,0,1.12-.11,2.75,2.75,0,0,0,1-.39,2,2,0,0,0,.7-.79,2.77,2.77,0,0,0,.26-1.32,2.29,2.29,0,0,0-.25-1.14,2.11,2.11,0,0,0-.66-.73,2.57,2.57,0,0,0-.93-.38A6.36,6.36,0,0,0,540.82,44.73Z"/></g></g></svg>