<svg xmlns="http://www.w3.org/2000/svg" viewBox="0 0 1100 125.21"><defs><style>.cls-1{fill:none;stroke-width:5px;}.cls-1,.cls-2{stroke:#000;stroke-miterlimit:10;}.cls-2{stroke-width:3px;}.cls-3{fill:#c6e1d5;}.cls-4{fill:#ea9393;}</style></defs><title>Asset 15plux</title><g id="Layer_2" data-name="Layer 2"><g id="Layer_1-2" data-name="Layer 1"><line class="cls-1" y1="87.73" x2="1100" y2="87.73"/><line class="cls-1" x1="62.04" y1="18.73" x2="62.04" y2="88.73"/><line class="cls-1" x1="24.54" y1="16.4" x2="99.54" y2="16.4"/><path class="cls-2" d="M258.62,87.56H207.78c0-12.16,11.38-22,25.42-22S258.62,75.4,258.62,87.56Z"/><rect class="cls-3" x="293.75" y="28.63" width="160" height="55.93"/><line class="cls-1" x1="541.4" y1="17.73" x2="541.4" y2="87.73"/><line class="cls-1" x1="503.9" y1="15.4" x2="578.9" y2="15.4"/><path class="cls-2" d="M817.71,87.56H766.87c0-12.16,11.38-22,25.42-22S817.71,75.4,817.71,87.56Z"/><rect class="cls-4" x="885.29" y="28.8" width="160" height="55.93"/><path class="cls-1" d="M123.4,86.56v-70h75"/><polygon points="180.09 33.13 204.02 16.56 180.09 0 180.09 33.13"/><path d="M356.24,119.61h-12.4V100h3.84v16.18h8.56Z"/><path d="M361.65,105.61v8a5.58,5.58,0,0,0,.4,2.47,1.64,1.64,0,0,0,1.59.75,2.48,2.48,0,0,0,1.72-.61,3.78,3.78,0,0,0,1-1.52v-9H370v9.74c0,.77,0,1.52.11,2.26a14.82,14.82,0,0,0,.34,2h-2.75l-.64-2.07H367a5.29,5.29,0,0,1-1.79,1.76,5.1,5.1,0,0,1-2.72.7,5.89,5.89,0,0,1-1.9-.28,3,3,0,0,1-1.4-.92,4.3,4.3,0,0,1-.86-1.74,11,11,0,0,1-.29-2.74v-8.71Z"/><path d="M376.38,112.44l-4.2-6.83h4.34l1.82,3,.78,2,.84-2,1.9-3h3.95l-4.23,6.72,4.51,7.28h-4.23l-2.15-3.36-.84-2.07-.9,2.07-2.15,3.36h-4Z"/><path d="M388,100.21c.42-.08.89-.15,1.38-.21s1-.12,1.49-.16,1-.06,1.44-.08l1.29,0a14.35,14.35,0,0,1,2.7.25,7.5,7.5,0,0,1,2.38.87,4.69,4.69,0,0,1,1.68,1.69,5.3,5.3,0,0,1,.63,2.71,6.48,6.48,0,0,1-1.12,3.92,5.89,5.89,0,0,1-3,2.1l1.37.86,4.48,7.48H398.3l-4.45-7.67-2-.37v8H388Zm5.88,2.94c-.4,0-.78,0-1.17,0a4.13,4.13,0,0,0-.88.12V109h1.63a4,4,0,0,0,2.54-.73,2.83,2.83,0,0,0,1-2.41,2.55,2.55,0,0,0-.79-2A3.27,3.27,0,0,0,393.88,103.15Z"/><path d="M617.83,105.61h2.66l.41,1.68H621a4.65,4.65,0,0,1,1.72-1.57,5.38,5.38,0,0,1,2.42-.5,4.72,4.72,0,0,1,4,1.66q1.32,1.66,1.32,5.37a11.54,11.54,0,0,1-.42,3.23,6.83,6.83,0,0,1-1.25,2.45,5.37,5.37,0,0,1-2,1.54A6.68,6.68,0,0,1,624,120a6.89,6.89,0,0,1-1.42-.12,4.89,4.89,0,0,1-1.12-.41v5.74h-3.64Zm6.24,2.69a2.46,2.46,0,0,0-1.67.53,3.43,3.43,0,0,0-.93,1.6v5.82a3.14,3.14,0,0,0,.85.49,3.41,3.41,0,0,0,1.22.18,2.71,2.71,0,0,0,2.35-1.1,6.54,6.54,0,0,0,.78-3.66,5.49,5.49,0,0,0-.61-2.85A2.15,2.15,0,0,0,624.07,108.3Z"/><path d="M645.43,119.61H633V100h3.83v16.18h8.57Z"/><path d="M650.84,105.61v8a5.58,5.58,0,0,0,.4,2.47,1.63,1.63,0,0,0,1.58.75,2.49,2.49,0,0,0,1.73-.61,4,4,0,0,0,1-1.52v-9h3.64v9.74c0,.77,0,1.52.11,2.26a14.82,14.82,0,0,0,.34,2h-2.75l-.64-2.07h-.11a5.24,5.24,0,0,1-1.8,1.76,5.06,5.06,0,0,1-2.71.7,6,6,0,0,1-1.91-.28,3.1,3.1,0,0,1-1.4-.92,4.42,4.42,0,0,1-.85-1.74,10.59,10.59,0,0,1-.29-2.74v-8.71Z"/><path d="M665.56,112.44l-4.2-6.83h4.34l1.83,3,.78,2,.84-2,1.9-3h4l-4.23,6.72,4.51,7.28h-4.23l-2.15-3.36-.84-2.07-.9,2.07L665,119.61h-4Z"/><path d="M677.18,100.21c.43-.08.9-.15,1.39-.21s1-.12,1.48-.16,1-.06,1.45-.08l1.28,0a14.38,14.38,0,0,1,2.71.25,7.5,7.5,0,0,1,2.38.87,4.69,4.69,0,0,1,1.68,1.69,5.3,5.3,0,0,1,.63,2.71,6.48,6.48,0,0,1-1.12,3.92,5.89,5.89,0,0,1-3,2.1l1.37.86,4.48,7.48h-4.42L683,111.94l-2-.37v8h-3.84Zm5.88,2.94c-.39,0-.78,0-1.16,0a4.13,4.13,0,0,0-.88.12V109h1.62a4,4,0,0,0,2.55-.73,2.82,2.82,0,0,0,.95-2.41,2.54,2.54,0,0,0-.78-2A3.28,3.28,0,0,0,683.06,103.15Z"/><path class="cls-1" d="M638.13,89.55v-70h75"/><polygon points="694.82 36.12 718.75 19.55 694.82 2.99 694.82 36.12"/><path d="M944,100.21q.64-.12,1.38-.21c.5-.07,1-.12,1.49-.16s1-.06,1.44-.08l1.29,0a14.35,14.35,0,0,1,2.7.25,7.41,7.41,0,0,1,2.38.87,4.69,4.69,0,0,1,1.68,1.69,5.3,5.3,0,0,1,.63,2.71,6.41,6.41,0,0,1-1.12,3.92,5.89,5.89,0,0,1-3,2.1l1.38.86,4.48,7.48h-4.43l-4.45-7.67-2-.37v8H944Zm5.88,2.94c-.39,0-.78,0-1.17,0a4.13,4.13,0,0,0-.88.12V109h1.63a4,4,0,0,0,2.54-.73,2.83,2.83,0,0,0,1-2.41,2.51,2.51,0,0,0-.79-2A3.27,3.27,0,0,0,949.87,103.15Z"/><path d="M960.84,100h11.62v3.42h-7.78v4.84h7.17v3.42h-7.17v7.92h-3.84Z"/><path d="M975.07,100.21a24.68,24.68,0,0,1,2.59-.35c.94-.09,1.88-.13,2.81-.13a18.19,18.19,0,0,1,2.93.24,7.18,7.18,0,0,1,2.64,1,5.48,5.48,0,0,1,1.92,2,6.58,6.58,0,0,1,.74,3.32,6.86,6.86,0,0,1-.64,3.12,5.93,5.93,0,0,1-1.71,2.08,6.74,6.74,0,0,1-2.42,1.18,11,11,0,0,1-2.82.36H980l-.66,0-.46-.06v6.75h-3.83Zm5.71,2.82c-.38,0-.73,0-1.07,0s-.6.06-.81.09v6.36l.34.06.47,0h.84a7.48,7.48,0,0,0,1.5-.14,3.46,3.46,0,0,0,1.33-.52,2.59,2.59,0,0,0,.94-1,3.82,3.82,0,0,0,.35-1.76,3,3,0,0,0-.34-1.53,2.63,2.63,0,0,0-.88-1,3.61,3.61,0,0,0-1.24-.51A7.62,7.62,0,0,0,980.78,103Z"/></g></g></svg>