<svg xmlns="http://www.w3.org/2000/svg" viewBox="0 0 400 400"><defs><style>.cls-1{fill:#93c1e8;}.cls-2{fill:#0079bf;}</style></defs><title>gloves_safety</title><g id="Layer_2" data-name="Layer 2"><g id="Layer_1-2" data-name="Layer 1"><path class="cls-1" d="M336.29,195.8a13.39,13.39,0,0,0-15.63,10.36l-7,34.33-.48.56c-.78.91-1.71,1.51-2.92.9a2.45,2.45,0,0,1-1.31-3c.06-.28.11-.55.16-.82,3.83-18.94,22.14-109.31,27.49-135.56a13.23,13.23,0,0,0-1.32-9.39A12.93,12.93,0,0,0,323.2,86c-6.57.06-11.52,4.49-12.88,11.15-2.81,13.73-13.48,66.23-16,78.74-.38,1.86-1.41,2.7-2.92,2.41s-2.15-1.49-1.79-3.35c.25-1.27,17.19-84.89,20.87-103a13.41,13.41,0,0,0-26.29-5.32c-2.1,10.32-19.84,97.82-20.42,100.73a2.59,2.59,0,0,1-2.06,2.34c-1.83.35-3.14-1.18-2.72-3.3,1.39-7,14.13-69.59,16.55-81.89,1.19-6.08-2-11.31-6.88-14a13.34,13.34,0,0,0-19.49,9.17c-.61,3-1.56,7.66-2.72,13.38a20.74,20.74,0,0,1,13.09,15.15,21.22,21.22,0,0,1-1.86,14.89c-6.87,13.55-24,47.47-38.89,76.84l.81,0a21.3,21.3,0,0,1,18.87,30.83l-.75,1.48-.15.3-4.37,8.64-4.37,8.64c-1.25,2.46-2.53,4.93-3.77,7.32-2.43,4.68-4.94,9.52-7.16,14.28a67.88,67.88,0,0,1-3.48,6.55c-6.08,10-14.38,16.73-26.14,21.19-1,.39-2.07.76-3.11,1.12a79,79,0,0,0,3.41,9.56,5.33,5.33,0,0,1,.34,3.2l-2.09,10.32a5.33,5.33,0,0,0,4.16,6.28s25.31,1.44,33.65,3.13c9.23,1.87,36.64,11.12,36.64,11.12a5.32,5.32,0,0,0,6.27-4.16L271,322.55a7.15,7.15,0,0,1,.23-.79c.13-.36.24-.73.34-1.11a13.47,13.47,0,0,1,4-6.56c12.67-11.95,29.91-18,44-28.27,8.9-6.5,13.91-13.63,16.61-23.09a58.6,58.6,0,0,0,1.43-6.38c1.35-8,3.24-16,4.85-24,3.25-16,.61-3,3.85-19,.13-.65.27-1.3.4-2A13.39,13.39,0,0,0,336.29,195.8Z"/><path class="cls-1" d="M116.23,332.75a5.33,5.33,0,0,0,4.76-2.92l7.9-15.62a5.06,5.06,0,0,1,.43-.7,10.84,10.84,0,0,0,.62-1,13.45,13.45,0,0,1,5.56-5.28c14.7-7.79,32-9.28,47.71-14.79.73-.26,1.47-.52,2.2-.8,10.3-3.91,17-9.45,22.14-17.86a58,58,0,0,0,3.06-5.78c3.44-7.38,7.37-14.56,11-21.83l8.74-17.28.9-1.78a13.39,13.39,0,0,0-5.85-17.82,13,13,0,0,0-5.88-1.4,13.39,13.39,0,0,0-11.94,7.25L191.82,246.4l-.61.42a3.2,3.2,0,0,1-1.73.65,2,2,0,0,1-1.33-.55,2.47,2.47,0,0,1-.46-3.29c.14-.24.26-.5.38-.74,5.31-10.51,22.83-45.17,38.46-76.06,2.83-5.59,5.6-11.07,8.23-16.25l15.75-31.11a13.27,13.27,0,0,0,1.22-9.41,12.79,12.79,0,0,0-6.94-9,15.37,15.37,0,0,0-2.86-1.06,13.51,13.51,0,0,0-3.51-.47,12.59,12.59,0,0,0-2.62.28,13.67,13.67,0,0,0-9.24,7.52c-4.2,8.26-16.19,31.93-25.51,50.32L190.23,179c-.62,1.22-1.43,1.84-2.34,1.84a2.5,2.5,0,0,1-1.12-.28c-1.37-.67-1.67-2-.84-3.71L204.6,139.9l23-45.4L233.38,83a13.35,13.35,0,0,0-5.94-17.84,13.72,13.72,0,0,0-6.17-1.48,13.2,13.2,0,0,0-11.83,7.21c-4.77,9.4-45.07,89.07-46.4,91.72a2.62,2.62,0,0,1-2.38,1.72h-.23c-1.86-.15-2.71-2-1.75-3.9,3.22-6.44,32.08-63.36,37.67-74.58,2.77-5.55,1.07-11.43-2.92-15.31a13.1,13.1,0,0,0-9.2-3.76,13.44,13.44,0,0,0-12,7.44c-7.08,13.94-34.85,68.88-41.69,82.38a2.78,2.78,0,0,1-2.37,1.79,2.41,2.41,0,0,1-1.12-.3c-1.33-.68-1.67-2-.86-3.59,3-5.93,21.29-41.91,27.29-54.06A13.47,13.47,0,0,0,141.3,81.28a13.44,13.44,0,0,0-11.91,7.28c-2,4-63.91,127-64.79,129-15,29.57-13,54.71-11.84,62.47a5.37,5.37,0,0,1-.51,3.18l-4.76,9.4a5.31,5.31,0,0,0,2.35,7.15s26.21,7.39,34,11.31c8.24,4.17,30,21.07,30,21.07A5.35,5.35,0,0,0,116.23,332.75Z"/><path class="cls-2" d="M200,0C89.54,0,0,89.54,0,200S89.54,400,200,400s200-89.54,200-200S310.46,0,200,0Zm-7.18,371.38c-86.63-3.5-157.42-74.23-162.7-158.86-5.94-95.35,72.9-182.18,171.74-181,95.2,1.14,172.74,83.51,167.72,179C364.71,303,284.11,375.07,192.82,371.38Z"/></g></g></svg>