<svg xmlns="http://www.w3.org/2000/svg" viewBox="0 0 1100 357.7"><defs><style>.cls-1{fill:none;stroke-width:5px;}.cls-1,.cls-2{stroke:#000;stroke-miterlimit:10;}.cls-2{stroke-width:3px;}.cls-3{fill:#0079bf;}.cls-4{fill:#ea9393;}.cls-5{fill:#c6ca6c;}</style></defs><title>Asset 16highpassfilter</title><g id="Layer_2" data-name="Layer 2"><g id="Layer_1-2" data-name="Layer 1"><line class="cls-1" y1="85.56" x2="1100" y2="85.56"/><line class="cls-1" x1="62.04" y1="16.56" x2="62.04" y2="86.56"/><line class="cls-1" x1="24.54" y1="14.23" x2="99.54" y2="14.23"/><path class="cls-2" d="M258.62,85.4H207.78c0-12.17,11.38-22,25.42-22S258.62,73.23,258.62,85.4Z"/><rect class="cls-3" x="293.75" y="26.47" width="160" height="55.93"/><line class="cls-1" x1="541.4" y1="17.73" x2="541.4" y2="87.73"/><line class="cls-1" x1="503.9" y1="15.4" x2="578.9" y2="15.4"/><path class="cls-2" d="M817.71,85.4H766.87c0-12.17,11.38-22,25.42-22S817.71,73.23,817.71,85.4Z"/><rect class="cls-4" x="885.29" y="26.63" width="160" height="55.93"/><path class="cls-1" d="M120.59,86.56v-70h75"/><polygon points="177.28 33.13 201.21 16.56 177.28 0 177.28 33.13"/><path d="M944,96.09l1.38-.21c.5-.06,1-.11,1.49-.15l1.44-.09,1.29,0a14.35,14.35,0,0,1,2.7.25,7.41,7.41,0,0,1,2.38.87,4.62,4.62,0,0,1,1.68,1.69,5.29,5.29,0,0,1,.63,2.7,6.39,6.39,0,0,1-1.12,3.92,5.77,5.77,0,0,1-3,2.1l1.38.87,4.48,7.48h-4.43l-4.45-7.67-2-.37v8H944ZM949.87,99q-.58,0-1.17,0a5.06,5.06,0,0,0-.88.11v5.69h1.63a4,4,0,0,0,2.54-.73,2.84,2.84,0,0,0,1-2.41,2.5,2.5,0,0,0-.79-2A3.28,3.28,0,0,0,949.87,99Z"/><path d="M960.84,95.9h11.62v3.41h-7.78v4.85h7.17v3.41h-7.17v7.93h-3.84Z"/><path d="M975.07,96.09c.78-.15,1.64-.26,2.59-.35s1.88-.12,2.81-.12a18.19,18.19,0,0,1,2.93.24,7,7,0,0,1,2.64,1,5.45,5.45,0,0,1,1.92,2,6.61,6.61,0,0,1,.74,3.32,6.8,6.8,0,0,1-.64,3.12,6,6,0,0,1-1.71,2.09,7.09,7.09,0,0,1-2.42,1.18,11,11,0,0,1-2.82.36H980l-.66,0a3.17,3.17,0,0,1-.46,0v6.75h-3.83Zm5.71,2.83c-.38,0-.73,0-1.07,0s-.6.06-.81.1v6.36a1.92,1.92,0,0,0,.34,0l.47,0h.84a8.29,8.29,0,0,0,1.5-.14,3.63,3.63,0,0,0,1.33-.52,2.59,2.59,0,0,0,.94-1.05,3.85,3.85,0,0,0,.35-1.76,3,3,0,0,0-.34-1.53,2.74,2.74,0,0,0-.88-1,3.41,3.41,0,0,0-1.24-.5A7.62,7.62,0,0,0,980.78,98.92Z"/><path d="M375.34,114.63a6.24,6.24,0,0,1-2,.94,9.58,9.58,0,0,1-2.45.32,6.94,6.94,0,0,1-2.85-.53,5,5,0,0,1-1.89-1.5,6.36,6.36,0,0,1-1.05-2.34,13.45,13.45,0,0,1-.32-3,8.33,8.33,0,0,1,1.6-5.48,5.69,5.69,0,0,1,4.65-1.91,9.72,9.72,0,0,1,2.47.25,8.71,8.71,0,0,1,1.7.64l-.87,3a7.63,7.63,0,0,0-1.27-.48,5.74,5.74,0,0,0-1.45-.16,2.75,2.75,0,0,0-2.29,1,5.09,5.09,0,0,0-.79,3.18,6.66,6.66,0,0,0,.2,1.65,4,4,0,0,0,.59,1.31,2.75,2.75,0,0,0,1,.89,3.25,3.25,0,0,0,1.47.32,4.51,4.51,0,0,0,1.57-.24,5.87,5.87,0,0,0,1.15-.57Z"/><path d="M378,95.9h3.84v19.6H378Z"/><path d="M639.39,101.5h2.66l.42,1.68h.11a4.73,4.73,0,0,1,1.72-1.57,5.32,5.32,0,0,1,2.43-.5,4.7,4.7,0,0,1,3.94,1.66q1.32,1.67,1.32,5.36a11.57,11.57,0,0,1-.42,3.24,6.76,6.76,0,0,1-1.25,2.45,5.53,5.53,0,0,1-2,1.54,6.68,6.68,0,0,1-2.73.53,6.28,6.28,0,0,1-1.43-.13,5,5,0,0,1-1.12-.4v5.74h-3.64Zm6.24,2.69a2.4,2.4,0,0,0-1.66.53,3.4,3.4,0,0,0-.94,1.59v5.83a3.61,3.61,0,0,0,.85.49,3.45,3.45,0,0,0,1.22.18,2.68,2.68,0,0,0,2.35-1.11,6.39,6.39,0,0,0,.79-3.65,5.55,5.55,0,0,0-.62-2.86A2.15,2.15,0,0,0,645.63,104.19Z"/><path d="M654.59,96.09l1.39-.21,1.48-.15,1.45-.09,1.28,0a14.38,14.38,0,0,1,2.71.25,7.5,7.5,0,0,1,2.38.87A4.62,4.62,0,0,1,667,98.43a5.29,5.29,0,0,1,.63,2.7,6.46,6.46,0,0,1-1.12,3.92,5.77,5.77,0,0,1-3,2.1l1.37.87,4.48,7.48H664.9l-4.45-7.67-2-.37v8h-3.84ZM660.47,99c-.39,0-.78,0-1.16,0a5.06,5.06,0,0,0-.88.11v5.69h1.62a4,4,0,0,0,2.55-.73,2.84,2.84,0,0,0,.95-2.41,2.52,2.52,0,0,0-.78-2A3.29,3.29,0,0,0,660.47,99Z"/><path d="M686.65,105.33l.42-3.89h-.16l-1.21,3.14-4.17,7.3H680.3l-4.4-7.33-1.23-3.11h-.14l.56,3.86v10.2h-3.64V95.9H675l5.24,9,.92,2.24h.11l.84-2.3,5-8.9h3.47v19.6h-3.84Z"/><path class="cls-1" d="M635.32,86.56v-70h75"/><polygon points="692.01 33.13 715.94 16.56 692.01 0 692.01 33.13"/><line class="cls-1" x1="149.76" y1="307.91" x2="726.03" y2="307.91"/><line class="cls-1" x1="213.56" y1="239.08" x2="213.56" y2="309.08"/><line class="cls-1" x1="176.06" y1="236.74" x2="251.06" y2="236.74"/><rect class="cls-5" x="540.18" y="248.91" width="160" height="55.93"/><path class="cls-2" d="M478,307.91H427.11c0-12.17,11.38-22,25.42-22S478,295.74,478,307.91Z"/><path class="cls-1" d="M304.73,306.47v-70h75"/><polygon points="361.42 253.03 385.35 236.47 361.42 219.91 361.42 253.03"/><path d="M307.84,338.1h2.66l.42,1.68H311a4.64,4.64,0,0,1,1.72-1.57,5.29,5.29,0,0,1,2.43-.51,4.71,4.71,0,0,1,3.94,1.67q1.32,1.67,1.32,5.36A11.62,11.62,0,0,1,320,348a6.92,6.92,0,0,1-1.25,2.45,5.53,5.53,0,0,1-2,1.54,6.75,6.75,0,0,1-2.73.53,6.28,6.28,0,0,1-1.43-.13,5,5,0,0,1-1.12-.4v5.74h-3.64Zm6.24,2.68a2.39,2.39,0,0,0-1.66.54,3.4,3.4,0,0,0-.94,1.59v5.83a3.61,3.61,0,0,0,.85.49,3.45,3.45,0,0,0,1.22.18,2.68,2.68,0,0,0,2.35-1.11,6.39,6.39,0,0,0,.79-3.65,5.52,5.52,0,0,0-.62-2.86A2.16,2.16,0,0,0,314.08,340.78Z"/><path d="M332.87,351.23a6.24,6.24,0,0,1-2,.94,9.52,9.52,0,0,1-2.45.32,6.86,6.86,0,0,1-2.84-.53,4.86,4.86,0,0,1-1.89-1.5,6.05,6.05,0,0,1-1.05-2.34,12.9,12.9,0,0,1-.32-3,8.38,8.38,0,0,1,1.59-5.48,5.72,5.72,0,0,1,4.65-1.92A9.75,9.75,0,0,1,331,338a8,8,0,0,1,1.69.64l-.86,3a6.92,6.92,0,0,0-1.28-.48,5.69,5.69,0,0,0-1.44-.17,2.77,2.77,0,0,0-2.3,1,5.16,5.16,0,0,0-.78,3.18,6.22,6.22,0,0,0,.2,1.65,4,4,0,0,0,.58,1.31,2.78,2.78,0,0,0,1,.89,3.25,3.25,0,0,0,1.47.32,4.49,4.49,0,0,0,1.56-.24,5.6,5.6,0,0,0,1.15-.57Z"/><path d="M335.56,332.5h3.84v19.6h-3.84Z"/><path d="M591.83,346.64h-3.08v5.46h-3.39v-5.46h-8.48v-2.08l8.87-12.2h3v11.36h3.08Zm-6.47-7.2.25-2.35h-.11l-1,2-2.91,3.78-1.4,1.07,1.79-.23h3.33Z"/><path d="M599,349.41a3.52,3.52,0,0,0,2.64-.93,3,3,0,0,0,.91-2.24,2.84,2.84,0,0,0-.95-2.35,4.83,4.83,0,0,0-3-.75h-2V341.2l3.39-4.62,1.59-1.26-2.21.26h-4.7V332.5h10.69v2l-4,5.3-1.23.75v.14l1.18-.17a6.49,6.49,0,0,1,1.86.45,4.54,4.54,0,0,1,1.54,1.05,5,5,0,0,1,1,1.7,6.37,6.37,0,0,1,.39,2.32,7,7,0,0,1-.54,2.86,5.73,5.73,0,0,1-1.51,2,6.56,6.56,0,0,1-2.26,1.21,9.51,9.51,0,0,1-2.77.39,15.19,15.19,0,0,1-2.55-.23,7.09,7.09,0,0,1-2.13-.64l1-3a7.65,7.65,0,0,0,1.61.58A8,8,0,0,0,599,349.41Z"/><path d="M623.58,346.64H620.5v5.46h-3.39v-5.46h-8.48v-2.08l8.87-12.2h3v11.36h3.08Zm-6.47-7.2.25-2.35h-.11l-1,2-2.91,3.78L612,344l1.79-.23h3.33Z"/><path d="M640.38,341.51a4.89,4.89,0,0,0-1.57-.31,2.61,2.61,0,0,0-1.64.52,2.51,2.51,0,0,0-.88,1.33v9.05h-3.64v-14h2.83l.42,1.84H636a3.82,3.82,0,0,1,1.29-1.59,3.27,3.27,0,0,1,1.9-.56,5.11,5.11,0,0,1,1.65.31Z"/><path d="M642.48,338.1h2.66l.42,1.68h.11a4.57,4.57,0,0,1,1.72-1.57,5.25,5.25,0,0,1,2.42-.51,4.73,4.73,0,0,1,4,1.67q1.32,1.67,1.32,5.36a11.62,11.62,0,0,1-.42,3.24,6.92,6.92,0,0,1-1.25,2.45,5.53,5.53,0,0,1-2,1.54,6.75,6.75,0,0,1-2.73.53,6.28,6.28,0,0,1-1.43-.13,4.85,4.85,0,0,1-1.12-.4v5.74h-3.64Zm6.24,2.68a2.39,2.39,0,0,0-1.66.54,3.32,3.32,0,0,0-.94,1.59v5.83a3,3,0,0,0,2.07.67,2.69,2.69,0,0,0,2.35-1.11,6.48,6.48,0,0,0,.78-3.65,5.53,5.53,0,0,0-.61-2.86A2.16,2.16,0,0,0,648.72,340.78Z"/><path d="M665.32,341.51a4.84,4.84,0,0,0-1.56-.31,2.59,2.59,0,0,0-1.64.52,2.51,2.51,0,0,0-.88,1.33v9.05H657.6v-14h2.82l.43,1.84H661a3.72,3.72,0,0,1,1.28-1.59,3.33,3.33,0,0,1,1.91-.56,5.16,5.16,0,0,1,1.65.31Z"/><line class="cls-1" x1="361.42" y1="139.29" x2="361.42" y2="199.29"/><line class="cls-1" x1="654.29" y1="144.29" x2="654.29" y2="204.29"/><line class="cls-1" x1="348.45" y1="199.29" x2="373.88" y2="199.29"/><line class="cls-1" x1="641.58" y1="144.29" x2="667.01" y2="144.29"/></g></g></svg>