<svg xmlns="http://www.w3.org/2000/svg" viewBox="0 0 1719.76 448.11"><defs><style>.cls-1{fill:none;stroke-width:5px;}.cls-1,.cls-2{stroke:#000;stroke-miterlimit:10;}.cls-2{stroke-width:3px;}.cls-3{fill:#c6e1d5;}.cls-4{fill:#ea9393;}.cls-5{fill:#c2ca6c;}.cls-6{fill:#b2c3ce;}.cls-7{fill:#0079bf;}</style></defs><title>Asset 6fads_3plasmics</title><g id="Layer_2" data-name="Layer 2"><g id="Layer_1-2" data-name="Layer 1"><line class="cls-1" x1="50.94" y1="26.25" x2="50.94" y2="96.25"/><line class="cls-1" x1="13.44" y1="23.92" x2="88.44" y2="23.92"/><path class="cls-1" d="M130.43,96.25v-70h75"/><polygon points="187.12 42.82 211.05 26.25 187.12 9.69 187.12 42.82"/><path class="cls-2" d="M273.42,96.25H222.57c0-12.17,11.38-22,25.42-22S273.42,84.08,273.42,96.25Z"/><rect class="cls-3" x="316.32" y="36.29" width="160" height="55.93"/><path class="cls-1" d="M570.9,96.25v-70h75"/><polygon points="627.59 42.82 651.52 26.25 627.59 9.69 627.59 42.82"/><path class="cls-2" d="M713.89,96.25H663c0-12.17,11.38-22,25.42-22S713.89,84.08,713.89,96.25Z"/><rect class="cls-4" x="789.58" y="36.29" width="160" height="55.93"/><path d="M464.3,130.77h2.47l.39,1.56h.1a4.23,4.23,0,0,1,1.6-1.45,4.8,4.8,0,0,1,2.25-.47,4.35,4.35,0,0,1,3.66,1.55q1.23,1.54,1.23,5a10.81,10.81,0,0,1-.39,3,6.33,6.33,0,0,1-1.16,2.27,5,5,0,0,1-1.87,1.43,6.16,6.16,0,0,1-2.54.5,5.94,5.94,0,0,1-1.32-.12,4.21,4.21,0,0,1-1-.38V149H464.3Zm5.79,2.5a2.24,2.24,0,0,0-1.54.49,3.14,3.14,0,0,0-.87,1.48v5.41a3,3,0,0,0,.79.46,3.2,3.2,0,0,0,1.13.17,2.5,2.5,0,0,0,2.18-1,6,6,0,0,0,.73-3.39,5.15,5.15,0,0,0-.57-2.66A2,2,0,0,0,470.09,133.27Z"/><path d="M486.27,138.88a1.72,1.72,0,0,0-.61-1.35,7.14,7.14,0,0,0-1.54-.95c-.61-.28-1.28-.58-2-.88a10,10,0,0,1-2-1.12,5.65,5.65,0,0,1-1.54-1.65,4.8,4.8,0,0,1-.61-2.52,5.58,5.58,0,0,1,.44-2.3,4.42,4.42,0,0,1,1.27-1.63,5.46,5.46,0,0,1,1.93-1,9.25,9.25,0,0,1,2.5-.31,15.83,15.83,0,0,1,3,.27,7.7,7.7,0,0,1,2.31.79l-1.12,3a6.34,6.34,0,0,0-1.71-.66,9.72,9.72,0,0,0-2.47-.3,3.15,3.15,0,0,0-1.91.5,1.58,1.58,0,0,0-.67,1.32,1.63,1.63,0,0,0,.62,1.3,6.49,6.49,0,0,0,1.53,1c.61.3,1.28.6,2,.91a10.58,10.58,0,0,1,2,1.14,5.7,5.7,0,0,1,1.54,1.63,4.56,4.56,0,0,1,.61,2.43,6,6,0,0,1-.48,2.51,4.72,4.72,0,0,1-1.35,1.76,5.87,5.87,0,0,1-2.11,1,10.49,10.49,0,0,1-2.72.34,14.59,14.59,0,0,1-3.43-.37,9.68,9.68,0,0,1-2.18-.73l1.14-3a6,6,0,0,0,.74.34c.3.12.65.23,1,.34s.78.19,1.21.26a8,8,0,0,0,1.31.1,4.52,4.52,0,0,0,2.43-.53A1.81,1.81,0,0,0,486.27,138.88Z"/><path d="M504.44,129.81a5.67,5.67,0,0,1-.17,1.35,3.67,3.67,0,0,1-.56,1.24,4,4,0,0,1-1,1,4.61,4.61,0,0,1-1.51.63v.16a6,6,0,0,1,1.48.44,3.65,3.65,0,0,1,1.22.86,3.84,3.84,0,0,1,.82,1.32,5.16,5.16,0,0,1,.3,1.85,4.71,4.71,0,0,1-.6,2.43,4.83,4.83,0,0,1-1.59,1.68,7.53,7.53,0,0,1-2.28,1,10.88,10.88,0,0,1-2.63.31h-1.13c-.46,0-.95,0-1.48,0s-1.06-.06-1.61-.11a12.09,12.09,0,0,1-1.5-.24V125.7l1.14-.15c.42-.06.88-.1,1.36-.13s1-.06,1.5-.08,1,0,1.52,0a15.56,15.56,0,0,1,2.48.2,7.11,7.11,0,0,1,2.16.69,4,4,0,0,1,1.52,1.37A4.07,4.07,0,0,1,504.44,129.81Zm-7.67,3.41.85,0a6.72,6.72,0,0,0,.79-.08,4.66,4.66,0,0,0,1.7-.92,2,2,0,0,0,.72-1.62,2.17,2.17,0,0,0-.26-1.11,2.07,2.07,0,0,0-.69-.69,2.62,2.62,0,0,0-1-.36,6,6,0,0,0-1.14-.11c-.45,0-.87,0-1.25,0a7,7,0,0,0-.88.08v4.81Zm1.17,7.82a5.3,5.3,0,0,0,1.26-.15,3.12,3.12,0,0,0,1.08-.48,2.56,2.56,0,0,0,.76-.81,2.24,2.24,0,0,0,.28-1.16,2.09,2.09,0,0,0-1.22-2.09,3.68,3.68,0,0,0-1.22-.35,12.26,12.26,0,0,0-1.36-.08h-1.89v5a1.46,1.46,0,0,0,.41.07,5.86,5.86,0,0,0,.61,0l.68,0Z"/><path d="M512.27,141.28a3.29,3.29,0,0,0,2.45-.86,2.84,2.84,0,0,0,.85-2.08,2.63,2.63,0,0,0-.89-2.19,4.5,4.5,0,0,0-2.78-.7H510v-1.79l3.15-4.29,1.48-1.17-2.06.23h-4.36v-2.86h9.93v1.85l-3.67,4.91-1.14.7v.13l1.09-.15a5.91,5.91,0,0,1,1.73.41,4.25,4.25,0,0,1,1.43,1,4.59,4.59,0,0,1,1,1.57,5.82,5.82,0,0,1,.37,2.16,6.33,6.33,0,0,1-.51,2.65,5.26,5.26,0,0,1-1.4,1.87,5.74,5.74,0,0,1-2.1,1.12,8.82,8.82,0,0,1-2.57.37,14.08,14.08,0,0,1-2.37-.21,6.87,6.87,0,0,1-2-.6l.91-2.81a7.29,7.29,0,0,0,1.49.55A7.44,7.44,0,0,0,512.27,141.28Z"/><path d="M526.8,136h-.94v7.77H522.3v-18.2h3.56v8.06l.84-.36,5-7.7h4.06l-5.31,7.65-1.4,1,1.46,1,6.06,8.55h-4.4Z"/><path d="M542.58,141.15a3.74,3.74,0,0,0,2.63-.84,2.94,2.94,0,0,0,.91-2.28,2.58,2.58,0,0,0-1.07-2.29,5.31,5.31,0,0,0-3-.73l-2,.08v-9.52h8.94v3.17h-6v3.51l1.06-.1a6.87,6.87,0,0,1,2.3.47,5.1,5.1,0,0,1,1.76,1.16,4.91,4.91,0,0,1,1.12,1.79,7.3,7.3,0,0,1-.13,5.06,5.36,5.36,0,0,1-1.45,2,6.05,6.05,0,0,1-2.17,1.17,9.1,9.1,0,0,1-2.73.39,12.14,12.14,0,0,1-2.22-.2,7.7,7.7,0,0,1-1.78-.53l.91-2.81a6.46,6.46,0,0,0,1.31.4A8.63,8.63,0,0,0,542.58,141.15Z"/><path d="M371,5.65h11.62V9.07h-7.78v4.84H382v3.42h-7.16v7.92H371Z"/><path d="M385,12.06a12.35,12.35,0,0,1,2.66-.8,17.61,17.61,0,0,1,3.22-.29,7.35,7.35,0,0,1,2.43.35,3.53,3.53,0,0,1,2.37,2.53,7.83,7.83,0,0,1,.24,2c0,.82,0,1.65-.09,2.48s-.09,1.65-.1,2.45,0,1.58.07,2.34a9.22,9.22,0,0,0,.42,2.14h-3l-.59-1.93h-.14A5,5,0,0,1,391,24.84a4.69,4.69,0,0,1-2.56.63,4.89,4.89,0,0,1-1.76-.29,3.76,3.76,0,0,1-1.35-.84,3.7,3.7,0,0,1-.86-1.29,4.2,4.2,0,0,1-.31-1.66,3.89,3.89,0,0,1,.57-2.17,4.14,4.14,0,0,1,1.65-1.43A8.08,8.08,0,0,1,389,17a18,18,0,0,1,3.35-.12,3.65,3.65,0,0,0-.23-2.26c-.28-.45-.9-.68-1.87-.68a12.68,12.68,0,0,0-2.31.22,8.67,8.67,0,0,0-2,.59Zm4.62,10.42a2.78,2.78,0,0,0,1.73-.49,3.41,3.41,0,0,0,.95-1V19.12a9.27,9.27,0,0,0-1.66,0,6.33,6.33,0,0,0-1.42.25,2.45,2.45,0,0,0-1,.56,1.27,1.27,0,0,0-.36.93,1.55,1.55,0,0,0,.46,1.21A1.79,1.79,0,0,0,389.65,22.48Z"/><path d="M410.9,20.32c0,.79,0,1.57,0,2.35a18.44,18.44,0,0,0,.25,2.61h-2.61l-.5-1.82H408A4.29,4.29,0,0,1,406.35,25a4.92,4.92,0,0,1-2.48.6,5.07,5.07,0,0,1-4.09-1.73q-1.45-1.74-1.45-5.44A8.61,8.61,0,0,1,400,12.9a5.8,5.8,0,0,1,4.76-2,9.36,9.36,0,0,1,1.43.09,7,7,0,0,1,1.12.32V5.65h3.64Zm-6.19,2.24a2.5,2.5,0,0,0,1.68-.52,2.79,2.79,0,0,0,.87-1.49V14.61a2.79,2.79,0,0,0-.87-.46,4.21,4.21,0,0,0-1.23-.15,2.68,2.68,0,0,0-2.31,1,6.11,6.11,0,0,0-.77,3.56,5.75,5.75,0,0,0,.63,2.88A2.13,2.13,0,0,0,404.71,22.56Z"/><path d="M426.58,25.25H414.17V5.65H418V21.83h8.57Z"/><path d="M840.78,5.65H852.4V9.07h-7.78v4.84h7.16v3.42h-7.16v7.92h-3.84Z"/><path d="M854.84,12.06a12.43,12.43,0,0,1,2.65-.8,17.8,17.8,0,0,1,3.23-.29,7.39,7.39,0,0,1,2.43.35,3.66,3.66,0,0,1,1.55,1,3.6,3.6,0,0,1,.82,1.53,7.83,7.83,0,0,1,.24,2c0,.82,0,1.65-.09,2.48s-.09,1.65-.1,2.45,0,1.58.07,2.34a9.22,9.22,0,0,0,.42,2.14h-3l-.59-1.93h-.14a5,5,0,0,1-1.56,1.49,4.69,4.69,0,0,1-2.56.63,4.89,4.89,0,0,1-1.76-.29,3.67,3.67,0,0,1-1.35-.84,3.86,3.86,0,0,1-.87-1.29,4.38,4.38,0,0,1-.3-1.66,3.89,3.89,0,0,1,.57-2.17,4.08,4.08,0,0,1,1.65-1.43,8.08,8.08,0,0,1,2.58-.76,17.88,17.88,0,0,1,3.34-.12,3.59,3.59,0,0,0-.22-2.26c-.28-.45-.9-.68-1.87-.68a12.87,12.87,0,0,0-2.32.22,8.72,8.72,0,0,0-2,.59Zm4.61,10.42a2.79,2.79,0,0,0,1.74-.49,3.41,3.41,0,0,0,.95-1V19.12a9.29,9.29,0,0,0-1.66,0,6.23,6.23,0,0,0-1.42.25,2.45,2.45,0,0,0-1,.56,1.27,1.27,0,0,0-.36.93,1.55,1.55,0,0,0,.46,1.21A1.78,1.78,0,0,0,859.45,22.48Z"/><path d="M880.71,20.32c0,.79,0,1.57,0,2.35a20.18,20.18,0,0,0,.26,2.61h-2.61l-.5-1.82h-.11A4.29,4.29,0,0,1,876.16,25a4.92,4.92,0,0,1-2.48.6,5.06,5.06,0,0,1-4.09-1.73q-1.46-1.74-1.46-5.44a8.62,8.62,0,0,1,1.63-5.57,5.8,5.8,0,0,1,4.76-2A9.36,9.36,0,0,1,876,11a7,7,0,0,1,1.12.32V5.65h3.64Zm-6.19,2.24A2.5,2.5,0,0,0,876.2,22a2.79,2.79,0,0,0,.87-1.49V14.61a2.79,2.79,0,0,0-.87-.46A4.21,4.21,0,0,0,875,14a2.68,2.68,0,0,0-2.31,1,6.11,6.11,0,0,0-.77,3.56,5.75,5.75,0,0,0,.63,2.88A2.13,2.13,0,0,0,874.52,22.56Z"/><path d="M884,5.65c.39-.06.84-.1,1.33-.14s1-.06,1.53-.08l1.52,0h1.33a12.11,12.11,0,0,1,4.46.73,7.54,7.54,0,0,1,3,2,8.13,8.13,0,0,1,1.68,3.14,14,14,0,0,1,.53,4,14.34,14.34,0,0,1-.5,3.84,8.77,8.77,0,0,1-1.68,3.27,8.38,8.38,0,0,1-3.09,2.3,11.49,11.49,0,0,1-4.75.87l-1.19,0-1.54-.07-1.53-.08c-.48,0-.84-.06-1.09-.1Zm6,3.14-1.24,0a5.94,5.94,0,0,0-.94.08V22a2.17,2.17,0,0,0,.38,0l.57,0,.59,0h.42a5.74,5.74,0,0,0,2.7-.57A4.53,4.53,0,0,0,894.19,20a6.09,6.09,0,0,0,.88-2.2,12.7,12.7,0,0,0,.25-2.56A12.2,12.2,0,0,0,895.1,13a5.79,5.79,0,0,0-.83-2.08,4.6,4.6,0,0,0-1.64-1.51A5.17,5.17,0,0,0,890,8.79Z"/><rect class="cls-1" x="2.5" y="96.75" width="1058.62" height="96.06" rx="8.68" ry="8.68"/><line class="cls-1" x1="366.54" y1="279.05" x2="366.54" y2="349.05"/><line class="cls-1" x1="329.04" y1="276.72" x2="404.04" y2="276.72"/><path class="cls-1" d="M446,349.05v-70h75"/><polygon points="502.72 295.62 526.65 279.05 502.72 262.49 502.72 295.62"/><path class="cls-2" d="M589,349.05H538.16c0-12.17,11.39-22,25.43-22S589,336.88,589,349.05Z"/><rect class="cls-5" x="631.92" y="289.09" width="160" height="55.93"/><path class="cls-1" d="M886.5,349.05v-70h75"/><polygon points="943.19 295.62 967.12 279.05 943.19 262.49 943.19 295.62"/><path class="cls-2" d="M1029.48,349.05H978.63c0-12.17,11.39-22,25.43-22S1029.48,336.88,1029.48,349.05Z"/><rect class="cls-6" x="1105.17" y="289.09" width="160" height="55.93"/><path d="M780.09,383.57h2.47l.39,1.56h.1a4.3,4.3,0,0,1,1.6-1.45,5,5,0,0,1,2.25-.47,4.41,4.41,0,0,1,3.67,1.55q1.21,1.55,1.22,5a10.74,10.74,0,0,1-.39,3,6.33,6.33,0,0,1-1.16,2.27,5,5,0,0,1-1.87,1.43,6.16,6.16,0,0,1-2.54.5,6,6,0,0,1-1.32-.12,4.21,4.21,0,0,1-1-.38v5.33h-3.38Zm5.8,2.5a2.25,2.25,0,0,0-1.55.49,3.31,3.31,0,0,0-.87,1.48v5.41a3.14,3.14,0,0,0,.79.46,3.2,3.2,0,0,0,1.13.17,2.51,2.51,0,0,0,2.19-1,6.08,6.08,0,0,0,.72-3.39,5.15,5.15,0,0,0-.57-2.66A2,2,0,0,0,785.89,386.07Z"/><path d="M802.06,391.69a1.73,1.73,0,0,0-.61-1.36,7.14,7.14,0,0,0-1.54-.95c-.61-.28-1.28-.58-2-.88a10,10,0,0,1-2-1.12,5.65,5.65,0,0,1-1.54-1.65,4.8,4.8,0,0,1-.61-2.52,5.46,5.46,0,0,1,.45-2.3,4.3,4.3,0,0,1,1.26-1.63,5.46,5.46,0,0,1,1.93-1,9.25,9.25,0,0,1,2.5-.31,15.83,15.83,0,0,1,3,.27,7.33,7.33,0,0,1,2.31.8l-1.11,3a6.2,6.2,0,0,0-1.72-.67,9.72,9.72,0,0,0-2.47-.3,3.15,3.15,0,0,0-1.91.5,1.57,1.57,0,0,0-.66,1.32,1.62,1.62,0,0,0,.61,1.3,7.07,7.07,0,0,0,1.53,1l2,.91a10.39,10.39,0,0,1,2,1.13,5.81,5.81,0,0,1,1.53,1.63,4.5,4.5,0,0,1,.61,2.43,6,6,0,0,1-.48,2.51,4.72,4.72,0,0,1-1.35,1.76,5.79,5.79,0,0,1-2.11,1,10.49,10.49,0,0,1-2.72.34,14.08,14.08,0,0,1-3.43-.37,10.53,10.53,0,0,1-2.18-.72l1.14-3.05a6,6,0,0,0,.74.34,9.57,9.57,0,0,0,1,.34c.38.1.78.19,1.21.26a8,8,0,0,0,1.31.1,4.52,4.52,0,0,0,2.43-.53A1.77,1.77,0,0,0,802.06,391.69Z"/><path d="M820.23,382.61a5.21,5.21,0,0,1-.17,1.35,3.67,3.67,0,0,1-.56,1.24,4,4,0,0,1-1,1,4.61,4.61,0,0,1-1.51.63V387a6,6,0,0,1,1.48.44,3.78,3.78,0,0,1,2,2.19,5.3,5.3,0,0,1,.29,1.84,4.81,4.81,0,0,1-.59,2.43,5,5,0,0,1-1.6,1.68,7.53,7.53,0,0,1-2.28,1,10.86,10.86,0,0,1-2.62.31h-1.13c-.46,0-1,0-1.49,0s-1.06-.06-1.61-.11a11.62,11.62,0,0,1-1.49-.24V378.5l1.13-.15c.42-.06.88-.1,1.36-.13s1-.06,1.5-.08l1.52,0a15.47,15.47,0,0,1,2.48.2,7,7,0,0,1,2.16.69,4,4,0,0,1,1.52,1.38A4,4,0,0,1,820.23,382.61ZM812.56,386l.85,0a6.72,6.72,0,0,0,.79-.08,4.58,4.58,0,0,0,1.7-.92,2,2,0,0,0,.72-1.62,2.17,2.17,0,0,0-.26-1.11,2,2,0,0,0-.69-.69,2.8,2.8,0,0,0-1-.36,6,6,0,0,0-1.14-.11c-.45,0-.87,0-1.25,0a7.23,7.23,0,0,0-.88.08V386Zm1.17,7.82a5.18,5.18,0,0,0,1.26-.15,3.12,3.12,0,0,0,1.08-.48,2.46,2.46,0,0,0,.76-.81,2.28,2.28,0,0,0-.94-3.25,3.61,3.61,0,0,0-1.22-.35,12.22,12.22,0,0,0-1.35-.08h-1.9v5a1.82,1.82,0,0,0,.41.08c.19,0,.4,0,.61,0l.68,0Z"/><path d="M836.17,391.5h-2.86v5.07h-3.15V391.5h-7.87v-1.92l8.24-11.34h2.78V388.8h2.86Zm-6-6.68.24-2.18h-.11l-.88,1.87-2.7,3.51-1.3,1,1.66-.21h3.09Z"/><path d="M847.06,392.54h-5.59l-1.38,4h-3.56l6.55-18.33h2.63l6.55,18.33h-3.74Zm-4.68-2.86h3.9l-1.35-4.05-.55-2.86h-.13l-.54,2.88Z"/><path d="M858,394a3.79,3.79,0,0,0,2.63-.83,3,3,0,0,0,.91-2.29,2.58,2.58,0,0,0-1.07-2.29,5.31,5.31,0,0,0-3-.73l-2,.08v-9.52h8.94v3.17h-6v3.52l1.06-.11a7,7,0,0,1,2.31.47,5.15,5.15,0,0,1,1.75,1.16,4.91,4.91,0,0,1,1.12,1.79,6.74,6.74,0,0,1,.39,2.35,6.55,6.55,0,0,1-.52,2.71,5.36,5.36,0,0,1-1.45,1.95,6.05,6.05,0,0,1-2.17,1.17,9.1,9.1,0,0,1-2.73.39,12.14,12.14,0,0,1-2.22-.2,7.85,7.85,0,0,1-1.78-.53l.91-2.81a5.89,5.89,0,0,0,1.31.4A8.63,8.63,0,0,0,858,394Z"/><path d="M684.78,258.45h11.61v3.42h-7.78v4.84h7.17v3.42h-7.17v7.92h-3.83Z"/><path d="M698.83,264.86a12,12,0,0,1,2.66-.79,16.84,16.84,0,0,1,3.22-.3,7.45,7.45,0,0,1,2.44.35,3.75,3.75,0,0,1,1.55,1,3.67,3.67,0,0,1,.81,1.54,7.75,7.75,0,0,1,.24,2c0,.82,0,1.65-.08,2.48s-.09,1.65-.1,2.45,0,1.58.07,2.34a9.22,9.22,0,0,0,.42,2.14h-3l-.59-1.93h-.14a5,5,0,0,1-1.55,1.5,4.71,4.71,0,0,1-2.56.63,4.94,4.94,0,0,1-1.77-.3,3.63,3.63,0,0,1-1.34-.84,3.86,3.86,0,0,1-.87-1.29,4.38,4.38,0,0,1-.31-1.66,3.84,3.84,0,0,1,.58-2.17,4.08,4.08,0,0,1,1.65-1.43,8.34,8.34,0,0,1,2.58-.76,17.85,17.85,0,0,1,3.34-.12,3.67,3.67,0,0,0-.22-2.26c-.28-.45-.91-.68-1.88-.68a12.68,12.68,0,0,0-2.31.22,8.57,8.57,0,0,0-2,.59Zm4.62,10.42a2.79,2.79,0,0,0,1.74-.49,3.54,3.54,0,0,0,.95-1.05v-1.82a9.38,9.38,0,0,0-1.67,0,6.24,6.24,0,0,0-1.41.25,2.39,2.39,0,0,0-1,.56,1.27,1.27,0,0,0-.36.93,1.59,1.59,0,0,0,.46,1.22A1.78,1.78,0,0,0,703.45,275.28Z"/><path d="M724.7,273.12c0,.79,0,1.57,0,2.36a20.07,20.07,0,0,0,.25,2.6h-2.6l-.5-1.82h-.12a4.22,4.22,0,0,1-1.61,1.58,4.89,4.89,0,0,1-2.47.6,5,5,0,0,1-4.09-1.73q-1.46-1.74-1.46-5.43a8.57,8.57,0,0,1,1.63-5.58,5.78,5.78,0,0,1,4.76-2,9.22,9.22,0,0,1,1.42.09,5.73,5.73,0,0,1,1.12.33v-5.69h3.64Zm-6.18,2.24a2.54,2.54,0,0,0,1.67-.51,2.79,2.79,0,0,0,.87-1.5v-5.94a2.79,2.79,0,0,0-.87-.46,4.12,4.12,0,0,0-1.23-.15,2.71,2.71,0,0,0-2.31,1,6.19,6.19,0,0,0-.77,3.56,5.75,5.75,0,0,0,.63,2.88A2.14,2.14,0,0,0,718.52,275.36Z"/><path d="M741.17,263a5.55,5.55,0,0,1-.19,1.45,3.91,3.91,0,0,1-.6,1.33,4.27,4.27,0,0,1-1.09,1.07,5,5,0,0,1-1.62.68v.17a6.1,6.1,0,0,1,1.59.48,4,4,0,0,1,1.32.92,4.21,4.21,0,0,1,.88,1.43,5.43,5.43,0,0,1,.32,2,5.08,5.08,0,0,1-.64,2.61,5.32,5.32,0,0,1-1.72,1.81,8.05,8.05,0,0,1-2.45,1,12.1,12.1,0,0,1-2.83.33h-1.22c-.49,0-1,0-1.6,0s-1.14-.07-1.73-.13a11.61,11.61,0,0,1-1.61-.25V258.59l1.22-.17c.45-.05.94-.1,1.47-.14l1.61-.08c.55,0,1.09,0,1.64,0a16.78,16.78,0,0,1,2.67.21,7.71,7.71,0,0,1,2.32.74,4.28,4.28,0,0,1,1.64,1.49A4.33,4.33,0,0,1,741.17,263Zm-8.26,3.66.91,0a7.41,7.41,0,0,0,.85-.09,5.18,5.18,0,0,0,1.84-1,2.22,2.22,0,0,0,.76-1.75,2.26,2.26,0,0,0-.28-1.19,2,2,0,0,0-.74-.75,3.36,3.36,0,0,0-1-.39,7,7,0,0,0-1.23-.11c-.48,0-.93,0-1.34,0s-.73.05-1,.08v5.18Zm1.26,8.43a5.48,5.48,0,0,0,1.35-.16,3.9,3.9,0,0,0,1.17-.52,2.81,2.81,0,0,0,.81-.87,2.83,2.83,0,0,0-.06-2.69,2.52,2.52,0,0,0-1-.82,3.91,3.91,0,0,0-1.31-.37,12,12,0,0,0-1.46-.08h-2V275a2.19,2.19,0,0,0,.44.08l.66,0,.73,0Z"/><path d="M1157.4,258.45H1169v3.42h-7.79v4.84h7.17v3.42h-7.17v7.92h-3.83Z"/><path d="M1171.45,264.86a12.16,12.16,0,0,1,2.66-.79,16.84,16.84,0,0,1,3.22-.3,7.37,7.37,0,0,1,2.44.35,3.75,3.75,0,0,1,1.55,1,3.58,3.58,0,0,1,.82,1.54,7.77,7.77,0,0,1,.23,2c0,.82,0,1.65-.08,2.48s-.09,1.65-.1,2.45,0,1.58.07,2.34a9.22,9.22,0,0,0,.42,2.14h-3l-.58-1.93H1179a5,5,0,0,1-1.56,1.5,4.69,4.69,0,0,1-2.56.63,4.89,4.89,0,0,1-1.76-.3,3.67,3.67,0,0,1-1.35-.84,3.86,3.86,0,0,1-.87-1.29,4.38,4.38,0,0,1-.3-1.66,3.92,3.92,0,0,1,.57-2.17,4.08,4.08,0,0,1,1.65-1.43,8.34,8.34,0,0,1,2.58-.76,17.88,17.88,0,0,1,3.34-.12,3.67,3.67,0,0,0-.22-2.26c-.28-.45-.91-.68-1.88-.68a12.84,12.84,0,0,0-2.31.22,8.72,8.72,0,0,0-2,.59Zm4.62,10.42a2.79,2.79,0,0,0,1.74-.49,3.41,3.41,0,0,0,1-1.05v-1.82a9.29,9.29,0,0,0-1.66,0,6.23,6.23,0,0,0-1.42.25,2.39,2.39,0,0,0-1,.56,1.27,1.27,0,0,0-.36.93,1.59,1.59,0,0,0,.46,1.22A1.78,1.78,0,0,0,1176.07,275.28Z"/><path d="M1197.33,273.12c0,.79,0,1.57,0,2.36a20.21,20.21,0,0,0,.26,2.6H1195l-.5-1.82h-.11a4.29,4.29,0,0,1-1.61,1.58,4.92,4.92,0,0,1-2.48.6,5,5,0,0,1-4.09-1.73q-1.45-1.74-1.46-5.43a8.63,8.63,0,0,1,1.63-5.58,5.8,5.8,0,0,1,4.76-2,9.36,9.36,0,0,1,1.43.09,6.16,6.16,0,0,1,1.12.33v-5.69h3.64Zm-6.19,2.24a2.55,2.55,0,0,0,1.68-.51,2.86,2.86,0,0,0,.87-1.5v-5.94a2.91,2.91,0,0,0-.87-.46,4.21,4.21,0,0,0-1.23-.15,2.68,2.68,0,0,0-2.31,1,6.11,6.11,0,0,0-.77,3.56,5.75,5.75,0,0,0,.63,2.88A2.13,2.13,0,0,0,1191.14,275.36Z"/><path d="M1210.26,273.71h-6l-1.48,4.34h-3.84l7.06-19.74h2.83l7,19.74h-4Zm-5-3.08h4.2l-1.45-4.37-.59-3.08h-.14l-.59,3.11Z"/><rect class="cls-1" x="318.1" y="349.55" width="1058.62" height="96.06" rx="8.68" ry="8.68"/><line class="cls-1" x1="1239.96" y1="26.95" x2="1239.96" y2="96.95"/><line class="cls-1" x1="1202.46" y1="24.62" x2="1277.46" y2="24.62"/><path class="cls-1" d="M1319.45,97V27h75"/><polygon points="1376.14 43.51 1400.07 26.95 1376.14 10.38 1376.14 43.51"/><path class="cls-2" d="M1462.43,97h-50.85c0-12.17,11.39-22,25.43-22S1462.43,84.78,1462.43,97Z"/><rect class="cls-7" x="1505.34" y="36.98" width="160" height="55.93"/><path d="M1383.26,131.47h2.47l.39,1.56h.1a4.26,4.26,0,0,1,1.6-1.46,4.93,4.93,0,0,1,2.25-.47,4.37,4.37,0,0,1,3.66,1.55q1.23,1.54,1.23,5a10.69,10.69,0,0,1-.39,3,6.29,6.29,0,0,1-1.16,2.28,5.14,5.14,0,0,1-1.87,1.43,6.16,6.16,0,0,1-2.54.49,6.78,6.78,0,0,1-1.32-.11,4.66,4.66,0,0,1-1-.38v5.33h-3.38Zm5.8,2.49a2.26,2.26,0,0,0-1.55.5,3.25,3.25,0,0,0-.87,1.48v5.41a2.94,2.94,0,0,0,.79.45,3,3,0,0,0,1.13.17,2.52,2.52,0,0,0,2.19-1,6.12,6.12,0,0,0,.72-3.4,5.11,5.11,0,0,0-.57-2.65A2,2,0,0,0,1389.06,134Z"/><path d="M1405.23,139.58a1.72,1.72,0,0,0-.61-1.35,6.77,6.77,0,0,0-1.54-.95c-.61-.29-1.28-.58-2-.88a10.51,10.51,0,0,1-2-1.12,5.65,5.65,0,0,1-1.54-1.65,4.81,4.81,0,0,1-.61-2.53,5.46,5.46,0,0,1,.45-2.3,4.19,4.19,0,0,1,1.26-1.62,5.3,5.3,0,0,1,1.93-1,9.24,9.24,0,0,1,2.5-.32,15.81,15.81,0,0,1,3,.28,7.34,7.34,0,0,1,2.31.79l-1.11,3a6.57,6.57,0,0,0-1.72-.66,9.72,9.72,0,0,0-2.47-.3,3.15,3.15,0,0,0-1.91.49,1.57,1.57,0,0,0-.66,1.33,1.63,1.63,0,0,0,.61,1.3,6.49,6.49,0,0,0,1.53,1c.62.3,1.28.6,2,.91a10.54,10.54,0,0,1,2,1.13,5.74,5.74,0,0,1,1.54,1.64,4.47,4.47,0,0,1,.61,2.43,6,6,0,0,1-.48,2.51,4.8,4.8,0,0,1-1.35,1.76,6,6,0,0,1-2.11,1,10.51,10.51,0,0,1-2.72.33,14.62,14.62,0,0,1-3.43-.36,10.22,10.22,0,0,1-2.18-.73l1.14-3a7.89,7.89,0,0,0,.74.34c.31.12.65.23,1,.34a10.33,10.33,0,0,0,1.21.25,8,8,0,0,0,1.31.11,4.61,4.61,0,0,0,2.43-.53A1.81,1.81,0,0,0,1405.23,139.58Z"/><path d="M1423.4,130.51a5.67,5.67,0,0,1-.17,1.35,3.62,3.62,0,0,1-.56,1.23,3.81,3.81,0,0,1-1,1,4.41,4.41,0,0,1-1.51.64v.16a5.75,5.75,0,0,1,1.48.44,3.62,3.62,0,0,1,1.22.85,4,4,0,0,1,.82,1.33,5.16,5.16,0,0,1,.3,1.85,4.76,4.76,0,0,1-.6,2.43,5,5,0,0,1-1.59,1.68,7.53,7.53,0,0,1-2.28,1,11.4,11.4,0,0,1-2.63.31h-1.13c-.46,0-1,0-1.48,0l-1.61-.12a12.16,12.16,0,0,1-1.5-.23V126.4c.33-.05.71-.11,1.14-.16l1.36-.13c.49,0,1-.06,1.5-.07s1,0,1.52,0a15.57,15.57,0,0,1,2.48.19,7,7,0,0,1,2.16.69,4,4,0,0,1,1.52,1.38A4.07,4.07,0,0,1,1423.4,130.51Zm-7.67,3.4.85,0c.32,0,.58,0,.79-.08a4.59,4.59,0,0,0,1.7-.93,2,2,0,0,0,.72-1.62,2.16,2.16,0,0,0-.26-1.1,2.1,2.1,0,0,0-.69-.7,3,3,0,0,0-1-.36,6,6,0,0,0-1.14-.1l-1.25,0c-.38,0-.67,0-.88.08v4.81Zm1.17,7.83a4.84,4.84,0,0,0,1.26-.16,3.31,3.31,0,0,0,1.08-.47,2.63,2.63,0,0,0,.75-.81,2.64,2.64,0,0,0,0-2.5,2.32,2.32,0,0,0-.88-.76,3.93,3.93,0,0,0-1.22-.35,12.39,12.39,0,0,0-1.36-.07h-1.89v5a1.39,1.39,0,0,0,.41.08l.61,0,.68,0Z"/><path d="M1427.59,141.61h3.61V131.34l.39-1.77-1.25,1.53-2.31,1.59-1.43-1.95,5.93-4.78h1.89v15.65H1438v2.86h-10.37Z"/><path d="M1453.59,143.72a5.55,5.55,0,0,1-2.12.86,13.58,13.58,0,0,1-2.64.25,9.7,9.7,0,0,1-3.11-.5,6.76,6.76,0,0,1-2.59-1.64,8.25,8.25,0,0,1-1.78-2.94,12.86,12.86,0,0,1-.66-4.38,12,12,0,0,1,.74-4.49,8.39,8.39,0,0,1,1.92-2.91,7.18,7.18,0,0,1,2.64-1.58,9.32,9.32,0,0,1,2.92-.49,14.1,14.1,0,0,1,2.64.21,10,10,0,0,1,1.78.5l-.71,3a4.88,4.88,0,0,0-1.41-.41,12.58,12.58,0,0,0-2-.13,4.34,4.34,0,0,0-3.47,1.53,7.22,7.22,0,0,0-1.32,4.77,9.77,9.77,0,0,0,.32,2.57,5.36,5.36,0,0,0,1,2,4.38,4.38,0,0,0,1.58,1.28,5.09,5.09,0,0,0,2.2.45,7.35,7.35,0,0,0,2-.23,6.1,6.1,0,0,0,1.41-.6Z"/><path d="M1460.5,142a3.3,3.3,0,0,0,2.46-.85,2.88,2.88,0,0,0,.84-2.08,2.63,2.63,0,0,0-.88-2.19,4.46,4.46,0,0,0-2.78-.7h-1.87v-1.8l3.14-4.29,1.48-1.17-2.05.24h-4.37v-2.86h9.93v1.85l-3.66,4.91-1.15.7v.13l1.1-.15a6,6,0,0,1,1.73.41,4.25,4.25,0,0,1,1.43,1,4.65,4.65,0,0,1,1,1.57,6,6,0,0,1,.36,2.16,6.36,6.36,0,0,1-.5,2.65,5.26,5.26,0,0,1-1.41,1.87,5.77,5.77,0,0,1-2.09,1.12,8.92,8.92,0,0,1-2.57.36,13.9,13.9,0,0,1-2.37-.21,6.75,6.75,0,0,1-2-.59l.91-2.81a7.16,7.16,0,0,0,1.5.54A7.42,7.42,0,0,0,1460.5,142Z"/><path d="M1559.16,0h11.62V3.42H1563V8.26h7.16v3.42H1563V19.6h-3.84Z"/><path d="M1573.22,6.41a12.35,12.35,0,0,1,2.66-.8,17.61,17.61,0,0,1,3.22-.29,7.35,7.35,0,0,1,2.43.35,3.74,3.74,0,0,1,1.56,1,3.8,3.8,0,0,1,.81,1.54,7.83,7.83,0,0,1,.24,2c0,.82,0,1.65-.09,2.48s-.09,1.65-.1,2.45,0,1.58.07,2.34a9.22,9.22,0,0,0,.42,2.14h-3l-.59-1.93h-.14a5.08,5.08,0,0,1-1.56,1.49,4.69,4.69,0,0,1-2.56.63,4.89,4.89,0,0,1-1.76-.29,4.05,4.05,0,0,1-1.35-.84,3.7,3.7,0,0,1-.86-1.29,4.2,4.2,0,0,1-.31-1.66,3.89,3.89,0,0,1,.57-2.17,4.08,4.08,0,0,1,1.65-1.43,8.08,8.08,0,0,1,2.58-.76,18,18,0,0,1,3.35-.12,3.65,3.65,0,0,0-.23-2.26c-.28-.46-.9-.68-1.87-.68a12.68,12.68,0,0,0-2.31.22,8.2,8.2,0,0,0-2,.59Zm4.62,10.42a2.84,2.84,0,0,0,1.73-.49,3.41,3.41,0,0,0,1-1.05V13.47a9.29,9.29,0,0,0-1.66,0,6.33,6.33,0,0,0-1.42.25,2.45,2.45,0,0,0-1,.56,1.26,1.26,0,0,0-.36.93,1.57,1.57,0,0,0,.46,1.21A1.79,1.79,0,0,0,1577.84,16.83Z"/><path d="M1599.09,14.67c0,.79,0,1.57,0,2.35a18.44,18.44,0,0,0,.25,2.61h-2.61l-.5-1.82h-.11a4.29,4.29,0,0,1-1.61,1.58,4.92,4.92,0,0,1-2.48.6,5.07,5.07,0,0,1-4.09-1.73q-1.46-1.74-1.45-5.44a8.6,8.6,0,0,1,1.62-5.57,5.8,5.8,0,0,1,4.76-2,9.2,9.2,0,0,1,1.43.1,6.11,6.11,0,0,1,1.12.32V0h3.64Zm-6.19,2.24a2.5,2.5,0,0,0,1.68-.52,2.79,2.79,0,0,0,.87-1.49V9a2.6,2.6,0,0,0-.87-.46,4.17,4.17,0,0,0-1.23-.16,2.69,2.69,0,0,0-2.31,1,6.11,6.11,0,0,0-.77,3.56,5.75,5.75,0,0,0,.63,2.88A2.13,2.13,0,0,0,1592.9,16.91Z"/><path d="M1602.36,0H1614V3.42h-7.78V8h7.08V11.4h-7.08v4.78h7.92V19.6h-11.76Z"/><rect class="cls-1" x="1187.95" y="97.45" width="529.31" height="96.06" rx="8.68" ry="8.68"/></g></g></svg>