<svg id="Layer_2" data-name="Layer 2" xmlns="http://www.w3.org/2000/svg" xmlns:xlink="http://www.w3.org/1999/xlink" viewBox="0 0 659.25 486.25"><defs><style>.cls-1,.cls-7{fill:none;}.cls-2{fill:#0079bf;}.cls-3{fill:#577d95;}.cls-4{fill:#cc6;}.cls-5{fill:#c6e1d5;}.cls-6{clip-path:url(#clip-path);}.cls-7{stroke:#000;stroke-miterlimit:10;stroke-width:8px;}</style><clipPath id="clip-path" transform="translate(-102.3 -216.99)"><rect class="cls-1" x="84.86" y="97.8" width="569.27" height="414.2"/></clipPath></defs><title>mage</title><path class="cls-2" d="M185.28,581.53q37.16-42.9,71.41-88.23,9.63-12.72,19-25.62c1.76-2.44-2.84-6.32-4.62-3.87q-33.4,45.94-69.76,89.57-10.22,12.23-20.65,24.28C178.69,579.94,183.3,583.81,185.28,581.53Z" transform="translate(-102.3 -216.99)"/><path class="cls-2" d="M282.16,483.54a48.77,48.77,0,0,1-4.82-18,3.61,3.61,0,0,0-3.32-3.4,72.8,72.8,0,0,0-21.12,1.54c-3.19.73-.72,5.88,2.46,5.16a67.65,67.65,0,0,1,19.79-1.43l-3.32-3.4a55.36,55.36,0,0,0,5.4,20.63c1.57,3.32,6.5,2.17,4.93-1.14Z" transform="translate(-102.3 -216.99)"/><path class="cls-2" d="M509.28,357.46s-35.15,0-46.29,0c-6.82-.13-14.09-.13-19.82,3.56s-8.58,12.59-3.8,17.45c2.72,2.76,6.89,3.38,10.74,3.76a273.18,273.18,0,0,0,53.11.11c5.81-.55,12.91-2.42,14.14-8.12.68-3.16.3-5.6.17-8.9.18-3.16-4.69-6.8-8.25-7.9" transform="translate(-102.3 -216.99)"/><path class="cls-2" d="M509.28,356h-26.6l-17.58,0c-6.67,0-13.68-.45-19.94,2.32-5.69,2.53-10.13,8.29-9.68,14.75s6.14,9.53,12,10.4c9.9,1.46,20.14,1.67,30.13,1.66,9.59,0,19.72,0,29.17-1.74,6.88-1.29,12-4.7,12.41-12.1.41-7.75-2-12.5-9.55-15.27-1.81-.66-2.6,2.24-.8,2.9,5.34,2,7.41,5.38,7.37,10.95,0,5.9-2.72,8.76-8.3,10.22-8.85,2.32-19.22,1.95-28.33,2-10.55.09-21.6.09-32-1.65-4.71-.78-9.36-3.1-9.13-8.63s4.38-9.58,9.3-11.33c6.28-2.23,13.29-1.5,19.85-1.51L485,359h24.24a1.5,1.5,0,0,0,0-3Z" transform="translate(-102.3 -216.99)"/><path class="cls-2" d="M424.9,360.64a11.05,11.05,0,0,1,5.27-.09c2,.52,2.72,2,4.12,3.36,1.84,1.78,4.45,3.73,7.1,2.61,1.76-.74,1-3.65-.79-2.9-3.1,1.31-5.58-4.24-8-5.41a13.19,13.19,0,0,0-8.46-.47c-1.88.46-1.08,3.35.8,2.9Z" transform="translate(-102.3 -216.99)"/><path class="cls-2" d="M404.81,367.81c1.8-.57,4.67-1.62,6.52-.89,2.89,1.15,1.21,3.69,1.63,5.82s2.33,3.29,4.45,3.57c7.88,1,12.32-10.1,19.72-3.93,1.48,1.22,3.61-.89,2.13-2.12-2.58-2.15-5.62-3.43-9-2.74-4.52.94-6.62,5.62-11.23,5.84-4.38.21-1.47-6-4.45-8.34-2.82-2.25-7.54-1.06-10.59-.1-1.83.57-1.05,3.47.8,2.89Z" transform="translate(-102.3 -216.99)"/><path class="cls-2" d="M427.55,382.5c-.9,2.61,1.71,4.92,4.25,4.66,3.77-.39,4.89-6.48,8.48-6,1.91.24,1.89-2.76,0-3a5.67,5.67,0,0,0-4.81,2,27.08,27.08,0,0,0-1.69,2.15,8.34,8.34,0,0,1-1.08,1.22c-.2.18-2.77,1.26-2.26-.22.63-1.83-2.27-2.61-2.89-.79Z" transform="translate(-102.3 -216.99)"/><path class="cls-3" d="M564.55,318.35s-35.15,0-46.29,0c-6.82-.12-14.09-.13-19.82,3.57s-8.58,12.59-3.8,17.45c2.72,2.76,6.89,3.37,10.74,3.76a274,274,0,0,0,53.11.11c5.81-.56,12.91-2.42,14.14-8.13.68-3.16.3-5.6.17-8.9.18-3.15-4.69-6.79-8.25-7.89" transform="translate(-102.3 -216.99)"/><path class="cls-3" d="M564.55,316.85H538q-8.79,0-17.58,0c-6.67,0-13.68-.46-19.94,2.32-5.69,2.52-10.13,8.28-9.68,14.74s6.14,9.53,12,10.4c9.9,1.46,20.14,1.68,30.13,1.66,9.59,0,19.72.05,29.17-1.73,6.88-1.29,12-4.7,12.41-12.11.41-7.75-2-12.5-9.55-15.26-1.81-.67-2.6,2.23-.8,2.89,5.34,2,7.41,5.39,7.37,11,0,5.9-2.72,8.76-8.3,10.22-8.85,2.32-19.22,1.95-28.33,2-10.55.1-21.6.09-32-1.64-4.71-.78-9.36-3.1-9.13-8.63s4.38-9.59,9.3-11.34c6.28-2.23,13.29-1.5,19.85-1.51l17.43,0h24.24a1.5,1.5,0,0,0,0-3Z" transform="translate(-102.3 -216.99)"/><path class="cls-3" d="M480.17,321.52a11.18,11.18,0,0,1,5.27-.08c2,.52,2.72,2,4.12,3.36,1.84,1.78,4.45,3.72,7.1,2.6,1.76-.74,1-3.64-.79-2.89-3.1,1.31-5.58-4.24-8-5.41a13.12,13.12,0,0,0-8.46-.47c-1.88.45-1.08,3.34.8,2.89Z" transform="translate(-102.3 -216.99)"/><path class="cls-3" d="M460.08,328.69c1.8-.56,4.67-1.62,6.52-.88,2.89,1.15,1.21,3.69,1.63,5.81s2.33,3.3,4.45,3.58c7.88,1,12.32-10.1,19.72-3.94,1.48,1.23,3.61-.88,2.13-2.12-2.58-2.14-5.62-3.43-9-2.73-4.52.94-6.62,5.62-11.23,5.84-4.38.21-1.47-6-4.45-8.35-2.82-2.25-7.54-1.06-10.59-.1-1.83.58-1,3.48.8,2.89Z" transform="translate(-102.3 -216.99)"/><path class="cls-3" d="M482.82,343.38c-.9,2.61,1.71,4.92,4.25,4.66,3.77-.38,4.89-6.48,8.48-6,1.91.24,1.89-2.76,0-3a5.64,5.64,0,0,0-4.81,2,27.08,27.08,0,0,0-1.69,2.15A8.34,8.34,0,0,1,488,344.4c-.2.18-2.77,1.26-2.26-.22.63-1.83-2.27-2.62-2.89-.8Z" transform="translate(-102.3 -216.99)"/><path class="cls-3" d="M516.28,276.67s-35.14,0-46.29,0c-6.81-.13-14.09-.13-19.82,3.56s-8.58,12.59-3.79,17.45c2.71,2.76,6.88,3.38,10.73,3.76a273.28,273.28,0,0,0,53.12.11c5.81-.55,12.91-2.42,14.13-8.12.68-3.16.31-5.6.17-8.9.18-3.16-4.69-6.8-8.25-7.9" transform="translate(-102.3 -216.99)"/><path class="cls-3" d="M516.28,275.17h-26.6l-17.57,0c-6.68,0-13.69-.45-19.95,2.32-5.68,2.52-10.13,8.29-9.68,14.75s6.15,9.53,12,10.4c9.89,1.46,20.14,1.67,30.12,1.66,9.59,0,19.72,0,29.17-1.74,6.88-1.29,12-4.7,12.42-12.1.4-7.75-2-12.5-9.56-15.27-1.81-.66-2.6,2.24-.79,2.9,5.34,2,7.4,5.38,7.36,10.95,0,5.9-2.72,8.76-8.29,10.22-8.86,2.32-19.23,1.95-28.34,2-10.54.09-21.6.09-32-1.65-4.71-.78-9.36-3.1-9.13-8.63s4.38-9.58,9.3-11.33c6.28-2.23,13.29-1.5,19.85-1.51q8.73,0,17.44,0h24.23a1.5,1.5,0,0,0,0-3Z" transform="translate(-102.3 -216.99)"/><path class="cls-3" d="M431.9,279.84a11.18,11.18,0,0,1,5.27-.08c2,.52,2.73,2,4.12,3.36,1.85,1.78,4.45,3.73,7.11,2.61,1.75-.74,1-3.65-.8-2.9-3.09,1.31-5.58-4.24-8-5.41a13.15,13.15,0,0,0-8.47-.47c-1.88.45-1.08,3.35.8,2.89Z" transform="translate(-102.3 -216.99)"/><path class="cls-3" d="M411.81,287c1.8-.57,4.68-1.62,6.53-.89,2.88,1.15,1.21,3.69,1.62,5.82s2.34,3.29,4.45,3.57c7.88,1,12.32-10.1,19.73-3.93,1.47,1.22,3.6-.89,2.12-2.12-2.58-2.15-5.62-3.43-9-2.74-4.52.94-6.61,5.62-11.22,5.84-4.39.21-1.48-6-4.46-8.34-2.81-2.25-7.54-1.06-10.58-.11-1.84.58-1,3.48.79,2.9Z" transform="translate(-102.3 -216.99)"/><path class="cls-3" d="M434.55,301.71c-.9,2.61,1.71,4.91,4.26,4.66,3.76-.39,4.89-6.48,8.47-6,1.91.24,1.89-2.76,0-3a5.68,5.68,0,0,0-4.81,2,27.08,27.08,0,0,0-1.69,2.15,8.9,8.9,0,0,1-1.07,1.22c-.21.18-2.77,1.26-2.27-.22.63-1.83-2.27-2.61-2.89-.79Z" transform="translate(-102.3 -216.99)"/><path class="cls-2" d="M637.49,270.4s-35.15,0-46.29,0c-6.82-.12-14.09-.13-19.82,3.57s-8.58,12.59-3.8,17.45c2.72,2.76,6.89,3.37,10.74,3.76a274,274,0,0,0,53.11.11c5.81-.56,12.91-2.42,14.14-8.13.68-3.16.3-5.6.17-8.9.18-3.15-4.69-6.79-8.25-7.89" transform="translate(-102.3 -216.99)"/><path class="cls-2" d="M637.49,268.9h-26.6l-17.58,0c-6.67,0-13.68-.46-19.94,2.32-5.69,2.52-10.13,8.28-9.68,14.74s6.14,9.53,12,10.4c9.9,1.46,20.15,1.68,30.13,1.66,9.59,0,19.72.05,29.17-1.73,6.88-1.29,12-4.7,12.41-12.11.41-7.75-2-12.5-9.55-15.26-1.81-.67-2.6,2.23-.8,2.89,5.34,2,7.41,5.38,7.37,11,0,5.91-2.72,8.77-8.3,10.23-8.85,2.32-19.22,1.94-28.33,2-10.55.1-21.6.09-32-1.64-4.71-.78-9.36-3.1-9.13-8.63s4.38-9.59,9.3-11.34c6.28-2.23,13.29-1.5,19.85-1.51l17.44,0h24.23a1.5,1.5,0,0,0,0-3Z" transform="translate(-102.3 -216.99)"/><path class="cls-2" d="M553.11,273.57a11.05,11.05,0,0,1,5.27-.08c2,.52,2.72,2,4.12,3.35,1.84,1.79,4.45,3.73,7.1,2.61,1.76-.74,1-3.64-.79-2.89-3.1,1.3-5.58-4.24-8-5.42a13.18,13.18,0,0,0-8.46-.46c-1.88.45-1.08,3.34.8,2.89Z" transform="translate(-102.3 -216.99)"/><path class="cls-2" d="M533,280.74c1.8-.56,4.67-1.62,6.52-.88,2.89,1.15,1.22,3.69,1.63,5.81s2.33,3.3,4.45,3.58c7.88,1,12.32-10.1,19.72-3.94,1.48,1.23,3.61-.88,2.13-2.12-2.58-2.14-5.62-3.43-9-2.73-4.52.93-6.61,5.62-11.22,5.84-4.39.21-1.48-6-4.46-8.35-2.82-2.25-7.54-1.06-10.59-.1-1.83.58-1.05,3.48.8,2.89Z" transform="translate(-102.3 -216.99)"/><path class="cls-2" d="M555.76,295.43c-.9,2.61,1.71,4.92,4.26,4.66,3.76-.38,4.88-6.48,8.47-6,1.91.25,1.89-2.76,0-3a5.65,5.65,0,0,0-4.81,2,27.08,27.08,0,0,0-1.69,2.15,8.27,8.27,0,0,1-1.08,1.21c-.2.19-2.77,1.26-2.26-.21.63-1.83-2.27-2.62-2.89-.8Z" transform="translate(-102.3 -216.99)"/><path class="cls-3" d="M605.38,449c6.55-16.08,2-35-12-45.57-8.89-6.75-31.12-14.31-37.36-.13-.78,1.75,1.81,3.28,2.59,1.52,6-13.6,28.3-3.55,35.63,3.24,11.08,10.26,13.86,26.36,8.25,40.14-.73,1.79,2.17,2.57,2.89.8Z" transform="translate(-102.3 -216.99)"/><path class="cls-3" d="M530,420.34a27.66,27.66,0,0,0-1,14.81c.36,1.89,3.26,1.09,2.89-.8a24.57,24.57,0,0,1,1-13.21c.65-1.82-2.25-2.61-2.89-.8Z" transform="translate(-102.3 -216.99)"/><path class="cls-3" d="M541.51,465c1.84,8,10.79,9.36,17.66,10.52,7.7,1.31,15.46,1.06,21.62-4.25,1.46-1.27-.67-3.38-2.12-2.12-5.29,4.55-12.15,4.56-18.7,3.48-5.61-.93-14-1.84-15.57-8.43-.43-1.88-3.33-1.08-2.89.8Z" transform="translate(-102.3 -216.99)"/><path class="cls-3" d="M670.31,304.45a53.06,53.06,0,0,0-35,3.3c-9.72,4.46-22,13.44-22.39,25.15-.06,1.93,2.94,1.92,3,0,.38-11.08,13.55-19.61,22.76-23.34a49.77,49.77,0,0,1,30.82-2.22c1.88.47,2.68-2.42.8-2.89Z" transform="translate(-102.3 -216.99)"/><path class="cls-3" d="M616.91,378.54c3.09,10.1,13,15.86,22.73,18.37a48,48,0,0,0,33.24-3.64c1.73-.86.21-3.45-1.51-2.59A44.78,44.78,0,0,1,642,394.39c-9.16-2-19.26-7.07-22.2-16.65-.56-1.84-3.46-1.06-2.89.8Z" transform="translate(-102.3 -216.99)"/><path class="cls-3" d="M703.71,326.58a54.64,54.64,0,0,1-.87,38.69c-.71,1.79,2.19,2.57,2.9.8a57.23,57.23,0,0,0,.86-40.29c-.63-1.81-3.53-1-2.89.8Z" transform="translate(-102.3 -216.99)"/><path class="cls-4" d="M554.88,397.18a206.59,206.59,0,0,0-25.63,18.66c-4.42,3.76,2,10.1,6.36,6.37A190.9,190.9,0,0,1,559.42,405c4.93-3,.41-10.82-4.54-7.77Z" transform="translate(-102.3 -216.99)"/><path class="cls-4" d="M600.45,447.16a102.31,102.31,0,0,1-20.67,15.7c-5,2.89-.49,10.67,4.54,7.77a111.51,111.51,0,0,0,22.5-17.11c4.13-4.06-2.23-10.43-6.37-6.36Z" transform="translate(-102.3 -216.99)"/><path class="cls-4" d="M609.18,336.14c-1,13.42-4.13,29,5.2,40.21,3.71,4.46,10-1.94,6.37-6.37-7-8.48-3.3-23.87-2.57-33.84.42-5.78-8.58-5.75-9,0Z" transform="translate(-102.3 -216.99)"/><path class="cls-5" d="M671.27,311.73c10.44,2.68,18.67,9.54,26.69,16.41,4.38,3.76,10.77-2.58,6.36-6.36-9.19-7.88-18.68-15.65-30.65-18.72-5.62-1.45-8,7.23-2.4,8.67Z" transform="translate(-102.3 -216.99)"/><path class="cls-5" d="M701.94,366.92c-8.06,8.7-16.28,20.05-28.57,22.5-5.68,1.13-3.27,9.81,2.39,8.68,14-2.79,23.36-14.9,32.54-24.81,3.94-4.25-2.41-10.63-6.36-6.37Z" transform="translate(-102.3 -216.99)"/><path class="cls-5" d="M524,438.7a153.93,153.93,0,0,0,12.55,24.39c3.11,4.87,10.9.36,7.78-4.54a141,141,0,0,1-11.65-22.24c-2.17-5.29-10.88-3-8.68,2.39Z" transform="translate(-102.3 -216.99)"/><path class="cls-5" d="M223.72,599.84l-35.36.12a7.33,7.33,0,0,0-7.31,7.4l.09,10.4a7.33,7.33,0,0,0,7.34,7.27h35.3a7.34,7.34,0,0,0,7.34-7.34c0-3.32,0-7.23,0-10.55A7.34,7.34,0,0,0,223.72,599.84Z" transform="translate(-102.3 -216.99)"/><path class="cls-5" d="M223.72,598.34l-27.05.09c-3.17,0-6.69-.4-9.83.18-5.76,1.06-7.32,6.06-7.27,11.16,0,4.39-.9,10.16,2.26,13.74,2.77,3.14,6.47,3,10.26,3,10.14,0,20.3.19,30.43,0,5.51-.1,9.65-3,10.1-8.84.6-7.79,1.17-18.48-8.9-19.35-1.92-.16-1.91,2.84,0,3,6.48.56,5.88,7.13,5.89,12,0,4.69-.13,9.61-6,10.21a71,71,0,0,1-7.15,0H191.77c-4.23,0-8.45-.43-9.13-5.83a49.74,49.74,0,0,1-.09-10.06c.45-5.11,4.25-6.18,8.43-6.19l11.16,0,21.58-.07A1.5,1.5,0,0,0,223.72,598.34Z" transform="translate(-102.3 -216.99)"/><path class="cls-4" d="M309.14,590.35l-35.37.12a7.33,7.33,0,0,0-7.31,7.4l.09,10.4a7.34,7.34,0,0,0,7.34,7.27h35.3a7.33,7.33,0,0,0,7.34-7.34c0-3.32,0-7.23,0-10.55A7.34,7.34,0,0,0,309.14,590.35Z" transform="translate(-102.3 -216.99)"/><path class="cls-4" d="M309.14,588.85l-27.06.09c-3.17,0-6.69-.4-9.83.18-5.76,1.06-7.31,6.06-7.27,11.16,0,4.39-.9,10.16,2.26,13.74,2.77,3.14,6.48,3,10.26,3,10.14,0,20.3.19,30.44,0,5.51-.1,9.64-3,10.09-8.84.6-7.79,1.17-18.48-8.89-19.35-1.93-.16-1.92,2.84,0,3,6.47.56,5.87,7.13,5.88,12,0,4.69-.13,9.61-6,10.21a71,71,0,0,1-7.15,0h-24.7c-4.23,0-8.46-.43-9.14-5.83a50.47,50.47,0,0,1-.09-10.06c.45-5.11,4.26-6.18,8.43-6.19l11.16,0,21.59-.07A1.5,1.5,0,0,0,309.14,588.85Z" transform="translate(-102.3 -216.99)"/><path class="cls-4" d="M235.1,638.7l-35.37.11a7.33,7.33,0,0,0-7.31,7.41l.09,10.39a7.35,7.35,0,0,0,7.34,7.28h35.3a7.34,7.34,0,0,0,7.34-7.34c0-3.32,0-7.24,0-10.55A7.34,7.34,0,0,0,235.1,638.7Z" transform="translate(-102.3 -216.99)"/><path class="cls-4" d="M235.1,637.2l-27.06.08c-3.17,0-6.69-.4-9.83.18-5.76,1.07-7.31,6.07-7.27,11.17,0,4.38-.9,10.16,2.26,13.74,2.77,3.14,6.48,3,10.26,3,10.14,0,20.3.19,30.44,0,5.51-.1,9.64-3,10.09-8.84.6-7.8,1.18-18.48-8.89-19.35-1.93-.17-1.92,2.83,0,3,6.47.56,5.87,7.13,5.88,12s-.13,9.62-6,10.22a70.85,70.85,0,0,1-7.14,0H203.15c-4.23,0-8.46-.44-9.14-5.83a50.48,50.48,0,0,1-.09-10.06c.45-5.11,4.26-6.18,8.43-6.2l11.16,0,21.59-.07A1.5,1.5,0,0,0,235.1,637.2Z" transform="translate(-102.3 -216.99)"/><path class="cls-5" d="M340.74,630.36l-35.36.11a7.36,7.36,0,0,0-7.32,7.41l.09,10.4a7.34,7.34,0,0,0,7.34,7.27h35.3a7.33,7.33,0,0,0,7.34-7.34c0-3.32,0-7.23,0-10.55A7.33,7.33,0,0,0,340.74,630.36Z" transform="translate(-102.3 -216.99)"/><path class="cls-5" d="M340.74,628.86l-27.06.09c-3.16,0-6.68-.41-9.83.17-5.75,1.07-7.31,6.07-7.27,11.17,0,4.39-.9,10.16,2.26,13.74,2.78,3.14,6.48,3,10.27,3,10.13,0,20.29.19,30.43,0,5.51-.1,9.65-3,10.09-8.84.6-7.79,1.18-18.48-8.89-19.35-1.93-.16-1.91,2.84,0,3,6.48.56,5.87,7.13,5.88,12s-.13,9.62-6,10.22a71,71,0,0,1-7.15,0H308.79c-4.23,0-8.46-.44-9.14-5.83a51.24,51.24,0,0,1-.09-10.06c.45-5.11,4.26-6.18,8.44-6.19l11.16,0,21.58-.07A1.5,1.5,0,0,0,340.74,628.86Z" transform="translate(-102.3 -216.99)"/><path class="cls-5" d="M146.56,638.7l-35.36.11a7.34,7.34,0,0,0-7.32,7.41l.09,10.39a7.35,7.35,0,0,0,7.34,7.28h35.3a7.34,7.34,0,0,0,7.34-7.34c0-3.32,0-7.24,0-10.55A7.33,7.33,0,0,0,146.56,638.7Z" transform="translate(-102.3 -216.99)"/><path class="cls-5" d="M146.56,637.2l-27.06.08c-3.17,0-6.68-.4-9.83.18-5.76,1.07-7.31,6.07-7.27,11.17,0,4.38-.9,10.16,2.26,13.74,2.77,3.14,6.48,3,10.26,3,10.14,0,20.3.19,30.44,0,5.51-.1,9.64-3,10.09-8.84.6-7.8,1.18-18.48-8.89-19.35-1.93-.17-1.92,2.83,0,3,6.47.56,5.87,7.13,5.88,12s-.13,9.62-6,10.22a71,71,0,0,1-7.15,0H114.61c-4.23,0-8.46-.44-9.14-5.83a51.24,51.24,0,0,1-.09-10.06c.45-5.11,4.26-6.18,8.44-6.2l11.16,0,21.58-.07A1.5,1.5,0,0,0,146.56,637.2Z" transform="translate(-102.3 -216.99)"/><g class="cls-6"><g class="cls-6"><polygon points="193.58 0 200.44 48.48 240.69 15.53 193.58 0"/><polygon points="103.72 160.55 145.28 155.68 115.8 111.76 103.72 160.55"/><polygon points="240 266.74 245.89 216.64 195.7 235.55 240 266.74"/><path class="cls-7" d="M426.68,433.92c-12.55,9.6-41.74,28.94-80.38,28.05-57.69-1.34-127.93-47.6-126.79-115.58,1.12-66.21,70.2-113.13,123.48-113.87,37.29-.52,65.59,17.17,77.89,26.34" transform="translate(-102.3 -216.99)"/></g></g><path d="M172,695.38a1.3,1.3,0,0,0-.47-1,5.07,5.07,0,0,0-1.18-.73c-.47-.22-1-.45-1.54-.68a8.23,8.23,0,0,1-1.54-.86A4.47,4.47,0,0,1,166,690.8a3.69,3.69,0,0,1-.47-1.94,4.2,4.2,0,0,1,.34-1.77,3.33,3.33,0,0,1,1-1.25,4.09,4.09,0,0,1,1.49-.74,7.1,7.1,0,0,1,1.92-.24,12.07,12.07,0,0,1,2.3.21,5.79,5.79,0,0,1,1.78.61l-.86,2.3a4.53,4.53,0,0,0-1.32-.51,7.22,7.22,0,0,0-1.9-.23,2.38,2.38,0,0,0-1.47.38,1.2,1.2,0,0,0-.51,1,1.27,1.27,0,0,0,.47,1,5.85,5.85,0,0,0,1.18.74l1.54.7A8.27,8.27,0,0,1,173,692a4.43,4.43,0,0,1,1.18,1.26,3.48,3.48,0,0,1,.47,1.87,4.58,4.58,0,0,1-.37,1.93,3.66,3.66,0,0,1-1,1.35,4.55,4.55,0,0,1-1.62.8,8,8,0,0,1-2.09.26,11.49,11.49,0,0,1-2.64-.28,8.72,8.72,0,0,1-1.68-.56l.88-2.34c.15.08.34.16.57.26a8.15,8.15,0,0,0,.79.26c.29.08.6.14.93.2a6.66,6.66,0,0,0,1,.08,3.55,3.55,0,0,0,1.87-.41A1.39,1.39,0,0,0,172,695.38Z" transform="translate(-102.3 -216.99)"/><path d="M180.09,694.76l.36,1.56h.12l.26-1.58,1.52-5.6H185l-3,9c-.25.74-.5,1.43-.73,2.05a9.3,9.3,0,0,1-.77,1.61,3.71,3.71,0,0,1-.93,1,2,2,0,0,1-1.21.37,3.54,3.54,0,0,1-1.66-.34l.48-2.08a1.61,1.61,0,0,0,.6.12,1.32,1.32,0,0,0,.89-.39,2.65,2.65,0,0,0,.65-1.41l-4.18-10h3.12Z" transform="translate(-102.3 -216.99)"/><path d="M192.13,699.14v-5.68a3.37,3.37,0,0,0-.35-1.76,1.31,1.31,0,0,0-1.19-.54,1.86,1.86,0,0,0-1.25.43,2.36,2.36,0,0,0-.73,1.07v6.48H186v-10h2.06l.3,1.32h.08a4.26,4.26,0,0,1,1.22-1.12,3.63,3.63,0,0,1,2-.48,3.89,3.89,0,0,1,1.32.2,2.19,2.19,0,0,1,1,.66,2.86,2.86,0,0,1,.6,1.25,8.18,8.18,0,0,1,.2,1.95v6.22Z" transform="translate(-102.3 -216.99)"/><path d="M195.87,689.14h1.38v-1.88l2.6-.74v2.62h2.44v2.2h-2.44v3.84a3.82,3.82,0,0,0,.21,1.49.79.79,0,0,0,.79.45,2.73,2.73,0,0,0,.69-.08c.19-.06.41-.14.65-.24l.46,2a6.84,6.84,0,0,1-1.26.44,6,6,0,0,1-1.46.18,2.63,2.63,0,0,1-2-.71,3.43,3.43,0,0,1-.65-2.33v-5h-1.38Z" transform="translate(-102.3 -216.99)"/><path d="M210,699.14v-5.68a3.38,3.38,0,0,0-.34-1.76,1.35,1.35,0,0,0-1.24-.54,1.87,1.87,0,0,0-1.21.45,2.1,2.1,0,0,0-.73,1.15v6.38h-2.6v-14h2.6v5.12h.08a3.51,3.51,0,0,1,1.18-1,3.64,3.64,0,0,1,1.78-.38,3.94,3.94,0,0,1,1.34.2,2.11,2.11,0,0,1,1,.66,3,3,0,0,1,.58,1.25,8.23,8.23,0,0,1,.19,1.95v6.22Z" transform="translate(-102.3 -216.99)"/><path d="M222.79,698.28a5.05,5.05,0,0,1-1.63.81,7.17,7.17,0,0,1-2.19.33,4.26,4.26,0,0,1-3.54-1.41,6,6,0,0,1-1.12-3.87,5.54,5.54,0,0,1,1.26-4,4.66,4.66,0,0,1,3.54-1.32,5.23,5.23,0,0,1,1.48.2,3.33,3.33,0,0,1,1.28.66,3.27,3.27,0,0,1,.9,1.24,4.78,4.78,0,0,1,.34,1.94c0,.28,0,.58-.05.9a9.71,9.71,0,0,1-.15,1h-6a3,3,0,0,0,.65,1.9,2.51,2.51,0,0,0,1.91.64,4.19,4.19,0,0,0,1.47-.25,4.47,4.47,0,0,0,1-.51Zm-3.72-7.34a1.82,1.82,0,0,0-1.51.61,3,3,0,0,0-.59,1.63h3.72a2.55,2.55,0,0,0-.33-1.66A1.45,1.45,0,0,0,219.07,690.94Z" transform="translate(-102.3 -216.99)"/><path d="M223.91,689.14h1.38v-1.88l2.6-.74v2.62h2.44v2.2h-2.44v3.84a3.82,3.82,0,0,0,.21,1.49.79.79,0,0,0,.79.45,2.73,2.73,0,0,0,.69-.08c.19-.06.41-.14.65-.24l.46,2a6.84,6.84,0,0,1-1.26.44,6,6,0,0,1-1.46.18,2.63,2.63,0,0,1-2-.71,3.43,3.43,0,0,1-.65-2.33v-5h-1.38Z" transform="translate(-102.3 -216.99)"/><path d="M231.79,686.32a1.3,1.3,0,0,1,.43-1,1.63,1.63,0,0,1,1.19-.41,1.76,1.76,0,0,1,1.23.41,1.27,1.27,0,0,1,.47,1,1.23,1.23,0,0,1-.47,1,1.85,1.85,0,0,1-1.23.39,1.71,1.71,0,0,1-1.19-.39A1.25,1.25,0,0,1,231.79,686.32Zm.38,2.82h2.6v10h-2.6Z" transform="translate(-102.3 -216.99)"/><path d="M244.39,698.52a4.52,4.52,0,0,1-1.45.67,6.83,6.83,0,0,1-1.75.23,4.9,4.9,0,0,1-2-.38,3.57,3.57,0,0,1-1.35-1.07,4.33,4.33,0,0,1-.75-1.67,9.74,9.74,0,0,1-.23-2.16,5.94,5.94,0,0,1,1.14-3.91,4.06,4.06,0,0,1,3.32-1.37,7.08,7.08,0,0,1,1.77.18,5.75,5.75,0,0,1,1.21.46l-.62,2.12a5.08,5.08,0,0,0-.91-.34,4,4,0,0,0-1-.12,1.94,1.94,0,0,0-1.64.71,3.69,3.69,0,0,0-.56,2.27,4.89,4.89,0,0,0,.14,1.18,2.78,2.78,0,0,0,.42.94,2.13,2.13,0,0,0,.73.63,2.32,2.32,0,0,0,1,.23A3.34,3.34,0,0,0,243,697a4.18,4.18,0,0,0,.82-.41Z" transform="translate(-102.3 -216.99)"/><path d="M250.61,685.14c.28,0,.6-.08.95-.1s.72,0,1.09-.06l1.09,0h.95a8.61,8.61,0,0,1,3.18.52,5.33,5.33,0,0,1,2.14,1.46,5.7,5.7,0,0,1,1.2,2.24,10.26,10.26,0,0,1,.38,2.86,10.4,10.4,0,0,1-.36,2.74,6.2,6.2,0,0,1-1.2,2.34,6.12,6.12,0,0,1-2.21,1.64,8.25,8.25,0,0,1-3.39.62l-.85,0-1.1-.05-1.09-.06c-.35,0-.61-.05-.78-.07Zm4.3,2.24c-.29,0-.59,0-.89,0a4.41,4.41,0,0,0-.67.06v9.38l.27,0,.41,0,.42,0h.3a4.12,4.12,0,0,0,1.93-.41,3.39,3.39,0,0,0,1.22-1.09,4.47,4.47,0,0,0,.63-1.57,9.31,9.31,0,0,0,.18-1.83,8.39,8.39,0,0,0-.16-1.65,4.08,4.08,0,0,0-.59-1.49,3.38,3.38,0,0,0-1.17-1.08A3.76,3.76,0,0,0,254.91,687.38Z" transform="translate(-102.3 -216.99)"/><path d="M267,691.84l-1.1-2.2h-.1l.32,2.2v7.3h-2.6V685h2l5.3,7.46,1.06,2.14h.1l-.32-2.14v-7.36h2.6v14.1h-2Z" transform="translate(-102.3 -216.99)"/><path d="M283.59,696h-4.3l-1.06,3.1h-2.74l5-14.1h2l5,14.1h-2.88Zm-3.6-2.2h3l-1-3.12-.42-2.2h-.1l-.42,2.22Z" transform="translate(-102.3 -216.99)"/><path d="M489.22,229.86c.28,0,.59-.08.95-.1s.71,0,1.09-.06l1.09,0h.95a8.61,8.61,0,0,1,3.18.52,5.33,5.33,0,0,1,2.14,1.46,6,6,0,0,1,1.2,2.24,10.26,10.26,0,0,1,.38,2.86,10.4,10.4,0,0,1-.36,2.74,6.2,6.2,0,0,1-1.2,2.34,6.12,6.12,0,0,1-2.21,1.64,8.31,8.31,0,0,1-3.39.62l-.85,0-1.1-.05L490,244c-.35,0-.61,0-.78-.07Zm4.3,2.24c-.3,0-.59,0-.89,0a4.28,4.28,0,0,0-.67.06v9.38l.27,0,.41,0,.42,0h.3a4.14,4.14,0,0,0,1.93-.41,3.39,3.39,0,0,0,1.22-1.09,4.47,4.47,0,0,0,.63-1.57,9,9,0,0,0,0-3.48,4.27,4.27,0,0,0-.59-1.49,3.38,3.38,0,0,0-1.17-1.08A3.79,3.79,0,0,0,493.52,232.1Z" transform="translate(-102.3 -216.99)"/><path d="M502,231a1.3,1.3,0,0,1,.43-1,1.61,1.61,0,0,1,1.19-.41,1.79,1.79,0,0,1,1.23.41,1.27,1.27,0,0,1,.47,1,1.23,1.23,0,0,1-.47,1,1.89,1.89,0,0,1-1.23.39,1.69,1.69,0,0,1-1.19-.39A1.25,1.25,0,0,1,502,231Zm.38,2.82h2.6v10h-2.6Z" transform="translate(-102.3 -216.99)"/><path d="M510.94,239.1l.34,1.54h.1l.28-1.58,1.7-5.2h2.8L512,244H510.4l-4.34-10.1h3Z" transform="translate(-102.3 -216.99)"/><path d="M524.88,243a5.16,5.16,0,0,1-1.63.81,7.17,7.17,0,0,1-2.19.33,4.23,4.23,0,0,1-3.54-1.41,6,6,0,0,1-1.12-3.87,5.54,5.54,0,0,1,1.26-4,4.66,4.66,0,0,1,3.54-1.32,5.28,5.28,0,0,1,1.48.2,3.4,3.4,0,0,1,1.28.66,3.27,3.27,0,0,1,.9,1.24,5,5,0,0,1,.34,1.94c0,.28,0,.58-.05.9s-.09.65-.15,1h-6a2.9,2.9,0,0,0,.65,1.9,2.51,2.51,0,0,0,1.91.64,4.27,4.27,0,0,0,1.47-.25,4.47,4.47,0,0,0,1-.51Zm-3.72-7.34a1.8,1.8,0,0,0-1.51.61,2.92,2.92,0,0,0-.59,1.63h3.72a2.55,2.55,0,0,0-.33-1.66A1.48,1.48,0,0,0,521.16,235.66Z" transform="translate(-102.3 -216.99)"/><path d="M532.56,236.3a3.35,3.35,0,0,0-1.12-.22,1.8,1.8,0,0,0-1.17.37,1.68,1.68,0,0,0-.63,1v6.46H527v-10h2l.3,1.32h.08a2.58,2.58,0,0,1,.92-1.14,2.3,2.3,0,0,1,1.36-.4,3.72,3.72,0,0,1,1.18.22Z" transform="translate(-102.3 -216.99)"/><path d="M538.2,241.1a.76.76,0,0,0-.34-.64A4.11,4.11,0,0,0,537,240c-.34-.14-.7-.27-1.1-.41a4.28,4.28,0,0,1-1.1-.58,3,3,0,0,1-.84-.94,2.81,2.81,0,0,1-.34-1.47,2.85,2.85,0,0,1,.88-2.26,3.69,3.69,0,0,1,2.54-.78,8.2,8.2,0,0,1,2.06.24,6.07,6.07,0,0,1,1.44.54l-.58,1.88c-.31-.12-.7-.25-1.16-.38a4.92,4.92,0,0,0-1.42-.2c-.78,0-1.16.3-1.16.9a.66.66,0,0,0,.34.58,4.71,4.71,0,0,0,.84.41l1.1.41a4.42,4.42,0,0,1,1.1.57,3,3,0,0,1,.84.91,2.79,2.79,0,0,1,.34,1.44,3.07,3.07,0,0,1-1,2.39,4.25,4.25,0,0,1-2.91.87,7.09,7.09,0,0,1-2-.27,6,6,0,0,1-1.51-.63l.72-1.94a7.12,7.12,0,0,0,1.22.51,5.09,5.09,0,0,0,1.56.25,1.83,1.83,0,0,0,.93-.22A.82.82,0,0,0,538.2,241.1Z" transform="translate(-102.3 -216.99)"/><path d="M542.36,231a1.3,1.3,0,0,1,.43-1,1.61,1.61,0,0,1,1.19-.41,1.79,1.79,0,0,1,1.23.41,1.27,1.27,0,0,1,.47,1,1.23,1.23,0,0,1-.47,1,1.89,1.89,0,0,1-1.23.39,1.69,1.69,0,0,1-1.19-.39A1.25,1.25,0,0,1,542.36,231Zm.38,2.82h2.6v10h-2.6Z" transform="translate(-102.3 -216.99)"/><path d="M546.84,233.86h1.38V232l2.6-.74v2.62h2.44v2.2h-2.44v3.84a3.82,3.82,0,0,0,.21,1.49.79.79,0,0,0,.79.45,2.84,2.84,0,0,0,.69-.08c.19-.06.41-.14.65-.24l.46,2a6.84,6.84,0,0,1-1.26.44,6,6,0,0,1-1.46.18,2.63,2.63,0,0,1-2-.71,3.38,3.38,0,0,1-.65-2.33v-5h-1.38Z" transform="translate(-102.3 -216.99)"/><path d="M558,239.48l.36,1.56h.12l.26-1.58,1.52-5.6H563l-3,9c-.26.74-.5,1.43-.73,2.05a10.09,10.09,0,0,1-.77,1.61,3.71,3.71,0,0,1-.93,1.05,2.07,2.07,0,0,1-1.21.37,3.51,3.51,0,0,1-1.66-.34l.48-2.08a1.61,1.61,0,0,0,.6.12,1.34,1.34,0,0,0,.89-.39,2.72,2.72,0,0,0,.65-1.41l-4.18-10h3.12Z" transform="translate(-102.3 -216.99)"/><path d="M600.08,536.13a1.31,1.31,0,0,0-.47-1,5.07,5.07,0,0,0-1.18-.73c-.47-.22-1-.45-1.54-.68a7.7,7.7,0,0,1-1.54-.86,4.34,4.34,0,0,1-1.18-1.27,3.67,3.67,0,0,1-.47-1.94,4.2,4.2,0,0,1,.34-1.77,3.33,3.33,0,0,1,1-1.25,4.25,4.25,0,0,1,1.49-.74,7.1,7.1,0,0,1,1.92-.24,12.07,12.07,0,0,1,2.3.21,5.79,5.79,0,0,1,1.78.61l-.86,2.3a4.53,4.53,0,0,0-1.32-.51,7.67,7.67,0,0,0-1.9-.23,2.45,2.45,0,0,0-1.47.38,1.2,1.2,0,0,0-.51,1,1.27,1.27,0,0,0,.47,1,5.44,5.44,0,0,0,1.18.74c.47.23,1,.46,1.54.7a8.27,8.27,0,0,1,1.54.87,4.43,4.43,0,0,1,1.18,1.26,3.48,3.48,0,0,1,.47,1.87,4.55,4.55,0,0,1-.37,1.93,3.66,3.66,0,0,1-1,1.35,4.39,4.39,0,0,1-1.62.8,8,8,0,0,1-2.09.26,11,11,0,0,1-2.64-.28,8.08,8.08,0,0,1-1.68-.56l.88-2.34a5.39,5.39,0,0,0,.57.26,8.15,8.15,0,0,0,.79.26,8,8,0,0,0,.93.2,6.66,6.66,0,0,0,1,.08,3.55,3.55,0,0,0,1.87-.41A1.38,1.38,0,0,0,600.08,536.13Z" transform="translate(-102.3 -216.99)"/><path d="M612.58,539a5.05,5.05,0,0,1-1.63.81,7.17,7.17,0,0,1-2.19.33,4.26,4.26,0,0,1-3.54-1.41,6,6,0,0,1-1.12-3.87,5.54,5.54,0,0,1,1.26-4,4.66,4.66,0,0,1,3.54-1.32,5.62,5.62,0,0,1,1.48.2,3.21,3.21,0,0,1,2.18,1.9,4.82,4.82,0,0,1,.34,1.94c0,.28,0,.58,0,.9a9.71,9.71,0,0,1-.15,1h-6a3,3,0,0,0,.65,1.9,2.47,2.47,0,0,0,1.91.64,4,4,0,0,0,1.47-.25,4.47,4.47,0,0,0,1-.51Zm-3.72-7.34a1.82,1.82,0,0,0-1.51.61,3,3,0,0,0-.59,1.63h3.72a2.56,2.56,0,0,0-.33-1.66A1.45,1.45,0,0,0,608.86,531.69Z" transform="translate(-102.3 -216.99)"/><path d="M617.42,536.53a2.16,2.16,0,0,0,.18,1,.62.62,0,0,0,.58.32,2.42,2.42,0,0,0,.47,0,3.55,3.55,0,0,0,.57-.18l.28,2a4.85,4.85,0,0,1-1,.32,5.56,5.56,0,0,1-1.36.16,2.57,2.57,0,0,1-1.74-.53,2.23,2.23,0,0,1-.6-1.75v-12h2.6Z" transform="translate(-102.3 -216.99)"/><path d="M628.62,539a5.05,5.05,0,0,1-1.63.81,7.17,7.17,0,0,1-2.19.33,4.26,4.26,0,0,1-3.54-1.41,6,6,0,0,1-1.12-3.87,5.54,5.54,0,0,1,1.26-4,4.66,4.66,0,0,1,3.54-1.32,5.62,5.62,0,0,1,1.48.2,3.21,3.21,0,0,1,2.18,1.9,4.82,4.82,0,0,1,.34,1.94c0,.28,0,.58-.05.9a9.71,9.71,0,0,1-.15,1h-6a3,3,0,0,0,.65,1.9,2.47,2.47,0,0,0,1.91.64,4,4,0,0,0,1.47-.25,4.47,4.47,0,0,0,1-.51Zm-3.72-7.34a1.82,1.82,0,0,0-1.51.61,3,3,0,0,0-.59,1.63h3.72a2.56,2.56,0,0,0-.33-1.66A1.45,1.45,0,0,0,624.9,531.69Z" transform="translate(-102.3 -216.99)"/><path d="M637.76,539.27a4.32,4.32,0,0,1-1.45.67,6.83,6.83,0,0,1-1.75.23,4.9,4.9,0,0,1-2-.38,3.48,3.48,0,0,1-1.35-1.07,4.33,4.33,0,0,1-.75-1.67,9.61,9.61,0,0,1-.23-2.16,6,6,0,0,1,1.14-3.91,4.09,4.09,0,0,1,3.32-1.37,7.08,7.08,0,0,1,1.77.18,5.75,5.75,0,0,1,1.21.46l-.62,2.12a5.08,5.08,0,0,0-.91-.34,4,4,0,0,0-1-.12,2,2,0,0,0-1.64.71,3.69,3.69,0,0,0-.56,2.27,4.83,4.83,0,0,0,.14,1.18,2.78,2.78,0,0,0,.42.94,1.94,1.94,0,0,0,.73.63,2.32,2.32,0,0,0,1.05.23,3.34,3.34,0,0,0,1.12-.17,3.7,3.7,0,0,0,.82-.41Z" transform="translate(-102.3 -216.99)"/><path d="M638.3,529.89h1.38V528l2.6-.74v2.62h2.44v2.2h-2.44v3.84a3.82,3.82,0,0,0,.21,1.49.79.79,0,0,0,.79.45,2.73,2.73,0,0,0,.69-.08,4.09,4.09,0,0,0,.65-.24l.46,2a6.84,6.84,0,0,1-1.26.44,6,6,0,0,1-1.46.18,2.63,2.63,0,0,1-2-.71,3.41,3.41,0,0,1-.65-2.33v-5H638.3Z" transform="translate(-102.3 -216.99)"/><path d="M646.18,527.07a1.3,1.3,0,0,1,.43-1,1.67,1.67,0,0,1,1.19-.41,1.81,1.81,0,0,1,1.23.41,1.27,1.27,0,0,1,.47,1,1.22,1.22,0,0,1-.47,1,1.85,1.85,0,0,1-1.23.39,1.71,1.71,0,0,1-1.19-.39A1.24,1.24,0,0,1,646.18,527.07Zm.38,2.82h2.6v10h-2.6Z" transform="translate(-102.3 -216.99)"/><path d="M651.22,534.89a5.61,5.61,0,0,1,1.24-3.91,4.48,4.48,0,0,1,3.48-1.37A5.29,5.29,0,0,1,658,530a3.85,3.85,0,0,1,1.46,1.07,4.5,4.5,0,0,1,.87,1.67,7.68,7.68,0,0,1,.29,2.16,5.66,5.66,0,0,1-1.23,3.91,4.44,4.44,0,0,1-3.47,1.37,5.29,5.29,0,0,1-2.08-.38,3.89,3.89,0,0,1-1.47-1.07,4.52,4.52,0,0,1-.88-1.67A7.68,7.68,0,0,1,651.22,534.89Zm2.68,0a5.8,5.8,0,0,0,.12,1.22,3.44,3.44,0,0,0,.36,1,1.71,1.71,0,0,0,.63.65,1.83,1.83,0,0,0,.93.23,1.71,1.71,0,0,0,1.52-.74,4.28,4.28,0,0,0,.5-2.34,4.65,4.65,0,0,0-.46-2.23,1.63,1.63,0,0,0-1.56-.85,1.77,1.77,0,0,0-1.5.72A4,4,0,0,0,653.9,534.89Z" transform="translate(-102.3 -216.99)"/><path d="M668.56,539.89v-5.68a3.39,3.39,0,0,0-.35-1.76,1.31,1.31,0,0,0-1.19-.54,1.86,1.86,0,0,0-1.25.43,2.42,2.42,0,0,0-.73,1.07v6.48h-2.6v-10h2.06l.3,1.32h.08a4.26,4.26,0,0,1,1.22-1.12,3.63,3.63,0,0,1,2-.48,4.16,4.16,0,0,1,1.32.2,2.19,2.19,0,0,1,1,.66,2.92,2.92,0,0,1,.6,1.25,8.29,8.29,0,0,1,.2,1.95v6.22Z" transform="translate(-102.3 -216.99)"/><path class="cls-2" d="M636.91,429.6q-2.28,32.32-2.06,64.76.06,9.12.32,18.22c.05,1.72,4,1.94,4,.21q-.92-32.44.65-64.81.45-9.09,1.09-18.17C641,428.09,637,427.89,636.91,429.6Z" transform="translate(-102.3 -216.99)"/><path class="cls-2" d="M625.36,507.5a32.94,32.94,0,0,1,9.79,6.6,2.69,2.69,0,0,0,3.12.44,46.09,46.09,0,0,0,10.52-7.89c1.38-1.42-2-2.94-3.38-1.53a42.48,42.48,0,0,1-9.86,7.38l3.12.44a37.25,37.25,0,0,0-11.17-7.64c-2.17-1-4.3,1.21-2.13,2.2Z" transform="translate(-102.3 -216.99)"/><path d="M308.47,319.54l.26-2.36h-.1l-.73,1.9-2.54,4.44h-.74L302,319.06l-.75-1.88h-.09l.34,2.34v6.19h-2.21v-11.9h2.13l3.18,5.44.56,1.36h.07l.51-1.39,3-5.41h2.1v11.9h-2.33Z" transform="translate(-102.3 -216.99)"/><path d="M314.92,317.21V322a3.47,3.47,0,0,0,.24,1.5,1,1,0,0,0,1,.45,1.51,1.51,0,0,0,1.05-.37,2.34,2.34,0,0,0,.62-.92v-5.49H320v5.92a12.44,12.44,0,0,0,.07,1.37,8,8,0,0,0,.2,1.21h-1.66l-.4-1.26h-.06a3.19,3.19,0,0,1-1.09,1.07,3.08,3.08,0,0,1-1.65.43,3.77,3.77,0,0,1-1.16-.17,1.89,1.89,0,0,1-.85-.56,2.56,2.56,0,0,1-.51-1.06,6.42,6.42,0,0,1-.18-1.66v-5.29Z" transform="translate(-102.3 -216.99)"/><path d="M324.22,322.85a1.88,1.88,0,0,0,.15.87.51.51,0,0,0,.49.27,2.6,2.6,0,0,0,.4,0,2.34,2.34,0,0,0,.49-.15l.23,1.73a4.23,4.23,0,0,1-.83.27A4.91,4.91,0,0,1,324,326a2.15,2.15,0,0,1-1.47-.45A1.9,1.9,0,0,1,322,324v-10.2h2.21Z" transform="translate(-102.3 -216.99)"/><path d="M326.05,317.21h1.17v-1.6l2.21-.63v2.23h2.08v1.87h-2.08v3.26a3.21,3.21,0,0,0,.18,1.27.67.67,0,0,0,.67.38,2.49,2.49,0,0,0,.59-.06,4.32,4.32,0,0,0,.55-.21l.39,1.7a5.76,5.76,0,0,1-1.07.38,5.13,5.13,0,0,1-1.24.15,2.23,2.23,0,0,1-1.72-.6,2.91,2.91,0,0,1-.56-2v-4.29h-1.17Z" transform="translate(-102.3 -216.99)"/><path d="M332.75,314.81a1.12,1.12,0,0,1,.37-.84,1.41,1.41,0,0,1,1-.35,1.52,1.52,0,0,1,1,.35,1.09,1.09,0,0,1,.4.84,1,1,0,0,1-.4.83,1.56,1.56,0,0,1-1,.33,1.45,1.45,0,0,1-1-.33A1.06,1.06,0,0,1,332.75,314.81Zm.32,2.4h2.21v8.5h-2.21Z" transform="translate(-102.3 -216.99)"/><path d="M337.44,317.21h1.62l.25,1h.07a2.71,2.71,0,0,1,1.05-1,3.26,3.26,0,0,1,1.47-.31,2.87,2.87,0,0,1,2.39,1,5.24,5.24,0,0,1,.8,3.26,7,7,0,0,1-.25,2,4.19,4.19,0,0,1-.76,1.49,3.31,3.31,0,0,1-1.22.94,4.56,4.56,0,0,1-2.53.24,3.07,3.07,0,0,1-.68-.24v3.48h-2.21Zm3.79,1.63a1.45,1.45,0,0,0-1,.33,2.12,2.12,0,0,0-.57,1v3.54a2.07,2.07,0,0,0,.52.3,2.14,2.14,0,0,0,.74.11,1.64,1.64,0,0,0,1.43-.67,4,4,0,0,0,.47-2.22,3.3,3.3,0,0,0-.37-1.73A1.31,1.31,0,0,0,341.23,318.84Z" transform="translate(-102.3 -216.99)"/><path d="M348.9,322.85a1.88,1.88,0,0,0,.15.87.53.53,0,0,0,.5.27,2.56,2.56,0,0,0,.39,0,2,2,0,0,0,.49-.15l.24,1.73a4.14,4.14,0,0,1-.84.27,4.89,4.89,0,0,1-1.15.14,2.16,2.16,0,0,1-1.48-.45,1.9,1.9,0,0,1-.51-1.49v-10.2h2.21Z" transform="translate(-102.3 -216.99)"/><path d="M358.42,325a4.39,4.39,0,0,1-1.39.69,5.94,5.94,0,0,1-1.86.28,3.62,3.62,0,0,1-3-1.2,5.19,5.19,0,0,1-1-3.29,4.73,4.73,0,0,1,1.07-3.37,4,4,0,0,1,3-1.12,4.85,4.85,0,0,1,1.26.17,3.05,3.05,0,0,1,1.09.56,2.83,2.83,0,0,1,.76,1.06,4.17,4.17,0,0,1,.29,1.65,6.92,6.92,0,0,1,0,.76c0,.27-.07.56-.13.85h-5.1a2.57,2.57,0,0,0,.55,1.62,2.15,2.15,0,0,0,1.63.54,3.52,3.52,0,0,0,1.25-.21,3.79,3.79,0,0,0,.84-.43Zm-3.16-6.24a1.55,1.55,0,0,0-1.29.52,2.68,2.68,0,0,0-.5,1.38h3.16a2.07,2.07,0,0,0-.28-1.41A1.25,1.25,0,0,0,355.26,318.74Z" transform="translate(-102.3 -216.99)"/><path d="M361.82,321.36l-2.55-4.15h2.63L363,319l.48,1.19L364,319l1.15-1.82h2.4L365,321.29l2.74,4.42h-2.57l-1.31-2-.51-1.26-.54,1.26-1.31,2h-2.41Z" transform="translate(-102.3 -216.99)"/><path d="M268.29,343.48h-3.66l-.9,2.63H261.4l4.29-12h1.71l4.29,12h-2.45Zm-3.06-1.87h2.55l-.89-2.66-.35-1.87h-.09l-.36,1.89Z" transform="translate(-102.3 -216.99)"/><path d="M274.78,337.61v4.83a3.22,3.22,0,0,0,.25,1.49,1,1,0,0,0,1,.46,1.47,1.47,0,0,0,1-.37,2.24,2.24,0,0,0,.62-.92v-5.49h2.21v5.92c0,.46,0,.92.07,1.36a7.91,7.91,0,0,0,.21,1.22h-1.67l-.39-1.26H278a3.11,3.11,0,0,1-1.09,1.07,3,3,0,0,1-1.65.43,3.71,3.71,0,0,1-1.15-.17,1.84,1.84,0,0,1-.85-.56,2.63,2.63,0,0,1-.52-1.06,6.42,6.42,0,0,1-.18-1.66v-5.29Z" transform="translate(-102.3 -216.99)"/><path d="M280.92,337.61h1.17V336l2.21-.63v2.23h2.07v1.87H284.3v3.26a3.21,3.21,0,0,0,.18,1.27.66.66,0,0,0,.67.38,2.55,2.55,0,0,0,.59-.06,5,5,0,0,0,.55-.21l.39,1.7a6,6,0,0,1-1.07.38,5.19,5.19,0,0,1-1.24.15,2.26,2.26,0,0,1-1.73-.6,2.92,2.92,0,0,1-.55-2v-4.28h-1.17Z" transform="translate(-102.3 -216.99)"/><path d="M287.24,341.86a4.73,4.73,0,0,1,1.06-3.32,3.75,3.75,0,0,1,2.95-1.17,4.37,4.37,0,0,1,1.77.33,3.23,3.23,0,0,1,1.24.9A3.92,3.92,0,0,1,295,340a6.3,6.3,0,0,1,.25,1.84,4.77,4.77,0,0,1-1.05,3.32,3.74,3.74,0,0,1-2.95,1.17,4.46,4.46,0,0,1-1.76-.32,3.4,3.4,0,0,1-1.25-.91,3.79,3.79,0,0,1-.75-1.42A6.3,6.3,0,0,1,287.24,341.86Zm2.28,0a4.9,4.9,0,0,0,.1,1,2.92,2.92,0,0,0,.31.83,1.4,1.4,0,0,0,.53.55,1.54,1.54,0,0,0,.79.2,1.47,1.47,0,0,0,1.3-.63,3.66,3.66,0,0,0,.42-2,4,4,0,0,0-.39-1.9,1.38,1.38,0,0,0-1.33-.72,1.51,1.51,0,0,0-1.27.61A3.39,3.39,0,0,0,289.52,341.86Z" transform="translate(-102.3 -216.99)"/><path d="M301.61,346.11v-4.62a4.61,4.61,0,0,0-.22-1.67.91.91,0,0,0-.92-.49,1.37,1.37,0,0,0-.94.31,1.93,1.93,0,0,0-.54.81v5.66h-2.21v-8.5h1.72l.25,1.12h.07a3.91,3.91,0,0,1,1-1,2.76,2.76,0,0,1,1.56-.41,2.43,2.43,0,0,1,1.33.33,2.13,2.13,0,0,1,.81,1.12,3.18,3.18,0,0,1,1-1.06,2.7,2.7,0,0,1,1.48-.39,4,4,0,0,1,1.22.17,1.71,1.71,0,0,1,.81.59,2.84,2.84,0,0,1,.47,1.11,8.71,8.71,0,0,1,.15,1.77v5.1h-2.21v-4.78a4.09,4.09,0,0,0-.21-1.5.91.91,0,0,0-.94-.5,1.38,1.38,0,0,0-.95.32,2,2,0,0,0-.51.88v5.58Z" transform="translate(-102.3 -216.99)"/><path d="M310.41,338.1a7.61,7.61,0,0,1,1.62-.48,10.25,10.25,0,0,1,2-.18,4.51,4.51,0,0,1,1.48.21,2.14,2.14,0,0,1,1.44,1.54,5.08,5.08,0,0,1,.14,1.23c0,.49,0,1-.05,1.5s-.05,1-.06,1.49,0,1,0,1.42a5.45,5.45,0,0,0,.26,1.3h-1.8l-.36-1.18H315a3,3,0,0,1-.95.91,2.81,2.81,0,0,1-1.55.39,3,3,0,0,1-1.07-.18,2.37,2.37,0,0,1-.82-.51,2.35,2.35,0,0,1-.53-.78,2.73,2.73,0,0,1-.18-1,2.34,2.34,0,0,1,.34-1.31,2.55,2.55,0,0,1,1-.87,5,5,0,0,1,1.56-.46,11.91,11.91,0,0,1,2-.08,2.18,2.18,0,0,0-.13-1.36q-.26-.42-1.14-.42a7,7,0,0,0-1.4.14,5.47,5.47,0,0,0-1.22.35Zm2.81,6.33a1.68,1.68,0,0,0,1-.3,2.15,2.15,0,0,0,.58-.64v-1.1a5.74,5.74,0,0,0-1,0,3.58,3.58,0,0,0-.86.15,1.57,1.57,0,0,0-.6.34.8.8,0,0,0-.22.56,1,1,0,0,0,.28.74A1.09,1.09,0,0,0,313.22,344.43Z" transform="translate(-102.3 -216.99)"/><path d="M318,337.61h1.17V336l2.21-.63v2.23h2.08v1.87h-2.08v3.26a3.21,3.21,0,0,0,.18,1.27.67.67,0,0,0,.67.38,2.49,2.49,0,0,0,.59-.06,4.32,4.32,0,0,0,.55-.21l.39,1.7a5.76,5.76,0,0,1-1.07.38,5.13,5.13,0,0,1-1.24.15,2.22,2.22,0,0,1-1.72-.6,2.92,2.92,0,0,1-.56-2v-4.28H318Z" transform="translate(-102.3 -216.99)"/><path d="M331.54,345.38a4.44,4.44,0,0,1-1.38.69,6.34,6.34,0,0,1-1.86.28,3.61,3.61,0,0,1-3-1.2,5.13,5.13,0,0,1-1-3.29,4.69,4.69,0,0,1,1.07-3.37,4,4,0,0,1,3-1.12,4.71,4.71,0,0,1,1.25.17,3.05,3.05,0,0,1,1.09.56,2.85,2.85,0,0,1,.77,1.06,4.17,4.17,0,0,1,.29,1.65,7.07,7.07,0,0,1-.05.76c0,.27-.07.56-.12.85h-5.1a2.46,2.46,0,0,0,.55,1.62,2.11,2.11,0,0,0,1.62.54,3.49,3.49,0,0,0,1.25-.21,3.21,3.21,0,0,0,.84-.44Zm-3.16-6.24a1.53,1.53,0,0,0-1.28.52,2.48,2.48,0,0,0-.5,1.38h3.16a2.19,2.19,0,0,0-.28-1.41A1.25,1.25,0,0,0,328.38,339.14Z" transform="translate(-102.3 -216.99)"/><path d="M340.6,343.12c0,.47,0,.95,0,1.43a12.1,12.1,0,0,0,.15,1.58h-1.58l-.3-1.11h-.07a2.51,2.51,0,0,1-1,1,2.88,2.88,0,0,1-1.5.37,3,3,0,0,1-2.48-1.06A5.05,5.05,0,0,1,333,342a5.23,5.23,0,0,1,1-3.39,3.51,3.51,0,0,1,2.89-1.2,5,5,0,0,1,.86.06,3.28,3.28,0,0,1,.68.19v-3.45h2.21Zm-3.75,1.36a1.54,1.54,0,0,0,1-.32,1.67,1.67,0,0,0,.52-.91v-3.6a1.63,1.63,0,0,0-.52-.28,2.6,2.6,0,0,0-.75-.09,1.63,1.63,0,0,0-1.4.63,3.71,3.71,0,0,0-.47,2.15,3.59,3.59,0,0,0,.38,1.76A1.31,1.31,0,0,0,336.85,344.48Z" transform="translate(-102.3 -216.99)"/><path d="M346.79,339.91h4.44v5.3a4.47,4.47,0,0,1-1.71.87,7.46,7.46,0,0,1-2,.27,6.09,6.09,0,0,1-2.12-.36,4.45,4.45,0,0,1-1.69-1.11,5.28,5.28,0,0,1-1.12-1.93,8.55,8.55,0,0,1-.41-2.79,7.57,7.57,0,0,1,.48-2.86,5.38,5.38,0,0,1,1.28-1.92,4.77,4.77,0,0,1,1.78-1.08,6.21,6.21,0,0,1,2-.33,9.43,9.43,0,0,1,1.79.15,8.51,8.51,0,0,1,1.24.33l-.48,1.95a4.85,4.85,0,0,0-.95-.26,8.21,8.21,0,0,0-1.34-.09,3.9,3.9,0,0,0-1.35.22,2.71,2.71,0,0,0-1.06.72,3.49,3.49,0,0,0-.7,1.28,6.58,6.58,0,0,0-.24,1.91,6.22,6.22,0,0,0,.24,1.84,3.37,3.37,0,0,0,.66,1.28,2.63,2.63,0,0,0,1,.74,3.12,3.12,0,0,0,1.22.23,3.24,3.24,0,0,0,.87-.11,1.87,1.87,0,0,0,.71-.33v-2.24l-2.57-.27Z" transform="translate(-102.3 -216.99)"/><path d="M359.7,345.38a4.5,4.5,0,0,1-1.39.69,6.24,6.24,0,0,1-1.86.28,3.61,3.61,0,0,1-3-1.2,5.13,5.13,0,0,1-.95-3.29,4.69,4.69,0,0,1,1.07-3.37,4,4,0,0,1,3-1.12,4.85,4.85,0,0,1,1.26.17,3,3,0,0,1,1.08.56,2.75,2.75,0,0,1,.77,1.06,4.17,4.17,0,0,1,.29,1.65,7.07,7.07,0,0,1-.05.76c0,.27-.07.56-.12.85h-5.1a2.51,2.51,0,0,0,.55,1.62,2.12,2.12,0,0,0,1.62.54,3.49,3.49,0,0,0,1.25-.21,3.21,3.21,0,0,0,.84-.44Zm-3.17-6.24a1.54,1.54,0,0,0-1.28.52,2.48,2.48,0,0,0-.5,1.38h3.16a2.13,2.13,0,0,0-.28-1.41A1.25,1.25,0,0,0,356.53,339.14Z" transform="translate(-102.3 -216.99)"/><path d="M366.73,346.11v-4.83a2.91,2.91,0,0,0-.29-1.49,1.12,1.12,0,0,0-1-.46,1.6,1.6,0,0,0-1.06.36,2.12,2.12,0,0,0-.62.91v5.51h-2.21v-8.5h1.75l.26,1.12h.06a3.82,3.82,0,0,1,1-1,3.11,3.11,0,0,1,1.67-.41,3.51,3.51,0,0,1,1.12.17,1.91,1.91,0,0,1,.83.56,2.49,2.49,0,0,1,.51,1.07,6.48,6.48,0,0,1,.17,1.65v5.29Z" transform="translate(-102.3 -216.99)"/><path d="M370.39,341.86a4.77,4.77,0,0,1,1.05-3.32,3.78,3.78,0,0,1,3-1.17,4.37,4.37,0,0,1,1.77.33,3.23,3.23,0,0,1,1.24.9,4.08,4.08,0,0,1,.74,1.42,6.65,6.65,0,0,1,.25,1.84,4.77,4.77,0,0,1-1,3.32,3.75,3.75,0,0,1-3,1.17,4.55,4.55,0,0,1-1.77-.32,3.48,3.48,0,0,1-1.25-.91,4.1,4.1,0,0,1-.75-1.42A6.66,6.66,0,0,1,370.39,341.86Zm2.28,0a4.9,4.9,0,0,0,.1,1,3.25,3.25,0,0,0,.3.83,1.5,1.5,0,0,0,.54.55,1.52,1.52,0,0,0,.79.2,1.44,1.44,0,0,0,1.29-.63,3.56,3.56,0,0,0,.43-2,4,4,0,0,0-.39-1.9,1.39,1.39,0,0,0-1.33-.72,1.54,1.54,0,0,0-1.28.61A3.47,3.47,0,0,0,372.67,341.86Z" transform="translate(-102.3 -216.99)"/><path d="M384.75,346.11v-4.62a4.4,4.4,0,0,0-.22-1.67.9.9,0,0,0-.92-.49,1.36,1.36,0,0,0-.93.31,1.93,1.93,0,0,0-.54.81v5.66h-2.21v-8.5h1.71l.26,1.12H382a4.12,4.12,0,0,1,1-1,2.74,2.74,0,0,1,1.56-.41,2.45,2.45,0,0,1,1.33.33,2.18,2.18,0,0,1,.81,1.12,3.09,3.09,0,0,1,1-1.06,2.7,2.7,0,0,1,1.48-.39,3.83,3.83,0,0,1,1.21.17,1.69,1.69,0,0,1,.82.59,2.84,2.84,0,0,1,.47,1.11,8.71,8.71,0,0,1,.15,1.77v5.1h-2.21v-4.78a4.09,4.09,0,0,0-.21-1.5.92.92,0,0,0-.94-.5,1.36,1.36,0,0,0-.95.32,2.06,2.06,0,0,0-.52.88v5.58Z" transform="translate(-102.3 -216.99)"/><path d="M393.49,335.21a1.09,1.09,0,0,1,.37-.84,1.41,1.41,0,0,1,1-.35,1.52,1.52,0,0,1,1,.35,1.06,1.06,0,0,1,.4.84,1,1,0,0,1-.4.83,1.56,1.56,0,0,1-1,.33,1.45,1.45,0,0,1-1-.33A1.06,1.06,0,0,1,393.49,335.21Zm.32,2.4H396v8.5h-2.21Z" transform="translate(-102.3 -216.99)"/><path d="M404.2,345.58a3.68,3.68,0,0,1-1.23.57,5.7,5.7,0,0,1-1.49.2,4.19,4.19,0,0,1-1.72-.32,3,3,0,0,1-1.15-.91,3.77,3.77,0,0,1-.64-1.42,8.11,8.11,0,0,1-.2-1.84,5.07,5.07,0,0,1,1-3.32,3.47,3.47,0,0,1,2.83-1.17,5.58,5.58,0,0,1,1.5.16,5,5,0,0,1,1,.39l-.53,1.8a4.29,4.29,0,0,0-.77-.29,3.38,3.38,0,0,0-.88-.1,1.67,1.67,0,0,0-1.39.6,3.11,3.11,0,0,0-.48,1.93,3.92,3.92,0,0,0,.12,1,2.35,2.35,0,0,0,.36.8,1.62,1.62,0,0,0,.62.54,1.91,1.91,0,0,0,.89.19,2.64,2.64,0,0,0,.95-.14,3.27,3.27,0,0,0,.7-.35Z" transform="translate(-102.3 -216.99)"/><path d="M290.21,354.61h7.05v2.07h-4.72v2.78h4.3v2.07h-4.3v2.91h4.81v2.07h-7.14Z" transform="translate(-102.3 -216.99)"/><path d="M304.23,366.51v-4.83a2.91,2.91,0,0,0-.29-1.49,1.12,1.12,0,0,0-1-.46,1.6,1.6,0,0,0-1.06.36,2.12,2.12,0,0,0-.62.91v5.51H299V358h1.75l.26,1.12h.06a3.82,3.82,0,0,1,1-.95,3.11,3.11,0,0,1,1.67-.41,3.51,3.51,0,0,1,1.12.17,1.91,1.91,0,0,1,.83.56,2.49,2.49,0,0,1,.51,1.07,6.48,6.48,0,0,1,.17,1.65v5.29Z" transform="translate(-102.3 -216.99)"/><path d="M315.49,366.51a3.43,3.43,0,0,1-1,2.73,4.14,4.14,0,0,1-2.8.87,8.21,8.21,0,0,1-1.93-.17,4.81,4.81,0,0,1-1.06-.35l.46-1.75c.26.1.56.2.91.3a4.25,4.25,0,0,0,1.28.16,2,2,0,0,0,1.57-.51,2.11,2.11,0,0,0,.42-1.4v-.54h-.07a2.48,2.48,0,0,1-2.11.8,2.92,2.92,0,0,1-2.45-1,5.14,5.14,0,0,1-.81-3.2A4.88,4.88,0,0,1,309,359a4.08,4.08,0,0,1,3.16-1.17,11.33,11.33,0,0,1,1.94.15,7.72,7.72,0,0,1,1.41.36Zm-3.74-1.63a1.52,1.52,0,0,0,1-.29,1.86,1.86,0,0,0,.54-.87V359.9a3.35,3.35,0,0,0-1.31-.22,1.57,1.57,0,0,0-1.33.63,3.45,3.45,0,0,0-.47,2,3.58,3.58,0,0,0,.4,1.88A1.33,1.33,0,0,0,311.75,364.88Z" transform="translate(-102.3 -216.99)"/><path d="M317.29,355.61a1.14,1.14,0,0,1,.36-.84,1.43,1.43,0,0,1,1-.35,1.54,1.54,0,0,1,1,.35,1.07,1.07,0,0,1,.4.84,1,1,0,0,1-.4.83,1.58,1.58,0,0,1-1,.33,1.47,1.47,0,0,1-1-.33A1.08,1.08,0,0,1,317.29,355.61Zm.32,2.4h2.21v8.5h-2.21Z" transform="translate(-102.3 -216.99)"/><path d="M327.18,366.51v-4.83a2.79,2.79,0,0,0-.3-1.49,1.09,1.09,0,0,0-1-.46,1.6,1.6,0,0,0-1.06.36,2,2,0,0,0-.62.91v5.51H322V358h1.75l.26,1.12h.06a3.68,3.68,0,0,1,1-.95,3.11,3.11,0,0,1,1.67-.41,3.51,3.51,0,0,1,1.12.17,1.91,1.91,0,0,1,.83.56,2.49,2.49,0,0,1,.51,1.07,6.48,6.48,0,0,1,.17,1.65v5.29Z" transform="translate(-102.3 -216.99)"/><path d="M338.05,365.78a4.5,4.5,0,0,1-1.39.69,5.94,5.94,0,0,1-1.86.28,3.61,3.61,0,0,1-3-1.2,5.13,5.13,0,0,1-1-3.29,4.69,4.69,0,0,1,1.07-3.37,4,4,0,0,1,3-1.12,4.85,4.85,0,0,1,1.26.17,3,3,0,0,1,1.08.56,2.75,2.75,0,0,1,.77,1.06,4.17,4.17,0,0,1,.29,1.65,7.07,7.07,0,0,1-.05.76c0,.27-.07.56-.12.85h-5.1a2.51,2.51,0,0,0,.55,1.62,2.12,2.12,0,0,0,1.62.54,3.49,3.49,0,0,0,1.25-.21,3.21,3.21,0,0,0,.84-.44Zm-3.17-6.24a1.54,1.54,0,0,0-1.28.52,2.51,2.51,0,0,0-.5,1.38h3.16A2.13,2.13,0,0,0,336,360,1.27,1.27,0,0,0,334.88,359.54Z" transform="translate(-102.3 -216.99)"/><path d="M346.6,365.78a4.5,4.5,0,0,1-1.39.69,5.94,5.94,0,0,1-1.86.28,3.61,3.61,0,0,1-3-1.2,5.19,5.19,0,0,1-.95-3.29,4.73,4.73,0,0,1,1.07-3.37,4,4,0,0,1,3-1.12,4.85,4.85,0,0,1,1.26.17,3,3,0,0,1,1.08.56,2.75,2.75,0,0,1,.77,1.06,4.17,4.17,0,0,1,.29,1.65c0,.23,0,.49,0,.76s-.08.56-.13.85h-5.1a2.51,2.51,0,0,0,.55,1.62,2.12,2.12,0,0,0,1.62.54,3.59,3.59,0,0,0,2.1-.65Zm-3.17-6.24a1.54,1.54,0,0,0-1.28.52,2.59,2.59,0,0,0-.5,1.38h3.16a2.13,2.13,0,0,0-.28-1.41A1.27,1.27,0,0,0,343.43,359.54Z" transform="translate(-102.3 -216.99)"/><path d="M353.12,360.08a2.93,2.93,0,0,0-.95-.18,1.52,1.52,0,0,0-1,.31,1.5,1.5,0,0,0-.54.81v5.49h-2.21V358h1.72l.25,1.12h.07a2.3,2.3,0,0,1,.78-1,2.06,2.06,0,0,1,1.16-.34,3.36,3.36,0,0,1,1,.19Z" transform="translate(-102.3 -216.99)"/><path d="M354.28,355.61a1.11,1.11,0,0,1,.37-.84,1.41,1.41,0,0,1,1-.35,1.52,1.52,0,0,1,1,.35,1.07,1.07,0,0,1,.4.84,1,1,0,0,1-.4.83,1.56,1.56,0,0,1-1,.33,1.45,1.45,0,0,1-1-.33A1.06,1.06,0,0,1,354.28,355.61Zm.32,2.4h2.21v8.5H354.6Z" transform="translate(-102.3 -216.99)"/><path d="M364.17,366.51v-4.83a2.91,2.91,0,0,0-.29-1.49,1.12,1.12,0,0,0-1-.46,1.6,1.6,0,0,0-1.06.36,2.12,2.12,0,0,0-.62.91v5.51H359V358h1.75l.26,1.12h.07a3.64,3.64,0,0,1,1-.95,3.11,3.11,0,0,1,1.67-.41,3.51,3.51,0,0,1,1.12.17,1.91,1.91,0,0,1,.83.56,2.49,2.49,0,0,1,.51,1.07,6.48,6.48,0,0,1,.17,1.65v5.29Z" transform="translate(-102.3 -216.99)"/><path d="M375.43,366.51a3.43,3.43,0,0,1-1,2.73,4.12,4.12,0,0,1-2.8.87,8.21,8.21,0,0,1-1.93-.17,5,5,0,0,1-1.06-.35l.46-1.75c.26.1.56.2.91.3a4.25,4.25,0,0,0,1.28.16,2,2,0,0,0,1.57-.51,2.11,2.11,0,0,0,.42-1.4v-.54h-.07a2.48,2.48,0,0,1-2.11.8,2.92,2.92,0,0,1-2.45-1,5.14,5.14,0,0,1-.81-3.2,4.88,4.88,0,0,1,1.09-3.45,4.1,4.1,0,0,1,3.16-1.17A11.33,11.33,0,0,1,374,358a7.72,7.72,0,0,1,1.41.36Zm-3.74-1.63a1.52,1.52,0,0,0,1-.29,1.86,1.86,0,0,0,.54-.87V359.9a3.35,3.35,0,0,0-1.31-.22,1.57,1.57,0,0,0-1.33.63,3.53,3.53,0,0,0-.47,2,3.58,3.58,0,0,0,.4,1.88A1.33,1.33,0,0,0,371.69,364.88Z" transform="translate(-102.3 -216.99)"/><path d="M543.58,576.38H543v5.08h-2.33v-11.9H543v5.27l.54-.24,3.28-5h2.65l-3.47,5-.91.65,1,.66,4,5.59H547.1Z" transform="translate(-102.3 -216.99)"/><path d="M549.87,575.51a7,7,0,0,1,1.31-4.58,4.55,4.55,0,0,1,3.74-1.61,5.11,5.11,0,0,1,2.22.45,4.13,4.13,0,0,1,1.58,1.25,5.5,5.5,0,0,1,.94,2,9.9,9.9,0,0,1,.31,2.53,7,7,0,0,1-1.32,4.58,4.56,4.56,0,0,1-3.73,1.61,5.37,5.37,0,0,1-2.25-.44A4.22,4.22,0,0,1,551.1,580a5.75,5.75,0,0,1-.93-2A9.86,9.86,0,0,1,549.87,575.51Zm2.45,0a8.53,8.53,0,0,0,.15,1.66,4.23,4.23,0,0,0,.47,1.3,2.34,2.34,0,0,0,.8.85,2.39,2.39,0,0,0,3.1-.66,5.66,5.66,0,0,0,.68-3.15,8.16,8.16,0,0,0-.15-1.61,4.13,4.13,0,0,0-.45-1.31,2.28,2.28,0,0,0-.8-.88,2.4,2.4,0,0,0-3.12.68A5.6,5.6,0,0,0,552.32,575.51Z" transform="translate(-102.3 -216.99)"/><path d="M565.25,577.21a4.75,4.75,0,0,1,1.06-3.32,3.77,3.77,0,0,1,3-1.17,4.37,4.37,0,0,1,1.77.33,3.25,3.25,0,0,1,1.24.91,3.77,3.77,0,0,1,.74,1.42,6.18,6.18,0,0,1,.25,1.83,4.82,4.82,0,0,1-1,3.33,3.77,3.77,0,0,1-3,1.16,4.5,4.5,0,0,1-1.76-.32,3.4,3.4,0,0,1-1.25-.91,3.72,3.72,0,0,1-.75-1.42A6.3,6.3,0,0,1,565.25,577.21Zm2.28,0a4.83,4.83,0,0,0,.1,1,2.81,2.81,0,0,0,.31.83,1.4,1.4,0,0,0,.53.55,1.54,1.54,0,0,0,.79.2,1.47,1.47,0,0,0,1.3-.63,3.66,3.66,0,0,0,.42-2,4,4,0,0,0-.39-1.89,1.37,1.37,0,0,0-1.33-.73,1.51,1.51,0,0,0-1.27.62A3.33,3.33,0,0,0,567.53,577.21Z" transform="translate(-102.3 -216.99)"/><path d="M573.8,573H575v-.47a3.31,3.31,0,0,1,.68-2.34,2.58,2.58,0,0,1,2-.72,6.64,6.64,0,0,1,2.26.32l-.43,1.77a4.09,4.09,0,0,0-.68-.18,4.21,4.21,0,0,0-.62,0,1.16,1.16,0,0,0-.54.1.63.63,0,0,0-.29.31,1.81,1.81,0,0,0-.12.53c0,.21,0,.45,0,.72h1.87v1.87h-1.87v6.63H575v-6.63H573.8Z" transform="translate(-102.3 -216.99)"/><path d="M584.39,569.56h7.06v2.08h-4.73v2.94h4.36v2.07h-4.36v4.81h-2.33Z" transform="translate(-102.3 -216.99)"/><path d="M592.93,573.46a7,7,0,0,1,1.61-.49,10.43,10.43,0,0,1,2-.18A4.51,4.51,0,0,1,598,573a2.36,2.36,0,0,1,.94.61,2.19,2.19,0,0,1,.49.93,4.66,4.66,0,0,1,.15,1.23c0,.5,0,1,0,1.5s-.06,1-.06,1.49,0,1,0,1.42a5,5,0,0,0,.26,1.3h-1.81l-.35-1.17h-.09a3.15,3.15,0,0,1-.94.91,2.91,2.91,0,0,1-1.56.38,3,3,0,0,1-1.07-.18,2.24,2.24,0,0,1-.81-.51,2.21,2.21,0,0,1-.53-.78,2.53,2.53,0,0,1-.19-1,2.38,2.38,0,0,1,.35-1.32,2.51,2.51,0,0,1,1-.87,5.19,5.19,0,0,1,1.57-.46,11,11,0,0,1,2-.07,2.2,2.2,0,0,0-.14-1.37q-.26-.42-1.14-.42a7.81,7.81,0,0,0-1.4.14,5.36,5.36,0,0,0-1.21.35Zm2.8,6.32a1.69,1.69,0,0,0,1.06-.3,2.15,2.15,0,0,0,.58-.64v-1.1a7,7,0,0,0-1,0,3.9,3.9,0,0,0-.85.16,1.44,1.44,0,0,0-.6.33.77.77,0,0,0-.22.57,1,1,0,0,0,.28.74A1.1,1.1,0,0,0,595.73,579.78Z" transform="translate(-102.3 -216.99)"/><path d="M608.64,578.47c0,.48,0,.95,0,1.43a10.7,10.7,0,0,0,.16,1.58h-1.58l-.31-1.11h-.07a2.51,2.51,0,0,1-1,1,2.88,2.88,0,0,1-1.5.37,3.06,3.06,0,0,1-2.48-1.05,5.1,5.1,0,0,1-.89-3.3,5.23,5.23,0,0,1,1-3.39,3.53,3.53,0,0,1,2.89-1.2,5.22,5.22,0,0,1,.87.06,3.66,3.66,0,0,1,.68.19v-3.45h2.21Zm-3.76,1.36a1.53,1.53,0,0,0,1-.31,1.78,1.78,0,0,0,.53-.91V575a1.8,1.8,0,0,0-.53-.28,2.56,2.56,0,0,0-.75-.09,1.63,1.63,0,0,0-1.4.63,3.75,3.75,0,0,0-.47,2.16,3.57,3.57,0,0,0,.38,1.75A1.31,1.31,0,0,0,604.88,579.83Z" transform="translate(-102.3 -216.99)"/><path d="M610.62,569.68l.85-.13.9-.09.87-.05.78,0a9,9,0,0,1,1.65.15,4.66,4.66,0,0,1,1.44.53,2.73,2.73,0,0,1,1,1,3.26,3.26,0,0,1,.38,1.64,3.84,3.84,0,0,1-.68,2.38A3.52,3.52,0,0,1,616,576.4l.84.52,2.72,4.54h-2.69l-2.7-4.66-1.23-.22v4.88h-2.33Zm3.57,1.79h-.7a3,3,0,0,0-.54.07V575h1a2.52,2.52,0,0,0,1.55-.44,1.73,1.73,0,0,0,.57-1.46,1.53,1.53,0,0,0-.47-1.2A2,2,0,0,0,614.19,571.47Z" transform="translate(-102.3 -216.99)"/><path d="M662.23,563.55h7v2.08h-4.72v2.94h4.35v2.07h-4.35v4.81h-2.33Z" transform="translate(-102.3 -216.99)"/><path d="M670.76,567.45a7.05,7.05,0,0,1,1.62-.49,10.25,10.25,0,0,1,2-.18,4.44,4.44,0,0,1,1.48.22,2.14,2.14,0,0,1,1.44,1.54,5.05,5.05,0,0,1,.14,1.22c0,.5,0,1,0,1.5s-.05,1-.06,1.49,0,1,.05,1.42a5,5,0,0,0,.25,1.3h-1.8l-.36-1.17h-.08a3.19,3.19,0,0,1-1,.91,2.89,2.89,0,0,1-1.55.38,3,3,0,0,1-1.07-.18,2.37,2.37,0,0,1-.82-.51,2.35,2.35,0,0,1-.53-.78,2.71,2.71,0,0,1-.18-1,2.4,2.4,0,0,1,.34-1.32,2.55,2.55,0,0,1,1-.87,5,5,0,0,1,1.56-.46,11,11,0,0,1,2-.07,2.21,2.21,0,0,0-.13-1.37q-.25-.42-1.14-.42a8,8,0,0,0-1.41.14,5,5,0,0,0-1.21.36Zm2.81,6.32a1.68,1.68,0,0,0,1-.3,2,2,0,0,0,.58-.63v-1.11a6.89,6.89,0,0,0-1,0,4.12,4.12,0,0,0-.86.16,1.45,1.45,0,0,0-.6.34.77.77,0,0,0-.22.56,1,1,0,0,0,.28.74A1.13,1.13,0,0,0,673.57,573.77Z" transform="translate(-102.3 -216.99)"/><path d="M686.47,572.46c0,.48,0,.95,0,1.43a11.94,11.94,0,0,0,.15,1.58h-1.58l-.31-1.1h-.06a2.74,2.74,0,0,1-1,1,3,3,0,0,1-1.51.36,3.07,3.07,0,0,1-2.48-1.05,5.07,5.07,0,0,1-.88-3.3,5.23,5.23,0,0,1,1-3.38,3.5,3.5,0,0,1,2.89-1.21,5.22,5.22,0,0,1,.87.06,3.46,3.46,0,0,1,.68.19v-3.45h2.21Zm-3.76,1.36a1.53,1.53,0,0,0,1-.31,1.68,1.68,0,0,0,.53-.91V569a1.92,1.92,0,0,0-.53-.28,2.53,2.53,0,0,0-.74-.09,1.64,1.64,0,0,0-1.41.63,3.76,3.76,0,0,0-.46,2.16,3.44,3.44,0,0,0,.38,1.75A1.29,1.29,0,0,0,682.71,573.82Z" transform="translate(-102.3 -216.99)"/><path d="M692.71,567h1.61l.26,1h.07a2.84,2.84,0,0,1,1-1,3.26,3.26,0,0,1,1.47-.3,2.85,2.85,0,0,1,2.4,1,5.28,5.28,0,0,1,.8,3.25,7.07,7.07,0,0,1-.26,2,4.13,4.13,0,0,1-.75,1.48,3.35,3.35,0,0,1-1.23.94,4.08,4.08,0,0,1-1.65.32,4.24,4.24,0,0,1-.87-.07,3.74,3.74,0,0,1-.68-.25v3.48h-2.21Zm3.79,1.64a1.44,1.44,0,0,0-1,.32,2.15,2.15,0,0,0-.57,1v3.53a1.81,1.81,0,0,0,.52.3,1.89,1.89,0,0,0,.74.11,1.64,1.64,0,0,0,1.43-.67,4,4,0,0,0,.47-2.22,3.32,3.32,0,0,0-.37-1.73A1.3,1.3,0,0,0,696.5,568.59Z" transform="translate(-102.3 -216.99)"/><path d="M706.58,569a2.76,2.76,0,0,0-1-.19,1.58,1.58,0,0,0-1,.32,1.51,1.51,0,0,0-.53.8v5.49h-2.21V567h1.72l.25,1.13h.07a2.24,2.24,0,0,1,.78-1,2,2,0,0,1,1.16-.34,3.31,3.31,0,0,1,1,.18Z" transform="translate(-102.3 -216.99)"/><path d="M707.45,571.2a4.79,4.79,0,0,1,1-3.32,3.77,3.77,0,0,1,3-1.16,4.37,4.37,0,0,1,1.77.32,3.25,3.25,0,0,1,1.24.91,3.91,3.91,0,0,1,.74,1.42,6.58,6.58,0,0,1,.25,1.83,4.82,4.82,0,0,1-1.05,3.33,3.78,3.78,0,0,1-2.95,1.16,4.55,4.55,0,0,1-1.77-.32,3.48,3.48,0,0,1-1.25-.91,3.93,3.93,0,0,1-.75-1.42A6.61,6.61,0,0,1,707.45,571.2Zm2.28,0a4.83,4.83,0,0,0,.1,1,3,3,0,0,0,.3.83,1.42,1.42,0,0,0,1.33.75,1.44,1.44,0,0,0,1.29-.63,3.56,3.56,0,0,0,.43-2,4,4,0,0,0-.39-1.89,1.4,1.4,0,0,0-1.33-.72,1.52,1.52,0,0,0-1.28.61A3.46,3.46,0,0,0,709.73,571.2Z" transform="translate(-102.3 -216.99)"/><path d="M716.1,567h1.17v-1.59l2.21-.63V567h2.08v1.87h-2.08v3.27a3.15,3.15,0,0,0,.18,1.26.67.67,0,0,0,.67.39,2.45,2.45,0,0,0,.59-.07,3.55,3.55,0,0,0,.55-.21l.39,1.71a5.79,5.79,0,0,1-1.07.37,5.19,5.19,0,0,1-1.24.15,2.22,2.22,0,0,1-1.72-.6,2.87,2.87,0,0,1-.56-2v-4.29H716.1Z" transform="translate(-102.3 -216.99)"/><path d="M729.63,574.72a4.23,4.23,0,0,1-1.38.69,6,6,0,0,1-1.86.28,3.59,3.59,0,0,1-3-1.2,5.11,5.11,0,0,1-1-3.29,4.68,4.68,0,0,1,1.08-3.36,3.93,3.93,0,0,1,3-1.12,4.45,4.45,0,0,1,1.26.17,2.9,2.9,0,0,1,1.09.56,2.81,2.81,0,0,1,.77,1,4.18,4.18,0,0,1,.28,1.65,7.1,7.1,0,0,1,0,.77c0,.27-.07.55-.13.84h-5.1a2.49,2.49,0,0,0,.56,1.62,2.11,2.11,0,0,0,1.62.54,3.52,3.52,0,0,0,1.25-.21,3.23,3.23,0,0,0,.84-.43Zm-3.16-6.24a1.55,1.55,0,0,0-1.28.52,2.52,2.52,0,0,0-.5,1.39h3.16a2.19,2.19,0,0,0-.28-1.41A1.27,1.27,0,0,0,726.47,568.48Z" transform="translate(-102.3 -216.99)"/><path d="M731.35,564.56a1.12,1.12,0,0,1,.36-.84,1.39,1.39,0,0,1,1-.35,1.49,1.49,0,0,1,1,.35,1.06,1.06,0,0,1,.4.84,1,1,0,0,1-.4.82,1.58,1.58,0,0,1-1,.33,1.47,1.47,0,0,1-1-.33A1.06,1.06,0,0,1,731.35,564.56Zm.32,2.39h2.21v8.5h-2.21Z" transform="translate(-102.3 -216.99)"/><path d="M741.24,575.45v-4.82a3,3,0,0,0-.29-1.5,1.12,1.12,0,0,0-1-.46,1.56,1.56,0,0,0-1.06.37,2,2,0,0,0-.62.91v5.5H736V567h1.75l.26,1.13h.07a3.67,3.67,0,0,1,1-1,3.11,3.11,0,0,1,1.67-.4,3.25,3.25,0,0,1,1.12.17,1.83,1.83,0,0,1,.83.56,2.44,2.44,0,0,1,.51,1.06,6.57,6.57,0,0,1,.17,1.66v5.28Z" transform="translate(-102.3 -216.99)"/><path d="M748.83,573.11a.65.65,0,0,0-.29-.55,3.7,3.7,0,0,0-.72-.37l-.93-.35a3.66,3.66,0,0,1-.94-.49,2.74,2.74,0,0,1-.71-.8,2.34,2.34,0,0,1-.29-1.25,2.42,2.42,0,0,1,.75-1.92,3.17,3.17,0,0,1,2.16-.66,6.79,6.79,0,0,1,1.75.2,5.14,5.14,0,0,1,1.22.46l-.49,1.6q-.39-.15-1-.33a4.48,4.48,0,0,0-1.21-.17c-.65,0-1,.26-1,.77a.55.55,0,0,0,.29.49,3.61,3.61,0,0,0,.71.35l.94.35a4.09,4.09,0,0,1,.93.48,2.57,2.57,0,0,1,.72.78,2.32,2.32,0,0,1,.29,1.22,2.59,2.59,0,0,1-.83,2,3.56,3.56,0,0,1-2.47.74,5.75,5.75,0,0,1-1.69-.23,5.28,5.28,0,0,1-1.29-.53l.61-1.65a5.64,5.64,0,0,0,1,.43,4.25,4.25,0,0,0,1.33.21,1.52,1.52,0,0,0,.79-.18A.7.7,0,0,0,748.83,573.11Z" transform="translate(-102.3 -216.99)"/><path d="M650.93,589.9a7.1,7.1,0,0,1,1.31-4.58,4.54,4.54,0,0,1,3.74-1.6,5.19,5.19,0,0,1,2.23.44,4.14,4.14,0,0,1,1.58,1.26,5.53,5.53,0,0,1,.94,2,9.92,9.92,0,0,1,.3,2.53,7.07,7.07,0,0,1-1.32,4.59,4.55,4.55,0,0,1-3.73,1.6,5.33,5.33,0,0,1-2.24-.44,4,4,0,0,1-1.57-1.26,5.35,5.35,0,0,1-.93-1.95A10,10,0,0,1,650.93,589.9Zm2.45,0a8.53,8.53,0,0,0,.15,1.66,4.4,4.4,0,0,0,.47,1.3,2.37,2.37,0,0,0,.81.85A2.13,2.13,0,0,0,656,594a2.22,2.22,0,0,0,1.92-1,5.58,5.58,0,0,0,.68-3.15,8.25,8.25,0,0,0-.14-1.61A4.69,4.69,0,0,0,658,587a2.44,2.44,0,0,0-.8-.88,2.41,2.41,0,0,0-3.13.68A5.68,5.68,0,0,0,653.38,589.9Z" transform="translate(-102.3 -216.99)"/><path d="M665.45,591.81l.29,1.31h.09l.23-1.35,1.45-4.42h2.38l-3.56,8.59H665l-3.69-8.59h2.57Z" transform="translate(-102.3 -216.99)"/><path d="M677.3,595.12a4.39,4.39,0,0,1-1.39.69,5.94,5.94,0,0,1-1.86.28,3.62,3.62,0,0,1-3-1.2,5.17,5.17,0,0,1-.95-3.29,4.72,4.72,0,0,1,1.07-3.36,4,4,0,0,1,3-1.12,4.45,4.45,0,0,1,1.26.17,2.9,2.9,0,0,1,1.09.56,2.8,2.8,0,0,1,.76,1,4.17,4.17,0,0,1,.29,1.65,6.8,6.8,0,0,1,0,.76c0,.28-.07.56-.13.85h-5.1a2.49,2.49,0,0,0,.55,1.62,2.15,2.15,0,0,0,1.63.54,3.52,3.52,0,0,0,1.25-.21,3.41,3.41,0,0,0,.84-.43Zm-3.16-6.24a1.58,1.58,0,0,0-1.29.52,2.68,2.68,0,0,0-.5,1.39h3.16a2.07,2.07,0,0,0-.28-1.41A1.23,1.23,0,0,0,674.14,588.88Z" transform="translate(-102.3 -216.99)"/><path d="M683.83,589.43a2.76,2.76,0,0,0-1-.19,1.63,1.63,0,0,0-1,.31,1.56,1.56,0,0,0-.54.81v5.49h-2.21v-8.5h1.72l.26,1.13h.06a2.34,2.34,0,0,1,.79-1,2,2,0,0,1,1.15-.34,3.37,3.37,0,0,1,1,.18Z" transform="translate(-102.3 -216.99)"/><path d="M691.9,595.12a4.44,4.44,0,0,1-1.38.69,6,6,0,0,1-1.86.28,3.59,3.59,0,0,1-3-1.2,5.11,5.11,0,0,1-1-3.29,4.72,4.72,0,0,1,1.07-3.36,4,4,0,0,1,3-1.12,4.45,4.45,0,0,1,1.26.17,2.9,2.9,0,0,1,1.09.56,2.69,2.69,0,0,1,.76,1,4,4,0,0,1,.29,1.65,6.8,6.8,0,0,1,0,.76c0,.28-.07.56-.13.85h-5.1a2.49,2.49,0,0,0,.56,1.62,2.11,2.11,0,0,0,1.62.54,3.52,3.52,0,0,0,1.25-.21,3.23,3.23,0,0,0,.84-.43Zm-3.16-6.24a1.55,1.55,0,0,0-1.28.52,2.52,2.52,0,0,0-.5,1.39h3.16a2.19,2.19,0,0,0-.28-1.41A1.27,1.27,0,0,0,688.74,588.88Z" transform="translate(-102.3 -216.99)"/><path d="M695.3,591.5l-2.55-4.15h2.64l1.1,1.82.48,1.19.51-1.19,1.15-1.82H701l-2.57,4.08,2.74,4.42h-2.57l-1.3-2-.51-1.25-.55,1.25-1.31,2h-2.41Z" transform="translate(-102.3 -216.99)"/><path d="M702.31,587.35h1.61l.26,1h.06a2.94,2.94,0,0,1,1-1,3.26,3.26,0,0,1,1.47-.3,2.86,2.86,0,0,1,2.4,1,5.28,5.28,0,0,1,.8,3.25,7.07,7.07,0,0,1-.26,2,4,4,0,0,1-.76,1.48,3.31,3.31,0,0,1-1.22.94,4.1,4.1,0,0,1-1.66.32,3.44,3.44,0,0,1-.86-.08,2.9,2.9,0,0,1-.68-.24v3.48h-2.21ZM706.1,589a1.49,1.49,0,0,0-1,.32,2.06,2.06,0,0,0-.56,1v3.53a1.76,1.76,0,0,0,.51.3,2.18,2.18,0,0,0,.74.11,1.63,1.63,0,0,0,1.43-.67,3.93,3.93,0,0,0,.48-2.22,3.31,3.31,0,0,0-.38-1.73A1.3,1.3,0,0,0,706.1,589Z" transform="translate(-102.3 -216.99)"/><path d="M716.18,589.43a2.76,2.76,0,0,0-.95-.19,1.63,1.63,0,0,0-1,.31,1.48,1.48,0,0,0-.53.81v5.49h-2.21v-8.5h1.71l.26,1.13h.07a2.24,2.24,0,0,1,.78-1,2,2,0,0,1,1.15-.34,3.37,3.37,0,0,1,1,.18Z" transform="translate(-102.3 -216.99)"/><path d="M724.25,595.12a4.44,4.44,0,0,1-1.38.69,6,6,0,0,1-1.86.28,3.59,3.59,0,0,1-3-1.2,5.11,5.11,0,0,1-1-3.29,4.68,4.68,0,0,1,1.08-3.36,3.93,3.93,0,0,1,3-1.12,4.45,4.45,0,0,1,1.26.17,2.9,2.9,0,0,1,1.09.56,2.81,2.81,0,0,1,.77,1,4.18,4.18,0,0,1,.28,1.65,6.8,6.8,0,0,1,0,.76c0,.28-.07.56-.13.85h-5.1a2.49,2.49,0,0,0,.56,1.62,2.11,2.11,0,0,0,1.62.54,3.52,3.52,0,0,0,1.25-.21,3.23,3.23,0,0,0,.84-.43Zm-3.16-6.24a1.55,1.55,0,0,0-1.28.52,2.52,2.52,0,0,0-.5,1.39h3.16a2.19,2.19,0,0,0-.28-1.41A1.27,1.27,0,0,0,721.09,588.88Z" transform="translate(-102.3 -216.99)"/><path d="M729.61,593.51a.65.65,0,0,0-.29-.55,3.7,3.7,0,0,0-.72-.37l-.93-.35a3.66,3.66,0,0,1-.94-.49,2.74,2.74,0,0,1-.71-.8,2.83,2.83,0,0,1,.46-3.17,3.17,3.17,0,0,1,2.16-.66,6.79,6.79,0,0,1,1.75.2,5.14,5.14,0,0,1,1.22.46l-.49,1.6a10.34,10.34,0,0,0-1-.33,4.46,4.46,0,0,0-1.2-.17c-.66,0-1,.26-1,.77a.57.57,0,0,0,.29.49,3.61,3.61,0,0,0,.71.35l.94.35a3.72,3.72,0,0,1,.93.48,2.57,2.57,0,0,1,.72.78,2.32,2.32,0,0,1,.29,1.22,2.59,2.59,0,0,1-.83,2,3.61,3.61,0,0,1-2.47.74,6.11,6.11,0,0,1-1.69-.23,5.28,5.28,0,0,1-1.29-.53l.62-1.65a5.51,5.51,0,0,0,1,.43,4.3,4.3,0,0,0,1.33.21,1.52,1.52,0,0,0,.79-.18A.7.7,0,0,0,729.61,593.51Z" transform="translate(-102.3 -216.99)"/><path d="M736.78,593.51a.65.65,0,0,0-.29-.55,3.6,3.6,0,0,0-.71-.37l-.94-.35a3.44,3.44,0,0,1-.93-.49,2.77,2.77,0,0,1-.72-.8,2.89,2.89,0,0,1,.46-3.17,3.17,3.17,0,0,1,2.16-.66,6.74,6.74,0,0,1,1.75.2,5.42,5.42,0,0,1,1.23.46l-.5,1.6c-.26-.11-.59-.21-1-.33a4.53,4.53,0,0,0-1.21-.17c-.66,0-1,.26-1,.77a.56.56,0,0,0,.28.49,3.72,3.72,0,0,0,.72.35l.93.35a4,4,0,0,1,.94.48,2.54,2.54,0,0,1,.71.78,2.32,2.32,0,0,1,.29,1.22,2.58,2.58,0,0,1-.82,2,3.64,3.64,0,0,1-2.48.74,6.16,6.16,0,0,1-1.69-.23,5.2,5.2,0,0,1-1.28-.53l.61-1.65a5.64,5.64,0,0,0,1,.43,4.24,4.24,0,0,0,1.32.21,1.49,1.49,0,0,0,.79-.18A.7.7,0,0,0,736.78,593.51Z" transform="translate(-102.3 -216.99)"/><path d="M740.32,585a1.12,1.12,0,0,1,.36-.84,1.38,1.38,0,0,1,1-.35,1.52,1.52,0,0,1,1,.35,1.06,1.06,0,0,1,.4.84,1,1,0,0,1-.4.82,1.61,1.61,0,0,1-1,.33,1.46,1.46,0,0,1-1-.33A1.06,1.06,0,0,1,740.32,585Zm.32,2.39h2.21v8.5h-2.21Z" transform="translate(-102.3 -216.99)"/><path d="M744.6,591.6a4.75,4.75,0,0,1,1.06-3.32,3.75,3.75,0,0,1,3-1.16,4.37,4.37,0,0,1,1.77.32,3.25,3.25,0,0,1,1.24.91,3.77,3.77,0,0,1,.74,1.42,6.18,6.18,0,0,1,.25,1.83,4.82,4.82,0,0,1-1.05,3.33,3.77,3.77,0,0,1-2.95,1.16,4.55,4.55,0,0,1-1.77-.32,3.45,3.45,0,0,1-1.24-.91,3.64,3.64,0,0,1-.75-1.42A6.3,6.3,0,0,1,744.6,591.6Zm2.28,0a4.83,4.83,0,0,0,.1,1,2.71,2.71,0,0,0,.31.83,1.43,1.43,0,0,0,.53.56,1.54,1.54,0,0,0,.79.19,1.47,1.47,0,0,0,1.3-.63,3.66,3.66,0,0,0,.42-2,4,4,0,0,0-.39-1.89,1.38,1.38,0,0,0-1.33-.72,1.49,1.49,0,0,0-1.27.61A3.35,3.35,0,0,0,746.88,591.6Z" transform="translate(-102.3 -216.99)"/><path d="M759.34,595.85V591a2.83,2.83,0,0,0-.3-1.5,1.1,1.1,0,0,0-1-.46,1.56,1.56,0,0,0-1.06.37,1.93,1.93,0,0,0-.62.91v5.5h-2.21v-8.5h1.75l.25,1.13h.07a3.71,3.71,0,0,1,1-1,3.11,3.11,0,0,1,1.67-.4,3.29,3.29,0,0,1,1.12.17,1.89,1.89,0,0,1,.83.56,2.44,2.44,0,0,1,.51,1.06,7.06,7.06,0,0,1,.17,1.66v5.28Z" transform="translate(-102.3 -216.99)"/></svg>