<svg xmlns="http://www.w3.org/2000/svg" viewBox="0 0 521.97 214.01"><defs><style>.cls-1{fill:none;stroke-width:5px;}.cls-1,.cls-2{stroke:#000;stroke-miterlimit:10;}.cls-2{stroke-width:3px;}</style></defs><title>Asset 13intermediateconstruction_3</title><g id="Layer_2" data-name="Layer 2"><g id="Layer_1-2" data-name="Layer 1"><line class="cls-1" x1="149.18" y1="44.96" x2="149.18" y2="114.96"/><line class="cls-1" x1="111.68" y1="42.63" x2="186.68" y2="42.63"/><path class="cls-1" d="M228.67,115V45h75"/><polygon points="285.36 61.52 309.29 44.96 285.36 28.39 285.36 61.52"/><path class="cls-2" d="M371.65,115H320.8c0-12.17,11.39-22,25.43-22S371.65,102.79,371.65,115Z"/><path d="M208.21,161.64h2.47l.39,1.56h.1a4.3,4.3,0,0,1,1.6-1.45,4.86,4.86,0,0,1,2.25-.47,4.4,4.4,0,0,1,3.67,1.54,8.13,8.13,0,0,1,1.22,5,10.81,10.81,0,0,1-.39,3,6.33,6.33,0,0,1-1.16,2.27,5,5,0,0,1-1.87,1.43,6.9,6.9,0,0,1-3.86.38,4.85,4.85,0,0,1-1-.38v5.33h-3.38Zm5.8,2.5a2.25,2.25,0,0,0-1.55.49,3.31,3.31,0,0,0-.87,1.48v5.41a3.47,3.47,0,0,0,.79.46,3.24,3.24,0,0,0,1.13.17,2.53,2.53,0,0,0,2.19-1,6.09,6.09,0,0,0,.73-3.39,5.15,5.15,0,0,0-.58-2.66A2,2,0,0,0,214,164.14Z"/><path d="M230.18,169.75a1.69,1.69,0,0,0-.61-1.35,6.92,6.92,0,0,0-1.53-1c-.62-.28-1.29-.58-2-.88a10.27,10.27,0,0,1-2-1.12,5.62,5.62,0,0,1-1.53-1.65,4.7,4.7,0,0,1-.61-2.52,5.43,5.43,0,0,1,.44-2.3,4.3,4.3,0,0,1,1.26-1.63,5.51,5.51,0,0,1,1.94-1,9.12,9.12,0,0,1,2.49-.31,15.76,15.76,0,0,1,3,.27,7.76,7.76,0,0,1,2.32.79l-1.12,3a6.43,6.43,0,0,0-1.72-.66,9.66,9.66,0,0,0-2.47-.3,3.15,3.15,0,0,0-1.91.5,1.57,1.57,0,0,0-.66,1.32,1.62,1.62,0,0,0,.61,1.3,6.93,6.93,0,0,0,1.53,1c.62.3,1.29.6,2,.91a11.85,11.85,0,0,1,2,1.13,6,6,0,0,1,1.53,1.64,4.47,4.47,0,0,1,.61,2.43,6,6,0,0,1-.48,2.51,4.8,4.8,0,0,1-1.35,1.76,5.71,5.71,0,0,1-2.11,1,10.47,10.47,0,0,1-2.71.34,14.68,14.68,0,0,1-3.44-.37,10.06,10.06,0,0,1-2.18-.73l1.14-3a6,6,0,0,0,.74.34c.31.12.65.23,1,.34s.79.19,1.21.26a8.08,8.08,0,0,0,1.31.1,4.68,4.68,0,0,0,2.44-.53A1.8,1.8,0,0,0,230.18,169.75Z"/><path d="M248.35,160.68a5.21,5.21,0,0,1-.17,1.35,3.74,3.74,0,0,1-.55,1.24,3.82,3.82,0,0,1-1,1,4.33,4.33,0,0,1-1.51.64v.16a5.82,5.82,0,0,1,1.49.44,3.86,3.86,0,0,1,1.22.86,4,4,0,0,1,.82,1.32,5.16,5.16,0,0,1,.3,1.85,4.71,4.71,0,0,1-.6,2.43,5,5,0,0,1-1.6,1.68,7.53,7.53,0,0,1-2.28,1,10.86,10.86,0,0,1-2.62.31H240.7c-.46,0-1,0-1.48,0s-1.07-.06-1.62-.11a11.92,11.92,0,0,1-1.49-.24V156.57l1.13-.15c.42-.06.88-.1,1.36-.13s1-.07,1.5-.08l1.52,0a15.47,15.47,0,0,1,2.48.2,7,7,0,0,1,2.16.69,3.94,3.94,0,0,1,1.52,1.37A4.07,4.07,0,0,1,248.35,160.68Zm-7.67,3.41.85,0a6.72,6.72,0,0,0,.79-.08,4.58,4.58,0,0,0,1.7-.92,2,2,0,0,0,.72-1.62,2.17,2.17,0,0,0-.26-1.11,2,2,0,0,0-.69-.7,3,3,0,0,0-1-.36,7.13,7.13,0,0,0-1.15-.1c-.45,0-.87,0-1.25,0a7.62,7.62,0,0,0-.88.07v4.82Zm1.17,7.82a5.18,5.18,0,0,0,1.26-.15,3.32,3.32,0,0,0,1.08-.48,2.36,2.36,0,0,0,.76-.81,2.27,2.27,0,0,0,.28-1.16,2.39,2.39,0,0,0-.33-1.34,2.35,2.35,0,0,0-.89-.76,3.6,3.6,0,0,0-1.22-.34,12.22,12.22,0,0,0-1.35-.08h-1.9v5a1.55,1.55,0,0,0,.42.07l.61,0,.67,0Z"/><path d="M252.54,171.78h3.61V161.51l.39-1.77-1.24,1.54L253,162.86l-1.43-2,5.93-4.78h1.9v15.65h3.53v2.86H252.54Z"/><path d="M278.54,173.9a5.54,5.54,0,0,1-2.12.85,13.58,13.58,0,0,1-2.64.26,9.44,9.44,0,0,1-3.11-.51,6.65,6.65,0,0,1-2.58-1.64,7.9,7.9,0,0,1-1.78-2.94,12.53,12.53,0,0,1-.67-4.38,11.92,11.92,0,0,1,.74-4.48,8.22,8.22,0,0,1,1.93-2.92,7.18,7.18,0,0,1,2.64-1.58,9.24,9.24,0,0,1,2.91-.48,14.1,14.1,0,0,1,2.64.21,9.1,9.1,0,0,1,1.78.49l-.7,3a5.29,5.29,0,0,0-1.42-.42,12.58,12.58,0,0,0-2-.13,4.33,4.33,0,0,0-3.47,1.54,7.18,7.18,0,0,0-1.31,4.76,9.79,9.79,0,0,0,.31,2.57,5.53,5.53,0,0,0,.95,2,4.38,4.38,0,0,0,1.58,1.28,5.12,5.12,0,0,0,2.2.45,7.08,7.08,0,0,0,2-.23,6.21,6.21,0,0,0,1.4-.6Z"/><path d="M285.46,172.15a3.29,3.29,0,0,0,2.45-.86,2.88,2.88,0,0,0,.85-2.08,2.63,2.63,0,0,0-.89-2.19,4.5,4.5,0,0,0-2.78-.7h-1.87v-1.79l3.14-4.29,1.49-1.17-2.06.23h-4.36v-2.86h9.93v1.85l-3.67,4.91-1.14.7V164l1.09-.15a5.91,5.91,0,0,1,1.73.41,4.25,4.25,0,0,1,1.43,1,4.59,4.59,0,0,1,1,1.57,5.82,5.82,0,0,1,.37,2.16,6.33,6.33,0,0,1-.51,2.65,5.26,5.26,0,0,1-1.4,1.87,5.74,5.74,0,0,1-2.1,1.12,8.82,8.82,0,0,1-2.57.37,14.08,14.08,0,0,1-2.37-.21,6.87,6.87,0,0,1-2-.6l.91-2.81a7.29,7.29,0,0,0,1.49.55A7.44,7.44,0,0,0,285.46,172.15Z"/><rect class="cls-1" x="2.5" y="115.46" width="516.97" height="96.06" rx="8.68" ry="8.68"/><line class="cls-1" x1="36.45" y1="84.81" x2="36.45" y2="146.13"/><line class="cls-1" x1="54.45" y1="84.78" x2="54.45" y2="146.1"/><path d="M32.23,64.38H41v2.56H35.11v3.43h5.31v2.56H35.11v3.59h5.94v2.56H32.23Z"/><path d="M52.85,71.61l-4.1-7.23h3.47l2.26,4.24L55,70.11l.48-1.49,2.37-4.24H61l-4.24,7.08,4.45,7.62H57.76l-2.58-4.54L54.61,73l-.55,1.55-2.6,4.54H48.33Z"/><line class="cls-1" x1="452.68" y1="94.51" x2="452.68" y2="155.83"/><line class="cls-1" x1="470.68" y1="94.49" x2="470.68" y2="155.81"/><path d="M454.72,84.83a1.37,1.37,0,0,0-.49-1.09A5.37,5.37,0,0,0,453,83l-1.62-.72a7.66,7.66,0,0,1-1.61-.9A4.63,4.63,0,0,1,448.52,80a3.85,3.85,0,0,1-.5-2,4.44,4.44,0,0,1,.36-1.86,3.55,3.55,0,0,1,1-1.31A4.4,4.4,0,0,1,451,74a7.45,7.45,0,0,1,2-.25,12.34,12.34,0,0,1,2.41.22,6.19,6.19,0,0,1,1.87.64l-.9,2.41a5.25,5.25,0,0,0-1.39-.53,7.86,7.86,0,0,0-2-.24,2.56,2.56,0,0,0-1.55.4,1.27,1.27,0,0,0-.53,1.07,1.32,1.32,0,0,0,.49,1,5.6,5.6,0,0,0,1.24.77c.5.24,1,.49,1.62.74a9.13,9.13,0,0,1,1.62.91,4.6,4.6,0,0,1,1.23,1.33,3.61,3.61,0,0,1,.5,2,4.87,4.87,0,0,1-.39,2A3.8,3.8,0,0,1,456.12,88a4.59,4.59,0,0,1-1.7.84,8,8,0,0,1-2.2.28,11.46,11.46,0,0,1-2.77-.3,8.3,8.3,0,0,1-1.76-.58l.92-2.46a7.07,7.07,0,0,0,1.43.54,7.23,7.23,0,0,0,1,.21,6.26,6.26,0,0,0,1.07.09,3.77,3.77,0,0,0,2-.43A1.47,1.47,0,0,0,454.72,84.83Z"/><path d="M466.36,74.23A19.47,19.47,0,0,1,468.3,74c.71-.07,1.41-.1,2.11-.1a13.69,13.69,0,0,1,2.2.18,5.46,5.46,0,0,1,2,.72A4,4,0,0,1,476,76.26a4.87,4.87,0,0,1,.56,2.48,5.2,5.2,0,0,1-.49,2.35,4.55,4.55,0,0,1-1.28,1.56,5.09,5.09,0,0,1-1.81.88,8.27,8.27,0,0,1-2.12.28h-.33l-.48,0a4.07,4.07,0,0,1-.5,0,1.84,1.84,0,0,1-.34,0v5.06h-2.88Zm4.28,2.12c-.28,0-.54,0-.79,0a5.12,5.12,0,0,0-.61.08v4.76l.25,0,.36,0h.62a6.1,6.1,0,0,0,1.13-.11,2.82,2.82,0,0,0,1-.39,2.12,2.12,0,0,0,.7-.78,3,3,0,0,0,.26-1.33,2.29,2.29,0,0,0-.25-1.14,2.21,2.21,0,0,0-.66-.73,2.61,2.61,0,0,0-.94-.37A5.39,5.39,0,0,0,470.64,76.35Z"/><path d="M238.6,5.6h2.66l.42,1.68h.11a4.73,4.73,0,0,1,1.72-1.57,5.42,5.42,0,0,1,2.43-.5,4.74,4.74,0,0,1,3.95,1.66q1.31,1.67,1.31,5.37a11.54,11.54,0,0,1-.42,3.23,6.68,6.68,0,0,1-1.25,2.45,5.42,5.42,0,0,1-2,1.54,6.71,6.71,0,0,1-2.73.53,7,7,0,0,1-1.43-.12,5.06,5.06,0,0,1-1.12-.41V25.2H238.6Zm6.25,2.69a2.41,2.41,0,0,0-1.67.53,3.52,3.52,0,0,0-.94,1.6v5.82a3.19,3.19,0,0,0,.86.49,3.36,3.36,0,0,0,1.21.18,2.72,2.72,0,0,0,2.36-1.1,6.54,6.54,0,0,0,.78-3.66,5.48,5.48,0,0,0-.62-2.85A2.13,2.13,0,0,0,244.85,8.29Z"/><path d="M253.8,0h11.62V3.42h-7.78V8.26h7.17v3.42h-7.17V19.6H253.8Z"/><path d="M267.86,6.41a12.53,12.53,0,0,1,2.66-.8,17.69,17.69,0,0,1,3.22-.29,7.45,7.45,0,0,1,2.44.35,3.64,3.64,0,0,1,1.55,1,3.8,3.8,0,0,1,.81,1.54,7.83,7.83,0,0,1,.24,2c0,.82,0,1.65-.08,2.48s-.09,1.65-.1,2.45,0,1.58.07,2.34a8.29,8.29,0,0,0,.42,2.14h-3l-.59-1.93h-.14a5,5,0,0,1-1.55,1.49,4.71,4.71,0,0,1-2.56.63,4.91,4.91,0,0,1-1.77-.29,3.91,3.91,0,0,1-1.34-.84,3.72,3.72,0,0,1-.87-1.29,4.38,4.38,0,0,1-.31-1.66,3.82,3.82,0,0,1,.58-2.17,4.08,4.08,0,0,1,1.65-1.43,8.09,8.09,0,0,1,2.57-.76,18,18,0,0,1,3.35-.12A3.67,3.67,0,0,0,274.92,9c-.28-.46-.91-.68-1.88-.68a12.68,12.68,0,0,0-2.31.22,8.11,8.11,0,0,0-2,.59Zm4.62,10.42a2.85,2.85,0,0,0,1.74-.49,3.54,3.54,0,0,0,.95-1.05V13.47a9.4,9.4,0,0,0-1.67,0,6.24,6.24,0,0,0-1.41.25,2.39,2.39,0,0,0-1,.56,1.27,1.27,0,0,0-.37.93,1.57,1.57,0,0,0,.47,1.21A1.77,1.77,0,0,0,272.48,16.83Z"/><path d="M293.73,14.67c0,.79,0,1.57,0,2.35a20,20,0,0,0,.25,2.61h-2.6l-.51-1.82h-.11a4.22,4.22,0,0,1-1.61,1.58,4.9,4.9,0,0,1-2.48.6,5,5,0,0,1-4.08-1.73c-1-1.16-1.46-3-1.46-5.44a8.6,8.6,0,0,1,1.62-5.57,5.82,5.82,0,0,1,4.76-2,9.1,9.1,0,0,1,1.43.1,5.69,5.69,0,0,1,1.12.32V0h3.64Zm-6.19,2.24a2.5,2.5,0,0,0,1.68-.52,2.79,2.79,0,0,0,.87-1.49V9a2.6,2.6,0,0,0-.87-.46A4.08,4.08,0,0,0,288,8.34a2.7,2.7,0,0,0-2.31,1,6.19,6.19,0,0,0-.77,3.56,5.75,5.75,0,0,0,.63,2.88A2.14,2.14,0,0,0,287.54,16.91Z"/><path d="M141,12.8h-5.72V29H131.4V12.8h-5.74V9.38H141Z"/><path d="M144.08,25.9H148V14.84l.42-1.9-1.34,1.65-2.49,1.71L143,14.2,149.4,9h2V25.9h3.81V29H144.08Z"/><path d="M172.61,23.52h-3.08V29h-3.39V23.52h-8.48V21.45l8.88-12.21h3V20.61h3.08Zm-6.47-7.2L166.4,14h-.12l-.95,2-2.91,3.78L161,20.83l1.79-.22h3.33Z"/><path d="M337.1,78.43a3.59,3.59,0,0,0,2.65-.92,3.1,3.1,0,0,0,.91-2.24,2.81,2.81,0,0,0-1-2.35,4.74,4.74,0,0,0-3-.76h-2V70.23l3.39-4.62,1.6-1.26-2.22.25h-4.7V61.52h10.7v2l-3.95,5.29-1.23.76v.14l1.17-.17a5.76,5.76,0,0,1,1.86.45,4.31,4.31,0,0,1,1.54,1,5,5,0,0,1,1,1.69,6.2,6.2,0,0,1,.4,2.32,6.91,6.91,0,0,1-.55,2.86,5.65,5.65,0,0,1-1.51,2,6.29,6.29,0,0,1-2.26,1.2,9.46,9.46,0,0,1-2.77.39,15,15,0,0,1-2.54-.22,7.72,7.72,0,0,1-2.13-.64l1-3a8,8,0,0,0,1.61.59A7.91,7.91,0,0,0,337.1,78.43Z"/><path d="M359.53,66.31a8.68,8.68,0,0,1-.52,2.88,16.71,16.71,0,0,1-1.32,2.86,27.74,27.74,0,0,1-1.76,2.7q-1,1.31-1.89,2.4l-1.48,1.14v.14l2-.39H360v3.08H348.16V79.25c.45-.47.95-1,1.51-1.64s1.13-1.29,1.7-2,1.12-1.42,1.66-2.17a26,26,0,0,0,1.46-2.25,13.78,13.78,0,0,0,1-2.2,6.08,6.08,0,0,0,.38-2,2.76,2.76,0,0,0-.66-1.89,2.67,2.67,0,0,0-2.09-.74,4.73,4.73,0,0,0-1.83.38,5.13,5.13,0,0,0-1.58,1l-1.46-2.57a9.4,9.4,0,0,1,2.48-1.45,8.94,8.94,0,0,1,3.26-.54,7.07,7.07,0,0,1,2.21.33,5,5,0,0,1,1.74,1,4.47,4.47,0,0,1,1.15,1.6A5.66,5.66,0,0,1,359.53,66.31Z"/></g></g></svg>