<svg xmlns="http://www.w3.org/2000/svg" viewBox="0 0 540.18 125.21"><defs><style>.cls-1{fill:none;stroke-width:5px;}.cls-1,.cls-2{stroke:#000;stroke-miterlimit:10;}.cls-2{stroke-width:3px;}.cls-3{fill:#ea9393;}</style></defs><title>Asset 17par</title><g id="Layer_2" data-name="Layer 2"><g id="Layer_1-2" data-name="Layer 1"><line class="cls-1" y1="87.73" x2="540.18" y2="87.73"/><line class="cls-1" x1="62.04" y1="18.73" x2="62.04" y2="88.73"/><line class="cls-1" x1="24.54" y1="16.4" x2="99.54" y2="16.4"/><path class="cls-2" d="M258.62,87.56H207.78c0-12.16,11.38-22,25.42-22S258.62,75.4,258.62,87.56Z"/><rect class="cls-3" x="309.09" y="28.8" width="160" height="55.93"/><path class="cls-1" d="M123.4,86.56v-70h75"/><polygon points="180.09 33.13 204.02 16.56 180.09 0 180.09 33.13"/><path d="M367.78,100.21q.64-.12,1.38-.21c.5-.07,1-.12,1.49-.16s1-.06,1.44-.08l1.29,0a14.35,14.35,0,0,1,2.7.25,7.41,7.41,0,0,1,2.38.87,4.69,4.69,0,0,1,1.68,1.69,5.3,5.3,0,0,1,.63,2.71,6.41,6.41,0,0,1-1.12,3.92,5.89,5.89,0,0,1-3,2.1l1.38.86,4.48,7.48h-4.43l-4.45-7.67-2-.37v8h-3.83Zm5.88,2.94-1.16,0a4.15,4.15,0,0,0-.89.12V109h1.63a4.09,4.09,0,0,0,2.55-.73,2.85,2.85,0,0,0,.95-2.41,2.51,2.51,0,0,0-.79-2A3.26,3.26,0,0,0,373.66,103.15Z"/><path d="M384.63,100h11.62v3.42h-7.78v4.84h7.17v3.42h-7.17v7.92h-3.84Z"/><path d="M398.86,100.21a25,25,0,0,1,2.59-.35c.94-.09,1.88-.13,2.81-.13a18.19,18.19,0,0,1,2.93.24,7.18,7.18,0,0,1,2.64,1,5.48,5.48,0,0,1,1.92,2,6.48,6.48,0,0,1,.74,3.32,6.86,6.86,0,0,1-.64,3.12,5.93,5.93,0,0,1-1.71,2.08,6.66,6.66,0,0,1-2.42,1.18,10.93,10.93,0,0,1-2.81.36h-1.1l-.65,0-.47-.06v6.75h-3.83Zm5.71,2.82c-.37,0-.73,0-1.06,0s-.61.06-.82.09v6.36l.34.06.48,0h.84a7.45,7.45,0,0,0,1.49-.14,3.46,3.46,0,0,0,1.33-.52,2.59,2.59,0,0,0,.94-1,3.82,3.82,0,0,0,.35-1.76,3.15,3.15,0,0,0-.33-1.53,2.74,2.74,0,0,0-.89-1,3.61,3.61,0,0,0-1.24-.51A7.62,7.62,0,0,0,404.57,103Z"/><path d="M115.41,105.61h2.66l.42,1.68h.11a4.73,4.73,0,0,1,1.72-1.57,5.41,5.41,0,0,1,2.42-.5,4.71,4.71,0,0,1,4,1.66q1.32,1.66,1.32,5.37a11.54,11.54,0,0,1-.42,3.23,6.83,6.83,0,0,1-1.25,2.45,5.42,5.42,0,0,1-2,1.54,6.75,6.75,0,0,1-2.73.53,7,7,0,0,1-1.43-.12,5.06,5.06,0,0,1-1.12-.41v5.74h-3.64Zm6.24,2.69a2.43,2.43,0,0,0-1.66.53,3.44,3.44,0,0,0-.94,1.6v5.82a3.14,3.14,0,0,0,.85.49,3.45,3.45,0,0,0,1.22.18,2.69,2.69,0,0,0,2.35-1.1,6.45,6.45,0,0,0,.79-3.66,5.48,5.48,0,0,0-.62-2.85A2.14,2.14,0,0,0,121.65,108.3Z"/><path d="M140.27,115.27h-6l-1.48,4.34h-3.84L136,99.87h2.83l7.05,19.74h-4Zm-5-3.08h4.2L138,107.82l-.59-3.08h-.14l-.59,3.11Z"/><path d="M147.55,100.21c.43-.08.89-.15,1.39-.21s1-.12,1.48-.16,1-.06,1.44-.08l1.29,0a14.2,14.2,0,0,1,2.7.25,7.41,7.41,0,0,1,2.38.87,4.69,4.69,0,0,1,1.68,1.69,5.3,5.3,0,0,1,.63,2.71,6.41,6.41,0,0,1-1.12,3.92,5.82,5.82,0,0,1-3,2.1l1.37.86,4.48,7.48h-4.42l-4.46-7.67-2-.37v8h-3.84Zm5.88,2.94-1.16,0a4,4,0,0,0-.88.12V109H153a4,4,0,0,0,2.55-.73,2.85,2.85,0,0,0,.95-2.41,2.54,2.54,0,0,0-.78-2A3.28,3.28,0,0,0,153.43,103.15Z"/></g></g></svg>