<svg xmlns="http://www.w3.org/2000/svg" viewBox="0 0 1214.84 214.29"><defs><style>.cls-1{fill:none;stroke-width:5px;}.cls-1,.cls-2{stroke:#000;stroke-miterlimit:10;}.cls-2{stroke-width:3px;}.cls-3{fill:#ea9393;}.cls-4{fill:#c6e1d5;}</style></defs><title>Asset 29partlux3434</title><g id="Layer_2" data-name="Layer 2"><g id="Layer_1-2" data-name="Layer 1"><line class="cls-1" x1="149.18" y1="45.24" x2="149.18" y2="115.24"/><line class="cls-1" x1="111.68" y1="42.91" x2="186.68" y2="42.91"/><path class="cls-1" d="M228.67,115.24v-70h75"/><polygon points="285.36 61.8 309.29 45.24 285.36 28.67 285.36 61.8"/><path class="cls-2" d="M371.65,115.24H320.8c0-12.17,11.39-22,25.43-22S371.65,103.07,371.65,115.24Z"/><path class="cls-2" d="M797.08,115.24H746.23c0-12.17,11.38-22,25.42-22S797.08,103.07,797.08,115.24Z"/><rect class="cls-3" x="849.69" y="57.27" width="160" height="55.93"/><path d="M579.58,163.62h2.47l.39,1.56h.11a4.31,4.31,0,0,1,1.6-1.45,4.91,4.91,0,0,1,2.24-.47,4.41,4.41,0,0,1,3.67,1.55q1.22,1.55,1.22,5a10.69,10.69,0,0,1-.39,3,6.31,6.31,0,0,1-1.15,2.27,5,5,0,0,1-1.88,1.43,6.9,6.9,0,0,1-3.86.38,4.53,4.53,0,0,1-1-.38v5.33h-3.38Zm5.8,2.5a2.32,2.32,0,0,0-1.55.49,3.29,3.29,0,0,0-.87,1.49v5.4a2.86,2.86,0,0,0,.79.46,3.26,3.26,0,0,0,1.14.17,2.49,2.49,0,0,0,2.18-1,6,6,0,0,0,.73-3.39,5.09,5.09,0,0,0-.57-2.65A2,2,0,0,0,585.38,166.12Z"/><path d="M601.55,171.74a1.7,1.7,0,0,0-.61-1.36,7.31,7.31,0,0,0-1.53-.95c-.62-.28-1.29-.58-2-.88a9.85,9.85,0,0,1-2-1.12,5.75,5.75,0,0,1-1.53-1.65,4.7,4.7,0,0,1-.61-2.52,5.62,5.62,0,0,1,.44-2.3,4.3,4.3,0,0,1,1.26-1.63,5.51,5.51,0,0,1,1.94-1,9.18,9.18,0,0,1,2.49-.31,15.76,15.76,0,0,1,3,.27,7.49,7.49,0,0,1,2.32.8l-1.12,3a6,6,0,0,0-1.72-.67,9.66,9.66,0,0,0-2.47-.3,3.17,3.17,0,0,0-1.91.5,1.57,1.57,0,0,0-.66,1.32,1.62,1.62,0,0,0,.61,1.3,7.16,7.16,0,0,0,1.54,1c.61.29,1.28.59,2,.91a10.31,10.31,0,0,1,2,1.13,5.58,5.58,0,0,1,1.53,1.64,4.47,4.47,0,0,1,.61,2.43,6,6,0,0,1-.48,2.51,4.77,4.77,0,0,1-1.35,1.75,5.75,5.75,0,0,1-2.1,1,10.13,10.13,0,0,1-2.72.34,14,14,0,0,1-3.43-.37,10.66,10.66,0,0,1-2.19-.72l1.15-3.05a5.34,5.34,0,0,0,.74.34,8.69,8.69,0,0,0,1,.34c.39.1.79.19,1.21.26a8.2,8.2,0,0,0,1.32.1,4.57,4.57,0,0,0,2.43-.53A1.79,1.79,0,0,0,601.55,171.74Z"/><path d="M619.73,162.66a5.67,5.67,0,0,1-.17,1.35,3.87,3.87,0,0,1-.56,1.24,4,4,0,0,1-1,1,4.27,4.27,0,0,1-1.5.63V167a6.17,6.17,0,0,1,1.48.44,3.8,3.8,0,0,1,2,2.19,5.11,5.11,0,0,1,.3,1.84,4.71,4.71,0,0,1-.6,2.43,4.86,4.86,0,0,1-1.6,1.68,7.58,7.58,0,0,1-2.27,1,10.94,10.94,0,0,1-2.63.31h-1.13c-.46,0-1,0-1.48,0s-1.07-.06-1.61-.11a10.24,10.24,0,0,1-1.5-.24V158.55l1.13-.15c.43-.05.88-.1,1.37-.13s1-.06,1.49-.08l1.52,0a15.69,15.69,0,0,1,2.49.2,7,7,0,0,1,2.15.69,3.89,3.89,0,0,1,1.52,1.38A4,4,0,0,1,619.73,162.66Zm-7.67,3.41.84,0a5,5,0,0,0,.79-.08,4.7,4.7,0,0,0,1.71-.92,2,2,0,0,0,.71-1.62,2.07,2.07,0,0,0-.26-1.11,1.9,1.9,0,0,0-.69-.69,3,3,0,0,0-1-.36,6.15,6.15,0,0,0-1.15-.11c-.45,0-.86,0-1.24,0a7.23,7.23,0,0,0-.89.08v4.81Zm1.17,7.82a5.3,5.3,0,0,0,1.26-.15,3.3,3.3,0,0,0,1.08-.48,2.43,2.43,0,0,0,.75-.81,2.24,2.24,0,0,0,.29-1.16,2.33,2.33,0,0,0-.34-1.33,2.27,2.27,0,0,0-.89-.76,3.61,3.61,0,0,0-1.22-.35,12.22,12.22,0,0,0-1.35-.08h-1.9v5a2.08,2.08,0,0,0,.42.08l.61,0,.68,0Z"/><path d="M623.91,173.76h3.62V163.49l.39-1.76-1.25,1.53-2.32,1.59-1.43-1.95,5.93-4.79h1.9v15.65h3.54v2.86H623.91Z"/><path d="M649.91,175.88a5.48,5.48,0,0,1-2.12.85,13.58,13.58,0,0,1-2.64.26,9.38,9.38,0,0,1-3.1-.51,6.57,6.57,0,0,1-2.59-1.64,7.93,7.93,0,0,1-1.78-2.93,12.88,12.88,0,0,1-.66-4.39,11.73,11.73,0,0,1,.74-4.48,8,8,0,0,1,1.92-2.91,7.08,7.08,0,0,1,2.64-1.59,9.24,9.24,0,0,1,2.91-.48,14.1,14.1,0,0,1,2.64.21,9.85,9.85,0,0,1,1.78.49l-.7,3a5.29,5.29,0,0,0-1.42-.42,13.8,13.8,0,0,0-2-.13,4.36,4.36,0,0,0-3.47,1.54,7.25,7.25,0,0,0-1.31,4.77,9.76,9.76,0,0,0,.31,2.56,5.53,5.53,0,0,0,.95,2,4.32,4.32,0,0,0,1.59,1.28,5,5,0,0,0,2.19.46,7.05,7.05,0,0,0,2-.24,5.28,5.28,0,0,0,1.4-.6Z"/><path d="M656.83,174.13a3.29,3.29,0,0,0,2.45-.86,2.84,2.84,0,0,0,.85-2.08,2.6,2.6,0,0,0-.89-2.18,4.41,4.41,0,0,0-2.78-.71h-1.87v-1.79l3.15-4.29,1.48-1.17-2.06.23H652.8v-2.86h9.93v1.85l-3.67,4.91-1.14.71V166l1.09-.16a5.62,5.62,0,0,1,1.73.42,4.12,4.12,0,0,1,1.43,1,4.87,4.87,0,0,1,1,1.57,6,6,0,0,1,.36,2.16,6.33,6.33,0,0,1-.51,2.65,5.27,5.27,0,0,1-1.4,1.88,5.88,5.88,0,0,1-2.1,1.11,8.49,8.49,0,0,1-2.57.37,13.88,13.88,0,0,1-2.36-.21,6.84,6.84,0,0,1-2-.6l.91-2.81a7.29,7.29,0,0,0,1.49.55A7.44,7.44,0,0,0,656.83,174.13Z"/><line class="cls-1" x1="666.92" y1="46.4" x2="666.92" y2="116.4"/><line class="cls-1" x1="629.42" y1="44.07" x2="704.42" y2="44.07"/><path d="M908.38,18.49c.43-.08.89-.15,1.39-.21s1-.12,1.48-.16,1-.06,1.45-.08L914,18a14.38,14.38,0,0,1,2.71.25,7.5,7.5,0,0,1,2.38.87,4.59,4.59,0,0,1,1.67,1.69,5.3,5.3,0,0,1,.63,2.71,6.41,6.41,0,0,1-1.12,3.92,5.82,5.82,0,0,1-3,2.1l1.37.86,4.48,7.48h-4.42l-4.45-7.67-2-.37v8h-3.84Zm5.88,2.94-1.16,0a4,4,0,0,0-.88.12v5.68h1.62a4,4,0,0,0,2.55-.73,2.82,2.82,0,0,0,1-2.41,2.54,2.54,0,0,0-.78-2A3.28,3.28,0,0,0,914.26,21.43Z"/><path d="M925.24,18.29h11.62v3.42h-7.78v4.84h7.16V30h-7.16v7.92h-3.84Z"/><path d="M939.46,18.49a25.43,25.43,0,0,1,2.59-.35c.94-.09,1.88-.13,2.82-.13a18.07,18.07,0,0,1,2.92.24,7.23,7.23,0,0,1,2.65.95,5.64,5.64,0,0,1,1.92,2,6.58,6.58,0,0,1,.74,3.32,6.86,6.86,0,0,1-.65,3.12,5.79,5.79,0,0,1-1.7,2.08,6.91,6.91,0,0,1-2.42,1.18,11,11,0,0,1-2.82.36h-1.09l-.66,0-.46-.06v6.75h-3.84Zm5.71,2.82c-.37,0-.72,0-1.06.05s-.61.06-.81.09v6.36l.33.06.48,0H945a7.62,7.62,0,0,0,1.5-.14,3.53,3.53,0,0,0,1.33-.52,2.74,2.74,0,0,0,.94-1.05,3.82,3.82,0,0,0,.35-1.76,3.18,3.18,0,0,0-.34-1.53,2.71,2.71,0,0,0-.88-1,3.4,3.4,0,0,0-1.25-.51A7.46,7.46,0,0,0,945.17,21.31Z"/><rect class="cls-1" x="2.5" y="115.74" width="1209.84" height="96.06" rx="8.68" ry="8.68"/><line class="cls-1" x1="36.45" y1="85.09" x2="36.45" y2="146.41"/><line class="cls-1" x1="54.45" y1="85.06" x2="54.45" y2="146.38"/><path d="M32.23,64.66H41v2.56H35.11v3.43h5.31v2.56H35.11V76.8h5.94v2.56H32.23Z"/><path d="M52.85,71.89l-4.1-7.23h3.47l2.26,4.24L55,70.39l.48-1.49,2.37-4.24H61l-4.24,7.08,4.45,7.62H57.76l-2.58-4.53-.57-1.56-.55,1.56-2.6,4.53H48.33Z"/><line class="cls-1" x1="1110.28" y1="90.76" x2="1110.28" y2="152.08"/><line class="cls-1" x1="1128.28" y1="90.73" x2="1128.28" y2="152.05"/><path d="M1112.31,81.08a1.35,1.35,0,0,0-.49-1.09,5.38,5.38,0,0,0-1.24-.77c-.5-.23-1-.47-1.62-.71a8.67,8.67,0,0,1-1.61-.9,4.67,4.67,0,0,1-1.24-1.34,3.8,3.8,0,0,1-.5-2,4.39,4.39,0,0,1,.36-1.85,3.51,3.51,0,0,1,1-1.32,4.38,4.38,0,0,1,1.56-.77,7.5,7.5,0,0,1,2-.25,12.52,12.52,0,0,1,2.42.22,6,6,0,0,1,1.86.64l-.9,2.41a5.3,5.3,0,0,0-1.38-.53,8,8,0,0,0-2-.25,2.57,2.57,0,0,0-1.54.4,1.28,1.28,0,0,0-.54,1.07,1.35,1.35,0,0,0,.49,1,6,6,0,0,0,1.24.78c.5.24,1,.48,1.62.74a8.54,8.54,0,0,1,1.62.91,4.88,4.88,0,0,1,1.24,1.32,3.64,3.64,0,0,1,.49,2,4.82,4.82,0,0,1-.39,2,3.84,3.84,0,0,1-1.09,1.42,4.59,4.59,0,0,1-1.7.84,8.45,8.45,0,0,1-2.2.27A12,12,0,0,1,1107,85a8.41,8.41,0,0,1-1.76-.59l.92-2.46a5.86,5.86,0,0,0,.6.28,6.75,6.75,0,0,0,.83.27c.31.08.63.15,1,.21a6.08,6.08,0,0,0,1.06.08,3.65,3.65,0,0,0,2-.43A1.42,1.42,0,0,0,1112.31,81.08Z"/><path d="M1124,70.48c.59-.12,1.24-.2,1.94-.27s1.41-.09,2.11-.09a13.69,13.69,0,0,1,2.2.18,5.45,5.45,0,0,1,2,.71,4.2,4.2,0,0,1,1.44,1.49,4.94,4.94,0,0,1,.56,2.49,5,5,0,0,1-.49,2.34,4.39,4.39,0,0,1-1.28,1.57,5.17,5.17,0,0,1-1.81.88,8.25,8.25,0,0,1-2.11.27h-.82c-.17,0-.34,0-.5,0l-.34,0V85H1124Zm4.28,2.12c-.28,0-.54,0-.79,0a5.5,5.5,0,0,0-.61.07v4.77l.25,0a2,2,0,0,0,.36,0h.63a6.06,6.06,0,0,0,1.12-.1,2.82,2.82,0,0,0,1-.39,2,2,0,0,0,.7-.79,2.79,2.79,0,0,0,.26-1.32,2.36,2.36,0,0,0-.25-1.15,2.08,2.08,0,0,0-.66-.72,2.57,2.57,0,0,0-.93-.38A5.57,5.57,0,0,0,1128.23,72.6Z"/><path d="M243.31,5.88H246l.42,1.68h.12A4.65,4.65,0,0,1,248.22,6a5.38,5.38,0,0,1,2.42-.5,4.72,4.72,0,0,1,4,1.66c.88,1.11,1.31,2.9,1.31,5.37a11.54,11.54,0,0,1-.42,3.23,6.82,6.82,0,0,1-1.24,2.45,5.48,5.48,0,0,1-2,1.54,6.68,6.68,0,0,1-2.73.53,6.34,6.34,0,0,1-1.43-.13,4.72,4.72,0,0,1-1.12-.4v5.74h-3.63Zm6.24,2.69a2.41,2.41,0,0,0-1.67.53,3.58,3.58,0,0,0-.94,1.6v5.82a3.67,3.67,0,0,0,.86.49,3.41,3.41,0,0,0,1.22.18,2.71,2.71,0,0,0,2.35-1.1,6.54,6.54,0,0,0,.78-3.66,5.49,5.49,0,0,0-.61-2.85A2.15,2.15,0,0,0,249.55,8.57Z"/><path d="M268.17,15.54h-6l-1.49,4.34h-3.83L263.88.14h2.83l7.06,19.74h-4Zm-5-3.08h4.2l-1.46-4.37L265.28,5h-.14l-.58,3.11Z"/><path d="M275.45.47c.43-.07.89-.14,1.38-.2s1-.12,1.49-.16,1-.06,1.44-.08l1.29,0a14.35,14.35,0,0,1,2.7.25,7.41,7.41,0,0,1,2.38.87,4.69,4.69,0,0,1,1.68,1.69,5.3,5.3,0,0,1,.63,2.71,6.41,6.41,0,0,1-1.12,3.92,5.89,5.89,0,0,1-3,2.1l1.38.86,4.48,7.48h-4.43l-4.45-7.67-2-.37v8h-3.83Zm5.88,3-1.16,0a5.07,5.07,0,0,0-.89.11V9.24h1.63a4.09,4.09,0,0,0,2.55-.73,2.85,2.85,0,0,0,1-2.41,2.51,2.51,0,0,0-.79-2A3.26,3.26,0,0,0,281.33,3.42Z"/><path d="M141,13.08h-5.72V29.26H131.4V13.08h-5.74V9.66H141Z"/><path d="M144.08,26.18H148V15.12l.42-1.9-1.34,1.65-2.49,1.71L143,14.48l6.38-5.16h2V26.18h3.8v3.08H144.08Z"/><path d="M172.61,23.8h-3.08v5.46h-3.39V23.8h-8.48V21.73l8.88-12.21h3V20.89h3.08Zm-6.47-7.2.26-2.35h-.12l-.95,2-2.91,3.78L161,21.11l1.79-.22h3.33Z"/><path d="M337.1,78.71a3.54,3.54,0,0,0,2.65-.92,3.1,3.1,0,0,0,.91-2.24,2.81,2.81,0,0,0-1-2.35,4.74,4.74,0,0,0-3-.76h-2V70.51l3.39-4.62,1.6-1.26-2.22.25h-4.7V61.8h10.7v2l-3.95,5.29-1.23.76V70l1.17-.17a6,6,0,0,1,1.86.45,4.31,4.31,0,0,1,1.54,1,5,5,0,0,1,1,1.69,6.22,6.22,0,0,1,.4,2.33,6.74,6.74,0,0,1-.55,2.85,5.65,5.65,0,0,1-1.51,2A6.29,6.29,0,0,1,340,81.4a9.46,9.46,0,0,1-2.77.39,15.15,15.15,0,0,1-2.55-.22,7.41,7.41,0,0,1-2.12-.64l1-3a8,8,0,0,0,1.61.59A7.91,7.91,0,0,0,337.1,78.71Z"/><path d="M361.71,75.94h-3.08V81.4h-3.39V75.94h-8.48V73.87l8.88-12.21h3V73h3.08Zm-6.47-7.19.26-2.36h-.12l-.95,2-2.91,3.78-1.4,1.06,1.79-.22h3.33Z"/><path d="M499.35,39.64H486.94V20h3.84V36.23h8.57Z"/><path d="M504.75,25.64v8a5.56,5.56,0,0,0,.41,2.47,1.63,1.63,0,0,0,1.58.75,2.48,2.48,0,0,0,1.72-.61,3.75,3.75,0,0,0,1-1.51v-9h3.64v9.75a20.92,20.92,0,0,0,.12,2.25,13.45,13.45,0,0,0,.33,2h-2.74l-.65-2.07h-.11A5.12,5.12,0,0,1,505.56,40a5.89,5.89,0,0,1-1.9-.28,3,3,0,0,1-1.4-.92,4.29,4.29,0,0,1-.85-1.74,10.49,10.49,0,0,1-.3-2.74V25.64Z"/><path d="M519.48,32.47l-4.2-6.83h4.34l1.82,3,.78,2,.84-2,1.91-3h3.95l-4.23,6.72,4.51,7.28H525l-2.16-3.36L522,34.21l-.89,2.07-2.16,3.36h-4Z"/><path d="M531.1,20.24c.43-.08.89-.15,1.39-.21s1-.12,1.48-.15l1.44-.09,1.29,0a15.15,15.15,0,0,1,2.7.25,7.41,7.41,0,0,1,2.38.87,4.64,4.64,0,0,1,1.68,1.7,5.26,5.26,0,0,1,.63,2.7A6.41,6.41,0,0,1,543,29.2a5.71,5.71,0,0,1-3,2.1l1.37.87,4.48,7.47H541.4L537,32l-2-.36v8H531.1ZM537,23.18c-.39,0-.78,0-1.16,0a3.58,3.58,0,0,0-.88.11V29h1.62a4.09,4.09,0,0,0,2.55-.73,2.83,2.83,0,0,0,.95-2.4,2.56,2.56,0,0,0-.78-2A3.35,3.35,0,0,0,537,23.18Z"/><path d="M658.69,14.08H653V30.26h-3.83V14.08H643.4V10.66h15.29Z"/><path d="M661.82,27.18h3.89V16.12l.42-1.9-1.34,1.65-2.49,1.71-1.54-2.1,6.38-5.15h2V27.18H673v3.08H661.82Z"/><path d="M690.35,24.8h-3.08v5.46h-3.39V24.8H675.4V22.73l8.88-12.21h3V21.89h3.08Zm-6.47-7.19.26-2.36H684l-.95,2-2.91,3.78-1.4,1.06,1.79-.22h3.33Z"/><path d="M762.53,78.71a3.54,3.54,0,0,0,2.64-.92,3.06,3.06,0,0,0,.91-2.24,2.83,2.83,0,0,0-1-2.35,4.78,4.78,0,0,0-3-.76h-2V70.51l3.39-4.62,1.59-1.26-2.21.25h-4.7V61.8h10.69v2l-4,5.29-1.23.76V70l1.18-.17a6.18,6.18,0,0,1,1.86.45,4.4,4.4,0,0,1,1.54,1A5,5,0,0,1,769.33,73a6.43,6.43,0,0,1,.39,2.33,6.9,6.9,0,0,1-.54,2.85,5.68,5.68,0,0,1-1.52,2,6.25,6.25,0,0,1-2.25,1.2,9.51,9.51,0,0,1-2.77.39,15.15,15.15,0,0,1-2.55-.22,7.39,7.39,0,0,1-2.13-.64l1-3a8.26,8.26,0,0,0,1.61.59A8.05,8.05,0,0,0,762.53,78.71Z"/><path d="M787.14,75.94h-3.08V81.4h-3.39V75.94h-8.48V73.87l8.87-12.21h3V73h3.08Zm-6.47-7.19.25-2.36h-.11l-.95,2L777,72.19l-1.41,1.06,1.8-.22h3.33Z"/><rect class="cls-4" x="435.92" y="57.19" width="160" height="55.93"/></g></g></svg>