<svg id="Layer_2" data-name="Layer 2" xmlns="http://www.w3.org/2000/svg" xmlns:xlink="http://www.w3.org/1999/xlink" viewBox="0 0 838.53 721.06"><defs><style>.cls-1,.cls-14{fill:none;}.cls-2{fill:#4e7b99;}.cls-3{fill:#c6e1d5;}.cls-4{clip-path:url(#clip-path);}.cls-5{fill:#bec665;}.cls-6{fill:#7ec5b0;}.cls-7{fill:#86ad84;}.cls-8{fill:#0079bf;}.cls-9{clip-path:url(#clip-path-3);}.cls-10{fill:#d11415;}.cls-11{fill:#412350;}.cls-12{fill:#e2d3e8;}.cls-13{fill:#4d4d4d;}.cls-14{stroke:#225a7f;stroke-miterlimit:10;stroke-width:6px;}.cls-15{fill:#fff;}.cls-16{clip-path:url(#clip-path-5);}.cls-17{fill:#5f6630;}.cls-18{fill:#225a7f;}</style><clipPath id="clip-path" transform="translate(-206.09 -79.45)"><rect class="cls-1" x="386.45" y="32.7" width="313.86" height="154.87"/></clipPath><clipPath id="clip-path-3" transform="translate(-206.09 -79.45)"><rect class="cls-1" x="391.4" y="505.1" width="313.86" height="154.87"/></clipPath><clipPath id="clip-path-5" transform="translate(-206.09 -79.45)"><rect class="cls-1" x="634.25" y="617.81" width="119.95" height="63.62" transform="translate(-235.42 450.34) rotate(-31)"/></clipPath><symbol id="Arrow_26" data-name="Arrow 26" viewBox="0 0 98.56 28.77"><rect class="cls-1" x="32.5" width="45.72" height="26.28"/><polygon class="cls-2" points="0 21.97 69.35 21.97 69.14 28.77 98.56 15.63 69.35 2.49 69.35 9.29 0 9.29 0 21.97"/></symbol></defs><title>biosensor_scheme</title><path d="M535.92,142.24q-1.29,156.14,2.93,312.23,1.17,43.81,2.79,87.62c.31,8.24,9.09,8.3,8.78,0q-5.76-155.94-6-312.15,0-43.84.31-87.7C544.77,133.94,536,133.94,535.92,142.24Z" transform="translate(-206.09 -79.45)"/><path d="M519.56,520.08c8.68,7.46,16.24,17.44,22.21,29.33,1.69,3.38,4.67,4.37,6.89,1.3a188.26,188.26,0,0,0,22.14-40.62c2.89-7.16-4.7-13.65-7.57-6.51a175.91,175.91,0,0,1-20.76,38l6.89,1.3C542.57,529.16,533.94,517.61,524,509c-4.87-4.22-9.3,6.92-4.43,11.13Z" transform="translate(-206.09 -79.45)"/><rect class="cls-3" y="153.12" width="838.53" height="42.84"/><rect class="cls-3" y="287.08" width="833.33" height="42.84"/><path d="M342.52,460.77c24.34-20.18,53.6-33.3,84.18-40.8s62.74-9.18,94.17-10.76c55.38-2.78,110.65,7.24,163.45,23.51,25.51,7.87,52.72,16.93,74.32,33.11,1.54,1.16,3-1.44,1.51-2.59-18.88-14.14-42.21-22.63-64.39-30a588.74,588.74,0,0,0-82-20.73c-28.2-5-56.81-7.62-85.46-6.62-15.45.54-30.87,1.85-46.28,3-15.84,1.22-31.55,2.85-47.13,6.11-34.36,7.19-67.36,21.11-94.52,43.62-1.49,1.24.64,3.35,2.12,2.12Z" transform="translate(-206.09 -79.45)"/><path d="M757.16,454.89a46.3,46.3,0,0,0,3.15,13.38l2.21-1.69a28.78,28.78,0,0,0-14.18-2.72c-1.92.12-1.93,3.12,0,3A25.65,25.65,0,0,1,761,469.17c1,.48,2.75-.35,2.21-1.69a43.83,43.83,0,0,1-3.05-12.59c-.16-1.91-3.16-1.93-3,0Z" transform="translate(-206.09 -79.45)"/><path d="M511.29,638.92H500.21v-17.5h3.42v14.45h7.66Z" transform="translate(-206.09 -79.45)"/><path d="M522.58,638.2a5.15,5.15,0,0,1-2,.82,12.58,12.58,0,0,1-2.54.25,9,9,0,0,1-3-.49,6.42,6.42,0,0,1-2.49-1.57,8,8,0,0,1-1.71-2.83,12.36,12.36,0,0,1-.63-4.21,11.3,11.3,0,0,1,.71-4.31,7.74,7.74,0,0,1,1.85-2.8,6.85,6.85,0,0,1,2.53-1.53,9.17,9.17,0,0,1,2.8-.46,14,14,0,0,1,2.54.2,8.53,8.53,0,0,1,1.71.48l-.67,2.9a4.63,4.63,0,0,0-1.36-.4,11.73,11.73,0,0,0-1.92-.13,4.15,4.15,0,0,0-3.33,1.48,6.94,6.94,0,0,0-1.27,4.58,9.5,9.5,0,0,0,.3,2.47,5.26,5.26,0,0,0,.92,1.9,4.14,4.14,0,0,0,1.52,1.23,4.71,4.71,0,0,0,2.11.44,6.89,6.89,0,0,0,1.9-.22,5.6,5.6,0,0,0,1.35-.58Z" transform="translate(-206.09 -79.45)"/><path d="M524.71,621.42h10.37v3.05h-7v4.33h6.4v3.05h-6.4v7.07h-3.42Z" transform="translate(-206.09 -79.45)"/><path d="M546,635.05h-5.37l-1.33,3.87h-3.42l6.3-17.62h2.52l6.3,17.62h-3.6Zm-4.5-2.75h3.75l-1.3-3.9-.52-2.75h-.13l-.52,2.77Z" transform="translate(-206.09 -79.45)"/><path d="M557.33,629.12h4V624.9h2.93v4.22h4.07v2.75h-4.07v4.28h-2.93v-4.28h-4Z" transform="translate(-206.09 -79.45)"/><path d="M588.78,638.2a5.15,5.15,0,0,1-2,.82,12.58,12.58,0,0,1-2.54.25,9,9,0,0,1-3-.49,6.42,6.42,0,0,1-2.49-1.57,8,8,0,0,1-1.71-2.83,12.35,12.35,0,0,1-.64-4.21,11.28,11.28,0,0,1,.72-4.31,7.74,7.74,0,0,1,1.85-2.8,6.77,6.77,0,0,1,2.53-1.53,9.17,9.17,0,0,1,2.8-.46,14,14,0,0,1,2.54.2,8.53,8.53,0,0,1,1.71.48l-.67,2.9a4.63,4.63,0,0,0-1.36-.4,11.73,11.73,0,0,0-1.92-.13,4.15,4.15,0,0,0-3.33,1.48,6.88,6.88,0,0,0-1.27,4.58,9.5,9.5,0,0,0,.3,2.47,5.26,5.26,0,0,0,.92,1.9,4.06,4.06,0,0,0,1.52,1.23,4.71,4.71,0,0,0,2.11.44,6.89,6.89,0,0,0,1.9-.22,5.6,5.6,0,0,0,1.35-.58Z" transform="translate(-206.09 -79.45)"/><path d="M589.33,632.67a7.05,7.05,0,0,1,1.55-4.89,5.59,5.59,0,0,1,4.35-1.71,6.45,6.45,0,0,1,2.6.48,4.76,4.76,0,0,1,1.83,1.33,5.93,5.93,0,0,1,1.09,2.09,9.58,9.58,0,0,1,.36,2.7,7,7,0,0,1-1.54,4.89,5.53,5.53,0,0,1-4.34,1.71,6.67,6.67,0,0,1-2.6-.47,5.06,5.06,0,0,1-1.83-1.34,5.5,5.5,0,0,1-1.1-2.09A9.23,9.23,0,0,1,589.33,632.67Zm3.35,0a7.35,7.35,0,0,0,.15,1.53,4.29,4.29,0,0,0,.45,1.22,2.2,2.2,0,0,0,.79.81,2.27,2.27,0,0,0,1.16.29,2.14,2.14,0,0,0,1.9-.92,5.33,5.33,0,0,0,.63-2.93,5.78,5.78,0,0,0-.58-2.79,2,2,0,0,0-1.95-1.06,2.2,2.2,0,0,0-1.87.9A5,5,0,0,0,592.68,632.67Z" transform="translate(-206.09 -79.45)"/><path d="M612.06,635.05h-5.38l-1.32,3.87h-3.43l6.3-17.62h2.53l6.3,17.62h-3.6Zm-4.5-2.75h3.75l-1.3-3.9-.53-2.75h-.12l-.53,2.77Z" transform="translate(-206.09 -79.45)"/><g class="cls-4"><polygon class="cls-5" points="225.46 24.96 232.51 20.22 233.98 21.65 225.48 30.11 225.46 24.96"/><polygon class="cls-5" points="240.03 22.94 242.26 32.98 246.24 29 241.89 21.65 240.03 22.94"/><polygon class="cls-5" points="274.37 34.49 263.86 28.5 264.31 27.28 277.3 33.06 274.37 34.49"/><polygon class="cls-5" points="252.29 31.98 257.36 25.09 259.97 27.39 254.25 34.56 252.29 31.98"/><polygon class="cls-5" points="281.38 32.98 287.76 22.94 290.21 24.09 282.86 32.98 281.38 32.98"/><polygon class="cls-5" points="294.95 22.94 304.6 30.83 300.67 32.98 293.48 24.23 294.95 22.94"/><polygon class="cls-5" points="319.47 24.23 311.32 32.63 310.97 32.98 311.95 34.42 319.47 25.09 319.47 24.23"/><polygon class="cls-5" points="326.34 25.09 332.71 32.27 335.17 29.25 327.32 22.94 326.34 25.09"/><polygon class="cls-5" points="341.54 30.26 344.98 22.94 347.1 24.09 343.01 32.27 341.54 30.26"/><polygon class="cls-5" points="354.78 24.23 361.98 31.26 364.26 29.25 356.58 22.94 354.78 24.23"/><polygon class="cls-5" points="372.44 30.26 380.77 24.09 381.92 25.09 372.44 32.98 372.44 30.26"/><polygon class="cls-5" points="385.02 25.09 388.46 37.72 390.91 36.14 386.82 25.09 385.02 25.09"/><polygon class="cls-5" points="395.81 39.29 403.99 32.27 403.99 32.98 397.29 41.01 395.81 38.43 395.81 39.29"/><polygon class="cls-5" points="411.67 34.56 421.31 39.29 424.1 36.85 413.8 32.98 411.67 34.56"/><polygon class="cls-5" points="430.31 36.14 434.56 27.1 436.68 28.54 431.78 37.72 430.31 36.14"/><polygon class="cls-5" points="443.22 19.18 450.74 9.89 450.74 11.88 444.33 20.51 443.22 19.18"/><polygon class="cls-5" points="445.35 24.23 461.04 24.09 461.04 27.1 445.35 25.67 445.35 24.23"/><polygon class="cls-5" points="445.67 19.65 452.21 13.34 452.87 14.05 445.67 20.94 445.67 19.65"/><polygon class="cls-5" points="464.96 33.41 466.76 41.01 468.07 40.44 465.94 32.98 464.96 33.41"/><polygon class="cls-5" points="433.9 46.17 437.83 52.91 437.17 52.91 433.09 46.17 433.9 46.17"/><polygon class="cls-5" points="425.73 46.75 421.64 52.05 421.64 51.48 424.58 46.17 425.73 46.75"/><polygon class="cls-5" points="414.94 25.52 417.88 20.08 417.23 20.08 413.96 25.52 414.94 25.52"/><polygon class="cls-5" points="407.58 24.09 403.99 14.05 402.68 14.05 406.93 24.23 407.58 24.09"/><polygon class="cls-5" points="395.81 45.03 401.7 53.78 400.88 54.21 395.16 45.6 395.81 45.03"/><polygon class="cls-5" points="389.6 46.89 385.52 54.64 385.02 54.21 387.97 46.89 389.6 46.89"/><polygon class="cls-5" points="386.01 16.35 385.02 9.89 383.88 9.89 385.02 16.35 386.01 16.35"/><polygon class="cls-5" points="381.92 18.07 374.73 15.77 374.73 16.35 381.1 18.79 381.92 18.07"/><polygon class="cls-5" points="355.93 15.63 360.34 4.88 359.52 4.88 355.27 15.77 355.93 15.63"/><polygon class="cls-5" points="351.19 14.05 348.9 7.89 348.08 7.89 350.7 14.48 351.19 14.05"/><polygon class="cls-5" points="361.81 39.29 356.75 45.46 357.89 45.46 362.3 39.29 361.81 39.29"/><polygon class="cls-5" points="366.88 41.73 366.88 52.91 367.7 52.48 367.7 41.01 366.88 41.73"/><polygon class="cls-5" points="341.54 40.44 341.57 41.01 342.03 49.76 341.54 49.76 340.73 39.87 341.54 40.44"/><polygon class="cls-5" points="336.64 38.58 330.75 44.17 330.75 43.31 335.82 37.72 336.64 38.58"/><polygon class="cls-5" points="326.34 18.07 328.3 11.76 327.32 11.76 325.85 18.07 326.34 18.07"/><polygon class="cls-5" points="319.47 16.35 317.19 13.62 316.37 14.05 318.82 17.35 319.47 16.35"/><polygon class="cls-5" points="309.99 41.01 312.28 47.32 311.63 47.32 308.68 41.01 309.99 41.01"/><polygon class="cls-5" points="304.6 41.01 302.47 45.74 301.65 45.17 303.94 39.87 304.6 41.01"/><polygon class="cls-5" points="295.07 16.09 297.08 9.61 296.1 9.61 293.97 16.92 295.07 16.09"/><polygon class="cls-5" points="289.39 15.49 286.45 6.31 286.13 7.17 288.58 15.92 289.39 15.49"/><polygon class="cls-5" points="280.73 42.88 282.86 52.48 281.71 52.48 279.26 42.88 280.73 42.88"/><polygon class="cls-5" points="275.66 42.88 272.07 50.48 271.41 49.19 274.85 42.88 275.66 42.88"/><polygon class="cls-5" points="248.69 41.73 249.34 46.17 248.69 46.17 247.87 41.73 248.69 41.73"/><polygon class="cls-5" points="244.11 41.01 238.72 47.75 238.06 46.75 244.11 39.87 244.11 41.01"/><polygon class="cls-5" points="260.62 16.49 259.97 14.48 258.83 14.48 259.64 16.92 260.62 16.49"/><polygon class="cls-5" points="265.53 16.31 267.98 12.33 269.12 12.76 265.53 17.5 265.53 16.31"/><polygon class="cls-5" points="241.17 13.34 244.11 9.61 243.13 8.6 240.52 13.34 241.17 13.34"/><polygon class="cls-5" points="236.27 11.76 235.12 6.31 233.98 7.03 235.12 11.76 236.27 11.76"/><polygon class="cls-5" points="219.27 25.52 215.18 17.5 214.53 17.5 218.78 25.96 219.27 25.52"/><polygon class="cls-5" points="215.34 32.12 205.86 33.84 205.86 34.56 216 32.98 215.34 32.12"/><polygon class="cls-5" points="219.27 36.14 218.12 43.31 218.61 43.31 220.41 36.14 219.27 36.14"/><g class="cls-4"><path class="cls-6" d="M424.21,96.51a3.63,3.63,0,1,1-3.6-3.15,3.4,3.4,0,0,1,3.6,3.15" transform="translate(-206.09 -79.45)"/><path class="cls-6" d="M443.66,84.9a3.62,3.62,0,1,1-3.59-3.16,3.39,3.39,0,0,1,3.59,3.16" transform="translate(-206.09 -79.45)"/><path class="cls-6" d="M454.78,87.19a3.63,3.63,0,1,1-3.6-3.15,3.4,3.4,0,0,1,3.6,3.15" transform="translate(-206.09 -79.45)"/><path class="cls-6" d="M468.51,92.21a3.63,3.63,0,1,1-3.59-3.15,3.4,3.4,0,0,1,3.59,3.15" transform="translate(-206.09 -79.45)"/><path class="cls-6" d="M478.81,90.35a3.62,3.62,0,1,1-3.6-3.16,3.4,3.4,0,0,1,3.6,3.16" transform="translate(-206.09 -79.45)"/><path class="cls-6" d="M495.48,84.9a3.62,3.62,0,1,1-3.59-3.16,3.39,3.39,0,0,1,3.59,3.16" transform="translate(-206.09 -79.45)"/><path class="cls-6" d="M507.25,88.05a3.63,3.63,0,1,1-3.59-3.15,3.39,3.39,0,0,1,3.59,3.15" transform="translate(-206.09 -79.45)"/><path class="cls-6" d="M525.56,92.21A3.63,3.63,0,1,1,522,89.06a3.4,3.4,0,0,1,3.59,3.15" transform="translate(-206.09 -79.45)"/><path class="cls-6" d="M538,90.35a3.63,3.63,0,1,1-3.6-3.16,3.4,3.4,0,0,1,3.6,3.16" transform="translate(-206.09 -79.45)"/><path class="cls-6" d="M556.79,85.76a3.63,3.63,0,1,1-3.6-3.16,3.4,3.4,0,0,1,3.6,3.16" transform="translate(-206.09 -79.45)"/><path class="cls-6" d="M569.21,82.6a3.63,3.63,0,1,1-3.6-3.15,3.4,3.4,0,0,1,3.6,3.15" transform="translate(-206.09 -79.45)"/><path class="cls-6" d="M582.61,95.08A3.63,3.63,0,1,1,579,91.93a3.4,3.4,0,0,1,3.59,3.15" transform="translate(-206.09 -79.45)"/><path class="cls-6" d="M593.57,88.05A3.63,3.63,0,1,1,590,84.9a3.4,3.4,0,0,1,3.6,3.15" transform="translate(-206.09 -79.45)"/><path class="cls-6" d="M612.37,91.93a3.63,3.63,0,1,1-3.6-3.16,3.4,3.4,0,0,1,3.6,3.16" transform="translate(-206.09 -79.45)"/><path class="cls-6" d="M628.71,98.24a3.62,3.62,0,1,1-3.59-3.16,3.39,3.39,0,0,1,3.59,3.16" transform="translate(-206.09 -79.45)"/><path class="cls-6" d="M427.81,124.91a3.63,3.63,0,1,1-3.6-3.16,3.4,3.4,0,0,1,3.6,3.16" transform="translate(-206.09 -79.45)"/><path class="cls-6" d="M447.26,127.78a3.62,3.62,0,1,1-3.6-3.16,3.4,3.4,0,0,1,3.6,3.16" transform="translate(-206.09 -79.45)"/><path class="cls-6" d="M458.38,127.78a3.63,3.63,0,1,1-3.6-3.16,3.4,3.4,0,0,1,3.6,3.16" transform="translate(-206.09 -79.45)"/><path class="cls-6" d="M480.28,130.93a3.63,3.63,0,1,1-3.59-3.15,3.4,3.4,0,0,1,3.59,3.15" transform="translate(-206.09 -79.45)"/><path class="cls-6" d="M492.54,134.09a3.62,3.62,0,1,1-3.59-3.16,3.39,3.39,0,0,1,3.59,3.16" transform="translate(-206.09 -79.45)"/><path class="cls-6" d="M510.85,126.77a3.63,3.63,0,1,1-3.6-3.15,3.4,3.4,0,0,1,3.6,3.15" transform="translate(-206.09 -79.45)"/><path class="cls-6" d="M521.31,127.78a3.62,3.62,0,1,1-3.59-3.16,3.39,3.39,0,0,1,3.59,3.16" transform="translate(-206.09 -79.45)"/><path class="cls-6" d="M539.13,124.62a3.63,3.63,0,1,1-3.6-3.15,3.4,3.4,0,0,1,3.6,3.15" transform="translate(-206.09 -79.45)"/><path class="cls-6" d="M550.41,130.93a3.63,3.63,0,1,1-3.6-3.15,3.4,3.4,0,0,1,3.6,3.15" transform="translate(-206.09 -79.45)"/><path class="cls-6" d="M565.61,126.77a3.63,3.63,0,1,1-3.59-3.15,3.4,3.4,0,0,1,3.59,3.15" transform="translate(-206.09 -79.45)"/><path class="cls-6" d="M577.38,134.09a3.62,3.62,0,1,1-3.59-3.16,3.39,3.39,0,0,1,3.59,3.16" transform="translate(-206.09 -79.45)"/><path class="cls-6" d="M593.57,135.52a3.63,3.63,0,1,1-3.6-3.15,3.4,3.4,0,0,1,3.6,3.15" transform="translate(-206.09 -79.45)"/><path class="cls-6" d="M612.37,135.52a3.63,3.63,0,1,1-3.6-3.15,3.4,3.4,0,0,1,3.6,3.15" transform="translate(-206.09 -79.45)"/><path class="cls-6" d="M629.37,132.37a3.63,3.63,0,1,1-3.6-3.16,3.4,3.4,0,0,1,3.6,3.16" transform="translate(-206.09 -79.45)"/><path class="cls-6" d="M648.33,134.09a3.62,3.62,0,1,1-3.6-3.16,3.4,3.4,0,0,1,3.6,3.16" transform="translate(-206.09 -79.45)"/><path class="cls-6" d="M677.75,122.47a3.63,3.63,0,1,1-3.59-3.15,3.4,3.4,0,0,1,3.59,3.15" transform="translate(-206.09 -79.45)"/><path class="cls-6" d="M414.24,114.73a3.62,3.62,0,1,1-3.6-3.16,3.4,3.4,0,0,1,3.6,3.16" transform="translate(-206.09 -79.45)"/><path class="cls-7" d="M435.82,110.71c0,4-3.66,7.17-8.18,7.17s-8.17-3.21-8.17-7.17,3.66-7.17,8.17-7.17,8.18,3.21,8.18,7.17" transform="translate(-206.09 -79.45)"/><path class="cls-7" d="M451.18,96.94c0,3.73-3.44,6.74-7.68,6.74s-7.68-3-7.68-6.74,3.44-6.74,7.68-6.74,7.68,3,7.68,6.74" transform="translate(-206.09 -79.45)"/><path class="cls-7" d="M462.14,115.59c0,4-3.66,7.17-8.18,7.17s-8.17-3.21-8.17-7.17,3.66-7.17,8.17-7.17,8.18,3.21,8.18,7.17" transform="translate(-206.09 -79.45)"/><path class="cls-7" d="M476.69,102.39c0,4-3.66,7.17-8.18,7.17s-8.17-3.21-8.17-7.17,3.66-7.17,8.17-7.17,8.18,3.21,8.18,7.17" transform="translate(-206.09 -79.45)"/><path class="cls-7" d="M492.21,117.16c0,4.12-3.8,7.46-8.5,7.46s-8.5-3.34-8.5-7.46,3.81-7.45,8.5-7.45,8.5,3.34,8.5,7.45" transform="translate(-206.09 -79.45)"/><path class="cls-7" d="M520.5,115.59c0,4-3.66,7.17-8.18,7.17s-8.17-3.21-8.17-7.17,3.66-7.17,8.17-7.17,8.18,3.21,8.18,7.17" transform="translate(-206.09 -79.45)"/><path class="cls-7" d="M503.66,100.39c0,3.56-3.3,6.45-7.36,6.45S489,104,489,100.39s3.29-6.46,7.35-6.46,7.36,2.89,7.36,6.46" transform="translate(-206.09 -79.45)"/><path class="cls-7" d="M535.53,101.68c0,3.64-3.36,6.59-7.51,6.59s-7.52-3-7.52-6.59,3.36-6.6,7.52-6.6,7.51,3,7.51,6.6" transform="translate(-206.09 -79.45)"/><path class="cls-7" d="M553.19,114c0,4-3.66,7.17-8.17,7.17s-8.18-3.21-8.18-7.17,3.66-7.17,8.18-7.17,8.17,3.21,8.17,7.17" transform="translate(-206.09 -79.45)"/><path class="cls-7" d="M565.45,99.67c0,4-3.66,7.17-8.17,7.17s-8.18-3.21-8.18-7.17,3.66-7.17,8.18-7.17,8.17,3.21,8.17,7.17" transform="translate(-206.09 -79.45)"/><path class="cls-7" d="M605.17,122.76c0,4-3.66,7.17-8.17,7.17s-8.17-3.21-8.17-7.17,3.66-7.17,8.17-7.17,8.17,3.21,8.17,7.17" transform="translate(-206.09 -79.45)"/><path class="cls-7" d="M599,101.18c0,3.36-3.11,6.09-7,6.09s-6.94-2.73-6.94-6.09,3.11-6.1,6.94-6.1,7,2.73,7,6.1" transform="translate(-206.09 -79.45)"/><path class="cls-7" d="M623.81,110.28c0,4.28-3.95,7.74-8.83,7.74s-8.83-3.46-8.83-7.74,4-7.74,8.83-7.74,8.83,3.46,8.83,7.74" transform="translate(-206.09 -79.45)"/><path class="cls-7" d="M642.61,121.25c0,3.76-3.48,6.81-7.77,6.81s-7.76-3-7.76-6.81,3.48-6.81,7.76-6.81,7.77,3,7.77,6.81" transform="translate(-206.09 -79.45)"/><path class="cls-7" d="M654.21,103.68c0,4-3.65,7.17-8.17,7.17s-8.17-3.21-8.17-7.17,3.66-7.17,8.17-7.17,8.17,3.21,8.17,7.17" transform="translate(-206.09 -79.45)"/><path class="cls-8" d="M678.74,106.7c0,4-3.66,7.17-8.18,7.17s-8.17-3.21-8.17-7.17,3.66-7.17,8.17-7.17,8.18,3.21,8.18,7.17" transform="translate(-206.09 -79.45)"/><path class="cls-8" d="M670.56,88.05c0,4-3.66,7.17-8.17,7.17s-8.18-3.21-8.18-7.17,3.66-7.17,8.18-7.17,8.17,3.21,8.17,7.17" transform="translate(-206.09 -79.45)"/><path class="cls-7" d="M582.61,114.65c0,4.32-4,7.82-8.9,7.82s-8.91-3.5-8.91-7.82,4-7.81,8.91-7.81,8.9,3.5,8.9,7.81" transform="translate(-206.09 -79.45)"/></g></g><g class="cls-9"><polygon class="cls-5" points="230.41 497.36 237.46 492.62 238.93 494.05 230.43 502.51 230.41 497.36"/><polygon class="cls-5" points="244.98 495.34 247.21 505.38 251.19 501.4 246.84 494.05 244.98 495.34"/><polygon class="cls-5" points="279.32 506.88 268.81 500.9 269.26 499.67 282.25 505.45 279.32 506.88"/><polygon class="cls-5" points="257.24 504.38 262.3 497.49 264.92 499.79 259.2 506.96 257.24 504.38"/><polygon class="cls-5" points="286.33 505.38 292.71 495.34 295.16 496.49 287.81 505.38 286.33 505.38"/><polygon class="cls-5" points="299.9 495.34 309.55 503.23 305.62 505.38 298.43 496.63 299.9 495.34"/><polygon class="cls-5" points="324.42 496.63 316.27 505.02 315.92 505.38 316.9 506.81 324.42 497.49 324.42 496.63"/><polygon class="cls-5" points="331.29 497.49 337.66 504.66 340.12 501.65 332.27 495.34 331.29 497.49"/><polygon class="cls-5" points="346.49 502.65 349.93 495.34 352.05 496.49 347.96 504.66 346.49 502.65"/><polygon class="cls-5" points="359.73 496.63 366.93 503.66 369.21 501.65 361.53 495.34 359.73 496.63"/><polygon class="cls-5" points="377.39 502.65 385.73 496.49 386.87 497.49 377.39 505.38 377.39 502.65"/><polygon class="cls-5" points="389.98 497.49 393.41 510.11 395.86 508.53 391.77 497.49 389.98 497.49"/><polygon class="cls-5" points="400.76 511.69 408.94 504.66 408.94 505.38 402.24 513.41 400.76 510.83 400.76 511.69"/><polygon class="cls-5" points="416.62 506.96 426.26 511.69 429.05 509.25 418.75 505.38 416.62 506.96"/><polygon class="cls-5" points="435.26 508.53 439.51 499.5 441.63 500.93 436.73 510.11 435.26 508.53"/><polygon class="cls-5" points="450.3 496.63 465.99 496.49 465.99 499.5 450.3 498.06 450.3 496.63"/><polygon class="cls-5" points="438.85 518.57 442.78 525.31 442.12 525.31 438.04 518.57 438.85 518.57"/><polygon class="cls-5" points="430.68 519.14 426.59 524.45 426.59 523.88 429.54 518.57 430.68 519.14"/><polygon class="cls-5" points="419.89 497.92 422.83 492.47 422.18 492.47 418.91 497.92 419.89 497.92"/><polygon class="cls-5" points="412.53 496.49 408.94 486.45 407.63 486.45 411.88 496.63 412.53 496.49"/><polygon class="cls-5" points="400.76 517.42 406.65 526.17 405.83 526.6 400.11 518 400.76 517.42"/><polygon class="cls-5" points="394.55 519.29 390.47 527.03 389.98 526.6 392.92 519.29 394.55 519.29"/><polygon class="cls-5" points="390.96 488.74 389.98 482.29 388.83 482.29 389.98 488.74 390.96 488.74"/><polygon class="cls-5" points="386.87 490.46 379.68 488.17 379.68 488.74 386.05 491.18 386.87 490.46"/><polygon class="cls-5" points="360.88 488.03 365.29 477.27 364.47 477.27 360.22 488.17 360.88 488.03"/><polygon class="cls-5" points="356.14 486.45 353.85 480.28 353.03 480.28 355.65 486.88 356.14 486.45"/><polygon class="cls-5" points="366.76 511.69 361.69 517.86 362.84 517.86 367.25 511.69 366.76 511.69"/><polygon class="cls-5" points="371.83 514.13 371.83 525.31 372.65 524.88 372.65 513.41 371.83 514.13"/><polygon class="cls-5" points="346.49 512.84 346.52 513.4 346.98 522.16 346.49 522.16 345.68 512.26 346.49 512.84"/><polygon class="cls-5" points="341.59 510.97 335.7 516.56 335.7 515.7 340.77 510.11 341.59 510.97"/><polygon class="cls-5" points="331.29 490.46 333.25 484.15 332.27 484.15 330.8 490.46 331.29 490.46"/><polygon class="cls-5" points="324.42 488.74 322.13 486.02 321.32 486.45 323.77 489.75 324.42 488.74"/><polygon class="cls-5" points="314.94 513.41 317.23 519.72 316.58 519.72 313.63 513.41 314.94 513.41"/><polygon class="cls-5" points="309.55 513.41 307.42 518.14 306.61 517.57 308.89 512.26 309.55 513.41"/><polygon class="cls-5" points="300.02 488.49 302.03 482 301.05 482 298.92 489.32 300.02 488.49"/><polygon class="cls-5" points="294.35 487.88 291.4 478.71 291.07 479.57 293.53 488.31 294.35 487.88"/><polygon class="cls-5" points="285.68 515.27 287.81 524.88 286.66 524.88 284.21 515.27 285.68 515.27"/><polygon class="cls-5" points="280.61 515.27 277.02 522.87 276.36 521.58 279.8 515.27 280.61 515.27"/><polygon class="cls-5" points="253.64 514.13 254.29 518.57 253.64 518.57 252.82 514.13 253.64 514.13"/><polygon class="cls-5" points="249.06 513.41 243.67 520.15 243.01 519.14 249.06 512.26 249.06 513.41"/><polygon class="cls-5" points="265.57 488.89 264.92 486.88 263.78 486.88 264.59 489.32 265.57 488.89"/><polygon class="cls-5" points="270.48 488.71 272.93 484.73 274.07 485.16 270.48 489.89 270.48 488.71"/><polygon class="cls-5" points="246.12 485.73 249.06 482 248.08 481 245.47 485.73 246.12 485.73"/><polygon class="cls-5" points="241.22 484.15 240.07 478.71 238.93 479.42 240.07 484.15 241.22 484.15"/><polygon class="cls-5" points="224.22 497.92 220.13 489.89 219.47 489.89 223.72 498.35 224.22 497.92"/><polygon class="cls-5" points="220.29 504.52 210.81 506.24 210.81 506.96 220.95 505.38 220.29 504.52"/><polygon class="cls-5" points="224.22 508.53 223.07 515.7 223.56 515.7 225.36 508.53 224.22 508.53"/><g class="cls-9"><path class="cls-6" d="M429.16,568.91a3.63,3.63,0,1,1-3.6-3.15,3.4,3.4,0,0,1,3.6,3.15" transform="translate(-206.09 -79.45)"/><path class="cls-6" d="M448.61,557.3a3.62,3.62,0,1,1-3.59-3.16,3.39,3.39,0,0,1,3.59,3.16" transform="translate(-206.09 -79.45)"/><path class="cls-6" d="M459.73,559.59a3.63,3.63,0,1,1-3.6-3.15,3.4,3.4,0,0,1,3.6,3.15" transform="translate(-206.09 -79.45)"/><path class="cls-6" d="M473.46,564.61a3.62,3.62,0,1,1-3.6-3.16,3.4,3.4,0,0,1,3.6,3.16" transform="translate(-206.09 -79.45)"/><path class="cls-6" d="M483.76,562.74a3.63,3.63,0,1,1-3.6-3.15,3.4,3.4,0,0,1,3.6,3.15" transform="translate(-206.09 -79.45)"/><path class="cls-6" d="M500.43,557.3a3.62,3.62,0,1,1-3.59-3.16,3.39,3.39,0,0,1,3.59,3.16" transform="translate(-206.09 -79.45)"/><path class="cls-6" d="M512.2,560.45a3.63,3.63,0,1,1-3.59-3.15,3.4,3.4,0,0,1,3.59,3.15" transform="translate(-206.09 -79.45)"/><path class="cls-6" d="M530.51,564.61a3.62,3.62,0,1,1-3.59-3.16,3.39,3.39,0,0,1,3.59,3.16" transform="translate(-206.09 -79.45)"/><path class="cls-6" d="M542.94,562.74a3.63,3.63,0,1,1-3.6-3.15,3.4,3.4,0,0,1,3.6,3.15" transform="translate(-206.09 -79.45)"/><path class="cls-6" d="M561.74,558.16a3.63,3.63,0,1,1-3.6-3.16,3.4,3.4,0,0,1,3.6,3.16" transform="translate(-206.09 -79.45)"/><path class="cls-6" d="M574.16,555a3.63,3.63,0,1,1-3.6-3.15,3.4,3.4,0,0,1,3.6,3.15" transform="translate(-206.09 -79.45)"/><path class="cls-6" d="M587.56,567.48a3.62,3.62,0,1,1-3.59-3.16,3.39,3.39,0,0,1,3.59,3.16" transform="translate(-206.09 -79.45)"/><path class="cls-6" d="M598.52,560.45a3.63,3.63,0,1,1-3.6-3.15,3.4,3.4,0,0,1,3.6,3.15" transform="translate(-206.09 -79.45)"/><path class="cls-6" d="M617.32,564.32a3.63,3.63,0,1,1-3.6-3.15,3.4,3.4,0,0,1,3.6,3.15" transform="translate(-206.09 -79.45)"/><path class="cls-6" d="M633.66,570.63a3.63,3.63,0,1,1-3.59-3.15,3.4,3.4,0,0,1,3.59,3.15" transform="translate(-206.09 -79.45)"/><path class="cls-6" d="M432.76,597.3a3.63,3.63,0,1,1-3.6-3.15,3.4,3.4,0,0,1,3.6,3.15" transform="translate(-206.09 -79.45)"/><path class="cls-6" d="M452.21,600.17a3.63,3.63,0,1,1-3.6-3.15,3.4,3.4,0,0,1,3.6,3.15" transform="translate(-206.09 -79.45)"/><path class="cls-6" d="M463.33,600.17a3.63,3.63,0,1,1-3.6-3.15,3.4,3.4,0,0,1,3.6,3.15" transform="translate(-206.09 -79.45)"/><path class="cls-6" d="M485.23,603.33a3.62,3.62,0,1,1-3.6-3.16,3.4,3.4,0,0,1,3.6,3.16" transform="translate(-206.09 -79.45)"/><path class="cls-6" d="M497.49,606.48a3.63,3.63,0,1,1-3.59-3.15,3.4,3.4,0,0,1,3.59,3.15" transform="translate(-206.09 -79.45)"/><path class="cls-6" d="M515.8,599.17a3.62,3.62,0,1,1-3.6-3.16,3.4,3.4,0,0,1,3.6,3.16" transform="translate(-206.09 -79.45)"/><path class="cls-6" d="M526.26,600.17a3.63,3.63,0,1,1-3.59-3.15,3.4,3.4,0,0,1,3.59,3.15" transform="translate(-206.09 -79.45)"/><path class="cls-6" d="M544.08,597a3.62,3.62,0,1,1-3.6-3.16,3.4,3.4,0,0,1,3.6,3.16" transform="translate(-206.09 -79.45)"/><path class="cls-6" d="M555.36,603.33a3.62,3.62,0,1,1-3.6-3.16,3.4,3.4,0,0,1,3.6,3.16" transform="translate(-206.09 -79.45)"/><path class="cls-6" d="M570.56,599.17A3.62,3.62,0,1,1,567,596a3.39,3.39,0,0,1,3.59,3.16" transform="translate(-206.09 -79.45)"/><path class="cls-6" d="M582.33,606.48a3.63,3.63,0,1,1-3.59-3.15,3.4,3.4,0,0,1,3.59,3.15" transform="translate(-206.09 -79.45)"/><path class="cls-6" d="M598.52,607.92a3.63,3.63,0,1,1-3.6-3.16,3.4,3.4,0,0,1,3.6,3.16" transform="translate(-206.09 -79.45)"/><path class="cls-6" d="M617.32,607.92a3.63,3.63,0,1,1-3.6-3.16,3.4,3.4,0,0,1,3.6,3.16" transform="translate(-206.09 -79.45)"/><path class="cls-6" d="M634.32,604.76a3.63,3.63,0,1,1-3.6-3.15,3.4,3.4,0,0,1,3.6,3.15" transform="translate(-206.09 -79.45)"/><path class="cls-6" d="M653.28,606.48a3.63,3.63,0,1,1-3.6-3.15,3.4,3.4,0,0,1,3.6,3.15" transform="translate(-206.09 -79.45)"/><path class="cls-6" d="M419.19,587.12a3.63,3.63,0,1,1-3.6-3.15,3.4,3.4,0,0,1,3.6,3.15" transform="translate(-206.09 -79.45)"/><path class="cls-7" d="M440.77,583.11c0,4-3.66,7.17-8.18,7.17s-8.17-3.21-8.17-7.17,3.66-7.17,8.17-7.17,8.18,3.21,8.18,7.17" transform="translate(-206.09 -79.45)"/><path class="cls-7" d="M456.13,569.34c0,3.72-3.44,6.74-7.68,6.74s-7.68-3-7.68-6.74,3.44-6.74,7.68-6.74,7.68,3,7.68,6.74" transform="translate(-206.09 -79.45)"/><path class="cls-7" d="M467.09,588c0,4-3.66,7.17-8.18,7.17s-8.17-3.21-8.17-7.17,3.66-7.17,8.17-7.17,8.18,3.21,8.18,7.17" transform="translate(-206.09 -79.45)"/><path class="cls-7" d="M481.63,574.79c0,4-3.65,7.17-8.17,7.17s-8.17-3.21-8.17-7.17,3.66-7.17,8.17-7.17,8.17,3.21,8.17,7.17" transform="translate(-206.09 -79.45)"/><path class="cls-7" d="M497.16,589.56c0,4.12-3.8,7.46-8.5,7.46s-8.5-3.34-8.5-7.46,3.81-7.46,8.5-7.46,8.5,3.34,8.5,7.46" transform="translate(-206.09 -79.45)"/><path class="cls-7" d="M525.45,588c0,4-3.66,7.17-8.18,7.17s-8.17-3.21-8.17-7.17,3.66-7.17,8.17-7.17,8.18,3.21,8.18,7.17" transform="translate(-206.09 -79.45)"/><path class="cls-7" d="M508.61,572.78c0,3.57-3.3,6.46-7.36,6.46s-7.35-2.89-7.35-6.46,3.29-6.45,7.35-6.45,7.36,2.89,7.36,6.45" transform="translate(-206.09 -79.45)"/><path class="cls-7" d="M540.48,574.07c0,3.65-3.36,6.6-7.52,6.6s-7.51-2.95-7.51-6.6,3.36-6.59,7.51-6.59,7.52,2.95,7.52,6.59" transform="translate(-206.09 -79.45)"/><path class="cls-7" d="M558.14,586.41c0,4-3.66,7.17-8.17,7.17s-8.18-3.21-8.18-7.17,3.66-7.17,8.18-7.17,8.17,3.21,8.17,7.17" transform="translate(-206.09 -79.45)"/><path class="cls-7" d="M570.4,572.07c0,4-3.66,7.17-8.17,7.17s-8.18-3.21-8.18-7.17,3.66-7.17,8.18-7.17,8.17,3.21,8.17,7.17" transform="translate(-206.09 -79.45)"/><path class="cls-7" d="M610.12,595.15c0,4-3.66,7.17-8.17,7.17s-8.17-3.21-8.17-7.17S597.44,588,602,588s8.17,3.21,8.17,7.17" transform="translate(-206.09 -79.45)"/><path class="cls-7" d="M603.91,573.57c0,3.37-3.11,6.1-6.95,6.1s-6.94-2.73-6.94-6.1,3.11-6.09,6.94-6.09,6.95,2.73,6.95,6.09" transform="translate(-206.09 -79.45)"/><path class="cls-7" d="M628.76,582.68c0,4.27-4,7.74-8.83,7.74s-8.83-3.47-8.83-7.74,4-7.75,8.83-7.75,8.83,3.47,8.83,7.75" transform="translate(-206.09 -79.45)"/><path class="cls-7" d="M647.56,593.65c0,3.76-3.48,6.81-7.77,6.81s-7.76-3.05-7.76-6.81,3.47-6.81,7.76-6.81,7.77,3,7.77,6.81" transform="translate(-206.09 -79.45)"/><path class="cls-7" d="M659.16,576.08c0,4-3.66,7.17-8.17,7.17s-8.17-3.21-8.17-7.17,3.66-7.17,8.17-7.17,8.17,3.21,8.17,7.17" transform="translate(-206.09 -79.45)"/><path class="cls-7" d="M587.56,587.05c0,4.32-4,7.82-8.91,7.82s-8.9-3.5-8.9-7.82,4-7.81,8.9-7.81,8.91,3.5,8.91,7.81" transform="translate(-206.09 -79.45)"/></g></g><path class="cls-10" d="M701.47,569.75a11.11,11.11,0,0,0-4.55-2.57A22.46,22.46,0,0,0,677,570.35c-2.45,1.8-4.67,4.49-4.42,7.52a7.44,7.44,0,0,0,3.17,5.16,20.23,20.23,0,0,0,5.63,2.67c4.34,1.5,8.9,2.82,13.46,2.33s9.18-3.2,10.64-7.56a9.53,9.53,0,0,0-4-10.83" transform="translate(-206.09 -79.45)"/><path class="cls-10" d="M702.53,568.69c-6.41-5.47-16.6-5-23.73-1.22-7.35,3.92-11.06,12.69-2.47,17.71,7.3,4.26,19,6.82,26.33,1.4,6.48-4.81,6-13.63-.38-18.24-1.57-1.13-3.07,1.47-1.52,2.59,6.75,4.88,2.93,13.57-4.24,15.27-5.32,1.26-11.23-.49-16.19-2.48-1.33-.53-3.88-1.48-4.66-2.79l-.57-6.53,1.79-2a18.92,18.92,0,0,1,7.2-3.86c5.16-1.55,12-1.37,16.32,2.29,1.46,1.25,3.6-.87,2.12-2.12Z" transform="translate(-206.09 -79.45)"/><path d="M356.09,507.73a5.13,5.13,0,0,1-2,.81,12.48,12.48,0,0,1-2.53.25,9.23,9.23,0,0,1-3-.48,6.45,6.45,0,0,1-2.49-1.58,7.63,7.63,0,0,1-1.71-2.82,12.21,12.21,0,0,1-.64-4.22,11.53,11.53,0,0,1,.71-4.31,8,8,0,0,1,1.85-2.8,6.73,6.73,0,0,1,2.54-1.52,8.84,8.84,0,0,1,2.8-.47,14,14,0,0,1,2.54.2,9.25,9.25,0,0,1,1.71.48l-.67,2.9a5,5,0,0,0-1.37-.4,12.72,12.72,0,0,0-1.91-.13,4.21,4.21,0,0,0-3.34,1.48,7,7,0,0,0-1.26,4.59,9.42,9.42,0,0,0,.3,2.46,5.47,5.47,0,0,0,.91,1.91A4.25,4.25,0,0,0,350,505.3a4.71,4.71,0,0,0,2.11.44,6.94,6.94,0,0,0,1.9-.22,5.23,5.23,0,0,0,1.35-.58Z" transform="translate(-206.09 -79.45)"/><path d="M356.64,502.19a7,7,0,0,1,1.55-4.88,5.53,5.53,0,0,1,4.35-1.72,6.45,6.45,0,0,1,2.6.48,4.84,4.84,0,0,1,1.83,1.34,5.71,5.71,0,0,1,1.08,2.08,9.58,9.58,0,0,1,.37,2.7,7.1,7.1,0,0,1-1.54,4.89,5.54,5.54,0,0,1-4.34,1.71,6.63,6.63,0,0,1-2.6-.47A5,5,0,0,1,358.1,507a5.56,5.56,0,0,1-1.1-2.09A9.48,9.48,0,0,1,356.64,502.19Zm3.35,0a7.35,7.35,0,0,0,.15,1.53,4.18,4.18,0,0,0,.45,1.22,2.08,2.08,0,0,0,2,1.1,2.13,2.13,0,0,0,1.9-.92,5.31,5.31,0,0,0,.63-2.93,5.83,5.83,0,0,0-.58-2.78,2,2,0,0,0-1.95-1.07,2.2,2.2,0,0,0-1.87.9A5,5,0,0,0,360,502.19Z" transform="translate(-206.09 -79.45)"/><path d="M379.37,504.57H374l-1.32,3.87h-3.43l6.3-17.62h2.53l6.3,17.62h-3.6Zm-4.5-2.75h3.75l-1.3-3.9-.53-2.75h-.12l-.53,2.77Z" transform="translate(-206.09 -79.45)"/><path class="cls-10" d="M381,466.44a11.24,11.24,0,0,0-4.55-2.57A22.42,22.42,0,0,0,356.51,467c-2.46,1.79-4.68,4.48-4.43,7.52a7.49,7.49,0,0,0,3.18,5.16,20.14,20.14,0,0,0,5.62,2.66c4.35,1.5,8.9,2.82,13.47,2.33s9.18-3.19,10.63-7.55a9.53,9.53,0,0,0-4-10.84" transform="translate(-206.09 -79.45)"/><path class="cls-10" d="M382,465.37c-6.42-5.46-16.6-5-23.73-1.21-7.35,3.92-11.06,12.69-2.47,17.7,7.29,4.26,19,6.83,26.33,1.41,6.48-4.82,6-13.64-.39-18.24-1.56-1.13-3.06,1.47-1.51,2.59,6.75,4.88,2.93,13.57-4.24,15.26-5.33,1.26-11.23-.48-16.19-2.47-1.34-.54-3.89-1.48-4.67-2.79l-.56-6.53,1.79-2a19,19,0,0,1,7.2-3.87c5.16-1.54,12-1.36,16.32,2.3,1.46,1.24,3.59-.87,2.12-2.13Z" transform="translate(-206.09 -79.45)"/><path d="M276.61,504.57h-5.38l-1.32,3.87h-3.43l6.3-17.62h2.53l6.3,17.62H278Zm-4.5-2.75h3.75l-1.3-3.9-.53-2.75h-.12l-.53,2.77Z" transform="translate(-206.09 -79.45)"/><path d="M293.58,494h-5.1v14.45h-3.42V494h-5.13v-3.05h13.65Z" transform="translate(-206.09 -79.45)"/><path d="M295.36,491.12a23.16,23.16,0,0,1,2.31-.31c.84-.08,1.68-.12,2.51-.12a15.33,15.33,0,0,1,2.61.22,6.39,6.39,0,0,1,2.37.85,4.85,4.85,0,0,1,1.71,1.77,5.87,5.87,0,0,1,.66,3,6.19,6.19,0,0,1-.57,2.79,5.39,5.39,0,0,1-1.53,1.86,5.88,5.88,0,0,1-2.16,1.05,9.55,9.55,0,0,1-2.51.33h-1l-.59,0-.41-.05v6h-3.42Zm5.1,2.52c-.34,0-.65,0-.95,0l-.73.09v5.67a1.54,1.54,0,0,0,.3.05l.43,0h.75a7.39,7.39,0,0,0,1.33-.12,3.48,3.48,0,0,0,1.19-.46,2.47,2.47,0,0,0,.84-.94,3.42,3.42,0,0,0,.31-1.58,2.77,2.77,0,0,0-.3-1.36,2.42,2.42,0,0,0-.79-.86,2.89,2.89,0,0,0-1.11-.45A6.76,6.76,0,0,0,300.46,493.64Z" transform="translate(-206.09 -79.45)"/><path class="cls-11" d="M316.25,468c-5-3.62-16.85-4-19.47.8-4.49,8.17-2.41,13,2.53,16.44,2.39,1.69,17.27,6,19.48-6.51.7-4-.26-8.69-2.51-10.84" transform="translate(-206.09 -79.45)"/><path class="cls-11" d="M317,466.74c-5.29-3.49-16.2-5-20.87.41-5.19,6-4.17,15.68,2.82,19.66,4.37,2.48,11.21,3,15.67.6,7.07-3.82,7.68-14.84,2.72-20.55-1.27-1.46-3.38.67-2.12,2.12,4.4,5.07,2.74,15-4.24,16.6a16.16,16.16,0,0,1-10.18-1.19c-5.64-2.85-6.78-11.25-2-15.67,4-3.72,12.72-2,16.72.61,1.62,1.06,3.12-1.53,1.51-2.59Z" transform="translate(-206.09 -79.45)"/><path class="cls-12" d="M292.22,470.44c-3.73-2.58-12.64-2.82-14.61.57-3.38,5.8-1.81,9.2,1.9,11.67,1.79,1.2,13,4.28,14.63-4.62.52-2.82-.21-6.18-1.89-7.7" transform="translate(-206.09 -79.45)"/><path class="cls-12" d="M256,470.44c-3.74-2.58-12.65-2.82-14.62.57-3.37,5.8-1.81,9.2,1.9,11.67,1.8,1.2,13,4.28,14.63-4.62.52-2.82-.2-6.18-1.89-7.7" transform="translate(-206.09 -79.45)"/><path class="cls-12" d="M273.68,470.44c-3.73-2.58-12.65-2.82-14.62.57-3.37,5.8-1.8,9.2,1.9,11.67,1.8,1.2,13,4.28,14.63-4.62.53-2.82-.2-6.18-1.89-7.7" transform="translate(-206.09 -79.45)"/><text x="-206.09" y="-79.45"></text><path d="M713.35,491.12a23,23,0,0,1,2.32-.31c.84-.08,1.67-.12,2.51-.12a15.41,15.41,0,0,1,2.61.22,6.34,6.34,0,0,1,2.36.85,5,5,0,0,1,1.72,1.77,5.87,5.87,0,0,1,.66,3,6.06,6.06,0,0,1-.58,2.79,5.26,5.26,0,0,1-1.52,1.86,6,6,0,0,1-2.16,1.05,9.57,9.57,0,0,1-2.52.33h-1l-.59,0a4.11,4.11,0,0,1-.41-.05v6h-3.43Zm5.1,2.52c-.33,0-.65,0-1,0l-.72.09v5.67a1.3,1.3,0,0,0,.3.05l.42,0h.75a7.5,7.5,0,0,0,1.34-.12,3.56,3.56,0,0,0,1.19-.46,2.47,2.47,0,0,0,.84-.94,3.55,3.55,0,0,0,.31-1.58,2.77,2.77,0,0,0-.3-1.36,2.42,2.42,0,0,0-.79-.86,3,3,0,0,0-1.11-.45A6.78,6.78,0,0,0,718.45,493.64Z" transform="translate(-206.09 -79.45)"/><path d="M727.65,491.12a23.16,23.16,0,0,1,2.31-.31c.85-.08,1.68-.12,2.52-.12a15.5,15.5,0,0,1,2.61.22,6.41,6.41,0,0,1,2.36.85,5,5,0,0,1,1.72,1.77,5.87,5.87,0,0,1,.66,3,6.06,6.06,0,0,1-.58,2.79,5.26,5.26,0,0,1-1.52,1.86,6,6,0,0,1-2.16,1.05,9.57,9.57,0,0,1-2.52.33h-1l-.59,0a4.11,4.11,0,0,1-.41-.05v6h-3.43Zm5.1,2.52c-.33,0-.65,0-1,0l-.72.09v5.67a1.3,1.3,0,0,0,.3.05l.42,0h.75a7.5,7.5,0,0,0,1.34-.12,3.56,3.56,0,0,0,1.19-.46,2.47,2.47,0,0,0,.84-.94,3.55,3.55,0,0,0,.31-1.58,2.77,2.77,0,0,0-.3-1.36,2.52,2.52,0,0,0-.79-.86,3,3,0,0,0-1.11-.45A6.78,6.78,0,0,0,732.75,493.64Z" transform="translate(-206.09 -79.45)"/><path d="M741.7,492.42a1.65,1.65,0,0,1,.54-1.24,2.07,2.07,0,0,1,1.49-.51,2.24,2.24,0,0,1,1.53.51,1.57,1.57,0,0,1,.59,1.24,1.49,1.49,0,0,1-.59,1.21,2.29,2.29,0,0,1-1.53.49,2.11,2.11,0,0,1-1.49-.49A1.56,1.56,0,0,1,741.7,492.42Zm.48,3.52h3.25v12.5h-3.25Z" transform="translate(-206.09 -79.45)"/><path d="M789.93,504.57h-5.37l-1.33,3.87h-3.42l6.3-17.62h2.52l6.3,17.62h-3.6Zm-4.5-2.75h3.75l-1.3-3.9-.52-2.75h-.13l-.52,2.77Z" transform="translate(-206.09 -79.45)"/><path d="M810,499.37l.37-3.48h-.15l-1.07,2.8-3.73,6.53h-1.1l-3.92-6.55-1.1-2.78h-.13l.5,3.45v9.1h-3.25v-17.5h3.13l4.67,8,.83,2h.1l.75-2.05,4.42-7.95h3.1v17.5H810Z" transform="translate(-206.09 -79.45)"/><path d="M816.43,491.12a23.16,23.16,0,0,1,2.31-.31c.84-.08,1.68-.12,2.51-.12a15.53,15.53,0,0,1,2.62.22,6.41,6.41,0,0,1,2.36.85,4.85,4.85,0,0,1,1.71,1.77,5.87,5.87,0,0,1,.66,3,6.19,6.19,0,0,1-.57,2.79,5.18,5.18,0,0,1-1.53,1.86,5.88,5.88,0,0,1-2.16,1.05,9.5,9.5,0,0,1-2.51.33h-1l-.58,0-.42-.05v6h-3.42Zm5.1,2.52c-.33,0-.65,0-.95,0l-.73.09v5.67a1.53,1.53,0,0,0,.31.05l.42,0h.75a7.5,7.5,0,0,0,1.34-.12,3.5,3.5,0,0,0,1.18-.46,2.39,2.39,0,0,0,.84-.94,3.42,3.42,0,0,0,.31-1.58,2.77,2.77,0,0,0-.29-1.36,2.62,2.62,0,0,0-.79-.86,3,3,0,0,0-1.12-.45A6.67,6.67,0,0,0,821.53,493.64Z" transform="translate(-206.09 -79.45)"/><path class="cls-11" d="M821.6,465.52c-5-3.63-16.85-4-19.47.8-4.49,8.16-2.41,12.95,2.53,16.43,2.39,1.69,17.27,6,19.48-6.51.7-4-.27-8.69-2.51-10.84" transform="translate(-206.09 -79.45)"/><path class="cls-11" d="M822.35,464.22c-5.3-3.49-16.2-5-20.87.42-5.19,6-4.17,15.67,2.82,19.65,4.37,2.48,11.21,3,15.67.6,7.07-3.82,7.68-14.84,2.72-20.55-1.27-1.46-3.39.67-2.12,2.13,4.4,5.06,2.74,14.95-4.24,16.59a16.15,16.15,0,0,1-10.18-1.19c-5.65-2.85-6.78-11.24-2-15.67,4-3.72,12.72-2,16.72.61,1.62,1.07,3.12-1.53,1.51-2.59Z" transform="translate(-206.09 -79.45)"/><path class="cls-12" d="M797.57,467.92c-3.73-2.57-12.65-2.82-14.61.57-3.38,5.8-1.81,9.2,1.9,11.68,1.79,1.19,13,4.27,14.62-4.63.53-2.82-.2-6.17-1.89-7.7" transform="translate(-206.09 -79.45)"/><path class="cls-12" d="M728.33,470.44c-3.73-2.58-12.65-2.82-14.62.57-3.37,5.8-1.8,9.2,1.9,11.67,1.8,1.2,13,4.28,14.63-4.62.53-2.82-.2-6.18-1.89-7.7" transform="translate(-206.09 -79.45)"/><path class="cls-12" d="M746,470.44c-3.73-2.58-12.65-2.82-14.61.57-3.38,5.8-1.81,9.2,1.9,11.67,1.79,1.2,13,4.28,14.62-4.62.53-2.82-.2-6.18-1.89-7.7" transform="translate(-206.09 -79.45)"/><path class="cls-13" d="M682.24,667.62a9.35,9.35,0,0,0-2.28,13l.39.55a67.75,67.75,0,0,0,94.49,17l7.38-5.15a9.35,9.35,0,0,0,2.31-13l-.39-.57a67.76,67.76,0,0,0-94.55-16.87Z" transform="translate(-206.09 -79.45)"/><path class="cls-13" d="M681.48,666.32c-15.77,11.84,12,31.89,21.31,37a69.82,69.82,0,0,0,56.47,4.51c7.91-2.84,14.73-7.3,21.57-12.07,6-4.2,9.15-10.34,4.6-17.16-11.06-16.58-29.95-27.34-49.63-29.47a69.08,69.08,0,0,0-33.17,4.59c-7.74,3.13-14.37,7.87-21.15,12.62-1.57,1.1-.07,3.7,1.51,2.59,11.81-8.27,23.57-15.26,38.26-16.83a66.92,66.92,0,0,1,48.65,14.15c5.88,4.72,20.42,16.95,12.34,24.78-3.52,3.4-8.7,6.38-12.91,8.83a66.36,66.36,0,0,1-76.85-7.35c-5.19-4.55-18.78-16.6-9.49-23.58C684.52,667.77,683,665.16,681.48,666.32Z" transform="translate(-206.09 -79.45)"/><path class="cls-13" d="M239.7,663.25a9.34,9.34,0,0,0-9.29,9.31l-.29,58.76a9.88,9.88,0,0,0,9.87,9.93l67.09.09a9.35,9.35,0,0,0,9.37-9.35l.24-58.82a9.87,9.87,0,0,0-9.88-9.92Z" transform="translate(-206.09 -79.45)"/><path class="cls-13" d="M239.7,661.75c-10.47.35-10.79,9.92-10.82,17.7L228.71,714l-.07,13.94c0,3.41-.11,6.66,1.87,9.68,4.5,6.88,14.25,5.15,21.3,5.16l35.77.05,14.71,0c2.54,0,5.42.29,7.89-.44,9.12-2.71,7.78-12.73,7.81-20.21l.15-37.25c0-7.72,2.05-18.35-6.71-22.21-2.68-1.18-5.53-1-8.37-1H239.7a1.5,1.5,0,0,0,0,3h49.86c5.94,0,12.48-.78,18.37.15,7,1.11,7.27,7.41,7.24,13.17q0,8.34-.07,16.67-.06,16.66-.14,33.33c0,5.67-1,11.31-7.9,11.77-.6,0-1.22,0-1.82,0-3.33.06-6.66,0-10,0l-31.56-.05c-7.58,0-15.22.27-22.79,0-10.3-.4-9.29-9.37-9.25-16.7l.17-35c0-6.91-2.71-23,7.87-23.34C241.63,664.69,241.64,661.69,239.7,661.75Z" transform="translate(-206.09 -79.45)"/><line class="cls-14" x1="30.12" y1="689.07" x2="300.12" y2="689.07"/><line class="cls-14" x1="33.26" y1="667.14" x2="33.26" y2="689.07"/><line class="cls-14" x1="297.19" y1="667.36" x2="297.19" y2="689.29"/><line class="cls-14" x1="264.82" y1="667.14" x2="264.82" y2="689.07"/><line class="cls-14" x1="231.73" y1="667.14" x2="231.73" y2="689.07"/><line class="cls-14" x1="199.65" y1="667.36" x2="199.65" y2="689.29"/><line class="cls-14" x1="167.57" y1="667.36" x2="167.57" y2="689.29"/><line class="cls-14" x1="134.57" y1="667.14" x2="134.57" y2="689.07"/><line class="cls-14" x1="100.95" y1="667.14" x2="100.95" y2="689.07"/><line class="cls-14" x1="67.32" y1="667.14" x2="67.32" y2="689.07"/><path class="cls-15" d="M242,688.37h12.87v3.78h-8.62v5.37h7.93v3.78h-7.93v8.77H242Z" transform="translate(-206.09 -79.45)"/><path class="cls-15" d="M257.58,695.47a13.05,13.05,0,0,1,2.95-.88,18.63,18.63,0,0,1,3.56-.33,8,8,0,0,1,2.7.39,3.88,3.88,0,0,1,2.62,2.81,8.92,8.92,0,0,1,.26,2.23c0,.91,0,1.82-.09,2.74s-.1,1.82-.11,2.71,0,1.75.08,2.59a10,10,0,0,0,.46,2.37h-3.28l-.65-2.14h-.16a5.37,5.37,0,0,1-1.72,1.66,5.17,5.17,0,0,1-2.84.7,5.7,5.7,0,0,1-1.95-.32,4.16,4.16,0,0,1-2.45-2.36,4.73,4.73,0,0,1-.34-1.85,4.25,4.25,0,0,1,.64-2.4,4.53,4.53,0,0,1,1.83-1.58,9.2,9.2,0,0,1,2.85-.84,20.79,20.79,0,0,1,3.7-.14,4,4,0,0,0-.25-2.49c-.31-.51-1-.76-2.07-.76a13.76,13.76,0,0,0-2.56.25,9.09,9.09,0,0,0-2.22.65ZM262.7,707a3.12,3.12,0,0,0,1.92-.54,3.75,3.75,0,0,0,1.05-1.16v-2a11.4,11.4,0,0,0-1.84,0,7,7,0,0,0-1.57.28,2.7,2.7,0,0,0-1.08.62,1.38,1.38,0,0,0-.4,1,1.76,1.76,0,0,0,.51,1.35A2,2,0,0,0,262.7,707Z" transform="translate(-206.09 -79.45)"/><path class="cls-15" d="M286.23,704.62c0,.86,0,1.73,0,2.6a21.13,21.13,0,0,0,.28,2.88h-2.89l-.56-2H283a4.68,4.68,0,0,1-1.78,1.75,5.49,5.49,0,0,1-2.75.67,5.55,5.55,0,0,1-4.52-1.93c-1.08-1.28-1.61-3.28-1.61-6a9.57,9.57,0,0,1,1.79-6.17,6.41,6.41,0,0,1,5.27-2.2,9.79,9.79,0,0,1,1.59.11,6,6,0,0,1,1.24.36v-6.3h4Zm-6.86,2.48a2.74,2.74,0,0,0,1.86-.58,3.07,3.07,0,0,0,1-1.66v-6.57a3.11,3.11,0,0,0-1-.51,4.6,4.6,0,0,0-1.36-.17,3,3,0,0,0-2.56,1.15,6.77,6.77,0,0,0-.85,3.93,6.33,6.33,0,0,0,.7,3.2A2.37,2.37,0,0,0,279.37,707.1Z" transform="translate(-206.09 -79.45)"/><path class="cls-15" d="M289.85,688.59c.48-.08,1-.16,1.54-.23s1.09-.13,1.64-.17,1.08-.08,1.6-.1l1.42,0a16.55,16.55,0,0,1,3,.28,8.46,8.46,0,0,1,2.64,1,5.24,5.24,0,0,1,1.86,1.88,5.88,5.88,0,0,1,.7,3,7.15,7.15,0,0,1-1.24,4.34,6.37,6.37,0,0,1-3.32,2.32l1.52,1,5,8.27h-4.9l-4.93-8.49-2.23-.4v8.89h-4.25Zm6.51,3.25c-.43,0-.86,0-1.28,0a5,5,0,0,0-1,.12v6.29h1.8a4.56,4.56,0,0,0,2.82-.8,3.16,3.16,0,0,0,1-2.67,2.82,2.82,0,0,0-.87-2.19A3.66,3.66,0,0,0,296.36,691.84Z" transform="translate(-206.09 -79.45)"/><path class="cls-15" d="M697.1,669H710v3.78h-8.62v5.36h7.94v3.79h-7.94v8.77H697.1Z" transform="translate(-206.09 -79.45)"/><path class="cls-15" d="M712.66,676.1a13.64,13.64,0,0,1,2.94-.89,19.67,19.67,0,0,1,3.57-.32,8.11,8.11,0,0,1,2.7.39,3.89,3.89,0,0,1,2.62,2.8,9,9,0,0,1,.26,2.23c0,.91,0,1.83-.09,2.75s-.1,1.82-.11,2.71,0,1.75.07,2.59a10,10,0,0,0,.47,2.37H721.8l-.65-2.14H721a5.58,5.58,0,0,1-1.72,1.66,5.29,5.29,0,0,1-2.84.7,5.46,5.46,0,0,1-2-.33,4.14,4.14,0,0,1-1.49-.93,4.35,4.35,0,0,1-1-1.42,4.76,4.76,0,0,1-.34-1.85,4.33,4.33,0,0,1,.63-2.4,4.66,4.66,0,0,1,1.83-1.58,9.37,9.37,0,0,1,2.85-.84,20.9,20.9,0,0,1,3.71-.14,4,4,0,0,0-.25-2.49c-.31-.51-1-.76-2.08-.76a14.6,14.6,0,0,0-2.55.24,9.52,9.52,0,0,0-2.22.66Zm5.11,11.53a3.14,3.14,0,0,0,1.93-.54,3.88,3.88,0,0,0,1-1.16v-2a11.41,11.41,0,0,0-1.84,0,6.39,6.39,0,0,0-1.57.28,2.56,2.56,0,0,0-1.09.62,1.42,1.42,0,0,0-.4,1,1.76,1.76,0,0,0,.51,1.35A2,2,0,0,0,717.77,687.63Z" transform="translate(-206.09 -79.45)"/><path class="cls-15" d="M741.3,685.24q0,1.31,0,2.61a22.86,22.86,0,0,0,.28,2.88h-2.88l-.56-2h-.12a4.78,4.78,0,0,1-1.79,1.75,5.42,5.42,0,0,1-2.74.66,5.57,5.57,0,0,1-4.52-1.92q-1.62-1.92-1.62-6a9.49,9.49,0,0,1,1.8-6.17,6.41,6.41,0,0,1,5.27-2.2,8.65,8.65,0,0,1,1.58.11,6.21,6.21,0,0,1,1.24.35V669h4Zm-6.85,2.48a2.79,2.79,0,0,0,1.86-.57,3,3,0,0,0,1-1.66v-6.57a3,3,0,0,0-1-.51,4.34,4.34,0,0,0-1.36-.17,3,3,0,0,0-2.56,1.14,6.82,6.82,0,0,0-.85,3.94,6.4,6.4,0,0,0,.69,3.19A2.38,2.38,0,0,0,734.45,687.72Z" transform="translate(-206.09 -79.45)"/><path class="cls-15" d="M744.93,669.22c.47-.09,1-.16,1.53-.24s1.1-.12,1.65-.17l1.59-.09,1.43,0a15.7,15.7,0,0,1,3,.28,8.08,8.08,0,0,1,2.63,1,5.16,5.16,0,0,1,1.87,1.87,5.94,5.94,0,0,1,.69,3,7.11,7.11,0,0,1-1.24,4.34,6.36,6.36,0,0,1-3.31,2.32l1.51,1,5,8.28h-4.89l-4.93-8.49-2.23-.41v8.9h-4.25Zm6.51,3.25c-.44,0-.86,0-1.29,0a4.12,4.12,0,0,0-1,.13v6.29H751a4.5,4.5,0,0,0,2.82-.81,3.11,3.11,0,0,0,1.06-2.66,2.82,2.82,0,0,0-.87-2.19A3.7,3.7,0,0,0,751.44,672.47Z" transform="translate(-206.09 -79.45)"/><line class="cls-14" x1="78.28" y1="666.14" x2="56.35" y2="666.14"/><path d="M238.26,786.92h1.8l.29,1.14h.07a3.17,3.17,0,0,1,1.17-1.06,3.6,3.6,0,0,1,1.65-.34,3.22,3.22,0,0,1,2.68,1.13,5.93,5.93,0,0,1,.89,3.64,7.79,7.79,0,0,1-.29,2.19,4.77,4.77,0,0,1-.84,1.67,3.78,3.78,0,0,1-1.37,1,4.52,4.52,0,0,1-1.85.36,5,5,0,0,1-1-.08,3.17,3.17,0,0,1-.76-.28v3.89h-2.47Zm4.24,1.83a1.68,1.68,0,0,0-1.14.36,2.35,2.35,0,0,0-.63,1.08v3.95a2.26,2.26,0,0,0,.58.34,2.33,2.33,0,0,0,.82.12,1.83,1.83,0,0,0,1.6-.75,4.45,4.45,0,0,0,.53-2.48,3.75,3.75,0,0,0-.42-1.94A1.45,1.45,0,0,0,242.5,788.75Z" transform="translate(-206.09 -79.45)"/><path d="M248.58,783.12h7.88v2.32h-5.28v3.29H256v2.32h-4.86v5.37h-2.6Z" transform="translate(-206.09 -79.45)"/><path d="M258.11,787.48a8.43,8.43,0,0,1,1.81-.55,11.78,11.78,0,0,1,2.18-.2,5,5,0,0,1,1.66.24,2.41,2.41,0,0,1,1.6,1.72,5.26,5.26,0,0,1,.16,1.37c0,.56,0,1.12,0,1.68s-.06,1.12-.07,1.66,0,1.08.05,1.59a5.65,5.65,0,0,0,.28,1.45h-2l-.4-1.31h-.1a3.31,3.31,0,0,1-1.05,1,3.25,3.25,0,0,1-1.74.43,3.51,3.51,0,0,1-1.2-.2,2.92,2.92,0,0,1-.91-.57,2.67,2.67,0,0,1-.59-.88,2.88,2.88,0,0,1-.21-1.13,2.64,2.64,0,0,1,.39-1.47,2.89,2.89,0,0,1,1.12-1,5.38,5.38,0,0,1,1.75-.51,11.8,11.8,0,0,1,2.27-.09,2.46,2.46,0,0,0-.15-1.53c-.19-.31-.61-.46-1.27-.46a8.76,8.76,0,0,0-1.57.15,5.53,5.53,0,0,0-1.36.4Zm3.14,7.06a1.94,1.94,0,0,0,1.18-.33,2.33,2.33,0,0,0,.64-.71v-1.24a7.13,7.13,0,0,0-1.13,0,3.83,3.83,0,0,0-1,.17,1.42,1.42,0,0,0-.66.38.81.81,0,0,0-.25.62,1.08,1.08,0,0,0,.31.83A1.21,1.21,0,0,0,261.25,794.54Z" transform="translate(-206.09 -79.45)"/><path d="M275.67,793.08c0,.53,0,1.06,0,1.6a13.17,13.17,0,0,0,.17,1.76h-1.77l-.34-1.23h-.08a2.81,2.81,0,0,1-1.09,1.07,3.32,3.32,0,0,1-1.68.41,3.39,3.39,0,0,1-2.77-1.18,5.64,5.64,0,0,1-1-3.68,5.79,5.79,0,0,1,1.1-3.78,3.92,3.92,0,0,1,3.23-1.35,6.42,6.42,0,0,1,1,.06,4.35,4.35,0,0,1,.76.22v-3.86h2.47Zm-4.2,1.52a1.74,1.74,0,0,0,1.14-.35,1.94,1.94,0,0,0,.59-1v-4a1.88,1.88,0,0,0-.59-.32,2.79,2.79,0,0,0-.84-.1,1.81,1.81,0,0,0-1.56.7,4.15,4.15,0,0,0-.53,2.41,4,4,0,0,0,.43,2A1.47,1.47,0,0,0,271.47,794.6Z" transform="translate(-206.09 -79.45)"/><path d="M293.36,793.53h-4.09l-1,2.94h-2.61l4.79-13.39h1.92l4.79,13.39h-2.74Zm-3.42-2.09h2.85l-1-3-.4-2.09h-.09l-.4,2.11Z" transform="translate(-206.09 -79.45)"/><path d="M285.24,786.35a4.19,4.19,0,0,1-.12,1,2.77,2.77,0,0,1-.41.91,2.83,2.83,0,0,1-.74.72,3.15,3.15,0,0,1-1.1.46v.12a4.35,4.35,0,0,1,1.08.32,2.82,2.82,0,0,1,.9.63,2.78,2.78,0,0,1,.59,1,3.62,3.62,0,0,1,.22,1.34,3.48,3.48,0,0,1-.43,1.78,3.82,3.82,0,0,1-1.17,1.23,5.56,5.56,0,0,1-1.67.7,8.12,8.12,0,0,1-1.91.23h-.83l-1.08,0-1.18-.09a6.57,6.57,0,0,1-1.09-.17V783.35l.82-.11,1-.1,1.09,0c.38,0,.75,0,1.11,0a12.08,12.08,0,0,1,1.82.14,5,5,0,0,1,1.57.5,2.88,2.88,0,0,1,1.12,1A3,3,0,0,1,285.24,786.35Zm-5.6,2.49h.62l.58-.06a3.47,3.47,0,0,0,1.24-.68,1.47,1.47,0,0,0,.52-1.18,1.52,1.52,0,0,0-.19-.81,1.44,1.44,0,0,0-.5-.51,2.31,2.31,0,0,0-.71-.26,4.6,4.6,0,0,0-.84-.08l-.91,0a4.51,4.51,0,0,0-.65.06v3.51Zm.85,5.72a3.59,3.59,0,0,0,.93-.11,2.22,2.22,0,0,0,.78-.35,1.69,1.69,0,0,0-.13-3,2.49,2.49,0,0,0-.89-.25,8.22,8.22,0,0,0-1-.06H278.8v3.63l.31.06.44,0,.5,0Z" transform="translate(-206.09 -79.45)"/><use id="Arrow_26-3" data-name="Arrow 26" width="98.56" height="28.77" transform="translate(160.63 674.9) scale(1.02 1)" xlink:href="#Arrow_26"/><path d="M399.2,789.49h5v5.93a5.15,5.15,0,0,1-1.91,1,8.37,8.37,0,0,1-2.19.3,6.78,6.78,0,0,1-2.37-.4,4.79,4.79,0,0,1-1.89-1.24,6,6,0,0,1-1.25-2.16,9.33,9.33,0,0,1-.46-3.12,8.46,8.46,0,0,1,.54-3.2,6,6,0,0,1,1.43-2.14,5.49,5.49,0,0,1,2-1.2,6.92,6.92,0,0,1,2.24-.37,10.85,10.85,0,0,1,2,.17,9,9,0,0,1,1.38.36l-.54,2.19a5.09,5.09,0,0,0-1.06-.3,8.83,8.83,0,0,0-1.5-.1,4.45,4.45,0,0,0-1.5.24,3,3,0,0,0-1.19.81,3.75,3.75,0,0,0-.78,1.44,7.24,7.24,0,0,0-.27,2.12,7,7,0,0,0,.26,2.07,4.14,4.14,0,0,0,.74,1.42,3.06,3.06,0,0,0,1.11.83,3.66,3.66,0,0,0,1.36.26,3.91,3.91,0,0,0,1-.12,2.28,2.28,0,0,0,.8-.37v-2.51l-2.87-.3Z" transform="translate(-206.09 -79.45)"/><path d="M413.62,795.61a4.86,4.86,0,0,1-1.55.77,6.71,6.71,0,0,1-2.08.31,4,4,0,0,1-3.36-1.34,5.76,5.76,0,0,1-1.06-3.68,5.26,5.26,0,0,1,1.19-3.76,4.46,4.46,0,0,1,3.37-1.25,5,5,0,0,1,1.4.19,3.23,3.23,0,0,1,1.22.63,3.06,3.06,0,0,1,.85,1.17,4.57,4.57,0,0,1,.33,1.85c0,.26,0,.55-.05.85s-.08.62-.14.95H408a2.78,2.78,0,0,0,.61,1.81,2.4,2.4,0,0,0,1.82.6,3.79,3.79,0,0,0,1.39-.23,3.5,3.5,0,0,0,.94-.49Zm-3.53-7a1.75,1.75,0,0,0-1.44.58,3,3,0,0,0-.56,1.55h3.54a2.37,2.37,0,0,0-.32-1.57A1.4,1.4,0,0,0,410.09,788.63Z" transform="translate(-206.09 -79.45)"/><path d="M421.49,796.42V791a3.09,3.09,0,0,0-.34-1.67,1.22,1.22,0,0,0-1.13-.52,1.78,1.78,0,0,0-1.18.41,2.21,2.21,0,0,0-.7,1v6.15h-2.47v-9.5h2l.29,1.26H418a4,4,0,0,1,1.16-1.06,3.37,3.37,0,0,1,1.86-.46,3.79,3.79,0,0,1,1.26.19,2.17,2.17,0,0,1,.93.63,2.89,2.89,0,0,1,.57,1.18,8.07,8.07,0,0,1,.19,1.86v5.9Z" transform="translate(-206.09 -79.45)"/><path d="M433.63,795.61a5,5,0,0,1-1.55.77,6.76,6.76,0,0,1-2.08.31,4,4,0,0,1-3.36-1.34,5.76,5.76,0,0,1-1.07-3.68,5.26,5.26,0,0,1,1.2-3.76,4.45,4.45,0,0,1,3.36-1.25,5.16,5.16,0,0,1,1.41.19,3.19,3.19,0,0,1,1.21.63,3.08,3.08,0,0,1,.86,1.17,4.76,4.76,0,0,1,.32,1.85,6.43,6.43,0,0,1-.05.85,8.39,8.39,0,0,1-.14.95H428a2.84,2.84,0,0,0,.62,1.81,2.38,2.38,0,0,0,1.81.6,3.84,3.84,0,0,0,1.4-.23,3.66,3.66,0,0,0,.94-.49Zm-3.54-7a1.75,1.75,0,0,0-1.43.58,2.88,2.88,0,0,0-.56,1.55h3.53a2.37,2.37,0,0,0-.31-1.57A1.4,1.4,0,0,0,430.09,788.63Z" transform="translate(-206.09 -79.45)"/><path d="M482.43,706q52.6-2.81,105.26-4l-.76-2.79-12.08,8.84c-1.53,1.12-.21,3.56,1.51,2.59,3.43-1.93,15.7-6,13-12-1.16-2.56-4.45-3.39-6.84-4.19-5.37-1.79-10.77-3.52-16.16-5.28-1.84-.6-2.62,2.29-.79,2.89,5.25,1.72,11.13,3,16.15,5.29,1.34.61,4.59,2.25,4.42,4.11-.05.54-2.76,1.74-3.25,2-2.64,1.55-5.34,3-8,4.52l1.51,2.59,12.09-8.84c1.11-.82.85-2.84-.76-2.8q-52.65,1.25-105.26,4c-1.92.1-1.93,3.1,0,3Z" transform="translate(-206.09 -79.45)"/><path d="M228.9,252.56a9.17,9.17,0,0,1,1.7-5.93,5.9,5.9,0,0,1,4.84-2.08,6.79,6.79,0,0,1,2.88.57,5.64,5.64,0,0,1,2.05,1.63,7.34,7.34,0,0,1,1.21,2.53,12.88,12.88,0,0,1,.39,3.28,9.17,9.17,0,0,1-1.7,5.93,5.89,5.89,0,0,1-4.83,2.08,6.9,6.9,0,0,1-2.91-.57,5.32,5.32,0,0,1-2-1.63,7.15,7.15,0,0,1-1.2-2.53A12.81,12.81,0,0,1,228.9,252.56Zm3.17,0a11.07,11.07,0,0,0,.2,2.15,5.29,5.29,0,0,0,.61,1.68,3.06,3.06,0,0,0,1,1.1,2.86,2.86,0,0,0,1.52.39,2.83,2.83,0,0,0,2.48-1.25,7.23,7.23,0,0,0,.88-4.07,11.46,11.46,0,0,0-.18-2.09,5.8,5.8,0,0,0-.59-1.69,3,3,0,0,0-1-1.14,3.12,3.12,0,0,0-4.05.88A7.36,7.36,0,0,0,232.07,252.56Z" transform="translate(-206.09 -79.45)"/><path d="M246.81,249.26v6.25a4.34,4.34,0,0,0,.32,1.93,1.27,1.27,0,0,0,1.24.6,1.93,1.93,0,0,0,1.36-.49,3,3,0,0,0,.8-1.18v-7.11h2.86v7.66a17.19,17.19,0,0,0,.09,1.77,10.93,10.93,0,0,0,.26,1.57h-2.15l-.51-1.63H251a4.08,4.08,0,0,1-1.41,1.39,4,4,0,0,1-2.13.55,4.64,4.64,0,0,1-1.5-.22,2.51,2.51,0,0,1-1.1-.73,3.46,3.46,0,0,1-.67-1.36,8.65,8.65,0,0,1-.23-2.16v-6.84Z" transform="translate(-206.09 -79.45)"/><path d="M254.75,249.26h1.52v-2.07l2.86-.81v2.88h2.69v2.42h-2.69v4.22a4.25,4.25,0,0,0,.23,1.64.88.88,0,0,0,.87.5A2.78,2.78,0,0,0,261,258a7.3,7.3,0,0,0,.72-.26l.5,2.2a7.16,7.16,0,0,1-1.38.48,6.76,6.76,0,0,1-1.61.2,2.88,2.88,0,0,1-2.23-.78,3.74,3.74,0,0,1-.72-2.57v-5.54h-1.52Z" transform="translate(-206.09 -79.45)"/><path d="M272.27,259.31a5.59,5.59,0,0,1-1.8.9,7.89,7.89,0,0,1-2.41.36,4.68,4.68,0,0,1-3.89-1.55,6.7,6.7,0,0,1-1.23-4.26,6.12,6.12,0,0,1,1.38-4.36,5.18,5.18,0,0,1,3.9-1.45,6.4,6.4,0,0,1,1.63.22,3.83,3.83,0,0,1,1.4.73,3.61,3.61,0,0,1,1,1.36,5.36,5.36,0,0,1,.38,2.14,9,9,0,0,1-.06,1c0,.35-.09.72-.16,1.1h-6.6a3.22,3.22,0,0,0,.71,2.09,2.76,2.76,0,0,0,2.1.7,4.55,4.55,0,0,0,1.62-.27,4.33,4.33,0,0,0,1.09-.57Zm-4.1-8.07a2,2,0,0,0-1.66.67,3.39,3.39,0,0,0-.65,1.79H270a2.8,2.8,0,0,0-.37-1.82A1.6,1.6,0,0,0,268.17,251.24Z" transform="translate(-206.09 -79.45)"/><path d="M280.71,251.94a3.7,3.7,0,0,0-1.23-.24,2.05,2.05,0,0,0-1.29.41,2,2,0,0,0-.69,1v7.11h-2.86v-11h2.22l.33,1.45h.09a3,3,0,0,1,1-1.25,2.62,2.62,0,0,1,1.5-.44,4.24,4.24,0,0,1,1.3.24Z" transform="translate(-206.09 -79.45)"/><path d="M294.18,260.26v-6a5.77,5.77,0,0,0-.29-2.16,1.17,1.17,0,0,0-1.19-.64,1.79,1.79,0,0,0-1.21.41,2.66,2.66,0,0,0-.7,1v7.33h-2.86v-11h2.22l.33,1.45h.09a5.06,5.06,0,0,1,1.29-1.23,3.53,3.53,0,0,1,2-.53,3.24,3.24,0,0,1,1.73.43,2.85,2.85,0,0,1,1,1.44,4,4,0,0,1,1.3-1.36,3.47,3.47,0,0,1,1.91-.51,5.19,5.19,0,0,1,1.58.22,2.17,2.17,0,0,1,1.05.76,3.68,3.68,0,0,1,.61,1.44,11.11,11.11,0,0,1,.2,2.29v6.6h-2.86v-6.18a5.29,5.29,0,0,0-.28-2,1.18,1.18,0,0,0-1.22-.65,1.72,1.72,0,0,0-1.22.42A2.47,2.47,0,0,0,297,253v7.22Z" transform="translate(-206.09 -79.45)"/><path d="M314.44,259.31a5.64,5.64,0,0,1-1.79.9,7.94,7.94,0,0,1-2.41.36,4.7,4.7,0,0,1-3.9-1.55,6.7,6.7,0,0,1-1.23-4.26,6.07,6.07,0,0,1,1.39-4.36,5.14,5.14,0,0,1,3.89-1.45,6.34,6.34,0,0,1,1.63.22,3.79,3.79,0,0,1,1.41.73,3.61,3.61,0,0,1,1,1.36,5.37,5.37,0,0,1,.37,2.14c0,.3,0,.63-.05,1s-.09.72-.17,1.1H308a3.23,3.23,0,0,0,.72,2.09,2.73,2.73,0,0,0,2.1.7,4.49,4.49,0,0,0,1.61-.27,4.33,4.33,0,0,0,1.09-.57Zm-4.09-8.07a2,2,0,0,0-1.66.67,3.31,3.31,0,0,0-.65,1.79h4.09a2.74,2.74,0,0,0-.36-1.82A1.62,1.62,0,0,0,310.35,251.24Z" transform="translate(-206.09 -79.45)"/><path d="M323.06,260.26v-6a5.81,5.81,0,0,0-.28-2.16,1.18,1.18,0,0,0-1.19-.64,1.77,1.77,0,0,0-1.21.41,2.55,2.55,0,0,0-.7,1v7.33h-2.86v-11H319l.33,1.45h.09a4.85,4.85,0,0,1,1.28-1.23,3.54,3.54,0,0,1,2-.53,3.17,3.17,0,0,1,1.72.43,2.8,2.8,0,0,1,1,1.44,3.94,3.94,0,0,1,1.3-1.36,3.42,3.42,0,0,1,1.91-.51,5.08,5.08,0,0,1,1.57.22,2.15,2.15,0,0,1,1.06.76,3.68,3.68,0,0,1,.6,1.44,10.45,10.45,0,0,1,.2,2.29v6.6h-2.86v-6.18a5.33,5.33,0,0,0-.27-2,1.19,1.19,0,0,0-1.22-.65,1.75,1.75,0,0,0-1.23.42,2.56,2.56,0,0,0-.67,1.14v7.22Z" transform="translate(-206.09 -79.45)"/><path d="M334.53,244.86h2.86v5.28h.08a3.37,3.37,0,0,1,1.19-.84,4.2,4.2,0,0,1,1.61-.3,3.58,3.58,0,0,1,3,1.35,6.68,6.68,0,0,1,1,4.12,6.28,6.28,0,0,1-1.47,4.51,5.24,5.24,0,0,1-4,1.54,12.72,12.72,0,0,1-2.57-.23,7.48,7.48,0,0,1-1.76-.51Zm4.9,6.56a2,2,0,0,0-1.29.4,2.56,2.56,0,0,0-.75,1.18v4.8a3,3,0,0,0,.75.24,6.15,6.15,0,0,0,.87.06,2,2,0,0,0,1.77-.84,4.68,4.68,0,0,0,.61-2.7C341.39,252.47,340.74,251.42,339.43,251.42Z" transform="translate(-206.09 -79.45)"/><path d="M352.39,251.94a3.8,3.8,0,0,0-1.23-.24,2,2,0,0,0-1.29.41,1.94,1.94,0,0,0-.69,1v7.11h-2.86v-11h2.22l.33,1.45H349a3,3,0,0,1,1-1.25,2.58,2.58,0,0,1,1.5-.44,4.13,4.13,0,0,1,1.29.24Z" transform="translate(-206.09 -79.45)"/><path d="M354,249.9a9.57,9.57,0,0,1,2.09-.63,13.84,13.84,0,0,1,2.53-.23,5.6,5.6,0,0,1,1.92.28,2.86,2.86,0,0,1,1.22.78,2.93,2.93,0,0,1,.64,1.21,6.36,6.36,0,0,1,.18,1.58q0,1-.06,2c-.05.65-.07,1.29-.08,1.92s0,1.25.06,1.84a6.59,6.59,0,0,0,.33,1.68h-2.34l-.46-1.52h-.11a3.83,3.83,0,0,1-1.22,1.18,3.7,3.7,0,0,1-2,.5,4,4,0,0,1-1.39-.23,3.13,3.13,0,0,1-1-.66,3,3,0,0,1-.69-1,3.36,3.36,0,0,1-.24-1.31,3.05,3.05,0,0,1,.45-1.7,3.26,3.26,0,0,1,1.3-1.12,6.32,6.32,0,0,1,2-.6,14.76,14.76,0,0,1,2.63-.1,2.81,2.81,0,0,0-.17-1.77c-.22-.36-.71-.54-1.48-.54a9.81,9.81,0,0,0-1.81.18,6.73,6.73,0,0,0-1.57.46Zm3.63,8.18a2.25,2.25,0,0,0,1.37-.38,2.89,2.89,0,0,0,.75-.83v-1.43a8.27,8.27,0,0,0-1.31,0,4.9,4.9,0,0,0-1.11.2,1.8,1.8,0,0,0-.77.44.94.94,0,0,0-.29.72,1.25,1.25,0,0,0,.36,1A1.39,1.39,0,0,0,357.6,258.08Z" transform="translate(-206.09 -79.45)"/><path d="M371.68,260.26V254a3.73,3.73,0,0,0-.38-1.93,1.44,1.44,0,0,0-1.31-.6,2.07,2.07,0,0,0-1.38.48,2.59,2.59,0,0,0-.8,1.17v7.13H365v-11h2.27l.33,1.45h.09a4.56,4.56,0,0,1,1.34-1.23,4,4,0,0,1,2.15-.53,4.67,4.67,0,0,1,1.46.22,2.47,2.47,0,0,1,1.07.73,3.14,3.14,0,0,1,.66,1.37,8.78,8.78,0,0,1,.22,2.15v6.84Z" transform="translate(-206.09 -79.45)"/><path d="M385.74,259.31a5.64,5.64,0,0,1-1.79.9,7.94,7.94,0,0,1-2.41.36,4.67,4.67,0,0,1-3.89-1.55,6.65,6.65,0,0,1-1.24-4.26,6.12,6.12,0,0,1,1.39-4.36,5.14,5.14,0,0,1,3.89-1.45,6.34,6.34,0,0,1,1.63.22,3.79,3.79,0,0,1,1.41.73,3.61,3.61,0,0,1,1,1.36,5.37,5.37,0,0,1,.37,2.14c0,.3,0,.63,0,1s-.09.72-.17,1.1h-6.6a3.28,3.28,0,0,0,.72,2.09,2.73,2.73,0,0,0,2.1.7,4.59,4.59,0,0,0,1.62-.27,4.24,4.24,0,0,0,1.08-.57Zm-4.09-8.07a2,2,0,0,0-1.66.67,3.31,3.31,0,0,0-.65,1.79h4.09a2.74,2.74,0,0,0-.36-1.82A1.62,1.62,0,0,0,381.65,251.24Z" transform="translate(-206.09 -79.45)"/><path d="M231.64,379h3v15.4h-3Z" transform="translate(-206.09 -79.45)"/><path d="M244.27,394.38v-6.25a3.73,3.73,0,0,0-.38-1.93,1.45,1.45,0,0,0-1.31-.6,2.1,2.1,0,0,0-1.38.47,2.67,2.67,0,0,0-.8,1.18v7.13h-2.86v-11h2.26l.33,1.45h.09a4.83,4.83,0,0,1,1.34-1.23,4,4,0,0,1,2.16-.53,4.6,4.6,0,0,1,1.45.22,2.45,2.45,0,0,1,1.08.73,3.31,3.31,0,0,1,.66,1.37,8.78,8.78,0,0,1,.22,2.15v6.84Z" transform="translate(-206.09 -79.45)"/><path d="M256.26,394.38v-6.25a3.73,3.73,0,0,0-.38-1.93,1.45,1.45,0,0,0-1.31-.6,2.1,2.1,0,0,0-1.38.47,2.67,2.67,0,0,0-.8,1.18v7.13h-2.86v-11h2.26l.33,1.45h.09a4.83,4.83,0,0,1,1.34-1.23,4,4,0,0,1,2.16-.53,4.6,4.6,0,0,1,1.45.22,2.45,2.45,0,0,1,1.08.73,3.31,3.31,0,0,1,.66,1.37,8.78,8.78,0,0,1,.22,2.15v6.84Z" transform="translate(-206.09 -79.45)"/><path d="M270.32,393.43a5.43,5.43,0,0,1-1.79.89,7.65,7.65,0,0,1-2.41.37,4.69,4.69,0,0,1-3.9-1.55,6.7,6.7,0,0,1-1.23-4.26,6.07,6.07,0,0,1,1.39-4.36,5.14,5.14,0,0,1,3.89-1.45,6.34,6.34,0,0,1,1.63.22,3.79,3.79,0,0,1,1.41.73,3.53,3.53,0,0,1,1,1.36,5.37,5.37,0,0,1,.37,2.14c0,.3,0,.63-.05,1s-.1.71-.17,1.1h-6.6a3.17,3.17,0,0,0,.72,2.09,2.73,2.73,0,0,0,2.1.7,4.28,4.28,0,0,0,1.61-.28,4.35,4.35,0,0,0,1.09-.56Zm-4.09-8.07a2,2,0,0,0-1.66.67,3.31,3.31,0,0,0-.65,1.79H268a2.74,2.74,0,0,0-.36-1.82A1.63,1.63,0,0,0,266.23,385.36Z" transform="translate(-206.09 -79.45)"/><path d="M278.77,386.06a3.81,3.81,0,0,0-1.24-.24,2,2,0,0,0-1.28.41,2,2,0,0,0-.7,1v7.11h-2.86v-11h2.23l.33,1.45h.08a3,3,0,0,1,1-1.25,2.5,2.5,0,0,1,1.49-.44,4.19,4.19,0,0,1,1.3.24Z" transform="translate(-206.09 -79.45)"/><path d="M292.23,394.38v-6a5.77,5.77,0,0,0-.29-2.16,1.15,1.15,0,0,0-1.18-.64,1.75,1.75,0,0,0-1.21.41,2.57,2.57,0,0,0-.71,1v7.33H286v-11h2.22l.33,1.45h.09a5.06,5.06,0,0,1,1.29-1.23,3.53,3.53,0,0,1,2-.53,3.13,3.13,0,0,1,1.73.43,2.79,2.79,0,0,1,1,1.44,4,4,0,0,1,1.3-1.36,3.48,3.48,0,0,1,1.92-.51,5.12,5.12,0,0,1,1.57.22,2.25,2.25,0,0,1,1.06.76,3.68,3.68,0,0,1,.6,1.44,11.11,11.11,0,0,1,.2,2.29v6.6h-2.86V388.2a5.09,5.09,0,0,0-.28-1.95,1.18,1.18,0,0,0-1.22-.65,1.72,1.72,0,0,0-1.22.42,2.56,2.56,0,0,0-.67,1.14v7.22Z" transform="translate(-206.09 -79.45)"/><path d="M312.49,393.43a5.43,5.43,0,0,1-1.79.89,7.65,7.65,0,0,1-2.41.37,4.68,4.68,0,0,1-3.89-1.55,6.65,6.65,0,0,1-1.24-4.26,6.12,6.12,0,0,1,1.39-4.36,5.14,5.14,0,0,1,3.89-1.45,6.34,6.34,0,0,1,1.63.22,3.79,3.79,0,0,1,1.41.73,3.53,3.53,0,0,1,1,1.36,5.37,5.37,0,0,1,.37,2.14,8.86,8.86,0,0,1,0,1c0,.35-.09.71-.17,1.1H306a3.28,3.28,0,0,0,.72,2.09,2.73,2.73,0,0,0,2.1.7,4.37,4.37,0,0,0,1.62-.28,4.53,4.53,0,0,0,1.09-.56Zm-4.09-8.07a2,2,0,0,0-1.66.67,3.31,3.31,0,0,0-.65,1.79h4.09a2.74,2.74,0,0,0-.36-1.82A1.6,1.6,0,0,0,308.4,385.36Z" transform="translate(-206.09 -79.45)"/><path d="M321.12,394.38v-6a5.77,5.77,0,0,0-.29-2.16,1.16,1.16,0,0,0-1.19-.64,1.77,1.77,0,0,0-1.21.41,2.55,2.55,0,0,0-.7,1v7.33h-2.86v-11h2.22l.33,1.45h.09a5,5,0,0,1,1.28-1.23,3.59,3.59,0,0,1,2-.53,3.15,3.15,0,0,1,1.73.43,2.85,2.85,0,0,1,1,1.44,4,4,0,0,1,1.3-1.36,3.45,3.45,0,0,1,1.91-.51,5.19,5.19,0,0,1,1.58.22,2.17,2.17,0,0,1,1.05.76,3.84,3.84,0,0,1,.61,1.44,11.2,11.2,0,0,1,.19,2.29v6.6h-2.86V388.2a5.33,5.33,0,0,0-.27-1.95,1.18,1.18,0,0,0-1.22-.65,1.71,1.71,0,0,0-1.22.42,2.47,2.47,0,0,0-.67,1.14v7.22Z" transform="translate(-206.09 -79.45)"/><path d="M332.58,379h2.86v5.28h.09a3.24,3.24,0,0,1,1.18-.84,4.2,4.2,0,0,1,1.61-.3,3.58,3.58,0,0,1,3,1.35,6.68,6.68,0,0,1,1.05,4.12,6.32,6.32,0,0,1-1.46,4.51,5.28,5.28,0,0,1-4,1.54,12.79,12.79,0,0,1-2.57-.23,7.48,7.48,0,0,1-1.76-.51Zm4.9,6.56a2,2,0,0,0-1.28.4,2.52,2.52,0,0,0-.76,1.18v4.8a3.07,3.07,0,0,0,.76.24,5.94,5.94,0,0,0,.87.06,2.06,2.06,0,0,0,1.77-.84,4.77,4.77,0,0,0,.6-2.7C339.44,386.58,338.79,385.54,337.48,385.54Z" transform="translate(-206.09 -79.45)"/><path d="M350.44,386.06a3.7,3.7,0,0,0-1.23-.24,2.05,2.05,0,0,0-1.29.41,2,2,0,0,0-.69,1v7.11h-2.86v-11h2.22l.33,1.45H347a3,3,0,0,1,1-1.25,2.55,2.55,0,0,1,1.5-.44,4.24,4.24,0,0,1,1.3.24Z" transform="translate(-206.09 -79.45)"/><path d="M352,384a8.76,8.76,0,0,1,2.09-.63,13.76,13.76,0,0,1,2.53-.23,5.81,5.81,0,0,1,1.91.27,3,3,0,0,1,1.22.79,2.93,2.93,0,0,1,.64,1.21,6.33,6.33,0,0,1,.19,1.58c0,.64,0,1.29-.07,1.95s-.07,1.29-.08,1.92,0,1.24.06,1.84a6.59,6.59,0,0,0,.33,1.68h-2.33l-.47-1.52h-.11a3.83,3.83,0,0,1-1.22,1.18,3.7,3.7,0,0,1-2,.5,3.82,3.82,0,0,1-1.39-.24,2.84,2.84,0,0,1-1.05-.66,2.82,2.82,0,0,1-.68-1,3.22,3.22,0,0,1-.25-1.31,3.05,3.05,0,0,1,.45-1.7,3.33,3.33,0,0,1,1.3-1.12,6.38,6.38,0,0,1,2-.6,14.69,14.69,0,0,1,2.63-.1,2.87,2.87,0,0,0-.18-1.77q-.33-.54-1.47-.54a9.84,9.84,0,0,0-1.82.18,6.73,6.73,0,0,0-1.57.46Zm3.63,8.18a2.24,2.24,0,0,0,1.36-.38,2.62,2.62,0,0,0,.75-.83v-1.43a8.26,8.26,0,0,0-1.31,0,4.4,4.4,0,0,0-1.11.2,1.86,1.86,0,0,0-.77.44,1,1,0,0,0-.29.72,1.24,1.24,0,0,0,.37,1A1.38,1.38,0,0,0,355.66,392.2Z" transform="translate(-206.09 -79.45)"/><path d="M369.74,394.38v-6.25a3.62,3.62,0,0,0-.39-1.93,1.44,1.44,0,0,0-1.31-.6,2.07,2.07,0,0,0-1.37.47,2.69,2.69,0,0,0-.81,1.18v7.13H363v-11h2.27l.33,1.45h.09A4.69,4.69,0,0,1,367,383.6a4,4,0,0,1,2.16-.53,4.65,4.65,0,0,1,1.45.22,2.56,2.56,0,0,1,1.08.73,3.31,3.31,0,0,1,.66,1.37,9.3,9.3,0,0,1,.22,2.15v6.84Z" transform="translate(-206.09 -79.45)"/><path d="M383.79,393.43a5.34,5.34,0,0,1-1.79.89,7.6,7.6,0,0,1-2.41.37,4.68,4.68,0,0,1-3.89-1.55,6.7,6.7,0,0,1-1.23-4.26,6.12,6.12,0,0,1,1.38-4.36,5.17,5.17,0,0,1,3.9-1.45,6.27,6.27,0,0,1,1.62.22,3.79,3.79,0,0,1,1.41.73,3.53,3.53,0,0,1,1,1.36,5.36,5.36,0,0,1,.38,2.14,9,9,0,0,1-.06,1c0,.35-.09.71-.16,1.1h-6.6a3.22,3.22,0,0,0,.71,2.09,2.73,2.73,0,0,0,2.1.7,4.75,4.75,0,0,0,2.71-.84Zm-4.09-8.07A2,2,0,0,0,378,386a3.31,3.31,0,0,0-.65,1.79h4.09a2.74,2.74,0,0,0-.36-1.82A1.6,1.6,0,0,0,379.7,385.36Z" transform="translate(-206.09 -79.45)"/><g class="cls-16"><polygon class="cls-5" points="450.29 590.17 451.6 587.11 452.38 587.33 451.39 591.98 450.29 590.17"/><polygon class="cls-5" points="454.64 586.59 457.49 589.69 457.95 587.5 454.97 585.77 454.64 586.59"/><polygon class="cls-5" points="468.33 583.9 463.62 583.86 463.51 583.34 468.99 582.82 468.33 583.9"/><polygon class="cls-5" points="460.56 587.36 460.77 583.94 462.11 584.23 461.75 587.88 460.56 587.36"/><polygon class="cls-5" points="470.31 581.99 470.27 577.2 471.32 577.12 470.79 581.7 470.31 581.99"/><polygon class="cls-5" points="472.63 575.78 477.46 576.66 476.63 578.19 472.42 576.53 472.63 575.78"/><polygon class="cls-5" points="480.94 571.41 480.04 575.97 480 576.16 480.63 576.48 481.12 571.71 480.94 571.41"/><polygon class="cls-5" points="483.37 570.36 486.97 571.63 487.14 570.09 483.23 569.41 483.37 570.36"/><polygon class="cls-5" points="489.44 569.19 489.02 565.94 489.95 565.92 490.35 569.6 489.44 569.19"/><polygon class="cls-5" points="492.5 564.46 496.35 565.52 496.67 564.36 492.82 563.65 492.5 564.46"/><polygon class="cls-5" points="499.56 563.11 500.99 559.29 501.57 559.42 500.14 564.07 499.56 563.11"/><polygon class="cls-5" points="502.59 558.81 506.38 562.58 506.86 561.54 503.18 558.46 502.59 558.81"/><polygon class="cls-5" points="509.13 561.68 510.32 557.6 510.47 557.86 509.98 562 508.95 561.38 509.13 561.68"/><polygon class="cls-5" points="513.32 556.9 517.48 556.67 517.88 555.26 513.68 555.92 513.32 556.9"/><polygon class="cls-5" points="519.76 553.78 519.24 549.77 520.24 549.85 520.58 554.05 519.76 553.78"/><polygon class="cls-5" points="522.17 546.63 527.28 543.49 527.92 544.55 522.47 547.14 522.17 546.63"/><polygon class="cls-5" points="523.06 556.61 525.77 558.21 525.56 558.34 522.79 556.77 523.06 556.61"/><polygon class="cls-5" points="520.51 558.42 520.29 561.1 520.17 560.89 520.01 558.45 520.51 558.42"/><polygon class="cls-5" points="512.48 553.07 512.29 550.58 512.08 550.7 512.16 553.27 512.48 553.07"/><polygon class="cls-5" points="509.77 554.02 506.47 551.19 506.04 551.45 509.58 554.2 509.77 554.02"/><polygon class="cls-5" points="510.34 563.71 514.12 565.63 513.94 565.94 510.25 564.04 510.34 563.71"/><polygon class="cls-5" points="508.7 565.58 509 569.12 508.75 569.06 508.17 565.91 508.7 565.58"/><polygon class="cls-5" points="501.06 555.54 499.37 553.46 499 553.68 500.74 555.73 501.06 555.54"/><polygon class="cls-5" points="500.09 556.95 497.25 557.55 497.37 557.76 499.97 557.36 500.09 556.95"/><polygon class="cls-5" points="491.06 561.21 490.23 556.55 489.96 556.71 490.87 561.38 491.06 561.21"/><polygon class="cls-5" points="489.17 561.58 487.12 559.86 486.85 560.02 489.1 561.83 489.17 561.58"/><polygon class="cls-5" points="497.99 568.38 497.63 571.55 498.01 571.32 498.15 568.28 497.99 568.38"/><polygon class="cls-5" points="500.17 568.24 502.53 572.18 502.71 571.87 500.28 567.83 500.17 568.24"/><polygon class="cls-5" points="491.59 572.77 491.72 572.97 493.73 575.96 493.56 576.05 491.2 572.73 491.59 572.77"/><polygon class="cls-5" points="489.59 573.08 488.85 576.21 488.67 575.9 489.14 572.94 489.59 573.08"/><polygon class="cls-5" points="481.88 567.89 481.19 565.28 480.87 565.47 481.72 567.98 481.88 567.89"/><polygon class="cls-5" points="479.27 568.63 477.94 568.12 477.76 568.44 479.26 569.12 479.27 568.63"/><polygon class="cls-5" points="481.38 579.18 483.46 580.96 483.25 581.08 480.95 579.44 481.38 579.18"/><polygon class="cls-5" points="479.61 580.25 479.92 582.33 479.53 582.29 479.15 579.97 479.61 580.25"/><polygon class="cls-5" points="471.22 573.35 470.5 570.67 470.18 570.86 471.03 573.85 471.22 573.35"/><polygon class="cls-5" points="469.23 574.25 466.32 571.6 466.4 571.97 469.05 574.56 469.23 574.25"/><polygon class="cls-5" points="472.19 585.6 474.92 588.56 474.54 588.79 471.71 585.89 472.19 585.6"/><polygon class="cls-5" points="470.53 586.6 470.96 589.98 470.47 589.65 470.26 586.76 470.53 586.6"/><polygon class="cls-5" points="461.45 591.5 462.6 592.94 462.39 593.07 461.18 591.66 461.45 591.5"/><polygon class="cls-5" points="459.8 592.15 459.46 595.59 459.03 595.36 459.56 591.75 459.8 592.15"/><polygon class="cls-5" points="460.02 580.27 459.38 579.69 459 579.91 459.79 580.61 460.02 580.27"/><polygon class="cls-5" points="461.59 579.24 461.55 577.35 462.01 577.28 461.84 579.65 461.59 579.24"/><polygon class="cls-5" points="452.98 582.98 453.15 581.09 452.62 580.93 452.76 583.11 452.98 582.98"/><polygon class="cls-5" points="451.04 583.39 449.51 581.7 449.29 582.18 450.66 583.62 451.04 583.39"/><polygon class="cls-5" points="448.38 591.59 445.34 589.57 445.13 589.69 448.31 591.84 448.38 591.59"/><polygon class="cls-5" points="448.49 594.68 445.75 597.15 445.9 597.41 448.89 594.86 448.49 594.68"/><polygon class="cls-5" points="450.63 595.33 451.77 598.08 451.93 597.98 451 595.1 450.63 595.33"/><g class="cls-16"><path class="cls-6" d="M652.31,668.28a1.38,1.38,0,1,1-1.85-.4,1.34,1.34,0,0,1,1.85.4" transform="translate(-206.09 -79.45)"/><path class="cls-6" d="M656.22,660.36a1.38,1.38,0,1,1-1.84-.4,1.34,1.34,0,0,1,1.84.4" transform="translate(-206.09 -79.45)"/><path class="cls-6" d="M660.35,659a1.38,1.38,0,1,1-1.85-.4,1.34,1.34,0,0,1,1.85.4" transform="translate(-206.09 -79.45)"/><path class="cls-6" d="M665.91,658.05a1.38,1.38,0,1,1-1.85-.4,1.34,1.34,0,0,1,1.85.4" transform="translate(-206.09 -79.45)"/><path class="cls-6" d="M668.89,655.37A1.38,1.38,0,1,1,667,655a1.33,1.33,0,0,1,1.85.41" transform="translate(-206.09 -79.45)"/><path class="cls-6" d="M673.2,650.17a1.38,1.38,0,1,1-1.85-.41,1.34,1.34,0,0,1,1.85.41" transform="translate(-206.09 -79.45)"/><path class="cls-6" d="M677.72,649a1.38,1.38,0,1,1-1.85-.4,1.34,1.34,0,0,1,1.85.4" transform="translate(-206.09 -79.45)"/><path class="cls-6" d="M684.6,646.82a1.38,1.38,0,1,1-1.85-.4,1.34,1.34,0,0,1,1.85.4" transform="translate(-206.09 -79.45)"/><path class="cls-6" d="M688.27,643.72a1.37,1.37,0,1,1-1.84-.41,1.34,1.34,0,0,1,1.84.41" transform="translate(-206.09 -79.45)"/><path class="cls-6" d="M693.46,638.4a1.38,1.38,0,1,1-1.85-.4,1.34,1.34,0,0,1,1.85.4" transform="translate(-206.09 -79.45)"/><path class="cls-6" d="M696.86,634.85a1.37,1.37,0,1,1-1.84-.41,1.33,1.33,0,0,1,1.84.41" transform="translate(-206.09 -79.45)"/><path class="cls-6" d="M703.89,636.6a1.38,1.38,0,1,1-1.84-.4,1.34,1.34,0,0,1,1.84.4" transform="translate(-206.09 -79.45)"/><path class="cls-6" d="M706,632a1.38,1.38,0,1,1-1.84-.4,1.34,1.34,0,0,1,1.84.4" transform="translate(-206.09 -79.45)"/><path class="cls-6" d="M713,629.63a1.38,1.38,0,1,1-1.84-.4,1.34,1.34,0,0,1,1.84.4" transform="translate(-206.09 -79.45)"/><path class="cls-6" d="M719.66,628.64a1.37,1.37,0,1,1-1.84-.41,1.34,1.34,0,0,1,1.84.41" transform="translate(-206.09 -79.45)"/><path class="cls-6" d="M659.49,677.57a1.38,1.38,0,1,1-1.84-.4,1.34,1.34,0,0,1,1.84.4" transform="translate(-206.09 -79.45)"/><path class="cls-6" d="M666.47,674.75a1.38,1.38,0,1,1-1.84-.4,1.34,1.34,0,0,1,1.84.4" transform="translate(-206.09 -79.45)"/><path class="cls-6" d="M670.11,672.57a1.34,1.34,0,0,1-.51,1.82,1.3,1.3,0,1,1,.51-1.82" transform="translate(-206.09 -79.45)"/><path class="cls-6" d="M678,669.37a1.33,1.33,0,0,1-.52,1.81,1.32,1.32,0,0,1-1.84-.4,1.38,1.38,0,0,1,2.36-1.41" transform="translate(-206.09 -79.45)"/><path class="cls-6" d="M682.64,668.06a1.38,1.38,0,1,1-1.85-.4,1.34,1.34,0,0,1,1.85.4" transform="translate(-206.09 -79.45)"/><path class="cls-6" d="M687.09,661.88a1.38,1.38,0,1,1-1.85-.4,1.34,1.34,0,0,1,1.85.4" transform="translate(-206.09 -79.45)"/><path class="cls-6" d="M690.73,660.18a1.38,1.38,0,1,1-1.85-.4,1.34,1.34,0,0,1,1.85.4" transform="translate(-206.09 -79.45)"/><path class="cls-6" d="M695.9,655.56a1.38,1.38,0,1,1-1.85-.4,1.34,1.34,0,0,1,1.85.4" transform="translate(-206.09 -79.45)"/><path class="cls-6" d="M700.93,655.56a1.38,1.38,0,1,1-1.85-.4,1.34,1.34,0,0,1,1.85.4" transform="translate(-206.09 -79.45)"/><path class="cls-6" d="M705,651.11a1.38,1.38,0,1,1-1.85-.41,1.33,1.33,0,0,1,1.85.41" transform="translate(-206.09 -79.45)"/><path class="cls-6" d="M710.43,651.36a1.38,1.38,0,1,1-1.84-.4,1.34,1.34,0,0,1,1.84.4" transform="translate(-206.09 -79.45)"/><path class="cls-6" d="M716,648.68a1.38,1.38,0,1,1-1.85-.4,1.34,1.34,0,0,1,1.85.4" transform="translate(-206.09 -79.45)"/><path class="cls-6" d="M722.19,645a1.38,1.38,0,1,1-1.84-.4,1.34,1.34,0,0,1,1.84.4" transform="translate(-206.09 -79.45)"/><path class="cls-6" d="M727.1,640.53a1.38,1.38,0,1,1-1.85-.41,1.34,1.34,0,0,1,1.85.41" transform="translate(-206.09 -79.45)"/><path class="cls-6" d="M733.67,637.4a1.38,1.38,0,1,1-1.84-.4,1.34,1.34,0,0,1,1.84.4" transform="translate(-206.09 -79.45)"/><path class="cls-6" d="M652.89,676.66a1.38,1.38,0,1,1-1.84-.4,1.34,1.34,0,0,1,1.84.4" transform="translate(-206.09 -79.45)"/><path class="cls-7" d="M659.11,671a3.13,3.13,0,1,1-4.19-.92,3,3,0,0,1,4.19.92" transform="translate(-206.09 -79.45)"/><path class="cls-7" d="M661.23,663.13a2.94,2.94,0,1,1-3.94-.86,2.85,2.85,0,0,1,3.94.86" transform="translate(-206.09 -79.45)"/><path class="cls-7" d="M668.76,667.53a3.13,3.13,0,1,1-4.19-.91,3,3,0,0,1,4.19.91" transform="translate(-206.09 -79.45)"/><path class="cls-7" d="M670.74,660a3.13,3.13,0,1,1-4.19-.92,3,3,0,0,1,4.19.92" transform="translate(-206.09 -79.45)"/><path class="cls-7" d="M679,662.17a3.26,3.26,0,1,1-4.36-.95,3.16,3.16,0,0,1,4.36.95" transform="translate(-206.09 -79.45)"/><path class="cls-7" d="M687.88,656.05a3.13,3.13,0,1,1-4.19-.92,3,3,0,0,1,4.19.92" transform="translate(-206.09 -79.45)"/><path class="cls-7" d="M679.15,654a2.82,2.82,0,1,1-3.77-.82,2.74,2.74,0,0,1,3.77.82" transform="translate(-206.09 -79.45)"/><path class="cls-7" d="M689.87,648.19a2.88,2.88,0,1,1-3.86-.84,2.79,2.79,0,0,1,3.86.84" transform="translate(-206.09 -79.45)"/><path class="cls-7" d="M698.26,649.06a3.13,3.13,0,1,1-4.2-.92,3,3,0,0,1,4.2.92" transform="translate(-206.09 -79.45)"/><path class="cls-7" d="M699.24,641.59a3.13,3.13,0,1,1-4.19-.91,3,3,0,0,1,4.19.91" transform="translate(-206.09 -79.45)"/><path class="cls-7" d="M717.14,641.91a3.13,3.13,0,1,1-4.2-.92,3,3,0,0,1,4.2.92" transform="translate(-206.09 -79.45)"/><path class="cls-7" d="M710.54,635.53a2.66,2.66,0,1,1-3.57-.78,2.58,2.58,0,0,1,3.57.78" transform="translate(-206.09 -79.45)"/><path class="cls-7" d="M720.6,633.84a3.38,3.38,0,1,1-4.53-1,3.28,3.28,0,0,1,4.53,1" transform="translate(-206.09 -79.45)"/><path class="cls-7" d="M729.08,634a3,3,0,1,1-4-.87,2.87,2.87,0,0,1,4,.87" transform="translate(-206.09 -79.45)"/><path class="cls-7" d="M729.17,625.54a3.13,3.13,0,1,1-4.2-.92,3,3,0,0,1,4.2.92" transform="translate(-206.09 -79.45)"/><path class="cls-7" d="M708,643.49a3.41,3.41,0,1,1-4.57-1,3.31,3.31,0,0,1,4.57,1" transform="translate(-206.09 -79.45)"/></g></g><path class="cls-10" d="M741.69,615a4.1,4.1,0,0,0-2,0,8.1,8.1,0,0,0-5.85,5,3.8,3.8,0,0,0,.14,3.52,3.1,3.1,0,0,0,2.13,1.19,7.51,7.51,0,0,0,2.41-.17,11.08,11.08,0,0,0,4.9-1.83,4.76,4.76,0,0,0,1.89-4.75,4.06,4.06,0,0,0-3.6-3" transform="translate(-206.09 -79.45)"/><path class="cls-10" d="M742.09,613.53c-3.83-.67-7.61,1.68-9.31,5.09-1.56,3.15-.69,7.19,3.3,7.59,3.7.38,8.8-1.38,10.32-5s-.94-7.28-4.72-7.77c-1.91-.25-1.89,2.75,0,3,2.93.38,2.46,3.72.75,5.1a10.07,10.07,0,0,1-5.54,1.72c-2.64,0-1.89-2.85-.83-4.28s3.24-2.9,5.23-2.54,2.7-2.56.8-2.9Z" transform="translate(-206.09 -79.45)"/><path d="M227.91,312.52a18.75,18.75,0,0,1,2-.27c.74-.07,1.47-.1,2.21-.1a15,15,0,0,1,2.3.18,5.94,5.94,0,0,1,2.08.75,4.49,4.49,0,0,1,1.5,1.56,5.15,5.15,0,0,1,.59,2.61,5.32,5.32,0,0,1-.51,2.45,4.61,4.61,0,0,1-1.34,1.64,5.35,5.35,0,0,1-1.9.93,8.6,8.6,0,0,1-2.22.28h-.85c-.18,0-.35,0-.52,0l-.36,0v5.3h-3Zm4.49,2.22a7.63,7.63,0,0,0-.84,0,6.3,6.3,0,0,0-.63.07v5l.26,0a2.22,2.22,0,0,0,.37,0l.39,0h.27a6.64,6.64,0,0,0,1.18-.11,3,3,0,0,0,1-.41,2.12,2.12,0,0,0,.73-.83,2.89,2.89,0,0,0,.28-1.38,2.37,2.37,0,0,0-.27-1.2,2,2,0,0,0-.69-.76,2.77,2.77,0,0,0-1-.4A5.91,5.91,0,0,0,232.4,314.74Z" transform="translate(-206.09 -79.45)"/><path d="M248.44,326.82a5.64,5.64,0,0,1-1.79.89,7.94,7.94,0,0,1-2.41.37,4.66,4.66,0,0,1-3.9-1.56,6.66,6.66,0,0,1-1.23-4.25,6.07,6.07,0,0,1,1.39-4.36,5.11,5.11,0,0,1,3.89-1.45,5.94,5.94,0,0,1,1.63.22,3.79,3.79,0,0,1,1.41.73,3.53,3.53,0,0,1,1,1.36,5.32,5.32,0,0,1,.37,2.13c0,.31,0,.64,0,1s-.1.72-.17,1.1H242a3.15,3.15,0,0,0,.72,2.09,2.73,2.73,0,0,0,2.1.71,4.28,4.28,0,0,0,1.61-.28,4.35,4.35,0,0,0,1.09-.56Zm-4.09-8.07a2,2,0,0,0-1.66.67,3.28,3.28,0,0,0-.65,1.79h4.09a2.74,2.74,0,0,0-.36-1.82A1.63,1.63,0,0,0,244.35,318.75Z" transform="translate(-206.09 -79.45)"/><path d="M256.89,319.45a3.81,3.81,0,0,0-1.24-.24,2,2,0,0,0-1.28.41,2,2,0,0,0-.7,1v7.11h-2.86v-11H253l.33,1.45h.08a3,3,0,0,1,1-1.25,2.5,2.5,0,0,1,1.49-.44,4.19,4.19,0,0,1,1.3.24Z" transform="translate(-206.09 -79.45)"/><path d="M258.38,313.67a1.43,1.43,0,0,1,.48-1.09,1.8,1.8,0,0,1,1.3-.45,2,2,0,0,1,1.36.45,1.4,1.4,0,0,1,.51,1.09,1.33,1.33,0,0,1-.51,1.06,2.05,2.05,0,0,1-1.36.43,1.84,1.84,0,0,1-1.3-.43A1.36,1.36,0,0,1,258.38,313.67Zm.42,3.1h2.86v11H258.8Z" transform="translate(-206.09 -79.45)"/><path d="M264.45,316.77h2.09l.33,1.32H267a3.52,3.52,0,0,1,1.36-1.23,4.07,4.07,0,0,1,1.9-.4,3.72,3.72,0,0,1,3.1,1.31,6.82,6.82,0,0,1,1,4.21,9,9,0,0,1-.33,2.54,5.39,5.39,0,0,1-1,1.93,4.38,4.38,0,0,1-1.59,1.21,5.17,5.17,0,0,1-2.14.42,5.76,5.76,0,0,1-1.13-.1,4.69,4.69,0,0,1-.88-.32v4.51h-2.86Zm4.91,2.11a1.91,1.91,0,0,0-1.31.42,2.79,2.79,0,0,0-.74,1.25v4.58a2.48,2.48,0,0,0,1.63.53,2.12,2.12,0,0,0,1.85-.87,5.11,5.11,0,0,0,.62-2.87,4.27,4.27,0,0,0-.49-2.25A1.68,1.68,0,0,0,269.36,318.88Z" transform="translate(-206.09 -79.45)"/><path d="M279.28,324.07a2.4,2.4,0,0,0,.2,1.12.68.68,0,0,0,.64.36,3.05,3.05,0,0,0,.52-.05,2.88,2.88,0,0,0,.62-.2l.31,2.25a5.23,5.23,0,0,1-1.08.35,6.14,6.14,0,0,1-1.49.18,2.81,2.81,0,0,1-1.92-.59,2.45,2.45,0,0,1-.66-1.92v-13.2h2.86Z" transform="translate(-206.09 -79.45)"/><path d="M282.74,317.41a8.76,8.76,0,0,1,2.09-.63,12.94,12.94,0,0,1,2.53-.23,5.81,5.81,0,0,1,1.91.27,3.06,3.06,0,0,1,1.22.78,3,3,0,0,1,.64,1.21,6.42,6.42,0,0,1,.19,1.59c0,.64,0,1.29-.07,1.94s-.07,1.3-.08,1.93,0,1.24.06,1.84a6.59,6.59,0,0,0,.33,1.68h-2.33l-.47-1.52h-.11a3.83,3.83,0,0,1-1.22,1.18,3.7,3.7,0,0,1-2,.49,3.83,3.83,0,0,1-1.39-.23,2.84,2.84,0,0,1-1-.66,2.82,2.82,0,0,1-.68-1,3.22,3.22,0,0,1-.25-1.31,3.05,3.05,0,0,1,.45-1.7,3.35,3.35,0,0,1,1.3-1.13,6.65,6.65,0,0,1,2-.59,14.69,14.69,0,0,1,2.63-.1,2.87,2.87,0,0,0-.18-1.77q-.33-.54-1.47-.54a9.84,9.84,0,0,0-1.82.18,6.73,6.73,0,0,0-1.57.46Zm3.63,8.18a2.18,2.18,0,0,0,1.36-.39,2.6,2.6,0,0,0,.75-.82V323a8.26,8.26,0,0,0-1.31,0,4.4,4.4,0,0,0-1.11.2,1.86,1.86,0,0,0-.77.44,1,1,0,0,0-.29.72,1.24,1.24,0,0,0,.37,1A1.38,1.38,0,0,0,286.37,325.59Z" transform="translate(-206.09 -79.45)"/><path d="M298.27,324.73a.82.82,0,0,0-.38-.7,4.37,4.37,0,0,0-.92-.49l-1.21-.45a4.26,4.26,0,0,1-1.21-.64,3.39,3.39,0,0,1-.92-1,3.65,3.65,0,0,1,.59-4.1,4.1,4.1,0,0,1,2.79-.86,9.32,9.32,0,0,1,2.27.26,6.72,6.72,0,0,1,1.58.6l-.63,2.07A11.33,11.33,0,0,0,299,319a5.5,5.5,0,0,0-1.56-.22c-.85,0-1.28.33-1.28,1a.76.76,0,0,0,.38.64,4.93,4.93,0,0,0,.92.45l1.21.45a5.52,5.52,0,0,1,1.21.62,3.31,3.31,0,0,1,.92,1,3,3,0,0,1,.38,1.58,3.37,3.37,0,0,1-1.07,2.63,4.65,4.65,0,0,1-3.2,1,7.73,7.73,0,0,1-2.19-.3,6.91,6.91,0,0,1-1.66-.69l.79-2.14a7.74,7.74,0,0,0,1.34.56,5.3,5.3,0,0,0,1.72.28,1.88,1.88,0,0,0,1-.24A.9.9,0,0,0,298.27,324.73Z" transform="translate(-206.09 -79.45)"/><path d="M309.25,327.77v-6a5.71,5.71,0,0,0-.29-2.15,1.16,1.16,0,0,0-1.19-.64,1.77,1.77,0,0,0-1.21.41,2.55,2.55,0,0,0-.7,1v7.33H303v-11h2.22l.33,1.45h.09a4.85,4.85,0,0,1,1.28-1.23,3.59,3.59,0,0,1,2-.53,3.09,3.09,0,0,1,1.72.43,2.76,2.76,0,0,1,1,1.44A4,4,0,0,1,313,317a3.45,3.45,0,0,1,1.91-.51,4.79,4.79,0,0,1,1.57.22,2.15,2.15,0,0,1,1.06.76,3.84,3.84,0,0,1,.61,1.44,11.13,11.13,0,0,1,.19,2.29v6.6h-2.86v-6.18a5.33,5.33,0,0,0-.27-1.95A1.18,1.18,0,0,0,314,319a1.71,1.71,0,0,0-1.22.42,2.47,2.47,0,0,0-.67,1.14v7.22Z" transform="translate(-206.09 -79.45)"/><path d="M320.55,313.67a1.43,1.43,0,0,1,.48-1.09,1.8,1.8,0,0,1,1.3-.45,2,2,0,0,1,1.36.45,1.41,1.41,0,0,1,.52,1.09,1.33,1.33,0,0,1-.52,1.06,2.05,2.05,0,0,1-1.36.43,1.84,1.84,0,0,1-1.3-.43A1.36,1.36,0,0,1,320.55,313.67Zm.42,3.1h2.86v11H321Z" transform="translate(-206.09 -79.45)"/><path d="M334.41,327.09a4.86,4.86,0,0,1-1.59.73,7.36,7.36,0,0,1-1.93.26,5.31,5.31,0,0,1-2.23-.42,3.75,3.75,0,0,1-1.48-1.18,4.78,4.78,0,0,1-.83-1.84,10.26,10.26,0,0,1-.25-2.37,6.58,6.58,0,0,1,1.25-4.3,4.47,4.47,0,0,1,3.65-1.51,7.83,7.83,0,0,1,1.95.2,6.69,6.69,0,0,1,1.33.5l-.68,2.34a5.37,5.37,0,0,0-1-.38,4.33,4.33,0,0,0-1.13-.13,2.16,2.16,0,0,0-1.81.78,4,4,0,0,0-.62,2.5,5.32,5.32,0,0,0,.16,1.3,3.23,3.23,0,0,0,.46,1,2.23,2.23,0,0,0,.8.69,2.51,2.51,0,0,0,1.16.26,3.7,3.7,0,0,0,1.23-.19,4.72,4.72,0,0,0,.9-.45Z" transform="translate(-206.09 -79.45)"/><path d="M345.74,324.73a.81.81,0,0,0-.37-.7,4.63,4.63,0,0,0-.92-.49l-1.21-.45a4,4,0,0,1-1.21-.64,3.42,3.42,0,0,1-.93-1,3.68,3.68,0,0,1,.6-4.1,4.07,4.07,0,0,1,2.79-.86,9.17,9.17,0,0,1,2.26.26,6.65,6.65,0,0,1,1.59.6l-.64,2.07a11.09,11.09,0,0,0-1.27-.42,5.62,5.62,0,0,0-1.57-.22c-.85,0-1.27.33-1.27,1a.74.74,0,0,0,.37.64,5.05,5.05,0,0,0,.93.45l1.21.45a5.52,5.52,0,0,1,1.21.62,3.45,3.45,0,0,1,.92,1,3,3,0,0,1,.37,1.58,3.36,3.36,0,0,1-1.06,2.63,4.67,4.67,0,0,1-3.21,1,7.71,7.71,0,0,1-2.18-.3,6.74,6.74,0,0,1-1.66-.69l.79-2.14a7.12,7.12,0,0,0,1.34.56,5.28,5.28,0,0,0,1.71.28,1.94,1.94,0,0,0,1-.24A.92.92,0,0,0,345.74,324.73Z" transform="translate(-206.09 -79.45)"/><path d="M350.47,316.77h2.09l.33,1.32H353a3.57,3.57,0,0,1,1.35-1.23,4.12,4.12,0,0,1,1.91-.4,3.72,3.72,0,0,1,3.1,1.31,6.82,6.82,0,0,1,1,4.21,9,9,0,0,1-.33,2.54,5.25,5.25,0,0,1-1,1.93,4.26,4.26,0,0,1-1.58,1.21,5.17,5.17,0,0,1-2.14.42,5.76,5.76,0,0,1-1.13-.1,4.69,4.69,0,0,1-.88-.32v4.51h-2.86Zm4.91,2.11a1.91,1.91,0,0,0-1.31.42,2.7,2.7,0,0,0-.74,1.25v4.58a2.43,2.43,0,0,0,1.63.53,2.12,2.12,0,0,0,1.85-.87,5.11,5.11,0,0,0,.62-2.87,4.37,4.37,0,0,0-.49-2.25A1.68,1.68,0,0,0,355.38,318.88Z" transform="translate(-206.09 -79.45)"/><path d="M362.29,317.41a8.76,8.76,0,0,1,2.09-.63,12.94,12.94,0,0,1,2.53-.23,5.81,5.81,0,0,1,1.91.27,3.06,3.06,0,0,1,1.22.78,2.88,2.88,0,0,1,.64,1.21,6.42,6.42,0,0,1,.19,1.59c0,.64,0,1.29-.07,1.94s-.07,1.3-.08,1.93,0,1.24.06,1.84a6.59,6.59,0,0,0,.33,1.68h-2.33l-.46-1.52h-.11a4,4,0,0,1-1.23,1.18,3.7,3.7,0,0,1-2,.49,3.86,3.86,0,0,1-1.39-.23,2.84,2.84,0,0,1-1.05-.66,3,3,0,0,1-.68-1,3.4,3.4,0,0,1-.24-1.31,3.05,3.05,0,0,1,.45-1.7,3.25,3.25,0,0,1,1.29-1.13,6.65,6.65,0,0,1,2-.59,14.69,14.69,0,0,1,2.63-.1,2.87,2.87,0,0,0-.18-1.77q-.33-.54-1.47-.54a9.92,9.92,0,0,0-1.82.18,6.73,6.73,0,0,0-1.57.46Zm3.63,8.18a2.18,2.18,0,0,0,1.36-.39,2.6,2.6,0,0,0,.75-.82V323a8.26,8.26,0,0,0-1.31,0,4.4,4.4,0,0,0-1.11.2,1.86,1.86,0,0,0-.77.44,1,1,0,0,0-.29.72,1.24,1.24,0,0,0,.37,1A1.38,1.38,0,0,0,365.92,325.59Z" transform="translate(-206.09 -79.45)"/><path d="M381.05,327.09a4.86,4.86,0,0,1-1.59.73,7.36,7.36,0,0,1-1.93.26,5.31,5.31,0,0,1-2.23-.42,3.75,3.75,0,0,1-1.48-1.18,4.78,4.78,0,0,1-.83-1.84,10.26,10.26,0,0,1-.25-2.37A6.58,6.58,0,0,1,374,318a4.47,4.47,0,0,1,3.65-1.51,7.83,7.83,0,0,1,1.95.2,6.69,6.69,0,0,1,1.33.5l-.68,2.34a5.37,5.37,0,0,0-1-.38,4.33,4.33,0,0,0-1.13-.13,2.16,2.16,0,0,0-1.81.78,4,4,0,0,0-.62,2.5,5.32,5.32,0,0,0,.16,1.3,3.23,3.23,0,0,0,.46,1,2.23,2.23,0,0,0,.8.69,2.51,2.51,0,0,0,1.16.26,3.7,3.7,0,0,0,1.23-.19,4.72,4.72,0,0,0,.9-.45Z" transform="translate(-206.09 -79.45)"/><path d="M391.22,326.82a5.59,5.59,0,0,1-1.8.89,7.83,7.83,0,0,1-2.4.37,4.66,4.66,0,0,1-3.9-1.56,6.66,6.66,0,0,1-1.23-4.25,6.07,6.07,0,0,1,1.39-4.36,5.11,5.11,0,0,1,3.89-1.45,5.94,5.94,0,0,1,1.63.22,3.87,3.87,0,0,1,1.41.73,3.53,3.53,0,0,1,1,1.36,5.5,5.5,0,0,1,.37,2.13,8.74,8.74,0,0,1-.06,1c0,.36-.09.72-.16,1.1h-6.6a3.2,3.2,0,0,0,.71,2.09,2.77,2.77,0,0,0,2.11.71,4.28,4.28,0,0,0,1.61-.28,4.35,4.35,0,0,0,1.09-.56Zm-4.1-8.07a2,2,0,0,0-1.66.67,3.27,3.27,0,0,0-.64,1.79h4.09a2.74,2.74,0,0,0-.37-1.82A1.6,1.6,0,0,0,387.12,318.75Z" transform="translate(-206.09 -79.45)"/><line class="cls-14" x1="396.35" y1="689.28" x2="666.35" y2="689.28"/><line class="cls-14" x1="399.49" y1="667.36" x2="399.49" y2="689.28"/><line class="cls-14" x1="663.42" y1="667.58" x2="663.42" y2="689.5"/><line class="cls-14" x1="631.05" y1="667.36" x2="631.05" y2="689.28"/><line class="cls-14" x1="597.96" y1="667.36" x2="597.96" y2="689.28"/><line class="cls-14" x1="565.88" y1="667.58" x2="565.88" y2="689.5"/><line class="cls-14" x1="533.8" y1="667.58" x2="533.8" y2="689.5"/><line class="cls-14" x1="500.8" y1="667.36" x2="500.8" y2="689.28"/><line class="cls-14" x1="467.17" y1="667.36" x2="467.17" y2="689.28"/><line class="cls-14" x1="433.55" y1="667.36" x2="433.55" y2="689.28"/><line class="cls-14" x1="444.51" y1="666.36" x2="422.58" y2="666.36"/><path d="M602.45,787.21h1.81l.28,1.14h.08a3.17,3.17,0,0,1,1.17-1.06,3.58,3.58,0,0,1,1.64-.34,3.21,3.21,0,0,1,2.68,1.13,5.87,5.87,0,0,1,.89,3.64,7.81,7.81,0,0,1-.28,2.19,4.62,4.62,0,0,1-.85,1.67,3.75,3.75,0,0,1-1.36,1,4.54,4.54,0,0,1-1.86.36,5.18,5.18,0,0,1-1-.08,3.52,3.52,0,0,1-.76-.28v3.89h-2.47Zm4.24,1.83a1.65,1.65,0,0,0-1.13.36,2.44,2.44,0,0,0-.64,1.08v3.95a2.26,2.26,0,0,0,.58.34,2.39,2.39,0,0,0,.83.12,1.84,1.84,0,0,0,1.6-.75,4.45,4.45,0,0,0,.53-2.48,3.75,3.75,0,0,0-.42-1.94A1.47,1.47,0,0,0,606.69,789Z" transform="translate(-206.09 -79.45)"/><path d="M612.77,783.42h7.89v2.31h-5.29V789h4.87v2.32h-4.87v5.37h-2.6Z" transform="translate(-206.09 -79.45)"/><path d="M622.31,787.77a8.33,8.33,0,0,1,1.8-.55,12,12,0,0,1,2.19-.2,4.88,4.88,0,0,1,1.65.24,2.4,2.4,0,0,1,1.61,1.72,5.72,5.72,0,0,1,.16,1.37q0,.84-.06,1.68c0,.56-.06,1.12-.06,1.66s0,1.08,0,1.59a6.11,6.11,0,0,0,.29,1.45h-2l-.4-1.31h-.09a3.42,3.42,0,0,1-1,1,3.25,3.25,0,0,1-1.74.43,3.43,3.43,0,0,1-1.2-.2,2.71,2.71,0,0,1-.91-.57,2.53,2.53,0,0,1-.59-.88,2.88,2.88,0,0,1-.21-1.13,2.64,2.64,0,0,1,.39-1.47,2.82,2.82,0,0,1,1.12-1,5.38,5.38,0,0,1,1.75-.51,11.76,11.76,0,0,1,2.27-.09,2.46,2.46,0,0,0-.15-1.53c-.19-.31-.62-.46-1.28-.46a8.74,8.74,0,0,0-1.56.15,5.4,5.4,0,0,0-1.36.4Zm3.13,7.06a1.9,1.9,0,0,0,1.18-.33,2.38,2.38,0,0,0,.65-.71v-1.24a7.13,7.13,0,0,0-1.13,0,3.83,3.83,0,0,0-1,.17,1.51,1.51,0,0,0-.67.38.84.84,0,0,0-.24.62,1.08,1.08,0,0,0,.31.83A1.2,1.2,0,0,0,625.44,794.83Z" transform="translate(-206.09 -79.45)"/><path d="M639.87,793.37c0,.53,0,1.06,0,1.6a15.07,15.07,0,0,0,.17,1.76h-1.76L638,795.5h-.08a2.87,2.87,0,0,1-1.09,1.07,3.37,3.37,0,0,1-1.68.41,3.41,3.41,0,0,1-2.78-1.18,5.64,5.64,0,0,1-1-3.68,5.79,5.79,0,0,1,1.11-3.78,3.92,3.92,0,0,1,3.23-1.35,6.28,6.28,0,0,1,1,.06,4.12,4.12,0,0,1,.76.22v-3.85h2.48Zm-4.2,1.52a1.74,1.74,0,0,0,1.14-.35,1.93,1.93,0,0,0,.58-1v-4a1.83,1.83,0,0,0-.58-.32,2.84,2.84,0,0,0-.84-.1,1.83,1.83,0,0,0-1.57.7,4.16,4.16,0,0,0-.52,2.41,3.85,3.85,0,0,0,.43,2A1.45,1.45,0,0,0,635.67,794.89Z" transform="translate(-206.09 -79.45)"/><path d="M659,794h-4.09l-1,2.95h-2.6l4.79-13.4H658l4.79,13.4h-2.74Zm-3.38-1.31h2.85l-1-3-.4-2.09H657l-.4,2.11Z" transform="translate(-206.09 -79.45)"/><path d="M650.91,786.64a4.19,4.19,0,0,1-.12,1,2.77,2.77,0,0,1-.41.91,3,3,0,0,1-.74.72,3.15,3.15,0,0,1-1.1.46v.12a4.35,4.35,0,0,1,1.08.32,2.8,2.8,0,0,1,1.49,1.6,3.62,3.62,0,0,1,.22,1.34,3.38,3.38,0,0,1-.44,1.78,3.69,3.69,0,0,1-1.16,1.23,5.56,5.56,0,0,1-1.67.7,8.14,8.14,0,0,1-1.92.23h-.82l-1.09,0-1.17-.09a6.87,6.87,0,0,1-1.1-.17V783.64l.83-.11,1-.1,1.09,0c.37,0,.74,0,1.11,0a12.08,12.08,0,0,1,1.82.14,5,5,0,0,1,1.57.5,2.78,2.78,0,0,1,1.11,1A3,3,0,0,1,650.91,786.64Zm-5.6,2.49h.62l.58-.06a3.47,3.47,0,0,0,1.24-.68,1.47,1.47,0,0,0,.52-1.18,1.52,1.52,0,0,0-.19-.81,1.44,1.44,0,0,0-.5-.51,2.31,2.31,0,0,0-.71-.26,4.6,4.6,0,0,0-.84-.08l-.91,0a4.37,4.37,0,0,0-.65.06v3.51Zm.85,5.72a3.46,3.46,0,0,0,.92-.11,2.19,2.19,0,0,0,.79-.35,1.73,1.73,0,0,0,.55-.59,1.65,1.65,0,0,0,.21-.85,1.51,1.51,0,0,0-.89-1.53,2.55,2.55,0,0,0-.89-.25,8.22,8.22,0,0,0-1-.06h-1.39v3.63l.31.06.44,0,.5,0Z" transform="translate(-206.09 -79.45)"/><use id="Arrow_26-6" data-name="Arrow 26" width="98.56" height="28.77" transform="translate(526.86 675.12) scale(1.02 1)" xlink:href="#Arrow_26"/><path d="M765.43,789.71h5v5.92a4.87,4.87,0,0,1-1.91,1,8.39,8.39,0,0,1-2.19.31,7,7,0,0,1-2.37-.4,4.81,4.81,0,0,1-1.89-1.25,5.87,5.87,0,0,1-1.25-2.15,9.41,9.41,0,0,1-.46-3.12,8.46,8.46,0,0,1,.54-3.2,6,6,0,0,1,1.43-2.15,5.41,5.41,0,0,1,2-1.2,7.2,7.2,0,0,1,2.24-.37,10,10,0,0,1,2,.18,8.5,8.5,0,0,1,1.37.36l-.53,2.18a5.1,5.1,0,0,0-1.06-.29,8.69,8.69,0,0,0-1.5-.11,4.22,4.22,0,0,0-1.5.25,2.82,2.82,0,0,0-1.19.81,3.71,3.71,0,0,0-.78,1.43,7.24,7.24,0,0,0-.28,2.13,7,7,0,0,0,.27,2.06,4.19,4.19,0,0,0,.74,1.43,3,3,0,0,0,1.11.82,3.47,3.47,0,0,0,1.36.27,3.54,3.54,0,0,0,1-.13,2.11,2.11,0,0,0,.8-.37v-2.5l-2.87-.31Z" transform="translate(-206.09 -79.45)"/><path d="M779.85,795.82a4.77,4.77,0,0,1-1.55.77,6.71,6.71,0,0,1-2.08.32,4,4,0,0,1-3.36-1.34,5.78,5.78,0,0,1-1.07-3.68,5.24,5.24,0,0,1,1.2-3.76,4.42,4.42,0,0,1,3.36-1.26,5.51,5.51,0,0,1,1.41.19,3.38,3.38,0,0,1,1.22.63,3.1,3.1,0,0,1,.85,1.18,4.53,4.53,0,0,1,.32,1.84c0,.27,0,.55,0,.86a8.85,8.85,0,0,1-.15.95h-5.7a2.81,2.81,0,0,0,.62,1.8,2.37,2.37,0,0,0,1.82.61,3.79,3.79,0,0,0,1.39-.24,4,4,0,0,0,.94-.48Zm-3.53-7a1.73,1.73,0,0,0-1.44.58,2.85,2.85,0,0,0-.56,1.55h3.54a2.4,2.4,0,0,0-.32-1.58A1.39,1.39,0,0,0,776.32,788.85Z" transform="translate(-206.09 -79.45)"/><path d="M787.72,796.64v-5.4a3.09,3.09,0,0,0-.34-1.67,1.23,1.23,0,0,0-1.13-.51,1.78,1.78,0,0,0-1.18.41,2.23,2.23,0,0,0-.7,1v6.16H781.9v-9.5h2l.28,1.25h.08a4.11,4.11,0,0,1,1.16-1.06,3.46,3.46,0,0,1,1.86-.46,4.07,4.07,0,0,1,1.26.19,2.27,2.27,0,0,1,.93.63,2.94,2.94,0,0,1,.57,1.19,8,8,0,0,1,.19,1.85v5.91Z" transform="translate(-206.09 -79.45)"/><path d="M799.86,795.82a4.77,4.77,0,0,1-1.55.77,6.76,6.76,0,0,1-2.08.32,4,4,0,0,1-3.36-1.34,5.78,5.78,0,0,1-1.07-3.68,5.24,5.24,0,0,1,1.2-3.76,4.42,4.42,0,0,1,3.36-1.26,5.57,5.57,0,0,1,1.41.19,3.33,3.33,0,0,1,1.21.63,3.12,3.12,0,0,1,.86,1.18,4.7,4.7,0,0,1,.32,1.84,6.58,6.58,0,0,1,0,.86,8.73,8.73,0,0,1-.14.95h-5.7a2.81,2.81,0,0,0,.62,1.8,2.34,2.34,0,0,0,1.81.61,3.84,3.84,0,0,0,1.4-.24,4,4,0,0,0,.94-.48Zm-3.54-7a1.72,1.72,0,0,0-1.43.58,2.85,2.85,0,0,0-.56,1.55h3.53a2.4,2.4,0,0,0-.31-1.58A1.4,1.4,0,0,0,796.32,788.85Z" transform="translate(-206.09 -79.45)"/><path class="cls-17" d="M981.12,614c-29.6-2.62-35.2,34.63-52.13,50.25-10.58,9.76-25.55,12-38.72,16.4-11.59,3.89-22.75,9.55-29.46,20.17-2.07,3.28,3.12,6.29,5.18,3,13.89-21.95,45.78-18.17,64.82-33.3,9.55-7.58,14.57-18.83,20.52-29.14,6.26-10.86,15.93-22.63,29.79-21.41,3.84.34,3.82-5.66,0-6Z" transform="translate(-206.09 -79.45)"/><path class="cls-17" d="M929.49,696.9v-4.35a4.42,4.42,0,0,0-.2-1.57.85.85,0,0,0-.87-.46,1.31,1.31,0,0,0-.88.29,2,2,0,0,0-.51.76v5.33H925v-8h1.62l.23,1.06h.07a3.8,3.8,0,0,1,.93-.9,2.63,2.63,0,0,1,1.47-.38,2.31,2.31,0,0,1,1.26.31,2.11,2.11,0,0,1,.76,1,2.71,2.71,0,0,1,.94-1,2.49,2.49,0,0,1,1.39-.37,3.44,3.44,0,0,1,1.14.16,1.55,1.55,0,0,1,.77.55,2.54,2.54,0,0,1,.44,1.05,7.65,7.65,0,0,1,.15,1.66v4.8H934v-4.49a3.89,3.89,0,0,0-.2-1.42.87.87,0,0,0-.89-.47,1.28,1.28,0,0,0-.89.3,1.89,1.89,0,0,0-.49.83v5.25Z" transform="translate(-206.09 -79.45)"/><path class="cls-17" d="M937.88,685.81l.79-.12.85-.08c.28,0,.55,0,.82-.05l.74,0a8,8,0,0,1,1.54.15,4.15,4.15,0,0,1,1.36.49,2.7,2.7,0,0,1,1,1,3,3,0,0,1,.36,1.54,3.63,3.63,0,0,1-.64,2.24,3.28,3.28,0,0,1-1.71,1.2l.78.5,2.56,4.27h-2.53l-2.54-4.38-1.15-.21v4.59h-2.19Zm3.36,1.68-.67,0a2.61,2.61,0,0,0-.5.06v3.25H941a2.36,2.36,0,0,0,1.45-.41A1.62,1.62,0,0,0,943,689a1.45,1.45,0,0,0-.45-1.13A1.9,1.9,0,0,0,941.24,687.49Z" transform="translate(-206.09 -79.45)"/><path class="cls-17" d="M950.29,691.06l-.88-1.76h-.08l.26,1.76v5.84h-2.08V685.62h1.6l4.24,6,.85,1.71h.08l-.26-1.71V685.7h2.08V697h-1.6Z" transform="translate(-206.09 -79.45)"/><path class="cls-17" d="M963.54,694.42H960.1l-.85,2.48h-2.19l4-11.28h1.62l4,11.28h-2.3Zm-2.88-1.76h2.4l-.83-2.49-.34-1.76h-.08l-.33,1.77Z" transform="translate(-206.09 -79.45)"/><path class="cls-8" d="M549.33,410.37c-.34,0-2.1.09-3.53,2.82a15.86,15.86,0,0,0-1.47,6.73l-.15,60.26c0,5.61,2.36,10.18,5.3,10.19l36.08.09c2.78,0,5-4.29,5-9.59q.07-30.17.14-60.32c0-5.62-2.37-10.18-5.32-10.18Z" transform="translate(-206.09 -79.45)"/><path class="cls-18" d="M549.33,408.87c-6.34.58-6.49,9-6.51,13.91l-.05,22.81-.07,26.09c0,5.38-.9,12.21,2,17,3.1,5,11.07,3.24,16,3.26,7.85,0,15.74.31,23.58.06a6.34,6.34,0,0,0,6-3.57c3.51-6.37,1.71-16.14,1.73-23.09l.06-28.21c0-7.23,1.63-16.47-1.19-23.31-2.94-7.17-12-4.91-18.29-4.91H549.33a1.5,1.5,0,0,0,0,3h15.59c6.27,0,13.07-.78,19.3,0,5,.62,5,6.43,5,10.62.07,8.43,0,16.87-.05,25.3q0,10.69,0,21.4c0,4.77,2.19,18.42-4.11,19.77-2.06.44-4.73,0-6.84,0l-11.14,0-11,0c-1.85,0-4.48.45-6.28,0-5.12-1.32-4.11-9.8-4.1-14.21l0-20.15.07-25c0-3.23-1.23-17.21,3.52-17.65C551.24,411.7,551.25,408.69,549.33,408.87Z" transform="translate(-206.09 -79.45)"/><path class="cls-8" d="M503.33,410.37c-.34,0-2.1.09-3.53,2.82a15.86,15.86,0,0,0-1.47,6.73l-.15,60.26c0,5.61,2.36,10.18,5.3,10.19l36.08.09c2.78,0,5-4.29,5-9.59q.07-30.17.14-60.32c0-5.62-2.37-10.18-5.32-10.18Z" transform="translate(-206.09 -79.45)"/><path class="cls-18" d="M503.33,408.87c-6.34.58-6.49,9-6.51,13.91l-.05,22.81-.07,26.09c0,5.38-.9,12.21,2,17,3.1,5,11.07,3.24,16,3.26,7.85,0,15.74.31,23.58.06a6.34,6.34,0,0,0,6-3.57c3.51-6.37,1.71-16.14,1.73-23.09l.06-28.21c0-7.23,1.63-16.47-1.19-23.31-2.94-7.17-12-4.91-18.29-4.91H503.33a1.5,1.5,0,0,0,0,3h15.59c6.27,0,13.07-.78,19.3,0,5,.62,5,6.43,5,10.62.07,8.43,0,16.87-.05,25.3q0,10.69,0,21.4c0,4.77,2.19,18.42-4.11,19.77-2.06.44-4.73,0-6.84,0l-11.14,0-11,0c-1.85,0-4.48.45-6.28,0-5.12-1.32-4.11-9.8-4.1-14.21l.05-20.15.07-25c0-3.23-1.23-17.21,3.52-17.65C505.24,411.7,505.25,408.69,503.33,408.87Z" transform="translate(-206.09 -79.45)"/><path class="cls-15" d="M509.24,436.26h12.87V440h-8.62v5.37h7.94v3.78h-7.94V458h-4.25Z" transform="translate(-206.09 -79.45)"/><path class="cls-15" d="M524.81,443.36a12.81,12.81,0,0,1,2.94-.88,18.81,18.81,0,0,1,3.57-.33,8,8,0,0,1,2.69.39,4,4,0,0,1,1.72,1.1,3.93,3.93,0,0,1,.9,1.7,8.54,8.54,0,0,1,.27,2.24c0,.9,0,1.82-.1,2.74s-.09,1.82-.1,2.71,0,1.75.07,2.59a10,10,0,0,0,.47,2.37H534l-.65-2.14h-.15a5.58,5.58,0,0,1-1.72,1.66,5.2,5.2,0,0,1-2.84.7,5.42,5.42,0,0,1-2-.33,4,4,0,0,1-1.49-.93,4.06,4.06,0,0,1-1-1.42,4.76,4.76,0,0,1-.34-1.85,4.33,4.33,0,0,1,.63-2.4,4.53,4.53,0,0,1,1.83-1.58,9.37,9.37,0,0,1,2.85-.84,20.9,20.9,0,0,1,3.71-.14,4,4,0,0,0-.25-2.49c-.31-.51-1-.76-2.08-.76a13.84,13.84,0,0,0-2.56.25,9.13,9.13,0,0,0-2.21.65Zm5.11,11.53a3.08,3.08,0,0,0,1.92-.54,3.8,3.8,0,0,0,1.06-1.16v-2a11.52,11.52,0,0,0-1.85,0,6.3,6.3,0,0,0-1.56.28,2.56,2.56,0,0,0-1.09.62,1.38,1.38,0,0,0-.4,1,1.76,1.76,0,0,0,.51,1.35A2,2,0,0,0,529.92,454.89Z" transform="translate(-206.09 -79.45)"/><path class="cls-15" d="M553.45,452.5q0,1.31,0,2.61a22.86,22.86,0,0,0,.28,2.88h-2.88l-.56-2h-.12a4.78,4.78,0,0,1-1.79,1.75,5.45,5.45,0,0,1-2.74.66,5.6,5.6,0,0,1-4.53-1.92q-1.6-1.92-1.61-6a9.49,9.49,0,0,1,1.8-6.17,6.39,6.39,0,0,1,5.27-2.2,8.65,8.65,0,0,1,1.58.11,6.4,6.4,0,0,1,1.24.35v-6.29h4ZM546.6,455a2.83,2.83,0,0,0,1.86-.57,3.12,3.12,0,0,0,1-1.66v-6.57a3,3,0,0,0-1-.51,4.65,4.65,0,0,0-1.36-.17,3,3,0,0,0-2.56,1.15,6.75,6.75,0,0,0-.86,3.93,6.43,6.43,0,0,0,.7,3.2A2.39,2.39,0,0,0,546.6,455Z" transform="translate(-206.09 -79.45)"/><path class="cls-15" d="M557.08,436.26q.64-.09,1.47-.15c.55-.05,1.11-.08,1.69-.1l1.69,0,1.47,0a13.39,13.39,0,0,1,4.93.81,8.38,8.38,0,0,1,3.32,2.26,9.28,9.28,0,0,1,1.86,3.47,15.83,15.83,0,0,1,.59,4.43,16.14,16.14,0,0,1-.56,4.25,9.57,9.57,0,0,1-1.86,3.63,9.36,9.36,0,0,1-3.43,2.54,12.69,12.69,0,0,1-5.25,1l-1.32,0-1.71-.08-1.68-.09c-.54,0-.94-.07-1.21-.11Zm6.66,3.47-1.38,0a8.46,8.46,0,0,0-1,.1V454.4a3,3,0,0,0,.42,0l.64,0,.65,0,.46,0a6.29,6.29,0,0,0,3-.64,5.07,5.07,0,0,0,1.89-1.69,6.74,6.74,0,0,0,1-2.43,14,14,0,0,0,.28-2.84,13,13,0,0,0-.25-2.55,6.35,6.35,0,0,0-.91-2.31,5.33,5.33,0,0,0-1.81-1.68A5.92,5.92,0,0,0,563.74,439.73Z" transform="translate(-206.09 -79.45)"/><path class="cls-8" d="M546.81,200.79c-.34,0-2.1.12-3.52,3.74a26.91,26.91,0,0,0-1.47,8.94l-.16,80.07c0,7.45,2.36,13.51,5.31,13.52l36.07.13c2.78,0,5-5.7,5-12.75q.06-40.06.13-80.13c0-7.46-2.37-13.52-5.31-13.52Z" transform="translate(-206.09 -79.45)"/><path class="cls-18" d="M546.81,199.29c-6.72.57-6.49,11.63-6.5,16.76l0,24.28c0,17.54-.22,35.09-.1,52.63,0,4.32.31,9.65,3,13.27,1.77,2.37,3.74,2.33,6.38,2.34l29.09.1c2.2,0,4.9.48,6.8-.87,5.65-4,4.14-15.46,4.15-21.18q.06-33.22.11-66.45c0-5.21,1.24-18.22-5.56-20.64-2.6-.93-6.37-.24-9-.24H546.81a1.5,1.5,0,0,0,0,3h32.33c4.49,0,5.91.89,7,6.07,1.91,9,.54,19.28.52,28.43l0,28.34c0,9.75.24,19.56,0,29.31-.14,4.59-.29,11.26-5.86,11.24l-25.55-.09c-2.26,0-5.8.67-8,0-4-1.26-4-9.06-4-12.42-.12-14.37.06-28.74.08-43.11l.06-28c0-3.81-1-19.32,3.51-19.7C548.72,202.13,548.74,199.13,546.81,199.29Z" transform="translate(-206.09 -79.45)"/><path class="cls-8" d="M500.81,200.79c-.34,0-2.1.12-3.52,3.74a26.91,26.91,0,0,0-1.47,8.94l-.16,80.07c0,7.45,2.36,13.51,5.31,13.52l36.07.13c2.78,0,5-5.7,5-12.75q.06-40.06.13-80.13c0-7.46-2.37-13.52-5.31-13.52Z" transform="translate(-206.09 -79.45)"/><path class="cls-18" d="M500.81,199.29c-6.72.57-6.49,11.63-6.5,16.76l-.05,24.28c0,17.54-.22,35.09-.1,52.63,0,4.32.31,9.65,3,13.27,1.77,2.37,3.74,2.33,6.38,2.34l29.09.1c2.2,0,4.9.48,6.8-.87,5.65-4,4.14-15.46,4.15-21.18q.06-33.22.11-66.45c0-5.21,1.24-18.22-5.56-20.64-2.6-.93-6.37-.24-9-.24H500.81a1.5,1.5,0,0,0,0,3h32.33c4.49,0,5.91.89,7,6.07,1.91,9,.54,19.28.52,28.43l0,28.34c0,9.75.24,19.56,0,29.31-.14,4.59-.29,11.26-5.86,11.24l-25.55-.09c-2.26,0-5.8.67-8,0-4-1.26-4-9.06-4-12.42-.12-14.37.06-28.74.08-43.11l.06-28c0-3.81-1-19.32,3.51-19.7C502.72,202.13,502.74,199.13,500.81,199.29Z" transform="translate(-206.09 -79.45)"/><path class="cls-15" d="M512.71,240.22h12.87V244H517v5.36h7.94v3.78H517v8.78h-4.25Z" transform="translate(-206.09 -79.45)"/><path class="cls-15" d="M528.28,247.32a12.79,12.79,0,0,1,2.94-.89,18.82,18.82,0,0,1,3.57-.32,8.29,8.29,0,0,1,2.69.38,4.09,4.09,0,0,1,1.72,1.1,4,4,0,0,1,.9,1.71,8.46,8.46,0,0,1,.27,2.23c0,.91,0,1.83-.1,2.74s-.09,1.83-.1,2.72,0,1.75.07,2.59a10.16,10.16,0,0,0,.47,2.37h-3.29l-.65-2.14h-.15a5.62,5.62,0,0,1-1.73,1.66,5.23,5.23,0,0,1-2.83.69,5.43,5.43,0,0,1-1.95-.32,4.28,4.28,0,0,1-1.49-.93,4,4,0,0,1-1-1.43,4.68,4.68,0,0,1-.34-1.84,4.33,4.33,0,0,1,.63-2.4,4.55,4.55,0,0,1,1.83-1.59,9.1,9.1,0,0,1,2.85-.83,20,20,0,0,1,3.71-.14,4.08,4.08,0,0,0-.25-2.5c-.31-.5-1-.76-2.08-.76a14.76,14.76,0,0,0-2.56.25,9.61,9.61,0,0,0-2.21.65Zm5.11,11.53a3.08,3.08,0,0,0,1.92-.54,3.82,3.82,0,0,0,1.06-1.17v-2a11.52,11.52,0,0,0-1.85,0,6.3,6.3,0,0,0-1.56.28,2.56,2.56,0,0,0-1.09.62,1.36,1.36,0,0,0-.4,1,1.76,1.76,0,0,0,.51,1.35A2,2,0,0,0,533.39,258.85Z" transform="translate(-206.09 -79.45)"/><path class="cls-15" d="M556.92,256.46c0,.87,0,1.74,0,2.6a21.42,21.42,0,0,0,.28,2.89h-2.88l-.56-2h-.12a4.64,4.64,0,0,1-1.79,1.75,5.35,5.35,0,0,1-2.74.67,5.6,5.6,0,0,1-4.53-1.92q-1.61-1.92-1.61-6a9.46,9.46,0,0,1,1.8-6.16,6.4,6.4,0,0,1,5.27-2.21,9.65,9.65,0,0,1,1.58.11,6.44,6.44,0,0,1,1.24.36v-6.29h4Zm-6.85,2.48a2.83,2.83,0,0,0,1.86-.57,3.2,3.2,0,0,0,1-1.66v-6.57a3.19,3.19,0,0,0-1-.52,4.68,4.68,0,0,0-1.37-.17A3,3,0,0,0,548,250.6a6.81,6.81,0,0,0-.86,3.94,6.39,6.39,0,0,0,.7,3.19A2.38,2.38,0,0,0,550.07,258.94Z" transform="translate(-206.09 -79.45)"/><path class="cls-15" d="M574.28,261.92H560.55v-21.7h4.24v17.91h9.49Z" transform="translate(-206.09 -79.45)"/></svg>