<svg xmlns="http://www.w3.org/2000/svg" viewBox="0 0 580.64 196.28"><defs><style>.cls-1,.cls-3{stroke:#000;stroke-miterlimit:10;}.cls-1{stroke-width:3px;}.cls-2{fill:#0079bf;}.cls-3{fill:none;stroke-width:5px;}</style></defs><title>Asset 14intermediateconstruction_4</title><g id="Layer_2" data-name="Layer 2"><g id="Layer_1-2" data-name="Layer 1"><path class="cls-1" d="M213.35,97.23H162.51c0-12.17,11.38-22,25.42-22S213.35,85.06,213.35,97.23Z"/><rect class="cls-2" x="256.26" y="39.26" width="160" height="55.93"/><path d="M251,146h2.47l.39,1.56h.1a4.39,4.39,0,0,1,1.6-1.45,5,5,0,0,1,2.25-.47,4.41,4.41,0,0,1,3.67,1.55q1.21,1.55,1.22,5a10.69,10.69,0,0,1-.39,3,6.46,6.46,0,0,1-1.16,2.28,5.06,5.06,0,0,1-1.87,1.43,6.32,6.32,0,0,1-2.54.49,6,6,0,0,1-1.32-.12,4.62,4.62,0,0,1-1-.37v5.33H251Zm5.8,2.5a2.3,2.3,0,0,0-1.55.49,3.29,3.29,0,0,0-.87,1.49v5.4a2.86,2.86,0,0,0,.79.46,3.2,3.2,0,0,0,1.13.17,2.51,2.51,0,0,0,2.19-1,6.05,6.05,0,0,0,.72-3.39,5.11,5.11,0,0,0-.57-2.65A2,2,0,0,0,256.75,148.45Z"/><path d="M272.92,154.07a1.73,1.73,0,0,0-.61-1.36,7.14,7.14,0,0,0-1.54-1c-.61-.28-1.28-.58-2-.88a9.52,9.52,0,0,1-2-1.12,5.65,5.65,0,0,1-1.54-1.65,4.8,4.8,0,0,1-.61-2.52,5.46,5.46,0,0,1,.45-2.3,4.19,4.19,0,0,1,1.26-1.62,5.32,5.32,0,0,1,1.93-1,9.67,9.67,0,0,1,2.5-.31,15.83,15.83,0,0,1,3,.27,7.33,7.33,0,0,1,2.31.8l-1.11,3a6.2,6.2,0,0,0-1.72-.67,9.73,9.73,0,0,0-2.47-.29,3.15,3.15,0,0,0-1.91.49,1.57,1.57,0,0,0-.66,1.32,1.61,1.61,0,0,0,.61,1.3,7.07,7.07,0,0,0,1.53,1c.62.29,1.28.6,2,.91a11,11,0,0,1,2,1.13,5.71,5.71,0,0,1,1.53,1.64,4.47,4.47,0,0,1,.61,2.43,6,6,0,0,1-.48,2.51,4.77,4.77,0,0,1-1.35,1.75,5.79,5.79,0,0,1-2.11,1,10.08,10.08,0,0,1-2.72.34,14.08,14.08,0,0,1-3.43-.37,10.53,10.53,0,0,1-2.18-.72l1.14-3a6,6,0,0,0,.74.34,9.57,9.57,0,0,0,1,.34c.38.1.78.19,1.21.26a8,8,0,0,0,1.31.1,4.52,4.52,0,0,0,2.43-.53A1.77,1.77,0,0,0,272.92,154.07Z"/><path d="M291.09,145a5.21,5.21,0,0,1-.17,1.35,3.58,3.58,0,0,1-.56,1.24,4,4,0,0,1-1,1,4.41,4.41,0,0,1-1.51.63v.16a6,6,0,0,1,1.48.44,4,4,0,0,1,1.23.86,3.86,3.86,0,0,1,.81,1.33,5.11,5.11,0,0,1,.3,1.84,4.81,4.81,0,0,1-.59,2.43,5,5,0,0,1-1.6,1.68,7.53,7.53,0,0,1-2.28,1,10.86,10.86,0,0,1-2.62.31h-1.14c-.45,0-.95,0-1.48,0s-1.06-.06-1.61-.11a11.7,11.7,0,0,1-1.49-.23v-18l1.13-.15c.42,0,.88-.1,1.36-.13s1-.06,1.5-.08,1,0,1.52,0a15.57,15.57,0,0,1,2.48.19,7,7,0,0,1,2.16.69,4,4,0,0,1,1.52,1.38A4,4,0,0,1,291.09,145Zm-7.67,3.41.85,0a7,7,0,0,0,.79-.07,4.74,4.74,0,0,0,1.7-.93,2,2,0,0,0,.72-1.62,2.17,2.17,0,0,0-.26-1.11,2.07,2.07,0,0,0-.69-.69,3,3,0,0,0-1-.36,6,6,0,0,0-1.14-.1c-.45,0-.87,0-1.25,0a7.23,7.23,0,0,0-.88.08v4.81Zm1.17,7.82a5.24,5.24,0,0,0,1.26-.15,3.12,3.12,0,0,0,1.08-.48,2.56,2.56,0,0,0,.76-.81,2.28,2.28,0,0,0-.94-3.25,3.61,3.61,0,0,0-1.22-.35,12.22,12.22,0,0,0-1.35-.08h-1.9v5a1.82,1.82,0,0,0,.41.08l.61,0,.68,0Z"/><path d="M295.28,156.09h3.61V145.83l.39-1.77L298,145.59l-2.31,1.59-1.43-2,5.93-4.79h1.9v15.65h3.53V159H295.28Z"/><path d="M321.28,158.21a5.54,5.54,0,0,1-2.12.85,13.58,13.58,0,0,1-2.64.26,9.44,9.44,0,0,1-3.11-.51,6.54,6.54,0,0,1-2.58-1.64,8.08,8.08,0,0,1-1.79-2.93,12.88,12.88,0,0,1-.66-4.39,12,12,0,0,1,.74-4.48,8.18,8.18,0,0,1,1.93-2.91,6.92,6.92,0,0,1,2.64-1.59,9.24,9.24,0,0,1,2.91-.48,14.1,14.1,0,0,1,2.64.21,9.85,9.85,0,0,1,1.78.49l-.7,3a5.4,5.4,0,0,0-1.42-.42,13.9,13.9,0,0,0-2-.13,4.35,4.35,0,0,0-3.47,1.54,7.19,7.19,0,0,0-1.31,4.77,9.71,9.71,0,0,0,.31,2.56,5.37,5.37,0,0,0,.95,2,4.28,4.28,0,0,0,1.58,1.28,4.94,4.94,0,0,0,2.2.46,7.05,7.05,0,0,0,2-.24,5.78,5.78,0,0,0,1.4-.59Z"/><path d="M328.19,156.46a3.3,3.3,0,0,0,2.46-.86,2.87,2.87,0,0,0,.84-2.08,2.59,2.59,0,0,0-.88-2.18,4.45,4.45,0,0,0-2.78-.71H326v-1.79l3.14-4.29,1.49-1.17-2.06.23h-4.37v-2.86h9.93v1.85l-3.66,4.91-1.15.71v.13l1.1-.16a5.69,5.69,0,0,1,1.73.42,4.22,4.22,0,0,1,1.43,1,4.79,4.79,0,0,1,1,1.58,5.94,5.94,0,0,1,.36,2.15,6.33,6.33,0,0,1-.5,2.65,5.29,5.29,0,0,1-1.41,1.88,5.75,5.75,0,0,1-2.09,1.11,8.54,8.54,0,0,1-2.57.37,14,14,0,0,1-2.37-.21,7,7,0,0,1-2-.6l.91-2.81a7.27,7.27,0,0,0,3.33.76Z"/><path d="M308.51.28h11.62V3.7h-7.78V8.54h7.17V12h-7.17v7.92h-3.84Z"/><path d="M322.57,6.69a12.53,12.53,0,0,1,2.66-.8,17.69,17.69,0,0,1,3.22-.29,7.45,7.45,0,0,1,2.44.35,3.64,3.64,0,0,1,1.55,1,3.8,3.8,0,0,1,.81,1.54,7.83,7.83,0,0,1,.24,2c0,.82,0,1.65-.08,2.48s-.09,1.65-.1,2.45,0,1.58.07,2.34a8.29,8.29,0,0,0,.42,2.14h-3L330.24,18h-.14a5,5,0,0,1-1.55,1.49,4.71,4.71,0,0,1-2.56.63,4.91,4.91,0,0,1-1.77-.29,3.91,3.91,0,0,1-1.34-.84,3.72,3.72,0,0,1-.87-1.29A4.2,4.2,0,0,1,321.7,16a3.82,3.82,0,0,1,.58-2.17,4.08,4.08,0,0,1,1.65-1.43,8.09,8.09,0,0,1,2.57-.76,18,18,0,0,1,3.35-.12,3.67,3.67,0,0,0-.22-2.26c-.28-.46-.91-.68-1.88-.68a12.68,12.68,0,0,0-2.31.22,8.57,8.57,0,0,0-2,.59Zm4.62,10.42a2.85,2.85,0,0,0,1.74-.49,3.54,3.54,0,0,0,.95-1.05V13.75a9.4,9.4,0,0,0-1.67,0,6.24,6.24,0,0,0-1.41.25,2.39,2.39,0,0,0-1,.56,1.27,1.27,0,0,0-.37.93,1.57,1.57,0,0,0,.47,1.21A1.77,1.77,0,0,0,327.19,17.11Z"/><path d="M348.44,15c0,.79,0,1.57,0,2.35a20,20,0,0,0,.25,2.61h-2.6l-.51-1.82h-.11a4.22,4.22,0,0,1-1.61,1.58,4.9,4.9,0,0,1-2.48.6,5,5,0,0,1-4.08-1.73q-1.45-1.74-1.46-5.44a8.6,8.6,0,0,1,1.62-5.57,5.82,5.82,0,0,1,4.76-2,9.1,9.1,0,0,1,1.43.1A5.69,5.69,0,0,1,344.8,6V.28h3.64Zm-6.19,2.24a2.5,2.5,0,0,0,1.68-.52,2.79,2.79,0,0,0,.87-1.49V9.24a2.79,2.79,0,0,0-.87-.46,4.08,4.08,0,0,0-1.23-.16,2.7,2.7,0,0,0-2.31,1,6.19,6.19,0,0,0-.77,3.56,5.75,5.75,0,0,0,.63,2.88A2.14,2.14,0,0,0,342.25,17.19Z"/><path d="M351.72.28c.39-.06.83-.1,1.33-.14s1-.07,1.52-.08l1.53,0h1.33a12,12,0,0,1,4.45.73,7.55,7.55,0,0,1,3,2,8.33,8.33,0,0,1,1.68,3.14,14.39,14.39,0,0,1,.53,4,14.76,14.76,0,0,1-.5,3.84A8.77,8.77,0,0,1,364.91,17a8.42,8.42,0,0,1-3.1,2.3,11.47,11.47,0,0,1-4.74.87l-1.19,0-1.54-.07L352.81,20c-.49,0-.85-.06-1.09-.1Zm6,3.14-1.25,0a7.25,7.25,0,0,0-.94.09V16.66a2.3,2.3,0,0,0,.38,0l.58,0,.58,0h.42a5.76,5.76,0,0,0,2.71-.57,4.57,4.57,0,0,0,1.7-1.53,6.17,6.17,0,0,0,.89-2.2,13.47,13.47,0,0,0,.25-2.56,12.22,12.22,0,0,0-.23-2.31A5.77,5.77,0,0,0,362,5.52,4.71,4.71,0,0,0,360.37,4,5.31,5.31,0,0,0,357.74,3.42Z"/><rect class="cls-3" x="2.5" y="97.73" width="575.64" height="96.06" rx="8.68" ry="8.68"/><line class="cls-3" x1="52.99" y1="65.77" x2="52.99" y2="127.09"/><line class="cls-3" x1="70.99" y1="65.74" x2="70.99" y2="127.06"/><path d="M48.77,45.33h8.72V47.9H51.65v3.42H57v2.56H51.65v3.59h5.94V60H48.77Z"/><path d="M69.39,52.56l-4.1-7.23h3.47L71,49.58l.51,1.49L72,49.58l2.37-4.25h3.13l-4.24,7.08L77.72,60H74.3L71.72,55.5,71.15,54,70.6,55.5,68,60H64.87Z"/><line class="cls-3" x1="498.97" y1="75.96" x2="498.97" y2="137.28"/><line class="cls-3" x1="516.97" y1="75.93" x2="516.97" y2="137.25"/><path d="M501,66.28a1.35,1.35,0,0,0-.49-1.09,5.38,5.38,0,0,0-1.24-.77c-.5-.23-1-.47-1.62-.71A8.17,8.17,0,0,1,496,62.8a4.51,4.51,0,0,1-1.24-1.33,3.8,3.8,0,0,1-.5-2,4.47,4.47,0,0,1,.36-1.86,3.55,3.55,0,0,1,1-1.31,4.4,4.4,0,0,1,1.56-.78,7.92,7.92,0,0,1,2-.25,12.52,12.52,0,0,1,2.42.22,6.22,6.22,0,0,1,1.86.64l-.9,2.42a4.93,4.93,0,0,0-1.38-.54,8,8,0,0,0-2-.24,2.5,2.5,0,0,0-1.54.4,1.27,1.27,0,0,0-.54,1.07,1.35,1.35,0,0,0,.49,1,6,6,0,0,0,1.24.78c.5.24,1,.48,1.62.73a8.58,8.58,0,0,1,1.62.92A4.6,4.6,0,0,1,503.39,64a3.61,3.61,0,0,1,.49,2,4.84,4.84,0,0,1-.39,2,3.84,3.84,0,0,1-1.09,1.42,4.92,4.92,0,0,1-1.7.84,8.45,8.45,0,0,1-2.2.27,12,12,0,0,1-2.77-.29,9,9,0,0,1-1.76-.59l.92-2.46a6,6,0,0,0,.6.27c.25.1.52.19.83.28s.63.15,1,.21a7.23,7.23,0,0,0,1.06.08,3.68,3.68,0,0,0,2-.43A1.45,1.45,0,0,0,501,66.28Z"/><path d="M512.64,55.67c.59-.11,1.24-.2,1.94-.26s1.41-.09,2.11-.09a14.92,14.92,0,0,1,2.2.17,5.46,5.46,0,0,1,2,.72,4.12,4.12,0,0,1,1.44,1.49,4.94,4.94,0,0,1,.56,2.49,5.06,5.06,0,0,1-.49,2.34,4.37,4.37,0,0,1-1.28,1.56,5.19,5.19,0,0,1-1.81.89,8.25,8.25,0,0,1-2.11.27h-.82l-.5,0-.34,0v5.06h-2.88Zm4.28,2.12a6.63,6.63,0,0,0-.79,0,5.5,5.5,0,0,0-.61.07v4.77l.25,0,.36,0h.63a6.07,6.07,0,0,0,1.12-.11,2.81,2.81,0,0,0,1-.38,2.07,2.07,0,0,0,.7-.79,2.82,2.82,0,0,0,.26-1.32,2.31,2.31,0,0,0-.25-1.15,2.08,2.08,0,0,0-.66-.72,2.41,2.41,0,0,0-.93-.38A5.57,5.57,0,0,0,516.92,57.79Z"/><path d="M178.8,60.7a3.54,3.54,0,0,0,2.65-.92,3.1,3.1,0,0,0,.91-2.24,2.83,2.83,0,0,0-1-2.35,4.8,4.8,0,0,0-3-.76h-2V52.5l3.39-4.62,1.6-1.26-2.21.25h-4.71V43.79h10.7v2l-3.95,5.29-1.23.76V52l1.17-.17a6.17,6.17,0,0,1,1.87.45,4.49,4.49,0,0,1,1.54,1A5.28,5.28,0,0,1,185.61,55a6.43,6.43,0,0,1,.39,2.33,6.74,6.74,0,0,1-.55,2.85,5.65,5.65,0,0,1-1.51,2,6.33,6.33,0,0,1-2.25,1.2,9.58,9.58,0,0,1-2.78.39,15,15,0,0,1-2.54-.22,7.39,7.39,0,0,1-2.13-.64l1-3a7.72,7.72,0,0,0,3.58.81Z"/><path d="M201.23,48.58a8.44,8.44,0,0,1-.52,2.88,17.45,17.45,0,0,1-1.31,2.86,27.84,27.84,0,0,1-1.77,2.7q-1,1.3-1.89,2.4l-1.48,1.14v.14l2-.39h5.38v3.08H189.86V61.52c.45-.47.95-1,1.51-1.64s1.13-1.29,1.7-2,1.12-1.42,1.66-2.17a26,26,0,0,0,1.46-2.25,13.78,13.78,0,0,0,1-2.2,6.08,6.08,0,0,0,.38-2,2.76,2.76,0,0,0-.66-1.89,2.66,2.66,0,0,0-2.08-.74A5,5,0,0,0,193,47a5.25,5.25,0,0,0-1.58,1L190,45.39A9.1,9.1,0,0,1,192.45,44a8.76,8.76,0,0,1,3.26-.55,6.85,6.85,0,0,1,2.22.34,4.82,4.82,0,0,1,1.73,1,4.42,4.42,0,0,1,1.15,1.61A5.58,5.58,0,0,1,201.23,48.58Z"/></g></g></svg>