<svg xmlns="http://www.w3.org/2000/svg" viewBox="0 0 400 400.01"><defs><style>.cls-1{fill:#009245;}.cls-2{fill:#ffe91f;}.cls-3{fill:#ff2d0a;}.cls-4{fill:#763a02;}.cls-5{fill:#93c1e8;}.cls-6{fill:#ff1d25;}</style></defs><title>food_safety</title><g id="Layer_2" data-name="Layer 2"><g id="Layer_1-2" data-name="Layer 1"><path class="cls-1" d="M172.41,255.18a21.37,21.37,0,0,1-15.22-6.3,7.89,7.89,0,0,0-10.93,0,21.57,21.57,0,0,1-30.45,0,7.89,7.89,0,0,0-10.93,0,22.1,22.1,0,0,1-30.45,0L64.09,238.53l9.75-9.75,10.35,10.34a7.73,7.73,0,0,0,10.93,0,22.1,22.1,0,0,1,30.45,0,7.91,7.91,0,0,0,10.93,0,22.08,22.08,0,0,1,30.44,0,7.74,7.74,0,0,0,10.94,0l10.35-10.34,9.75,9.75-10.35,10.35a21.33,21.33,0,0,1-15.22,6.3Z"/><path class="cls-2" d="M172.41,239.9a21.42,21.42,0,0,1-15.22-6.31,7.91,7.91,0,0,0-10.93,0,21.55,21.55,0,0,1-30.45,0,7.91,7.91,0,0,0-10.93,0,22.08,22.08,0,0,1-30.45,0L64.09,223.25l9.75-9.75,10.35,10.34a7.73,7.73,0,0,0,10.93,0,22.08,22.08,0,0,1,30.45,0,7.91,7.91,0,0,0,10.93,0,22.06,22.06,0,0,1,30.44,0,7.74,7.74,0,0,0,10.94,0l10.35-10.34,9.75,9.75-10.35,10.34a21.38,21.38,0,0,1-15.22,6.31Z"/><path class="cls-3" d="M172.41,268.38a21.37,21.37,0,0,1-15.22-6.3,7.89,7.89,0,0,0-10.93,0,21.57,21.57,0,0,1-30.45,0,7.89,7.89,0,0,0-10.93,0,22.1,22.1,0,0,1-30.45,0L64.09,251.73,73.84,242l10.35,10.34a7.73,7.73,0,0,0,10.93,0,22.1,22.1,0,0,1,30.45,0,7.91,7.91,0,0,0,10.93,0,22.08,22.08,0,0,1,30.44,0,7.74,7.74,0,0,0,10.94,0L188.23,242l9.75,9.75-10.35,10.35a21.33,21.33,0,0,1-15.22,6.3Z"/><path class="cls-4" d="M241.38,137H227.59V98.46L202,72.89l9.75-9.75,27.59,27.58a6.93,6.93,0,0,1,2,4.88Z"/><path class="cls-4" d="M82.76,263.91a27.58,27.58,0,0,0,27.58,27.59h41.38a27.59,27.59,0,0,0,27.59-27.59Z"/><path class="cls-5" d="M200.9,124.14l20.69,172.42h69l20.69-172.42Z"/><path class="cls-4" d="M82.76,223.7h96.55a41.38,41.38,0,0,0-41.38-41.38H124.14A41.38,41.38,0,0,0,82.76,223.7Z"/><path class="cls-6" d="M400,200C400,89.58,310.55,0,200.13,0A199.88,199.88,0,0,0,69.34,48.66L69,48.28l-8.58,8.58q-1.78,1.74-3.53,3.53L48.28,69l.37.37A199.15,199.15,0,0,0,0,200C0,310.43,89.45,400,199.87,400a199.91,199.91,0,0,0,130.79-48.65l.37.37,8.58-8.58q1.78-1.74,3.53-3.53l8.58-8.58-.37-.37A199.14,199.14,0,0,0,400,200ZM200,372.42A172.38,172.38,0,0,1,68.2,88.9L311.11,331.81A171.72,171.72,0,0,1,200,372.42ZM372.41,200A171.72,171.72,0,0,1,331.8,311.12L88.89,68.21A172.37,172.37,0,0,1,372.41,200Z"/></g></g></svg>