<?xml version="1.0" encoding="utf-8"?>
<!-- Generator: Adobe Illustrator 22.1.0, SVG Export Plug-In . SVG Version: 6.00 Build 0)  -->
<svg version="1.1" id="Layer_1" xmlns="http://www.w3.org/2000/svg" xmlns:xlink="http://www.w3.org/1999/xlink" x="0px" y="0px"
	 viewBox="0 0 362.5 76.8" style="enable-background:new 0 0 362.5 76.8;" xml:space="preserve">
<g>
	<path d="M42.7,29.7h-0.1L35,54.9h-6.4l-11.5-36h7.7l6.9,25.2h0.1L40,18.9h5.2l8.2,25.2h0.1l6.9-25.2h7.7l-11.5,36h-6.4L42.7,29.7z"
		/>
	<path d="M78.4,39.7c0,2.9,0.8,5.1,2.5,6.6c1.5,1.5,3.6,2.3,6.1,2.3c2.9,0,5.6-1.2,7.9-3.5l5.2,4.5c-3.7,3.9-8,5.9-13,5.8
		c-1.9,0-3.7-0.3-5.5-0.8c-0.9-0.3-1.8-0.7-2.6-1.2c-0.9-0.4-1.7-1-2.5-1.6c-1.5-1.3-2.8-3.2-3.7-5.6c-1-2.3-1.6-5.3-1.6-9
		c0-3.6,0.5-6.5,1.4-8.9c0.9-2.4,2.1-4.3,3.5-5.7c1.4-1.4,3-2.4,4.8-3.1c1.8-0.6,3.5-0.9,5.2-0.9c4.1,0,7.6,1.4,10.4,4.1
		c2.9,2.7,4.4,6.4,4.4,11.2v6H78.4z M93.6,33.7c-0.1-2.8-0.8-4.9-2.3-6.3c-1.4-1.4-3.2-2-5.3-2c-2.2,0-4,0.7-5.3,2
		c-1.4,1.4-2.1,3.5-2.3,6.3H93.6z"/>
	<path d="M125.5,18.9h7.2v3.7c2.4-2.7,5.5-4.1,9.3-4.2c4.4,0.1,7.6,1.7,9.7,4.7c1,1.1,1.7,2.6,2,4.5c0.3,1.8,0.5,4.9,0.5,9.3
		c0,4.3-0.2,7.3-0.5,9.2c-0.4,1.8-1.1,3.4-2,4.5c-1,1.4-2.3,2.5-3.9,3.3c-1.6,0.9-3.5,1.3-5.8,1.4c-1.8,0-3.5-0.4-5-1.2
		c-1.6-0.7-3-1.8-4.3-3.1v18.4h-7.2V18.9z M139.8,48.1c1.7,0,3.1-0.3,4.1-1c1-0.7,1.7-1.5,2.1-2.6c0.5-1.1,0.8-2.3,0.9-3.6
		c0-1.3,0.1-2.6,0.1-4c0-1.4,0-2.8-0.1-4.2c-0.2-1.4-0.5-2.6-0.9-3.6c-0.4-1.1-1.1-1.9-2.1-2.6c-1-0.6-2.3-0.9-4.1-0.9
		c-1.6,0-2.9,0.3-3.8,1c-1,0.7-1.7,1.5-2.2,2.6c-0.4,1.1-0.7,2.3-0.9,3.5c-0.1,1.3-0.2,2.7-0.2,4.1c0,1.3,0.1,2.5,0.2,3.8
		c0.1,1.3,0.4,2.6,0.9,3.6c0.5,1.1,1.2,2,2.2,2.6C136.9,47.7,138.2,48.1,139.8,48.1z"/>
	<path d="M162.3,18.9h7.2v3.8h0.1c2.4-2.8,5.5-4.3,9.4-4.3c2.9,0,5.4,1,7.6,2.8l-5.3,6.3c-1.5-1.2-3.1-1.8-4.7-1.8
		c-1.8,0-3.4,0.6-4.8,1.8c-1.5,1.2-2.2,3.1-2.3,5.7v21.7h-7.2V18.9z"/>
	<path d="M194.1,39.7c0,2.9,0.8,5.1,2.5,6.6c1.5,1.5,3.6,2.3,6.1,2.3c2.9,0,5.6-1.2,7.9-3.5l5.2,4.5c-3.7,3.9-8,5.9-13,5.8
		c-1.9,0-3.7-0.3-5.5-0.8c-0.9-0.3-1.8-0.7-2.6-1.2c-0.9-0.4-1.7-1-2.5-1.6c-1.5-1.3-2.8-3.2-3.7-5.6c-1-2.3-1.6-5.3-1.6-9
		c0-3.6,0.5-6.5,1.4-8.9c0.9-2.4,2.1-4.3,3.5-5.7c1.4-1.4,3-2.4,4.8-3.1c1.8-0.6,3.5-0.9,5.2-0.9c4.1,0,7.6,1.4,10.4,4.1
		c2.9,2.7,4.4,6.4,4.4,11.2v6H194.1z M209.3,33.7c-0.1-2.8-0.8-4.9-2.3-6.3c-1.4-1.4-3.2-2-5.3-2s-4,0.7-5.3,2
		c-1.4,1.4-2.1,3.5-2.3,6.3H209.3z"/>
	<path d="M236.6,48.5c2.1,0,3.8-0.4,5.1-1.2c1.3-0.8,2-1.9,2-3.4c0-1.3-0.4-2.2-1.2-2.7c-0.8-0.5-1.9-0.8-3.2-0.9l-6.4-0.6
		c-3-0.3-5.5-1.3-7.4-3.1c-1.9-1.7-2.9-4.1-3-7.2c0-3.7,1.4-6.5,3.9-8.3c2.5-1.8,5.7-2.8,9.5-2.8c1.7,0,3.2,0.1,4.5,0.3
		c1.3,0.2,2.6,0.6,3.7,1c2.2,0.9,4.2,2.1,6,3.6l-4.5,5.2c-1.4-1-2.9-1.8-4.4-2.5c-1.5-0.6-3.3-0.9-5.3-0.9c-2.3,0-3.8,0.4-4.8,1.2
		c-0.9,0.8-1.4,1.8-1.4,3.1c0,0.8,0.3,1.5,1.1,2.1c0.7,0.7,1.9,1.1,3.7,1.3l6,0.5c3.7,0.3,6.4,1.4,8.1,3.4c1.5,1.9,2.3,4.4,2.3,7.4
		c0,3.5-1.5,6.2-4.3,8.1c-2.8,1.9-6.3,2.9-10.6,3c-5.9,0-11.2-2.1-15.8-6.4l5.1-5C228.2,47,232,48.5,236.6,48.5z"/>
	<path d="M263.7,39.7c0,2.9,0.8,5.1,2.5,6.6c1.5,1.5,3.6,2.3,6.1,2.3c2.9,0,5.6-1.2,7.9-3.5l5.2,4.5c-3.7,3.9-8,5.9-13,5.8
		c-1.9,0-3.7-0.3-5.5-0.8c-0.9-0.3-1.8-0.7-2.6-1.2c-0.9-0.4-1.7-1-2.5-1.6c-1.5-1.3-2.8-3.2-3.7-5.6c-1-2.3-1.6-5.3-1.6-9
		c0-3.6,0.5-6.5,1.4-8.9c0.9-2.4,2.1-4.3,3.5-5.7c1.4-1.4,3-2.4,4.8-3.1c1.8-0.6,3.5-0.9,5.2-0.9c4.1,0,7.6,1.4,10.4,4.1
		c2.9,2.7,4.4,6.4,4.4,11.2v6H263.7z M278.9,33.7c-0.1-2.8-0.8-4.9-2.3-6.3c-1.4-1.4-3.2-2-5.3-2c-2.2,0-4,0.7-5.3,2
		c-1.4,1.4-2.1,3.5-2.3,6.3H278.9z"/>
	<path d="M293.7,18.9h7.2v3.8h0.1c2.4-2.8,5.5-4.3,9.4-4.3c3,0,5.7,1.1,8.2,3.2c2.4,2.1,3.7,5.2,3.8,9.4v23.9h-7.2V33.5
		c0-2.5-0.7-4.4-2-5.8c-1.3-1.3-3-2-5.1-2s-3.8,0.7-5.1,2c-1.4,1.3-2,3.2-2,5.8v21.4h-7.2V18.9z"/>
	<path d="M332.3,8h7.2v11h5.3v5.5h-5.3v21c0,1.8,0.8,2.7,2.6,2.7h2.7v6.8H341c-2.5,0-4.6-0.8-6.2-2.4c-1.7-1.5-2.5-3.7-2.5-6.5V24.4
		h-3.6v-5.5h3.6V8z"/>
</g>
</svg>
